<svg xmlns="http://www.w3.org/2000/svg" xmlns:xlink="http://www.w3.org/1999/xlink" width="84" height="84" viewBox="0 0 84 84">
  <defs>
    <clipPath id="clip-path">
      <rect id="Rectángulo_405701" data-name="Rectángulo 405701" width="49" height="49" transform="translate(773.051 5989)" fill="#4d0099" stroke="#707070" stroke-width="1"/>
    </clipPath>
    <clipPath id="clip-path-2">
      <path id="path183" d="M0-49H49V0H0Z" fill="#4d0099"/>
    </clipPath>
  </defs>
  <g id="Grupo_1108949" data-name="Grupo 1108949" transform="translate(-406.516 -6095.023)">
    <path id="Trazado_898881" data-name="Trazado 898881" d="M42,0A42,42,0,1,1,0,42,42,42,0,0,1,42,0Z" transform="translate(406.516 6095.023)" fill="#fff"/>
    <g id="Enmascarar_grupo_1098715" data-name="Enmascarar grupo 1098715" transform="translate(-348.535 124.023)" clip-path="url(#clip-path)">
      <g id="g177" transform="translate(773.051 6038)">
        <g id="g179">
          <g id="g181" clip-path="url(#clip-path-2)">
            <g id="g187" transform="translate(35.429 -21.992)">
              <path id="path189" d="M1.6,1.109A9.516,9.516,0,0,1-.179.94.957.957,0,0,1-.94-.179.957.957,0,0,1,.179-.94a7.624,7.624,0,0,0,8.754-5.5A7.608,7.608,0,0,0,3.56-15.744a7.625,7.625,0,0,0-9.28,5.283A.957.957,0,0,1-6.9-9.8a.957.957,0,0,1-.662-1.18,9.457,9.457,0,0,1,4.448-5.69,9.452,9.452,0,0,1,7.17-.924A9.524,9.524,0,0,1,10.782-5.942a9.475,9.475,0,0,1-4.149,5.6A9.49,9.49,0,0,1,1.6,1.109Z" fill="#4d0099"/>
            </g>
            <g id="g191" transform="translate(25.083 -32.599)">
              <path id="path193" d="M-8.09,12.337a9.462,9.462,0,0,1-4.788-1.3,9.452,9.452,0,0,1-4.385-5.748A9.524,9.524,0,0,1-10.537-6.367a9.475,9.475,0,0,1,6.928.791A9.48,9.48,0,0,1,.9-.315.957.957,0,0,1,.315.9.957.957,0,0,1-.9.315a7.624,7.624,0,0,0-9.138-4.833,7.608,7.608,0,0,0-5.373,9.307,7.625,7.625,0,0,0,9.215,5.4.957.957,0,0,1,1.164.691.957.957,0,0,1-.691,1.164A9.564,9.564,0,0,1-8.09,12.337Z" fill="#4d0099"/>
            </g>
            <g id="g195" transform="translate(21.071 -18.336)">
              <path id="path197" d="M6.482,15.1A9.511,9.511,0,0,1-3.025,5.913,9.48,9.48,0,0,1-.725-.625a.957.957,0,0,1,1.35-.1.957.957,0,0,1,.1,1.35,7.6,7.6,0,0,0,11.13,10.33A7.625,7.625,0,0,0,11.92.277a.957.957,0,0,1,.017-1.353.957.957,0,0,1,1.353.017,9.512,9.512,0,0,1-.082,13.368A9.451,9.451,0,0,1,6.482,15.1Z" fill="#4d0099"/>
            </g>
            <g id="g199" transform="translate(18.638 -24.309)">
              <path id="path201" d="M8.556-9.513A9.524,9.524,0,0,1,18.069,0,9.524,9.524,0,0,1,8.556,9.513,9.524,9.524,0,0,1-.957,0,9.524,9.524,0,0,1,8.556-9.513Zm0,17.112a7.608,7.608,0,0,0,7.6-7.6A7.6,7.6,0,1,0,.957,0,7.608,7.608,0,0,0,8.556,7.6Z" fill="#4d0099"/>
            </g>
            <g id="g203" transform="translate(45.459 -31.832)">
              <path id="path205" d="M0,.957A.953.953,0,0,1-.642.709.957.957,0,0,1-.709-.642a7.582,7.582,0,0,0,1.964-5.1,7.608,7.608,0,0,0-7.6-7.6,7.552,7.552,0,0,0-4.339,1.36.957.957,0,0,1-1.332-.238.957.957,0,0,1,.238-1.332,9.457,9.457,0,0,1,5.434-1.7A9.524,9.524,0,0,1,3.169-5.741,9.493,9.493,0,0,1,.709.642.955.955,0,0,1,0,.957Z" fill="#4d0099"/>
            </g>
            <g id="g207" transform="translate(15.189 -44.067)">
              <path id="path209" d="M-9.756,13.09a.957.957,0,0,1-.856-.527A9.416,9.416,0,0,1-11.62,8.295,9.524,9.524,0,0,1-2.107-1.218,9.546,9.546,0,0,1,.235-.928.957.957,0,0,1,.928.235.957.957,0,0,1-.235.928,7.63,7.63,0,0,0-2.107.7a7.608,7.608,0,0,0-7.6,7.6A7.519,7.519,0,0,0-8.9,11.7a.957.957,0,0,1-.425,1.285A.953.953,0,0,1-9.756,13.09Z" fill="#4d0099"/>
            </g>
            <g id="g211" transform="translate(10.455 -9.085)">
              <path id="path213" d="M8.543,9.028A9.513,9.513,0,0,1-.956.053a.957.957,0,0,1,.9-1.009.957.957,0,0,1,1.009.9A7.6,7.6,0,0,0,8.543,7.114a7.58,7.58,0,0,0,5.864-2.766.957.957,0,0,1,1.476,1.218A9.488,9.488,0,0,1,8.543,9.028Z" fill="#4d0099"/>
            </g>
            <g id="g215" transform="translate(27.552 -4.126)">
              <path id="path217" d="M6.6,4.068A9.488,9.488,0,0,1-.738.609.957.957,0,0,1-.609-.738.957.957,0,0,1,.738-.609,7.58,7.58,0,0,0,6.6,2.154a7.608,7.608,0,0,0,7.6-7.6.957.957,0,0,1,.957-.957.957.957,0,0,1,.957.957A9.524,9.524,0,0,1,6.6,4.068Z" fill="#4d0099"/>
            </g>
            <g id="g219" transform="translate(1.772 -20.66)">
              <path id="path221" d="M4.693,5.306a.955.955,0,0,1-.341-.063A9.48,9.48,0,0,1-.865.409.957.957,0,0,1-.409-.865.957.957,0,0,1,.865-.409,7.679,7.679,0,0,0,5.035,3.454a.957.957,0,0,1-.341,1.852Z" fill="#4d0099"/>
            </g>
            <g id="g223" transform="translate(0.957 -24.339)">
              <path id="path225" d="M0,.987A.957.957,0,0,1-.957.029V0A.957.957,0,0,1,0-.957.957.957,0,0,1,.957,0V.029A.957.957,0,0,1,0,.987Z" fill="#4d0099"/>
            </g>
            <g id="g227" transform="translate(8.993 -32.85)">
              <path id="path229" d="M-7.043,5.491a.953.953,0,0,1-.448-.112.957.957,0,0,1-.4-1.294A9.57,9.57,0,0,1-4.681.574,9.5,9.5,0,0,1-.057-.955a.957.957,0,0,1,1.013.9A.957.957,0,0,1,.057.955,7.646,7.646,0,0,0-6.2,4.982.957.957,0,0,1-7.043,5.491Z" fill="#4d0099"/>
            </g>
            <g id="g231" transform="translate(10.754 -23.937)">
              <path id="path233" d="M4.268,16.93A9.514,9.514,0,0,1-.478-.829.957.957,0,0,1,.829-.478.957.957,0,0,1,.478.829,7.6,7.6,0,1,0,8.422,13.782a.957.957,0,1,1,1.048,1.6A9.477,9.477,0,0,1,4.268,16.93Z" fill="#4d0099"/>
            </g>
            <g id="g235" transform="translate(35.75 -9.941)">
              <path id="path237" d="M3.736,1.814A9.425,9.425,0,0,1-.418.861.957.957,0,0,1-.861-.418.957.957,0,0,1,.418-.861,7.526,7.526,0,0,0,3.736-.1a7.608,7.608,0,0,0,7.6-7.6A7.623,7.623,0,0,0,7.5-14.3a.957.957,0,0,1-.357-1.306.957.957,0,0,1,1.306-.357A9.541,9.541,0,0,1,13.25-7.7,9.524,9.524,0,0,1,3.736,1.814Z" fill="#4d0099"/>
            </g>
            <g id="g239" transform="translate(41.181 -37.876)">
              <path id="path241" d="M-16.22,6.267a.957.957,0,0,1-.884-.591,9.457,9.457,0,0,1-.721-3.64A9.524,9.524,0,0,1-8.312-7.477,9.413,9.413,0,0,1-2.394-5.412,9.56,9.56,0,0,1,.93-.227.957.957,0,0,1,.227.93.957.957,0,0,1-.93.227a7.578,7.578,0,0,0-7.383-5.79,7.608,7.608,0,0,0-7.6,7.6,7.553,7.553,0,0,0,.576,2.907.957.957,0,0,1-.518,1.251A.954.954,0,0,1-16.22,6.267Z" fill="#4d0099"/>
            </g>
            <g id="g243" transform="translate(29.476 -44.213)">
              <path id="path245" d="M-15.584,6.827a.957.957,0,0,1-.948-.837,9.637,9.637,0,0,1-.076-1.207A9.524,9.524,0,0,1-7.095-4.729,9.509,9.509,0,0,1,.793-.536.957.957,0,0,1,.536.793.957.957,0,0,1-.793.536a7.6,7.6,0,0,0-6.3-3.351,7.608,7.608,0,0,0-7.6,7.6,7.717,7.717,0,0,0,.061.966.957.957,0,0,1-.829,1.07A.967.967,0,0,1-15.584,6.827Z" fill="#4d0099"/>
            </g>
            <g id="g247" transform="translate(27.224 -28.649)">
              <path id="path249" d="M0,.957h-.03A.957.957,0,0,1-.987,0,.957.957,0,0,1-.029-.957H.009A.957.957,0,0,1,.957.009.957.957,0,0,1,0,.957Z" fill="#4d0099"/>
            </g>
            <g id="g251" transform="translate(27.194 -19.969)">
              <path id="path253" d="M0,.957A.957.957,0,0,1-.957,0,.957.957,0,0,1,0-.957,3.387,3.387,0,0,0,3.383-4.34a3.361,3.361,0,0,0-.609-1.936A.957.957,0,0,1,3.01-7.609a.957.957,0,0,1,1.333.236A5.266,5.266,0,0,1,5.3-4.34,5.3,5.3,0,0,1,0,.957Z" fill="#4d0099"/>
            </g>
          </g>
        </g>
      </g>
    </g>
  </g>
</svg>
