<svg xmlns="http://www.w3.org/2000/svg" xmlns:xlink="http://www.w3.org/1999/xlink" width="85" height="85" viewBox="0 0 85 85">
  <defs>
    <clipPath id="clip-path">
      <rect id="Rectángulo_405697" data-name="Rectángulo 405697" width="49" height="49" transform="translate(-2431 -5199)" fill="#4d0099" stroke="#707070" stroke-width="1"/>
    </clipPath>
    <clipPath id="clip-path-2">
      <path id="path1056" d="M0-49H49V0H0Z" fill="#4d0099"/>
    </clipPath>
  </defs>
  <g id="Grupo_1108956" data-name="Grupo 1108956" transform="translate(2455.98 5306.17)">
    <path id="Trazado_893297" data-name="Trazado 893297" d="M42.5,0A42.5,42.5,0,1,1,0,42.5,42.5,42.5,0,0,1,42.5,0Z" transform="translate(-2455.98 -5306.17)" fill="#fff"/>
    <g id="Enmascarar_grupo_1098722" data-name="Enmascarar grupo 1098722" transform="translate(-7 -89)" clip-path="url(#clip-path)">
      <g id="g1050" transform="translate(-2431 -5150)">
        <g id="g1052">
          <g id="g1054" clip-path="url(#clip-path-2)">
            <g id="g1060" transform="translate(9.57 -39.43)">
              <path id="path1062" d="M29.859-1.436a1.435,1.435,0,0,1,1,.4,1.436,1.436,0,0,1,.37,1.478,46.568,46.568,0,0,0-2.653,14.489,46.7,46.7,0,0,0,2.653,14.484,1.436,1.436,0,0,1-1.862,1.79,41.538,41.538,0,0,0-14.428-3h-.008A41.624,41.624,0,0,0,.5,31.207,1.436,1.436,0,0,1-1,30.894a1.436,1.436,0,0,1-.371-1.477A46.623,46.623,0,0,0,1.288,14.933,46.857,46.857,0,0,0-1.366.442,1.436,1.436,0,0,1-.994-1.036,1.436,1.436,0,0,1,.5-1.347a41.453,41.453,0,0,0,14.43,3.011A41.578,41.578,0,0,0,29.363-1.347,1.434,1.434,0,0,1,29.859-1.436ZM27.664,27.58A45.875,45.875,0,0,1,25.7,14.933,45.753,45.753,0,0,1,27.663,2.28,40.978,40.978,0,0,1,14.927,4.535,40.9,40.9,0,0,1,2.194,2.281,45.979,45.979,0,0,1,4.159,14.932,45.768,45.768,0,0,1,2.2,27.58a41.044,41.044,0,0,1,12.731-2.25h.009A40.97,40.97,0,0,1,27.664,27.58Z" fill="#4d0099"/>
            </g>
            <g id="g1064" transform="translate(6.221 -42.779)">
              <path id="path1066" d="M0,1.436a1.431,1.431,0,0,1-1.015-.42L-5.66-3.629a1.436,1.436,0,0,1,0-2.03,1.436,1.436,0,0,1,2.03,0L1.015-1.015a1.436,1.436,0,0,1,0,2.03A1.431,1.431,0,0,1,0,1.436Z" fill="#4d0099"/>
            </g>
            <g id="g1068" transform="translate(1.436 -47.437)">
              <path id="path1070" d="M0,4.155A1.436,1.436,0,0,1-1.436,2.72V0A1.436,1.436,0,0,1,0-1.436,1.436,1.436,0,0,1,1.436,0V2.72A1.436,1.436,0,0,1,0,4.155Z" fill="#4d0099"/>
            </g>
            <g id="g1072" transform="translate(1.563 -47.564)">
              <path id="path1074" d="M2.72,1.436H0A1.436,1.436,0,0,1-1.436,0,1.436,1.436,0,0,1,0-1.436H2.72A1.436,1.436,0,0,1,4.155,0,1.436,1.436,0,0,1,2.72,1.436Z" fill="#4d0099"/>
            </g>
            <g id="g1076" transform="translate(42.779 -42.779)">
              <path id="path1078" d="M0,1.436a1.431,1.431,0,0,1-1.015-.42,1.436,1.436,0,0,1,0-2.03L3.629-5.66a1.436,1.436,0,0,1,2.03,0,1.436,1.436,0,0,1,0,2.03L1.015,1.015A1.431,1.431,0,0,1,0,1.436Z" fill="#4d0099"/>
            </g>
            <g id="g1080" transform="translate(47.564 -47.437)">
              <path id="path1082" d="M0,4.155A1.436,1.436,0,0,1-1.436,2.72V0A1.436,1.436,0,0,1,0-1.436,1.436,1.436,0,0,1,1.436,0V2.72A1.436,1.436,0,0,1,0,4.155Z" fill="#4d0099"/>
            </g>
            <g id="g1084" transform="translate(47.437 -47.564)">
              <path id="path1086" d="M0,1.436H-2.72A1.436,1.436,0,0,1-4.155,0,1.436,1.436,0,0,1-2.72-1.436H0A1.436,1.436,0,0,1,1.436,0,1.436,1.436,0,0,1,0,1.436Z" fill="#4d0099"/>
            </g>
            <g id="g1088" transform="translate(6.221 -6.221)">
              <path id="path1090" d="M-4.644,6.08A1.431,1.431,0,0,1-5.66,5.66a1.436,1.436,0,0,1,0-2.03l4.644-4.644a1.436,1.436,0,0,1,2.03,0,1.436,1.436,0,0,1,0,2.03L-3.629,5.66A1.431,1.431,0,0,1-4.644,6.08Z" fill="#4d0099"/>
            </g>
            <g id="g1092" transform="translate(1.436 -1.563)">
              <path id="path1094" d="M0,1.436A1.436,1.436,0,0,1-1.436,0V-2.72A1.436,1.436,0,0,1,0-4.155,1.436,1.436,0,0,1,1.436-2.72V0A1.436,1.436,0,0,1,0,1.436Z" fill="#4d0099"/>
            </g>
            <g id="g1096" transform="translate(1.563 -1.436)">
              <path id="path1098" d="M2.72,1.436H0A1.436,1.436,0,0,1-1.436,0,1.436,1.436,0,0,1,0-1.436H2.72A1.436,1.436,0,0,1,4.155,0,1.436,1.436,0,0,1,2.72,1.436Z" fill="#4d0099"/>
            </g>
            <g id="g1100" transform="translate(42.779 -6.221)">
              <path id="path1102" d="M4.644,6.08a1.431,1.431,0,0,1-1.015-.42L-1.015,1.015a1.436,1.436,0,0,1,0-2.03,1.436,1.436,0,0,1,2.03,0L5.66,3.629A1.436,1.436,0,0,1,4.644,6.08Z" fill="#4d0099"/>
            </g>
            <g id="g1104" transform="translate(47.564 -1.563)">
              <path id="path1106" d="M0,1.436A1.436,1.436,0,0,1-1.436,0V-2.72A1.436,1.436,0,0,1,0-4.155,1.436,1.436,0,0,1,1.436-2.72V0A1.436,1.436,0,0,1,0,1.436Z" fill="#4d0099"/>
            </g>
            <g id="g1108" transform="translate(47.437 -1.436)">
              <path id="path1110" d="M0,1.436H-2.72A1.436,1.436,0,0,1-4.155,0,1.436,1.436,0,0,1-2.72-1.436H0A1.436,1.436,0,0,1,1.436,0,1.436,1.436,0,0,1,0,1.436Z" fill="#4d0099"/>
            </g>
          </g>
        </g>
      </g>
    </g>
  </g>
</svg>
