<svg id="Grupo_1106795" data-name="Grupo 1106795" xmlns="http://www.w3.org/2000/svg" xmlns:xlink="http://www.w3.org/1999/xlink" width="43.301" height="46.349" viewBox="0 0 43.301 46.349">
  <defs>
    <clipPath id="clip-path">
      <rect id="Rectángulo_405062" data-name="Rectángulo 405062" width="43.301" height="46.349" fill="#0ac675"/>
    </clipPath>
  </defs>
  <g id="Grupo_1106794" data-name="Grupo 1106794" clip-path="url(#clip-path)">
    <path id="Trazado_879556" data-name="Trazado 879556" d="M35.662,2.21c-.624,0-1.146.027-1.664-.006-.747-.048-1.157-.44-1.176-1.061C32.8.491,33.244.073,34.029.009c.2-.016.392-.007.589-.007q7.065,0,14.131,0a5.2,5.2,0,0,1,.88.038,1.048,1.048,0,0,1,.943,1.075,1.055,1.055,0,0,1-.956,1.065,6.1,6.1,0,0,1-.782.036L47.7,2.266c-.024.391-.06.707-.06,1.024,0,3.2.018,6.409-.019,9.613a1.215,1.215,0,0,0,.854,1.312,16.657,16.657,0,0,1,9.962,14.489A16.457,16.457,0,0,1,54.171,40.77a16.008,16.008,0,0,1-9.019,5.2,16.265,16.265,0,0,1-15.028-4.286,15.968,15.968,0,0,1-5.172-11.592,16.471,16.471,0,0,1,5.015-12.547,15.169,15.169,0,0,1,5.027-3.356,1,1,0,0,0,.77-1.061c-.027-3.368-.012-6.736-.016-10.1,0-.221-.045-.442-.085-.813M32.107,40.48c7.166,6.475,19.066,3.977,22.774-4.906H53.794q-10.5,0-21,0a5.743,5.743,0,0,1-1.074-.055,1.024,1.024,0,0,1-.865-1.039,1.036,1.036,0,0,1,.84-1.061,3.521,3.521,0,0,1,.78-.057c1.21-.005,2.424-.058,3.629.016a1.389,1.389,0,0,0,1.552-1.008c.373-.905.831-1.775,1.245-2.664.1-.224.176-.463.3-.8-.529,0-.949,0-1.37,0-1.535-.015-1.965-.674-1.337-2.041.232-.5.459-1.012.688-1.518q1.09-2.412,2.181-4.823c.209-.46.459-.9,1.042-.91,1.5-.016,3.009-.036,4.512.008a.948.948,0,0,1,.912,1.231,5.611,5.611,0,0,1-.349.911c-.181.468-.36.936-.565,1.468.3.05.459.08.617.1.679.09,1.369.134,2.037.276a1.124,1.124,0,0,1,.653,1.984c-.149.173-.32.328-.481.489q-3.226,3.225-6.451,6.451c-.217.218-.411.458-.738.826h1.079q6.475,0,12.95,0c1.243,0,1.256,0,1.491-1.253a13.306,13.306,0,0,0-.016-5.153,14.38,14.38,0,0,0-9.237-11.077c-1.207-.486-1.26-.552-1.261-1.874q0-5.3,0-10.592V2.289H37.919V3.926h1.16c1.112,0,2.224-.017,3.336.01.82.02,1.258.408,1.284,1.053.027.685-.434,1.122-1.292,1.143-1.144.027-2.289,0-3.434.013-.348,0-.695.039-1.146.066V7.848c0,2.158-.014,4.315.006,6.473a1.313,1.313,0,0,1-1.015,1.465,8.186,8.186,0,0,0-.82.325,13.788,13.788,0,0,0-6.022,4.714,14.323,14.323,0,0,0-2.814,10.043A15.343,15.343,0,0,0,29.348,37.4a1.611,1.611,0,0,0,1.585.877c3.663-.035,7.325-.017,10.988-.013a4.3,4.3,0,0,1,.973.071.988.988,0,0,1,.8.985,1.012,1.012,0,0,1-.8,1.082,4.3,4.3,0,0,1-.973.071q-4.121.008-8.241,0H32.107m9.682-11.668.137.095c.543-.557,1.1-1.1,1.624-1.674a6.838,6.838,0,0,0,1.533-1.753c-.7-.107-1.308-.181-1.911-.3a1.031,1.031,0,0,1-.912-1.347,5.676,5.676,0,0,1,.376-1c.129-.321.268-.638.407-.967-1.493-.434-1.743-.332-2.28.857-.121.267-.258.527-.377.8-.445,1-.885,2.01-1.4,3.177.717,0,1.264.029,1.807-.006A1.171,1.171,0,0,1,41.958,28.4a2.57,2.57,0,0,0-.168.409" transform="translate(-20.051 0)" fill="#0ac675"/>
    <path id="Trazado_879557" data-name="Trazado 879557" d="M191.966,13.7a3.451,3.451,0,0,1-3.458,3.516,3.534,3.534,0,0,1-.061-7.068,3.463,3.463,0,0,1,3.519,3.552m-3.516-1.349a1.332,1.332,0,1,0,1.4,1.327,1.367,1.367,0,0,0-1.4-1.327" transform="translate(-148.675 -8.155)" fill="#0ac675"/>
    <path id="Trazado_879558" data-name="Trazado 879558" d="M16,43.191a3,3,0,1,1-3.015-3.055A2.965,2.965,0,0,1,16,43.191m-3.02.82a.83.83,0,1,0-.829-.826.923.923,0,0,0,.829.826" transform="translate(-8.041 -32.263)" fill="#0ac675"/>
    <path id="Trazado_879559" data-name="Trazado 879559" d="M0,202.707a2.562,2.562,0,0,1,2.516-2.587,2.573,2.573,0,0,1,.03,5.142A2.562,2.562,0,0,1,0,202.707" transform="translate(0 -160.866)" fill="#0ac675"/>
    <path id="Trazado_879560" data-name="Trazado 879560" d="M40.092,6.293a1.023,1.023,0,1,1,1.055,1.039,1.058,1.058,0,0,1-1.055-1.039" transform="translate(-32.228 -4.168)" fill="#0ac675"/>
    <path id="Trazado_879561" data-name="Trazado 879561" d="M192.242,76.24a1.023,1.023,0,1,1-1.062-1.033,1.049,1.049,0,0,1,1.062,1.033" transform="translate(-152.892 -60.455)" fill="#0ac675"/>
    <path id="Trazado_879562" data-name="Trazado 879562" d="M12.111,91.289a1.024,1.024,0,1,1-1.025-1.071,1.057,1.057,0,0,1,1.025,1.071" transform="translate(-8.091 -72.522)" fill="#0ac675"/>
    <path id="Trazado_879563" data-name="Trazado 879563" d="M7.108,146.292a1.057,1.057,0,0,1-1,1.091,1.075,1.075,0,0,1-.035-2.147,1.054,1.054,0,0,1,1.04,1.055" transform="translate(-4.07 -116.748)" fill="#0ac675"/>
    <path id="Trazado_879564" data-name="Trazado 879564" d="M200.2,206.312a1.024,1.024,0,1,1,1,1.092,1.054,1.054,0,0,1-1-1.092" transform="translate(-160.933 -164.996)" fill="#0ac675"/>
    <path id="Trazado_879565" data-name="Trazado 879565" d="M67.153,116.33a1.023,1.023,0,1,1-.986-1.109,1.052,1.052,0,0,1,.986,1.109" transform="translate(-52.338 -92.62)" fill="#0ac675"/>
    <path id="Trazado_879566" data-name="Trazado 879566" d="M152.212,141.334a1.023,1.023,0,1,1-1-1.1,1.053,1.053,0,0,1,1,1.1" transform="translate(-120.713 -112.727)" fill="#0ac675"/>
  </g>
</svg>
