<svg xmlns="http://www.w3.org/2000/svg" xmlns:xlink="http://www.w3.org/1999/xlink" width="128" height="128" viewBox="0 0 128 128">
  <defs>
    <clipPath id="clip-path">
      <rect id="Rectángulo_405790" data-name="Rectángulo 405790" width="128" height="128" transform="translate(1051.051 9737)" fill="#fff" stroke="#707070" stroke-width="1"/>
    </clipPath>
  </defs>
  <g id="Grupo_1108106" data-name="Grupo 1108106" transform="translate(-1051.051 -9737)">
    <circle id="Elipse_11620" data-name="Elipse 11620" cx="59" cy="59" r="59" transform="translate(1056.051 9742)" fill="#ff007f"/>
    <g id="Enmascarar_grupo_1098732" data-name="Enmascarar grupo 1098732" clip-path="url(#clip-path)">
      <g id="experimentar" transform="translate(1051.051 9737)">
        <g id="Grupo_1108070" data-name="Grupo 1108070">
          <g id="Grupo_1108059" data-name="Grupo 1108059">
            <path id="Trazado_899090" data-name="Trazado 899090" d="M29.016,70.187a4.167,4.167,0,0,1,4.163-4.163h8.486V58.436H39.535a1.02,1.02,0,0,1-1.019-1.019V50.749a1.02,1.02,0,0,1,1.019-1.019H57.346a1.02,1.02,0,0,1,1.019,1.019v6.668a1.02,1.02,0,0,1-1.019,1.019H55.216v7.589H69.282V58.436H67.152a1.02,1.02,0,0,1-1.019-1.019V50.749a1.02,1.02,0,0,1,1.019-1.019h5.127V7.842A2.538,2.538,0,0,0,69.741,5.3H7.188A2.538,2.538,0,0,0,4.651,7.842v86.1a2.538,2.538,0,0,0,2.538,2.538H29.016Z" fill="#ffdfcf"/>
            <path id="Trazado_899091" data-name="Trazado 899091" d="M32.266,70.187V96.481h9.4V69.275H33.179a.914.914,0,0,0-.913.913Z" fill="#ffdfcf"/>
            <path id="Trazado_899092" data-name="Trazado 899092" d="M55.216,69.274H69.282V96.481H55.216Z" fill="#ffdfcf"/>
          </g>
          <path id="Trazado_899093" data-name="Trazado 899093" d="M118.53,8.115H82.711l-1.15.25v30.7a1.777,1.777,0,0,0,1.776,1.777H117.92a1.777,1.777,0,0,0,1.776-1.777V8.365Z" fill="#f9f3f1"/>
          <g id="Grupo_1108060" data-name="Grupo 1108060">
            <path id="Trazado_899094" data-name="Trazado 899094" d="M89.893,39.065V8.365H81.561v30.7a1.777,1.777,0,0,0,1.776,1.777h8.332A1.777,1.777,0,0,1,89.893,39.065Z" fill="#efe2dd"/>
          </g>
          <g id="Grupo_1108061" data-name="Grupo 1108061">
            <path id="Trazado_899095" data-name="Trazado 899095" d="M15.353,93.943V7.842A2.538,2.538,0,0,1,17.891,5.3H7.188A2.538,2.538,0,0,0,4.651,7.842v86.1a2.538,2.538,0,0,0,2.538,2.538h10.7a2.538,2.538,0,0,1-2.538-2.538Z" fill="#ffcebf"/>
          </g>
          <g id="Grupo_1108065" data-name="Grupo 1108065">
            <g id="Grupo_1108062" data-name="Grupo 1108062">
              <path id="Trazado_899096" data-name="Trazado 899096" d="M28.452,15.448H20.006a1.268,1.268,0,0,0-1.1.635L14.683,23.4a1.268,1.268,0,0,0,0,1.269l4.59,7.95h9.912l4.956-8.584-4.59-7.95a1.269,1.269,0,0,0-1.1-.634Z" fill="#ffd15b"/>
            </g>
            <g id="Grupo_1108063" data-name="Grupo 1108063">
              <path id="Trazado_899097" data-name="Trazado 899097" d="M43.32,24.032h-9.18l-4.956,8.584L34.141,41.2h9.18a1.268,1.268,0,0,0,1.1-.634l4.223-7.315a1.268,1.268,0,0,0,0-1.269l-4.223-7.315a1.268,1.268,0,0,0-1.1-.635Z" fill="#feb137"/>
            </g>
            <g id="Grupo_1108064" data-name="Grupo 1108064">
              <path id="Trazado_899098" data-name="Trazado 899098" d="M29.185,32.617H19.273l-4.59,7.95a1.268,1.268,0,0,0,0,1.269l4.223,7.315a1.269,1.269,0,0,0,1.1.634h8.447a1.268,1.268,0,0,0,1.1-.634l4.59-7.95Z" fill="#ffc344"/>
            </g>
          </g>
          <g id="Grupo_1108066" data-name="Grupo 1108066">
            <path id="Trazado_899099" data-name="Trazado 899099" d="M29.845,61.7H14.513a1.875,1.875,0,0,1,0-3.75H29.845a1.875,1.875,0,1,1,0,3.75Z" fill="#fff"/>
          </g>
          <g id="Grupo_1108067" data-name="Grupo 1108067">
            <path id="Trazado_899100" data-name="Trazado 899100" d="M23.48,69.39H14.513a1.875,1.875,0,0,1,0-3.75H23.48a1.875,1.875,0,1,1,0,3.75Z" fill="#fff"/>
          </g>
          <g id="Grupo_1108068" data-name="Grupo 1108068">
            <path id="Trazado_899101" data-name="Trazado 899101" d="M23.48,77.08H14.513a1.875,1.875,0,0,1,0-3.75H23.48a1.875,1.875,0,1,1,0,3.75Z" fill="#fff"/>
          </g>
          <g id="Grupo_1108069" data-name="Grupo 1108069">
            <path id="Trazado_899102" data-name="Trazado 899102" d="M23.48,84.771H14.513a1.875,1.875,0,0,1,0-3.75H23.48a1.875,1.875,0,1,1,0,3.75Z" fill="#fff"/>
          </g>
        </g>
        <g id="Grupo_1108089" data-name="Grupo 1108089">
          <g id="Grupo_1108088" data-name="Grupo 1108088">
            <g id="Grupo_1108075" data-name="Grupo 1108075">
              <g id="Grupo_1108071" data-name="Grupo 1108071">
                <path id="Trazado_899103" data-name="Trazado 899103" d="M41.415,58.436H55.466v7.588H41.415Z" fill="#c8effe"/>
              </g>
              <path id="Trazado_899104" data-name="Trazado 899104" d="M41.415,69.274v36.651a7.026,7.026,0,0,0,14.051,0V69.274Z" fill="#01c0fa"/>
              <path id="Trazado_899105" data-name="Trazado 899105" d="M47.836,105.926V69.275H41.415v36.652a7.024,7.024,0,0,0,10.236,6.248A7.023,7.023,0,0,1,47.836,105.926Z" fill="#08a9f1"/>
              <g id="Grupo_1108072" data-name="Grupo 1108072">
                <path id="Trazado_899106" data-name="Trazado 899106" d="M45.776,74.254H41.415V78h4.361a1.875,1.875,0,0,0,0-3.75Z" fill="#0290cf"/>
                <path id="Trazado_899107" data-name="Trazado 899107" d="M45.776,82.006H41.415v3.75h4.361a1.875,1.875,0,0,0,0-3.75Z" fill="#0290cf"/>
                <path id="Trazado_899108" data-name="Trazado 899108" d="M45.776,89.758H41.415v3.75h4.361a1.875,1.875,0,0,0,0-3.75Z" fill="#0290cf"/>
                <path id="Trazado_899109" data-name="Trazado 899109" d="M45.776,97.51H41.415v3.75h4.361a1.875,1.875,0,0,0,0-3.75Z" fill="#0290cf"/>
              </g>
              <g id="Grupo_1108073" data-name="Grupo 1108073">
                <path id="Trazado_899110" data-name="Trazado 899110" d="M57.346,58.686H39.535a1.269,1.269,0,0,1-1.269-1.269V50.749a1.269,1.269,0,0,1,1.269-1.269H57.346a1.269,1.269,0,0,1,1.269,1.269v6.668a1.269,1.269,0,0,1-1.269,1.269Z" fill="#c8effe"/>
              </g>
              <g id="Grupo_1108074" data-name="Grupo 1108074">
                <path id="Trazado_899111" data-name="Trazado 899111" d="M46.056,54.434a1.269,1.269,0,0,1-1.269-1.269V49.48H39.535a1.269,1.269,0,0,0-1.269,1.269v6.668a1.269,1.269,0,0,0,1.269,1.269H57.346a1.269,1.269,0,0,0,1.269-1.269V54.434Z" fill="#99e6fc"/>
              </g>
            </g>
            <g id="Grupo_1108083" data-name="Grupo 1108083">
              <g id="Grupo_1108077" data-name="Grupo 1108077">
                <g id="Grupo_1108076" data-name="Grupo 1108076">
                  <path id="Trazado_899112" data-name="Trazado 899112" d="M69.032,69.274H83.083v7.1H69.032Z" fill="#c8effe"/>
                </g>
                <path id="Trazado_899113" data-name="Trazado 899113" d="M69.032,58.436H83.083v7.588H69.032Z" fill="#c8effe"/>
              </g>
              <g id="Grupo_1108078" data-name="Grupo 1108078">
                <path id="Trazado_899114" data-name="Trazado 899114" d="M69.032,76.129v29.8a7.025,7.025,0,1,0,14.051,0v-29.8Z" fill="#bbec6c"/>
              </g>
              <g id="Grupo_1108079" data-name="Grupo 1108079">
                <path id="Trazado_899115" data-name="Trazado 899115" d="M75.4,105.926v-29.8H69.032v29.8a7.025,7.025,0,0,0,10.211,6.261,7.023,7.023,0,0,1-3.84-6.261Z" fill="#a2e62e"/>
              </g>
              <g id="Grupo_1108080" data-name="Grupo 1108080">
                <path id="Trazado_899116" data-name="Trazado 899116" d="M73.393,82.006H69.032v3.75h4.361a1.875,1.875,0,0,0,0-3.75Z" fill="#97d729"/>
                <path id="Trazado_899117" data-name="Trazado 899117" d="M73.393,89.758H69.032v3.75h4.361a1.875,1.875,0,0,0,0-3.75Z" fill="#97d729"/>
                <path id="Trazado_899118" data-name="Trazado 899118" d="M73.393,97.51H69.032v3.75h4.361a1.875,1.875,0,0,0,0-3.75Z" fill="#97d729"/>
              </g>
              <g id="Grupo_1108081" data-name="Grupo 1108081">
                <path id="Trazado_899119" data-name="Trazado 899119" d="M84.964,58.686H67.152a1.269,1.269,0,0,1-1.269-1.269V50.749a1.269,1.269,0,0,1,1.269-1.269H84.964a1.269,1.269,0,0,1,1.269,1.269v6.668A1.269,1.269,0,0,1,84.964,58.686Z" fill="#c8effe"/>
              </g>
              <g id="Grupo_1108082" data-name="Grupo 1108082">
                <path id="Trazado_899120" data-name="Trazado 899120" d="M73.673,54.434A1.269,1.269,0,0,1,72.4,53.166V49.48H67.152a1.269,1.269,0,0,0-1.269,1.269v6.668a1.269,1.269,0,0,0,1.269,1.269H84.964a1.269,1.269,0,0,0,1.269-1.269V54.434Z" fill="#99e6fc"/>
              </g>
            </g>
            <g id="Grupo_1108087" data-name="Grupo 1108087">
              <g id="Grupo_1108084" data-name="Grupo 1108084">
                <path id="Trazado_899121" data-name="Trazado 899121" d="M96.649,58.436H110.7v7.588H96.649Z" fill="#c8effe"/>
              </g>
              <path id="Trazado_899122" data-name="Trazado 899122" d="M96.649,69.274v36.651a7.025,7.025,0,0,0,14.051,0V69.274Z" fill="#fd9468"/>
              <path id="Trazado_899123" data-name="Trazado 899123" d="M103.065,105.926V69.275H96.649v36.652a7.025,7.025,0,0,0,10.233,6.25,7.023,7.023,0,0,1-3.818-6.25Z" fill="#fe7d43"/>
              <g id="Grupo_1108085" data-name="Grupo 1108085">
                <path id="Trazado_899124" data-name="Trazado 899124" d="M112.581,58.686H94.769A1.269,1.269,0,0,1,93.5,57.417V50.749a1.269,1.269,0,0,1,1.269-1.269h17.812a1.269,1.269,0,0,1,1.269,1.269v6.668A1.269,1.269,0,0,1,112.581,58.686Z" fill="#c8effe"/>
              </g>
              <g id="Grupo_1108086" data-name="Grupo 1108086">
                <path id="Trazado_899125" data-name="Trazado 899125" d="M101.29,54.434a1.269,1.269,0,0,1-1.269-1.269V49.48H94.769A1.269,1.269,0,0,0,93.5,50.749v6.668a1.269,1.269,0,0,0,1.269,1.269h17.812a1.269,1.269,0,0,0,1.269-1.269V54.434Z" fill="#99e6fc"/>
              </g>
            </g>
          </g>
          <path id="Trazado_899126" data-name="Trazado 899126" d="M118.937,65.774H33.179a4.418,4.418,0,0,0-4.413,4.413v46.106l.425.25h3.325V70.187a.663.663,0,0,1,.663-.663h85.758a.663.663,0,0,1,.663.663v46.356h3.325l.425-.25V70.187A4.418,4.418,0,0,0,118.937,65.774Z" fill="#e1d3ce"/>
        </g>
        <g id="Grupo_1108098" data-name="Grupo 1108098">
          <g id="Grupo_1108092" data-name="Grupo 1108092">
            <g id="Grupo_1108090" data-name="Grupo 1108090">
              <path id="Trazado_899127" data-name="Trazado 899127" d="M119.7,8.365H81.561V1.776A1.777,1.777,0,0,1,83.337,0H117.92A1.777,1.777,0,0,1,119.7,1.776V8.365Z" fill="#fd6930"/>
            </g>
            <g id="Grupo_1108091" data-name="Grupo 1108091">
              <path id="Trazado_899128" data-name="Trazado 899128" d="M89.926,8.365H81.561V1.776A1.777,1.777,0,0,1,83.337,0h6.589Z" fill="#ef4424"/>
            </g>
          </g>
          <g id="Grupo_1108097" data-name="Grupo 1108097">
            <g id="Grupo_1108093" data-name="Grupo 1108093">
              <path id="Trazado_899129" data-name="Trazado 899129" d="M110.962,18.211H90.295a1.875,1.875,0,0,1,0-3.75h20.667a1.875,1.875,0,0,1,0,3.75Z" fill="#b9acac"/>
            </g>
            <g id="Grupo_1108094" data-name="Grupo 1108094">
              <path id="Trazado_899130" data-name="Trazado 899130" d="M110.962,25.494H99.1a1.875,1.875,0,0,1,0-3.75h11.864a1.875,1.875,0,1,1,0,3.75Z" fill="#b9acac"/>
            </g>
            <g id="Grupo_1108095" data-name="Grupo 1108095">
              <path id="Trazado_899131" data-name="Trazado 899131" d="M93.261,25.494H90.295a1.875,1.875,0,0,1,0-3.75h2.966a1.875,1.875,0,0,1,0,3.75Z" fill="#b9acac"/>
            </g>
            <g id="Grupo_1108096" data-name="Grupo 1108096">
              <path id="Trazado_899132" data-name="Trazado 899132" d="M102.218,32.778H90.295a1.875,1.875,0,1,1,0-3.75h11.923a1.875,1.875,0,0,1,0,3.75Z" fill="#b9acac"/>
            </g>
          </g>
        </g>
        <g id="Grupo_1108099" data-name="Grupo 1108099">
          <path id="Trazado_899133" data-name="Trazado 899133" d="M63.824,17.323H61.032a1.875,1.875,0,1,1,0-3.75h2.792a1.875,1.875,0,0,1,0,3.75Z" fill="#fff"/>
        </g>
        <g id="Grupo_1108100" data-name="Grupo 1108100">
          <path id="Trazado_899134" data-name="Trazado 899134" d="M55.7,17.323H40.223a1.875,1.875,0,1,1,0-3.75H55.7a1.875,1.875,0,0,1,0,3.75Z" fill="#fff"/>
        </g>
        <g id="Grupo_1108101" data-name="Grupo 1108101">
          <path id="Trazado_899135" data-name="Trazado 899135" d="M63.824,24.683h-9.39a1.875,1.875,0,1,1,0-3.75h9.39a1.875,1.875,0,0,1,0,3.75Z" fill="#fff"/>
        </g>
        <g id="Grupo_1108102" data-name="Grupo 1108102">
          <path id="Trazado_899136" data-name="Trazado 899136" d="M63.824,32.042h-9.39a1.875,1.875,0,1,1,0-3.75h9.39a1.875,1.875,0,0,1,0,3.75Z" fill="#fff"/>
        </g>
        <g id="Grupo_1108103" data-name="Grupo 1108103">
          <path id="Trazado_899137" data-name="Trazado 899137" d="M63.824,39.4h-9.39a1.875,1.875,0,1,1,0-3.75h9.39a1.875,1.875,0,0,1,0,3.75Z" fill="#fff"/>
        </g>
        <g id="Grupo_1108104" data-name="Grupo 1108104">
          <path id="Trazado_899138" data-name="Trazado 899138" d="M118.937,128H33.179a4.413,4.413,0,0,1-4.413-4.413v-7.294h94.583v7.294A4.413,4.413,0,0,1,118.937,128Z" fill="#cdbfba"/>
        </g>
        <path id="Trazado_899139" data-name="Trazado 899139" d="M40.979,123.587v-7.294H28.766v7.294A4.413,4.413,0,0,0,33.179,128H45.392A4.413,4.413,0,0,1,40.979,123.587Z" fill="#b9acac"/>
        <g id="Grupo_1108105" data-name="Grupo 1108105">
          <path id="Trazado_899140" data-name="Trazado 899140" d="M101.01,82.006H96.649v3.75h4.361a1.875,1.875,0,0,0,0-3.75Z" fill="#ef4424"/>
          <path id="Trazado_899141" data-name="Trazado 899141" d="M102.885,91.633a1.875,1.875,0,0,0-1.875-1.875H96.649v3.75h4.361A1.875,1.875,0,0,0,102.885,91.633Z" fill="#ef4424"/>
          <path id="Trazado_899142" data-name="Trazado 899142" d="M102.885,99.385a1.875,1.875,0,0,0-1.875-1.875H96.649v3.75h4.361A1.875,1.875,0,0,0,102.885,99.385Z" fill="#ef4424"/>
          <path id="Trazado_899143" data-name="Trazado 899143" d="M101.01,74.254H96.649V78h4.361a1.875,1.875,0,0,0,0-3.75Z" fill="#ef4424"/>
        </g>
      </g>
    </g>
  </g>
</svg>
