<svg xmlns="http://www.w3.org/2000/svg" xmlns:xlink="http://www.w3.org/1999/xlink" width="190" height="190" viewBox="0 0 190 190">
  <defs>
    <clipPath id="clip-path">
      <rect id="Rect치ngulo_405830" data-name="Rect치ngulo 405830" width="159" height="159" transform="translate(211.051 418)" fill="#fff" stroke="#707070" stroke-width="1"/>
    </clipPath>
  </defs>
  <g id="Grupo_1108219" data-name="Grupo 1108219" transform="translate(-180.051 -403)">
    <rect id="Rect치ngulo_405829" data-name="Rect치ngulo 405829" width="135" height="190" rx="20" transform="translate(180.051 403)" fill="#99f2ff"/>
    <g id="Enmascarar_grupo_1098735" data-name="Enmascarar grupo 1098735" clip-path="url(#clip-path)">
      <g id="atomo" transform="translate(211.051 417.908)">
        <g id="Grupo_1108217" data-name="Grupo 1108217">
          <circle id="Elipse_11624" data-name="Elipse 11624" cx="6.846" cy="6.846" r="6.846" transform="translate(86.64 60.672)" fill="#fe646f"/>
          <circle id="Elipse_11625" data-name="Elipse 11625" cx="6.846" cy="6.846" r="6.846" transform="translate(58.667 60.672)" fill="#fe646f"/>
          <circle id="Elipse_11626" data-name="Elipse 11626" cx="6.846" cy="6.846" r="6.846" transform="translate(58.667 88.646)" fill="#fe646f"/>
          <circle id="Elipse_11627" data-name="Elipse 11627" cx="6.846" cy="6.846" r="6.846" transform="translate(86.64 88.646)" fill="#fe646f"/>
          <circle id="Elipse_11628" data-name="Elipse 11628" cx="10.953" cy="10.953" r="10.953" transform="translate(68.547 54.459)" fill="#99b6ff"/>
          <circle id="Elipse_11629" data-name="Elipse 11629" cx="10.953" cy="10.953" r="10.953" transform="translate(52.454 70.553)" fill="#99b6ff"/>
          <circle id="Elipse_11630" data-name="Elipse 11630" cx="10.953" cy="10.953" r="10.953" transform="translate(68.547 86.646)" fill="#99b6ff"/>
          <circle id="Elipse_11631" data-name="Elipse 11631" cx="10.953" cy="10.953" r="10.953" transform="translate(84.64 70.553)" fill="#99b6ff"/>
          <g id="Grupo_1108215" data-name="Grupo 1108215">
            <circle id="Elipse_11632" data-name="Elipse 11632" cx="8.82" cy="8.82" r="8.82" transform="translate(48.847 34.869)" fill="#87e8d0"/>
            <circle id="Elipse_11633" data-name="Elipse 11633" cx="8.82" cy="8.82" r="8.82" transform="translate(23.755 130.35)" fill="#87e8d0"/>
            <circle id="Elipse_11634" data-name="Elipse 11634" cx="5.015" cy="5.015" r="5.015" transform="translate(6.702 95.492)" fill="#87e8d0"/>
            <circle id="Elipse_11635" data-name="Elipse 11635" cx="5.015" cy="5.015" r="5.015" transform="translate(94.734 7.798)" fill="#87e8d0"/>
            <circle id="Elipse_11636" data-name="Elipse 11636" cx="5.015" cy="5.015" r="5.015" transform="translate(107.832 97.323)" fill="#87e8d0"/>
            <circle id="Elipse_11637" data-name="Elipse 11637" cx="5.015" cy="5.015" r="5.015" transform="translate(118.704 139.17)" fill="#87e8d0"/>
            <circle id="Elipse_11638" data-name="Elipse 11638" cx="8.82" cy="8.82" r="8.82" transform="translate(122.342 43.689)" fill="#87e8d0"/>
          </g>
          <g id="Grupo_1108216" data-name="Grupo 1108216">
            <path id="Trazado_899226" data-name="Trazado 899226" d="M92.2,81.517C92.2,89.476,87.46,94,79.5,94c-6.29,0-9.869-3.135-13.606-7.735A14.421,14.421,0,0,1,84.263,67.9C89.462,71.092,92.2,75.227,92.2,81.517Z" fill="#fd8087"/>
            <path id="Trazado_899227" data-name="Trazado 899227" d="M93.911,81.505a14.413,14.413,0,0,1-28.016,4.761A14.421,14.421,0,0,0,84.262,67.9,14.414,14.414,0,0,1,93.911,81.505Z" fill="#fe646f"/>
          </g>
        </g>
        <g id="Grupo_1108218" data-name="Grupo 1108218">
          <path id="Trazado_899228" data-name="Trazado 899228" d="M90.266,61.475a6.849,6.849,0,0,1,9.272,9.249" fill="none" stroke="#000" stroke-linecap="round" stroke-linejoin="round" stroke-miterlimit="10" stroke-width="4.658"/>
          <path id="Trazado_899229" data-name="Trazado 899229" d="M59.369,70.543a6.849,6.849,0,0,1,9.366-9.067" fill="none" stroke="#000" stroke-linecap="round" stroke-linejoin="round" stroke-miterlimit="10" stroke-width="4.658"/>
          <path id="Trazado_899230" data-name="Trazado 899230" d="M68.733,101.536a6.849,6.849,0,0,1-9.272-9.248" fill="none" stroke="#000" stroke-linecap="round" stroke-linejoin="round" stroke-miterlimit="10" stroke-width="4.658"/>
          <path id="Trazado_899231" data-name="Trazado 899231" d="M99.539,92.287a6.849,6.849,0,0,1-9.273,9.247" fill="none" stroke="#000" stroke-linecap="round" stroke-linejoin="round" stroke-miterlimit="10" stroke-width="4.658"/>
          <path id="Trazado_899232" data-name="Trazado 899232" d="M69.7,70.3a10.952,10.952,0,1,1,19.734-.266" fill="none" stroke="#000" stroke-linecap="round" stroke-linejoin="round" stroke-miterlimit="10" stroke-width="4.658"/>
          <path id="Trazado_899233" data-name="Trazado 899233" d="M68.311,91.3a10.953,10.953,0,1,1-.166-19.673" fill="none" stroke="#000" stroke-linecap="round" stroke-linejoin="round" stroke-miterlimit="10" stroke-width="4.658"/>
          <path id="Trazado_899234" data-name="Trazado 899234" d="M89.313,92.728A10.953,10.953,0,1,1,69.7,92.706" fill="none" stroke="#000" stroke-linecap="round" stroke-linejoin="round" stroke-miterlimit="10" stroke-width="4.658"/>
          <path id="Trazado_899235" data-name="Trazado 899235" d="M90.452,71.832A10.952,10.952,0,1,1,90.69,91.3" fill="none" stroke="#000" stroke-linecap="round" stroke-linejoin="round" stroke-miterlimit="10" stroke-width="4.658"/>
          <circle id="Elipse_11639" data-name="Elipse 11639" cx="14.412" cy="14.412" r="14.412" transform="translate(65.088 67.093)" fill="none" stroke="#000" stroke-linecap="round" stroke-linejoin="round" stroke-miterlimit="10" stroke-width="4.658"/>
          <path id="Trazado_899236" data-name="Trazado 899236" d="M48.417,45.417C35.688,48.28,24.76,52.851,16.745,58.562" fill="none" stroke="#000" stroke-linecap="round" stroke-linejoin="round" stroke-miterlimit="10" stroke-width="4.658"/>
          <path id="Trazado_899237" data-name="Trazado 899237" d="M8.667,65.835c-4.077,4.8-6.338,10.1-6.338,15.67,0,5.31,2.056,10.378,5.785,15" fill="none" stroke="#000" stroke-linecap="round" stroke-linejoin="round" stroke-miterlimit="10" stroke-width="4.658"/>
          <path id="Trazado_899238" data-name="Trazado 899238" d="M15.975,103.893c12.217,9.024,31.614,15.322,53.976,16.729" fill="none" stroke="#000" stroke-linecap="round" stroke-linejoin="round" stroke-miterlimit="10" stroke-width="4.658"/>
          <path id="Trazado_899239" data-name="Trazado 899239" d="M80.82,120.917c25.145-.214,47.365-6.574,61.15-16.266" fill="none" stroke="#000" stroke-linecap="round" stroke-linejoin="round" stroke-miterlimit="10" stroke-width="4.658"/>
          <path id="Trazado_899240" data-name="Trazado 899240" d="M139.476,56.7c10.754,6.773,17.195,15.406,17.195,24.806,0,5.667-2.342,11.055-6.562,15.925" fill="none" stroke="#000" stroke-linecap="round" stroke-linejoin="round" stroke-miterlimit="10" stroke-width="4.658"/>
          <path id="Trazado_899241" data-name="Trazado 899241" d="M66.817,42.618c4.127-.348,8.363-.53,12.683-.53a134.212,134.212,0,0,1,42.843,6.627" fill="none" stroke="#000" stroke-linecap="round" stroke-linejoin="round" stroke-miterlimit="10" stroke-width="4.658"/>
          <path id="Trazado_899242" data-name="Trazado 899242" d="M94.406,35.678A141.757,141.757,0,0,1,113.635,61.8c17.378,30.1,21.909,61.42,12.767,77.854" fill="none" stroke="#000" stroke-linecap="round" stroke-linejoin="round" stroke-miterlimit="10" stroke-width="4.658"/>
          <path id="Trazado_899243" data-name="Trazado 899243" d="M86.6,28.116C70.09,13.645,52.787,7.819,40.915,14.673c-18.853,10.885-16.86,49.632,4.45,86.54s53.867,58.01,72.721,47.125c.491-.286.969-.587,1.432-.91" fill="none" stroke="#000" stroke-linecap="round" stroke-linejoin="round" stroke-miterlimit="10" stroke-width="4.658"/>
          <path id="Trazado_899244" data-name="Trazado 899244" d="M29.241,130.62C25.247,113.16,30.785,87.049,45.364,61.8q3.219-5.576,6.756-10.655" fill="none" stroke="#000" stroke-linecap="round" stroke-linejoin="round" stroke-miterlimit="10" stroke-width="4.658"/>
          <path id="Trazado_899245" data-name="Trazado 899245" d="M110.093,107.047c-21.24,33.26-51.342,51.588-69.178,41.29a20.551,20.551,0,0,1-2.656-1.826" fill="none" stroke="#000" stroke-linecap="round" stroke-linejoin="round" stroke-miterlimit="10" stroke-width="4.658"/>
          <path id="Trazado_899246" data-name="Trazado 899246" d="M129.145,61.657a132.567,132.567,0,0,1-13.337,35.666" fill="none" stroke="#000" stroke-linecap="round" stroke-linejoin="round" stroke-miterlimit="10" stroke-width="4.658"/>
          <path id="Trazado_899247" data-name="Trazado 899247" d="M105.717,11.833a22.521,22.521,0,0,1,12.369,2.841c8.4,4.85,12.661,15.229,12.921,28.513" fill="none" stroke="#000" stroke-linecap="round" stroke-linejoin="round" stroke-miterlimit="10" stroke-width="4.658"/>
          <path id="Trazado_899248" data-name="Trazado 899248" d="M63.7,36.636C73.757,25.708,84.563,17.9,94.58,14.209" fill="none" stroke="#000" stroke-linecap="round" stroke-linejoin="round" stroke-miterlimit="10" stroke-width="4.658"/>
          <circle id="Elipse_11640" data-name="Elipse 11640" cx="8.82" cy="8.82" r="8.82" transform="translate(48.847 34.869)" fill="none" stroke="#000" stroke-linecap="round" stroke-linejoin="round" stroke-miterlimit="10" stroke-width="4.658"/>
          <circle id="Elipse_11641" data-name="Elipse 11641" cx="8.82" cy="8.82" r="8.82" transform="translate(23.755 130.35)" fill="none" stroke="#000" stroke-linecap="round" stroke-linejoin="round" stroke-miterlimit="10" stroke-width="4.658"/>
          <circle id="Elipse_11642" data-name="Elipse 11642" cx="5.015" cy="5.015" r="5.015" transform="translate(6.702 95.492)" fill="none" stroke="#000" stroke-linecap="round" stroke-linejoin="round" stroke-miterlimit="10" stroke-width="4.658"/>
          <circle id="Elipse_11643" data-name="Elipse 11643" cx="5.015" cy="5.015" r="5.015" transform="translate(94.734 7.798)" fill="none" stroke="#000" stroke-linecap="round" stroke-linejoin="round" stroke-miterlimit="10" stroke-width="4.658"/>
          <circle id="Elipse_11644" data-name="Elipse 11644" cx="5.015" cy="5.015" r="5.015" transform="translate(107.832 97.323)" fill="none" stroke="#000" stroke-linecap="round" stroke-linejoin="round" stroke-miterlimit="10" stroke-width="4.658"/>
          <circle id="Elipse_11645" data-name="Elipse 11645" cx="5.015" cy="5.015" r="5.015" transform="translate(118.704 139.17)" fill="none" stroke="#000" stroke-linecap="round" stroke-linejoin="round" stroke-miterlimit="10" stroke-width="4.658"/>
          <circle id="Elipse_11646" data-name="Elipse 11646" cx="8.82" cy="8.82" r="8.82" transform="translate(122.342 43.689)" fill="none" stroke="#000" stroke-linecap="round" stroke-linejoin="round" stroke-miterlimit="10" stroke-width="4.658"/>
        </g>
      </g>
    </g>
  </g>
</svg>
