<svg xmlns="http://www.w3.org/2000/svg" width="505" height="276.856" viewBox="0 0 505 276.856">
  <g id="Grupo_1108954" data-name="Grupo 1108954" transform="translate(-810.051 -6791.619)">
    <path id="BG" d="M0,0H505V276.856H0Z" transform="translate(810.051 6791.619)" fill="#e6fcff"/>
    <path id="Trazado_899904" data-name="Trazado 899904" d="M11.654,0H8.587L4.052-7.963V0H.967V-12.8H4.052L8.578-4.834V-12.8h3.076Zm4.939,0H13.623V-9.51h2.971ZM13.447-11.962A1.322,1.322,0,0,1,13.9-13a1.724,1.724,0,0,1,1.187-.4,1.724,1.724,0,0,1,1.187.4,1.322,1.322,0,0,1,.457,1.037,1.322,1.322,0,0,1-.457,1.037,1.724,1.724,0,0,1-1.187.4,1.724,1.724,0,0,1-1.187-.4A1.322,1.322,0,0,1,13.447-11.962ZM22.21-3.524l1.5-5.985h3.12L23.73,0H20.707L17.6-9.51h3.129ZM32.317.176a4.889,4.889,0,0,1-3.542-1.305,4.507,4.507,0,0,1-1.354-3.4v-.246a5.84,5.84,0,0,1,.541-2.575A3.955,3.955,0,0,1,29.54-9.075,4.763,4.763,0,0,1,32-9.686a4.117,4.117,0,0,1,3.164,1.244,4.887,4.887,0,0,1,1.16,3.467v1.151H30.437a2.135,2.135,0,0,0,.694,1.257,2.066,2.066,0,0,0,1.389.457,2.662,2.662,0,0,0,2.2-.984l1.354,1.6A3.784,3.784,0,0,1,34.5-.277,5.3,5.3,0,0,1,32.317.176ZM31.983-7.4q-1.3,0-1.547,1.723h2.988v-.229a1.467,1.467,0,0,0-.36-1.1A1.434,1.434,0,0,0,31.983-7.4ZM40.641,0H37.67V-13.5h2.971Zm6.425.176a4.889,4.889,0,0,1-3.542-1.305,4.507,4.507,0,0,1-1.354-3.4v-.246a5.84,5.84,0,0,1,.541-2.575,3.955,3.955,0,0,1,1.578-1.727,4.763,4.763,0,0,1,2.461-.611,4.117,4.117,0,0,1,3.164,1.244,4.887,4.887,0,0,1,1.16,3.467v1.151H45.185a2.135,2.135,0,0,0,.694,1.257,2.066,2.066,0,0,0,1.389.457,2.662,2.662,0,0,0,2.2-.984l1.354,1.6A3.784,3.784,0,0,1,49.25-.277,5.3,5.3,0,0,1,47.065.176ZM46.731-7.4q-1.3,0-1.547,1.723h2.988v-.229a1.467,1.467,0,0,0-.36-1.1A1.434,1.434,0,0,0,46.731-7.4ZM57.243-2.672a.684.684,0,0,0-.4-.606,6.016,6.016,0,0,0-1.5-.475A6.853,6.853,0,0,1,53.517-4.4a3.062,3.062,0,0,1-1.1-.971,2.319,2.319,0,0,1-.378-1.31,2.628,2.628,0,0,1,1.081-2.158,4.453,4.453,0,0,1,2.83-.848,4.934,4.934,0,0,1,3.023.853,2.666,2.666,0,0,1,1.143,2.241H57.146q0-1.143-1.2-1.143a1.194,1.194,0,0,0-.782.259.8.8,0,0,0-.316.646.737.737,0,0,0,.387.642,3.654,3.654,0,0,0,1.235.4,10.671,10.671,0,0,1,1.49.378A2.706,2.706,0,0,1,60.1-2.76,2.491,2.491,0,0,1,58.944-.642a5.068,5.068,0,0,1-2.993.817,5.172,5.172,0,0,1-2.18-.439,3.645,3.645,0,0,1-1.494-1.2,2.707,2.707,0,0,1-.536-1.591H54.51a1.145,1.145,0,0,0,.439.962,1.808,1.808,0,0,0,1.081.3,1.422,1.422,0,0,0,.91-.246A.787.787,0,0,0,57.243-2.672Z" transform="translate(913.051 6824.619)" fill="#12263f"/>
    <path id="Trazado_899905" data-name="Trazado 899905" d="M7.348,0H4.377V-9.457L1.459-8.6v-2.25L7.075-12.8h.272ZM9.712,29H.782V27.066L4.9,22.742a4.909,4.909,0,0,0,1.521-2.751,1.913,1.913,0,0,0-.36-1.257A1.287,1.287,0,0,0,5.01,18.3a1.3,1.3,0,0,0-1.1.576,2.366,2.366,0,0,0-.422,1.437H.519a4.2,4.2,0,0,1,.589-2.175,4.129,4.129,0,0,1,1.635-1.56,4.856,4.856,0,0,1,2.338-.562,4.777,4.777,0,0,1,3.195.958A3.42,3.42,0,0,1,9.4,19.728,4,4,0,0,1,9.114,21.2a6.456,6.456,0,0,1-.875,1.5,22.029,22.029,0,0,1-1.912,2.1L4.676,26.715H9.712ZM3.489,50.362h1.4a1.453,1.453,0,0,0,1.661-1.626,1.406,1.406,0,0,0-.4-1.033,1.5,1.5,0,0,0-1.116-.4,1.606,1.606,0,0,0-1.024.343,1.046,1.046,0,0,0-.435.853H.615a3.032,3.032,0,0,1,.563-1.8,3.715,3.715,0,0,1,1.56-1.235,5.334,5.334,0,0,1,2.193-.444,5.241,5.241,0,0,1,3.357.976A3.243,3.243,0,0,1,9.51,48.675,2.7,2.7,0,0,1,9,50.235a3.6,3.6,0,0,1-1.472,1.191,3.441,3.441,0,0,1,1.6,1.121,2.951,2.951,0,0,1,.58,1.859,3.3,3.3,0,0,1-1.318,2.742,5.472,5.472,0,0,1-3.463,1.028A5.675,5.675,0,0,1,2.6,57.7,3.656,3.656,0,0,1,.967,56.37,3.45,3.45,0,0,1,.413,54.44H3.393a1.334,1.334,0,0,0,.475,1.02,1.676,1.676,0,0,0,1.169.431,1.755,1.755,0,0,0,1.248-.435,1.454,1.454,0,0,0,.466-1.112,1.7,1.7,0,0,0-.483-1.371,2.021,2.021,0,0,0-1.336-.4H3.489ZM8.6,82h1.3v2.285H8.6V87H5.643V84.284H.694L.519,82.474l5.124-8.244V74.2H8.6ZM3.34,82h2.3V78.062l-.185.3ZM.958,109.742,1.74,103.2H9.22v2.3H4.148l-.29,2.54a3.5,3.5,0,0,1,.831-.325A3.805,3.805,0,0,1,5.7,107.58a3.754,3.754,0,0,1,2.931,1.129,5.146,5.146,0,0,1,.475,5.4,3.776,3.776,0,0,1-1.542,1.534,4.87,4.87,0,0,1-2.347.536,5.236,5.236,0,0,1-2.259-.5A4.053,4.053,0,0,1,1.3,114.317a3.312,3.312,0,0,1-.589-1.956H3.683a1.685,1.685,0,0,0,.448,1.116,1.421,1.421,0,0,0,1.063.413q1.494,0,1.494-2.215,0-2.048-1.828-2.048a1.823,1.823,0,0,0-1.547.668Zm6.979,22.276v2.329H7.8a4.447,4.447,0,0,0-2.729.8,3.358,3.358,0,0,0-1.314,2.21,3.464,3.464,0,0,1,2.531-.984,3.231,3.231,0,0,1,2.646,1.213,4.892,4.892,0,0,1,.984,3.182A4.48,4.48,0,0,1,9.347,143a4.108,4.108,0,0,1-1.608,1.6,4.622,4.622,0,0,1-2.29.576,4.777,4.777,0,0,1-2.435-.62,4.26,4.26,0,0,1-1.67-1.771,5.832,5.832,0,0,1-.615-2.654v-1.187a7.387,7.387,0,0,1,.848-3.555A6.149,6.149,0,0,1,4,132.915a6.923,6.923,0,0,1,3.489-.9Zm-2.672,6.618a1.7,1.7,0,0,0-.984.272,1.73,1.73,0,0,0-.589.668v.888q0,2.426,1.679,2.426a1.362,1.362,0,0,0,1.129-.606,2.472,2.472,0,0,0,.453-1.521,2.426,2.426,0,0,0-.461-1.534A1.476,1.476,0,0,0,5.265,138.637Zm4.412,24.148L4.9,174H1.767l4.79-10.512H.457V161.2h9.22Z" transform="translate(932.551 6864.868)" fill="#12263f"/>
    <path id="Trazado_899906" data-name="Trazado 899906" d="M5.7,17H4.242V7.367L1.328,8.438V7.125L5.469,5.57H5.7ZM15,14.758a1.064,1.064,0,0,0-.441-.91,4.249,4.249,0,0,0-1.539-.559,7.277,7.277,0,0,1-1.742-.562,2.479,2.479,0,0,1-.953-.781,1.869,1.869,0,0,1-.309-1.078,2.193,2.193,0,0,1,.879-1.758,3.432,3.432,0,0,1,2.246-.719,3.532,3.532,0,0,1,2.332.742,2.357,2.357,0,0,1,.895,1.9H14.914a1.3,1.3,0,0,0-.5-1.023,1.888,1.888,0,0,0-1.27-.43,1.976,1.976,0,0,0-1.234.344,1.082,1.082,0,0,0-.445.9.877.877,0,0,0,.414.789,5.1,5.1,0,0,0,1.5.508,7.8,7.8,0,0,1,1.754.578,2.558,2.558,0,0,1,1,.809,1.988,1.988,0,0,1,.324,1.152,2.163,2.163,0,0,1-.906,1.816,3.8,3.8,0,0,1-2.352.684,4.257,4.257,0,0,1-1.8-.359,2.922,2.922,0,0,1-1.223-1A2.42,2.42,0,0,1,9.727,14.4h1.445a1.5,1.5,0,0,0,.582,1.152,2.258,2.258,0,0,0,1.434.426,2.331,2.331,0,0,0,1.316-.332A1.02,1.02,0,0,0,15,14.758ZM22.133,12H17.786v-.606l2.3-2.552a5.457,5.457,0,0,0,.7-.941,1.571,1.571,0,0,0,.194-.75,1.19,1.19,0,0,0-.314-.852,1.1,1.1,0,0,0-.838-.333,1.3,1.3,0,0,0-.977.358,1.366,1.366,0,0,0-.349,1h-.843a1.957,1.957,0,0,1,.59-1.481,2.188,2.188,0,0,1,1.579-.565,2.1,2.1,0,0,1,1.463.485,1.655,1.655,0,0,1,.538,1.292,3.8,3.8,0,0,1-1.249,2.333L18.8,11.312h3.331ZM8.4,46H.945V44.961l3.938-4.375A9.354,9.354,0,0,0,6.09,38.973a2.693,2.693,0,0,0,.332-1.285,2.041,2.041,0,0,0-.539-1.461,1.885,1.885,0,0,0-1.437-.57,2.232,2.232,0,0,0-1.676.613,2.343,2.343,0,0,0-.6,1.707H.727a3.355,3.355,0,0,1,1.012-2.539,3.751,3.751,0,0,1,2.707-.969,3.6,3.6,0,0,1,2.508.832,2.838,2.838,0,0,1,.922,2.215q0,1.68-2.141,4l-3.047,3.3H8.4ZM15,43.758a1.064,1.064,0,0,0-.441-.91,4.249,4.249,0,0,0-1.539-.559,7.277,7.277,0,0,1-1.742-.562,2.479,2.479,0,0,1-.953-.781,1.869,1.869,0,0,1-.309-1.078,2.193,2.193,0,0,1,.879-1.758,3.432,3.432,0,0,1,2.246-.719,3.532,3.532,0,0,1,2.332.742,2.357,2.357,0,0,1,.895,1.9H14.914a1.3,1.3,0,0,0-.5-1.023,1.888,1.888,0,0,0-1.27-.43,1.976,1.976,0,0,0-1.234.344,1.082,1.082,0,0,0-.445.9.877.877,0,0,0,.414.789,5.1,5.1,0,0,0,1.5.508,7.8,7.8,0,0,1,1.754.578,2.558,2.558,0,0,1,1,.809,1.988,1.988,0,0,1,.324,1.152,2.163,2.163,0,0,1-.906,1.816,3.8,3.8,0,0,1-2.352.684,4.257,4.257,0,0,1-1.8-.359,2.922,2.922,0,0,1-1.223-1A2.42,2.42,0,0,1,9.727,43.4h1.445a1.5,1.5,0,0,0,.582,1.152,2.258,2.258,0,0,0,1.434.426,2.331,2.331,0,0,0,1.316-.332A1.02,1.02,0,0,0,15,43.758ZM22.133,41H17.786v-.606l2.3-2.552a5.457,5.457,0,0,0,.7-.941,1.571,1.571,0,0,0,.194-.75,1.19,1.19,0,0,0-.314-.852,1.1,1.1,0,0,0-.838-.333,1.3,1.3,0,0,0-.977.358,1.366,1.366,0,0,0-.349,1h-.843a1.957,1.957,0,0,1,.59-1.481,2.188,2.188,0,0,1,1.579-.565,2.1,2.1,0,0,1,1.463.485,1.655,1.655,0,0,1,.538,1.292,3.8,3.8,0,0,1-1.249,2.333L18.8,40.312h3.331Zm32.506,5H47.186V44.961l3.938-4.375a9.355,9.355,0,0,0,1.207-1.613,2.693,2.693,0,0,0,.332-1.285,2.041,2.041,0,0,0-.539-1.461,1.885,1.885,0,0,0-1.437-.57,2.232,2.232,0,0,0-1.676.613,2.343,2.343,0,0,0-.6,1.707H46.967a3.355,3.355,0,0,1,1.012-2.539,3.751,3.751,0,0,1,2.707-.969,3.6,3.6,0,0,1,2.508.832,2.838,2.838,0,0,1,.922,2.215q0,1.68-2.141,4l-3.047,3.3h5.711Zm8.82-4.133a5.062,5.062,0,0,1-.883,3.109,2.829,2.829,0,0,1-2.391,1.18,3.1,3.1,0,0,1-2.422-.977v4.07H56.319v-11.7h1.32l.07.938a2.977,2.977,0,0,1,2.453-1.094,2.882,2.882,0,0,1,2.41,1.148,5.117,5.117,0,0,1,.887,3.2ZM62.014,41.7a3.735,3.735,0,0,0-.609-2.258,1.963,1.963,0,0,0-1.672-.828,2.125,2.125,0,0,0-1.969,1.164V43.82a2.129,2.129,0,0,0,1.984,1.156,1.954,1.954,0,0,0,1.652-.824A4.077,4.077,0,0,0,62.014,41.7Zm6.047-7.343v.715h-.155a2.22,2.22,0,0,0-1.568.583,2.427,2.427,0,0,0-.674,1.59,1.8,1.8,0,0,1,1.431-.6,1.721,1.721,0,0,1,1.383.611,2.676,2.676,0,0,1-.041,3.217,1.922,1.922,0,0,1-1.5.615A1.894,1.894,0,0,1,65.4,40.36a2.9,2.9,0,0,1-.592-1.884v-.324a4.368,4.368,0,0,1,.782-2.8,2.87,2.87,0,0,1,2.326-.991ZM66.954,37.35a1.417,1.417,0,0,0-1.3.911v.31a2.177,2.177,0,0,0,.369,1.322,1.106,1.106,0,0,0,.921.5,1.072,1.072,0,0,0,.9-.419,2.014,2.014,0,0,0,0-2.2A1.059,1.059,0,0,0,66.954,37.35ZM3.047,68.609H4.133a2.387,2.387,0,0,0,1.609-.539,1.8,1.8,0,0,0,.586-1.414,1.764,1.764,0,0,0-1.992-2,2.072,2.072,0,0,0-1.5.535,1.873,1.873,0,0,0-.559,1.418H.836a2.9,2.9,0,0,1,.988-2.246,3.6,3.6,0,0,1,2.512-.895,3.558,3.558,0,0,1,2.523.852,3.076,3.076,0,0,1,.914,2.367,2.5,2.5,0,0,1-.48,1.438,2.9,2.9,0,0,1-1.309,1.039,2.8,2.8,0,0,1,1.449.984,2.734,2.734,0,0,1,.512,1.68,3.1,3.1,0,0,1-1,2.43,3.745,3.745,0,0,1-2.6.9,3.844,3.844,0,0,1-2.605-.867A2.877,2.877,0,0,1,.734,72H2.188a1.859,1.859,0,0,0,.586,1.438,2.229,2.229,0,0,0,1.57.539,2.187,2.187,0,0,0,1.6-.547,2.108,2.108,0,0,0,.555-1.57,1.912,1.912,0,0,0-.609-1.523,2.655,2.655,0,0,0-1.758-.547H3.047ZM15,72.758a1.064,1.064,0,0,0-.441-.91,4.249,4.249,0,0,0-1.539-.559,7.277,7.277,0,0,1-1.742-.562,2.479,2.479,0,0,1-.953-.781,1.869,1.869,0,0,1-.309-1.078,2.193,2.193,0,0,1,.879-1.758,3.432,3.432,0,0,1,2.246-.719,3.532,3.532,0,0,1,2.332.742,2.357,2.357,0,0,1,.895,1.9H14.914a1.3,1.3,0,0,0-.5-1.023,1.888,1.888,0,0,0-1.27-.43,1.976,1.976,0,0,0-1.234.344,1.082,1.082,0,0,0-.445.9.877.877,0,0,0,.414.789,5.1,5.1,0,0,0,1.5.508,7.8,7.8,0,0,1,1.754.578,2.558,2.558,0,0,1,1,.809,1.988,1.988,0,0,1,.324,1.152,2.163,2.163,0,0,1-.906,1.816,3.8,3.8,0,0,1-2.352.684,4.257,4.257,0,0,1-1.8-.359,2.922,2.922,0,0,1-1.223-1A2.42,2.42,0,0,1,9.727,72.4h1.445a1.5,1.5,0,0,0,.582,1.152,2.258,2.258,0,0,0,1.434.426,2.331,2.331,0,0,0,1.316-.332A1.02,1.02,0,0,0,15,72.758ZM22.133,70H17.786v-.606l2.3-2.552a5.456,5.456,0,0,0,.7-.941,1.571,1.571,0,0,0,.194-.75,1.19,1.19,0,0,0-.314-.852,1.1,1.1,0,0,0-.838-.333,1.3,1.3,0,0,0-.977.358,1.366,1.366,0,0,0-.349,1h-.843a1.957,1.957,0,0,1,.59-1.481,2.188,2.188,0,0,1,1.579-.565,2.1,2.1,0,0,1,1.463.485,1.655,1.655,0,0,1,.538,1.292,3.8,3.8,0,0,1-1.249,2.333L18.8,69.312h3.331Zm27.154-1.391h1.086a2.387,2.387,0,0,0,1.609-.539,1.8,1.8,0,0,0,.586-1.414,1.764,1.764,0,0,0-1.992-2,2.072,2.072,0,0,0-1.5.535,1.873,1.873,0,0,0-.559,1.418H47.077a2.9,2.9,0,0,1,.988-2.246,3.6,3.6,0,0,1,2.512-.895,3.558,3.558,0,0,1,2.523.852,3.076,3.076,0,0,1,.914,2.367,2.5,2.5,0,0,1-.48,1.438,2.9,2.9,0,0,1-1.309,1.039,2.8,2.8,0,0,1,1.449.984,2.734,2.734,0,0,1,.512,1.68,3.1,3.1,0,0,1-1,2.43,3.745,3.745,0,0,1-2.6.9,3.844,3.844,0,0,1-2.605-.867,2.877,2.877,0,0,1-1-2.289h1.453a1.859,1.859,0,0,0,.586,1.438,2.229,2.229,0,0,0,1.57.539,2.187,2.187,0,0,0,1.6-.547,2.108,2.108,0,0,0,.555-1.57,1.912,1.912,0,0,0-.609-1.523,2.655,2.655,0,0,0-1.758-.547H49.287Zm14.172,2.258a5.062,5.062,0,0,1-.883,3.109,2.829,2.829,0,0,1-2.391,1.18,3.1,3.1,0,0,1-2.422-.977v4.07H56.319v-11.7h1.32l.07.938a2.977,2.977,0,0,1,2.453-1.094,2.882,2.882,0,0,1,2.41,1.148,5.117,5.117,0,0,1,.887,3.2ZM62.014,70.7a3.735,3.735,0,0,0-.609-2.258,1.963,1.963,0,0,0-1.672-.828,2.125,2.125,0,0,0-1.969,1.164V72.82a2.129,2.129,0,0,0,1.984,1.156,1.954,1.954,0,0,0,1.652-.824A4.077,4.077,0,0,0,62.014,70.7Zm6.047-7.343v.715h-.155a2.22,2.22,0,0,0-1.568.583,2.427,2.427,0,0,0-.674,1.59,1.8,1.8,0,0,1,1.431-.6,1.721,1.721,0,0,1,1.383.611,2.676,2.676,0,0,1-.041,3.217,1.922,1.922,0,0,1-1.5.615A1.894,1.894,0,0,1,65.4,69.36a2.9,2.9,0,0,1-.592-1.884v-.324a4.368,4.368,0,0,1,.782-2.8,2.87,2.87,0,0,1,2.326-.991ZM66.954,66.35a1.417,1.417,0,0,0-1.3.911v.31a2.177,2.177,0,0,0,.369,1.322,1.106,1.106,0,0,0,.921.5,1.072,1.072,0,0,0,.9-.419,2.014,2.014,0,0,0,0-2.2A1.059,1.059,0,0,0,66.954,66.35Zm29.3,2.26h1.086a2.387,2.387,0,0,0,1.609-.539,1.8,1.8,0,0,0,.586-1.414,1.764,1.764,0,0,0-1.992-2,2.072,2.072,0,0,0-1.5.535,1.873,1.873,0,0,0-.559,1.418H94.044a2.9,2.9,0,0,1,.988-2.246,3.6,3.6,0,0,1,2.512-.895,3.558,3.558,0,0,1,2.523.852,3.076,3.076,0,0,1,.914,2.367,2.5,2.5,0,0,1-.48,1.438,2.9,2.9,0,0,1-1.309,1.039,2.8,2.8,0,0,1,1.449.984,2.734,2.734,0,0,1,.512,1.68,3.1,3.1,0,0,1-1,2.43,3.745,3.745,0,0,1-2.6.9,3.844,3.844,0,0,1-2.605-.867,2.877,2.877,0,0,1-1-2.289H95.4a1.859,1.859,0,0,0,.586,1.438,2.229,2.229,0,0,0,1.57.539,2.187,2.187,0,0,0,1.6-.547,2.108,2.108,0,0,0,.555-1.57,1.912,1.912,0,0,0-.609-1.523,2.655,2.655,0,0,0-1.758-.547H96.255Zm6.68,2.094a4.952,4.952,0,0,1,.922-3.129,3.137,3.137,0,0,1,4.766-.168V63h1.445V75h-1.328l-.07-.906a2.943,2.943,0,0,1-2.414,1.063,2.887,2.887,0,0,1-2.395-1.2,5.008,5.008,0,0,1-.926-3.141Zm1.445.164a3.749,3.749,0,0,0,.594,2.25,1.92,1.92,0,0,0,1.641.813,2.109,2.109,0,0,0,2.008-1.234V68.813a2.125,2.125,0,0,0-1.992-1.2,1.929,1.929,0,0,0-1.656.82A4.128,4.128,0,0,0,104.38,70.867ZM114.538,70h-.848V64.381l-1.7.624V64.24l2.415-.907h.132Zm6.63-2.83a3.856,3.856,0,0,1-.506,2.2,2.1,2.1,0,0,1-3.153.016,3.66,3.66,0,0,1-.529-2.1V66.158a3.77,3.77,0,0,1,.506-2.174,2.14,2.14,0,0,1,3.163-.025,3.638,3.638,0,0,1,.52,2.117Zm-.843-1.153a3.089,3.089,0,0,0-.3-1.561,1.035,1.035,0,0,0-.952-.49,1.022,1.022,0,0,0-.943.488,3.016,3.016,0,0,0-.305,1.5V67.3a3.139,3.139,0,0,0,.312,1.588,1.033,1.033,0,0,0,.946.513,1.019,1.019,0,0,0,.927-.483,3.025,3.025,0,0,0,.317-1.522ZM7.047,100.18H8.625v1.18H7.047V104H5.594v-2.641H.414v-.852l5.094-7.883H7.047Zm-4.992,0H5.594V94.6l-.172.313ZM15,101.758a1.064,1.064,0,0,0-.441-.91,4.249,4.249,0,0,0-1.539-.559,7.277,7.277,0,0,1-1.742-.562,2.479,2.479,0,0,1-.953-.781,1.869,1.869,0,0,1-.309-1.078,2.193,2.193,0,0,1,.879-1.758,3.432,3.432,0,0,1,2.246-.719,3.532,3.532,0,0,1,2.332.742,2.357,2.357,0,0,1,.895,1.9H14.914a1.3,1.3,0,0,0-.5-1.023,1.888,1.888,0,0,0-1.27-.43,1.976,1.976,0,0,0-1.234.344,1.082,1.082,0,0,0-.445.9.877.877,0,0,0,.414.789,5.1,5.1,0,0,0,1.5.508,7.8,7.8,0,0,1,1.754.578,2.558,2.558,0,0,1,1,.809,1.988,1.988,0,0,1,.324,1.152,2.163,2.163,0,0,1-.906,1.816,3.8,3.8,0,0,1-2.352.684,4.257,4.257,0,0,1-1.8-.359,2.922,2.922,0,0,1-1.223-1,2.42,2.42,0,0,1-.441-1.395h1.445a1.5,1.5,0,0,0,.582,1.152,2.258,2.258,0,0,0,1.434.426,2.331,2.331,0,0,0,1.316-.332A1.02,1.02,0,0,0,15,101.758ZM22.133,99H17.786v-.606l2.3-2.552a5.456,5.456,0,0,0,.7-.941,1.571,1.571,0,0,0,.194-.75,1.19,1.19,0,0,0-.314-.852,1.1,1.1,0,0,0-.838-.333,1.3,1.3,0,0,0-.977.358,1.366,1.366,0,0,0-.349,1h-.843a1.957,1.957,0,0,1,.59-1.481,2.188,2.188,0,0,1,1.579-.565,2.1,2.1,0,0,1,1.463.485,1.655,1.655,0,0,1,.538,1.292,3.8,3.8,0,0,1-1.249,2.333L18.8,98.312h3.331Zm31.154,1.18h1.578v1.18H53.287V104H51.834v-2.641h-5.18v-.852l5.094-7.883h1.539Zm-4.992,0h3.539V94.6l-.172.313Zm15.164-.312a5.062,5.062,0,0,1-.883,3.109,2.829,2.829,0,0,1-2.391,1.18,3.1,3.1,0,0,1-2.422-.977v4.07H56.319v-11.7h1.32l.07.938a2.977,2.977,0,0,1,2.453-1.094,2.882,2.882,0,0,1,2.41,1.148,5.117,5.117,0,0,1,.887,3.2ZM62.014,99.7a3.735,3.735,0,0,0-.609-2.258,1.963,1.963,0,0,0-1.672-.828,2.125,2.125,0,0,0-1.969,1.164v4.039a2.129,2.129,0,0,0,1.984,1.156,1.954,1.954,0,0,0,1.652-.824A4.077,4.077,0,0,0,62.014,99.7Zm6.047-7.343v.715h-.155a2.22,2.22,0,0,0-1.568.583,2.427,2.427,0,0,0-.674,1.59,1.8,1.8,0,0,1,1.431-.6,1.721,1.721,0,0,1,1.383.611,2.676,2.676,0,0,1-.041,3.217,1.922,1.922,0,0,1-1.5.615A1.894,1.894,0,0,1,65.4,98.36a2.9,2.9,0,0,1-.592-1.884v-.324a4.368,4.368,0,0,1,.782-2.8,2.87,2.87,0,0,1,2.326-.991ZM66.954,95.35a1.417,1.417,0,0,0-1.3.911v.31a2.177,2.177,0,0,0,.369,1.322,1.106,1.106,0,0,0,.921.5,1.072,1.072,0,0,0,.9-.419,2.014,2.014,0,0,0,0-2.2A1.059,1.059,0,0,0,66.954,95.35Zm33.3,4.83h1.578v1.18h-1.578V104H98.8v-2.641h-5.18v-.852l5.094-7.883h1.539Zm-4.992,0H98.8V94.6l-.172.313Zm7.672-.477a4.952,4.952,0,0,1,.922-3.129,3.137,3.137,0,0,1,4.766-.168V92h1.445v12h-1.328l-.07-.906a2.943,2.943,0,0,1-2.414,1.063,2.887,2.887,0,0,1-2.395-1.2,5.008,5.008,0,0,1-.926-3.141Zm1.445.164a3.749,3.749,0,0,0,.594,2.25,1.92,1.92,0,0,0,1.641.813,2.109,2.109,0,0,0,2.008-1.234V97.813a2.125,2.125,0,0,0-1.992-1.2,1.929,1.929,0,0,0-1.656.82A4.128,4.128,0,0,0,104.38,99.867ZM114.538,99h-.848V93.381l-1.7.624V93.24l2.415-.907h.132Zm6.63-2.83a3.856,3.856,0,0,1-.506,2.2,2.1,2.1,0,0,1-3.153.016,3.66,3.66,0,0,1-.529-2.1V95.158a3.77,3.77,0,0,1,.506-2.174,2.14,2.14,0,0,1,3.163-.025,3.638,3.638,0,0,1,.52,2.117Zm-.843-1.153a3.089,3.089,0,0,0-.3-1.561,1.035,1.035,0,0,0-.952-.49,1.022,1.022,0,0,0-.943.488,3.016,3.016,0,0,0-.305,1.5V96.3a3.139,3.139,0,0,0,.312,1.588,1.033,1.033,0,0,0,.946.513,1.019,1.019,0,0,0,.927-.483,3.025,3.025,0,0,0,.317-1.522Zm32.184,5.163h1.578v1.18h-1.578V104h-1.453v-2.641h-5.18v-.852l5.094-7.883h1.539Zm-4.992,0h3.539V94.6l-.172.313Zm8.734,3.82V96.664h-1.336V95.547h1.336V94.68a2.878,2.878,0,0,1,.727-2.1,2.745,2.745,0,0,1,2.055-.742,3.793,3.793,0,0,1,.992.133l-.078,1.172a4.151,4.151,0,0,0-.781-.07,1.413,1.413,0,0,0-1.086.41,1.66,1.66,0,0,0-.383,1.176v.891h1.8v1.117h-1.8V104Zm7.072-5h-.848V93.381l-1.7.624V93.24l2.415-.907h.132Zm6.029-2.228h.921v.688h-.921V99H168.5V97.46h-3.021v-.5l2.971-4.6h.9Zm-2.912,0H168.5V93.518l-.1.182ZM1.609,127.3l.578-5.672H8.016v1.336h-4.6l-.344,3.1a3.671,3.671,0,0,1,1.9-.492A3.138,3.138,0,0,1,7.438,126.6a4.026,4.026,0,0,1,.914,2.777,3.886,3.886,0,0,1-.949,2.77,3.46,3.46,0,0,1-2.652,1.012,3.6,3.6,0,0,1-2.461-.836A3.337,3.337,0,0,1,1.2,130.008H2.57a2.3,2.3,0,0,0,.7,1.473,2.162,2.162,0,0,0,1.484.5,1.95,1.95,0,0,0,1.582-.687,2.874,2.874,0,0,0,.574-1.9,2.638,2.638,0,0,0-.621-1.832,2.113,2.113,0,0,0-1.652-.691,2.383,2.383,0,0,0-1.484.414l-.383.313ZM15,130.758a1.064,1.064,0,0,0-.441-.91,4.249,4.249,0,0,0-1.539-.559,7.277,7.277,0,0,1-1.742-.562,2.479,2.479,0,0,1-.953-.781,1.869,1.869,0,0,1-.309-1.078,2.193,2.193,0,0,1,.879-1.758,3.432,3.432,0,0,1,2.246-.719,3.532,3.532,0,0,1,2.332.742,2.357,2.357,0,0,1,.895,1.9H14.914a1.3,1.3,0,0,0-.5-1.023,1.888,1.888,0,0,0-1.27-.43,1.976,1.976,0,0,0-1.234.344,1.082,1.082,0,0,0-.445.9.877.877,0,0,0,.414.789,5.1,5.1,0,0,0,1.5.508,7.8,7.8,0,0,1,1.754.578,2.558,2.558,0,0,1,1,.809,1.988,1.988,0,0,1,.324,1.152,2.163,2.163,0,0,1-.906,1.816,3.8,3.8,0,0,1-2.352.684,4.257,4.257,0,0,1-1.8-.359,2.922,2.922,0,0,1-1.223-1,2.42,2.42,0,0,1-.441-1.395h1.445a1.5,1.5,0,0,0,.582,1.152,2.258,2.258,0,0,0,1.434.426,2.331,2.331,0,0,0,1.316-.332A1.02,1.02,0,0,0,15,130.758ZM22.133,128H17.786v-.606l2.3-2.552a5.456,5.456,0,0,0,.7-.941,1.571,1.571,0,0,0,.194-.75,1.19,1.19,0,0,0-.314-.852,1.1,1.1,0,0,0-.838-.333,1.3,1.3,0,0,0-.977.358,1.366,1.366,0,0,0-.349,1h-.843a1.957,1.957,0,0,1,.59-1.481,2.188,2.188,0,0,1,1.579-.565,2.1,2.1,0,0,1,1.463.485,1.655,1.655,0,0,1,.538,1.292,3.8,3.8,0,0,1-1.249,2.333L18.8,127.312h3.331Zm25.717-.7.578-5.672h5.828v1.336h-4.6l-.344,3.1a3.671,3.671,0,0,1,1.9-.492,3.138,3.138,0,0,1,2.469,1.027,4.026,4.026,0,0,1,.914,2.777,3.886,3.886,0,0,1-.949,2.77,3.46,3.46,0,0,1-2.652,1.012,3.6,3.6,0,0,1-2.461-.836,3.337,3.337,0,0,1-1.086-2.312h1.367a2.3,2.3,0,0,0,.7,1.473,2.162,2.162,0,0,0,1.484.5,1.95,1.95,0,0,0,1.582-.687,2.874,2.874,0,0,0,.574-1.9,2.638,2.638,0,0,0-.621-1.832,2.113,2.113,0,0,0-1.652-.691,2.383,2.383,0,0,0-1.484.414l-.383.313Zm15.609,1.57a5.062,5.062,0,0,1-.883,3.109,2.829,2.829,0,0,1-2.391,1.18,3.1,3.1,0,0,1-2.422-.977v4.07H56.319v-11.7h1.32l.07.938a2.977,2.977,0,0,1,2.453-1.094,2.882,2.882,0,0,1,2.41,1.148,5.117,5.117,0,0,1,.887,3.2Zm-1.445-.164a3.735,3.735,0,0,0-.609-2.258,1.963,1.963,0,0,0-1.672-.828,2.125,2.125,0,0,0-1.969,1.164v4.039a2.129,2.129,0,0,0,1.984,1.156,1.954,1.954,0,0,0,1.652-.824A4.077,4.077,0,0,0,62.014,128.7Zm6.047-7.343v.715h-.155a2.22,2.22,0,0,0-1.568.583,2.427,2.427,0,0,0-.674,1.59,1.8,1.8,0,0,1,1.431-.6,1.721,1.721,0,0,1,1.383.611,2.676,2.676,0,0,1-.041,3.217,1.922,1.922,0,0,1-1.5.615,1.894,1.894,0,0,1-1.545-.731,2.9,2.9,0,0,1-.592-1.884v-.324a4.368,4.368,0,0,1,.782-2.8,2.87,2.87,0,0,1,2.326-.991Zm-1.107,2.989a1.417,1.417,0,0,0-1.3.911v.31a2.177,2.177,0,0,0,.369,1.322,1.106,1.106,0,0,0,.921.5,1.072,1.072,0,0,0,.9-.419,2.014,2.014,0,0,0,0-2.2A1.059,1.059,0,0,0,66.954,124.35ZM94.817,127.3l.578-5.672h5.828v1.336h-4.6l-.344,3.1a3.671,3.671,0,0,1,1.9-.492,3.138,3.138,0,0,1,2.469,1.027,4.026,4.026,0,0,1,.914,2.777,3.886,3.886,0,0,1-.949,2.77,3.46,3.46,0,0,1-2.652,1.012,3.6,3.6,0,0,1-2.461-.836,3.337,3.337,0,0,1-1.086-2.312h1.367a2.3,2.3,0,0,0,.7,1.473,2.162,2.162,0,0,0,1.484.5,1.95,1.95,0,0,0,1.582-.687,2.874,2.874,0,0,0,.574-1.9,2.638,2.638,0,0,0-.621-1.832,2.113,2.113,0,0,0-1.652-.691,2.383,2.383,0,0,0-1.484.414l-.383.313Zm8.117,1.406a4.952,4.952,0,0,1,.922-3.129,3.137,3.137,0,0,1,4.766-.168V121h1.445v12h-1.328l-.07-.906a2.943,2.943,0,0,1-2.414,1.063,2.887,2.887,0,0,1-2.395-1.2,5.008,5.008,0,0,1-.926-3.141Zm1.445.164a3.749,3.749,0,0,0,.594,2.25,1.919,1.919,0,0,0,1.641.813,2.108,2.108,0,0,0,2.008-1.234v-3.883a2.125,2.125,0,0,0-1.992-1.2,1.929,1.929,0,0,0-1.656.82A4.128,4.128,0,0,0,104.38,128.867ZM114.538,128h-.848v-5.619l-1.7.624v-.766l2.415-.907h.132Zm6.63-2.83a3.856,3.856,0,0,1-.506,2.2,2.1,2.1,0,0,1-3.153.016,3.66,3.66,0,0,1-.529-2.1v-1.126a3.77,3.77,0,0,1,.506-2.174,2.14,2.14,0,0,1,3.163-.025,3.638,3.638,0,0,1,.52,2.117Zm-.843-1.153a3.089,3.089,0,0,0-.3-1.561,1.035,1.035,0,0,0-.952-.49,1.022,1.022,0,0,0-.943.488,3.016,3.016,0,0,0-.305,1.5V125.3a3.139,3.139,0,0,0,.312,1.588,1.033,1.033,0,0,0,.946.513,1.019,1.019,0,0,0,.927-.483,3.025,3.025,0,0,0,.317-1.522Zm26.747,3.28.578-5.672h5.828v1.336h-4.6l-.344,3.1a3.671,3.671,0,0,1,1.9-.492A3.138,3.138,0,0,1,152.9,126.6a4.026,4.026,0,0,1,.914,2.777,3.886,3.886,0,0,1-.949,2.77,3.46,3.46,0,0,1-2.652,1.012,3.6,3.6,0,0,1-2.461-.836,3.337,3.337,0,0,1-1.086-2.312h1.367a2.3,2.3,0,0,0,.7,1.473,2.162,2.162,0,0,0,1.484.5,1.95,1.95,0,0,0,1.582-.687,2.874,2.874,0,0,0,.574-1.9,2.638,2.638,0,0,0-.621-1.832,2.113,2.113,0,0,0-1.652-.691,2.383,2.383,0,0,0-1.484.414l-.383.313Zm9.18,5.7v-7.336h-1.336v-1.117h1.336v-.867a2.878,2.878,0,0,1,.727-2.1,2.745,2.745,0,0,1,2.055-.742,3.793,3.793,0,0,1,.992.133l-.078,1.172a4.151,4.151,0,0,0-.781-.07,1.413,1.413,0,0,0-1.086.41,1.66,1.66,0,0,0-.383,1.176v.891h1.8v1.117h-1.8V133Zm7.072-5h-.848v-5.619l-1.7.624v-.766l2.415-.907h.132Zm6.029-2.228h.921v.688h-.921V128H168.5v-1.54h-3.021v-.5l2.971-4.6h.9Zm-2.912,0H168.5v-3.254l-.1.182ZM6.617,150.617v1.227H6.352a3.805,3.805,0,0,0-2.687,1,4.161,4.161,0,0,0-1.156,2.727,3.085,3.085,0,0,1,2.453-1.031,2.95,2.95,0,0,1,2.371,1.047,4.588,4.588,0,0,1-.07,5.516A3.3,3.3,0,0,1,4.7,162.156,3.247,3.247,0,0,1,2.047,160.9a4.97,4.97,0,0,1-1.016-3.23v-.555a7.488,7.488,0,0,1,1.34-4.8,4.921,4.921,0,0,1,3.988-1.7Zm-1.9,5.125a2.306,2.306,0,0,0-1.367.445,2.32,2.32,0,0,0-.867,1.117v.531a3.731,3.731,0,0,0,.633,2.266,1.9,1.9,0,0,0,1.578.859,1.838,1.838,0,0,0,1.535-.719,3.452,3.452,0,0,0-.008-3.777A1.816,1.816,0,0,0,4.719,155.742ZM15,159.758a1.064,1.064,0,0,0-.441-.91,4.249,4.249,0,0,0-1.539-.559,7.277,7.277,0,0,1-1.742-.562,2.479,2.479,0,0,1-.953-.781,1.869,1.869,0,0,1-.309-1.078,2.193,2.193,0,0,1,.879-1.758,3.432,3.432,0,0,1,2.246-.719,3.532,3.532,0,0,1,2.332.742,2.357,2.357,0,0,1,.895,1.9H14.914a1.3,1.3,0,0,0-.5-1.023,1.888,1.888,0,0,0-1.27-.43,1.976,1.976,0,0,0-1.234.344,1.082,1.082,0,0,0-.445.9.877.877,0,0,0,.414.789,5.1,5.1,0,0,0,1.5.508,7.8,7.8,0,0,1,1.754.578,2.558,2.558,0,0,1,1,.809,1.988,1.988,0,0,1,.324,1.152,2.163,2.163,0,0,1-.906,1.816,3.8,3.8,0,0,1-2.352.684,4.257,4.257,0,0,1-1.8-.359,2.922,2.922,0,0,1-1.223-1,2.42,2.42,0,0,1-.441-1.395h1.445a1.5,1.5,0,0,0,.582,1.152,2.258,2.258,0,0,0,1.434.426,2.331,2.331,0,0,0,1.316-.332A1.02,1.02,0,0,0,15,159.758ZM22.133,157H17.786v-.606l2.3-2.552a5.457,5.457,0,0,0,.7-.941,1.571,1.571,0,0,0,.194-.75,1.191,1.191,0,0,0-.314-.852,1.1,1.1,0,0,0-.838-.333,1.3,1.3,0,0,0-.977.358,1.366,1.366,0,0,0-.349,1h-.843a1.957,1.957,0,0,1,.59-1.481,2.188,2.188,0,0,1,1.579-.565,2.1,2.1,0,0,1,1.463.485,1.656,1.656,0,0,1,.538,1.292,3.8,3.8,0,0,1-1.249,2.333L18.8,156.312h3.331Zm30.725-6.383v1.227h-.266a3.805,3.805,0,0,0-2.687,1,4.161,4.161,0,0,0-1.156,2.727,3.085,3.085,0,0,1,2.453-1.031,2.95,2.95,0,0,1,2.371,1.047,4.588,4.588,0,0,1-.07,5.516,3.3,3.3,0,0,1-2.566,1.055,3.247,3.247,0,0,1-2.648-1.254,4.97,4.97,0,0,1-1.016-3.23v-.555a7.488,7.488,0,0,1,1.34-4.8,4.921,4.921,0,0,1,3.988-1.7Zm-1.9,5.125a2.429,2.429,0,0,0-2.234,1.563v.531a3.731,3.731,0,0,0,.633,2.266,1.9,1.9,0,0,0,1.578.859,1.838,1.838,0,0,0,1.535-.719,3.452,3.452,0,0,0-.008-3.777A1.816,1.816,0,0,0,50.959,155.742Zm12.5,2.125a5.062,5.062,0,0,1-.883,3.109,2.829,2.829,0,0,1-2.391,1.18,3.1,3.1,0,0,1-2.422-.977v4.07H56.319v-11.7h1.32l.07.938a2.977,2.977,0,0,1,2.453-1.094,2.882,2.882,0,0,1,2.41,1.148,5.117,5.117,0,0,1,.887,3.2Zm-1.445-.164a3.735,3.735,0,0,0-.609-2.258,1.963,1.963,0,0,0-1.672-.828,2.125,2.125,0,0,0-1.969,1.164v4.039a2.129,2.129,0,0,0,1.984,1.156,1.954,1.954,0,0,0,1.652-.824A4.077,4.077,0,0,0,62.014,157.7Zm6.047-7.343v.715h-.155a2.22,2.22,0,0,0-1.568.583,2.427,2.427,0,0,0-.674,1.59,1.8,1.8,0,0,1,1.431-.6,1.721,1.721,0,0,1,1.383.611,2.676,2.676,0,0,1-.041,3.217,1.922,1.922,0,0,1-1.5.615,1.894,1.894,0,0,1-1.545-.731,2.9,2.9,0,0,1-.592-1.884v-.324a4.368,4.368,0,0,1,.782-2.8,2.87,2.87,0,0,1,2.326-.991Zm-1.107,2.989a1.417,1.417,0,0,0-1.3.911v.31a2.177,2.177,0,0,0,.369,1.322,1.106,1.106,0,0,0,.921.5,1.072,1.072,0,0,0,.9-.419,2.014,2.014,0,0,0,0-2.2A1.059,1.059,0,0,0,66.954,153.35Zm32.871-2.733v1.227h-.266a3.805,3.805,0,0,0-2.687,1,4.161,4.161,0,0,0-1.156,2.727,3.085,3.085,0,0,1,2.453-1.031,2.95,2.95,0,0,1,2.371,1.047,4.588,4.588,0,0,1-.07,5.516,3.3,3.3,0,0,1-2.566,1.055,3.247,3.247,0,0,1-2.648-1.254,4.97,4.97,0,0,1-1.016-3.23v-.555a7.488,7.488,0,0,1,1.34-4.8,4.921,4.921,0,0,1,3.988-1.7Zm-1.9,5.125a2.429,2.429,0,0,0-2.234,1.563v.531a3.731,3.731,0,0,0,.633,2.266,1.9,1.9,0,0,0,1.578.859,1.838,1.838,0,0,0,1.535-.719,3.452,3.452,0,0,0-.008-3.777A1.816,1.816,0,0,0,97.926,155.742Zm5.008,1.961a4.952,4.952,0,0,1,.922-3.129,3.137,3.137,0,0,1,4.766-.168V150h1.445v12h-1.328l-.07-.906a2.943,2.943,0,0,1-2.414,1.063,2.887,2.887,0,0,1-2.395-1.2,5.008,5.008,0,0,1-.926-3.141Zm1.445.164a3.749,3.749,0,0,0,.594,2.25,1.919,1.919,0,0,0,1.641.813,2.108,2.108,0,0,0,2.008-1.234v-3.883a2.125,2.125,0,0,0-1.992-1.2,1.929,1.929,0,0,0-1.656.82A4.128,4.128,0,0,0,104.38,157.867ZM114.538,157h-.848v-5.619l-1.7.624v-.766l2.415-.907h.132Zm6.63-2.83a3.856,3.856,0,0,1-.506,2.2,2.1,2.1,0,0,1-3.153.016,3.66,3.66,0,0,1-.529-2.1v-1.126a3.77,3.77,0,0,1,.506-2.174,2.14,2.14,0,0,1,3.163-.025,3.638,3.638,0,0,1,.52,2.117Zm-.843-1.153a3.089,3.089,0,0,0-.3-1.561,1.035,1.035,0,0,0-.952-.49,1.022,1.022,0,0,0-.943.488,3.016,3.016,0,0,0-.305,1.5V154.3a3.139,3.139,0,0,0,.312,1.588,1.033,1.033,0,0,0,.946.513,1.019,1.019,0,0,0,.927-.483,3.025,3.025,0,0,0,.317-1.522Zm31.754-2.4v1.227h-.266a3.805,3.805,0,0,0-2.687,1,4.161,4.161,0,0,0-1.156,2.727,3.085,3.085,0,0,1,2.453-1.031,2.95,2.95,0,0,1,2.371,1.047,4.588,4.588,0,0,1-.07,5.516,3.3,3.3,0,0,1-2.566,1.055,3.247,3.247,0,0,1-2.648-1.254,4.97,4.97,0,0,1-1.016-3.23v-.555a7.488,7.488,0,0,1,1.34-4.8,4.921,4.921,0,0,1,3.988-1.7Zm-1.9,5.125a2.429,2.429,0,0,0-2.234,1.563v.531a3.731,3.731,0,0,0,.633,2.266,1.9,1.9,0,0,0,1.578.859,1.838,1.838,0,0,0,1.535-.719,3.452,3.452,0,0,0-.008-3.777A1.816,1.816,0,0,0,150.181,155.742Zm6.07,6.258v-7.336h-1.336v-1.117h1.336v-.867a2.878,2.878,0,0,1,.727-2.1,2.745,2.745,0,0,1,2.055-.742,3.793,3.793,0,0,1,.992.133l-.078,1.172a4.151,4.151,0,0,0-.781-.07,1.413,1.413,0,0,0-1.086.41,1.66,1.66,0,0,0-.383,1.176v.891h1.8v1.117h-1.8V162Zm7.072-5h-.848v-5.619l-1.7.624v-.766l2.415-.907h.132Zm6.029-2.228h.921v.688h-.921V157H168.5v-1.54h-3.021v-.5l2.971-4.6h.9Zm-2.912,0H168.5v-3.254l-.1.182ZM8.289,180.438,3.578,191H2.063l4.7-10.187H.6v-1.187H8.289ZM15,188.758a1.064,1.064,0,0,0-.441-.91,4.249,4.249,0,0,0-1.539-.559,7.277,7.277,0,0,1-1.742-.562,2.479,2.479,0,0,1-.953-.781,1.869,1.869,0,0,1-.309-1.078,2.193,2.193,0,0,1,.879-1.758,3.432,3.432,0,0,1,2.246-.719,3.532,3.532,0,0,1,2.332.742,2.357,2.357,0,0,1,.895,1.9H14.914a1.3,1.3,0,0,0-.5-1.023,1.888,1.888,0,0,0-1.27-.43,1.976,1.976,0,0,0-1.234.344,1.082,1.082,0,0,0-.445.9.877.877,0,0,0,.414.789,5.1,5.1,0,0,0,1.5.508,7.8,7.8,0,0,1,1.754.578,2.558,2.558,0,0,1,1,.809,1.988,1.988,0,0,1,.324,1.152,2.163,2.163,0,0,1-.906,1.816,3.8,3.8,0,0,1-2.352.684,4.257,4.257,0,0,1-1.8-.359,2.922,2.922,0,0,1-1.223-1,2.42,2.42,0,0,1-.441-1.395h1.445a1.5,1.5,0,0,0,.582,1.152,2.258,2.258,0,0,0,1.434.426,2.331,2.331,0,0,0,1.316-.332A1.02,1.02,0,0,0,15,188.758ZM22.133,186H17.786v-.606l2.3-2.552a5.457,5.457,0,0,0,.7-.941,1.571,1.571,0,0,0,.194-.75,1.191,1.191,0,0,0-.314-.852,1.1,1.1,0,0,0-.838-.333,1.3,1.3,0,0,0-.977.358,1.366,1.366,0,0,0-.349,1h-.843a1.957,1.957,0,0,1,.59-1.481,2.188,2.188,0,0,1,1.579-.565,2.1,2.1,0,0,1,1.463.485,1.656,1.656,0,0,1,.538,1.292,3.8,3.8,0,0,1-1.249,2.333L18.8,185.312h3.331Zm32.4-5.562L49.819,191H48.3L53,180.813H46.842v-1.187H54.53Zm8.93,6.43a5.062,5.062,0,0,1-.883,3.109,2.829,2.829,0,0,1-2.391,1.18,3.1,3.1,0,0,1-2.422-.977v4.07H56.319v-11.7h1.32l.07.938a2.977,2.977,0,0,1,2.453-1.094,2.882,2.882,0,0,1,2.41,1.148,5.117,5.117,0,0,1,.887,3.2Zm-1.445-.164a3.735,3.735,0,0,0-.609-2.258,1.963,1.963,0,0,0-1.672-.828,2.125,2.125,0,0,0-1.969,1.164v4.039a2.129,2.129,0,0,0,1.984,1.156,1.954,1.954,0,0,0,1.652-.824A4.077,4.077,0,0,0,62.014,186.7Zm6.047-7.343v.715h-.155a2.22,2.22,0,0,0-1.568.583,2.427,2.427,0,0,0-.674,1.59,1.8,1.8,0,0,1,1.431-.6,1.721,1.721,0,0,1,1.383.611,2.676,2.676,0,0,1-.041,3.217,1.922,1.922,0,0,1-1.5.615,1.894,1.894,0,0,1-1.545-.731,2.9,2.9,0,0,1-.592-1.884v-.324a4.368,4.368,0,0,1,.782-2.8,2.87,2.87,0,0,1,2.326-.991Zm-1.107,2.989a1.417,1.417,0,0,0-1.3.911v.31a2.177,2.177,0,0,0,.369,1.322,1.106,1.106,0,0,0,.921.5,1.072,1.072,0,0,0,.9-.419,2.014,2.014,0,0,0,0-2.2A1.059,1.059,0,0,0,66.954,182.35Zm34.543-1.912L96.786,191H95.27l4.7-10.187H93.809v-1.187H101.5Zm1.438,6.266a4.952,4.952,0,0,1,.922-3.129,3.137,3.137,0,0,1,4.766-.168V179h1.445v12h-1.328l-.07-.906a2.943,2.943,0,0,1-2.414,1.063,2.887,2.887,0,0,1-2.395-1.2,5.008,5.008,0,0,1-.926-3.141Zm1.445.164a3.749,3.749,0,0,0,.594,2.25,1.919,1.919,0,0,0,1.641.813,2.108,2.108,0,0,0,2.008-1.234v-3.883a2.125,2.125,0,0,0-1.992-1.2,1.929,1.929,0,0,0-1.656.82A4.128,4.128,0,0,0,104.38,186.867ZM114.538,186h-.848v-5.619l-1.7.624v-.766l2.415-.907h.132Zm6.63-2.83a3.856,3.856,0,0,1-.506,2.2,2.1,2.1,0,0,1-3.153.016,3.66,3.66,0,0,1-.529-2.1v-1.126a3.77,3.77,0,0,1,.506-2.174,2.14,2.14,0,0,1,3.163-.025,3.638,3.638,0,0,1,.52,2.117Zm-.843-1.153a3.089,3.089,0,0,0-.3-1.561,1.035,1.035,0,0,0-.952-.49,1.022,1.022,0,0,0-.943.488,3.016,3.016,0,0,0-.305,1.5V183.3a3.139,3.139,0,0,0,.312,1.588,1.033,1.033,0,0,0,.946.513,1.019,1.019,0,0,0,.927-.483,3.025,3.025,0,0,0,.317-1.522Zm33.426-1.58L149.04,191h-1.516l4.7-10.187h-6.156v-1.187h7.688Zm2.5,10.563v-7.336h-1.336v-1.117h1.336v-.867a2.878,2.878,0,0,1,.727-2.1,2.745,2.745,0,0,1,2.055-.742,3.793,3.793,0,0,1,.992.133l-.078,1.172a4.151,4.151,0,0,0-.781-.07,1.413,1.413,0,0,0-1.086.41,1.66,1.66,0,0,0-.383,1.176v.891h1.8v1.117h-1.8V191Zm7.072-5h-.848v-5.619l-1.7.624v-.766l2.415-.907h.132Zm6.029-2.228h.921v.688h-.921V186H168.5v-1.54h-3.021v-.5l2.971-4.6h.9Zm-2.912,0H168.5v-3.254l-.1.182Z" transform="translate(1016 6845.942)" fill="#12263f"/>
    <path id="Trazado_899907" data-name="Trazado 899907" d="M16,0,0,10" transform="translate(1040.551 6837.619)" fill="none" stroke="#0ac675" stroke-linecap="round" stroke-width="2"/>
    <path id="Trazado_899908" data-name="Trazado 899908" d="M16,0,0,10" transform="translate(1090 6864.995)" fill="none" stroke="#0ac675" stroke-linecap="round" stroke-width="2"/>
    <path id="Trazado_899909" data-name="Trazado 899909" d="M16,0,0,10" transform="translate(1139 6893.995)" fill="none" stroke="#0ac675" stroke-linecap="round" stroke-width="2"/>
    <path id="Trazado_899910" data-name="Trazado 899910" d="M16,0,0,10" transform="translate(1141 6919.362)" fill="none" stroke="#0ac675" stroke-linecap="round" stroke-width="2"/>
    <path id="Trazado_899911" data-name="Trazado 899911" d="M16,0,0,10" transform="translate(1195 6919.362)" fill="none" stroke="#0ac675" stroke-linecap="round" stroke-width="2"/>
    <path id="Trazado_899912" data-name="Trazado 899912" d="M16,0,0,10" transform="translate(1195 6950.619)" fill="none" stroke="#0ac675" stroke-linecap="round" stroke-width="2"/>
    <path id="Trazado_899913" data-name="Trazado 899913" d="M16,0,0,10" transform="translate(1195 6981.876)" fill="none" stroke="#0ac675" stroke-linecap="round" stroke-width="2"/>
    <path id="Trazado_899914" data-name="Trazado 899914" d="M16,0,0,10" transform="translate(1195 7005.619)" fill="none" stroke="#0ac675" stroke-linecap="round" stroke-width="2"/>
    <path id="Trazado_899915" data-name="Trazado 899915" d="M16,0,0,10" transform="translate(1141 6948.619)" fill="none" stroke="#0ac675" stroke-linecap="round" stroke-width="2"/>
    <path id="Trazado_899916" data-name="Trazado 899916" d="M16,0,0,10" transform="translate(1141 6980.244)" fill="none" stroke="#0ac675" stroke-linecap="round" stroke-width="2"/>
    <path id="Trazado_899917" data-name="Trazado 899917" d="M16,0,0,10" transform="translate(1141 7009.5)" fill="none" stroke="#0ac675" stroke-linecap="round" stroke-width="2"/>
    <path id="Trazado_899918" data-name="Trazado 899918" d="M16,0,0,10" transform="translate(1090 6894.619)" fill="none" stroke="#0ac675" stroke-linecap="round" stroke-width="2"/>
    <path id="Trazado_899919" data-name="Trazado 899919" d="M16,0,0,10" transform="translate(1090 6922.619)" fill="none" stroke="#0ac675" stroke-linecap="round" stroke-width="2"/>
    <path id="Trazado_899920" data-name="Trazado 899920" d="M16,0,0,10" transform="translate(1090 6980.244)" fill="none" stroke="#0ac675" stroke-linecap="round" stroke-width="2"/>
    <path id="Trazado_899921" data-name="Trazado 899921" d="M16,0,0,10" transform="translate(1090 7009.868)" fill="none" stroke="#0ac675" stroke-linecap="round" stroke-width="2"/>
    <path id="Trazado_899922" data-name="Trazado 899922" d="M16,0,0,10" transform="translate(1090 7037.868)" fill="none" stroke="#0ac675" stroke-linecap="round" stroke-width="2"/>
    <path id="Trazado_899923" data-name="Trazado 899923" d="M16,0,0,10" transform="translate(1139 7037.868)" fill="none" stroke="#0ac675" stroke-linecap="round" stroke-width="2"/>
    <path id="Trazado_899924" data-name="Trazado 899924" d="M16,0,0,10" transform="translate(1042.051 7037.868)" fill="none" stroke="#0ac675" stroke-linecap="round" stroke-width="2"/>
    <path id="Trazado_899925" data-name="Trazado 899925" d="M16,0,0,10" transform="translate(1090 6950.619)" fill="none" stroke="#0ac675" stroke-linecap="round" stroke-width="2"/>
    <path id="Trazado_899926" data-name="Trazado 899926" d="M16,0,0,10" transform="translate(1039.551 6866.619)" fill="none" stroke="#0ac675" stroke-linecap="round" stroke-width="2"/>
    <path id="Trazado_899927" data-name="Trazado 899927" d="M16,0,0,10" transform="translate(1039.551 6894.619)" fill="none" stroke="#0ac675" stroke-linecap="round" stroke-width="2"/>
    <path id="Trazado_899928" data-name="Trazado 899928" d="M10,0,0,7" transform="translate(998.551 6865.619)" fill="none" stroke="#0ac675" stroke-linecap="round" stroke-width="2"/>
    <path id="Trazado_899929" data-name="Trazado 899929" d="M10,0,0,7" transform="translate(997.551 6894.619)" fill="none" stroke="#0ac675" stroke-linecap="round" stroke-width="2"/>
    <path id="Trazado_899930" data-name="Trazado 899930" d="M10,0,0,7" transform="translate(997.551 6922.619)" fill="none" stroke="#0ac675" stroke-linecap="round" stroke-width="2"/>
    <path id="Trazado_899361" data-name="Trazado 899361" d="M5.547,0l5.547,9.763L5.547,7.655,0,9.763Z" transform="translate(997.581 6879.73) rotate(-127)" fill="#0ac675"/>
    <path id="Trazado_899362" data-name="Trazado 899362" d="M5.547,0l5.547,9.763L5.547,7.655,0,9.763Z" transform="translate(996.581 6908.73) rotate(-127)" fill="#0ac675"/>
    <path id="Trazado_899363" data-name="Trazado 899363" d="M5.547,0l5.547,9.763L5.547,7.655,0,9.763Z" transform="translate(996.581 6936.73) rotate(-127)" fill="#0ac675"/>
    <g id="Grupo_1108436" data-name="Grupo 1108436" transform="translate(605 -251.881)">
      <line id="Línea_624" data-name="Línea 624" x1="16" y2="10" transform="translate(434.551 7176.5)" fill="none" stroke="#0ac675" stroke-linecap="round" stroke-width="2"/>
      <line id="Línea_623" data-name="Línea 623" x1="10" y2="7" transform="translate(392.551 7204.5)" fill="none" stroke="#0ac675" stroke-linecap="round" stroke-width="2"/>
      <path id="Trazado_899364" data-name="Trazado 899364" d="M5.547,0l5.547,9.763L5.547,7.655,0,9.763Z" transform="translate(391.581 7218.611) rotate(-127)" fill="#0ac675"/>
    </g>
    <g id="Grupo_1108437" data-name="Grupo 1108437" transform="translate(605 -222.881)">
      <line id="Línea_624-2" data-name="Línea 624" x1="16" y2="10" transform="translate(434.551 7176.5)" fill="none" stroke="#0ac675" stroke-linecap="round" stroke-width="2"/>
      <line id="Línea_623-2" data-name="Línea 623" x1="10" y2="7" transform="translate(392.551 7204.5)" fill="none" stroke="#0ac675" stroke-linecap="round" stroke-width="2"/>
      <path id="Trazado_899364-2" data-name="Trazado 899364" d="M5.547,0l5.547,9.763L5.547,7.655,0,9.763Z" transform="translate(391.581 7218.611) rotate(-127)" fill="#0ac675"/>
    </g>
    <g id="Grupo_1108438" data-name="Grupo 1108438" transform="translate(605 -194.881)">
      <line id="Línea_624-3" data-name="Línea 624" x1="16" y2="10" transform="translate(434.551 7176.5)" fill="none" stroke="#0ac675" stroke-linecap="round" stroke-width="2"/>
      <line id="Línea_623-3" data-name="Línea 623" x1="10" y2="7" transform="translate(392.551 7204.5)" fill="none" stroke="#0ac675" stroke-linecap="round" stroke-width="2"/>
      <path id="Trazado_899364-3" data-name="Trazado 899364" d="M5.547,0l5.547,9.763L5.547,7.655,0,9.763Z" transform="translate(391.581 7218.611) rotate(-127)" fill="#0ac675"/>
    </g>
    <g id="Grupo_1108439" data-name="Grupo 1108439" transform="translate(605 -165.881)">
      <line id="Línea_624-4" data-name="Línea 624" x1="16" y2="10" transform="translate(434.551 7176.5)" fill="none" stroke="#0ac675" stroke-linecap="round" stroke-width="2"/>
      <line id="Línea_623-4" data-name="Línea 623" x1="10" y2="7" transform="translate(392.551 7204.5)" fill="none" stroke="#0ac675" stroke-linecap="round" stroke-width="2"/>
      <path id="Trazado_899364-4" data-name="Trazado 899364" d="M5.547,0l5.547,9.763L5.547,7.655,0,9.763Z" transform="translate(391.581 7218.611) rotate(-127)" fill="#0ac675"/>
    </g>
  </g>
</svg>
