<svg xmlns="http://www.w3.org/2000/svg" xmlns:xlink="http://www.w3.org/1999/xlink" width="57" height="57" viewBox="0 0 57 57">
  <defs>
    <clipPath id="clip-path">
      <rect id="Rectángulo_405909" data-name="Rectángulo 405909" width="57" height="57" transform="translate(772.051 6523.956)" fill="#0ac675" stroke="#707070" stroke-width="1"/>
    </clipPath>
  </defs>
  <g id="Enmascarar_grupo_1098738" data-name="Enmascarar grupo 1098738" transform="translate(-772.051 -6523.956)" clip-path="url(#clip-path)">
    <g id="atomo_2_" data-name="atomo (2)" transform="translate(774.448 6523.956)">
      <path id="Trazado_899376" data-name="Trazado 899376" d="M25.4,21.367a3.99,3.99,0,0,0-3.91,3.223,3.983,3.983,0,0,0,0,7.819,3.983,3.983,0,0,0,7.82,0,3.983,3.983,0,0,0,0-7.82,3.99,3.99,0,0,0-3.91-3.223Zm0,1.67a2.314,2.314,0,1,1-2.314,2.314A2.317,2.317,0,0,1,25.4,23.037ZM19.936,28.5a2.32,2.32,0,0,1,1.595-2.2A3.993,3.993,0,0,0,22.957,28.5a3.964,3.964,0,0,0-1.428,2.2,2.326,2.326,0,0,1-1.593-2.2ZM25.4,33.963a2.314,2.314,0,0,1-.72-4.513A4,4,0,0,0,27.6,32.368a2.325,2.325,0,0,1-2.2,1.6ZM30.861,28.5a2.313,2.313,0,0,1-4.512.719A4,4,0,0,0,29.267,26.3a2.322,2.322,0,0,1,1.595,2.2Zm0,0" fill="#0ac675"/>
      <path id="Trazado_899377" data-name="Trazado 899377" d="M48.221,26.186a3.982,3.982,0,0,0,2.331-7.211,6.249,6.249,0,0,0-.472-4.725c-1.208-2.091-3.823-3.222-7.564-3.271h-.011a.835.835,0,0,0-.01,1.67c2.175.028,5.006.474,6.139,2.436a4.49,4.49,0,0,1,.36,3.209A3.984,3.984,0,0,0,44.237,22.2a3.97,3.97,0,0,0,1.122,2.768q-.957,1.178-2.1,2.357a57.931,57.931,0,0,0-6.545-5.356,57.5,57.5,0,0,0-1.365-8.352,35.535,35.535,0,0,1,3.656-.725.835.835,0,0,0-.233-1.653,37.1,37.1,0,0,0-3.85.764c-.341-1.2-.721-2.334-1.139-3.4a3.982,3.982,0,0,0-4.114-6.7A6.21,6.21,0,0,0,25.4,0c-3.247,0-6.23,3.067-8.4,8.635-.412,1.058-.787,2.187-1.124,3.372a36.112,36.112,0,0,0-4.3-.828c-5.46-.687-9.315.4-10.855,3.071-1.279,2.216-.84,5.238,1.269,8.738A31.2,31.2,0,0,0,6.351,28.5C5.494,29.385,4.7,30.273,4,31.159.257,35.822-.907,39.938.717,42.75,1.96,44.9,4.683,46.024,8.543,46.023a25.529,25.529,0,0,0,3.851-.317c1.12-.172,2.282-.411,3.475-.711,2.11,7.472,5.591,12,9.529,12,3.247,0,6.23-3.067,8.4-8.635.413-1.058.787-2.187,1.124-3.372,1.036.261,2.048.476,3.03.641a.835.835,0,0,0,.276-1.647c-.932-.156-1.894-.361-2.879-.608a57.773,57.773,0,0,0,1.365-8.344,57.555,57.555,0,0,0,6.547-5.356A35.14,35.14,0,0,1,45.78,32.56c3.009,3.874,4.05,7.284,2.854,9.355-1.3,2.25-4.9,2.488-6.923,2.43h-.025a.835.835,0,0,0-.023,1.67q.305.008.6.009c3.881,0,6.577-1.126,7.816-3.273,1.575-2.728.517-6.711-2.981-11.215A36.762,36.762,0,0,0,44.446,28.5q1.256-1.3,2.306-2.6a3.947,3.947,0,0,0,1.469.282Zm0-6.3A2.314,2.314,0,1,1,45.907,22.2,2.317,2.317,0,0,1,48.221,19.888ZM34.9,20.727q-1.237-.818-2.534-1.6a.835.835,0,0,0-.861,1.431q1.87,1.125,3.609,2.328c.151,1.835.23,3.716.23,5.614s-.077,3.788-.224,5.614c-1.5,1.038-3.092,2.042-4.748,3s-3.316,1.827-4.97,2.611c-1.657-.785-3.322-1.658-4.973-2.611-.7-.407-1.406-.829-2.091-1.257a3.981,3.981,0,0,0-2.851-5.324c-.019-.672-.029-1.353-.029-2.03,0-1.909.076-3.786.224-5.612,1.506-1.04,3.095-2.045,4.748-3s3.317-1.828,4.968-2.611q1.488.7,2.982,1.5a.835.835,0,1,0,.788-1.472q-.9-.481-1.8-.928a54.261,54.261,0,0,1,6.361-2.322A55.745,55.745,0,0,1,34.9,20.727Zm-21.085,9.79a3.975,3.975,0,0,0-1.781.876Q10.246,29.954,8.722,28.5a54.529,54.529,0,0,1,5.195-4.35c-.087,1.427-.131,2.88-.131,4.351,0,.673.01,1.349.029,2.017ZM14.62,32.1a2.314,2.314,0,1,1-2.314,2.314A2.317,2.317,0,0,1,14.62,32.1Zm2.8,5.146c.712.445,1.441.884,2.173,1.307,1.272.735,2.554,1.422,3.834,2.062a54.549,54.549,0,0,1-6.361,2.322c-.369-1.512-.684-3.131-.934-4.837a4,4,0,0,0,1.288-.854ZM15.889,20.732a54.465,54.465,0,0,1,1.17-6.672,54.926,54.926,0,0,1,6.362,2.322q-1.915.957-3.83,2.061t-3.7,2.289ZM33.5,5.584A2.314,2.314,0,1,1,31.188,3.27,2.317,2.317,0,0,1,33.5,5.584ZM18.555,9.241C20.43,4.429,22.924,1.67,25.4,1.67a4.422,4.422,0,0,1,2.865,1.212,3.981,3.981,0,0,0,4.042,6.525c.364.951.7,1.966,1,3.036a57.536,57.536,0,0,0-7.912,2.992,58.113,58.113,0,0,0-7.909-2.989c.321-1.127.678-2.2,1.07-3.2ZM2.163,15.085c1.182-2.048,4.45-2.846,9.2-2.249a34.439,34.439,0,0,1,4.085.785,57.8,57.8,0,0,0-1.365,8.347,57.8,57.8,0,0,0-6.548,5.357,29.49,29.49,0,0,1-4.12-5.2C1.171,18.4,1.5,16.241,2.163,15.085Zm9.978,28.971c-5.1.782-8.741,0-9.978-2.141S2.068,36.232,5.3,32.2c.674-.841,1.424-1.686,2.239-2.527q1.6,1.53,3.481,3.044A3.981,3.981,0,0,0,14.487,38.4c.259,1.763.581,3.428.959,4.982-1.135.285-2.24.511-3.3.674Zm20.1,3.7c-1.874,4.812-4.369,7.571-6.843,7.571-3.081,0-6.034-4.194-7.907-10.774A57.763,57.763,0,0,0,25.4,41.565a57.924,57.924,0,0,0,7.912,2.99c-.321,1.127-.678,2.2-1.07,3.2Zm1.5-4.818a54.744,54.744,0,0,1-6.365-2.322q1.918-.958,3.833-2.061t3.7-2.288A54.436,54.436,0,0,1,33.738,42.941Zm3.145-18.789a54.665,54.665,0,0,1,5.194,4.35,54.229,54.229,0,0,1-5.2,4.35c.087-1.428.131-2.882.131-4.353s-.044-2.924-.13-4.348Zm0,0" fill="#0ac675"/>
    </g>
  </g>
</svg>
