<svg xmlns="http://www.w3.org/2000/svg" xmlns:xlink="http://www.w3.org/1999/xlink" width="610" height="468" viewBox="0 0 610 468">
  <defs>
    <clipPath id="clip-path">
      <rect id="Rect치ngulo_405927" data-name="Rect치ngulo 405927" width="520.463" height="276.467" fill="none"/>
    </clipPath>
    <clipPath id="clip-path-2">
      <rect id="Rect치ngulo_405926" data-name="Rect치ngulo 405926" width="57.743" height="201.844" fill="none"/>
    </clipPath>
  </defs>
  <g id="Grupo_1108955" data-name="Grupo 1108955" transform="translate(-810.051 -8595)">
    <path id="Trazado_899931" data-name="Trazado 899931" d="M0,0H610V468H0Z" transform="translate(810.051 8595)" fill="#e6f9e6"/>
    <g id="Grupo_1108481" data-name="Grupo 1108481" transform="translate(842.422 8734.591)" clip-path="url(#clip-path)">
      <g id="Grupo_1108480" data-name="Grupo 1108480" transform="translate(0.387 0.387)" style="isolation: isolate">
        <g id="Grupo_1108479" data-name="Grupo 1108479">
          <g id="Grupo_1108478" data-name="Grupo 1108478" clip-path="url(#clip-path-2)">
            <path id="Trazado_899412" data-name="Trazado 899412" d="M29.372.5H.5V202.344H58.243V29.5H29.372Z" transform="translate(-0.5 -0.5)" fill="#e6137d"/>
          </g>
        </g>
      </g>
    </g>
    <path id="Trazado_899413" data-name="Trazado 899413" d="M448.5,37.5V210.73H563.986V182.116H621.73V37.721H563.986V37.5Z" transform="translate(740.769 8726.092)" fill="#f7931e"/>
    <path id="Trazado_899414" data-name="Trazado 899414" d="M635.167.5V29.114l28.871.221V.5Z" transform="translate(698.46 8734.478)" fill="#e6137d"/>
    <path id="Trazado_899932" data-name="Trazado 899932" d="M0,0H288.716V115.339H0Z" transform="translate(900.552 8821.481)" fill="#8cc63f"/>
    <path id="Trazado_899415" data-name="Trazado 899415" d="M104.038,186.984,75.167,215.763V186.929Z" transform="translate(825.385 8692.223)" fill="#29abe2"/>
    <path id="Trazado_899416" data-name="Trazado 899416" d="M104.038,224.27,75.167,253.049V224.215Z" transform="translate(825.385 8683.772)" fill="#29abe2"/>
    <path id="Trazado_899933" data-name="Trazado 899933" d="M0,0H404.2V57.744H0Z" transform="translate(900.81 8952.928)" fill="#29abe2"/>
    <path id="Trazado_899934" data-name="Trazado 899934" d="M0,0H28.871V57.744H0Z" transform="translate(1305.013 8952.928)" fill="#8cc63f"/>
    <path id="Trazado_899417" data-name="Trazado 899417" d="M0,0V202.617H462.333v-.773H.773V.774H29.387V0Z" transform="translate(842.422 8734.591)" fill="#fff"/>
    <path id="Trazado_899418" data-name="Trazado 899418" d="M635.5,0V.774h28.227V173.611h.773V0Z" transform="translate(698.385 8734.591)" fill="#fff"/>
    <path id="Trazado_899935" data-name="Trazado 899935" d="M0,0H519.689V.773H0Z" transform="translate(842.809 8907.6)" fill="#fff"/>
    <path id="Trazado_899936" data-name="Trazado 899936" d="M0,0H519.689V.773H0Z" transform="translate(842.809 8878.765)" fill="#fff"/>
    <path id="Trazado_899937" data-name="Trazado 899937" d="M0,0H519.689V.773H0Z" transform="translate(842.809 8849.931)" fill="#fff"/>
    <path id="Trazado_899938" data-name="Trazado 899938" d="M0,0H519.689V.773H0Z" transform="translate(842.809 8821.095)" fill="#fff"/>
    <path id="Trazado_899939" data-name="Trazado 899939" d="M0,0H173.23V.773H0Z" transform="translate(1189.269 8792.261)" fill="#fff"/>
    <path id="Trazado_899940" data-name="Trazado 899940" d="M0,0H173.23V.773H0Z" transform="translate(1189.269 8763.426)" fill="#fff"/>
    <path id="Trazado_899941" data-name="Trazado 899941" d="M0,0H58V.773H0Z" transform="translate(842.809 8763.592)" fill="#fff"/>
    <path id="Trazado_899942" data-name="Trazado 899942" d="M0,0H58V.773H0Z" transform="translate(842.809 8792.206)" fill="#fff"/>
    <path id="Trazado_899943" data-name="Trazado 899943" d="M0,0H.773V173.23H0Z" transform="translate(1333.24 8734.978)" fill="#fff"/>
    <path id="Trazado_899944" data-name="Trazado 899944" d="M0,0H.773V173.229H0Z" transform="translate(1304.369 8763.592)" fill="#fff"/>
    <path id="Trazado_899945" data-name="Trazado 899945" d="M0,0H.773V173.229H0Z" transform="translate(1275.497 8763.592)" fill="#fff"/>
    <path id="Trazado_899946" data-name="Trazado 899946" d="M0,0H.773V173.229H0Z" transform="translate(1246.625 8763.592)" fill="#fff"/>
    <path id="Trazado_899947" data-name="Trazado 899947" d="M0,0H.774V173.229H0Z" transform="translate(1217.753 8763.592)" fill="#fff"/>
    <path id="Trazado_899948" data-name="Trazado 899948" d="M0,0H.773V173.229H0Z" transform="translate(1188.882 8763.592)" fill="#fff"/>
    <path id="Trazado_899949" data-name="Trazado 899949" d="M0,0H.773V115.229H0Z" transform="translate(1160.01 8821.593)" fill="#fff"/>
    <path id="Trazado_899950" data-name="Trazado 899950" d="M0,0H.773V115.229H0Z" transform="translate(1131.138 8821.593)" fill="#fff"/>
    <path id="Trazado_899951" data-name="Trazado 899951" d="M0,0H.773V115.229H0Z" transform="translate(1102.267 8821.593)" fill="#fff"/>
    <path id="Trazado_899952" data-name="Trazado 899952" d="M0,0H.773V115.229H0Z" transform="translate(1073.396 8821.593)" fill="#fff"/>
    <path id="Trazado_899953" data-name="Trazado 899953" d="M0,0H.773V115.229H0Z" transform="translate(1044.524 8821.593)" fill="#fff"/>
    <path id="Trazado_899954" data-name="Trazado 899954" d="M0,0H.773V115.229H0Z" transform="translate(1015.652 8821.593)" fill="#fff"/>
    <path id="Trazado_899955" data-name="Trazado 899955" d="M0,0H.773V115.229H0Z" transform="translate(986.78 8821.593)" fill="#fff"/>
    <path id="Trazado_899956" data-name="Trazado 899956" d="M0,0H.773V115.229H0Z" transform="translate(957.909 8821.593)" fill="#fff"/>
    <path id="Trazado_899957" data-name="Trazado 899957" d="M0,0H.774V115.229H0Z" transform="translate(929.037 8821.593)" fill="#fff"/>
    <path id="Trazado_899958" data-name="Trazado 899958" d="M0,0H.773V173.229H0Z" transform="translate(900.166 8763.592)" fill="#fff"/>
    <path id="Trazado_899959" data-name="Trazado 899959" d="M0,0H.773V201.844H0Z" transform="translate(871.294 8734.978)" fill="#fff"/>
    <path id="Trazado_899419" data-name="Trazado 899419" d="M75.773,282.6h432.3v56.97H75.773ZM75,340.344H508.849V281.827H75Z" transform="translate(825.423 8670.714)" fill="#fff"/>
    <path id="Trazado_899960" data-name="Trazado 899960" d="M0,0H433.075V.773H0Z" transform="translate(900.81 8981.412)" fill="#fff"/>
    <path id="Trazado_899961" data-name="Trazado 899961" d="M0,0H.773V57.744H0Z" transform="translate(1304.627 8952.928)" fill="#fff"/>
    <path id="Trazado_899962" data-name="Trazado 899962" d="M0,0H.773V57.744H0Z" transform="translate(1275.755 8952.928)" fill="#fff"/>
    <path id="Trazado_899963" data-name="Trazado 899963" d="M0,0H.773V57.744H0Z" transform="translate(1246.883 8952.928)" fill="#fff"/>
    <path id="Trazado_899964" data-name="Trazado 899964" d="M0,0H.774V57.744H0Z" transform="translate(1218.011 8952.928)" fill="#fff"/>
    <path id="Trazado_899965" data-name="Trazado 899965" d="M0,0H.773V57.744H0Z" transform="translate(1189.14 8952.928)" fill="#fff"/>
    <path id="Trazado_899966" data-name="Trazado 899966" d="M0,0H.773V57.744H0Z" transform="translate(1160.268 8952.928)" fill="#fff"/>
    <path id="Trazado_899967" data-name="Trazado 899967" d="M0,0H.773V57.744H0Z" transform="translate(1131.397 8952.928)" fill="#fff"/>
    <path id="Trazado_899968" data-name="Trazado 899968" d="M0,0H.773V57.744H0Z" transform="translate(1102.525 8952.928)" fill="#fff"/>
    <path id="Trazado_899969" data-name="Trazado 899969" d="M0,0H.773V57.744H0Z" transform="translate(1073.653 8952.928)" fill="#fff"/>
    <path id="Trazado_899970" data-name="Trazado 899970" d="M0,0H.773V57.744H0Z" transform="translate(1044.782 8952.928)" fill="#fff"/>
    <path id="Trazado_899971" data-name="Trazado 899971" d="M0,0H.774V57.744H0Z" transform="translate(1015.91 8952.928)" fill="#fff"/>
    <path id="Trazado_899972" data-name="Trazado 899972" d="M0,0H.773V57.744H0Z" transform="translate(987.038 8952.928)" fill="#fff"/>
    <path id="Trazado_899973" data-name="Trazado 899973" d="M0,0H.773V57.744H0Z" transform="translate(958.166 8952.928)" fill="#fff"/>
    <path id="Trazado_899974" data-name="Trazado 899974" d="M0,0H.773V57.744H0Z" transform="translate(929.295 8952.928)" fill="#fff"/>
    <g id="Trazado_899975" data-name="Trazado 899975" transform="translate(853.74 8961.083)" fill="#29abe2">
      <path d="M 20.29475402832031 39.08950424194336 C 15.27449417114258 39.08950424194336 10.55472373962402 37.13450241088867 7.00486421585083 33.58464431762695 C 3.455003976821899 30.0347843170166 1.500004053115845 25.31501388549805 1.500004053115845 20.29475402832031 C 1.500004053115845 15.27449417114258 3.455003976821899 10.55472373962402 7.00486421585083 7.00486421585083 C 10.55472373962402 3.455003976821899 15.27449417114258 1.500004053115845 20.29475402832031 1.500004053115845 C 25.31501388549805 1.500004053115845 30.0347843170166 3.455003976821899 33.58464431762695 7.00486421585083 C 37.13450241088867 10.55472373962402 39.08950424194336 15.27449417114258 39.08950424194336 20.29475402832031 C 39.08950424194336 25.31501388549805 37.13450241088867 30.0347843170166 33.58464431762695 33.58464431762695 C 30.0347843170166 37.13450241088867 25.31501388549805 39.08950424194336 20.29475402832031 39.08950424194336 Z" stroke="none"/>
      <path d="M 20.29475402832031 3.000003814697266 C 15.67516326904297 3.000003814697266 11.33206367492676 4.798973083496094 8.065525054931641 8.065525054931641 C 4.798973083496094 11.33206367492676 3.000003814697266 15.67516326904297 3.000003814697266 20.29475402832031 C 3.000003814697266 24.91434478759766 4.798973083496094 29.25744438171387 8.065525054931641 32.52398300170898 C 11.33206367492676 35.79053497314453 15.67516326904297 37.58950424194336 20.29475402832031 37.58950424194336 C 24.91434478759766 37.58950424194336 29.25744438171387 35.79053497314453 32.52398300170898 32.52398300170898 C 35.79053497314453 29.25744438171387 37.58950424194336 24.91434478759766 37.58950424194336 20.29475402832031 C 37.58950424194336 15.67516326904297 35.79053497314453 11.33206367492676 32.52398300170898 8.065525054931641 C 29.25744438171387 4.798973083496094 24.91434478759766 3.000003814697266 20.29475402832031 3.000003814697266 M 20.29475402832031 3.814697265625e-06 C 31.50323486328125 3.814697265625e-06 40.58950424194336 9.086273193359375 40.58950424194336 20.29475402832031 C 40.58950424194336 31.50323486328125 31.50323486328125 40.58950424194336 20.29475402832031 40.58950424194336 C 9.086273193359375 40.58950424194336 3.814697265625e-06 31.50323486328125 3.814697265625e-06 20.29475402832031 C 3.814697265625e-06 9.086273193359375 9.086273193359375 3.814697265625e-06 20.29475402832031 3.814697265625e-06 Z" stroke="none" fill="#4d0099"/>
    </g>
    <g id="Trazado_899976" data-name="Trazado 899976" transform="translate(1346.9 8961.083)" fill="#8cc63f">
      <path d="M 20.29475402832031 39.08950424194336 C 15.27449417114258 39.08950424194336 10.55472373962402 37.13450241088867 7.00486421585083 33.58464431762695 C 3.455003976821899 30.0347843170166 1.500004053115845 25.31501388549805 1.500004053115845 20.29475402832031 C 1.500004053115845 15.27449417114258 3.455003976821899 10.55472373962402 7.00486421585083 7.00486421585083 C 10.55472373962402 3.455003976821899 15.27449417114258 1.500004053115845 20.29475402832031 1.500004053115845 C 25.31501388549805 1.500004053115845 30.0347843170166 3.455003976821899 33.58464431762695 7.00486421585083 C 37.13450241088867 10.55472373962402 39.08950424194336 15.27449417114258 39.08950424194336 20.29475402832031 C 39.08950424194336 25.31501388549805 37.13450241088867 30.0347843170166 33.58464431762695 33.58464431762695 C 30.0347843170166 37.13450241088867 25.31501388549805 39.08950424194336 20.29475402832031 39.08950424194336 Z" stroke="none"/>
      <path d="M 20.29475402832031 3.000003814697266 C 15.67516326904297 3.000003814697266 11.33206367492676 4.798973083496094 8.065525054931641 8.065525054931641 C 4.798973083496094 11.33206367492676 3.000003814697266 15.67516326904297 3.000003814697266 20.29475402832031 C 3.000003814697266 24.91434478759766 4.798973083496094 29.25744438171387 8.065525054931641 32.52398300170898 C 11.33206367492676 35.79053497314453 15.67516326904297 37.58950424194336 20.29475402832031 37.58950424194336 C 24.91434478759766 37.58950424194336 29.25744438171387 35.79053497314453 32.52398300170898 32.52398300170898 C 35.79053497314453 29.25744438171387 37.58950424194336 24.91434478759766 37.58950424194336 20.29475402832031 C 37.58950424194336 15.67516326904297 35.79053497314453 11.33206367492676 32.52398300170898 8.065525054931641 C 29.25744438171387 4.798973083496094 24.91434478759766 3.000003814697266 20.29475402832031 3.000003814697266 M 20.29475402832031 3.814697265625e-06 C 31.50323486328125 3.814697265625e-06 40.58950424194336 9.086273193359375 40.58950424194336 20.29475402832031 C 40.58950424194336 31.50323486328125 31.50323486328125 40.58950424194336 20.29475402832031 40.58950424194336 C 9.086273193359375 40.58950424194336 3.814697265625e-06 31.50323486328125 3.814697265625e-06 20.29475402832031 C 3.814697265625e-06 9.086273193359375 9.086273193359375 3.814697265625e-06 20.29475402832031 3.814697265625e-06 Z" stroke="none" fill="#4d0099"/>
    </g>
    <g id="Trazado_899977" data-name="Trazado 899977" transform="translate(1029.788 8766.538)" fill="#8cc63f">
      <path d="M 20.29475402832031 39.08950424194336 C 15.27449417114258 39.08950424194336 10.55472373962402 37.13450241088867 7.00486421585083 33.58464431762695 C 3.455003976821899 30.0347843170166 1.500004053115845 25.31501388549805 1.500004053115845 20.29475402832031 C 1.500004053115845 15.27449417114258 3.455003976821899 10.55472373962402 7.00486421585083 7.00486421585083 C 10.55472373962402 3.455003976821899 15.27449417114258 1.500004053115845 20.29475402832031 1.500004053115845 C 25.31501388549805 1.500004053115845 30.0347843170166 3.455003976821899 33.58464431762695 7.00486421585083 C 37.13450241088867 10.55472373962402 39.08950424194336 15.27449417114258 39.08950424194336 20.29475402832031 C 39.08950424194336 25.31501388549805 37.13450241088867 30.0347843170166 33.58464431762695 33.58464431762695 C 30.0347843170166 37.13450241088867 25.31501388549805 39.08950424194336 20.29475402832031 39.08950424194336 Z" stroke="none"/>
      <path d="M 20.29475402832031 3.000003814697266 C 15.67516326904297 3.000003814697266 11.33206367492676 4.798973083496094 8.065525054931641 8.065525054931641 C 4.798973083496094 11.33206367492676 3.000003814697266 15.67516326904297 3.000003814697266 20.29475402832031 C 3.000003814697266 24.91434478759766 4.798973083496094 29.25744438171387 8.065525054931641 32.52398300170898 C 11.33206367492676 35.79053497314453 15.67516326904297 37.58950424194336 20.29475402832031 37.58950424194336 C 24.91434478759766 37.58950424194336 29.25744438171387 35.79053497314453 32.52398300170898 32.52398300170898 C 35.79053497314453 29.25744438171387 37.58950424194336 24.91434478759766 37.58950424194336 20.29475402832031 C 37.58950424194336 15.67516326904297 35.79053497314453 11.33206367492676 32.52398300170898 8.065525054931641 C 29.25744438171387 4.798973083496094 24.91434478759766 3.000003814697266 20.29475402832031 3.000003814697266 M 20.29475402832031 3.814697265625e-06 C 31.50323486328125 3.814697265625e-06 40.58950424194336 9.086273193359375 40.58950424194336 20.29475402832031 C 40.58950424194336 31.50323486328125 31.50323486328125 40.58950424194336 20.29475402832031 40.58950424194336 C 9.086273193359375 40.58950424194336 3.814697265625e-06 31.50323486328125 3.814697265625e-06 20.29475402832031 C 3.814697265625e-06 9.086273193359375 9.086273193359375 3.814697265625e-06 20.29475402832031 3.814697265625e-06 Z" stroke="none" fill="#4d0099"/>
    </g>
    <g id="Trazado_899978" data-name="Trazado 899978" transform="translate(1249.772 8702.546)" fill="#f7931e">
      <path d="M 20.29475402832031 39.08950424194336 C 15.27449417114258 39.08950424194336 10.55472373962402 37.13450241088867 7.00486421585083 33.58464431762695 C 3.455003976821899 30.0347843170166 1.500004053115845 25.31501388549805 1.500004053115845 20.29475402832031 C 1.500004053115845 15.27449417114258 3.455003976821899 10.55472373962402 7.00486421585083 7.00486421585083 C 10.55472373962402 3.455003976821899 15.27449417114258 1.500004053115845 20.29475402832031 1.500004053115845 C 25.31501388549805 1.500004053115845 30.0347843170166 3.455003976821899 33.58464431762695 7.00486421585083 C 37.13450241088867 10.55472373962402 39.08950424194336 15.27449417114258 39.08950424194336 20.29475402832031 C 39.08950424194336 25.31501388549805 37.13450241088867 30.0347843170166 33.58464431762695 33.58464431762695 C 30.0347843170166 37.13450241088867 25.31501388549805 39.08950424194336 20.29475402832031 39.08950424194336 Z" stroke="none"/>
      <path d="M 20.29475402832031 3.000003814697266 C 15.67516326904297 3.000003814697266 11.33206367492676 4.798973083496094 8.065525054931641 8.065525054931641 C 4.798973083496094 11.33206367492676 3.000003814697266 15.67516326904297 3.000003814697266 20.29475402832031 C 3.000003814697266 24.91434478759766 4.798973083496094 29.25744438171387 8.065525054931641 32.52398300170898 C 11.33206367492676 35.79053497314453 15.67516326904297 37.58950424194336 20.29475402832031 37.58950424194336 C 24.91434478759766 37.58950424194336 29.25744438171387 35.79053497314453 32.52398300170898 32.52398300170898 C 35.79053497314453 29.25744438171387 37.58950424194336 24.91434478759766 37.58950424194336 20.29475402832031 C 37.58950424194336 15.67516326904297 35.79053497314453 11.33206367492676 32.52398300170898 8.065525054931641 C 29.25744438171387 4.798973083496094 24.91434478759766 3.000003814697266 20.29475402832031 3.000003814697266 M 20.29475402832031 3.814697265625e-06 C 31.50323486328125 3.814697265625e-06 40.58950424194336 9.086273193359375 40.58950424194336 20.29475402832031 C 40.58950424194336 31.50323486328125 31.50323486328125 40.58950424194336 20.29475402832031 40.58950424194336 C 9.086273193359375 40.58950424194336 3.814697265625e-06 31.50323486328125 3.814697265625e-06 20.29475402832031 C 3.814697265625e-06 9.086273193359375 9.086273193359375 3.814697265625e-06 20.29475402832031 3.814697265625e-06 Z" stroke="none" fill="#4d0099"/>
    </g>
    <g id="Trazado_899979" data-name="Trazado 899979" transform="translate(859.144 8665.249)" fill="#ff007f">
      <path d="M 20.29475402832031 39.08950424194336 C 15.27449417114258 39.08950424194336 10.55472373962402 37.13450241088867 7.00486421585083 33.58464431762695 C 3.455003976821899 30.0347843170166 1.500004053115845 25.31501388549805 1.500004053115845 20.29475402832031 C 1.500004053115845 15.27449417114258 3.455003976821899 10.55472373962402 7.00486421585083 7.00486421585083 C 10.55472373962402 3.455003976821899 15.27449417114258 1.500004053115845 20.29475402832031 1.500004053115845 C 25.31501388549805 1.500004053115845 30.0347843170166 3.455003976821899 33.58464431762695 7.00486421585083 C 37.13450241088867 10.55472373962402 39.08950424194336 15.27449417114258 39.08950424194336 20.29475402832031 C 39.08950424194336 25.31501388549805 37.13450241088867 30.0347843170166 33.58464431762695 33.58464431762695 C 30.0347843170166 37.13450241088867 25.31501388549805 39.08950424194336 20.29475402832031 39.08950424194336 Z" stroke="none"/>
      <path d="M 20.29475402832031 3.000003814697266 C 15.67516326904297 3.000003814697266 11.33206367492676 4.798973083496094 8.065525054931641 8.065525054931641 C 4.798973083496094 11.33206367492676 3.000003814697266 15.67516326904297 3.000003814697266 20.29475402832031 C 3.000003814697266 24.91434478759766 4.798973083496094 29.25744438171387 8.065525054931641 32.52398300170898 C 11.33206367492676 35.79053497314453 15.67516326904297 37.58950424194336 20.29475402832031 37.58950424194336 C 24.91434478759766 37.58950424194336 29.25744438171387 35.79053497314453 32.52398300170898 32.52398300170898 C 35.79053497314453 29.25744438171387 37.58950424194336 24.91434478759766 37.58950424194336 20.29475402832031 C 37.58950424194336 15.67516326904297 35.79053497314453 11.33206367492676 32.52398300170898 8.065525054931641 C 29.25744438171387 4.798973083496094 24.91434478759766 3.000003814697266 20.29475402832031 3.000003814697266 M 20.29475402832031 3.814697265625e-06 C 31.50323486328125 3.814697265625e-06 40.58950424194336 9.086273193359375 40.58950424194336 20.29475402832031 C 40.58950424194336 31.50323486328125 31.50323486328125 40.58950424194336 20.29475402832031 40.58950424194336 C 9.086273193359375 40.58950424194336 3.814697265625e-06 31.50323486328125 3.814697265625e-06 20.29475402832031 C 3.814697265625e-06 9.086273193359375 9.086273193359375 3.814697265625e-06 20.29475402832031 3.814697265625e-06 Z" stroke="none" fill="#4d0099"/>
    </g>
    <path id="Trazado_899980" data-name="Trazado 899980" d="M1.4-3.117a.8.8,0,0,0-.461-.708A7.019,7.019,0,0,0-.815-4.378a8,8,0,0,1-2.133-.754A3.573,3.573,0,0,1-4.23-6.265a2.706,2.706,0,0,1-.441-1.528A3.066,3.066,0,0,1-3.409-10.31a5.2,5.2,0,0,1,3.3-.99,5.756,5.756,0,0,1,3.527.995A3.11,3.11,0,0,1,4.753-7.69H1.287q0-1.333-1.4-1.333a1.393,1.393,0,0,0-.913.3.937.937,0,0,0-.369.754.86.86,0,0,0,.451.749,4.263,4.263,0,0,0,1.441.472,12.45,12.45,0,0,1,1.738.441q2.5.861,2.5,3.086A2.906,2.906,0,0,1,3.384-.749,5.913,5.913,0,0,1-.108.205,6.034,6.034,0,0,1-2.651-.308,4.252,4.252,0,0,1-4.394-1.7a3.158,3.158,0,0,1-.625-1.856h3.23a1.335,1.335,0,0,0,.513,1.123,2.109,2.109,0,0,0,1.261.354,1.659,1.659,0,0,0,1.061-.287A.918.918,0,0,0,1.4-3.117Z" transform="translate(879.035 8690.084)" fill="#fff"/>
    <path id="Trazado_899981" data-name="Trazado 899981" d="M-2.071,0V-8.7h-1.61v-2.4h1.61v-.882A3.833,3.833,0,0,1-.954-14.919a4.416,4.416,0,0,1,3.138-1.046,6.871,6.871,0,0,1,1.62.215l.01,2.543a3.157,3.157,0,0,0-.851-.092q-1.569,0-1.569,1.354v.851H3.558v2.4H1.395V0Z" transform="translate(873.483 8988.479)" fill="#fff"/>
    <path id="Trazado_899982" data-name="Trazado 899982" d="M-4.861-5.093a6.132,6.132,0,0,1,1.03-3.757A3.39,3.39,0,0,1-.956-10.224,2.883,2.883,0,0,1,1.308-9.166V-14.25H4.444V0H1.633L1.475-1.076A2.96,2.96,0,0,1-.974.186,3.383,3.383,0,0,1-3.813-1.187,6.326,6.326,0,0,1-4.861-5.093Zm3.126.195q0,2.672,1.559,2.672A1.539,1.539,0,0,0,1.308-3.1V-6.921A1.5,1.5,0,0,0-.158-7.812q-1.447,0-1.568,2.338Z" transform="translate(1365.937 8986.479)" fill="#fff"/>
    <path id="Trazado_899983" data-name="Trazado 899983" d="M-4.861-5.093a6.132,6.132,0,0,1,1.03-3.757A3.39,3.39,0,0,1-.956-10.224,2.883,2.883,0,0,1,1.308-9.166V-14.25H4.444V0H1.633L1.475-1.076A2.96,2.96,0,0,1-.974.186,3.383,3.383,0,0,1-3.813-1.187,6.326,6.326,0,0,1-4.861-5.093Zm3.126.195q0,2.672,1.559,2.672A1.539,1.539,0,0,0,1.308-3.1V-6.921A1.5,1.5,0,0,0-.158-7.812q-1.447,0-1.568,2.338Z" transform="translate(1048.825 8791.933)" fill="#fff"/>
    <path id="Trazado_899984" data-name="Trazado 899984" d="M4.847-4.945A6.053,6.053,0,0,1,3.794-1.211,3.376,3.376,0,0,1,.951.186,2.894,2.894,0,0,1-1.322-.826V3.859H-4.448v-13.9h2.922l.093.928A2.894,2.894,0,0,1,.932-10.224,3.4,3.4,0,0,1,3.818-8.855a6.128,6.128,0,0,1,1.03,3.762ZM1.721-5.14q0-2.672-1.559-2.672a1.471,1.471,0,0,0-1.484.8v3.952a1.519,1.519,0,0,0,1.5.835q1.494,0,1.54-2.579Z" transform="translate(1268.809 8723.675)" fill="#fff"/>
    <path id="Trazado_899985" data-name="Trazado 899985" d="M20,0H231.7a20,20,0,0,1,20,20V75.56a20,20,0,0,1-20,20H20a20,20,0,0,1-20-20V20A20,20,0,0,1,20,0Z" transform="translate(932.054 8647.9)" fill="#99f2ff"/>
    <path id="Trazado_899986" data-name="Trazado 899986" d="M-5.288-1.9H-8.626L-9.261,0h-2.025l3.44-9.242h1.765L-2.622,0H-4.646ZM-8.112-3.447H-5.8L-6.963-6.906Zm15.3-1.289H1.517v-1.5H7.192Zm0,2.749H1.517v-1.5H7.192Z" transform="translate(994.247 8673.338)" fill="#12263f"/>
    <path id="Trazado_899987" data-name="Trazado 899987" d="M-10.28,0V-9.242h3.237A4.251,4.251,0,0,1-4.491-8.6a2.2,2.2,0,0,1,.87,1.888,2.088,2.088,0,0,1-.349,1.2,2.017,2.017,0,0,1-.971.759,1.951,1.951,0,0,1,1.12.717,2.121,2.121,0,0,1,.409,1.32A2.439,2.439,0,0,1-4.262-.7,3.829,3.829,0,0,1-6.687,0Zm1.9-4.024V-1.53h1.631A1.574,1.574,0,0,0-5.694-1.85a1.1,1.1,0,0,0,.378-.885A1.161,1.161,0,0,0-6.63-4.024Zm0-1.346h1.409Q-5.526-5.4-5.526-6.519a1.062,1.062,0,0,0-.365-.9A1.92,1.92,0,0,0-7.043-7.7H-8.376Zm15.342.635H1.292v-1.5H6.967Zm0,2.749H1.292v-1.5H6.967Z" transform="translate(994.247 8704.054)" fill="#12263f"/>
    <path id="Trazado_899988" data-name="Trazado 899988" d="M-50.454-7.7h-2.831V0h-1.9V-7.7h-2.793V-9.242h7.528Zm4.412,2.552A4.984,4.984,0,0,0-46.7-5.2a1.344,1.344,0,0,0-1.365.7V0H-49.9V-6.868h1.733l.051.819A1.7,1.7,0,0,1-46.589-7a1.922,1.922,0,0,1,.571.083ZM-41.371,0a2.037,2.037,0,0,1-.184-.616,2.22,2.22,0,0,1-1.733.743A2.439,2.439,0,0,1-44.96-.457a1.878,1.878,0,0,1-.663-1.473,1.941,1.941,0,0,1,.809-1.676,3.994,3.994,0,0,1,2.339-.59h.844v-.394a1.132,1.132,0,0,0-.244-.762.961.961,0,0,0-.771-.286,1.093,1.093,0,0,0-.727.222.755.755,0,0,0-.263.609h-1.834a1.843,1.843,0,0,1,.368-1.1,2.434,2.434,0,0,1,1.041-.8A3.794,3.794,0,0,1-42.552-7a3,3,0,0,1,2.015.638,2.232,2.232,0,0,1,.746,1.793v2.977a3.284,3.284,0,0,0,.273,1.479V0Zm-1.517-1.276a1.58,1.58,0,0,0,.749-.181,1.188,1.188,0,0,0,.508-.486V-3.123h-.686q-1.377,0-1.466.952l-.006.108a.734.734,0,0,0,.241.565A.937.937,0,0,0-42.888-1.276Zm6.2-5.592.057.793A2.4,2.4,0,0,1-34.661-7a1.993,1.993,0,0,1,1.625.641,2.991,2.991,0,0,1,.546,1.917V0h-1.834V-4.393a1.19,1.19,0,0,0-.254-.847,1.137,1.137,0,0,0-.844-.263,1.262,1.262,0,0,0-1.162.66V0h-1.834V-6.868Zm9.312,4.97a.591.591,0,0,0-.333-.53,3.785,3.785,0,0,0-1.07-.346q-2.45-.514-2.45-2.082a1.887,1.887,0,0,1,.759-1.527A3.06,3.06,0,0,1-28.491-7a3.293,3.293,0,0,1,2.092.616,1.94,1.94,0,0,1,.784,1.6H-27.45A.888.888,0,0,0-27.7-5.43a1.075,1.075,0,0,0-.793-.257,1.1,1.1,0,0,0-.717.209.661.661,0,0,0-.254.533.565.565,0,0,0,.289.492,2.971,2.971,0,0,0,.974.324,7.958,7.958,0,0,1,1.155.308A1.9,1.9,0,0,1-25.6-1.974,1.792,1.792,0,0,1-26.4-.454a3.478,3.478,0,0,1-2.082.581,3.632,3.632,0,0,1-1.533-.308,2.572,2.572,0,0,1-1.051-.844,1.962,1.962,0,0,1-.381-1.158h1.739a.958.958,0,0,0,.362.749,1.435,1.435,0,0,0,.9.26,1.328,1.328,0,0,0,.8-.2A.622.622,0,0,0-27.381-1.9Zm4.9,1.9h-1.841V-6.868h1.841Zm-1.949-8.646a.9.9,0,0,1,.276-.679,1.037,1.037,0,0,1,.752-.267,1.04,1.04,0,0,1,.749.267.9.9,0,0,1,.279.679.9.9,0,0,1-.282.686,1.042,1.042,0,0,1-.746.267,1.042,1.042,0,0,1-.746-.267A.9.9,0,0,1-24.429-8.646Zm6.316,7.293a1.2,1.2,0,0,0,.825-.279.979.979,0,0,0,.33-.743h1.72a2.353,2.353,0,0,1-.381,1.279,2.513,2.513,0,0,1-1.025.9,3.208,3.208,0,0,1-1.438.321A2.982,2.982,0,0,1-20.4-.809,3.705,3.705,0,0,1-21.255-3.4v-.121a3.663,3.663,0,0,1,.844-2.533A2.947,2.947,0,0,1-18.094-7a2.889,2.889,0,0,1,2.066.733,2.6,2.6,0,0,1,.79,1.952h-1.72a1.25,1.25,0,0,0-.33-.866,1.1,1.1,0,0,0-.838-.333,1.105,1.105,0,0,0-.968.467,2.7,2.7,0,0,0-.327,1.514v.19A2.735,2.735,0,0,0-19.1-1.815,1.119,1.119,0,0,0-18.113-1.352ZM-12.254,0h-1.841V-6.868h1.841ZM-14.2-8.646a.9.9,0,0,1,.276-.679,1.037,1.037,0,0,1,.752-.267,1.04,1.04,0,0,1,.749.267.9.9,0,0,1,.279.679.9.9,0,0,1-.282.686,1.042,1.042,0,0,1-.746.267,1.042,1.042,0,0,1-.746-.267A.9.9,0,0,1-14.2-8.646ZM-11.029-3.5a4.073,4.073,0,0,1,.394-1.822A2.881,2.881,0,0,1-9.5-6.557,3.306,3.306,0,0,1-7.785-7a3.127,3.127,0,0,1,2.269.851,3.414,3.414,0,0,1,.981,2.311l.013.47A3.59,3.59,0,0,1-5.405-.828,3.067,3.067,0,0,1-7.773.127a3.082,3.082,0,0,1-2.371-.952,3.653,3.653,0,0,1-.885-2.59Zm1.834.133a2.56,2.56,0,0,0,.368,1.495,1.215,1.215,0,0,0,1.054.517,1.218,1.218,0,0,0,1.041-.511A2.8,2.8,0,0,0-6.357-3.5a2.535,2.535,0,0,0-.375-1.485A1.218,1.218,0,0,0-7.785-5.51a1.2,1.2,0,0,0-1.041.524A2.849,2.849,0,0,0-9.195-3.364ZM-7.424-9.75h2L-7.182-7.782H-8.674ZM-1.7-6.868l.057.793A2.4,2.4,0,0,1,.327-7a1.993,1.993,0,0,1,1.625.641A2.991,2.991,0,0,1,2.5-4.437V0H.663V-4.393A1.19,1.19,0,0,0,.409-5.24,1.137,1.137,0,0,0-.435-5.5a1.262,1.262,0,0,0-1.162.66V0H-3.431V-6.868ZM9.061,0H7.22V-6.868H9.061ZM7.113-8.646a.9.9,0,0,1,.276-.679,1.037,1.037,0,0,1,.752-.267,1.04,1.04,0,0,1,.749.267.9.9,0,0,1,.279.679.9.9,0,0,1-.282.686,1.042,1.042,0,0,1-.746.267A1.042,1.042,0,0,1,7.4-7.96.9.9,0,0,1,7.113-8.646ZM12.26-6.868l.057.793A2.4,2.4,0,0,1,14.292-7a1.993,1.993,0,0,1,1.625.641,2.991,2.991,0,0,1,.546,1.917V0H14.628V-4.393a1.19,1.19,0,0,0-.254-.847A1.137,1.137,0,0,0,13.53-5.5a1.262,1.262,0,0,0-1.162.66V0H10.534V-6.868Zm7.789-1.688v1.688h1.174v1.346H20.049v3.428a.818.818,0,0,0,.146.546.733.733,0,0,0,.559.165,2.925,2.925,0,0,0,.54-.044v1.39a3.777,3.777,0,0,1-1.111.165,1.752,1.752,0,0,1-1.968-1.949v-3.7h-1V-6.868h1V-8.557ZM25.406.127A3.372,3.372,0,0,1,22.947-.8,3.294,3.294,0,0,1,22-3.269v-.178a4.149,4.149,0,0,1,.4-1.85,2.935,2.935,0,0,1,1.133-1.257A3.18,3.18,0,0,1,25.2-7a2.85,2.85,0,0,1,2.219.889,3.611,3.611,0,0,1,.809,2.52v.749H23.858a1.7,1.7,0,0,0,.536,1.079,1.621,1.621,0,0,0,1.133.406,1.98,1.98,0,0,0,1.657-.768l.9,1.009A2.754,2.754,0,0,1,26.968-.2,3.665,3.665,0,0,1,25.406.127ZM25.2-5.51a1.149,1.149,0,0,0-.885.368,1.9,1.9,0,0,0-.435,1.054h2.552v-.146a1.356,1.356,0,0,0-.33-.943A1.186,1.186,0,0,0,25.2-5.51Zm7.935.362a4.984,4.984,0,0,0-.66-.051,1.344,1.344,0,0,0-1.365.7V0H29.272V-6.868h1.733l.051.819A1.7,1.7,0,0,1,32.586-7a1.922,1.922,0,0,1,.571.083ZM35.7-6.868l.057.793A2.4,2.4,0,0,1,37.734-7a1.993,1.993,0,0,1,1.625.641A2.991,2.991,0,0,1,39.9-4.437V0H38.07V-4.393a1.19,1.19,0,0,0-.254-.847,1.137,1.137,0,0,0-.844-.263,1.262,1.262,0,0,0-1.162.66V0H33.976V-6.868ZM45.275,0a2.037,2.037,0,0,1-.184-.616,2.22,2.22,0,0,1-1.733.743,2.439,2.439,0,0,1-1.673-.584,1.878,1.878,0,0,1-.663-1.473,1.941,1.941,0,0,1,.809-1.676A3.994,3.994,0,0,1,44.17-4.2h.844v-.394a1.132,1.132,0,0,0-.244-.762A.961.961,0,0,0,44-5.637a1.093,1.093,0,0,0-.727.222.755.755,0,0,0-.263.609H41.174a1.843,1.843,0,0,1,.368-1.1,2.434,2.434,0,0,1,1.041-.8A3.794,3.794,0,0,1,44.094-7a3,3,0,0,1,2.015.638,2.232,2.232,0,0,1,.746,1.793v2.977a3.284,3.284,0,0,0,.273,1.479V0ZM43.758-1.276a1.58,1.58,0,0,0,.749-.181,1.188,1.188,0,0,0,.508-.486V-3.123h-.686q-1.377,0-1.466.952l-.006.108A.734.734,0,0,0,43.1-1.5.937.937,0,0,0,43.758-1.276ZM57.335-4.735H51.66v-1.5h5.675Zm0,2.749H51.66v-1.5h5.675Z" transform="translate(1041.247 8727.091)" fill="#12263f"/>
    <path id="Trazado_899989" data-name="Trazado 899989" d="M-3.256-3.5a4.073,4.073,0,0,1,.394-1.822A2.881,2.881,0,0,1-1.73-6.557,3.306,3.306,0,0,1-.013-7a3.128,3.128,0,0,1,2.269.851,3.414,3.414,0,0,1,.981,2.311l.013.47A3.59,3.59,0,0,1,2.368-.828,3.067,3.067,0,0,1,0,.127,3.082,3.082,0,0,1-2.371-.825a3.653,3.653,0,0,1-.885-2.59Zm1.834.133a2.56,2.56,0,0,0,.368,1.495A1.215,1.215,0,0,0,0-1.352a1.218,1.218,0,0,0,1.041-.511A2.8,2.8,0,0,0,1.416-3.5a2.535,2.535,0,0,0-.375-1.485A1.218,1.218,0,0,0-.013-5.51a1.2,1.2,0,0,0-1.041.524A2.849,2.849,0,0,0-1.422-3.364Z" transform="translate(1044.412 8673.338)" fill="#12263f"/>
    <g id="Grupo_1108485" data-name="Grupo 1108485" transform="translate(1013.749 8660.698)">
      <g id="Elipse_11669" data-name="Elipse 11669" fill="#ff007f" stroke="#4d0099" stroke-width="1">
        <circle cx="8.745" cy="8.745" r="8.745" stroke="none"/>
        <circle cx="8.745" cy="8.745" r="8.245" fill="none"/>
      </g>
      <text id="s" transform="translate(8.417 11.084)" fill="#fff" font-size="9" font-family="Roboto-Black, Roboto" font-weight="800"><tspan x="-2.305" y="0">s</tspan></text>
    </g>
    <g id="Grupo_1108487" data-name="Grupo 1108487" transform="translate(1013.749 8690.774)">
      <g id="Elipse_11669-2" data-name="Elipse 11669" fill="#8cc63f" stroke="#4d0099" stroke-width="1">
        <circle cx="8.745" cy="8.745" r="8.745" stroke="none"/>
        <circle cx="8.745" cy="8.745" r="8.245" fill="none"/>
      </g>
      <text id="d" transform="translate(8.417 10.937)" fill="#fff" font-size="8" font-family="Roboto-Black, Roboto" font-weight="800"><tspan x="-2.25" y="0">d</tspan></text>
    </g>
    <g id="Grupo_1108488" data-name="Grupo 1108488" transform="translate(1114.429 8713.812)">
      <g id="Elipse_11669-3" data-name="Elipse 11669" transform="translate(0 0)" fill="#29abe2" stroke="#4d0099" stroke-width="1">
        <circle cx="8.745" cy="8.745" r="8.745" stroke="none"/>
        <circle cx="8.745" cy="8.745" r="8.245" fill="none"/>
      </g>
      <text id="f" transform="translate(8.27 10.937)" fill="#fff" font-size="8" font-family="Roboto-Black, Roboto" font-weight="800"><tspan x="-1.449" y="0">f</tspan></text>
    </g>
    <g id="Grupo_1108486" data-name="Grupo 1108486" transform="translate(1058.116 8660.698)">
      <g id="Elipse_11669-4" data-name="Elipse 11669" transform="translate(0)" fill="#f7931e" stroke="#4d0099" stroke-width="1">
        <circle cx="8.745" cy="8.745" r="8.745" stroke="none"/>
        <circle cx="8.745" cy="8.745" r="8.245" fill="none"/>
      </g>
      <text id="p" transform="translate(8.417 10.084)" fill="#fff" font-size="8" font-family="Roboto-Black, Roboto" font-weight="800"><tspan x="-2.252" y="0">p</tspan></text>
    </g>
  </g>
</svg>
