<svg xmlns="http://www.w3.org/2000/svg" width="859.251" height="435.578" viewBox="0 0 859.251 435.578">
  <g id="Grupo_1108957" data-name="Grupo 1108957" transform="translate(-370.749 -12936)">
    <path id="Trazado_899414" data-name="Trazado 899414" d="M635.167.5V45.582l45.487.348V.5Z" transform="translate(548.736 12936.108)" fill="#b11011"/>
    <path id="Trazado_899454" data-name="Trazado 899454" d="M635.167.5V45.582l45.487.348V.5Z" transform="translate(-225.167 12936.108)" fill="#b11011"/>
    <path id="Trazado_899455" data-name="Trazado 899455" d="M635.167.5V45.582l92.195.348V.5Z" transform="translate(-225.167 12982.147)" fill="#e50a17"/>
    <path id="Trazado_899458" data-name="Trazado 899458" d="M635.167.5V45.582l92.195.348V.5Z" transform="translate(-225.167 13027.578)" fill="#ffa509"/>
    <path id="Trazado_899456" data-name="Trazado 899456" d="M635.167.5V45.582l274.147.348V.5Z" transform="translate(320.686 12982.147)" fill="#e50a17"/>
    <path id="Trazado_899457" data-name="Trazado 899457" d="M635.167.5V45.582l274.147.348V.5Z" transform="translate(320.686 13027.578)" fill="#ffa509"/>
    <path id="Trazado_899932" data-name="Trazado 899932" d="M0,0H820V44.821H0Z" transform="translate(410 13072.897)" fill="#ffd500"/>
    <path id="Trazado_899933" data-name="Trazado 899933" d="M0,0H820V44.821H0Z" transform="translate(410 13117.719)" fill="#029902"/>
    <path id="Trazado_899934" data-name="Trazado 899934" d="M0,0H820V44.821H0Z" transform="translate(410 13163.147)" fill="#29abe2"/>
    <path id="Trazado_899935" data-name="Trazado 899935" d="M0,0H729.431V44.821H0Z" transform="translate(410 13208.576)" fill="#8000ff"/>
    <path id="Trazado_899936" data-name="Trazado 899936" d="M0,0H681.3V44.878H0Z" transform="translate(501.991 13279.993)" fill="#29abe2"/>
    <path id="Trazado_899937" data-name="Trazado 899937" d="M0,0H681.3V44.878H0Z" transform="translate(501.991 13325.481)" fill="#8000ff"/>
    <path id="Trazado_899417" data-name="Trazado 899417" d="M0,0V319.227H728.415v-1.218H1.218V1.219H46.3V0Z" transform="translate(410 12935.999)" fill="#fff"/>
    <path id="Trazado_899418" data-name="Trazado 899418" d="M635.5,0V1.219h44.473V273.527h1.219V0Z" transform="translate(548.809 12935.999)" fill="#fff"/>
    <path id="Trazado_899938" data-name="Trazado 899938" d="M0,0H818.78V1.218H0Z" transform="translate(410.609 13208.578)" fill="#fff"/>
    <path id="Trazado_899939" data-name="Trazado 899939" d="M0,0H818.78V1.218H0Z" transform="translate(410.609 13163.147)" fill="#fff"/>
    <path id="Trazado_899940" data-name="Trazado 899940" d="M0,0H818.78V1.218H0Z" transform="translate(410.609 13117.719)" fill="#fff"/>
    <path id="Trazado_899941" data-name="Trazado 899941" d="M0,0H818.78V1.218H0Z" transform="translate(410.609 13072.288)" fill="#fff"/>
    <path id="Trazado_899942" data-name="Trazado 899942" d="M0,0H272.927V1.218H0Z" transform="translate(956.464 13026.859)" fill="#fff"/>
    <path id="Trazado_899943" data-name="Trazado 899943" d="M0,0H272.927V1.218H0Z" transform="translate(956.464 12981.429)" fill="#fff"/>
    <path id="Trazado_899944" data-name="Trazado 899944" d="M0,0H91.382V1.218H0Z" transform="translate(410.609 12981.691)" fill="#fff"/>
    <path id="Trazado_899945" data-name="Trazado 899945" d="M0,0H91.382V1.218H0Z" transform="translate(410.609 13026.772)" fill="#fff"/>
    <path id="Trazado_899946" data-name="Trazado 899946" d="M0,0H1.218V272.927H0Z" transform="translate(1183.294 12936.608)" fill="#fff"/>
    <path id="Trazado_899947" data-name="Trazado 899947" d="M0,0H1.218V272.926H0Z" transform="translate(1137.807 12981.691)" fill="#fff"/>
    <path id="Trazado_899948" data-name="Trazado 899948" d="M0,0H1.218V272.926H0Z" transform="translate(1092.318 12981.691)" fill="#fff"/>
    <path id="Trazado_899949" data-name="Trazado 899949" d="M0,0H1.218V272.926H0Z" transform="translate(1046.831 12981.691)" fill="#fff"/>
    <path id="Trazado_899950" data-name="Trazado 899950" d="M0,0H1.22V272.926H0Z" transform="translate(1001.342 12981.691)" fill="#fff"/>
    <path id="Trazado_899951" data-name="Trazado 899951" d="M0,0H1.218V272.926H0Z" transform="translate(955.854 12981.691)" fill="#fff"/>
    <path id="Trazado_899952" data-name="Trazado 899952" d="M0,0H1.218V181.545H0Z" transform="translate(910.366 13073.072)" fill="#fff"/>
    <path id="Trazado_899953" data-name="Trazado 899953" d="M0,0H1.218V181.545H0Z" transform="translate(864.878 13073.072)" fill="#fff"/>
    <path id="Trazado_899954" data-name="Trazado 899954" d="M0,0H1.218V181.545H0Z" transform="translate(819.391 13073.072)" fill="#fff"/>
    <path id="Trazado_899955" data-name="Trazado 899955" d="M0,0H1.218V181.545H0Z" transform="translate(773.903 13073.072)" fill="#fff"/>
    <path id="Trazado_899956" data-name="Trazado 899956" d="M0,0H1.218V181.545H0Z" transform="translate(728.416 13073.072)" fill="#fff"/>
    <path id="Trazado_899957" data-name="Trazado 899957" d="M0,0H1.218V181.545H0Z" transform="translate(682.927 13073.072)" fill="#fff"/>
    <path id="Trazado_899958" data-name="Trazado 899958" d="M0,0H1.218V181.545H0Z" transform="translate(637.438 13073.072)" fill="#fff"/>
    <path id="Trazado_899959" data-name="Trazado 899959" d="M0,0H1.218V181.545H0Z" transform="translate(591.951 13073.072)" fill="#fff"/>
    <path id="Trazado_899960" data-name="Trazado 899960" d="M0,0H1.22V181.545H0Z" transform="translate(546.464 13073.072)" fill="#fff"/>
    <path id="Trazado_899961" data-name="Trazado 899961" d="M0,0H1.218V272.926H0Z" transform="translate(500.976 12981.691)" fill="#fff"/>
    <path id="Trazado_899962" data-name="Trazado 899962" d="M0,0H1.218V318.009H0Z" transform="translate(455.489 12936.608)" fill="#fff"/>
    <path id="Trazado_899419" data-name="Trazado 899419" d="M76.218,283.045h681.1V372.8H76.218ZM75,374.022H758.538V281.827H75Z" transform="translate(426.382 12997.557)" fill="#fff"/>
    <path id="Trazado_899963" data-name="Trazado 899963" d="M0,0H682.318V1.218H0Z" transform="translate(501.991 13324.871)" fill="#fff"/>
    <path id="Trazado_899964" data-name="Trazado 899964" d="M0,0H1.218V90.976H0Z" transform="translate(1138.212 13279.993)" fill="#fff"/>
    <path id="Trazado_899965" data-name="Trazado 899965" d="M0,0H1.218V90.976H0Z" transform="translate(1092.725 13279.993)" fill="#fff"/>
    <path id="Trazado_899966" data-name="Trazado 899966" d="M0,0H1.218V90.976H0Z" transform="translate(1047.236 13279.993)" fill="#fff"/>
    <path id="Trazado_899967" data-name="Trazado 899967" d="M0,0H1.22V90.976H0Z" transform="translate(1001.748 13279.993)" fill="#fff"/>
    <path id="Trazado_899968" data-name="Trazado 899968" d="M0,0H1.218V90.976H0Z" transform="translate(956.26 13279.993)" fill="#fff"/>
    <path id="Trazado_899969" data-name="Trazado 899969" d="M0,0H1.218V90.976H0Z" transform="translate(910.773 13279.993)" fill="#fff"/>
    <path id="Trazado_899970" data-name="Trazado 899970" d="M0,0H1.218V90.976H0Z" transform="translate(865.285 13279.993)" fill="#fff"/>
    <path id="Trazado_899971" data-name="Trazado 899971" d="M0,0H1.218V90.976H0Z" transform="translate(819.798 13279.993)" fill="#fff"/>
    <path id="Trazado_899972" data-name="Trazado 899972" d="M0,0H1.218V90.976H0Z" transform="translate(774.309 13279.993)" fill="#fff"/>
    <path id="Trazado_899973" data-name="Trazado 899973" d="M0,0H1.218V90.976H0Z" transform="translate(728.822 13279.993)" fill="#fff"/>
    <path id="Trazado_899974" data-name="Trazado 899974" d="M0,0H1.22V90.976H0Z" transform="translate(683.333 13279.993)" fill="#fff"/>
    <path id="Trazado_899975" data-name="Trazado 899975" d="M0,0H1.218V90.976H0Z" transform="translate(637.845 13279.993)" fill="#fff"/>
    <path id="Trazado_899976" data-name="Trazado 899976" d="M0,0H1.218V90.976H0Z" transform="translate(592.357 13279.993)" fill="#fff"/>
    <path id="Trazado_899977" data-name="Trazado 899977" d="M0,0H1.218V90.976H0Z" transform="translate(546.869 13279.993)" fill="#fff"/>
    <path id="Trazado_899978" data-name="Trazado 899978" d="M-1.6,0H-4.9V-10.508l-3.242.947v-2.5l6.24-2.158h.3ZM3.042-11.67a2.622,2.622,0,0,1,.815-1.943,2.661,2.661,0,0,1,1.929-.8,2.574,2.574,0,0,1,1.89.8,2.654,2.654,0,0,1,.8,1.943,2.611,2.611,0,0,1-.786,1.919,2.588,2.588,0,0,1-1.9.786,2.676,2.676,0,0,1-1.938-.786A2.579,2.579,0,0,1,3.042-11.67Zm2.744,1.211a1.117,1.117,0,0,0,.85-.352,1.2,1.2,0,0,0,.332-.859,1.275,1.275,0,0,0-.332-.879,1.089,1.089,0,0,0-.85-.371,1.172,1.172,0,0,0-.874.366,1.221,1.221,0,0,0-.356.884,1.141,1.141,0,0,0,.366.864A1.215,1.215,0,0,0,5.786-10.459Z" transform="translate(380.051 12962.409)" fill="#12263f"/>
    <path id="Trazado_899979" data-name="Trazado 899979" d="M1.03,0H-8.892V-2.148l4.57-4.8q1.689-1.924,1.689-3.057a2.126,2.126,0,0,0-.4-1.4,1.43,1.43,0,0,0-1.162-.479,1.447,1.447,0,0,0-1.221.64,2.629,2.629,0,0,0-.469,1.6h-3.3a4.67,4.67,0,0,1,.654-2.417A4.588,4.588,0,0,1-6.714-13.8a5.4,5.4,0,0,1,2.6-.625,5.308,5.308,0,0,1,3.55,1.064A3.8,3.8,0,0,1,.679-10.3,4.439,4.439,0,0,1,.366-8.667,7.173,7.173,0,0,1-.605-7,24.476,24.476,0,0,1-2.729-4.658L-4.565-2.539h5.6ZM3.042-11.67a2.622,2.622,0,0,1,.815-1.943,2.661,2.661,0,0,1,1.929-.8,2.574,2.574,0,0,1,1.89.8,2.654,2.654,0,0,1,.8,1.943,2.611,2.611,0,0,1-.786,1.919,2.588,2.588,0,0,1-1.9.786,2.676,2.676,0,0,1-1.938-.786A2.579,2.579,0,0,1,3.042-11.67Zm2.744,1.211a1.117,1.117,0,0,0,.85-.352,1.2,1.2,0,0,0,.332-.859,1.275,1.275,0,0,0-.332-.879,1.089,1.089,0,0,0-.85-.371,1.172,1.172,0,0,0-.874.366,1.221,1.221,0,0,0-.356.884,1.141,1.141,0,0,0,.366.864A1.215,1.215,0,0,0,5.786-10.459Z" transform="translate(380.051 13010.409)" fill="#12263f"/>
    <path id="Trazado_899980" data-name="Trazado 899980" d="M-5.884-8.486h1.553a1.614,1.614,0,0,0,1.846-1.807,1.562,1.562,0,0,0-.439-1.147,1.666,1.666,0,0,0-1.24-.444A1.784,1.784,0,0,0-5.3-11.5a1.162,1.162,0,0,0-.483.947H-9.077a3.369,3.369,0,0,1,.625-2,4.127,4.127,0,0,1,1.733-1.372,5.926,5.926,0,0,1,2.437-.493A5.823,5.823,0,0,1-.552-13.34,3.6,3.6,0,0,1,.806-10.361,3,3,0,0,1,.244-8.628,4,4,0,0,1-1.392-7.3,3.823,3.823,0,0,1,.386-6.06,3.279,3.279,0,0,1,1.03-3.994,3.669,3.669,0,0,1-.435-.947,6.08,6.08,0,0,1-4.282.2,6.306,6.306,0,0,1-6.875-.337,4.062,4.062,0,0,1-8.687-1.812,3.834,3.834,0,0,1-9.3-3.955h3.311a1.482,1.482,0,0,0,.527,1.133,1.862,1.862,0,0,0,1.3.479,1.95,1.95,0,0,0,1.387-.483,1.616,1.616,0,0,0,.518-1.235A1.889,1.889,0,0,0-2.8-5.586a2.245,2.245,0,0,0-1.484-.449h-1.6ZM3.042-11.67a2.622,2.622,0,0,1,.815-1.943,2.661,2.661,0,0,1,1.929-.8,2.574,2.574,0,0,1,1.89.8,2.654,2.654,0,0,1,.8,1.943,2.611,2.611,0,0,1-.786,1.919,2.588,2.588,0,0,1-1.9.786,2.676,2.676,0,0,1-1.938-.786A2.579,2.579,0,0,1,3.042-11.67Zm2.744,1.211a1.117,1.117,0,0,0,.85-.352,1.2,1.2,0,0,0,.332-.859,1.275,1.275,0,0,0-.332-.879,1.089,1.089,0,0,0-.85-.371,1.172,1.172,0,0,0-.874.366,1.221,1.221,0,0,0-.356.884,1.141,1.141,0,0,0,.366.864A1.215,1.215,0,0,0,5.786-10.459Z" transform="translate(380.051 13057.409)" fill="#12263f"/>
    <path id="Trazado_899981" data-name="Trazado 899981" d="M-8.7-6.953l.869-7.266H.483v2.559H-5.151l-.322,2.822A3.892,3.892,0,0,1-4.551-9.2a4.228,4.228,0,0,1,1.118-.156A4.171,4.171,0,0,1-.176-8.1,5.055,5.055,0,0,1,.962-4.58,5.046,5.046,0,0,1,.352-2.1,4.2,4.2,0,0,1-1.362-.4,5.411,5.411,0,0,1-3.97.2a5.818,5.818,0,0,1-2.51-.552A4.5,4.5,0,0,1-8.315-1.87,3.68,3.68,0,0,1-8.97-4.043h3.3a1.873,1.873,0,0,0,.5,1.24,1.579,1.579,0,0,0,1.182.459q1.66,0,1.66-2.461,0-2.275-2.031-2.275a2.025,2.025,0,0,0-1.719.742ZM3.042-11.67a2.622,2.622,0,0,1,.815-1.943,2.661,2.661,0,0,1,1.929-.8,2.574,2.574,0,0,1,1.89.8,2.654,2.654,0,0,1,.8,1.943,2.611,2.611,0,0,1-.786,1.919,2.588,2.588,0,0,1-1.9.786,2.676,2.676,0,0,1-1.938-.786A2.579,2.579,0,0,1,3.042-11.67Zm2.744,1.211a1.117,1.117,0,0,0,.85-.352,1.2,1.2,0,0,0,.332-.859,1.275,1.275,0,0,0-.332-.879,1.089,1.089,0,0,0-.85-.371,1.172,1.172,0,0,0-.874.366,1.221,1.221,0,0,0-.356.884,1.141,1.141,0,0,0,.366.864A1.215,1.215,0,0,0,5.786-10.459Z" transform="translate(380.051 13147.409)" fill="#12263f"/>
    <path id="Trazado_899982" data-name="Trazado 899982" d="M-.942-14.424v2.588h-.146a4.941,4.941,0,0,0-3.032.884A3.732,3.732,0,0,0-5.581-8.5,3.848,3.848,0,0,1-2.769-9.59,3.59,3.59,0,0,1,.171-8.242,5.436,5.436,0,0,1,1.265-4.707a4.977,4.977,0,0,1-.64,2.49A4.564,4.564,0,0,1-1.162-.444,5.135,5.135,0,0,1-3.706.2,5.307,5.307,0,0,1-6.411-.493,4.733,4.733,0,0,1-8.267-2.461,6.48,6.48,0,0,1-8.95-5.41V-6.729a8.208,8.208,0,0,1,.942-3.95,6.832,6.832,0,0,1,2.69-2.749,7.692,7.692,0,0,1,3.877-1ZM-3.911-7.07A1.883,1.883,0,0,0-5-6.768a1.922,1.922,0,0,0-.654.742v.986q0,2.7,1.865,2.7a1.513,1.513,0,0,0,1.255-.674,2.746,2.746,0,0,0,.5-1.689,2.7,2.7,0,0,0-.513-1.7A1.64,1.64,0,0,0-3.911-7.07Zm6.953-4.6a2.622,2.622,0,0,1,.815-1.943,2.661,2.661,0,0,1,1.929-.8,2.574,2.574,0,0,1,1.89.8,2.654,2.654,0,0,1,.8,1.943,2.611,2.611,0,0,1-.786,1.919,2.588,2.588,0,0,1-1.9.786,2.676,2.676,0,0,1-1.938-.786A2.579,2.579,0,0,1,3.042-11.67Zm2.744,1.211a1.117,1.117,0,0,0,.85-.352,1.2,1.2,0,0,0,.332-.859,1.275,1.275,0,0,0-.332-.879,1.089,1.089,0,0,0-.85-.371,1.172,1.172,0,0,0-.874.366,1.221,1.221,0,0,0-.356.884,1.141,1.141,0,0,0,.366.864A1.215,1.215,0,0,0,5.786-10.459Z" transform="translate(380.051 13192.409)" fill="#12263f"/>
    <path id="Trazado_899983" data-name="Trazado 899983" d="M-.942-14.424v2.588h-.146a4.941,4.941,0,0,0-3.032.884A3.732,3.732,0,0,0-5.581-8.5,3.848,3.848,0,0,1-2.769-9.59,3.59,3.59,0,0,1,.171-8.242,5.436,5.436,0,0,1,1.265-4.707a4.977,4.977,0,0,1-.64,2.49A4.564,4.564,0,0,1-1.162-.444,5.135,5.135,0,0,1-3.706.2,5.307,5.307,0,0,1-6.411-.493,4.733,4.733,0,0,1-8.267-2.461,6.48,6.48,0,0,1-8.95-5.41V-6.729a8.208,8.208,0,0,1,.942-3.95,6.832,6.832,0,0,1,2.69-2.749,7.692,7.692,0,0,1,3.877-1ZM-3.911-7.07A1.883,1.883,0,0,0-5-6.768a1.922,1.922,0,0,0-.654.742v.986q0,2.7,1.865,2.7a1.513,1.513,0,0,0,1.255-.674,2.746,2.746,0,0,0,.5-1.689,2.7,2.7,0,0,0-.513-1.7A1.64,1.64,0,0,0-3.911-7.07Zm6.953-4.6a2.622,2.622,0,0,1,.815-1.943,2.661,2.661,0,0,1,1.929-.8,2.574,2.574,0,0,1,1.89.8,2.654,2.654,0,0,1,.8,1.943,2.611,2.611,0,0,1-.786,1.919,2.588,2.588,0,0,1-1.9.786,2.676,2.676,0,0,1-1.938-.786A2.579,2.579,0,0,1,3.042-11.67Zm2.744,1.211a1.117,1.117,0,0,0,.85-.352,1.2,1.2,0,0,0,.332-.859,1.275,1.275,0,0,0-.332-.879,1.089,1.089,0,0,0-.85-.371,1.172,1.172,0,0,0-.874.366,1.221,1.221,0,0,0-.356.884,1.141,1.141,0,0,0,.366.864A1.215,1.215,0,0,0,5.786-10.459Z" transform="translate(485.051 13310.409)" fill="#12263f"/>
    <path id="Trazado_899984" data-name="Trazado 899984" d="M.991-12.461-4.321,0H-7.8l5.322-11.68H-9.253v-2.539H.991Zm2.051.791a2.622,2.622,0,0,1,.815-1.943,2.661,2.661,0,0,1,1.929-.8,2.574,2.574,0,0,1,1.89.8,2.654,2.654,0,0,1,.8,1.943,2.611,2.611,0,0,1-.786,1.919,2.588,2.588,0,0,1-1.9.786,2.676,2.676,0,0,1-1.938-.786A2.579,2.579,0,0,1,3.042-11.67Zm2.744,1.211a1.117,1.117,0,0,0,.85-.352,1.2,1.2,0,0,0,.332-.859,1.275,1.275,0,0,0-.332-.879,1.089,1.089,0,0,0-.85-.371,1.172,1.172,0,0,0-.874.366,1.221,1.221,0,0,0-.356.884,1.141,1.141,0,0,0,.366.864A1.215,1.215,0,0,0,5.786-10.459Z" transform="translate(380.051 13237.409)" fill="#12263f"/>
    <path id="Trazado_899985" data-name="Trazado 899985" d="M.991-12.461-4.321,0H-7.8l5.322-11.68H-9.253v-2.539H.991Zm2.051.791a2.622,2.622,0,0,1,.815-1.943,2.661,2.661,0,0,1,1.929-.8,2.574,2.574,0,0,1,1.89.8,2.654,2.654,0,0,1,.8,1.943,2.611,2.611,0,0,1-.786,1.919,2.588,2.588,0,0,1-1.9.786,2.676,2.676,0,0,1-1.938-.786A2.579,2.579,0,0,1,3.042-11.67Zm2.744,1.211a1.117,1.117,0,0,0,.85-.352,1.2,1.2,0,0,0,.332-.859,1.275,1.275,0,0,0-.332-.879,1.089,1.089,0,0,0-.85-.371,1.172,1.172,0,0,0-.874.366,1.221,1.221,0,0,0-.356.884,1.141,1.141,0,0,0,.366.864A1.215,1.215,0,0,0,5.786-10.459Z" transform="translate(485.051 13355.409)" fill="#12263f"/>
    <path id="Trazado_899986" data-name="Trazado 899986" d="M-.2-5.557H1.245v2.539H-.2V0H-3.491V-3.018h-5.5l-.2-2.012,5.693-9.16v-.029H-.2Zm-5.85,0h2.559V-9.932L-3.7-9.6ZM3.042-11.67a2.622,2.622,0,0,1,.815-1.943,2.661,2.661,0,0,1,1.929-.8,2.574,2.574,0,0,1,1.89.8,2.654,2.654,0,0,1,.8,1.943,2.611,2.611,0,0,1-.786,1.919,2.588,2.588,0,0,1-1.9.786,2.676,2.676,0,0,1-1.938-.786A2.579,2.579,0,0,1,3.042-11.67Zm2.744,1.211a1.117,1.117,0,0,0,.85-.352,1.2,1.2,0,0,0,.332-.859,1.275,1.275,0,0,0-.332-.879,1.089,1.089,0,0,0-.85-.371,1.172,1.172,0,0,0-.874.366,1.221,1.221,0,0,0-.356.884,1.141,1.141,0,0,0,.366.864A1.215,1.215,0,0,0,5.786-10.459Z" transform="translate(380.051 13102.409)" fill="#12263f"/>
  </g>
</svg>
