<svg xmlns="http://www.w3.org/2000/svg" xmlns:xlink="http://www.w3.org/1999/xlink" width="190" height="159" viewBox="0 0 190 159">
  <defs>
    <clipPath id="clip-path">
      <rect id="Rectángulo_405830" data-name="Rectángulo 405830" width="142" height="142" transform="translate(204.051 422)" fill="#fff" stroke="#707070" stroke-width="1"/>
    </clipPath>
  </defs>
  <g id="Grupo_1108219" data-name="Grupo 1108219" transform="translate(-180.051 -422)">
    <rect id="Rectángulo_405829" data-name="Rectángulo 405829" width="190" height="119" rx="20" transform="translate(180.051 462)" fill="#99f2ff"/>
    <g id="Enmascarar_grupo_1098745" data-name="Enmascarar grupo 1098745" clip-path="url(#clip-path)">
      <g id="Compound_Medicine" data-name="Compound Medicine" transform="translate(199.599 417.893)">
        <path id="Trazado_899466" data-name="Trazado 899466" d="M111.713,22.8a57.977,57.977,0,0,0,14.2-5.2h.023l11.715,2.062a7.029,7.029,0,0,1-1.195,13.964,7.422,7.422,0,0,1-1.242-.117L91.376,25.773l.187-1.007C97.889,24.3,101.333,25.281,111.713,22.8Z" fill="#ffd422"/>
        <path id="Trazado_899467" data-name="Trazado 899467" d="M80.622,48.242A4.58,4.58,0,0,1,82,51.545a4.7,4.7,0,0,1-4.686,4.686H63.26a4.686,4.686,0,1,1,0-9.372H77.318a4.581,4.581,0,0,1,3.3,1.382Z" fill="#d1d3d4"/>
        <path id="Trazado_899468" data-name="Trazado 899468" d="M93.883,11.106a4.844,4.844,0,0,1-.07.82L91.563,24.765l-.187,1.007a4.686,4.686,0,1,1-9.231-1.617l2.437-13.847a4.686,4.686,0,0,1,9.3.8Z" fill="#d1d3d4"/>
        <path id="Trazado_899469" data-name="Trazado 899469" d="M77.318,70.289l5.319,12.183a18.409,18.409,0,0,0-6.888-1.453c-5.459,0-5.459,1.968-10.942,1.968a16.635,16.635,0,0,1-6.513-1.335L63.26,70.289V56.231H77.318Z" fill="#e6e7e8"/>
        <path id="Trazado_899470" data-name="Trazado 899470" d="M93.812,11.926l32.1,5.67a57.977,57.977,0,0,1-14.2,5.2c-10.379,2.484-13.824,1.5-20.15,1.968Z" fill="#e6e7e8"/>
        <path id="Trazado_899471" data-name="Trazado 899471" d="M52.6,94.656l5.693-13a16.635,16.635,0,0,0,6.513,1.335c5.483,0,5.483-1.968,10.942-1.968a18.409,18.409,0,0,1,6.888,1.453h.023l5.319,12.183a9.358,9.358,0,0,1-8.224,13.1,6.86,6.86,0,0,0-3.749-1.968l-23.617-4.17a9.208,9.208,0,0,1,.211-6.959Z" fill="#00eed1"/>
        <path id="Trazado_899472" data-name="Trazado 899472" d="M36.269,132.94l1.617,4.4-17.619,6.42L7.451,108.526l17.6-6.4,1.617,4.4Z" fill="#1e81ce"/>
        <path id="Trazado_899473" data-name="Trazado 899473" d="M81.676,111.432l16.846-6.115a6.853,6.853,0,0,1,5.365.234,7.029,7.029,0,0,1-.562,12.957L61.5,133.737,54.9,136.15l-14.222-4.8-4.4,1.593-9.606-26.405,17.5-6.373,5.459.961,2.765.492,23.617,4.17a7.123,7.123,0,0,1,5.389,4.522,6.078,6.078,0,0,1,.281,1.125Z" fill="#ffdaaa"/>
        <rect id="Rectángulo_406037" data-name="Rectángulo 406037" width="14.058" height="4.686" transform="translate(63.26 56.231)" fill="#d8d7da"/>
        <path id="Trazado_899474" data-name="Trazado 899474" d="M104.883,103.423a9.283,9.283,0,0,0-7.167-.319l-10.176,3.7a11.687,11.687,0,0,0,2.584-13.09L84.815,81.535a2,2,0,0,0-.143-.272L79.661,69.8V58.143a7.013,7.013,0,0,0-2.343-13.627H63.26a7.013,7.013,0,0,0-2.343,13.627V69.8L50.456,93.719a11.532,11.532,0,0,0-.937,5.012l-4.953-.874a2.3,2.3,0,0,0-1.207.108l-15.3,5.569-.8-2.2a2.343,2.343,0,0,0-3-1.406l-17.617,6.41a2.343,2.343,0,0,0-1.406,3L18.06,144.561a2.343,2.343,0,0,0,3,1.406l17.612-6.413a2.343,2.343,0,0,0,1.406-3l-.8-2.2,1.432-.522,13.432,4.538a2.369,2.369,0,0,0,1.553-.019l48.434-17.631a9.372,9.372,0,0,0,.757-17.293Zm-83.22,37.338-11.22-30.824,13.221-4.81.8,2.2h0l.614,1.689,9.8,26.93ZM65.6,70.289V58.574h9.372V70.289a2.343,2.343,0,0,0,.194.937l3.336,7.64a18.781,18.781,0,0,0-2.758-.19A16.115,16.115,0,0,0,69.5,79.8a11.762,11.762,0,0,1-4.686.846,11.6,11.6,0,0,1-3.339-.415l3.936-9A2.343,2.343,0,0,0,65.6,70.289ZM63.26,49.2H77.318a2.343,2.343,0,1,1,0,4.686H63.26a2.343,2.343,0,1,1,0-4.686ZM54.746,95.593l4.829-11.035a15.909,15.909,0,0,0,5.232.768A16.192,16.192,0,0,0,71.083,84.2a13.31,13.31,0,0,1,9.313,0c.173.063.363.117.539.178L85.83,95.593a6.947,6.947,0,0,1-5.351,9.691,9.33,9.33,0,0,0-4.072-1.818L54.258,99.557A6.893,6.893,0,0,1,54.746,95.593Zm50.428,18.3a4.686,4.686,0,0,1-2.648,2.423L54.861,133.65l-13.435-4.538a2.343,2.343,0,0,0-1.551.019l-2.2.8L29.66,107.908l14.711-5.356,31.222,5.529a4.646,4.646,0,0,1,3.6,3.013,3,3,0,0,1,.162.586,1.112,1.112,0,0,0,.037.234,4.269,4.269,0,0,1,.019,1.584,4.712,4.712,0,0,1-5.433,3.814L47.59,112.669l-.813,4.613,26.379,4.653A9.409,9.409,0,0,0,84.019,114.3a9.636,9.636,0,0,0,.1-1.258l15.2-5.534a4.686,4.686,0,0,1,5.857,6.387Z"/>
        <rect id="Rectángulo_406038" data-name="Rectángulo 406038" width="4.686" height="4.686" transform="translate(63.26 93.719)"/>
        <rect id="Rectángulo_406039" data-name="Rectángulo 406039" width="4.686" height="4.686" transform="translate(72.632 89.033)"/>
        <path id="Trazado_899475" data-name="Trazado 899475" d="M144.114,21.206a9.3,9.3,0,0,0-6.05-3.854l-41.953-7.4a7.015,7.015,0,0,0-13.824-.061L79.846,23.741a7.008,7.008,0,0,0,13.018,4.67l41.953,7.4a9.372,9.372,0,0,0,9.3-14.6ZM94.368,22.293l.105-.6,1.244-7.057,22.188,3.913a66.4,66.4,0,0,1-6.736,1.966,54.926,54.926,0,0,1-14.526,1.741c-.733,0-1.492.014-2.275.033ZM88.1,26.879a2.329,2.329,0,0,1-1.75.389h0a2.343,2.343,0,0,1-1.9-2.713l2.448-13.847a2.343,2.343,0,0,1,2.3-1.935,2.256,2.256,0,0,1,.415.037,2.343,2.343,0,0,1,1.9,2.711L89.068,25.365a2.324,2.324,0,0,1-.972,1.514Zm52.951.515a4.686,4.686,0,0,1-5.429,3.8l-28.584-5.042c1.551-.26,3.28-.607,5.234-1.078a59.429,59.429,0,0,0,14.018-5.044l10.977,1.935a4.686,4.686,0,0,1,3.784,5.429Z"/>
        <rect id="Rectángulo_406040" data-name="Rectángulo 406040" width="4.686" height="4.686" transform="translate(72.632 35.145)"/>
        <rect id="Rectángulo_406041" data-name="Rectángulo 406041" width="4.686" height="4.686" transform="translate(63.26 30.459)"/>
        <rect id="Rectángulo_406042" data-name="Rectángulo 406042" width="4.686" height="4.686" transform="translate(70.289 23.43)"/>
      </g>
    </g>
  </g>
</svg>
