<svg xmlns="http://www.w3.org/2000/svg" width="85" height="69.622" viewBox="0 0 85 69.622">
  <g id="Grupo_1108660" data-name="Grupo 1108660" transform="translate(-189.051 -3630)">
    <g id="atomo_3_" data-name="atomo (3)" transform="translate(189.051 3630)">
      <path id="Trazado_899498" data-name="Trazado 899498" d="M161.438,193.555a.973.973,0,0,1-.791-1.522l9.919-14.17a.967.967,0,0,1,1.584,1.109l-9.919,14.17A.965.965,0,0,1,161.438,193.555Z" transform="translate(-134.393 -156.143)" fill="#edebf2"/>
      <path id="Trazado_899499" data-name="Trazado 899499" d="M150.123,391.77c-.256,8.094-11.994,8.092-12.248,0C138.131,383.676,149.869,383.678,150.123,391.77Z" transform="translate(-115.681 -328.593)" fill="#ffba55"/>
      <path id="Trazado_899500" data-name="Trazado 899500" d="M151.506,365.454a.967.967,0,0,1-.917-.661L147,354.015a.967.967,0,0,1,1.834-.612l3.593,10.777a.971.971,0,0,1-.917,1.273Z" transform="translate(-123.188 -301.31)" fill="#edebf2"/>
      <path id="Trazado_899501" data-name="Trazado 899501" d="M20.045,367.974c-.163,6.376-9.506,6.375-9.67,0C10.538,361.6,19.882,361.6,20.045,367.974Z" transform="translate(-10.099 -309.955)" fill="#84b749"/>
      <path id="Trazado_899502" data-name="Trazado 899502" d="M37.623,189.27c-.256,8.094-11.994,8.092-12.248,0C25.631,181.176,37.369,181.178,37.623,189.27Z" transform="translate(-22.52 -160.904)" fill="#ffba55"/>
      <path id="Trazado_899503" data-name="Trazado 899503" d="M33.857,333a.973.973,0,0,1-.625-1.705l13.316-11.268a.967.967,0,0,1,1.249,1.477L34.481,332.772A.963.963,0,0,1,33.857,333Z" transform="translate(-28.746 -274.015)" fill="#edebf2"/>
      <path id="Trazado_899504" data-name="Trazado 899504" d="M63.419,223.332a.964.964,0,0,1-.743-.348l-7.116-8.539a.967.967,0,0,1,1.486-1.238l7.115,8.539a.974.974,0,0,1-.742,1.586Z" transform="translate(-47.324 -185.46)" fill="#edebf2"/>
      <path id="Trazado_899505" data-name="Trazado 899505" d="M98.176,260.375a10.009,10.009,0,0,1-9.992,9.992c-13.237-.508-13.233-19.477,0-19.984A10.009,10.009,0,0,1,98.176,260.375Z" transform="translate(-66.313 -216.537)" fill="#f8834b"/>
      <path id="Trazado_899506" data-name="Trazado 899506" d="M152.524,290.863a.973.973,0,0,1-.684-1.65,4.2,4.2,0,0,0,0-5.926.967.967,0,0,1,1.367-1.367,6.131,6.131,0,0,1,0,8.661A.964.964,0,0,1,152.524,290.863Z" transform="translate(-127.005 -242.412)" fill="#f16f39"/>
      <path id="Trazado_899507" data-name="Trazado 899507" d="M455.045,345.474c-.163,6.376-9.506,6.375-9.67,0C445.539,339.1,454.882,339.1,455.045,345.474Z" transform="translate(-370.321 -291.323)" fill="#84b749"/>
      <path id="Trazado_899508" data-name="Trazado 899508" d="M72.545,105.474c-.163,6.376-9.506,6.375-9.67,0C63.038,99.1,72.382,99.1,72.545,105.474Z" transform="translate(-53.574 -92.579)" fill="#84b749"/>
      <path id="Trazado_899509" data-name="Trazado 899509" d="M86.357,99.631a.974.974,0,0,1-.63-1.7l6.09-5.219a.967.967,0,0,1,1.259,1.468L86.987,99.4A.965.965,0,0,1,86.357,99.631Z" transform="translate(-72.221 -85.77)" fill="#edebf2"/>
      <path id="Trazado_899510" data-name="Trazado 899510" d="M387.545,172.974c-.164,6.376-9.506,6.375-9.67,0C378.038,166.6,387.382,166.6,387.545,172.974Z" transform="translate(-314.424 -148.476)" fill="#6fabe6"/>
      <path id="Trazado_899511" data-name="Trazado 899511" d="M245.045,247.974c-.164,6.376-9.506,6.375-9.67,0C235.538,241.6,244.882,241.6,245.045,247.974Z" transform="translate(-196.42 -210.583)" fill="#6fabe6"/>
      <path id="Trazado_899512" data-name="Trazado 899512" d="M125.045,60.474c-.163,6.376-9.506,6.375-9.67,0C115.538,54.1,124.882,54.1,125.045,60.474Z" transform="translate(-97.049 -55.315)" fill="#6fabe6"/>
      <path id="Trazado_899513" data-name="Trazado 899513" d="M335.045,120.474c-.163,6.376-9.506,6.375-9.67,0C325.538,114.1,334.882,114.1,335.045,120.474Z" transform="translate(-270.949 -105.001)" fill="#6fabe6"/>
      <g id="Grupo_1108648" data-name="Grupo 1108648" transform="translate(22.192 4.183)">
        <path id="Trazado_899514" data-name="Trazado 899514" d="M402.091,201.34a.967.967,0,0,1-.963-.886l-.752-9.025a.967.967,0,1,1,1.928-.161l.752,9.025a.968.968,0,0,1-.965,1.047Z" transform="translate(-355.246 -171.033)" fill="#edebf2"/>
        <path id="Trazado_899515" data-name="Trazado 899515" d="M249.943,222.957a.967.967,0,0,1-.947-.777l-1.845-9.224a.967.967,0,0,1,1.9-.379l1.845,9.224a.969.969,0,0,1-.949,1.156Z" transform="translate(-228.346 -188.782)" fill="#edebf2"/>
        <path id="Trazado_899516" data-name="Trazado 899516" d="M295.881,141.031a.968.968,0,0,1-.126-1.925l9.117-1.216a.967.967,0,0,1,.255,1.918l-9.117,1.216A1,1,0,0,1,295.881,141.031Z" transform="translate(-267.931 -127.558)" fill="#edebf2"/>
        <path id="Trazado_899517" data-name="Trazado 899517" d="M435.1,318.465a.965.965,0,0,1-.783-.4l-4.252-5.846a.967.967,0,0,1,1.564-1.137l4.252,5.846A.973.973,0,0,1,435.1,318.465Z" transform="translate(-379.675 -270.654)" fill="#edebf2"/>
        <path id="Trazado_899518" data-name="Trazado 899518" d="M147.417,86.377a.964.964,0,0,1-.589-.2l-8.586-6.605a.967.967,0,0,1,1.18-1.532l8.586,6.605A.973.973,0,0,1,147.417,86.377Z" transform="translate(-137.863 -77.829)" fill="#edebf2"/>
      </g>
      <path id="Trazado_899519" data-name="Trazado 899519" d="M198.263,104.164a11.3,11.3,0,0,1-11.281,11.281c-14.954-.6-14.949-21.964,0-22.562a11.3,11.3,0,0,1,11.281,11.281Z" transform="translate(-147.06 -86.112)" fill="#f8834b"/>
      <path id="Trazado_899520" data-name="Trazado 899520" d="M242.788,123.763a.967.967,0,0,1-.967-.967,5.486,5.486,0,0,0-5.479-5.48.967.967,0,1,1,0-1.934,7.422,7.422,0,0,1,7.413,7.413.967.967,0,0,1-.967.967Z" transform="translate(-196.42 -104.744)" fill="#f16f39"/>
      <path id="Trazado_899521" data-name="Trazado 899521" d="M385.2,250.617c-.313,9.8-14.516,9.795-14.827,0C370.688,240.82,384.891,240.822,385.2,250.617Z" transform="translate(-308.214 -210.647)" fill="#ffba55"/>
      <path id="Trazado_899522" data-name="Trazado 899522" d="M355.831,309.567a.973.973,0,0,1-.813-1.49l7.375-11.471a.967.967,0,0,1,1.627,1.046l-7.375,11.471a.966.966,0,0,1-.814.444Z" transform="translate(-295.373 -254.448)" fill="#edebf2"/>
      <path id="Trazado_899523" data-name="Trazado 899523" d="M308.177,342.875a10.009,10.009,0,0,1-9.992,9.992c-13.237-.508-13.233-19.477,0-19.984A10.009,10.009,0,0,1,308.177,342.875Z" transform="translate(-240.213 -284.855)" fill="#f8834b"/>
      <path id="Trazado_899524" data-name="Trazado 899524" d="M140.34,260.375a10.009,10.009,0,0,1-9.992,9.992,11.339,11.339,0,0,1-1.173-.1c11.359-1.788,11.351-17.993,0-19.778a11.4,11.4,0,0,1,1.173-.1A10.009,10.009,0,0,1,140.34,260.375Z" transform="translate(-108.477 -216.537)" fill="#ed784a"/>
      <path id="Trazado_899525" data-name="Trazado 899525" d="M246.629,104.164a11.3,11.3,0,0,1-11.281,11.281c-.4-.013-.8-.052-1.173-.09,13.083-1.934,13.074-20.452,0-22.382.374-.039.774-.077,1.173-.09A11.3,11.3,0,0,1,246.629,104.164Z" transform="translate(-195.427 -86.112)" fill="#ed784a"/>
      <path id="Trazado_899526" data-name="Trazado 899526" d="M350.34,342.875a10.009,10.009,0,0,1-9.992,9.992,11.34,11.34,0,0,1-1.173-.1c11.359-1.788,11.351-17.993,0-19.778a11.357,11.357,0,0,1,1.173-.1A10.009,10.009,0,0,1,350.34,342.875Z" transform="translate(-282.377 -284.855)" fill="#ed784a"/>
      <path id="Trazado_899527" data-name="Trazado 899527" d="M316.5,392.474a6.131,6.131,0,0,1-6.124-6.124.967.967,0,1,1,1.934,0,4.194,4.194,0,0,0,4.19,4.19A.967.967,0,0,1,316.5,392.474Z" transform="translate(-258.528 -328.33)" fill="#f16f39"/>
      <path id="Trazado_899528" data-name="Trazado 899528" d="M234.834,116.079a5.163,5.163,0,0,1,5.157,5.157,1.289,1.289,0,0,0,2.579,0,7.744,7.744,0,0,0-7.736-7.736A1.289,1.289,0,0,0,234.834,116.079Z" transform="translate(-194.913 -103.185)"/>
      <path id="Trazado_899529" data-name="Trazado 899529" d="M150.045,289.24a1.289,1.289,0,0,0,1.822,0,6.453,6.453,0,0,0,0-9.116,1.289,1.289,0,0,0-1.822,1.823,3.873,3.873,0,0,1,0,5.47A1.289,1.289,0,0,0,150.045,289.24Z" transform="translate(-125.438 -240.845)"/>
      <path id="Trazado_899530" data-name="Trazado 899530" d="M314.946,388.7a3.872,3.872,0,0,1-3.868-3.868,1.289,1.289,0,0,0-2.579,0,6.454,6.454,0,0,0,6.446,6.446A1.289,1.289,0,0,0,314.946,388.7Z" transform="translate(-256.975 -326.817)"/>
      <path id="Trazado_899531" data-name="Trazado 899531" d="M318.215,195.647a5.113,5.113,0,0,0-1.887.369l-2.9-3.99c4.575-4.487,1.537-12.679-4.873-13.107L308.309,176a5.153,5.153,0,0,0-1.7-10c-6.279.11-7,9.09-.871,10.226l.243,2.917c-5.841,1.354-7.842,9.248-3.285,13.194l-1.96,3.047c-6.567-3.352-14.937,1.878-14.756,9.294A10.326,10.326,0,0,0,296.3,214.985c9.588.045,13.935-12.214,6.614-18.218l1.95-3.034a7.747,7.747,0,0,0,6.477-.193l2.912,4a5.161,5.161,0,0,0,3.964,8.416C325.03,205.745,325.029,195.863,318.215,195.647Zm-14.182,9.025c-.325,10.223-15.148,10.221-15.471,0a7.778,7.778,0,0,1,10.775-7.112l-1.637,2.547a1.289,1.289,0,1,0,2.169,1.394l1.631-2.537A7.708,7.708,0,0,1,304.033,204.672Zm0-33.521a2.577,2.577,0,1,1,4.048,2.114l-.185-2.22a1.289,1.289,0,1,0-2.57.214l.185,2.216A2.575,2.575,0,0,1,304.033,171.151ZM306.3,191.5c.563-.958,1.919-2.3.556-3.251-1.431-.845-2.093.954-2.729,1.862a5.169,5.169,0,0,1,3.775-8.645c7.933.478,6.046,12.113-1.6,10.034Zm11.916,11.884a2.579,2.579,0,0,1,0-5.157A2.579,2.579,0,0,1,318.215,203.382Z" transform="translate(-238.326 -146.654)"/>
      <path id="Trazado_899532" data-name="Trazado 899532" d="M13.879,106.357c-6.815.217-6.814,10.1,0,10.314a5.166,5.166,0,0,0,4.63-7.386l5.164-4.37a10.316,10.316,0,0,0,8.979,2.531l1.223,3.669c-5.648,3.212-3.358,11.993,3.212,12,9.044-.384,8.226-13.6-.764-12.815l-1.227-3.682c6.473-2.888,7.895-12.277,2.46-16.919l5.58-7.972a11.483,11.483,0,0,0,6.551,1.37l.632,3.162a5.156,5.156,0,0,0,2.24,9.781c6.62-.156,6.885-9.774.289-10.285L52.215,82.6a11.6,11.6,0,0,0,8.066-11.3l2.975-.4a5.163,5.163,0,0,0,9.93-1.937c-.129-6.422-9.377-6.961-10.251-.621l-3,.4c-2.016-8.7-13.475-11.826-19.591-5.245l-3.675-2.827a5.149,5.149,0,1,0-9.357.236l-1.465,1.256a5.162,5.162,0,1,0,1.67,1.966l1.465-1.256a5.134,5.134,0,0,0,6.1-.172l3.695,2.842a11.653,11.653,0,0,0,2.254,14.693l-5.582,7.974a10.348,10.348,0,0,0-10.362.44l-2.326-2.791c3.417-4.007.283-10.564-5.013-10.449a6.433,6.433,0,1,0,3.033,12.1l2.329,2.794A10.365,10.365,0,0,0,22,102.953l-5.153,4.36a5.116,5.116,0,0,0-2.97-.956Zm27.075,10.314a3.86,3.86,0,1,1-6.238-3.034l1.147,3.442a1.289,1.289,0,1,0,2.446-.816l-1.152-3.453A3.868,3.868,0,0,1,40.954,116.672ZM55.136,90.886a2.574,2.574,0,1,1-4.278-1.924l.435,2.177a1.289,1.289,0,1,0,2.528-.506l-.435-2.177a2.573,2.573,0,0,1,1.75,2.43Zm12.893-24.5A2.574,2.574,0,1,1,66,70.54l2.2-.293a1.289,1.289,0,0,0-.341-2.556l-2.211.295a2.58,2.58,0,0,1,2.382-1.6Zm-42.546,0a2.579,2.579,0,1,1-1.732-2.424l-1.686,1.445a1.29,1.29,0,0,0,1.678,1.959l1.692-1.45a2.563,2.563,0,0,1,.048.47Zm6.446-5.157a2.579,2.579,0,1,1,2.544-2.247l-1.759-1.353a1.289,1.289,0,1,0-1.573,2.043l1.768,1.36A2.563,2.563,0,0,1,31.929,61.233Zm7.736,10.314c.424-11.944,17.628-11.942,18.05,0,.166,6.569-7.34,11.144-13.085,8.049l2.161-3.087a1.289,1.289,0,0,0-2.113-1.478l-2.159,3.085a8.992,8.992,0,0,1-2.854-6.568ZM16.458,111.514a2.579,2.579,0,1,1-1.715-2.419l-1.7,1.435a1.289,1.289,0,1,0,1.666,1.968l1.7-1.438A2.568,2.568,0,0,1,16.458,111.514Zm1.289-25.786c-5.1-.134-5.1-7.6,0-7.736a3.876,3.876,0,0,1,3.314,5.831l-2.323-2.788a1.289,1.289,0,1,0-1.981,1.65l2.326,2.79A3.826,3.826,0,0,1,17.747,85.729Zm5.157,11.6c.325-10.223,15.148-10.221,15.471,0,.142,6.463-7.942,10.16-12.721,5.906l2.374-2.008a1.289,1.289,0,1,0-1.666-1.968l-2.37,2.006A7.676,7.676,0,0,1,22.9,97.332Z" transform="translate(-8.768 -53.496)"/>
    </g>
  </g>
</svg>
