<svg xmlns="http://www.w3.org/2000/svg" width="485" height="120" viewBox="0 0 485 120">
  <g id="Grupo_1108957" data-name="Grupo 1108957" transform="translate(-5357 6533)">
    <rect id="Rectángulo_406088" data-name="Rectángulo 406088" width="485" height="120" rx="5" transform="translate(5357 -6533)" fill="#fff"/>
    <path id="Trazado_899950" data-name="Trazado 899950" d="M-12-14.766A11.5,11.5,0,0,0-10.02-8.7Q-7.031-4.878.352-4.878A15.3,15.3,0,0,0,8.086-6.79a6.348,6.348,0,0,0,3.34-5.911,5.054,5.054,0,0,0-2.681-4.614,31.871,31.871,0,0,0-6.768-2.241l-6.284-1.582a30.656,30.656,0,0,1-8.877-3.34,9.982,9.982,0,0,1-5.1-8.877,13.563,13.563,0,0,1,4.812-10.811Q-8.657-48.3-.527-48.3q10.635,0,15.337,6.24a13.542,13.542,0,0,1,2.856,8.525H10.2a9.151,9.151,0,0,0-1.89-4.878q-2.725-3.12-9.448-3.12-4.482,0-6.79,1.714a5.371,5.371,0,0,0-2.307,4.526,5.572,5.572,0,0,0,3.032,4.922,18.221,18.221,0,0,0,5.186,1.934l5.229,1.274q8.525,2.065,11.426,4,4.614,3.032,4.614,9.536A14.532,14.532,0,0,1,14.48-2.769Q9.712,1.8-.044,1.8q-10.5,0-14.875-4.768a18.032,18.032,0,0,1-4.68-11.8Z" transform="translate(5587 -6454)" fill="#12263f"/>
    <g id="Grupo_1108665" data-name="Grupo 1108665" transform="translate(-2165 2297)">
      <circle id="Elipse_11679" data-name="Elipse 11679" cx="5.5" cy="5.5" r="5.5" transform="translate(7739 -8812)" fill="#c00"/>
      <circle id="Elipse_11685" data-name="Elipse 11685" cx="5.5" cy="5.5" r="5.5" transform="translate(7778 -8775)" fill="#c00"/>
      <circle id="Elipse_11682" data-name="Elipse 11682" cx="5.5" cy="5.5" r="5.5" transform="translate(7739 -8740)" fill="#c00"/>
      <circle id="Elipse_11680" data-name="Elipse 11680" cx="5.5" cy="5.5" r="5.5" transform="translate(7759 -8812)" fill="#c00"/>
      <circle id="Elipse_11684" data-name="Elipse 11684" cx="5.5" cy="5.5" r="5.5" transform="translate(7719 -8775)" fill="#c00"/>
      <circle id="Elipse_11681" data-name="Elipse 11681" cx="5.5" cy="5.5" r="5.5" transform="translate(7759 -8740)" fill="#c00"/>
    </g>
  </g>
</svg>
