<svg xmlns="http://www.w3.org/2000/svg" width="485" height="204" viewBox="0 0 485 204">
  <g id="Grupo_1108958" data-name="Grupo 1108958" transform="translate(-5357 6269)">
    <rect id="Rectángulo_406090" data-name="Rectángulo 406090" width="485" height="204" rx="5" transform="translate(5357 -6269)" fill="#fff"/>
    <path id="Trazado_899951" data-name="Trazado 899951" d="M-9.331-11.484A8.947,8.947,0,0,0-7.793-6.768Q-5.469-3.794.273-3.794A11.9,11.9,0,0,0,6.289-5.281a4.937,4.937,0,0,0,2.6-4.6A3.931,3.931,0,0,0,6.8-13.467,24.789,24.789,0,0,0,1.538-15.21L-3.35-16.44a23.843,23.843,0,0,1-6.9-2.6,7.764,7.764,0,0,1-3.965-6.9,10.549,10.549,0,0,1,3.743-8.408Q-6.733-37.563-.41-37.563q8.271,0,11.929,4.854a10.533,10.533,0,0,1,2.222,6.631H7.93a7.118,7.118,0,0,0-1.47-3.794Q4.341-32.3-.889-32.3a8.784,8.784,0,0,0-5.281,1.333,4.178,4.178,0,0,0-1.794,3.521,4.333,4.333,0,0,0,2.358,3.828,14.172,14.172,0,0,0,4.033,1.5l4.067.991q6.631,1.606,8.887,3.11,3.589,2.358,3.589,7.417a11.3,11.3,0,0,1-3.708,8.442Q7.554,1.4-.034,1.4-8.2,1.4-11.6-2.307a14.025,14.025,0,0,1-3.64-9.177Z" transform="translate(5600 -6150)" fill="#12263f"/>
    <path id="Trazado_899952" data-name="Trazado 899952" d="M-.427-3.965q6.118,0,8.391-4.631A23.073,23.073,0,0,0,10.237-18.9,18.348,18.348,0,0,0,8.6-27.241Q6-32.3-.359-32.3q-5.64,0-8.2,4.307A19.962,19.962,0,0,0-11.125-17.6,17.364,17.364,0,0,0-8.562-7.861Q-6-3.965-.427-3.965Zm.239-33.7a16.576,16.576,0,0,1,11.963,4.717q4.888,4.717,4.888,13.877,0,8.853-4.307,14.629T-1.008,1.333q-7.554,0-12-5.11T-17.449-17.5q0-9.229,4.683-14.7T-.188-37.666Z" transform="translate(5600 -6211)" fill="#12263f"/>
    <path id="Trazado_899953" data-name="Trazado 899953" d="M-.427-3.965q6.118,0,8.391-4.631A23.073,23.073,0,0,0,10.237-18.9,18.348,18.348,0,0,0,8.6-27.241Q6-32.3-.359-32.3q-5.64,0-8.2,4.307A19.962,19.962,0,0,0-11.125-17.6,17.364,17.364,0,0,0-8.562-7.861Q-6-3.965-.427-3.965Zm.239-33.7a16.576,16.576,0,0,1,11.963,4.717q4.888,4.717,4.888,13.877,0,8.853-4.307,14.629T-1.008,1.333q-7.554,0-12-5.11T-17.449-17.5q0-9.229,4.683-14.7T-.188-37.666Z" transform="translate(5646 -6148)" fill="#12263f"/>
    <path id="Trazado_899954" data-name="Trazado 899954" d="M-.427-3.965q6.118,0,8.391-4.631A23.073,23.073,0,0,0,10.237-18.9,18.348,18.348,0,0,0,8.6-27.241Q6-32.3-.359-32.3q-5.64,0-8.2,4.307A19.962,19.962,0,0,0-11.125-17.6,17.364,17.364,0,0,0-8.562-7.861Q-6-3.965-.427-3.965Zm.239-33.7a16.576,16.576,0,0,1,11.963,4.717q4.888,4.717,4.888,13.877,0,8.853-4.307,14.629T-1.008,1.333q-7.554,0-12-5.11T-17.449-17.5q0-9.229,4.683-14.7T-.188-37.666Z" transform="translate(5555 -6148)" fill="#12263f"/>
    <path id="Trazado_899955" data-name="Trazado 899955" d="M-.427-3.965q6.118,0,8.391-4.631A23.073,23.073,0,0,0,10.237-18.9,18.348,18.348,0,0,0,8.6-27.241Q6-32.3-.359-32.3q-5.64,0-8.2,4.307A19.962,19.962,0,0,0-11.125-17.6,17.364,17.364,0,0,0-8.562-7.861Q-6-3.965-.427-3.965Zm.239-33.7a16.576,16.576,0,0,1,11.963,4.717q4.888,4.717,4.888,13.877,0,8.853-4.307,14.629T-1.008,1.333q-7.554,0-12-5.11T-17.449-17.5q0-9.229,4.683-14.7T-.188-37.666Z" transform="translate(5600 -6087)" fill="#12263f"/>
    <path id="Trazado_899956" data-name="Trazado 899956" d="M3.5,0A3.5,3.5,0,1,1,0,3.5,3.5,3.5,0,0,1,3.5,0Z" transform="translate(5591 -6193)" fill="#12263f"/>
    <path id="Trazado_899957" data-name="Trazado 899957" d="M3.5,0A3.5,3.5,0,1,1,0,3.5,3.5,3.5,0,0,1,3.5,0Z" transform="translate(5546 -6189)" fill="#12263f"/>
    <path id="Trazado_899958" data-name="Trazado 899958" d="M3.5,0A3.5,3.5,0,1,1,0,3.5,3.5,3.5,0,0,1,3.5,0Z" transform="translate(5637 -6189)" fill="#12263f"/>
    <path id="Trazado_899959" data-name="Trazado 899959" d="M3.5,0A3.5,3.5,0,1,1,0,3.5,3.5,3.5,0,0,1,3.5,0Z" transform="translate(5546 -6144)" fill="#12263f"/>
    <path id="Trazado_899960" data-name="Trazado 899960" d="M3.5,0A3.5,3.5,0,1,1,0,3.5,3.5,3.5,0,0,1,3.5,0Z" transform="translate(5637 -6144)" fill="#12263f"/>
    <path id="Trazado_899961" data-name="Trazado 899961" d="M3.5,0A3.5,3.5,0,1,1,0,3.5,3.5,3.5,0,0,1,3.5,0Z" transform="translate(5591 -6131)" fill="#12263f"/>
    <path id="Trazado_899962" data-name="Trazado 899962" d="M3.5,0A3.5,3.5,0,1,1,0,3.5,3.5,3.5,0,0,1,3.5,0Z" transform="translate(5591 -6205)" fill="#12263f"/>
    <path id="Trazado_899963" data-name="Trazado 899963" d="M3.5,0A3.5,3.5,0,1,1,0,3.5,3.5,3.5,0,0,1,3.5,0Z" transform="translate(5574.808 -6238.184) rotate(-45)" fill="#12263f"/>
    <path id="Trazado_899964" data-name="Trazado 899964" d="M3.5,0A3.5,3.5,0,1,1,0,3.5,3.5,3.5,0,0,1,3.5,0Z" transform="translate(5626.265 -6090.816) rotate(135)" fill="#12263f"/>
    <path id="Trazado_899965" data-name="Trazado 899965" d="M3.5,0A3.5,3.5,0,1,1,0,3.5,3.5,3.5,0,0,1,3.5,0Z" transform="matrix(0.719, 0.695, -0.695, 0.719, 5612.598, -6251.617)" fill="#12263f"/>
    <path id="Trazado_899966" data-name="Trazado 899966" d="M3.5,0A3.5,3.5,0,1,1,0,3.5,3.5,3.5,0,0,1,3.5,0Z" transform="matrix(-0.719, -0.695, 0.695, -0.719, 5588.475, -6077.383)" fill="#12263f"/>
    <path id="Trazado_899967" data-name="Trazado 899967" d="M3.5,0A3.5,3.5,0,1,1,0,3.5,3.5,3.5,0,0,1,3.5,0Z" transform="translate(5591 -6143)" fill="#12263f"/>
    <path id="Trazado_899968" data-name="Trazado 899968" d="M3.5,0A3.5,3.5,0,1,1,0,3.5,3.5,3.5,0,0,1,3.5,0Z" transform="translate(5603 -6193)" fill="#12263f"/>
    <path id="Trazado_899969" data-name="Trazado 899969" d="M3.5,0A3.5,3.5,0,1,1,0,3.5,3.5,3.5,0,0,1,3.5,0Z" transform="translate(5558 -6189)" fill="#12263f"/>
    <path id="Trazado_899970" data-name="Trazado 899970" d="M3.5,0A3.5,3.5,0,1,1,0,3.5,3.5,3.5,0,0,1,3.5,0Z" transform="translate(5649 -6189)" fill="#12263f"/>
    <path id="Trazado_899971" data-name="Trazado 899971" d="M3.5,0A3.5,3.5,0,1,1,0,3.5,3.5,3.5,0,0,1,3.5,0Z" transform="translate(5558 -6144)" fill="#12263f"/>
    <path id="Trazado_899972" data-name="Trazado 899972" d="M3.5,0A3.5,3.5,0,1,1,0,3.5,3.5,3.5,0,0,1,3.5,0Z" transform="translate(5649 -6144)" fill="#12263f"/>
    <path id="Trazado_899973" data-name="Trazado 899973" d="M3.5,0A3.5,3.5,0,1,1,0,3.5,3.5,3.5,0,0,1,3.5,0Z" transform="translate(5577 -6159)" fill="#12263f"/>
    <path id="Trazado_899974" data-name="Trazado 899974" d="M3.5,0A3.5,3.5,0,1,1,0,3.5,3.5,3.5,0,0,1,3.5,0Z" transform="translate(5616 -6159)" fill="#12263f"/>
    <path id="Trazado_899975" data-name="Trazado 899975" d="M3.5,0A3.5,3.5,0,1,1,0,3.5,3.5,3.5,0,0,1,3.5,0Z" transform="translate(5603 -6131)" fill="#12263f"/>
    <path id="Trazado_899976" data-name="Trazado 899976" d="M3.5,0A3.5,3.5,0,1,1,0,3.5,3.5,3.5,0,0,1,3.5,0Z" transform="translate(5603 -6205)" fill="#12263f"/>
    <path id="Trazado_899977" data-name="Trazado 899977" d="M3.5,0A3.5,3.5,0,1,1,0,3.5,3.5,3.5,0,0,1,3.5,0Z" transform="translate(5583.293 -6246.668) rotate(-45)" fill="#12263f"/>
    <path id="Trazado_899978" data-name="Trazado 899978" d="M3.5,0A3.5,3.5,0,1,1,0,3.5,3.5,3.5,0,0,1,3.5,0Z" transform="translate(5617.779 -6082.332) rotate(135)" fill="#12263f"/>
    <path id="Trazado_899979" data-name="Trazado 899979" d="M3.5,0A3.5,3.5,0,1,1,0,3.5,3.5,3.5,0,0,1,3.5,0Z" transform="matrix(0.719, 0.695, -0.695, 0.719, 5621.229, -6243.281)" fill="#12263f"/>
    <path id="Trazado_899980" data-name="Trazado 899980" d="M3.5,0A3.5,3.5,0,1,1,0,3.5,3.5,3.5,0,0,1,3.5,0Z" transform="matrix(-0.719, -0.695, 0.695, -0.719, 5579.843, -6085.719)" fill="#12263f"/>
    <path id="Trazado_899981" data-name="Trazado 899981" d="M3.5,0A3.5,3.5,0,1,1,0,3.5,3.5,3.5,0,0,1,3.5,0Z" transform="translate(5577 -6171)" fill="#12263f"/>
    <path id="Trazado_899982" data-name="Trazado 899982" d="M3.5,0A3.5,3.5,0,1,1,0,3.5,3.5,3.5,0,0,1,3.5,0Z" transform="translate(5529 -6165)" fill="#12263f"/>
    <path id="Trazado_899983" data-name="Trazado 899983" d="M3.5,0A3.5,3.5,0,1,1,0,3.5,3.5,3.5,0,0,1,3.5,0Z" transform="translate(5664 -6165)" fill="#12263f"/>
    <path id="Trazado_899984" data-name="Trazado 899984" d="M3.5,0A3.5,3.5,0,1,1,0,3.5,3.5,3.5,0,0,1,3.5,0Z" transform="translate(5616 -6171)" fill="#12263f"/>
    <path id="Trazado_899985" data-name="Trazado 899985" d="M3.5,0A3.5,3.5,0,1,1,0,3.5,3.5,3.5,0,0,1,3.5,0Z" transform="translate(5603 -6143)" fill="#12263f"/>
  </g>
</svg>
