<svg xmlns="http://www.w3.org/2000/svg" xmlns:xlink="http://www.w3.org/1999/xlink" width="90" height="90" viewBox="0 0 90 90">
  <defs>
    <clipPath id="clip-path">
      <rect id="Rectángulo_406101" data-name="Rectángulo 406101" width="58" height="58" transform="translate(613.051 6142)" fill="#fff" stroke="#707070" stroke-width="1"/>
    </clipPath>
  </defs>
  <g id="Grupo_1108961" data-name="Grupo 1108961" transform="translate(-597.051 -6126)">
    <circle id="Elipse_11795" data-name="Elipse 11795" cx="45" cy="45" r="45" transform="translate(597.051 6126)" fill="#0ac675"/>
    <g id="Enmascarar_grupo_1098750" data-name="Enmascarar grupo 1098750" clip-path="url(#clip-path)">
      <g id="molecula" transform="translate(611.001 6139.95)">
        <g id="Grupo_1108682" data-name="Grupo 1108682">
          <g id="Grupo_1108681" data-name="Grupo 1108681">
            <path id="Trazado_899546" data-name="Trazado 899546" d="M10.889,37.763a.879.879,0,0,1-.736-.4c-1.29-1.975-2.647-3.9-3.958-5.772-1.324-1.883-2.694-3.832-4-5.837a.879.879,0,0,1-.013-.941A89.2,89.2,0,0,1,9.733,14.311a.876.876,0,0,1,.8-.307,51.37,51.37,0,0,0,12.1.247.875.875,0,0,1,.816.384,73.543,73.543,0,0,1,6.5,11.963.878.878,0,0,1-.093.857c-1.2,1.677-2.476,3.333-3.715,4.935s-2.5,3.238-3.684,4.894a.876.876,0,0,1-.666.367c-1.865.1-3.7.079-5.477.056-1.751-.024-3.56-.047-5.368.054h-.049Zm-6.918-12.5c1.2,1.817,2.45,3.6,3.663,5.321,1.227,1.746,2.492,3.547,3.714,5.4,1.693-.074,3.362-.053,4.981-.031s3.277.045,4.937-.032c1.128-1.564,2.322-3.108,3.477-4.6,1.128-1.459,2.292-2.964,3.386-4.477a71.9,71.9,0,0,0-5.854-10.789,53.144,53.144,0,0,1-11.5-.238,87.538,87.538,0,0,0-6.8,9.451Z" fill="#fff"/>
          </g>
        </g>
        <g id="Grupo_1108684" data-name="Grupo 1108684">
          <g id="Grupo_1108683" data-name="Grupo 1108683">
            <path id="Trazado_899547" data-name="Trazado 899547" d="M29.51,48.081a.877.877,0,0,1-.724-.382c-1.26-1.838-2.586-3.634-3.868-5.372s-2.626-3.559-3.9-5.421a.878.878,0,1,1,1.449-.993c1.26,1.838,2.586,3.634,3.868,5.372,1.2,1.623,2.434,3.3,3.625,5.017,1.652-.071,3.282-.05,4.858-.029s3.2.041,4.828-.031c1.1-1.447,2.255-2.874,3.379-4.259,1.094-1.347,2.222-2.736,3.284-4.134a65.758,65.758,0,0,0-5.679-9.958,54.448,54.448,0,0,1-11.706-.284.879.879,0,0,1,.238-1.742,52.517,52.517,0,0,0,11.815.23.893.893,0,0,1,.8.368A67.561,67.561,0,0,1,48.123,37.6a.88.88,0,0,1-.1.888c-1.172,1.565-2.426,3.11-3.639,4.6-1.2,1.476-2.438,3-3.586,4.536a.878.878,0,0,1-.657.351c-1.822.1-3.618.074-5.35.051-1.711-.022-3.474-.043-5.236.05H29.51Z" fill="#fff"/>
          </g>
        </g>
        <g id="Grupo_1108689" data-name="Grupo 1108689">
          <g id="Grupo_1108686" data-name="Grupo 1108686">
            <g id="Grupo_1108685" data-name="Grupo 1108685">
              <path id="Trazado_899548" data-name="Trazado 899548" d="M22.7,16.28a.879.879,0,0,1-.744-1.346l1.914-3.049a.879.879,0,1,1,1.488.936l-1.912,3.047a.878.878,0,0,1-.746.412Z" fill="#fff"/>
            </g>
          </g>
          <g id="Grupo_1108688" data-name="Grupo 1108688">
            <g id="Grupo_1108687" data-name="Grupo 1108687">
              <path id="Trazado_899549" data-name="Trazado 899549" d="M25.873,13.521a4.531,4.531,0,0,1-1.164-.158,4.921,4.921,0,0,1-3.357-3.014h0A4.027,4.027,0,0,1,21.8,6.625a5.179,5.179,0,0,1,4.115-2.118,3.6,3.6,0,0,1,3.236,1.639,5.026,5.026,0,0,1,.35,4.707,4.31,4.31,0,0,1-2.464,2.484,3.627,3.627,0,0,1-1.161.184ZM23.007,9.758a3.184,3.184,0,0,0,2.155,1.907,2.318,2.318,0,0,0,1.309.008,2.644,2.644,0,0,0,1.417-1.522,3.276,3.276,0,0,0-.2-3.024,1.861,1.861,0,0,0-1.735-.863,3.4,3.4,0,0,0-2.71,1.355,2.285,2.285,0,0,0-.239,2.139Z" fill="#fff"/>
            </g>
          </g>
        </g>
        <g id="Grupo_1108694" data-name="Grupo 1108694">
          <g id="Grupo_1108691" data-name="Grupo 1108691">
            <g id="Grupo_1108690" data-name="Grupo 1108690">
              <path id="Trazado_899550" data-name="Trazado 899550" d="M10.507,16.035a.878.878,0,0,1-.746-.412L7.848,12.575a.879.879,0,0,1,1.49-.934l1.913,3.048a.879.879,0,0,1-.744,1.346Z" fill="#fff"/>
            </g>
          </g>
          <g id="Grupo_1108693" data-name="Grupo 1108693">
            <g id="Grupo_1108692" data-name="Grupo 1108692">
              <path id="Trazado_899551" data-name="Trazado 899551" d="M7.329,13.278a3.6,3.6,0,0,1-1.163-.185A4.3,4.3,0,0,1,3.7,10.609,5.02,5.02,0,0,1,4.053,5.9,3.614,3.614,0,0,1,7.29,4.263a5.177,5.177,0,0,1,4.115,2.119,4.025,4.025,0,0,1,.444,3.722A4.919,4.919,0,0,1,8.493,13.12a4.537,4.537,0,0,1-1.164.158ZM7.178,6.02a1.9,1.9,0,0,0-1.667.865,3.275,3.275,0,0,0-.2,3.024,2.634,2.634,0,0,0,1.415,1.52,2.354,2.354,0,0,0,1.31-.007,3.183,3.183,0,0,0,2.153-1.907,2.286,2.286,0,0,0-.238-2.137,3.394,3.394,0,0,0-2.71-1.356H7.178Z" fill="#fff"/>
            </g>
          </g>
        </g>
        <g id="Grupo_1108699" data-name="Grupo 1108699">
          <g id="Grupo_1108696" data-name="Grupo 1108696">
            <g id="Grupo_1108695" data-name="Grupo 1108695">
              <path id="Trazado_899552" data-name="Trazado 899552" d="M7.874,42.706a.879.879,0,0,1-.744-1.346c.317-.5.907-1.508,1.5-2.512.6-1.021,1.2-2.04,1.523-2.553a.879.879,0,0,1,1.49.934c-.317.5-.907,1.508-1.5,2.512-.6,1.021-1.2,2.04-1.523,2.553a.878.878,0,0,1-.746.412Z" fill="#fff"/>
            </g>
          </g>
          <g id="Grupo_1108698" data-name="Grupo 1108698">
            <g id="Grupo_1108697" data-name="Grupo 1108697">
              <path id="Trazado_899553" data-name="Trazado 899553" d="M6.462,49.675a3.652,3.652,0,0,1-3.126-1.641,5.02,5.02,0,0,1-.349-4.706,4.308,4.308,0,0,1,2.462-2.484,4.044,4.044,0,0,1,2.327-.026,4.914,4.914,0,0,1,3.355,3.015,4.025,4.025,0,0,1-.444,3.722,5.177,5.177,0,0,1-4.115,2.119H6.462Zm.149-7.259a1.847,1.847,0,0,0-.6.093A2.634,2.634,0,0,0,4.6,44.028a3.275,3.275,0,0,0,.2,3.024,1.867,1.867,0,0,0,1.736.864,3.394,3.394,0,0,0,2.71-1.356,2.286,2.286,0,0,0,.238-2.137,3.179,3.179,0,0,0-2.155-1.907,2.786,2.786,0,0,0-.712-.1Z" fill="#fff"/>
            </g>
          </g>
        </g>
        <g id="Grupo_1108704" data-name="Grupo 1108704">
          <g id="Grupo_1108701" data-name="Grupo 1108701">
            <g id="Grupo_1108700" data-name="Grupo 1108700">
              <path id="Trazado_899554" data-name="Trazado 899554" d="M28.159,51.4a.889.889,0,0,1-.331-.064.88.88,0,0,1-.484-1.145L28.7,46.86a.879.879,0,0,1,1.629.661l-1.352,3.335A.88.88,0,0,1,28.159,51.4Z" fill="#fff"/>
            </g>
          </g>
          <g id="Grupo_1108703" data-name="Grupo 1108703">
            <g id="Grupo_1108702" data-name="Grupo 1108702">
              <path id="Trazado_899555" data-name="Trazado 899555" d="M25.652,57.841a3.658,3.658,0,0,1-3.091-1.667A5.178,5.178,0,0,1,21.87,51.6a4.03,4.03,0,0,1,2.758-2.54,4.917,4.917,0,0,1,4.41.957,4.025,4.025,0,0,1,1.339,1.9,4.3,4.3,0,0,1-.572,3.452,5.022,5.022,0,0,1-4.021,2.472l-.132,0Zm.227-7.2a2.722,2.722,0,0,0-.761.105,2.28,2.28,0,0,0-1.593,1.444,3.394,3.394,0,0,0,.487,2.99,1.853,1.853,0,0,0,1.715.9,3.276,3.276,0,0,0,2.567-1.612,2.637,2.637,0,0,0,.4-2.038,2.325,2.325,0,0,0-.771-1.056,3.291,3.291,0,0,0-2.047-.735ZM24.873,49.9h.011Z" fill="#fff"/>
            </g>
          </g>
        </g>
        <g id="Grupo_1108709" data-name="Grupo 1108709">
          <g id="Grupo_1108706" data-name="Grupo 1108706">
            <g id="Grupo_1108705" data-name="Grupo 1108705">
              <path id="Trazado_899556" data-name="Trazado 899556" d="M41.675,51.074a.88.88,0,0,1-.815-.548l-1.351-3.337a.879.879,0,0,1,1.629-.659l1.351,3.334a.88.88,0,0,1-.484,1.145.889.889,0,0,1-.331.064Z" fill="#fff"/>
            </g>
          </g>
          <g id="Grupo_1108708" data-name="Grupo 1108708">
            <g id="Grupo_1108707" data-name="Grupo 1108707">
              <path id="Trazado_899557" data-name="Trazado 899557" d="M44.183,57.511c-.043,0-.088,0-.133,0a5.024,5.024,0,0,1-4.021-2.472,4.3,4.3,0,0,1-.572-3.451,4.031,4.031,0,0,1,1.34-1.9,4.92,4.92,0,0,1,4.408-.957h0a4.027,4.027,0,0,1,2.758,2.538,5.182,5.182,0,0,1-.69,4.579,3.66,3.66,0,0,1-3.091,1.666Zm-.227-7.2a3.288,3.288,0,0,0-2.047.735,2.324,2.324,0,0,0-.772,1.057,2.634,2.634,0,0,0,.4,2.037,3.278,3.278,0,0,0,2.568,1.612,1.884,1.884,0,0,0,1.715-.9,3.4,3.4,0,0,0,.486-2.992,2.281,2.281,0,0,0-1.593-1.443,2.708,2.708,0,0,0-.76-.105Z" fill="#fff"/>
            </g>
          </g>
        </g>
        <g id="Grupo_1108714" data-name="Grupo 1108714">
          <g id="Grupo_1108711" data-name="Grupo 1108711">
            <g id="Grupo_1108710" data-name="Grupo 1108710">
              <path id="Trazado_899558" data-name="Trazado 899558" d="M51.956,39.533a.83.83,0,0,1-.14-.011c-.6-.1-1.486-.256-2.365-.415-.847-.153-1.691-.307-2.272-.4a.878.878,0,0,1,.279-1.735c.589.094,1.446.249,2.307.406s1.735.315,2.329.41a.879.879,0,0,1-.137,1.746Z" fill="#fff"/>
            </g>
          </g>
          <g id="Grupo_1108713" data-name="Grupo 1108713">
            <g id="Grupo_1108712" data-name="Grupo 1108712">
              <path id="Trazado_899559" data-name="Trazado 899559" d="M55.286,42.568h-.039a4.307,4.307,0,0,1-3.25-1.3,4,4,0,0,1-.933-2.131,4.914,4.914,0,0,1,1.46-4.267,0,0,0,0,1,0,0,4.016,4.016,0,0,1,3.6-1.046,5.177,5.177,0,0,1,3.559,2.958,3.657,3.657,0,0,1-.241,3.618,5.022,5.022,0,0,1-4.157,2.165Zm-1.57-6.4a3.186,3.186,0,0,0-.912,2.729,2.317,2.317,0,0,0,.5,1.207,2.637,2.637,0,0,0,1.952.708h.025a3.273,3.273,0,0,0,2.683-1.364,1.911,1.911,0,0,0,.116-1.934,3.4,3.4,0,0,0-2.308-1.964A2.3,2.3,0,0,0,53.716,36.166Z" fill="#fff"/>
            </g>
          </g>
        </g>
        <g id="Grupo_1108716" data-name="Grupo 1108716">
          <g id="Grupo_1108715" data-name="Grupo 1108715">
            <path id="Trazado_899560" data-name="Trazado 899560" d="M29.813,36.454A.878.878,0,0,1,29,35.241l1.58-3.846a2.31,2.31,0,0,1,2.683-1.608l3.832.093a.879.879,0,0,1-.022,1.758h-.022l-3.832-.093c-.2-.007-.672-.018-.8.1a1.549,1.549,0,0,0-.215.419L30.626,35.91a.879.879,0,0,1-.814.545Z" fill="#fff"/>
          </g>
        </g>
        <g id="Grupo_1108718" data-name="Grupo 1108718">
          <g id="Grupo_1108717" data-name="Grupo 1108717">
            <path id="Trazado_899561" data-name="Trazado 899561" d="M13.2,30.825a.835.835,0,0,1-.229-.031A5.487,5.487,0,0,1,12.3,20.428a.878.878,0,1,1,.673,1.623,3.731,3.731,0,0,0,.455,7.047.879.879,0,0,1-.229,1.727Z" fill="#fff"/>
          </g>
        </g>
      </g>
    </g>
  </g>
</svg>
