<svg xmlns="http://www.w3.org/2000/svg" xmlns:xlink="http://www.w3.org/1999/xlink" width="90" height="90" viewBox="0 0 90 90">
  <defs>
    <clipPath id="clip-path">
      <rect id="Rectángulo_406102" data-name="Rectángulo 406102" width="58" height="58" transform="translate(928.051 6142)" fill="#fff" stroke="#707070" stroke-width="1"/>
    </clipPath>
  </defs>
  <g id="Grupo_1108962" data-name="Grupo 1108962" transform="translate(-912.051 -6126)">
    <circle id="Elipse_11796" data-name="Elipse 11796" cx="45" cy="45" r="45" transform="translate(912.051 6126)" fill="#0ac675"/>
    <g id="Enmascarar_grupo_1098751" data-name="Enmascarar grupo 1098751" clip-path="url(#clip-path)">
      <g id="quimica_1_" data-name="quimica (1)" transform="translate(928.051 6144.332)">
        <path id="Trazado_899562" data-name="Trazado 899562" d="M56.867,32.987a1.134,1.134,0,0,0-1.133,1.132,1.035,1.035,0,0,0,.331.759,1.088,1.088,0,0,0,.8.289h0a1.091,1.091,0,1,0,0-2.179Zm0,0" fill="#fff"/>
        <path id="Trazado_899563" data-name="Trazado 899563" d="M52.335,32.984l-5.149,0-4.578-7.942L47.491,16.6a1.133,1.133,0,0,0,0-1.133l-4.866-8.44,3.35-5.282A1.133,1.133,0,0,0,44.062.527l-3.379,5.31-9.831-.019h0a1.144,1.144,0,0,0-.981.577l-4.885,8.432-9.063-.022-2.359-4.322a1.134,1.134,0,0,0-1.99,1.088L13.94,15.9,9.289,23.948H1.133a1.133,1.133,0,0,0,0,2.267H9.378l4.513,7.838-2.774,4a1.134,1.134,0,0,0,1.862,1.3l2.875-4.14,9.126.006,4.564,7.918-2.8,4.518a1.133,1.133,0,0,0,1.927,1.194l2.845-4.591,9.033.016,4.9,8.5a1.133,1.133,0,1,0,1.963-1.132L42.548,43.2l4.6-7.953,5.19,0a1.133,1.133,0,0,0,0-2.267ZM31.5,8.108l9.135.006L45.2,16.028l-4.548,7.865-9.135-.006-4.562-7.914Zm-6.546,24.84-9.1-.006L11.3,25.028l4.573-7.908,9.083.006,4.569,7.925Zm15.671,9.032-9.135-.006-4.543-7.881,4.567-7.9,9.147.006,4.537,7.87Zm0,0" fill="#fff"/>
        <path id="Trazado_899564" data-name="Trazado 899564" d="M10.4,8.2h0a1.14,1.14,0,0,0,0-2.281,1.137,1.137,0,0,0-1.087.813A1.146,1.146,0,0,0,10.4,8.2Zm0,0" fill="#fff"/>
        <path id="Trazado_899565" data-name="Trazado 899565" d="M10.109,41.493a1.133,1.133,0,0,0-1.578.285,1.133,1.133,0,1,0,1.578-.285Zm0,0" fill="#fff"/>
        <path id="Trazado_899566" data-name="Trazado 899566" d="M25.917,51.136a1.133,1.133,0,1,0,.507.7A1.136,1.136,0,0,0,25.917,51.136Zm0,0" fill="#fff"/>
        <path id="Trazado_899567" data-name="Trazado 899567" d="M18.322,8.178a.994.994,0,0,0,.514.125,1.072,1.072,0,0,0,.527-.125.391.391,0,0,0,.232-.34V4.571h2.493V7.838a.4.4,0,0,0,.23.34,1.05,1.05,0,0,0,.528.125.99.99,0,0,0,.5-.125.367.367,0,0,0,.21-.34V.469a.352.352,0,0,0-.2-.34,1.082,1.082,0,0,0-.514-.113,1.154,1.154,0,0,0-.532.113.375.375,0,0,0-.227.34V3.438H19.595V.469a.379.379,0,0,0-.23-.34,1.142,1.142,0,0,0-.529-.113,1.064,1.064,0,0,0-.51.113.354.354,0,0,0-.2.34V7.838a.364.364,0,0,0,.2.34Zm0,0" fill="#fff"/>
        <path id="Trazado_899568" data-name="Trazado 899568" d="M54.19,20.2a1.062,1.062,0,0,0-.511-.114,1.175,1.175,0,0,0-.538.114.379.379,0,0,0-.232.34v2.959H50.417V20.535a.37.37,0,0,0-.222-.34,1.123,1.123,0,0,0-.525-.114,1.084,1.084,0,0,0-.516.114.359.359,0,0,0-.21.34V27.9a.373.373,0,0,0,.208.34,1.011,1.011,0,0,0,.518.125,1.052,1.052,0,0,0,.521-.125.384.384,0,0,0,.226-.34V24.628H52.91V27.9a.4.4,0,0,0,.237.34,1.067,1.067,0,0,0,.533.125.967.967,0,0,0,.5-.125.362.362,0,0,0,.2-.34V20.535a.345.345,0,0,0-.193-.34Zm0,0" fill="#fff"/>
        <path id="Trazado_899569" data-name="Trazado 899569" d="M5.245,30.784a1.471,1.471,0,0,1,.525.085.883.883,0,0,1,.336.2.968.968,0,0,1,.185.3,1.306,1.306,0,0,1,.089.283c.012.072.02.157.028.255q.011.465.737.465a.84.84,0,0,0,.567-.153.757.757,0,0,0,.17-.573,1.887,1.887,0,0,0-.754-1.564,3.064,3.064,0,0,0-1.944-.59,2.747,2.747,0,0,0-1.878.629,2.463,2.463,0,0,0-.71,1.967v3.163a2.473,2.473,0,0,0,.7,1.967,2.745,2.745,0,0,0,1.88.629,2.994,2.994,0,0,0,1.951-.612A1.994,1.994,0,0,0,7.885,35.6a.74.74,0,0,0-.177-.573.868.868,0,0,0-.573-.153q-.692,0-.726.465a2.216,2.216,0,0,1-.051.4,1.739,1.739,0,0,1-.148.374.718.718,0,0,1-.351.323,1.361,1.361,0,0,1-.591.113c-.809,0-1.2-.435-1.2-1.3V32.088c0-.869.381-1.3,1.175-1.3Zm0,0" fill="#fff"/>
      </g>
    </g>
  </g>
</svg>
