<svg xmlns="http://www.w3.org/2000/svg" width="295" height="238" viewBox="0 0 295 238">
  <g id="Grupo_1108948" data-name="Grupo 1108948" transform="translate(-600.051 -869)">
    <rect id="Rectángulo_406043" data-name="Rectángulo 406043" width="295" height="238" rx="20" transform="translate(600.051 869)" fill="#e6f9e6"/>
    <path id="Trazado_899853" data-name="Trazado 899853" d="M23.015-7.3H10.527L7.063,0H-3.062L17.644-39.1h8.647L33.516,0H23.955Zm-9.05-7.278h8.11L20.356-28.064ZM45.574,0H36.711l7.144-41.25h8.862Zm21.3,18H51.41l.564-3.634,8.114-7.535L61.2,5.719Q63.817,3.087,63.6.753a1.79,1.79,0,0,0-1.88-1.864,2.474,2.474,0,0,0-2.044.979,5.011,5.011,0,0,0-1.042,2.64l-5.122.031a7.822,7.822,0,0,1,1.3-3.924A8.1,8.1,0,0,1,57.95-4.166a8.953,8.953,0,0,1,4.19-.987A7.408,7.408,0,0,1,67.31-3.343a5.565,5.565,0,0,1,1.6,4.723,7.707,7.707,0,0,1-1.151,3.415,17.6,17.6,0,0,1-2.937,3.493l-2.381,2.193L58.9,13.9l8.616.031Zm22.95-61.184,1.37,4.565A25.514,25.514,0,0,0,83.081-27.9q-2.927,6.848-3.813,17.939l-.134,2.632Q78.73,3.652,83.86,7.627l-1.934,4.458a14.667,14.667,0,0,1-5.479-4.847A21.5,21.5,0,0,1,73.225-.591a39.5,39.5,0,0,1-.833-9.614,52.831,52.831,0,0,1,2.471-14.421,36.754,36.754,0,0,1,6.042-11.79A20.923,20.923,0,0,1,89.822-43.184Zm20.518,32.6q.591-3.035-3.276-4.7l-4.4-1.826Q93.393-21.27,93.85-28.44a10,10,0,0,1,2.256-5.841,13.4,13.4,0,0,1,5.72-3.988,21.049,21.049,0,0,1,7.976-1.37,13.564,13.564,0,0,1,9.332,3.384,11.242,11.242,0,0,1,3.478,8.782h-9.131a5.471,5.471,0,0,0-.953-3.612,4.129,4.129,0,0,0-3.4-1.41,7.118,7.118,0,0,0-4.082,1.074,4.358,4.358,0,0,0-2.095,3.035q-.51,2.686,3.988,4.4a43.854,43.854,0,0,1,6.539,2.954q6.418,3.84,6.016,10.366a10.614,10.614,0,0,1-2.175,5.935,12.575,12.575,0,0,1-5.438,3.948,20.093,20.093,0,0,1-7.8,1.343A18.834,18.834,0,0,1,98.2-.43a12.941,12.941,0,0,1-4.646-2.739,11.9,11.9,0,0,1-3.76-9.534l9.211.027a6.307,6.307,0,0,0,1.155,4.552q1.316,1.544,4.431,1.544a6.649,6.649,0,0,0,3.854-1.061A4.4,4.4,0,0,0,110.339-10.581ZM138.672.537A13.244,13.244,0,0,1,128.9-3.491a16.407,16.407,0,0,1-4.163-10.42,29.786,29.786,0,0,1,.51-7.587,26.655,26.655,0,0,1,2.766-8.043,20.242,20.242,0,0,1,4.968-6.123,16.991,16.991,0,0,1,11.494-3.975,14.137,14.137,0,0,1,7,1.84,12.831,12.831,0,0,1,4.794,5.062,18.182,18.182,0,0,1,2.095,7.52,30.82,30.82,0,0,1-.363,6.781,27.945,27.945,0,0,1-2.122,7.251A22.163,22.163,0,0,1,151.885-5.1a18.346,18.346,0,0,1-5.76,4.176A16.662,16.662,0,0,1,138.672.537ZM149.145-25.3q-.269-6.714-5.21-6.982a7.191,7.191,0,0,0-6.311,3.021q-2.5,3.209-3.3,9.467a33.047,33.047,0,0,0-.376,5.989q.269,6.821,5.264,7.009a6.974,6.974,0,0,0,5.64-2.35,15.2,15.2,0,0,0,3.411-7.3A35.09,35.09,0,0,0,149.145-25.3ZM174.411,9.087h2.24l-.7,4.073h-2.24L172.86,18h-5.154l.846-4.84h-8.537l.282-3.478L171.5-4.761v-.11l5.326.078Zm-9.039-.031,3.885.031,1.379-7.08Zm28.585-24.336a45.774,45.774,0,0,1-3.37,12.233,33.421,33.421,0,0,1-6.15,9.668,21.111,21.111,0,0,1-8.043,5.519l-1.37-4.565A26.433,26.433,0,0,0,183.148-3.25q2.941-6.848,3.8-17.859l.161-2.632q.269-11.038-4.753-14.932l1.96-4.458a15.706,15.706,0,0,1,7.251,7.614,31.593,31.593,0,0,1,2.793,12.931l.027,1.692a45.278,45.278,0,0,1-.349,4.861Zm9.52,19.668,2.3.016a3.528,3.528,0,0,0,2.318-.822,3.345,3.345,0,0,0,1.081-2.217,2.278,2.278,0,0,0-.423-1.754,2.014,2.014,0,0,0-1.645-.7,2.75,2.75,0,0,0-1.8.564,2.643,2.643,0,0,0-1,1.582l-5.169.031a5.719,5.719,0,0,1,1.191-3.274,7.1,7.1,0,0,1,2.921-2.2,9.74,9.74,0,0,1,3.924-.76,8.237,8.237,0,0,1,5.42,1.809,5.371,5.371,0,0,1,1.8,4.613q-.2,3.227-4.214,5.107a5.136,5.136,0,0,1,2.271,2.083,5.471,5.471,0,0,1,.674,3.008,6.312,6.312,0,0,1-1.332,3.658,7.807,7.807,0,0,1-3.274,2.4,10.939,10.939,0,0,1-4.4.791,8.187,8.187,0,0,1-3.72-.869,6.161,6.161,0,0,1-2.561-2.358,6.514,6.514,0,0,1-.877-3.446H202.1a2.712,2.712,0,0,0,.658,1.833,2.38,2.38,0,0,0,1.8.752,3.451,3.451,0,0,0,2.3-.768,3.166,3.166,0,0,0,1.191-2.1,2.866,2.866,0,0,0-.415-2.185,2.485,2.485,0,0,0-2.013-.838l-2.757-.016Z" transform="translate(655.051 1004)" fill="#12263f"/>
    <path id="Trazado_899854" data-name="Trazado 899854" d="M6.05-2.611A1.052,1.052,0,0,0,5.64-3.5,5.38,5.38,0,0,0,4.163-4.16a10.467,10.467,0,0,1-1.688-.68,2.759,2.759,0,0,1-1.7-2.468,2.4,2.4,0,0,1,.455-1.439A2.965,2.965,0,0,1,2.54-9.734,4.914,4.914,0,0,1,4.45-10.09a4.473,4.473,0,0,1,1.9.386,3.026,3.026,0,0,1,1.3,1.09,2.853,2.853,0,0,1,.461,1.6H6.057a1.342,1.342,0,0,0-.431-1.063,1.77,1.77,0,0,0-1.21-.379,1.891,1.891,0,0,0-1.169.318A1,1,0,0,0,2.83-7.3a.96.96,0,0,0,.489.813,5.522,5.522,0,0,0,1.439.615,6.217,6.217,0,0,1,2.55,1.306,2.6,2.6,0,0,1,.8,1.941A2.4,2.4,0,0,1,7.13-.6,4.279,4.279,0,0,1,4.5.137a5.082,5.082,0,0,1-2.092-.42A3.31,3.31,0,0,1,.967-1.436a2.95,2.95,0,0,1-.5-1.7H2.529q0,1.647,1.969,1.647a1.915,1.915,0,0,0,1.142-.3A.967.967,0,0,0,6.05-2.611ZM11.5,0H9.522V-7.4H11.5Zm-.581-10.4H13.07L11.177-8.278H9.57Zm4.136,3,.062.827a2.6,2.6,0,0,1,2.126-.964A1.973,1.973,0,0,1,19.2-6.405a2.54,2.54,0,0,1,2.222-1.128,2.206,2.206,0,0,1,1.791.7A3.221,3.221,0,0,1,23.8-4.724V0H21.82V-4.717a1.408,1.408,0,0,0-.246-.919,1.091,1.091,0,0,0-.868-.291,1.233,1.233,0,0,0-1.23.848L19.482,0H17.507V-4.71a1.391,1.391,0,0,0-.253-.93,1.1,1.1,0,0,0-.861-.287,1.28,1.28,0,0,0-1.217.7V0H13.2V-7.4ZM31.985-3.63a4.479,4.479,0,0,1-.759,2.772,2.513,2.513,0,0,1-2.119.995,2.309,2.309,0,0,1-1.921-.923L27.1,0H25.32V-10.5H27.3v3.767a2.25,2.25,0,0,1,1.8-.8,2.534,2.534,0,0,1,2.123.995,4.485,4.485,0,0,1,.769,2.8ZM30.01-3.773a2.942,2.942,0,0,0-.355-1.637,1.2,1.2,0,0,0-1.06-.516,1.3,1.3,0,0,0-1.3.772v2.919a1.321,1.321,0,0,0,1.313.779A1.22,1.22,0,0,0,29.866-2.4,4.866,4.866,0,0,0,30.01-3.773Zm2.885.007a4.387,4.387,0,0,1,.424-1.962,3.1,3.1,0,0,1,1.22-1.333,3.56,3.56,0,0,1,1.849-.472,3.368,3.368,0,0,1,2.444.916,3.676,3.676,0,0,1,1.056,2.488l.014.506a3.866,3.866,0,0,1-.95,2.731A3.3,3.3,0,0,1,36.4.137,3.319,3.319,0,0,1,33.848-.889a3.934,3.934,0,0,1-.954-2.789Zm1.976.144a2.757,2.757,0,0,0,.4,1.61,1.309,1.309,0,0,0,1.135.557,1.312,1.312,0,0,0,1.121-.55,3.017,3.017,0,0,0,.4-1.76,2.73,2.73,0,0,0-.4-1.6,1.312,1.312,0,0,0-1.135-.567,1.29,1.29,0,0,0-1.121.564A3.068,3.068,0,0,0,34.87-3.623ZM43.2,0H41.221V-10.5H43.2Zm1.319-3.767a4.387,4.387,0,0,1,.424-1.962,3.1,3.1,0,0,1,1.22-1.333,3.56,3.56,0,0,1,1.849-.472,3.368,3.368,0,0,1,2.444.916,3.676,3.676,0,0,1,1.056,2.488l.014.506a3.866,3.866,0,0,1-.95,2.731A3.3,3.3,0,0,1,48.029.137,3.319,3.319,0,0,1,45.476-.889a3.934,3.934,0,0,1-.954-2.789Zm1.976.144a2.757,2.757,0,0,0,.4,1.61,1.309,1.309,0,0,0,1.135.557,1.312,1.312,0,0,0,1.121-.55,3.017,3.017,0,0,0,.4-1.76,2.73,2.73,0,0,0-.4-1.6,1.312,1.312,0,0,0-1.135-.567,1.29,1.29,0,0,0-1.121.564A3.068,3.068,0,0,0,46.5-3.623ZM56.752-2.044a.637.637,0,0,0-.359-.571,4.077,4.077,0,0,0-1.152-.373Q52.6-3.541,52.6-5.229a2.032,2.032,0,0,1,.817-1.644,3.3,3.3,0,0,1,2.136-.66,3.547,3.547,0,0,1,2.252.663,2.09,2.09,0,0,1,.844,1.723H56.677a.956.956,0,0,0-.273-.7,1.157,1.157,0,0,0-.854-.277,1.182,1.182,0,0,0-.772.226.712.712,0,0,0-.273.574.609.609,0,0,0,.311.53,3.2,3.2,0,0,0,1.049.349,8.571,8.571,0,0,1,1.244.332,2.044,2.044,0,0,1,1.565,1.989A1.929,1.929,0,0,1,57.8-.489a3.745,3.745,0,0,1-2.242.625,3.912,3.912,0,0,1-1.651-.332A2.77,2.77,0,0,1,52.78-1.1a2.113,2.113,0,0,1-.41-1.248h1.873a1.031,1.031,0,0,0,.39.807,1.546,1.546,0,0,0,.971.28,1.43,1.43,0,0,0,.858-.215A.67.67,0,0,0,56.752-2.044Z" transform="translate(626.051 927)" fill="#c06"/>
    <path id="Trazado_899855" data-name="Trazado 899855" d="M6.05-2.611A1.052,1.052,0,0,0,5.64-3.5,5.38,5.38,0,0,0,4.163-4.16a10.467,10.467,0,0,1-1.688-.68,2.759,2.759,0,0,1-1.7-2.468,2.4,2.4,0,0,1,.455-1.439A2.965,2.965,0,0,1,2.54-9.734,4.914,4.914,0,0,1,4.45-10.09a4.473,4.473,0,0,1,1.9.386,3.026,3.026,0,0,1,1.3,1.09,2.853,2.853,0,0,1,.461,1.6H6.057a1.342,1.342,0,0,0-.431-1.063,1.77,1.77,0,0,0-1.21-.379,1.891,1.891,0,0,0-1.169.318A1,1,0,0,0,2.83-7.3a.96.96,0,0,0,.489.813,5.522,5.522,0,0,0,1.439.615,6.217,6.217,0,0,1,2.55,1.306,2.6,2.6,0,0,1,.8,1.941A2.4,2.4,0,0,1,7.13-.6,4.279,4.279,0,0,1,4.5.137a5.082,5.082,0,0,1-2.092-.42A3.31,3.31,0,0,1,.967-1.436a2.95,2.95,0,0,1-.5-1.7H2.529q0,1.647,1.969,1.647a1.915,1.915,0,0,0,1.142-.3A.967.967,0,0,0,6.05-2.611ZM13.795-.752a2.477,2.477,0,0,1-2.023.889A2.337,2.337,0,0,1,9.957-.547a2.918,2.918,0,0,1-.639-2V-7.4h1.976v4.778q0,1.155,1.053,1.155a1.427,1.427,0,0,0,1.381-.7V-7.4h1.982V0H13.85ZM23.864-3.63a4.479,4.479,0,0,1-.759,2.772,2.513,2.513,0,0,1-2.119.995,2.309,2.309,0,0,1-1.921-.923L18.977,0H17.2V-10.5h1.976v3.767a2.25,2.25,0,0,1,1.8-.8,2.534,2.534,0,0,1,2.123.995,4.485,4.485,0,0,1,.769,2.8Zm-1.976-.144a2.942,2.942,0,0,0-.355-1.637,1.2,1.2,0,0,0-1.06-.516,1.3,1.3,0,0,0-1.3.772v2.919a1.321,1.321,0,0,0,1.313.779A1.22,1.22,0,0,0,21.745-2.4,4.866,4.866,0,0,0,21.889-3.773ZM27.214,0H25.238V-7.4h1.976Zm-.581-10.4h2.153L26.893-8.278H25.286Zm4.1,3,.062.854a2.582,2.582,0,0,1,2.126-.991,2.146,2.146,0,0,1,1.75.69,3.221,3.221,0,0,1,.588,2.064V0H33.284V-4.73a1.282,1.282,0,0,0-.273-.913,1.224,1.224,0,0,0-.909-.284,1.359,1.359,0,0,0-1.251.711V0H28.875V-7.4Zm5.715,3.644a4.457,4.457,0,0,1,.776-2.755,2.517,2.517,0,0,1,2.123-1.025,2.265,2.265,0,0,1,1.784.807V-10.5h1.982V0H41.33l-.1-.786a2.325,2.325,0,0,1-1.9.923,2.511,2.511,0,0,1-2.1-1.029A4.6,4.6,0,0,1,36.449-3.753Zm1.976.144a2.912,2.912,0,0,0,.362,1.593,1.181,1.181,0,0,0,1.053.554,1.322,1.322,0,0,0,1.292-.772V-5.154a1.3,1.3,0,0,0-1.278-.772Q38.425-5.927,38.425-3.609ZM46.73,0H44.748V-7.4H46.73Zm-2.1-9.311a.973.973,0,0,1,.3-.731,1.117,1.117,0,0,1,.81-.287,1.12,1.12,0,0,1,.807.287.967.967,0,0,1,.3.731.97.97,0,0,1-.3.738,1.122,1.122,0,0,1-.8.287,1.122,1.122,0,0,1-.8-.287A.97.97,0,0,1,44.632-9.311Zm6.8,7.854a1.3,1.3,0,0,0,.889-.3,1.054,1.054,0,0,0,.355-.8H54.53a2.534,2.534,0,0,1-.41,1.377,2.706,2.706,0,0,1-1.1.971,3.455,3.455,0,0,1-1.548.345,3.211,3.211,0,0,1-2.5-1.008,3.99,3.99,0,0,1-.916-2.786v-.13a3.944,3.944,0,0,1,.909-2.728,3.174,3.174,0,0,1,2.5-1.019,3.111,3.111,0,0,1,2.225.79,2.8,2.8,0,0,1,.851,2.1H52.678a1.346,1.346,0,0,0-.355-.933,1.188,1.188,0,0,0-.9-.359,1.19,1.19,0,0,0-1.042.5,2.908,2.908,0,0,0-.352,1.63V-3.6a2.945,2.945,0,0,0,.349,1.641A1.205,1.205,0,0,0,51.434-1.456ZM59.063.137a3.631,3.631,0,0,1-2.649-1,3.548,3.548,0,0,1-1.022-2.659v-.191A4.468,4.468,0,0,1,55.822-5.7a3.161,3.161,0,0,1,1.22-1.354,3.425,3.425,0,0,1,1.8-.475,3.07,3.07,0,0,1,2.389.957A3.889,3.889,0,0,1,62.1-3.862v.807h-4.71a1.835,1.835,0,0,0,.578,1.162,1.746,1.746,0,0,0,1.22.438,2.132,2.132,0,0,0,1.784-.827L61.947-1.2a2.966,2.966,0,0,1-1.2.981A3.947,3.947,0,0,1,59.063.137Zm-.226-6.07a1.237,1.237,0,0,0-.954.4A2.048,2.048,0,0,0,57.415-4.4h2.748V-4.56a1.46,1.46,0,0,0-.355-1.015A1.277,1.277,0,0,0,58.837-5.934Zm8.395,3.89a.637.637,0,0,0-.359-.571,4.077,4.077,0,0,0-1.152-.373q-2.639-.554-2.639-2.242A2.032,2.032,0,0,1,63.9-6.874a3.3,3.3,0,0,1,2.136-.66,3.547,3.547,0,0,1,2.252.663,2.09,2.09,0,0,1,.844,1.723H67.156a.956.956,0,0,0-.273-.7,1.157,1.157,0,0,0-.854-.277,1.182,1.182,0,0,0-.772.226.712.712,0,0,0-.273.574.609.609,0,0,0,.311.53,3.2,3.2,0,0,0,1.049.349,8.571,8.571,0,0,1,1.244.332,2.044,2.044,0,0,1,1.565,1.989,1.929,1.929,0,0,1-.868,1.637,3.745,3.745,0,0,1-2.242.625,3.912,3.912,0,0,1-1.651-.332A2.77,2.77,0,0,1,63.26-1.1a2.113,2.113,0,0,1-.41-1.248h1.873a1.031,1.031,0,0,0,.39.807,1.546,1.546,0,0,0,.971.28,1.43,1.43,0,0,0,.858-.215A.67.67,0,0,0,67.231-2.044Z" transform="translate(748.051 936)" fill="#c06"/>
    <path id="Trazado_899856" data-name="Trazado 899856" d="M2.939-3.507V0H.889V-9.953H4.771a4.492,4.492,0,0,1,1.972.41A3.022,3.022,0,0,1,8.053-8.377a3.25,3.25,0,0,1,.458,1.719,2.858,2.858,0,0,1-1,2.307,4.171,4.171,0,0,1-2.772.844Zm0-1.661H4.771a1.8,1.8,0,0,0,1.241-.383,1.392,1.392,0,0,0,.427-1.094,1.642,1.642,0,0,0-.431-1.183,1.609,1.609,0,0,0-1.189-.465H2.939ZM14,0a2.194,2.194,0,0,1-.2-.663,2.39,2.39,0,0,1-1.866.8,2.626,2.626,0,0,1-1.8-.629A2.023,2.023,0,0,1,9.42-2.078a2.09,2.09,0,0,1,.872-1.8,4.3,4.3,0,0,1,2.519-.636h.909v-.424a1.219,1.219,0,0,0-.263-.82,1.035,1.035,0,0,0-.831-.308,1.177,1.177,0,0,0-.783.239.813.813,0,0,0-.284.656H9.584a1.984,1.984,0,0,1,.4-1.189A2.621,2.621,0,0,1,11.1-7.222a4.086,4.086,0,0,1,1.627-.311,3.228,3.228,0,0,1,2.17.687,2.4,2.4,0,0,1,.8,1.931v3.206A3.536,3.536,0,0,0,16-.116V0ZM12.366-1.374a1.7,1.7,0,0,0,.807-.195,1.28,1.28,0,0,0,.547-.523V-3.363h-.738q-1.483,0-1.579,1.025l-.007.116a.791.791,0,0,0,.26.608A1.009,1.009,0,0,0,12.366-1.374Zm9.01-4.17a5.367,5.367,0,0,0-.711-.055,1.447,1.447,0,0,0-1.47.759V0H17.22V-7.4h1.866l.055.882a1.831,1.831,0,0,1,1.647-1.019,2.07,2.07,0,0,1,.615.089ZM25.73.137a3.631,3.631,0,0,1-2.649-1A3.548,3.548,0,0,1,22.06-3.521v-.191A4.468,4.468,0,0,1,22.49-5.7a3.161,3.161,0,0,1,1.22-1.354,3.425,3.425,0,0,1,1.8-.475,3.07,3.07,0,0,1,2.389.957,3.889,3.889,0,0,1,.872,2.714v.807h-4.71a1.835,1.835,0,0,0,.578,1.162,1.746,1.746,0,0,0,1.22.438,2.132,2.132,0,0,0,1.784-.827L28.615-1.2a2.966,2.966,0,0,1-1.2.981A3.947,3.947,0,0,1,25.73.137ZM25.5-5.934a1.237,1.237,0,0,0-.954.4A2.048,2.048,0,0,0,24.083-4.4h2.748V-4.56a1.46,1.46,0,0,0-.355-1.015A1.277,1.277,0,0,0,25.5-5.934Zm.178-4.566h2.153L25.942-8.381H24.336Zm6.029,3.1.062.854A2.582,2.582,0,0,1,33.9-7.533a2.146,2.146,0,0,1,1.75.69,3.221,3.221,0,0,1,.588,2.064V0H34.262V-4.73a1.282,1.282,0,0,0-.273-.913,1.224,1.224,0,0,0-.909-.284,1.359,1.359,0,0,0-1.251.711V0H29.853V-7.4ZM40.1-9.215V-7.4h1.265v1.449H40.1v3.691a.881.881,0,0,0,.157.588.79.79,0,0,0,.6.178,3.151,3.151,0,0,0,.581-.048v1.5a4.067,4.067,0,0,1-1.2.178,1.886,1.886,0,0,1-2.119-2.1V-5.947h-1.08V-7.4h1.08V-9.215ZM45.869.137a3.631,3.631,0,0,1-2.649-1A3.548,3.548,0,0,1,42.2-3.521v-.191A4.468,4.468,0,0,1,42.629-5.7a3.161,3.161,0,0,1,1.22-1.354,3.425,3.425,0,0,1,1.8-.475,3.07,3.07,0,0,1,2.389.957,3.889,3.889,0,0,1,.872,2.714v.807H44.2a1.835,1.835,0,0,0,.578,1.162A1.746,1.746,0,0,0,46-1.456a2.132,2.132,0,0,0,1.784-.827L48.754-1.2a2.966,2.966,0,0,1-1.2.981A3.947,3.947,0,0,1,45.869.137Zm-.226-6.07a1.237,1.237,0,0,0-.954.4A2.048,2.048,0,0,0,44.222-4.4H46.97V-4.56a1.46,1.46,0,0,0-.355-1.015A1.277,1.277,0,0,0,45.644-5.934Zm8.395,3.89a.637.637,0,0,0-.359-.571,4.077,4.077,0,0,0-1.152-.373q-2.639-.554-2.639-2.242a2.032,2.032,0,0,1,.817-1.644,3.3,3.3,0,0,1,2.136-.66,3.547,3.547,0,0,1,2.252.663,2.09,2.09,0,0,1,.844,1.723H53.963a.956.956,0,0,0-.273-.7,1.157,1.157,0,0,0-.854-.277,1.182,1.182,0,0,0-.772.226.712.712,0,0,0-.273.574.609.609,0,0,0,.311.53,3.2,3.2,0,0,0,1.049.349,8.571,8.571,0,0,1,1.244.332,2.044,2.044,0,0,1,1.565,1.989,1.929,1.929,0,0,1-.868,1.637,3.745,3.745,0,0,1-2.242.625A3.912,3.912,0,0,1,51.2-.195,2.77,2.77,0,0,1,50.066-1.1a2.113,2.113,0,0,1-.41-1.248h1.873a1.031,1.031,0,0,0,.39.807,1.546,1.546,0,0,0,.971.28,1.43,1.43,0,0,0,.858-.215A.67.67,0,0,0,54.038-2.044ZM59.315,0H57.333V-7.4h1.982Zm-2.1-9.311a.973.973,0,0,1,.3-.731,1.117,1.117,0,0,1,.81-.287,1.12,1.12,0,0,1,.807.287.967.967,0,0,1,.3.731.97.97,0,0,1-.3.738,1.122,1.122,0,0,1-.8.287,1.122,1.122,0,0,1-.8-.287A.97.97,0,0,1,57.217-9.311Zm7.731,7.267a.637.637,0,0,0-.359-.571,4.077,4.077,0,0,0-1.152-.373Q60.8-3.541,60.8-5.229a2.032,2.032,0,0,1,.817-1.644,3.3,3.3,0,0,1,2.136-.66A3.547,3.547,0,0,1,66-6.87a2.09,2.09,0,0,1,.844,1.723H64.873a.956.956,0,0,0-.273-.7,1.157,1.157,0,0,0-.854-.277,1.182,1.182,0,0,0-.772.226.712.712,0,0,0-.273.574.609.609,0,0,0,.311.53,3.2,3.2,0,0,0,1.049.349,8.571,8.571,0,0,1,1.244.332,2.044,2.044,0,0,1,1.565,1.989A1.929,1.929,0,0,1,66-.489a3.745,3.745,0,0,1-2.242.625,3.912,3.912,0,0,1-1.651-.332A2.77,2.77,0,0,1,60.977-1.1a2.113,2.113,0,0,1-.41-1.248h1.873a1.031,1.031,0,0,0,.39.807,1.546,1.546,0,0,0,.971.28,1.43,1.43,0,0,0,.858-.215A.67.67,0,0,0,64.948-2.044Z" transform="translate(749.051 1059)" fill="#c06"/>
    <path id="Trazado_899478" data-name="Trazado 899478" d="M6580.649-10647.5v-41H6573.5" transform="translate(-5883.649 11611)" fill="none" stroke="#6700cc" stroke-width="1"/>
    <path id="Trazado_899480" data-name="Trazado 899480" d="M6580.649-10623.752v-64.749H6573.5" transform="translate(-5753.649 11621.251)" fill="none" stroke="#6700cc" stroke-width="1"/>
    <path id="Trazado_899479" data-name="Trazado 899479" d="M6580.649-10647.5v-41H6573.5" transform="translate(7316.2 -9635) rotate(180)" fill="none" stroke="#6700cc" stroke-width="1"/>
    <path id="Trazado_899857" data-name="Trazado 899857" d="M0,0V5" transform="translate(689.551 920.5)" fill="none" stroke="#6700cc" stroke-width="1"/>
    <path id="Trazado_899858" data-name="Trazado 899858" d="M0,0V5" transform="translate(743 1055.5) rotate(180)" fill="none" stroke="#6700cc" stroke-width="1"/>
  </g>
</svg>
