<svg xmlns="http://www.w3.org/2000/svg" xmlns:xlink="http://www.w3.org/1999/xlink" width="134" height="134" viewBox="0 0 134 134">
  <defs>
    <clipPath id="clip-path">
      <rect id="Rectángulo_405120" data-name="Rectángulo 405120" width="85" height="85" transform="translate(415.051 3671)" fill="#8000ff"/>
    </clipPath>
  </defs>
  <g id="Grupo_1106889" data-name="Grupo 1106889" transform="translate(-390.051 -3646)">
    <circle id="Elipse_11596" data-name="Elipse 11596" cx="67" cy="67" r="67" transform="translate(390.051 3646)" fill="#0ac675"/>
    <g id="Enmascarar_grupo_1098704" data-name="Enmascarar grupo 1098704" clip-path="url(#clip-path)">
      <g id="documentacion" transform="translate(413.68 3669.629)">
        <path id="Trazado_890966" data-name="Trazado 890966" d="M86.371,1.371h-52.1V6.855H28.79v5.484H23.306V23.306H19.964l-.84,3.205A20.67,20.67,0,0,0,14.4,28.474L11.531,26.8,4.864,33.465l1.674,2.865a20.68,20.68,0,0,0-1.962,4.727L1.371,41.9v9.427l3.205.84a20.68,20.68,0,0,0,1.962,4.727L4.864,59.759l6.666,6.666L14.4,64.751a20.68,20.68,0,0,0,4.727,1.962l.842,3.207h3.342V86.371H75.4V80.887h5.484V75.4h5.484ZM22.078,67.177l-.718-2.739-.8-.188A17.984,17.984,0,0,1,15.126,62l-.7-.437-2.45,1.431L8.3,59.315l1.431-2.45-.437-.7a18.019,18.019,0,0,1-2.254-5.429l-.186-.8-2.739-.718v-5.2l2.739-.72.188-.8a17.962,17.962,0,0,1,2.254-5.428l.437-.7L8.3,33.911l3.676-3.674,2.45,1.43.7-.436a17.976,17.976,0,0,1,5.428-2.253l.806-.188.717-2.742h1.228V31.6a15.072,15.072,0,0,0,0,30.021v5.554ZM16.452,46.613a8.234,8.234,0,0,0,6.855,8.1v4.155a12.334,12.334,0,0,1,0-24.516V38.51A8.234,8.234,0,0,0,16.452,46.613Zm6.855-5.289V51.9a5.457,5.457,0,0,1,0-10.578Zm2.742,42.305V15.081H61.694V26.048H72.661V83.629Zm38.387-66.61,6.287,6.287H64.435Zm13.71,61.126H75.4V24.11L63.632,12.339h-32.1V9.6H78.145Zm5.484-5.484H80.887V6.855H37.016V4.113H83.629Z" fill="#8000ff"/>
        <path id="Trazado_890967" data-name="Trazado 890967" d="M28.79,58.952H47.984V39.758H28.79ZM31.532,42.5h13.71V56.21H31.532Z" fill="#8000ff"/>
        <path id="Trazado_890968" data-name="Trazado 890968" d="M50.726,45.242H69.919v2.742H50.726Z" fill="#8000ff"/>
        <path id="Trazado_890969" data-name="Trazado 890969" d="M50.726,39.758H69.919V42.5H50.726Z" fill="#8000ff"/>
        <path id="Trazado_890970" data-name="Trazado 890970" d="M67.177,50.726h2.742v2.742H67.177Z" fill="#8000ff"/>
        <path id="Trazado_890971" data-name="Trazado 890971" d="M50.726,50.726h13.71v2.742H50.726Z" fill="#8000ff"/>
        <path id="Trazado_890972" data-name="Trazado 890972" d="M50.726,28.79H69.919v2.742H50.726Z" fill="#8000ff"/>
        <path id="Trazado_890973" data-name="Trazado 890973" d="M50.726,23.306h8.226v2.742H50.726Z" fill="#8000ff"/>
        <path id="Trazado_890974" data-name="Trazado 890974" d="M50.726,17.823h8.226v2.742H50.726Z" fill="#8000ff"/>
        <path id="Trazado_890975" data-name="Trazado 890975" d="M56.21,34.274h13.71v2.742H56.21Z" fill="#8000ff"/>
        <path id="Trazado_890976" data-name="Trazado 890976" d="M50.726,34.274h2.742v2.742H50.726Z" fill="#8000ff"/>
        <path id="Trazado_890977" data-name="Trazado 890977" d="M50.726,56.21H69.919v2.742H50.726Z" fill="#8000ff"/>
        <path id="Trazado_890978" data-name="Trazado 890978" d="M50.726,80.887H69.919V61.694H50.726Zm2.742-16.452h13.71v13.71H53.468Z" fill="#8000ff"/>
        <path id="Trazado_890979" data-name="Trazado 890979" d="M28.79,67.177h2.742v2.742H28.79Z" fill="#8000ff"/>
        <path id="Trazado_890980" data-name="Trazado 890980" d="M34.274,67.177h13.71v2.742H34.274Z" fill="#8000ff"/>
        <path id="Trazado_890981" data-name="Trazado 890981" d="M28.79,61.694H47.984v2.742H28.79Z" fill="#8000ff"/>
        <path id="Trazado_890982" data-name="Trazado 890982" d="M28.79,72.661H47.984V75.4H28.79Z" fill="#8000ff"/>
        <path id="Trazado_890983" data-name="Trazado 890983" d="M28.79,78.145H42.5v2.742H28.79Z" fill="#8000ff"/>
        <path id="Trazado_890984" data-name="Trazado 890984" d="M45.242,78.145h2.742v2.742H45.242Z" fill="#8000ff"/>
        <path id="Trazado_890985" data-name="Trazado 890985" d="M38.387,17.823a9.6,9.6,0,1,0,9.6,9.6A9.608,9.608,0,0,0,38.387,17.823Zm0,16.452a6.855,6.855,0,1,1,6.855-6.855A6.863,6.863,0,0,1,38.387,34.274Z" fill="#8000ff"/>
      </g>
    </g>
  </g>
</svg>
