<svg xmlns="http://www.w3.org/2000/svg" xmlns:xlink="http://www.w3.org/1999/xlink" width="134" height="134" viewBox="0 0 134 134">
  <defs>
    <clipPath id="clip-path">
      <rect id="Rectángulo_405122" data-name="Rectángulo 405122" width="85" height="85" transform="translate(415.051 4200)" fill="#8000ff"/>
    </clipPath>
  </defs>
  <g id="Grupo_1106891" data-name="Grupo 1106891" transform="translate(-390.051 -4175)">
    <circle id="Elipse_11598" data-name="Elipse 11598" cx="67" cy="67" r="67" transform="translate(390.051 4175)" fill="#0ac675"/>
    <g id="Enmascarar_grupo_1098706" data-name="Enmascarar grupo 1098706" clip-path="url(#clip-path)">
      <g id="_23-Pipette" data-name="23-Pipette" transform="translate(415.051 4200.001)">
        <path id="Trazado_890994" data-name="Trazado 890994" d="M73.046,46.483H35.859a1.328,1.328,0,0,1-1.189-.734l-2.656-5.312A1.328,1.328,0,0,1,33.2,38.515H75.7a1.328,1.328,0,0,1,1.2,1.922l-2.656,5.312A1.328,1.328,0,0,1,73.046,46.483ZM36.679,43.827H72.225l1.328-2.656h-38.2Z" fill="#8000ff"/>
        <path id="Trazado_890995" data-name="Trazado 890995" d="M67.733,85H41.171a6.648,6.648,0,0,1-6.641-6.641v-33.2h2.656v33.2a3.984,3.984,0,0,0,3.984,3.984H67.733a3.984,3.984,0,0,0,3.984-3.984v-33.2h2.656v33.2A6.648,6.648,0,0,1,67.733,85Z" fill="#8000ff"/>
        <path id="Trazado_890996" data-name="Trazado 890996" d="M39.843,49.14H42.5V51.8H39.843Z" fill="#8000ff"/>
        <path id="Trazado_890997" data-name="Trazado 890997" d="M39.843,54.452H42.5V78.358H39.843Z" fill="#8000ff"/>
        <path id="Trazado_890998" data-name="Trazado 890998" d="M62.421,51.8h6.64v2.656h-6.64Z" fill="#8000ff"/>
        <path id="Trazado_890999" data-name="Trazado 890999" d="M61.093,57.108h9.3v2.656h-9.3Z" fill="#8000ff"/>
        <path id="Trazado_891000" data-name="Trazado 891000" d="M62.421,62.421h6.64v2.656h-6.64Z" fill="#8000ff"/>
        <path id="Trazado_891001" data-name="Trazado 891001" d="M61.093,67.733h9.3v2.656h-9.3Z" fill="#8000ff"/>
        <path id="Trazado_891002" data-name="Trazado 891002" d="M62.421,73.046h6.64V75.7h-6.64Z" fill="#8000ff"/>
        <path id="Trazado_891003" data-name="Trazado 891003" d="M35.859,10.625H22.578A5.312,5.312,0,1,1,22.578,0H35.859a5.312,5.312,0,1,1,0,10.625ZM22.578,2.656a2.656,2.656,0,1,0,0,5.312H35.859a2.656,2.656,0,1,0,0-5.312Z" fill="#8000ff"/>
        <path id="Trazado_891004" data-name="Trazado 891004" d="M44.214,40.565,34.744,25.956a1.328,1.328,0,0,1-.214-.722V9.3h2.656V24.835l9.256,14.28Z" fill="#8000ff"/>
        <path id="Trazado_891005" data-name="Trazado 891005" d="M35.859,66.4H6.959A6.963,6.963,0,0,1,1.932,54.627L21.25,24.835V9.3h2.656V25.234a1.328,1.328,0,0,1-.214.722L4.089,56.179a1.36,1.36,0,0,1-.175.216,4.3,4.3,0,0,0,3.045,7.354h28.9Z" fill="#8000ff"/>
        <path id="Trazado_891006" data-name="Trazado 891006" d="M35.859,61.093H10.014A3.368,3.368,0,0,1,7.2,55.863l15.6-23.4a1.328,1.328,0,0,1,1.1-.591H34.531a1.328,1.328,0,0,1,1.105.591l4.422,6.64L37.851,40.58,33.82,34.531h-9.2l-15.2,22.8a.709.709,0,0,0-.122.4.717.717,0,0,0,.717.717H35.859Z" fill="#8000ff"/>
        <path id="Trazado_891007" data-name="Trazado 891007" d="M76.491,15.871,74.947,13.71,81.28,9.186a3.869,3.869,0,0,0-5.468-5.468l-4.523,6.332L69.128,8.508,73.72,2.077a1.383,1.383,0,0,1,.141-.167,6.525,6.525,0,1,1,9.228,9.228,1.382,1.382,0,0,1-.167.141Z" fill="#8000ff"/>
        <path id="Trazado_891008" data-name="Trazado 891008" d="M73.882,20.552A3.919,3.919,0,0,1,71.105,19.4l-5.51-5.512A3.926,3.926,0,0,1,71.146,8.34l5.512,5.512a3.925,3.925,0,0,1-2.776,6.7Zm-.9-3.028a1.27,1.27,0,0,0,1.8-1.794l-5.512-5.512a1.27,1.27,0,1,0-1.794,1.8Z" fill="#8000ff"/>
        <path id="Trazado_891009" data-name="Trazado 891009" d="M51.737,37.187a3.926,3.926,0,0,1-2.776-6.7,1.277,1.277,0,0,1,.2-.166L53.6,27.359a3.931,3.931,0,0,1,.874-4.225L65.595,12.015a1.328,1.328,0,0,1,1.878,0l5.51,5.516a1.328,1.328,0,0,1,0,1.878L61.862,30.53a3.929,3.929,0,0,1-4.225.874l-2.956,4.435a1.277,1.277,0,0,1-.166.2A3.9,3.9,0,0,1,51.737,37.187Zm-.971-4.744a1.268,1.268,0,0,0,.073,1.715,1.3,1.3,0,0,0,1.716.074l3.578-5.367Zm6.481-4.185a1.328,1.328,0,0,1,.939.388,1.272,1.272,0,0,0,1.8,0L70.166,18.461l-3.628-3.628L56.351,25.015a1.274,1.274,0,0,0,0,1.8,1.328,1.328,0,0,1,.174,1.66,1.341,1.341,0,0,1,.591-.207c.045,0,.088-.007.131-.007Z" fill="#8000ff"/>
        <path id="Trazado_891010" data-name="Trazado 891010" d="M58.237,19.921H69.262v2.656H58.237Z" fill="#8000ff"/>
      </g>
    </g>
  </g>
</svg>
