<svg xmlns="http://www.w3.org/2000/svg" xmlns:xlink="http://www.w3.org/1999/xlink" width="190" height="154" viewBox="0 0 190 154">
  <defs>
    <clipPath id="clip-path">
      <rect id="Rectángulo_405067" data-name="Rectángulo 405067" width="190" height="154" transform="translate(180 373)" fill="#0ac675"/>
    </clipPath>
    <clipPath id="clip-path-2">
      <rect id="Rectángulo_405066" data-name="Rectángulo 405066" width="178.334" height="229.791" fill="none"/>
    </clipPath>
  </defs>
  <g id="Grupo_1106849" data-name="Grupo 1106849" transform="translate(-180 -373)">
    <rect id="Rectángulo_405062" data-name="Rectángulo 405062" width="190" height="128" transform="translate(180 399)" fill="#0ac675"/>
    <g id="Enmascarar_grupo_1098701" data-name="Enmascarar grupo 1098701" clip-path="url(#clip-path)">
      <g id="Grupo_1106785" data-name="Grupo 1106785" transform="translate(185.333 378.671)">
        <g id="Grupo_1106784" data-name="Grupo 1106784" clip-path="url(#clip-path-2)">
          <path id="Trazado_890557" data-name="Trazado 890557" d="M87.52,48.528a29.465,29.465,0,1,0,11-40.193,29.465,29.465,0,0,0-11,40.193" transform="translate(-36.93 -1.969)" fill="#33315f"/>
          <path id="Trazado_890558" data-name="Trazado 890558" d="M43.925,25.7A17.185,17.185,0,1,0,50.339,2.259,17.185,17.185,0,0,0,43.925,25.7" transform="translate(-18.396 0)" fill="#33315f"/>
          <path id="Trazado_890559" data-name="Trazado 890559" d="M120.944,59.641c7.55,13.239,21.792,19.34,31.809,13.627s12.016-21.077,4.465-34.316-21.792-19.34-31.809-13.626S113.393,46.4,120.944,59.641" transform="translate(-51.377 -10.236)" fill="#d4886a"/>
          <path id="Trazado_890560" data-name="Trazado 890560" d="M171.606,45.865c2.915,5.112,8.875,7.2,13.313,4.673s5.67-8.726,2.755-13.838-8.875-7.2-13.313-4.673-5.67,8.726-2.755,13.838" transform="translate(-75.069 -13.666)" fill="#fdfdfd"/>
          <path id="Trazado_890561" data-name="Trazado 890561" d="M129.64,66.5c2.925,5.129,9.124,7.1,13.845,4.411s6.177-9.033,3.252-14.162-9.124-7.1-13.845-4.411-6.177,9.033-3.252,14.162" transform="translate(-56.571 -22.575)" fill="#fdfdfd"/>
          <rect id="Rectángulo_405065" data-name="Rectángulo 405065" width="14.158" height="36.955" transform="translate(76.706 55.581)" fill="#d4886a"/>
          <path id="Trazado_890562" data-name="Trazado 890562" d="M131.463,89.656a7.479,7.479,0,1,0-2.791,10.2,7.479,7.479,0,0,0,2.791-10.2" transform="translate(-51.872 -37.918)" fill="#d4886a"/>
          <path id="Trazado_890563" data-name="Trazado 890563" d="M188.056,153.521l-8.009,12.789-4.172,6.668-15.861,25.333a14.185,14.185,0,0,1-21.954,2.6l-3.742-3.669c.693,11.4,1.206,11.4,1.206,11.4,29.315,19.016,24.5,64.762,21.725,80.947H59.219c7.986-14.951,25.249-47.119,32.191-60.043,1.854-3.463,2.971-5.54,2.971-5.54l-18.961-40.3-2.267-4.82-2.05-4.356-2.173-4.607L65.1,161.776l10.622-7.4,5.44-3.787,8.55-5.959a20.933,20.933,0,0,1,12.086-3.764l1.056.006,14.141.067h.017l5.607.028a14.356,14.356,0,0,1,12.248,7l17.743,29.751,4.351-6.942L176.5,139.593l2.6-4.15,4.15,8.372,4.233,8.545Z" transform="translate(-26.146 -59.8)" fill="#e6f9ff"/>
          <path id="Trazado_890564" data-name="Trazado 890564" d="M250.168,93.387V116.22l-17.337,29.537a5.747,5.747,0,0,0,4.956,8.656h37.236a5.747,5.747,0,0,0,4.754-8.975L259.941,116.22V93.387Z" transform="translate(-102.445 -41.232)" fill="#fdfdfd"/>
          <path id="Trazado_890565" data-name="Trazado 890565" d="M270.472,103.223h-10.54a4.072,4.072,0,0,0-3.74,5.68l6.833,15.891a5.6,5.6,0,0,0,2.832,2.888l4.8,2.178a3.768,3.768,0,0,0,5.311-3.752l-1.653-19.356a3.857,3.857,0,0,0-3.843-3.529" transform="translate(-112.964 -45.574)" fill="#d4886a"/>
          <path id="Trazado_890566" data-name="Trazado 890566" d="M252.575,166.062l-5.717,10.276a2.224,2.224,0,0,0,1.944,3.305h27.814a2.152,2.152,0,0,0,1.879-3.2l-6.026-10.8Z" transform="translate(-108.866 -73.132)" fill="#33315f"/>
          <path id="Trazado_890567" data-name="Trazado 890567" d="M272.73,94.495H260.609a1.971,1.971,0,0,1,0-3.942H272.73a1.971,1.971,0,1,1,0,3.942" transform="translate(-114.192 -39.98)" fill="#fdfdfd"/>
          <path id="Trazado_890568" data-name="Trazado 890568" d="M169.156,56.247l-6.953,3.2a.828.828,0,1,1-.693-1.5l6.953-3.2a.828.828,0,0,1,.693,1.5" transform="translate(-71.096 -24.136)" fill="#33315f"/>
          <path id="Trazado_890569" data-name="Trazado 890569" d="M151.868,112.668a12.862,12.862,0,0,0,6.048,2.123" transform="translate(-67.052 -49.745)" fill="none" stroke="#33315f" stroke-linecap="round" stroke-miterlimit="10" stroke-width="1"/>
          <line id="Línea_563" data-name="Línea 563" x2="10.544" transform="translate(143.866 64.814)" fill="none" stroke="#33315f" stroke-linecap="round" stroke-miterlimit="10" stroke-width="1"/>
          <line id="Línea_564" data-name="Línea 564" x1="7.27" transform="translate(146.69 71.579)" fill="none" stroke="#33315f" stroke-linecap="round" stroke-miterlimit="10" stroke-width="1"/>
          <path id="Trazado_890570" data-name="Trazado 890570" d="M177.637,84.5s-3.757,2.6-5.107.769" transform="translate(-76.174 -37.31)" fill="none" stroke="#33315f" stroke-linecap="round" stroke-miterlimit="10" stroke-width="1"/>
          <path id="Trazado_890571" data-name="Trazado 890571" d="M154.255,66.341s1.2,2.171-1.793,3.593" transform="translate(-67.314 -29.29)" fill="none" stroke="#33315f" stroke-linecap="round" stroke-miterlimit="10" stroke-width="1"/>
          <path id="Trazado_890572" data-name="Trazado 890572" d="M185.775,51.33s-.075,3.219-2.62,3.293" transform="translate(-80.866 -22.663)" fill="none" stroke="#33315f" stroke-linecap="round" stroke-miterlimit="10" stroke-width="1"/>
          <path id="Trazado_890573" data-name="Trazado 890573" d="M137.346,145.151l7.079,30.792,7.079-30.792Z" transform="translate(-60.64 -64.086)" fill="#fdfdfd"/>
          <path id="Trazado_890574" data-name="Trazado 890574" d="M269.066,156.718a2.2,2.2,0,1,1-2.2-2.2,2.2,2.2,0,0,1,2.2,2.2" transform="translate(-116.85 -68.22)" fill="#33315f"/>
          <path id="Trazado_890575" data-name="Trazado 890575" d="M279.606,172.116a1.335,1.335,0,1,1,1.334,1.334,1.334,1.334,0,0,1-1.334-1.334" transform="translate(-123.45 -75.403)" fill="#fdfdfd"/>
          <path id="Trazado_890576" data-name="Trazado 890576" d="M36.428,169.907l.013.018a3.853,3.853,0,0,0,4.008,1.537l6.824-1.558a3.854,3.854,0,0,0-1.705-7.517l-6.837,1.54a3.854,3.854,0,0,0-2.3,5.979" transform="translate(-15.772 -71.655)" fill="#fdfdfd"/>
          <path id="Trazado_890577" data-name="Trazado 890577" d="M123.7,29.955c1.363,14.484-6.652,25.728-14.395,25.728S95.661,38.7,95.661,29.955s6.277-15.842,14.02-15.842,13.2,7.132,14.02,15.842" transform="translate(-42.236 -6.231)" fill="#33315f"/>
          <path id="Trazado_890578" data-name="Trazado 890578" d="M146.542,318.033v52.174H132.959l11.583-44.489Z" transform="translate(-58.703 -140.416)" fill="#33315f"/>
          <path id="Trazado_890579" data-name="Trazado 890579" d="M.866,178.029C11.023,191.4,35.432,227,44.178,239.813a8.479,8.479,0,0,0,8.728,3.52l42.18-8.765a5.075,5.075,0,0,0,3.221-7.738L57.518,164.158a7.284,7.284,0,0,0-7.683-3.138L3.319,171.339a4.23,4.23,0,0,0-2.453,6.691" transform="translate(0 -71.016)" fill="#33315f"/>
          <path id="Trazado_890580" data-name="Trazado 890580" d="M38,200.911l9.518,13.114,28.253-6.872-8.606-13.245Z" transform="translate(-16.778 -85.613)" fill="#fdfdfd"/>
          <path id="Trazado_890581" data-name="Trazado 890581" d="M37.469,242.214l7.407-6.6a4.486,4.486,0,0,1,6.6.69l5.408,7.346a6.123,6.123,0,0,1,1.077,4.816l-2.168,10.987a5.289,5.289,0,0,1-9.278,2.33l-9.652-11.768a5.65,5.65,0,0,1,.61-7.8" transform="translate(-15.708 -103.525)" fill="#d4886a"/>
          <line id="Línea_565" data-name="Línea 565" x1="7.273" y2="9.769" transform="translate(28.913 133.352)" fill="none" stroke="#33315f" stroke-linecap="round" stroke-miterlimit="10" stroke-width="1"/>
          <line id="Línea_566" data-name="Línea 566" x1="5.562" y2="11.27" transform="translate(34.547 137.633)" fill="none" stroke="#33315f" stroke-linecap="round" stroke-miterlimit="10" stroke-width="1"/>
          <line id="Línea_567" data-name="Línea 567" y1="4.408" x2="18.526" transform="translate(30.245 113.828)" fill="none" stroke="#33315f" stroke-linecap="round" stroke-miterlimit="10" stroke-width="1"/>
          <line id="Línea_568" data-name="Línea 568" y1="4.568" x2="19.2" transform="translate(32.549 117.957)" fill="none" stroke="#33315f" stroke-linecap="round" stroke-miterlimit="10" stroke-width="1"/>
          <path id="Trazado_890582" data-name="Trazado 890582" d="M8.83,170l-.612-1.14L52.4,158.76l1.066,1.338Z" transform="translate(-3.629 -70.095)" fill="#fdfdfd"/>
          <path id="Trazado_890583" data-name="Trazado 890583" d="M123.575,98.677l5.241-1.066-1.747,4.616" transform="translate(-54.56 -43.097)" fill="none" stroke="#33315f" stroke-linecap="round" stroke-miterlimit="10" stroke-width="1"/>
        </g>
      </g>
    </g>
  </g>
</svg>
