<svg xmlns="http://www.w3.org/2000/svg" width="190.051" height="161.667" viewBox="0 0 190.051 161.667">
  <g id="Grupo_1106849" data-name="Grupo 1106849" transform="translate(-179.949 -365.333)">
    <rect id="Rectángulo_405062" data-name="Rectángulo 405062" width="190" height="128" transform="translate(180 399)" fill="#0ac675"/>
    <g id="sistema-solar" transform="translate(179.949 351.529)">
      <path id="Trazado_891066" data-name="Trazado 891066" d="M448.072,34.509c0-1.912-3.657-3.539-8.767-4.147a.333.333,0,0,1-.29-.29c-.608-5.11-2.234-8.767-4.147-8.767s-3.539,3.657-4.147,8.767a.332.332,0,0,1-.29.29c-5.11.608-8.767,2.234-8.767,4.147s3.657,3.539,8.767,4.147a.332.332,0,0,1,.29.29c.608,5.11,2.234,8.767,4.147,8.767s3.539-3.657,4.147-8.767a.333.333,0,0,1,.29-.29C444.414,38.047,448.072,36.42,448.072,34.509Z" transform="translate(-287.239 -5.11)" fill="#fef0ae"/>
      <path id="Trazado_891067" data-name="Trazado 891067" d="M406.656,421.065c0-1.912-3.657-3.539-8.767-4.147a.332.332,0,0,1-.29-.29c-.608-5.11-2.234-8.767-4.147-8.767s-3.539,3.657-4.147,8.767a.332.332,0,0,1-.29.29c-5.11.608-8.767,2.234-8.767,4.147s3.657,3.539,8.767,4.147a.332.332,0,0,1,.29.29c.608,5.11,2.234,8.767,4.147,8.767s3.539-3.657,4.147-8.767a.332.332,0,0,1,.29-.29C403,424.6,406.656,422.977,406.656,421.065Z" transform="translate(-259.027 -268.434)" fill="#fef0ae"/>
      <path id="Trazado_891068" data-name="Trazado 891068" d="M7.512,195.609a.181.181,0,0,0,.054.129.269.269,0,0,0,.38,0l2.649-2.634a17.2,17.2,0,0,1,18.675-3.7l3.455,1.424a.27.27,0,0,0,.352-.146l1.432-3.444a17.2,17.2,0,0,1,15.832-10.593l3.73-.01a.269.269,0,0,0,.269-.269l.01-3.73A17.2,17.2,0,0,1,64.943,156.8l3.444-1.432a.269.269,0,0,0,.146-.352l-1.424-3.455a17.2,17.2,0,0,1,3.7-18.675l2.634-2.65a.269.269,0,0,0,0-.38l-2.634-2.649a17.2,17.2,0,0,1-3.7-18.675l1.424-3.455a.269.269,0,0,0-.146-.352l-3.444-1.432A17.2,17.2,0,0,1,54.35,87.461l-.01-3.73a.269.269,0,0,0-.269-.269l-3.73-.01A17.2,17.2,0,0,1,34.509,72.86l-1.432-3.444a.269.269,0,0,0-.352-.146L29.27,70.694A17.2,17.2,0,0,1,10.6,66.99l-2.65-2.634a.269.269,0,0,0-.38,0,.181.181,0,0,0-.054.129V195.609Z" transform="translate(-5.117 -34.383)" fill="#fe9738"/>
      <path id="Trazado_891069" data-name="Trazado 891069" d="M7.741,215.814a48.179,48.179,0,0,0,0-96.358h-.23v96.356h.23Z" transform="translate(-5.116 -71.971)" fill="#fed402"/>
      <path id="Trazado_891070" data-name="Trazado 891070" d="M22.651,126.832a48.122,48.122,0,0,1,20.517,39.451A48.2,48.2,0,0,1,7.512,212.818v8.019h.23a48.187,48.187,0,0,0,14.91-94.006Z" transform="translate(-5.117 -76.995)" fill="#fac600"/>
      <path id="Trazado_891071" data-name="Trazado 891071" d="M374.974,297.063a17.6,17.6,0,0,0,15.39-9.05l-15.39-4.4-15.39,4.4A17.6,17.6,0,0,0,374.974,297.063Z" transform="translate(-244.95 -183.794)" fill="#fef0ae"/>
      <path id="Trazado_891072" data-name="Trazado 891072" d="M379.967,284.611a17.587,17.587,0,0,1-13.866,6.757q-.413,0-.822-.019a17.608,17.608,0,0,0,28.965-2.655Z" transform="translate(-248.829 -184.475)" fill="#fee97d"/>
      <path id="Trazado_891073" data-name="Trazado 891073" d="M355.144,232.789a17.517,17.517,0,0,0-2.5,8.8l17.6,4.4,17.6-4.4a17.516,17.516,0,0,0-2.5-8.8l-15.1-4.4Z" transform="translate(-240.223 -146.176)" fill="#fed402"/>
      <path id="Trazado_891074" data-name="Trazado 891074" d="M416.255,237.592q0,.124,0,.248a17.512,17.512,0,0,1-3.194,10.114l15.944-3.987a17.517,17.517,0,0,0-2.5-8.8l-11.288-3.289A17.548,17.548,0,0,1,416.255,237.592Z" transform="translate(-281.38 -148.552)" fill="#fac600"/>
      <path id="Trazado_891075" data-name="Trazado 891075" d="M352.638,270.054a17.525,17.525,0,0,0,2.214,8.554h30.78a17.525,17.525,0,0,0,2.214-8.554q0-.124,0-.248H352.64Q352.638,269.93,352.638,270.054Z" transform="translate(-240.219 -174.39)" fill="#fe9738"/>
      <path id="Trazado_891076" data-name="Trazado 891076" d="M418.149,269.806H404.3a17.657,17.657,0,0,1-7.18,8.8h18.813a17.525,17.525,0,0,0,2.214-8.554Q418.151,269.93,418.149,269.806Z" transform="translate(-270.522 -174.39)" fill="#fe860a"/>
      <path id="Trazado_891077" data-name="Trazado 891077" d="M375.587,215.361a17.6,17.6,0,0,0-15.1,8.554H390.69A17.6,17.6,0,0,0,375.587,215.361Z" transform="translate(-245.563 -137.302)" fill="#fef0ae"/>
      <path id="Trazado_891078" data-name="Trazado 891078" d="M414.267,223.956H424.72a17.6,17.6,0,0,0-14.281-8.535A17.556,17.556,0,0,1,414.267,223.956Z" transform="translate(-279.593 -137.343)" fill="#fee97d"/>
      <path id="Trazado_891079" data-name="Trazado 891079" d="M261.866,52.915a22.01,22.01,0,0,0-33.473,18.536l4.264,13.271a22.012,22.012,0,0,0,30.427,4.96Z" transform="translate(-155.582 -24.448)" fill="#26a6fe"/>
      <path id="Trazado_891080" data-name="Trazado 891080" d="M275.371,53.329a21.865,21.865,0,0,0-8.539-3.028,22.012,22.012,0,0,1-18.613,37.248A22.01,22.01,0,0,0,276.59,90.1Z" transform="translate(-169.088 -24.862)" fill="#0593fc"/>
      <path id="Trazado_891081" data-name="Trazado 891081" d="M241.59,124.722v-3.5a3.276,3.276,0,0,0-3.276-3.276h-9.926q0,.124,0,.248a21.907,21.907,0,0,0,4.265,13.023l7.127-3.563a3.275,3.275,0,0,0,1.812-2.93Z" transform="translate(-155.577 -70.941)" fill="#05e39c"/>
      <path id="Trazado_891082" data-name="Trazado 891082" d="M319.421,78.583A21.993,21.993,0,0,0,308.884,59.8l-1.163,2.326a5.44,5.44,0,0,1-4.866,3.007,5.44,5.44,0,0,0-5.44,5.44v1.109a5.44,5.44,0,0,0,1.593,3.847l6.143,6.144a5.438,5.438,0,0,1,1.431,2.527l2.611,10.443a5.423,5.423,0,0,0,.908,1.924,21.978,21.978,0,0,0,9.319-17.983Z" transform="translate(-202.6 -31.332)" fill="#05e39c"/>
      <path id="Trazado_891083" data-name="Trazado 891083" d="M324.516,59.8l-1.163,2.326a5.439,5.439,0,0,1-2.423,2.428,22.065,22.065,0,0,1-.567,16.7l.421.421a5.439,5.439,0,0,1,1.431,2.527l2.611,10.444a5.424,5.424,0,0,0,.908,1.924A22.012,22.012,0,0,0,324.516,59.8Z" transform="translate(-218.233 -31.332)" fill="#0ed290"/>
      <circle id="Elipse_11605" data-name="Elipse 11605" cx="13.204" cy="13.204" r="13.204" transform="translate(70.896 97.585)" fill="#a2aee6"/>
      <path id="Trazado_891084" data-name="Trazado 891084" d="M239.556,276.611a13.358,13.358,0,0,0-1.4.074,13.207,13.207,0,0,1-9.943,19.883,13.2,13.2,0,1,0,11.348-19.957Z" transform="translate(-155.456 -179.025)" fill="#8795de"/>
      <path id="Trazado_891085" data-name="Trazado 891085" d="M423.463,35.7c.979,5.933,3.237,9.3,6.3,9.3s5.318-3.364,6.3-9.3c5.933-.979,9.3-3.237,9.3-6.3s-3.364-5.319-9.3-6.3c-.979-5.933-3.237-9.3-6.3-9.3s-5.318,3.364-6.3,9.3c-5.933.979-9.3,3.237-9.3,6.3S417.53,34.717,423.463,35.7Zm2.144-8.07a2.715,2.715,0,0,0,2.382-2.382,15.886,15.886,0,0,1,1.772-6.319,15.893,15.893,0,0,1,1.772,6.319,2.716,2.716,0,0,0,2.382,2.382,15.89,15.89,0,0,1,6.319,1.772,15.889,15.889,0,0,1-6.319,1.772,2.715,2.715,0,0,0-2.382,2.382,15.885,15.885,0,0,1-1.772,6.319,15.889,15.889,0,0,1-1.772-6.319,2.715,2.715,0,0,0-2.382-2.382,15.882,15.882,0,0,1-6.319-1.772A15.881,15.881,0,0,1,425.607,27.627Z" transform="translate(-282.132)"/>
      <path id="Trazado_891086" data-name="Trazado 891086" d="M394.641,409.659c-.979-5.933-3.237-9.3-6.3-9.3s-5.318,3.364-6.3,9.3c-5.933.979-9.3,3.237-9.3,6.3s3.364,5.318,9.3,6.3c.979,5.933,3.237,9.3,6.3,9.3s5.318-3.364,6.3-9.3c5.933-.979,9.3-3.237,9.3-6.3S400.574,410.638,394.641,409.659Zm-2.144,8.07a2.715,2.715,0,0,0-2.382,2.382,15.884,15.884,0,0,1-1.772,6.319,15.89,15.89,0,0,1-1.772-6.319,2.715,2.715,0,0,0-2.382-2.382,15.884,15.884,0,0,1-6.319-1.772,15.888,15.888,0,0,1,6.319-1.772,2.715,2.715,0,0,0,2.382-2.382,15.886,15.886,0,0,1,1.772-6.319,15.893,15.893,0,0,1,1.772,6.319,2.716,2.716,0,0,0,2.382,2.382,15.89,15.89,0,0,1,6.319,1.772,15.9,15.9,0,0,1-6.319,1.772Z" transform="translate(-253.918 -263.325)"/>
      <circle id="Elipse_11606" data-name="Elipse 11606" cx="2.391" cy="2.391" r="2.391" transform="translate(103.617 156.651)"/>
      <circle id="Elipse_11607" data-name="Elipse 11607" cx="2.391" cy="2.391" r="2.391" transform="translate(149.639 132.598)"/>
      <circle id="Elipse_11608" data-name="Elipse 11608" cx="2.391" cy="2.391" r="2.391" transform="translate(151.649 55.425)"/>
      <circle id="Elipse_11609" data-name="Elipse 11609" cx="2.391" cy="2.391" r="2.391" transform="translate(138.446 47.003)"/>
      <circle id="Elipse_11610" data-name="Elipse 11610" cx="2.391" cy="2.391" r="2.391" transform="translate(76.829 86.614)"/>
      <circle id="Elipse_11611" data-name="Elipse 11611" cx="2.391" cy="2.391" r="2.391" transform="translate(41.62 20.216)"/>
      <path id="Trazado_891087" data-name="Trazado 891087" d="M118.868,70.638A24.4,24.4,0,0,0,72.255,57.249C62.862,55.465,53,54.04,42.911,53.009a2.391,2.391,0,0,0-.486,4.757c9.779,1,19.335,2.373,28.446,4.088a24.74,24.74,0,0,0,.086,9.848c-3.334-.8-6.77-1.539-10.262-2.215a2.391,2.391,0,0,0-.908,4.7c4.464.863,8.832,1.837,13,2.9a24.43,24.43,0,0,0,32.055,11.736A65.695,65.695,0,0,1,118.9,98.384a19.975,19.975,0,0,0,0,33.21c-7.219,6.677-18.693,12.747-33.617,17.662a219.462,219.462,0,0,1-33.656,7.953,14.763,14.763,0,0,1,6.063-11.554,118.666,118.666,0,0,0,14.8-5.141,15.587,15.587,0,0,0,23.787-20.131,16.536,16.536,0,0,0,.922-5.4c0-9.027-7.412-17.342-21.434-24.049a2.391,2.391,0,0,0-2.063,4.314c12.068,5.771,18.715,12.78,18.715,19.734a11.343,11.343,0,0,1-.153,1.847,15.591,15.591,0,0,0-22.417,19.62q-2.2.924-4.562,1.781l-1.09-2.645a14.771,14.771,0,0,1,3.189-16.078l2.633-2.648a2.665,2.665,0,0,0,0-3.753l-2.634-2.65A14.771,14.771,0,0,1,64.2,94.377l1.423-3.455a2.665,2.665,0,0,0-1.438-3.471l-3.444-1.432a14.771,14.771,0,0,1-9.12-13.631l-.01-3.728a2.666,2.666,0,0,0-2.654-2.655L45.232,66A14.772,14.772,0,0,1,31.6,56.876l-1.433-3.447A2.667,2.667,0,0,0,26.7,51.993l-3.456,1.423A14.771,14.771,0,0,1,7.164,50.228L4.513,47.592a2.665,2.665,0,0,0-3.744-.005A2.589,2.589,0,0,0,0,49.418C0,52.547,0,180.09,0,180.542a2.581,2.581,0,0,0,.758,1.823,2.667,2.667,0,0,0,3.753,0l2.649-2.634q.414-.412.854-.786c40.482-.561,78.364-6.962,107.216-18.169,30.946-12.02,47.988-28.284,47.988-45.8,0-16.86-15.69-32.483-44.355-44.342ZM73.287,130.105a10.824,10.824,0,1,1,3.842,8.26q1.847-.927,3.552-1.906a2.391,2.391,0,0,0-2.382-4.147q-1.944,1.117-4.089,2.164a10.748,10.748,0,0,1-.924-4.371Zm41.142-63.538a19.467,19.467,0,0,1-.131,2.254q-.566-.216-1.137-.43a2.391,2.391,0,1,0-1.678,4.478q.844.316,1.674.636a19.687,19.687,0,0,1-4.612,7.068L106.3,71.6a7.832,7.832,0,0,0-2.06-3.638L98.1,61.821a3.029,3.029,0,0,1-.893-2.156V58.556a3.053,3.053,0,0,1,3.049-3.049,7.787,7.787,0,0,0,6.924-4.173,19.47,19.47,0,0,1,7.25,15.233ZM77.9,76.505a19.379,19.379,0,0,1-2.584-7.795h7.421a.886.886,0,0,1,.885.885v3.5a.881.881,0,0,1-.489.792Zm2.977,3.858,4.4-2.2A5.636,5.636,0,0,0,88.4,73.1V69.6a5.674,5.674,0,0,0-5.667-5.667H75.379a19.624,19.624,0,0,1,27.73-15.141l-.126.252a3.031,3.031,0,0,1-2.727,1.685,7.84,7.84,0,0,0-7.832,7.831v1.109A7.779,7.779,0,0,0,94.718,65.2l6.143,6.143a3.048,3.048,0,0,1,.8,1.416c2.748,10.97,2.611,10.495,2.745,10.919a19.488,19.488,0,0,1-9.593,2.5,19.707,19.707,0,0,1-13.939-5.819Zm49.148,19.4a15.1,15.1,0,0,1,10.046,3.772h-1.854a2.391,2.391,0,1,0,0,4.782h5.491a15.174,15.174,0,0,1,1.3,4.02H115.04a15.186,15.186,0,0,1,1.3-4.02h10.716a2.391,2.391,0,0,0,0-4.782h-7.079A15.1,15.1,0,0,1,130.024,99.767Zm13.913,21.377H130.79a2.391,2.391,0,0,0-4.326,0H116.111a15.24,15.24,0,0,1-1.15-4.02h30.124A15.2,15.2,0,0,1,143.937,121.143ZM123.9,125.925q-.743,1.078-1.628,2.142a15.251,15.251,0,0,1-2.812-2.142Zm5.6,0h11.086a15.218,15.218,0,0,1-13.657,3.95,30.706,30.706,0,0,0,2.57-3.95ZM46.842,157.56v.373c-6.992.995-14.219,1.756-21.6,2.271A50.851,50.851,0,0,0,39.407,149.65q5.209-.858,10.119-1.952A19.566,19.566,0,0,0,46.842,157.56ZM4.786,165.774c9.181-.07,18.257-.511,27.086-1.3a19.6,19.6,0,0,0-4.688,6.778l-.62,1.492-1.5-.618a19.538,19.538,0,0,0-18.7,2.062l-1.581,1.109Zm0-13.207a235.786,235.786,0,0,0,26.267-1.717,45.559,45.559,0,0,1-26.267,9.868ZM25.064,57.838l1.5-.618.62,1.492A19.543,19.543,0,0,0,45.219,70.776l1.619,0,0,1.619A19.541,19.541,0,0,0,58.908,90.433l1.492.62-.618,1.5A19.543,19.543,0,0,0,64,113.826l1.147,1.154L64,116.133a19.543,19.543,0,0,0-4.219,21.272l.618,1.5-1.492.62a19.7,19.7,0,0,0-3.312,1.763c-3.674,1-7.538,1.9-11.56,2.685a50.29,50.29,0,0,0,9.158-28.995A50.744,50.744,0,0,0,27.808,71.116a2.391,2.391,0,1,0-2.385,4.145,45.949,45.949,0,0,1,22.99,39.718,45.6,45.6,0,0,1-11.423,30.227,226.492,226.492,0,0,1-32.2,2.578V69.243a45.738,45.738,0,0,1,10.642,1.763,2.391,2.391,0,1,0,1.334-4.592A50.523,50.523,0,0,0,4.786,64.456V54.542a19.54,19.54,0,0,0,20.279,3.3ZM113.5,156.321c-22.66,8.8-51.049,14.585-81.931,16.831l.027-.066a14.769,14.769,0,0,1,13.631-9.119l3.731-.01a2.67,2.67,0,0,0,2.538-1.887A225.467,225.467,0,0,0,86.782,153.8c12.561-4.137,27.286-10.606,36.649-19.943A19.991,19.991,0,0,0,150.018,114.7v-.006a19.964,19.964,0,0,0-26.581-18.576,64.2,64.2,0,0,0-13.825-10.147A24.464,24.464,0,0,0,117.6,75.288c17.273,7.219,40.846,20.908,40.846,39.693C158.441,134.894,132.054,149.115,113.5,156.321Z" transform="translate(0 -19.316)"/>
      <path id="Trazado_891088" data-name="Trazado 891088" d="M270.707,320.419a2.391,2.391,0,1,0,2.391-2.391A2.391,2.391,0,0,0,270.707,320.419Z" transform="translate(-184.407 -207.239)"/>
      <circle id="Elipse_11612" data-name="Elipse 11612" cx="2.391" cy="2.391" r="2.391" transform="translate(82.475 103.138)"/>
    </g>
  </g>
</svg>
