<svg xmlns="http://www.w3.org/2000/svg" width="399.949" height="324" viewBox="0 0 399.949 324">
  <g id="Grupo_1108954" data-name="Grupo 1108954" transform="translate(-600.051 -3688.537)">
    <rect id="IMG21_upscayl_4x_digital-art-4x" width="399.949" height="324" rx="20" transform="translate(600.051 3688.537)" fill="#f3e6ff"/>
    <rect id="IMG21_upscayl_4x_digital-art-4x-2" data-name="IMG21_upscayl_4x_digital-art-4x" width="347.949" height="284" rx="20" transform="translate(626.051 3709)" fill="#fff"/>
    <path id="Trazado_899933" data-name="Trazado 899933" d="M-5.6-31.747a13.452,13.452,0,0,1,8.484,2.535q3.27,2.535,3.932,8.729H1.772a9.307,9.307,0,0,0-2.1-4.739Q-1.973-27.109-5.6-27.109q-4.955,0-7.087,4.84a19.226,19.226,0,0,0-1.383,7.75,14.583,14.583,0,0,0,1.959,7.807A6.72,6.72,0,0,0-5.949-3.543,6.741,6.741,0,0,0-.835-5.517a10.851,10.851,0,0,0,2.607-5.4H6.813Q5.949-4.782,2.492-1.945A13.483,13.483,0,0,1-6.352.893,11.806,11.806,0,0,1-16-3.529a16.926,16.926,0,0,1-3.6-11.048q0-8.124,3.947-12.647A12.753,12.753,0,0,1-5.6-31.747ZM12.143-42.32h5.186V0H12.143Z" transform="translate(778.551 3869.031)" fill="#12263f"/>
    <path id="Trazado_899934" data-name="Trazado 899934" d="M-.354-3.285q5.069,0,6.953-3.837a19.118,19.118,0,0,0,1.883-8.539,15.2,15.2,0,0,0-1.359-6.91Q4.97-26.763-.3-26.763a7.317,7.317,0,0,0-6.8,3.568,16.54,16.54,0,0,0-2.124,8.609A14.387,14.387,0,0,0-7.094-6.514Q-4.97-3.285-.354-3.285Zm.2-27.924A13.734,13.734,0,0,1,9.756-27.3q4.05,3.908,4.05,11.5,0,7.335-3.568,12.121T-.835,1.1a12.5,12.5,0,0,1-9.94-4.234Q-14.458-7.363-14.458-14.5q0-7.646,3.88-12.178A13.021,13.021,0,0,1-.156-31.209Z" transform="translate(860.551 3868.031)" fill="#12263f"/>
    <path id="Trazado_899935" data-name="Trazado 899935" d="M-16.666-42.32h5.791v17.487h22.01V-42.32h5.791V0H11.135V-19.792h-22.01V0h-5.791Z" transform="translate(918.551 3873.03)" fill="#12263f"/>
    <path id="Trazado_899936" data-name="Trazado 899936" d="M-.354-3.285q5.069,0,6.953-3.837a19.118,19.118,0,0,0,1.883-8.539,15.2,15.2,0,0,0-1.359-6.91Q4.97-26.763-.3-26.763a7.317,7.317,0,0,0-6.8,3.568,16.54,16.54,0,0,0-2.124,8.609A14.387,14.387,0,0,0-7.094-6.514Q-4.97-3.285-.354-3.285Zm.2-27.924A13.734,13.734,0,0,1,9.756-27.3q4.05,3.908,4.05,11.5,0,7.335-3.568,12.121T-.835,1.1a12.5,12.5,0,0,1-9.94-4.234Q-14.458-7.363-14.458-14.5q0-7.646,3.88-12.178A13.021,13.021,0,0,1-.156-31.209Z" transform="translate(687.551 3868.031)" fill="#12263f"/>
    <path id="Trazado_899937" data-name="Trazado 899937" d="M-.354-3.285q5.069,0,6.953-3.837a19.118,19.118,0,0,0,1.883-8.539,15.2,15.2,0,0,0-1.359-6.91Q4.97-26.763-.3-26.763a7.317,7.317,0,0,0-6.8,3.568,16.54,16.54,0,0,0-2.124,8.609A14.387,14.387,0,0,0-7.094-6.514Q-4.97-3.285-.354-3.285Zm.2-27.924A13.734,13.734,0,0,1,9.756-27.3q4.05,3.908,4.05,11.5,0,7.335-3.568,12.121T-.835,1.1a12.5,12.5,0,0,1-9.94-4.234Q-14.458-7.363-14.458-14.5q0-7.646,3.88-12.178A13.021,13.021,0,0,1-.156-31.209Z" transform="translate(781.551 3954.031)" fill="#12263f"/>
    <path id="Trazado_899938" data-name="Trazado 899938" d="M-.33-3.059q4.72,0,6.473-3.573A17.8,17.8,0,0,0,7.9-14.581a14.154,14.154,0,0,0-1.266-6.434q-2-3.9-6.908-3.9A6.812,6.812,0,0,0-6.6-21.595a15.4,15.4,0,0,0-1.978,8.016A13.4,13.4,0,0,0-6.6-6.064Q-4.627-3.059-.33-3.059Zm.185-26a12.787,12.787,0,0,1,9.229,3.639q3.771,3.639,3.771,10.705A18.367,18.367,0,0,1,9.532-3.428Q6.209,1.028-.778,1.028a11.639,11.639,0,0,1-9.255-3.942Q-13.46-6.855-13.46-13.5q0-7.119,3.612-11.338A12.123,12.123,0,0,1-.145-29.057Z" transform="translate(780.671 3775)" fill="#12263f"/>
    <g id="Grupo_1108622" data-name="Grupo 1108622" transform="translate(745.694 3817.221)">
      <ellipse id="Elipse_11679" data-name="Elipse 11679" cx="4" cy="4.5" rx="4" ry="4.5" transform="translate(24.856 -0.19)" fill="#12263f"/>
      <circle id="Elipse_11683" data-name="Elipse 11683" cx="4.5" cy="4.5" r="4.5" transform="translate(-0.144 24.81)" fill="#12263f"/>
      <circle id="Elipse_11685" data-name="Elipse 11685" cx="4.5" cy="4.5" r="4.5" transform="translate(59.856 33.81)" fill="#12263f"/>
      <ellipse id="Elipse_11682" data-name="Elipse 11682" cx="4" cy="4.5" rx="4" ry="4.5" transform="translate(24.856 63.81)" fill="#12263f"/>
      <circle id="Elipse_11680" data-name="Elipse 11680" cx="4.5" cy="4.5" r="4.5" transform="translate(38.856 -0.19)" fill="#12263f"/>
      <circle id="Elipse_11684" data-name="Elipse 11684" cx="4.5" cy="4.5" r="4.5" transform="translate(-0.144 40.81)" fill="#12263f"/>
      <circle id="Elipse_11681" data-name="Elipse 11681" cx="4.5" cy="4.5" r="4.5" transform="translate(38.856 63.81)" fill="#12263f"/>
    </g>
    <g id="Grupo_1108649" data-name="Grupo 1108649" transform="translate(663.884 3829.67)">
      <circle id="Elipse_11682-2" data-name="Elipse 11682" cx="4.5" cy="4.5" r="4.5" transform="translate(11.667 45.36)" fill="#12263f"/>
      <circle id="Elipse_11743" data-name="Elipse 11743" cx="4.5" cy="4.5" r="4.5" transform="translate(11.667 -1.64)" fill="#12263f"/>
      <circle id="Elipse_11745" data-name="Elipse 11745" cx="4.5" cy="4.5" r="4.5" transform="translate(-0.833 37.86) rotate(-90)" fill="#12263f"/>
      <circle id="Elipse_11741" data-name="Elipse 11741" cx="4.5" cy="4.5" r="4.5" transform="translate(26.667 45.36)" fill="#12263f"/>
      <circle id="Elipse_11742" data-name="Elipse 11742" cx="4.5" cy="4.5" r="4.5" transform="translate(26.667 -1.64)" fill="#12263f"/>
      <circle id="Elipse_11744" data-name="Elipse 11744" cx="4.5" cy="4.5" r="4.5" transform="translate(-0.833 22.86) rotate(-90)" fill="#12263f"/>
    </g>
    <g id="Grupo_1108657" data-name="Grupo 1108657" transform="translate(755.191 3966.345) rotate(-90)">
      <circle id="Elipse_11682-3" data-name="Elipse 11682" cx="4.5" cy="4.5" r="4.5" transform="translate(11.667 45.36)" fill="#12263f"/>
      <circle id="Elipse_11743-2" data-name="Elipse 11743" cx="4.5" cy="4.5" r="4.5" transform="translate(11.667 -1.64)" fill="#12263f"/>
      <circle id="Elipse_11745-2" data-name="Elipse 11745" cx="4.5" cy="4.5" r="4.5" transform="translate(-0.833 37.86) rotate(-90)" fill="#12263f"/>
      <circle id="Elipse_11741-2" data-name="Elipse 11741" cx="4.5" cy="4.5" r="4.5" transform="translate(26.667 45.36)" fill="#12263f"/>
      <circle id="Elipse_11742-2" data-name="Elipse 11742" cx="4.5" cy="4.5" r="4.5" transform="translate(26.667 -1.64)" fill="#12263f"/>
      <circle id="Elipse_11744-2" data-name="Elipse 11744" cx="4.5" cy="4.5" r="4.5" transform="translate(-0.833 22.86) rotate(-90)" fill="#12263f"/>
    </g>
    <g id="Grupo_1108658" data-name="Grupo 1108658" transform="translate(807.911 3739.396) rotate(90)">
      <circle id="Elipse_11682-4" data-name="Elipse 11682" cx="4.5" cy="4.5" r="4.5" transform="translate(11.667 45.36)" fill="#12263f"/>
      <circle id="Elipse_11743-3" data-name="Elipse 11743" cx="4.5" cy="4.5" r="4.5" transform="translate(11.667 -1.64)" fill="#12263f"/>
      <circle id="Elipse_11745-3" data-name="Elipse 11745" cx="4.5" cy="4.5" r="4.5" transform="translate(-0.833 37.86) rotate(-90)" fill="#12263f"/>
      <circle id="Elipse_11741-3" data-name="Elipse 11741" cx="4.5" cy="4.5" r="4.5" transform="translate(26.667 45.36)" fill="#12263f"/>
      <circle id="Elipse_11742-3" data-name="Elipse 11742" cx="4.5" cy="4.5" r="4.5" transform="translate(26.667 -1.64)" fill="#12263f"/>
      <circle id="Elipse_11744-3" data-name="Elipse 11744" cx="4.5" cy="4.5" r="4.5" transform="translate(-0.833 22.86) rotate(-90)" fill="#12263f"/>
    </g>
    <g id="Grupo_1108659" data-name="Grupo 1108659" transform="translate(884.911 3829.396) rotate(90)">
      <circle id="Elipse_11743-4" data-name="Elipse 11743" cx="4.5" cy="4.5" r="4.5" transform="translate(20.667 0.36)" fill="#12263f"/>
      <circle id="Elipse_11745-4" data-name="Elipse 11745" cx="4.5" cy="4.5" r="4.5" transform="translate(-0.833 37.86) rotate(-90)" fill="#12263f"/>
      <circle id="Elipse_11747" data-name="Elipse 11747" cx="4.5" cy="4.5" r="4.5" transform="translate(44.167 37.86) rotate(-90)" fill="#12263f"/>
      <circle id="Elipse_11741-4" data-name="Elipse 11741" cx="4.5" cy="4.5" r="4.5" transform="translate(20.667 45.36)" fill="#12263f"/>
      <circle id="Elipse_11742-4" data-name="Elipse 11742" cx="4.5" cy="4.5" r="4.5" transform="translate(20.667 -12.64)" fill="#12263f"/>
      <circle id="Elipse_11744-4" data-name="Elipse 11744" cx="4.5" cy="4.5" r="4.5" transform="translate(-0.833 22.86) rotate(-90)" fill="#12263f"/>
      <circle id="Elipse_11746" data-name="Elipse 11746" cx="4.5" cy="4.5" r="4.5" transform="translate(44.167 22.86) rotate(-90)" fill="#12263f"/>
    </g>
    <path id="Trazado_899939" data-name="Trazado 899939" d="M3.915,31.213V5.92L0,7.953,4.438,0,8.876,7.953,5.482,6.191V31.213a.717.717,0,0,1-.783.624A.717.717,0,0,1,3.915,31.213Z" transform="translate(706.643 3858.86) rotate(-90)" fill="#12263f"/>
    <path id="Trazado_899940" data-name="Trazado 899940" d="M3.915,31.213V5.92L0,7.953,4.438,0,8.876,7.953,5.482,6.191V31.213a.717.717,0,0,1-.783.624A.717.717,0,0,1,3.915,31.213Z" transform="translate(777.819 3778.124)" fill="#12263f"/>
    <path id="Trazado_899941" data-name="Trazado 899941" d="M3.915,31.213V5.92L0,7.953,4.438,0,8.876,7.953,5.482,6.191V31.213a.717.717,0,0,1-.783.624A.717.717,0,0,1,3.915,31.213Z" transform="translate(784.846 3923.929) rotate(180)" fill="#12263f"/>
  </g>
</svg>
