<svg xmlns="http://www.w3.org/2000/svg" xmlns:xlink="http://www.w3.org/1999/xlink" width="190" height="117" viewBox="0 0 190 117">
  <defs>
    <clipPath id="clip-path">
      <path id="path183" d="M0-682.665H95v95H0Z" transform="translate(0 682.665)"/>
    </clipPath>
  </defs>
  <g id="Grupo_1108950" data-name="Grupo 1108950" transform="translate(-1230.051 -3341)">
    <rect id="Rectángulo_405897" data-name="Rectángulo 405897" width="190" height="117" rx="5" transform="translate(1230.051 3341)" fill="#9ae59a"/>
    <g id="g177" transform="translate(1277.551 4034.665)">
      <g id="g179" transform="translate(0 -682.665)">
        <g id="g181" clip-path="url(#clip-path)">
          <g id="g187" transform="translate(42.549 32.555)">
            <path id="path189" d="M-95-68.17a7.978,7.978,0,0,1-10.416,4.337,7.979,7.979,0,0,1-4.337-10.416,7.979,7.979,0,0,1,10.416-4.337A7.978,7.978,0,0,1-95-68.17" transform="translate(110.358 79.19)" fill="#f75632"/>
          </g>
          <g id="g191" transform="translate(47.745 32.556)">
            <path id="path193" d="M-36.026-3.731a7.948,7.948,0,0,0-5.824-.1c.086.032.172.063.257.1A7.979,7.979,0,0,1-37.255,6.686a7.955,7.955,0,0,1-4.593,4.436A7.977,7.977,0,0,0-31.688,6.686,7.979,7.979,0,0,0-36.026-3.731" transform="translate(41.849 4.334)" fill="#e33629"/>
          </g>
          <g id="g195" transform="translate(32.162 40.615)">
            <path id="path197" d="M-95-68.17a7.978,7.978,0,0,1-10.416,4.337,7.978,7.978,0,0,1-4.337-10.416,7.979,7.979,0,0,1,10.416-4.337A7.979,7.979,0,0,1-95-68.17" transform="translate(110.358 79.19)" fill="#bbf7ff"/>
          </g>
          <g id="g199" transform="translate(37.358 40.616)">
            <path id="path201" d="M-36.026-3.73a7.95,7.95,0,0,0-5.824-.1c.086.032.172.063.257.1A7.978,7.978,0,0,1-37.255,6.687a7.955,7.955,0,0,1-4.592,4.436A7.977,7.977,0,0,0-31.688,6.687,7.978,7.978,0,0,0-36.026-3.73" transform="translate(41.849 4.333)" fill="#8bf0ff"/>
          </g>
          <g id="g203" transform="translate(44.069 45.521)">
            <path id="path205" d="M-95-68.17a7.978,7.978,0,0,1-10.416,4.337,7.979,7.979,0,0,1-4.337-10.416,7.979,7.979,0,0,1,10.416-4.337A7.978,7.978,0,0,1-95-68.17" transform="translate(110.358 79.19)" fill="#ffd54f"/>
          </g>
          <g id="g207" transform="translate(49.265 45.522)">
            <path id="path209" d="M-36.026-3.731a7.948,7.948,0,0,0-5.824-.1c.086.032.172.063.257.1A7.978,7.978,0,0,1-37.255,6.686a7.955,7.955,0,0,1-4.592,4.436A7.977,7.977,0,0,0-31.688,6.686,7.978,7.978,0,0,0-36.026-3.731" transform="translate(41.849 4.334)" fill="#ffc328"/>
          </g>
          <g id="g211" transform="translate(61.482 22.384)">
            <path id="path213" d="M-10.085-58.783a5.567,5.567,0,0,1,0-7.872,5.566,5.566,0,0,1,7.872,0,5.566,5.566,0,0,1,0,7.872,5.567,5.567,0,0,1-7.872,0" transform="translate(11.715 68.285)" fill="#7be492"/>
          </g>
          <g id="g215" transform="translate(64.265 22.385)">
            <path id="path217" d="M-41.565-10.081a5.568,5.568,0,0,0-6.719-.885,5.582,5.582,0,0,1,1.153.885,5.566,5.566,0,0,1,0,7.872,5.574,5.574,0,0,1-1.153.885,5.568,5.568,0,0,0,6.719-.885,5.566,5.566,0,0,0,0-7.872" transform="translate(48.284 11.711)" fill="#45d987"/>
          </g>
          <g id="g219" transform="translate(22.384 61.482)">
            <path id="path221" d="M-10.086-58.782a5.566,5.566,0,0,1,0-7.872,5.567,5.567,0,0,1,7.872,0,5.567,5.567,0,0,1,0,7.872,5.566,5.566,0,0,1-7.872,0" transform="translate(11.716 68.284)" fill="#7be492"/>
          </g>
          <g id="g223" transform="translate(25.168 61.483)">
            <path id="path225" d="M-41.565-10.081a5.568,5.568,0,0,0-6.719-.885,5.582,5.582,0,0,1,1.153.885,5.567,5.567,0,0,1,0,7.872,5.574,5.574,0,0,1-1.153.885,5.568,5.568,0,0,0,6.719-.885,5.567,5.567,0,0,0,0-7.872" transform="translate(48.284 11.711)" fill="#45d987"/>
          </g>
          <g id="g227" transform="translate(9.33 9.33)">
            <path id="path229" d="M-58.782-10.086a5.566,5.566,0,0,1,0,7.872,5.566,5.566,0,0,1-7.872,0,5.566,5.566,0,0,1,0-7.872,5.566,5.566,0,0,1,7.872,0" transform="translate(68.284 11.716)" fill="#7be492"/>
          </g>
          <g id="g231" transform="translate(12.113 9.331)">
            <path id="path233" d="M-41.565-10.081a5.568,5.568,0,0,0-6.719-.885,5.57,5.57,0,0,1,1.153.885,5.566,5.566,0,0,1,0,7.872,5.564,5.564,0,0,1-1.153.885,5.568,5.568,0,0,0,6.719-.885,5.566,5.566,0,0,0,0-7.872" transform="translate(48.284 11.711)" fill="#45d987"/>
          </g>
          <g id="g235" transform="translate(74.536 74.536)">
            <path id="path237" d="M-58.782-10.086a5.566,5.566,0,0,1,0,7.872,5.566,5.566,0,0,1-7.872,0,5.566,5.566,0,0,1,0-7.872,5.566,5.566,0,0,1,7.872,0" transform="translate(68.284 11.716)" fill="#7be492"/>
          </g>
          <g id="g239" transform="translate(77.32 74.537)">
            <path id="path241" d="M-41.565-10.081a5.568,5.568,0,0,0-6.719-.885,5.57,5.57,0,0,1,1.153.885,5.566,5.566,0,0,1,0,7.872,5.57,5.57,0,0,1-1.153.885,5.568,5.568,0,0,0,6.719-.885,5.566,5.566,0,0,0,0-7.872" transform="translate(48.284 11.711)" fill="#45d987"/>
          </g>
          <g id="g243" transform="translate(41.158 31.165)">
            <path id="path245" d="M4.588-53.919a1.388,1.388,0,0,1-1.039-.466,1.392,1.392,0,0,1,.113-1.965,6.518,6.518,0,0,0,1.7-2.4,6.542,6.542,0,0,0-.009-5.041,6.546,6.546,0,0,0-3.572-3.558,6.6,6.6,0,0,0-8.6,3.58,6.523,6.523,0,0,0-.486,2.887,1.392,1.392,0,0,1-1.307,1.471,1.392,1.392,0,0,1-1.471-1.307,9.286,9.286,0,0,1,.69-4.111A9.382,9.382,0,0,1,2.839-69.924,9.311,9.311,0,0,1,7.92-64.863a9.307,9.307,0,0,1,.013,7.172,9.279,9.279,0,0,1-2.42,3.42A1.387,1.387,0,0,1,4.588-53.919Z" transform="translate(10.102 70.631)"/>
          </g>
          <g id="g247" transform="translate(32.304 39.219)">
            <path id="path249" d="M5.584-24.72a1.392,1.392,0,0,1-1.35-1.06A6.611,6.611,0,0,0,.348-30.3a6.566,6.566,0,0,0-7.832,2.207,1.392,1.392,0,0,1-1.944.306,1.392,1.392,0,0,1-.306-1.944A9.343,9.343,0,0,1,1.408-32.872a9.4,9.4,0,0,1,5.528,6.428A1.392,1.392,0,0,1,5.917-24.76,1.4,1.4,0,0,1,5.584-24.72Z" transform="translate(10.001 33.585)"/>
          </g>
          <g id="g251" transform="translate(30.825 48.132)">
            <path id="path253" d="M-87.54-42.437a9.349,9.349,0,0,1-3.564-.7,9.381,9.381,0,0,1-5.739-7.571,1.392,1.392,0,0,1,1.219-1.545,1.392,1.392,0,0,1,1.545,1.219,6.6,6.6,0,0,0,4.035,5.324,6.618,6.618,0,0,0,5.945-.468,1.392,1.392,0,0,1,1.912.464,1.392,1.392,0,0,1-.464,1.912A9.4,9.4,0,0,1-87.54-42.437Z" transform="translate(96.853 52.266)"/>
          </g>
          <g id="g255" transform="translate(18.243 18.243)">
            <path id="path257" d="M-37.233-274.742a1.39,1.39,0,0,1-1.161-.622,29.117,29.117,0,0,1-4.86-16.151A29.29,29.29,0,0,1-14-320.773a29.117,29.117,0,0,1,16.151,4.86,1.392,1.392,0,0,1,.39,1.929,1.392,1.392,0,0,1-1.929.39A26.342,26.342,0,0,0-14-317.989,26.5,26.5,0,0,0-40.47-291.516a26.343,26.343,0,0,0,4.4,14.612,1.392,1.392,0,0,1-.39,1.929A1.386,1.386,0,0,1-37.233-274.742Z" transform="translate(43.253 320.773)"/>
          </g>
          <g id="g259" transform="translate(30.726 69.346)">
            <path id="path261" d="M-149.274-30.648a29.118,29.118,0,0,1-16.151-4.86,1.392,1.392,0,0,1-.39-1.929,1.392,1.392,0,0,1,1.929-.39,26.343,26.343,0,0,0,14.612,4.4,26.619,26.619,0,0,0,6.019-.687,1.392,1.392,0,0,1,1.671,1.04,1.392,1.392,0,0,1-1.04,1.671A29.406,29.406,0,0,1-149.274-30.648Z" transform="translate(166.047 38.058)"/>
          </g>
          <g id="g263" transform="translate(58.027 31.347)">
            <path id="path265" d="M-89.94,37.211a1.392,1.392,0,0,1-1.258-.8,1.392,1.392,0,0,1,.661-1.854,26.61,26.61,0,0,0,15.15-23.937,26.343,26.343,0,0,0-4.4-14.612l2.319-1.54A29.13,29.13,0,0,1-72.6,10.625,29.406,29.406,0,0,1-89.345,37.077,1.386,1.386,0,0,1-89.94,37.211Z" transform="translate(91.333 5.528)"/>
          </g>
          <g id="g267" transform="translate(0 17.669)">
            <path id="path269" d="M-33.02,67.329a47.553,47.553,0,0,1-47.5-47.5,47.027,47.027,0,0,1,10.11-29.3A1.392,1.392,0,0,1-68.456-9.7,1.392,1.392,0,0,1-68.22-7.75a44.269,44.269,0,0,0-9.517,27.58A44.767,44.767,0,0,0-33.02,64.546a44.269,44.269,0,0,0,27.58-9.517,1.392,1.392,0,0,1,1.954.236,1.392,1.392,0,0,1-.236,1.954A47.027,47.027,0,0,1-33.02,67.329Z" transform="translate(80.52 10)"/>
          </g>
          <g id="g271" transform="translate(28.154 0)">
            <path id="path273" d="M45.637,41.266a1.392,1.392,0,0,1-1.094-2.251,44.269,44.269,0,0,0,9.517-27.58A44.767,44.767,0,0,0,9.343-33.281,44.426,44.426,0,0,0-8.068-29.764,1.392,1.392,0,0,1-9.892-30.5a1.392,1.392,0,0,1,.739-1.824,47.194,47.194,0,0,1,18.5-3.737,47.553,47.553,0,0,1,47.5,47.5,47.027,47.027,0,0,1-10.11,29.3A1.389,1.389,0,0,1,45.637,41.266Z" transform="translate(10.003 36.064)"/>
          </g>
          <g id="g275" transform="translate(17.669 6.292)">
            <path id="path277" d="M-8.608-29a1.389,1.389,0,0,1-1.1-.533,1.392,1.392,0,0,1,.236-1.954,47.784,47.784,0,0,1,5.33-3.627,1.392,1.392,0,0,1,1.9.5,1.392,1.392,0,0,1-.5,1.9A44.989,44.989,0,0,0-7.75-29.3,1.386,1.386,0,0,1-8.608-29Z" transform="translate(10 35.306)"/>
          </g>
          <g id="g279" transform="translate(42.679 44.129)">
            <path id="path281" d="M-110.977-70.446a9.318,9.318,0,0,1-3.567-.709,9.381,9.381,0,0,1-5.094-12.233,9.343,9.343,0,0,1,8.667-5.8,9.318,9.318,0,0,1,3.566.709,9.381,9.381,0,0,1,5.094,12.233A9.343,9.343,0,0,1-110.977-70.446Zm.006-15.961a6.569,6.569,0,0,0-6.093,4.08,6.594,6.594,0,0,0,3.581,8.6,6.549,6.549,0,0,0,2.506.5,6.569,6.569,0,0,0,6.093-4.08,6.594,6.594,0,0,0-3.581-8.6A6.548,6.548,0,0,0-110.97-86.407Z" transform="translate(120.344 89.19)"/>
          </g>
          <g id="g283" transform="translate(60.094 20.993)">
            <path id="path285" d="M-14.737-64.369a6.913,6.913,0,0,1-4.92-2.038,6.966,6.966,0,0,1,0-9.84,6.913,6.913,0,0,1,4.92-2.038,6.912,6.912,0,0,1,4.92,2.038,6.966,6.966,0,0,1,0,9.84A6.913,6.913,0,0,1-14.737-64.369Zm0-11.133a4.148,4.148,0,0,0-2.952,1.223,4.18,4.18,0,0,0,0,5.9,4.148,4.148,0,0,0,2.952,1.223,4.148,4.148,0,0,0,2.952-1.223,4.18,4.18,0,0,0,0-5.9A4.148,4.148,0,0,0-14.737-75.5Z" transform="translate(21.691 78.285)"/>
          </g>
          <g id="g287" transform="translate(20.996 60.09)">
            <path id="path289" d="M-14.738-64.368a6.913,6.913,0,0,1-4.92-2.038,6.966,6.966,0,0,1,0-9.84,6.913,6.913,0,0,1,4.92-2.038,6.913,6.913,0,0,1,4.92,2.038,6.966,6.966,0,0,1,0,9.84A6.913,6.913,0,0,1-14.738-64.368Zm0-11.133a4.148,4.148,0,0,0-2.952,1.223,4.18,4.18,0,0,0,0,5.9,4.148,4.148,0,0,0,2.952,1.223,4.148,4.148,0,0,0,2.952-1.223,4.18,4.18,0,0,0,0-5.9A4.148,4.148,0,0,0-14.738-75.5Z" transform="translate(21.692 78.284)"/>
          </g>
          <g id="g291" transform="translate(7.942 7.938)">
            <path id="path293" d="M-71.305-21.716a6.912,6.912,0,0,1,4.92,2.038,6.966,6.966,0,0,1,0,9.84A6.912,6.912,0,0,1-71.305-7.8a6.912,6.912,0,0,1-4.92-2.038,6.966,6.966,0,0,1,0-9.84A6.912,6.912,0,0,1-71.305-21.716Zm0,11.133a4.147,4.147,0,0,0,2.952-1.223,4.179,4.179,0,0,0,0-5.9,4.147,4.147,0,0,0-2.952-1.223,4.147,4.147,0,0,0-2.952,1.223,4.179,4.179,0,0,0,0,5.9A4.147,4.147,0,0,0-71.305-10.583Z" transform="translate(78.26 21.716)"/>
          </g>
          <g id="g295" transform="translate(73.148 73.145)">
            <path id="path297" d="M-71.305-21.716a6.912,6.912,0,0,1,4.92,2.038,6.966,6.966,0,0,1,0,9.84A6.912,6.912,0,0,1-71.305-7.8a6.912,6.912,0,0,1-4.92-2.038,6.966,6.966,0,0,1,0-9.84A6.912,6.912,0,0,1-71.305-21.716Zm0,11.133a4.147,4.147,0,0,0,2.952-1.223,4.179,4.179,0,0,0,0-5.9,4.147,4.147,0,0,0-2.952-1.223,4.147,4.147,0,0,0-2.952,1.223,4.179,4.179,0,0,0,0,5.9A4.147,4.147,0,0,0-71.305-10.583Z" transform="translate(78.26 21.716)"/>
          </g>
          <g id="g299" transform="translate(47.543 52.11)">
            <path id="path301" d="M-2.379-7.217h-6.23A1.392,1.392,0,0,1-10-8.608,1.392,1.392,0,0,1-8.608-10h6.23A1.392,1.392,0,0,1-.987-8.608,1.392,1.392,0,0,1-2.379-7.217Z" transform="translate(10 10)"/>
          </g>
          <g id="g303" transform="translate(50.658 48.995)">
            <path id="path305" d="M-8.608-45.754A1.392,1.392,0,0,1-10-47.145v-6.23a1.392,1.392,0,0,1,1.392-1.392,1.392,1.392,0,0,1,1.392,1.392v6.23A1.392,1.392,0,0,1-8.608-45.754Z" transform="translate(10 54.767)"/>
          </g>
          <g id="g307" transform="translate(77.977 78.711)">
            <path id="path309" d="M-6.879-7.217H-8.608A1.392,1.392,0,0,1-10-8.608,1.392,1.392,0,0,1-8.608-10h1.729A1.392,1.392,0,0,1-5.488-8.608,1.392,1.392,0,0,1-6.879-7.217Z" transform="translate(10 10)"/>
          </g>
          <g id="g311" transform="translate(64.792 26.497)">
            <path id="path313" d="M-6.879-7.217H-8.608A1.392,1.392,0,0,1-10-8.608,1.392,1.392,0,0,1-8.608-10h1.729A1.392,1.392,0,0,1-5.488-8.608,1.392,1.392,0,0,1-6.879-7.217Z" transform="translate(10 10)"/>
          </g>
          <g id="g315" transform="translate(12.64 13.505)">
            <path id="path317" d="M-6.879-7.217H-8.608A1.392,1.392,0,0,1-10-8.608,1.392,1.392,0,0,1-8.608-10h1.729A1.392,1.392,0,0,1-5.488-8.608,1.392,1.392,0,0,1-6.879-7.217Z" transform="translate(10 10)"/>
          </g>
          <g id="g319" transform="translate(25.695 65.657)">
            <path id="path321" d="M-6.879-7.217H-8.608A1.392,1.392,0,0,1-10-8.608,1.392,1.392,0,0,1-8.608-10h1.729A1.392,1.392,0,0,1-5.488-8.608,1.392,1.392,0,0,1-6.879-7.217Z" transform="translate(10 10)"/>
          </g>
        </g>
      </g>
    </g>
  </g>
</svg>
