<svg xmlns="http://www.w3.org/2000/svg" width="821" height="167" viewBox="0 0 821 167">
  <g id="Grupo_1108951" data-name="Grupo 1108951" transform="translate(-389.051 -3509)">
    <path id="Trazado_899862" data-name="Trazado 899862" d="M20,0H801a20,20,0,0,1,20,20V147a20,20,0,0,1-20,20H20A20,20,0,0,1,0,147V20A20,20,0,0,1,20,0Z" transform="translate(389.051 3509)" fill="#e6fcff"/>
    <path id="Trazado_899863" data-name="Trazado 899863" d="M-27.066,0h-1.508V-5.258h-5.734V0h-1.5V-11.375h1.5v4.891h5.734v-4.891h1.508Zm4.008,0H-24.5V-8.453h1.445Zm-1.562-10.7a.863.863,0,0,1,.215-.594.807.807,0,0,1,.637-.242.819.819,0,0,1,.641.242.854.854,0,0,1,.219.594.826.826,0,0,1-.219.586.834.834,0,0,1-.641.234.821.821,0,0,1-.637-.234A.834.834,0,0,1-24.621-10.7ZM-21.1-4.3a4.952,4.952,0,0,1,.922-3.129,2.915,2.915,0,0,1,2.414-1.184A2.932,2.932,0,0,1-15.41-7.594V-12h1.445V0h-1.328l-.07-.906A2.943,2.943,0,0,1-17.777.156a2.887,2.887,0,0,1-2.395-1.2A5.008,5.008,0,0,1-21.1-4.187Zm1.445.164a3.749,3.749,0,0,0,.594,2.25,1.92,1.92,0,0,0,1.641.813A2.108,2.108,0,0,0-15.41-2.3V-6.187a2.125,2.125,0,0,0-1.992-1.2,1.929,1.929,0,0,0-1.656.82A4.128,4.128,0,0,0-19.652-4.133ZM-7.637-7.156a4.331,4.331,0,0,0-.711-.055A1.9,1.9,0,0,0-10.277-6V0h-1.445V-8.453h1.406l.023.977A2.251,2.251,0,0,1-8.277-8.609a1.477,1.477,0,0,1,.641.109ZM-6.691-4.3A4.993,4.993,0,0,1-6.2-6.539,3.643,3.643,0,0,1-4.844-8.07a3.7,3.7,0,0,1,1.988-.539,3.565,3.565,0,0,1,2.793,1.2A4.6,4.6,0,0,1,1-4.234v.1A5.036,5.036,0,0,1,.531-1.918,3.589,3.589,0,0,1-.82-.391,3.743,3.743,0,0,1-2.84.156a3.556,3.556,0,0,1-2.785-1.2A4.575,4.575,0,0,1-6.691-4.2Zm1.453.172a3.616,3.616,0,0,0,.652,2.258,2.088,2.088,0,0,0,1.746.852,2.075,2.075,0,0,0,1.75-.863A3.955,3.955,0,0,0-.441-4.3,3.61,3.61,0,0,0-1.1-6.559a2.1,2.1,0,0,0-1.754-.863,2.075,2.075,0,0,0-1.727.852A3.925,3.925,0,0,0-5.238-4.133ZM-2.2-12h1.75L-2.543-9.7H-3.707ZM2.473-4.3a4.968,4.968,0,0,1,.914-3.145A2.923,2.923,0,0,1,5.809-8.609,2.908,2.908,0,0,1,8.223-7.516l.07-.937h1.32V-.2a3.439,3.439,0,0,1-.973,2.586,3.589,3.589,0,0,1-2.613.945,4.348,4.348,0,0,1-1.789-.391A3.08,3.08,0,0,1,2.9,1.867L3.652,1A2.826,2.826,0,0,0,5.926,2.148,2.214,2.214,0,0,0,7.57,1.555,2.269,2.269,0,0,0,8.16-.117V-.844a2.971,2.971,0,0,1-2.367,1,2.887,2.887,0,0,1-2.4-1.2A5.224,5.224,0,0,1,2.473-4.3Zm1.453.164a3.79,3.79,0,0,0,.586,2.246,1.9,1.9,0,0,0,1.641.816A2.117,2.117,0,0,0,8.16-2.312V-6.172A2.142,2.142,0,0,0,6.168-7.383a1.921,1.921,0,0,0-1.648.82A4.128,4.128,0,0,0,3.926-4.133ZM15.3.156A3.693,3.693,0,0,1,12.5-.973a4.19,4.19,0,0,1-1.078-3.02v-.266a5.073,5.073,0,0,1,.48-2.246A3.748,3.748,0,0,1,13.25-8.051a3.378,3.378,0,0,1,1.871-.559,3.166,3.166,0,0,1,2.563,1.086A4.7,4.7,0,0,1,18.6-4.414v.6H12.871a3,3,0,0,0,.73,2.02,2.3,2.3,0,0,0,1.777.77,2.517,2.517,0,0,0,1.3-.312,3.259,3.259,0,0,0,.93-.828l.883.688A3.55,3.55,0,0,1,15.3.156Zm-.18-7.578a1.928,1.928,0,0,0-1.469.637A3.1,3.1,0,0,0,12.918-5h4.234v-.109a2.753,2.753,0,0,0-.594-1.707A1.815,1.815,0,0,0,15.121-7.422Zm6.516-1.031.047,1.063a3.08,3.08,0,0,1,2.531-1.219q2.68,0,2.7,3.023V0H25.473V-5.594a1.946,1.946,0,0,0-.418-1.352,1.675,1.675,0,0,0-1.277-.437,2.086,2.086,0,0,0-1.234.375,2.546,2.546,0,0,0-.828.984V0H20.27V-8.453ZM28.715-4.3A4.993,4.993,0,0,1,29.2-6.539,3.643,3.643,0,0,1,30.563-8.07a3.7,3.7,0,0,1,1.988-.539,3.565,3.565,0,0,1,2.793,1.2,4.6,4.6,0,0,1,1.066,3.18v.1a5.036,5.036,0,0,1-.473,2.215A3.589,3.589,0,0,1,34.586-.391a3.743,3.743,0,0,1-2.02.547,3.556,3.556,0,0,1-2.785-1.2A4.575,4.575,0,0,1,28.715-4.2Zm1.453.172a3.616,3.616,0,0,0,.652,2.258,2.088,2.088,0,0,0,1.746.852,2.075,2.075,0,0,0,1.75-.863A3.955,3.955,0,0,0,34.965-4.3a3.61,3.61,0,0,0-.66-2.254,2.1,2.1,0,0,0-1.754-.863,2.075,2.075,0,0,0-1.727.852A3.925,3.925,0,0,0,30.168-4.133Z" transform="translate(589.051 3665)" fill="#12263f"/>
    <path id="Trazado_899864" data-name="Trazado 899864" d="M-28.637,0V-11.375h3.211a5.169,5.169,0,0,1,2.625.656,4.438,4.438,0,0,1,1.762,1.867A6.078,6.078,0,0,1-20.41-6.07v.727a6.1,6.1,0,0,1-.621,2.82A4.369,4.369,0,0,1-22.8-.664,5.5,5.5,0,0,1-25.488,0Zm1.5-10.141v8.914h1.578a3.435,3.435,0,0,0,2.7-1.078,4.452,4.452,0,0,0,.965-3.07v-.664a4.522,4.522,0,0,0-.91-3.012,3.24,3.24,0,0,0-2.582-1.09ZM-14.863.156a3.693,3.693,0,0,1-2.8-1.129,4.19,4.19,0,0,1-1.078-3.02v-.266a5.073,5.073,0,0,1,.48-2.246,3.748,3.748,0,0,1,1.344-1.547,3.378,3.378,0,0,1,1.871-.559A3.166,3.166,0,0,1-12.48-7.523a4.7,4.7,0,0,1,.914,3.109v.6h-5.727a3,3,0,0,0,.73,2.02,2.3,2.3,0,0,0,1.777.77,2.517,2.517,0,0,0,1.3-.312,3.259,3.259,0,0,0,.93-.828l.883.688A3.55,3.55,0,0,1-14.863.156Zm-.18-7.578a1.928,1.928,0,0,0-1.469.637A3.1,3.1,0,0,0-17.246-5h4.234v-.109a2.753,2.753,0,0,0-.594-1.707A1.815,1.815,0,0,0-15.043-7.422ZM-4.676-.836A3.07,3.07,0,0,1-7.152.156,2.628,2.628,0,0,1-9.211-.629a3.4,3.4,0,0,1-.715-2.324v-5.5H-8.48v5.461q0,1.922,1.563,1.922A2.163,2.163,0,0,0-4.715-2.3V-8.453H-3.27V0H-4.645ZM.887-10.5v2.047H2.465v1.117H.887v5.242a1.171,1.171,0,0,0,.211.762.888.888,0,0,0,.719.254A3.5,3.5,0,0,0,2.5-1.172V0A4.19,4.19,0,0,1,1.395.156,1.8,1.8,0,0,1-.066-.43,2.517,2.517,0,0,1-.559-2.094V-7.336H-2.1V-8.453H-.559V-10.5ZM7.66.156a3.693,3.693,0,0,1-2.8-1.129,4.19,4.19,0,0,1-1.078-3.02v-.266A5.073,5.073,0,0,1,4.266-6.5,3.748,3.748,0,0,1,5.609-8.051,3.378,3.378,0,0,1,7.48-8.609a3.166,3.166,0,0,1,2.563,1.086,4.7,4.7,0,0,1,.914,3.109v.6H5.23a3,3,0,0,0,.73,2.02,2.3,2.3,0,0,0,1.777.77,2.517,2.517,0,0,0,1.3-.312,3.259,3.259,0,0,0,.93-.828l.883.688A3.55,3.55,0,0,1,7.66.156ZM7.48-7.422a1.928,1.928,0,0,0-1.469.637A3.1,3.1,0,0,0,5.277-5H9.512v-.109a2.753,2.753,0,0,0-.594-1.707A1.815,1.815,0,0,0,7.48-7.422Zm9.234.266A4.331,4.331,0,0,0,16-7.211,1.9,1.9,0,0,0,14.074-6V0H12.629V-8.453h1.406l.023.977a2.251,2.251,0,0,1,2.016-1.133,1.477,1.477,0,0,1,.641.109ZM19.613,0H18.168V-8.453h1.445ZM18.051-10.7a.863.863,0,0,1,.215-.594.807.807,0,0,1,.637-.242.819.819,0,0,1,.641.242.854.854,0,0,1,.219.594.826.826,0,0,1-.219.586.834.834,0,0,1-.641.234.821.821,0,0,1-.637-.234A.834.834,0,0,1,18.051-10.7ZM21.543-4.3a4.993,4.993,0,0,1,.488-2.234A3.643,3.643,0,0,1,23.391-8.07a3.7,3.7,0,0,1,1.988-.539,3.565,3.565,0,0,1,2.793,1.2,4.6,4.6,0,0,1,1.066,3.18v.1a5.036,5.036,0,0,1-.473,2.215A3.589,3.589,0,0,1,27.414-.391a3.743,3.743,0,0,1-2.02.547,3.556,3.556,0,0,1-2.785-1.2A4.575,4.575,0,0,1,21.543-4.2ZM23-4.133a3.616,3.616,0,0,0,.652,2.258,2.088,2.088,0,0,0,1.746.852,2.075,2.075,0,0,0,1.75-.863A3.955,3.955,0,0,0,27.793-4.3a3.61,3.61,0,0,0-.66-2.254,2.1,2.1,0,0,0-1.754-.863,2.075,2.075,0,0,0-1.727.852A3.925,3.925,0,0,0,23-4.133Z" transform="translate(798.051 3665)" fill="#12263f"/>
    <path id="Trazado_899865" data-name="Trazado 899865" d="M-9.066-10.141h-3.656V0h-1.492V-10.141h-3.648v-1.234h8.8Zm4.961,2.984a4.331,4.331,0,0,0-.711-.055A1.9,1.9,0,0,0-6.746-6V0H-8.191V-8.453h1.406l.023.977A2.251,2.251,0,0,1-4.746-8.609a1.477,1.477,0,0,1,.641.109ZM-1.207,0H-2.652V-8.453h1.445ZM-2.77-10.7a.863.863,0,0,1,.215-.594.807.807,0,0,1,.637-.242.819.819,0,0,1,.641.242.854.854,0,0,1,.219.594.826.826,0,0,1-.219.586.834.834,0,0,1-.641.234.821.821,0,0,1-.637-.234A.834.834,0,0,1-2.77-10.7Zm5.836.2v2.047H4.645v1.117H3.066v5.242a1.171,1.171,0,0,0,.211.762A.888.888,0,0,0,4-1.078a3.5,3.5,0,0,0,.688-.094V0A4.19,4.19,0,0,1,3.574.156,1.8,1.8,0,0,1,2.113-.43a2.517,2.517,0,0,1-.492-1.664V-7.336H.082V-8.453H1.621V-10.5ZM7.9,0H6.457V-8.453H7.9ZM6.34-10.7a.863.863,0,0,1,.215-.594.807.807,0,0,1,.637-.242.819.819,0,0,1,.641.242.854.854,0,0,1,.219.594.826.826,0,0,1-.219.586.834.834,0,0,1-.641.234.821.821,0,0,1-.637-.234A.834.834,0,0,1,6.34-10.7ZM9.832-4.3a4.993,4.993,0,0,1,.488-2.234A3.643,3.643,0,0,1,11.68-8.07a3.7,3.7,0,0,1,1.988-.539,3.565,3.565,0,0,1,2.793,1.2,4.6,4.6,0,0,1,1.066,3.18v.1a5.036,5.036,0,0,1-.473,2.215A3.589,3.589,0,0,1,15.7-.391a3.743,3.743,0,0,1-2.02.547,3.556,3.556,0,0,1-2.785-1.2A4.575,4.575,0,0,1,9.832-4.2Zm1.453.172a3.616,3.616,0,0,0,.652,2.258,2.088,2.088,0,0,0,1.746.852,2.075,2.075,0,0,0,1.75-.863A3.955,3.955,0,0,0,16.082-4.3a3.61,3.61,0,0,0-.66-2.254,2.1,2.1,0,0,0-1.754-.863,2.075,2.075,0,0,0-1.727.852A3.925,3.925,0,0,0,11.285-4.133Z" transform="translate(1008.051 3665)" fill="#12263f"/>
    <g id="Grupo_1108415" data-name="Grupo 1108415" transform="translate(157 -19)">
      <text id="_1" data-name="1" transform="translate(380.051 3592)" fill="#ff0057" font-size="55" font-family="Helvetica"><tspan x="-15.294" y="0">1</tspan></text>
      <text id="_1-2" data-name="1" transform="translate(380.051 3653)" fill="#4d0099" font-size="55" font-family="Helvetica"><tspan x="-15.294" y="0">1</tspan></text>
      <path id="Trazado_899356" data-name="Trazado 899356" d="M-70.482-56.914l8.01-1.7a3.96,3.96,0,0,0,2.113-1.325,3.6,3.6,0,0,0,.851-2.4v-70.136a3.686,3.686,0,0,0-.851-2.46,3.96,3.96,0,0,0-2.113-1.324l-8.01-1.64v-2.964h33.3v2.964l-7.947,1.64a4.049,4.049,0,0,0-2.144,1.356,3.638,3.638,0,0,0-.883,2.428v30.842H-5.9v-30.842a3.447,3.447,0,0,0-.851-2.4,5.019,5.019,0,0,0-2.113-1.388l-8.01-1.64v-2.964h33.3v2.964l-8.01,1.64a3.521,3.521,0,0,0-2.113,1.324,3.845,3.845,0,0,0-.851,2.46v70.136a3.565,3.565,0,0,0,.851,2.428,4.036,4.036,0,0,0,2.113,1.293l8.01,1.7v2.964h-33.3v-2.964l8.01-1.7a3.96,3.96,0,0,0,2.113-1.325,3.6,3.6,0,0,0,.851-2.4V-96.712H-48.155v34.374A3.565,3.565,0,0,0-47.3-59.91a4.051,4.051,0,0,0,2.176,1.293l7.947,1.7v2.964h-33.3Z" transform="translate(478.569 3708.004)" fill="#0ac675"/>
    </g>
    <g id="Grupo_1108414" data-name="Grupo 1108414" transform="translate(157 -19)">
      <text id="_2" data-name="2" transform="translate(590.051 3592)" fill="#ff0057" font-size="55" font-family="Helvetica"><tspan x="-15.294" y="0">2</tspan></text>
      <text id="_1-3" data-name="1" transform="translate(590.051 3653)" fill="#4d0099" font-size="55" font-family="Helvetica"><tspan x="-15.294" y="0">1</tspan></text>
      <path id="Trazado_899357" data-name="Trazado 899357" d="M-70.482-56.914l8.01-1.7a3.96,3.96,0,0,0,2.113-1.325,3.6,3.6,0,0,0,.851-2.4v-70.136a3.686,3.686,0,0,0-.851-2.46,3.96,3.96,0,0,0-2.113-1.324l-8.01-1.64v-2.964h33.3v2.964l-7.947,1.64a4.049,4.049,0,0,0-2.144,1.356,3.638,3.638,0,0,0-.883,2.428v30.842H-5.9v-30.842a3.447,3.447,0,0,0-.851-2.4,5.019,5.019,0,0,0-2.113-1.388l-8.01-1.64v-2.964h33.3v2.964l-8.01,1.64a3.521,3.521,0,0,0-2.113,1.324,3.845,3.845,0,0,0-.851,2.46v70.136a3.565,3.565,0,0,0,.851,2.428,4.036,4.036,0,0,0,2.113,1.293l8.01,1.7v2.964h-33.3v-2.964l8.01-1.7a3.96,3.96,0,0,0,2.113-1.325,3.6,3.6,0,0,0,.851-2.4V-96.712H-48.155v34.374A3.565,3.565,0,0,0-47.3-59.91a4.051,4.051,0,0,0,2.176,1.293l7.947,1.7v2.964h-33.3Z" transform="translate(688.569 3708.004)" fill="#0ac675"/>
    </g>
    <g id="Grupo_1108413" data-name="Grupo 1108413" transform="translate(157 -19)">
      <text id="_2-2" data-name="2" transform="translate(800.051 3592)" fill="#ff0057" font-size="55" font-family="Helvetica"><tspan x="-15.294" y="0">2</tspan></text>
      <text id="_1-4" data-name="1" transform="translate(800.051 3653)" fill="#4d0099" font-size="55" font-family="Helvetica"><tspan x="-15.294" y="0">1</tspan></text>
      <path id="Trazado_899358" data-name="Trazado 899358" d="M-70.482-56.914l8.01-1.7a3.96,3.96,0,0,0,2.113-1.325,3.6,3.6,0,0,0,.851-2.4v-70.136a3.686,3.686,0,0,0-.851-2.46,3.96,3.96,0,0,0-2.113-1.324l-8.01-1.64v-2.964h33.3v2.964l-7.947,1.64a4.049,4.049,0,0,0-2.144,1.356,3.638,3.638,0,0,0-.883,2.428v30.842H-5.9v-30.842a3.447,3.447,0,0,0-.851-2.4,5.019,5.019,0,0,0-2.113-1.388l-8.01-1.64v-2.964h33.3v2.964l-8.01,1.64a3.521,3.521,0,0,0-2.113,1.324,3.845,3.845,0,0,0-.851,2.46v70.136a3.565,3.565,0,0,0,.851,2.428,4.036,4.036,0,0,0,2.113,1.293l8.01,1.7v2.964h-33.3v-2.964l8.01-1.7a3.96,3.96,0,0,0,2.113-1.325,3.6,3.6,0,0,0,.851-2.4V-96.712H-48.155v34.374A3.565,3.565,0,0,0-47.3-59.91a4.051,4.051,0,0,0,2.176,1.293l7.947,1.7v2.964h-33.3Z" transform="translate(898.569 3708.004)" fill="#0ac675"/>
    </g>
  </g>
</svg>
