<svg xmlns="http://www.w3.org/2000/svg" width="485" height="201" viewBox="0 0 485 201">
  <g id="Grupo_1108956" data-name="Grupo 1108956" transform="translate(-5355 6926)">
    <rect id="Rectángulo_406086" data-name="Rectángulo 406086" width="485" height="201" rx="5" transform="translate(5355 -6926)" fill="#fff"/>
    <path id="Trazado_899948" data-name="Trazado 899948" d="M14.126,23H10.9V16.3H4.619V23H1.4V7.359H4.619V13.7H10.9V7.359h3.223Zm2.761-1.525a1.563,1.563,0,0,1,.5-1.2,1.941,1.941,0,0,1,2.514,0,1.563,1.563,0,0,1,.5,1.2,1.542,1.542,0,0,1-.494,1.187,1.973,1.973,0,0,1-2.524,0A1.542,1.542,0,0,1,16.887,21.475Zm0-8.8a1.563,1.563,0,0,1,.5-1.2,1.941,1.941,0,0,1,2.514,0,1.563,1.563,0,0,1,.5,1.2,1.542,1.542,0,0,1-.494,1.187,1.973,1.973,0,0,1-2.524,0A1.542,1.542,0,0,1,16.887,12.677ZM35.063,23h-2V9.755l-4.007,1.472v-1.8l5.693-2.138h.312Zm15.372-7.38,2.578-4.243h2.32l-3.8,5.747L55.451,23h-2.3l-2.686-4.351L47.781,23h-2.31l3.921-5.876-3.8-5.747h2.3ZM72.929,23H62.681V21.571l5.414-6.016a12.862,12.862,0,0,0,1.66-2.218,3.7,3.7,0,0,0,.457-1.767,2.806,2.806,0,0,0-.741-2.009,2.592,2.592,0,0,0-1.977-.784,3.069,3.069,0,0,0-2.3.843,3.221,3.221,0,0,0-.822,2.347H62.38a4.613,4.613,0,0,1,1.391-3.491,5.157,5.157,0,0,1,3.722-1.332,4.955,4.955,0,0,1,3.448,1.144,3.9,3.9,0,0,1,1.268,3.045q0,2.31-2.943,5.5l-4.189,4.544h7.853Zm16.844-8.744H80.813V12.526h8.959Zm0,4.458H80.813V17h8.959ZM108.249,23H98V21.571l5.414-6.016a12.862,12.862,0,0,0,1.66-2.218,3.7,3.7,0,0,0,.457-1.767,2.806,2.806,0,0,0-.741-2.009,2.592,2.592,0,0,0-1.977-.784,3.069,3.069,0,0,0-2.3.843,3.221,3.221,0,0,0-.822,2.347H97.7a4.613,4.613,0,0,1,1.391-3.491,5.157,5.157,0,0,1,3.722-1.332,4.955,4.955,0,0,1,3.448,1.144,3.9,3.9,0,0,1,1.268,3.045q0,2.31-2.943,5.5L100.4,21.378h7.853Zm7.133.215a5.078,5.078,0,0,1-3.846-1.552,5.761,5.761,0,0,1-1.482-4.152v-.365a6.975,6.975,0,0,1,.661-3.088,5.154,5.154,0,0,1,1.848-2.127,4.645,4.645,0,0,1,2.573-.768,4.353,4.353,0,0,1,3.523,1.493,6.465,6.465,0,0,1,1.257,4.275v.827h-7.874a4.132,4.132,0,0,0,1,2.777,3.157,3.157,0,0,0,2.444,1.058,3.461,3.461,0,0,0,1.783-.43,4.481,4.481,0,0,0,1.278-1.139l1.214.945A4.881,4.881,0,0,1,115.382,23.215Zm-.247-10.42a2.651,2.651,0,0,0-2.02.875,4.255,4.255,0,0,0-1.01,2.455h5.822v-.15a3.785,3.785,0,0,0-.816-2.347A2.5,2.5,0,0,0,115.135,12.795ZM124,12.6h-3.058v-.946H124ZM9.507,66.9a1.654,1.654,0,0,0-.645-1.4,8.454,8.454,0,0,0-2.32-1.031,16.449,16.449,0,0,1-2.653-1.069,4.335,4.335,0,0,1-2.664-3.878,3.777,3.777,0,0,1,.714-2.261A4.66,4.66,0,0,1,3.991,55.7a7.723,7.723,0,0,1,3-.559,7.029,7.029,0,0,1,2.986.607,4.755,4.755,0,0,1,2.036,1.713,4.483,4.483,0,0,1,.725,2.514H9.518a2.109,2.109,0,0,0-.677-1.67,2.782,2.782,0,0,0-1.9-.6,2.972,2.972,0,0,0-1.837.5,1.576,1.576,0,0,0-.655,1.316,1.509,1.509,0,0,0,.768,1.278,8.678,8.678,0,0,0,2.261.967,9.77,9.77,0,0,1,4.007,2.052,4.086,4.086,0,0,1,1.257,3.051A3.764,3.764,0,0,1,11.2,70.06a6.725,6.725,0,0,1-4.136,1.155,7.986,7.986,0,0,1-3.287-.661,5.2,5.2,0,0,1-2.261-1.81A4.635,4.635,0,0,1,.741,66.08H3.975q0,2.589,3.094,2.589A3.01,3.01,0,0,0,8.862,68.2,1.52,1.52,0,0,0,9.507,66.9Zm5.36,2.578a1.563,1.563,0,0,1,.5-1.2,1.941,1.941,0,0,1,2.514,0,1.563,1.563,0,0,1,.5,1.2,1.542,1.542,0,0,1-.494,1.187,1.973,1.973,0,0,1-2.524,0A1.542,1.542,0,0,1,14.867,69.475Zm0-8.8a1.563,1.563,0,0,1,.5-1.2,1.941,1.941,0,0,1,2.514,0,1.563,1.563,0,0,1,.5,1.2,1.542,1.542,0,0,1-.494,1.187,1.973,1.973,0,0,1-2.524,0A1.542,1.542,0,0,1,14.867,60.677Zm19.411-5.328v1.687h-.365a5.232,5.232,0,0,0-3.7,1.375,5.722,5.722,0,0,0-1.59,3.749A4.242,4.242,0,0,1,32,60.741a4.056,4.056,0,0,1,3.26,1.439,6.308,6.308,0,0,1-.1,7.584,4.531,4.531,0,0,1-3.529,1.45,4.465,4.465,0,0,1-3.642-1.724,6.833,6.833,0,0,1-1.4-4.442v-.763q0-4.318,1.842-6.6a6.766,6.766,0,0,1,5.484-2.336ZM31.668,62.4A3.34,3.34,0,0,0,28.6,64.544v.73a5.131,5.131,0,0,0,.87,3.115,2.607,2.607,0,0,0,2.17,1.182,2.527,2.527,0,0,0,2.111-.988,4.747,4.747,0,0,0-.011-5.194A2.5,2.5,0,0,0,31.668,62.4ZM43.86,71.215a5.078,5.078,0,0,1-3.846-1.552,5.761,5.761,0,0,1-1.482-4.152v-.365a6.975,6.975,0,0,1,.661-3.088,5.154,5.154,0,0,1,1.848-2.127,4.645,4.645,0,0,1,2.573-.768,4.353,4.353,0,0,1,3.523,1.493,6.465,6.465,0,0,1,1.257,4.275v.827H40.52a4.132,4.132,0,0,0,1,2.777,3.157,3.157,0,0,0,2.444,1.058,3.461,3.461,0,0,0,1.783-.43,4.48,4.48,0,0,0,1.278-1.139l1.214.945A4.881,4.881,0,0,1,43.86,71.215Zm-.247-10.42a2.651,2.651,0,0,0-2.02.875,4.255,4.255,0,0,0-1.01,2.455h5.822v-.15a3.785,3.785,0,0,0-.816-2.347A2.5,2.5,0,0,0,43.613,60.795Zm8.865-.2H49.42v-.946h3.058ZM14.244,111.534a9.442,9.442,0,0,1-.816,4.05,6.148,6.148,0,0,1-2.336,2.686,6.463,6.463,0,0,1-3.486.945,6.507,6.507,0,0,1-3.47-.935,6.209,6.209,0,0,1-2.363-2.669,9.172,9.172,0,0,1-.849-3.991v-.773a9.392,9.392,0,0,1,.833-4.066,6.2,6.2,0,0,1,2.353-2.7,6.471,6.471,0,0,1,3.475-.94,6.471,6.471,0,0,1,3.475.94,6.2,6.2,0,0,1,2.353,2.7,9.366,9.366,0,0,1,.833,4.055Zm-3.266-.709a6.582,6.582,0,0,0-.881-3.738,2.871,2.871,0,0,0-2.514-1.278,2.872,2.872,0,0,0-2.5,1.262,6.507,6.507,0,0,0-.892,3.7v.763a6.664,6.664,0,0,0,.881,3.717,2.863,2.863,0,0,0,2.535,1.321A2.837,2.837,0,0,0,10.1,115.3a6.626,6.626,0,0,0,.881-3.711Zm5.554,6.649a1.563,1.563,0,0,1,.5-1.2,1.941,1.941,0,0,1,2.514,0,1.563,1.563,0,0,1,.5,1.2,1.542,1.542,0,0,1-.494,1.187,1.973,1.973,0,0,1-2.524,0A1.542,1.542,0,0,1,16.532,117.475Zm0-8.8a1.563,1.563,0,0,1,.5-1.2,1.941,1.941,0,0,1,2.514,0,1.563,1.563,0,0,1,.5,1.2,1.542,1.542,0,0,1-.494,1.187,1.973,1.973,0,0,1-2.524,0A1.542,1.542,0,0,1,16.532,108.677Zm19.411-5.328v1.687h-.365a5.232,5.232,0,0,0-3.7,1.375,5.722,5.722,0,0,0-1.59,3.749,4.242,4.242,0,0,1,3.373-1.418,4.056,4.056,0,0,1,3.26,1.439,6.308,6.308,0,0,1-.1,7.584,4.531,4.531,0,0,1-3.529,1.45,4.465,4.465,0,0,1-3.642-1.724,6.833,6.833,0,0,1-1.4-4.442v-.763q0-4.318,1.842-6.6a6.766,6.766,0,0,1,5.484-2.336Zm-2.61,7.047a3.34,3.34,0,0,0-3.072,2.148v.73a5.131,5.131,0,0,0,.87,3.115,2.607,2.607,0,0,0,2.17,1.182,2.527,2.527,0,0,0,2.111-.988,4.747,4.747,0,0,0-.011-5.194A2.5,2.5,0,0,0,33.333,110.4Zm16.715,1.225,2.578-4.243h2.32l-3.8,5.747L55.064,119h-2.3l-2.686-4.351L47.395,119h-2.31l3.921-5.876-3.8-5.747h2.3Zm20.636,2.127h2.17v1.622h-2.17V119h-2v-3.631H61.563V114.2l7-10.839h2.116Zm-6.864,0h4.866v-7.67l-.236.43Zm25.566-3.491H80.427v-1.729h8.959Zm0,4.458H80.427V113h8.959ZM107.862,119H97.614v-1.429l5.414-6.016a12.862,12.862,0,0,0,1.66-2.218,3.7,3.7,0,0,0,.457-1.767,2.806,2.806,0,0,0-.741-2.009,2.592,2.592,0,0,0-1.977-.784,3.069,3.069,0,0,0-2.3.843,3.221,3.221,0,0,0-.822,2.347H97.313a4.613,4.613,0,0,1,1.391-3.491,5.157,5.157,0,0,1,3.722-1.332,4.955,4.955,0,0,1,3.448,1.144,3.9,3.9,0,0,1,1.268,3.045q0,2.31-2.943,5.5l-4.189,4.544h7.853Zm10.5-5.253h2.17v1.622h-2.17V119h-2v-3.631h-7.122V114.2l7-10.839h2.116Zm-6.864,0h4.866v-7.67l-.236.43Zm15.855,5.468a5.078,5.078,0,0,1-3.846-1.552,5.761,5.761,0,0,1-1.482-4.152v-.365a6.975,6.975,0,0,1,.661-3.088,5.154,5.154,0,0,1,1.848-2.127,4.645,4.645,0,0,1,2.573-.768,4.353,4.353,0,0,1,3.523,1.493,6.465,6.465,0,0,1,1.257,4.275v.827h-7.874a4.132,4.132,0,0,0,1,2.777,3.157,3.157,0,0,0,2.444,1.058,3.461,3.461,0,0,0,1.783-.43,4.48,4.48,0,0,0,1.278-1.139l1.214.945A4.881,4.881,0,0,1,127.349,119.215Zm-.247-10.42a2.651,2.651,0,0,0-2.02.875,4.255,4.255,0,0,0-1.01,2.455h5.822v-.15a3.785,3.785,0,0,0-.816-2.347A2.5,2.5,0,0,0,127.1,108.795Zm8.865-.2h-3.058v-.946h3.058Z" transform="translate(5391 -6904)" fill="#12263f"/>
    <path id="Trazado_899949" data-name="Trazado 899949" d="M9.18,6.859H5.523V17H4.031V6.859H.383V5.625h8.8Zm.3,5.836a4.993,4.993,0,0,1,.488-2.234A3.643,3.643,0,0,1,11.332,8.93a3.7,3.7,0,0,1,1.988-.539,3.565,3.565,0,0,1,2.793,1.2,4.6,4.6,0,0,1,1.066,3.18v.1a5.036,5.036,0,0,1-.473,2.215,3.589,3.589,0,0,1-1.352,1.527,3.743,3.743,0,0,1-2.02.547,3.556,3.556,0,0,1-2.785-1.2A4.575,4.575,0,0,1,9.484,12.8Zm1.453.172a3.616,3.616,0,0,0,.652,2.258,2.211,2.211,0,0,0,3.5-.012,3.955,3.955,0,0,0,.648-2.418,3.61,3.61,0,0,0-.66-2.254,2.1,2.1,0,0,0-1.754-.863,2.075,2.075,0,0,0-1.727.852A3.925,3.925,0,0,0,10.938,12.867ZM20.953,6.5V8.547h1.578V9.664H20.953v5.242a1.171,1.171,0,0,0,.211.762.888.888,0,0,0,.719.254,3.5,3.5,0,0,0,.688-.094V17a4.19,4.19,0,0,1-1.109.156A1.8,1.8,0,0,1,20,16.57a2.517,2.517,0,0,1-.492-1.664V9.664H17.969V8.547h1.539V6.5ZM29.438,17a3.036,3.036,0,0,1-.2-.891,3.225,3.225,0,0,1-2.406,1.047,2.984,2.984,0,0,1-2.051-.707,2.287,2.287,0,0,1-.8-1.793,2.39,2.39,0,0,1,1-2.051,4.733,4.733,0,0,1,2.824-.73h1.406v-.664A1.623,1.623,0,0,0,28.758,10a1.821,1.821,0,0,0-1.336-.449,2.107,2.107,0,0,0-1.3.391,1.151,1.151,0,0,0-.523.945H24.148A2,2,0,0,1,24.6,9.668a3.066,3.066,0,0,1,1.219-.934,4.1,4.1,0,0,1,1.691-.344,3.342,3.342,0,0,1,2.289.73,2.635,2.635,0,0,1,.859,2.012v3.891a4.757,4.757,0,0,0,.3,1.852V17Zm-2.4-1.1a2.54,2.54,0,0,0,1.289-.352,2.127,2.127,0,0,0,.883-.914V12.9H28.078q-2.656,0-2.656,1.555a1.316,1.316,0,0,0,.453,1.063A1.742,1.742,0,0,0,27.039,15.9ZM34.492,17H33.047V5h1.445Zm6.227-.758a.905.905,0,0,1,.223-.625.848.848,0,0,1,.668-.25.874.874,0,0,1,.676.25.887.887,0,0,1,.23.625.839.839,0,0,1-.23.6.89.89,0,0,1-.676.242.8.8,0,0,1-.891-.844Zm.008-6.9a.905.905,0,0,1,.223-.625.848.848,0,0,1,.668-.25.874.874,0,0,1,.676.25.887.887,0,0,1,.23.625.839.839,0,0,1-.23.6.89.89,0,0,1-.676.242.8.8,0,0,1-.891-.844Zm9.828,1.266h1.086a2.387,2.387,0,0,0,1.609-.539,1.8,1.8,0,0,0,.586-1.414,1.764,1.764,0,0,0-1.992-2,2.072,2.072,0,0,0-1.5.535,1.873,1.873,0,0,0-.559,1.418H48.344a2.9,2.9,0,0,1,.988-2.246,3.6,3.6,0,0,1,2.512-.895,3.558,3.558,0,0,1,2.523.852,3.076,3.076,0,0,1,.914,2.367,2.5,2.5,0,0,1-.48,1.438,2.9,2.9,0,0,1-1.309,1.039,2.8,2.8,0,0,1,1.449.984,2.734,2.734,0,0,1,.512,1.68,3.1,3.1,0,0,1-1,2.43,3.745,3.745,0,0,1-2.6.9,3.844,3.844,0,0,1-2.605-.867,2.877,2.877,0,0,1-1-2.289H49.7a1.859,1.859,0,0,0,.586,1.438,2.229,2.229,0,0,0,1.57.539,2.187,2.187,0,0,0,1.6-.547,2.108,2.108,0,0,0,.555-1.57,1.912,1.912,0,0,0-.609-1.523,2.655,2.655,0,0,0-1.758-.547H50.555ZM64.891,17H57.438V15.961l3.938-4.375a9.355,9.355,0,0,0,1.207-1.613,2.693,2.693,0,0,0,.332-1.285,2.041,2.041,0,0,0-.539-1.461,1.885,1.885,0,0,0-1.437-.57,2.232,2.232,0,0,0-1.676.613,2.343,2.343,0,0,0-.6,1.707H57.219A3.355,3.355,0,0,1,58.23,6.438a3.751,3.751,0,0,1,2.707-.969,3.6,3.6,0,0,1,2.508.832,2.838,2.838,0,0,1,.922,2.215q0,1.68-2.141,4l-3.047,3.3h5.711Zm9.148.156a3.693,3.693,0,0,1-2.8-1.129,4.19,4.19,0,0,1-1.078-3.02v-.266a5.073,5.073,0,0,1,.48-2.246,3.748,3.748,0,0,1,1.344-1.547,3.378,3.378,0,0,1,1.871-.559,3.166,3.166,0,0,1,2.563,1.086,4.7,4.7,0,0,1,.914,3.109v.6H71.609a3,3,0,0,0,.73,2.02,2.3,2.3,0,0,0,1.777.77,2.517,2.517,0,0,0,1.3-.312,3.259,3.259,0,0,0,.93-.828l.883.688A3.55,3.55,0,0,1,74.039,17.156Zm-.18-7.578a1.928,1.928,0,0,0-1.469.637A3.1,3.1,0,0,0,71.656,12h4.234v-.109a2.753,2.753,0,0,0-.594-1.707A1.815,1.815,0,0,0,73.859,9.578ZM80.578,17H79.133V5h1.445Zm5.82.156a3.693,3.693,0,0,1-2.8-1.129,4.19,4.19,0,0,1-1.078-3.02v-.266A5.073,5.073,0,0,1,83,10.5a3.748,3.748,0,0,1,1.344-1.547,3.378,3.378,0,0,1,1.871-.559,3.166,3.166,0,0,1,2.563,1.086,4.7,4.7,0,0,1,.914,3.109v.6H83.969a3,3,0,0,0,.73,2.02,2.3,2.3,0,0,0,1.777.77,2.517,2.517,0,0,0,1.3-.312,3.259,3.259,0,0,0,.93-.828l.883.688A3.55,3.55,0,0,1,86.4,17.156Zm-.18-7.578a1.928,1.928,0,0,0-1.469.637A3.1,3.1,0,0,0,84.016,12H88.25v-.109a2.753,2.753,0,0,0-.594-1.707A1.815,1.815,0,0,0,86.219,9.578Zm8.539,6.4a2.082,2.082,0,0,0,1.352-.469,1.649,1.649,0,0,0,.641-1.172h1.367a2.621,2.621,0,0,1-.5,1.383,3.293,3.293,0,0,1-1.23,1.047,3.55,3.55,0,0,1-1.629.391A3.482,3.482,0,0,1,92.012,16a4.59,4.59,0,0,1-1.02-3.152v-.242a5.089,5.089,0,0,1,.453-2.2,3.451,3.451,0,0,1,1.3-1.492,3.7,3.7,0,0,1,2-.531,3.39,3.39,0,0,1,2.363.852,3.043,3.043,0,0,1,1,2.211H96.75a1.992,1.992,0,0,0-.621-1.348,1.932,1.932,0,0,0-1.379-.527,2.023,2.023,0,0,0-1.707.793,3.724,3.724,0,0,0-.605,2.293v.273a3.65,3.65,0,0,0,.6,2.25A2.033,2.033,0,0,0,94.758,15.977ZM101.7,6.5V8.547h1.578V9.664H101.7v5.242a1.171,1.171,0,0,0,.211.762.888.888,0,0,0,.719.254,3.5,3.5,0,0,0,.688-.094V17a4.19,4.19,0,0,1-1.109.156,1.8,1.8,0,0,1-1.461-.586,2.517,2.517,0,0,1-.492-1.664V9.664H98.719V8.547h1.539V6.5Zm7.352,3.344a4.331,4.331,0,0,0-.711-.055A1.9,1.9,0,0,0,106.414,11v6h-1.445V8.547h1.406l.023.977a2.251,2.251,0,0,1,2.016-1.133,1.477,1.477,0,0,1,.641.109Zm.789,2.852a4.993,4.993,0,0,1,.488-2.234,3.643,3.643,0,0,1,1.359-1.531,3.7,3.7,0,0,1,1.988-.539,3.565,3.565,0,0,1,2.793,1.2,4.6,4.6,0,0,1,1.066,3.18v.1a5.036,5.036,0,0,1-.473,2.215,3.589,3.589,0,0,1-1.352,1.527,3.743,3.743,0,0,1-2.02.547,3.556,3.556,0,0,1-2.785-1.2,4.575,4.575,0,0,1-1.066-3.164Zm1.453.172a3.616,3.616,0,0,0,.652,2.258,2.211,2.211,0,0,0,3.5-.012,3.955,3.955,0,0,0,.648-2.418,3.61,3.61,0,0,0-.66-2.254,2.1,2.1,0,0,0-1.754-.863,2.075,2.075,0,0,0-1.727.852A3.925,3.925,0,0,0,111.3,12.867Zm9.422-4.32.047,1.063A3.08,3.08,0,0,1,123.3,8.391q2.68,0,2.7,3.023V17h-1.445V11.406a1.946,1.946,0,0,0-.418-1.352,1.675,1.675,0,0,0-1.277-.437,2.086,2.086,0,0,0-1.234.375,2.546,2.546,0,0,0-.828.984V17h-1.445V8.547Zm10.969,8.609a3.693,3.693,0,0,1-2.8-1.129,4.19,4.19,0,0,1-1.078-3.02v-.266a5.073,5.073,0,0,1,.48-2.246,3.748,3.748,0,0,1,1.344-1.547,3.378,3.378,0,0,1,1.871-.559,3.166,3.166,0,0,1,2.563,1.086,4.7,4.7,0,0,1,.914,3.109v.6h-5.727a3,3,0,0,0,.73,2.02,2.3,2.3,0,0,0,1.777.77,2.517,2.517,0,0,0,1.3-.312,3.258,3.258,0,0,0,.93-.828l.883.688A3.55,3.55,0,0,1,131.688,17.156Zm-.18-7.578a1.928,1.928,0,0,0-1.469.637A3.1,3.1,0,0,0,129.3,12h4.234v-.109a2.753,2.753,0,0,0-.594-1.707A1.815,1.815,0,0,0,131.508,9.578Zm10.07,5.18a1.064,1.064,0,0,0-.441-.91,4.249,4.249,0,0,0-1.539-.559,7.277,7.277,0,0,1-1.742-.562,2.479,2.479,0,0,1-.953-.781,1.869,1.869,0,0,1-.309-1.078,2.193,2.193,0,0,1,.879-1.758,3.432,3.432,0,0,1,2.246-.719,3.532,3.532,0,0,1,2.332.742,2.357,2.357,0,0,1,.895,1.9h-1.453a1.3,1.3,0,0,0-.5-1.023,1.888,1.888,0,0,0-1.27-.43,1.976,1.976,0,0,0-1.234.344,1.082,1.082,0,0,0-.445.9.877.877,0,0,0,.414.789,5.1,5.1,0,0,0,1.5.508,7.8,7.8,0,0,1,1.754.578,2.558,2.558,0,0,1,1,.809,1.988,1.988,0,0,1,.324,1.152,2.163,2.163,0,0,1-.906,1.816,3.8,3.8,0,0,1-2.352.684,4.257,4.257,0,0,1-1.8-.359,2.922,2.922,0,0,1-1.223-1A2.42,2.42,0,0,1,136.3,14.4h1.445a1.5,1.5,0,0,0,.582,1.152,2.258,2.258,0,0,0,1.434.426,2.331,2.331,0,0,0,1.316-.332A1.02,1.02,0,0,0,141.578,14.758Zm6.938-2.055a4.952,4.952,0,0,1,.922-3.129,3.137,3.137,0,0,1,4.766-.168V5h1.445V17H154.32l-.07-.906a2.943,2.943,0,0,1-2.414,1.063,2.887,2.887,0,0,1-2.395-1.2,5.008,5.008,0,0,1-.926-3.141Zm1.445.164a3.749,3.749,0,0,0,.594,2.25,1.919,1.919,0,0,0,1.641.813A2.108,2.108,0,0,0,154.2,14.7V10.813a2.125,2.125,0,0,0-1.992-1.2,1.929,1.929,0,0,0-1.656.82A4.128,4.128,0,0,0,149.961,12.867ZM161.4,17.156a3.693,3.693,0,0,1-2.8-1.129,4.19,4.19,0,0,1-1.078-3.02v-.266A5.073,5.073,0,0,1,158,10.5a3.748,3.748,0,0,1,1.344-1.547,3.378,3.378,0,0,1,1.871-.559,3.166,3.166,0,0,1,2.563,1.086,4.7,4.7,0,0,1,.914,3.109v.6h-5.727a3,3,0,0,0,.73,2.02,2.3,2.3,0,0,0,1.777.77,2.517,2.517,0,0,0,1.3-.312,3.258,3.258,0,0,0,.93-.828l.883.688A3.55,3.55,0,0,1,161.4,17.156Zm-.18-7.578a1.928,1.928,0,0,0-1.469.637A3.1,3.1,0,0,0,159.016,12h4.234v-.109a2.753,2.753,0,0,0-.594-1.707A1.815,1.815,0,0,0,161.219,9.578Zm11.9,5.461,2.094-6.492h1.477L173.656,17h-1.1l-3.062-8.453h1.477ZM183.18,17a3.036,3.036,0,0,1-.2-.891,3.225,3.225,0,0,1-2.406,1.047,2.984,2.984,0,0,1-2.051-.707,2.287,2.287,0,0,1-.8-1.793,2.39,2.39,0,0,1,1-2.051,4.733,4.733,0,0,1,2.824-.73h1.406v-.664A1.623,1.623,0,0,0,182.5,10a1.821,1.821,0,0,0-1.336-.449,2.107,2.107,0,0,0-1.3.391,1.151,1.151,0,0,0-.523.945h-1.453a2,2,0,0,1,.449-1.223,3.066,3.066,0,0,1,1.219-.934,4.1,4.1,0,0,1,1.691-.344,3.342,3.342,0,0,1,2.289.73,2.635,2.635,0,0,1,.859,2.012v3.891a4.757,4.757,0,0,0,.3,1.852V17Zm-2.4-1.1a2.54,2.54,0,0,0,1.289-.352,2.127,2.127,0,0,0,.883-.914V12.9H181.82q-2.656,0-2.656,1.555a1.316,1.316,0,0,0,.453,1.063A1.742,1.742,0,0,0,180.781,15.9Zm7.453,1.1h-1.445V5h1.445Zm5.82.156a3.693,3.693,0,0,1-2.8-1.129,4.19,4.19,0,0,1-1.078-3.02v-.266a5.073,5.073,0,0,1,.48-2.246A3.748,3.748,0,0,1,192,8.949a3.378,3.378,0,0,1,1.871-.559,3.166,3.166,0,0,1,2.563,1.086,4.7,4.7,0,0,1,.914,3.109v.6h-5.727a3,3,0,0,0,.73,2.02,2.3,2.3,0,0,0,1.777.77,2.517,2.517,0,0,0,1.3-.312,3.258,3.258,0,0,0,.93-.828l.883.688A3.55,3.55,0,0,1,194.055,17.156Zm-.18-7.578a1.928,1.928,0,0,0-1.469.637A3.1,3.1,0,0,0,191.672,12h4.234v-.109a2.753,2.753,0,0,0-.594-1.707A1.815,1.815,0,0,0,193.875,9.578Zm6.516-1.031.047,1.063a3.08,3.08,0,0,1,2.531-1.219q2.68,0,2.7,3.023V17h-1.445V11.406a1.946,1.946,0,0,0-.418-1.352,1.675,1.675,0,0,0-1.277-.437,2.086,2.086,0,0,0-1.234.375,2.546,2.546,0,0,0-.828.984V17h-1.445V8.547Zm10.852,7.43a2.082,2.082,0,0,0,1.352-.469,1.649,1.649,0,0,0,.641-1.172H214.6a2.621,2.621,0,0,1-.5,1.383,3.293,3.293,0,0,1-1.23,1.047,3.55,3.55,0,0,1-1.629.391A3.482,3.482,0,0,1,208.5,16a4.59,4.59,0,0,1-1.02-3.152v-.242a5.089,5.089,0,0,1,.453-2.2,3.451,3.451,0,0,1,1.3-1.492,3.7,3.7,0,0,1,2-.531,3.39,3.39,0,0,1,2.363.852,3.043,3.043,0,0,1,1,2.211h-1.367a1.992,1.992,0,0,0-.621-1.348,1.932,1.932,0,0,0-1.379-.527,2.023,2.023,0,0,0-1.707.793,3.724,3.724,0,0,0-.605,2.293v.273a3.65,3.65,0,0,0,.6,2.25A2.033,2.033,0,0,0,211.242,15.977ZM217.8,17h-1.445V8.547H217.8ZM216.234,6.3a.863.863,0,0,1,.215-.594.807.807,0,0,1,.637-.242.819.819,0,0,1,.641.242.854.854,0,0,1,.219.594.826.826,0,0,1-.219.586.834.834,0,0,1-.641.234.821.821,0,0,1-.637-.234A.834.834,0,0,1,216.234,6.3ZM225.328,17a3.036,3.036,0,0,1-.2-.891,3.225,3.225,0,0,1-2.406,1.047,2.984,2.984,0,0,1-2.051-.707,2.287,2.287,0,0,1-.8-1.793,2.39,2.39,0,0,1,1-2.051,4.733,4.733,0,0,1,2.824-.73H225.1v-.664A1.623,1.623,0,0,0,224.648,10a1.821,1.821,0,0,0-1.336-.449,2.107,2.107,0,0,0-1.3.391,1.151,1.151,0,0,0-.523.945h-1.453a2,2,0,0,1,.449-1.223,3.066,3.066,0,0,1,1.219-.934,4.1,4.1,0,0,1,1.691-.344,3.342,3.342,0,0,1,2.289.73,2.635,2.635,0,0,1,.859,2.012v3.891a4.757,4.757,0,0,0,.3,1.852V17Zm-2.4-1.1a2.54,2.54,0,0,0,1.289-.352,2.127,2.127,0,0,0,.883-.914V12.9h-1.133q-2.656,0-2.656,1.555a1.316,1.316,0,0,0,.453,1.063A1.742,1.742,0,0,0,222.93,15.9Z" transform="translate(5391 -6768.418)" fill="#12263f"/>
  </g>
</svg>
