<svg xmlns="http://www.w3.org/2000/svg" width="1030" height="680" viewBox="0 0 1030 680">
  <g id="Grupo_1108952" data-name="Grupo 1108952" transform="translate(-285.051 -4312)">
    <rect id="Rectángulo_405899" data-name="Rectángulo 405899" width="1030" height="680" rx="20" transform="translate(285.051 4312)" fill="#e6f9e6"/>
    <path id="Trazado_899866" data-name="Trazado 899866" d="M-6.113-8.453l.07.977a2.951,2.951,0,0,1,2.43-1.133,2.453,2.453,0,0,1,2,.789A3.682,3.682,0,0,1-.941-5.461V0H-3.2V-5.406a1.465,1.465,0,0,0-.312-1.043,1.4,1.4,0,0,0-1.039-.324,1.553,1.553,0,0,0-1.43.813V0H-8.238V-8.453ZM7.949-5.828H.965V-7.672H7.949Zm0,3.383H.965V-4.289H7.949Z" transform="translate(1061.051 4858)" fill="#12263f"/>
    <path id="Trazado_899867" data-name="Trazado 899867" d="M-9.039,0H-11.3V-8.7l-2.7.836V-9.7l4.711-1.687h.242Zm3.891-4.625a11.99,11.99,0,0,1,.477-3.406,8.989,8.989,0,0,1,1.406-2.863,5.251,5.251,0,0,1,2.016-1.73l.438,1.219A5.438,5.438,0,0,0-2.594-8.8a12.082,12.082,0,0,0-.641,4.125v.242A12.313,12.313,0,0,0-2.6-.289,5.544,5.544,0,0,0-.812,2.359l-.437,1.2A5.253,5.253,0,0,1-3.23,1.871a8.838,8.838,0,0,1-1.4-2.785,11.918,11.918,0,0,1-.516-3.3Zm9.227.063L2.859-3.25V0H.516V-11.375H2.859v5.156L3.891-7.633l2.9-3.742H9.672L5.633-6.32,9.789,0H7Zm10.336.117a11.377,11.377,0,0,1-.508,3.4,9.225,9.225,0,0,1-1.461,2.883,5.264,5.264,0,0,1-2.039,1.719l-.437-1.2a5.494,5.494,0,0,0,1.75-2.578,11.939,11.939,0,0,0,.664-4.008v-.414a12.208,12.208,0,0,0-.637-4.117A5.727,5.727,0,0,0,9.969-11.43l.438-1.2a5.265,5.265,0,0,1,2,1.672,9.106,9.106,0,0,1,1.461,2.82A11.3,11.3,0,0,1,14.414-4.8ZM-5.98,24h-7.8V22.453l3.68-3.922a9.078,9.078,0,0,0,1.121-1.445,2.322,2.322,0,0,0,.363-1.172A1.738,1.738,0,0,0-9,14.723a1.382,1.382,0,0,0-1.094-.434,1.49,1.49,0,0,0-1.207.527,2.089,2.089,0,0,0-.441,1.387H-14a3.729,3.729,0,0,1,.5-1.9,3.5,3.5,0,0,1,1.4-1.348,4.262,4.262,0,0,1,2.055-.488,4.036,4.036,0,0,1,2.73.844A2.985,2.985,0,0,1-6.348,15.7a3.825,3.825,0,0,1-.437,1.719,9.551,9.551,0,0,1-1.5,2.039l-2.586,2.727H-5.98ZM-4.4,19.375a11.99,11.99,0,0,1,.477-3.406A8.989,8.989,0,0,1-2.52,13.105,5.251,5.251,0,0,1-.5,11.375l.438,1.219A5.438,5.438,0,0,0-1.848,15.2a12.082,12.082,0,0,0-.641,4.125v.242a12.313,12.313,0,0,0,.633,4.141A5.544,5.544,0,0,0-.066,26.359l-.437,1.2a5.253,5.253,0,0,1-1.98-1.684,8.838,8.838,0,0,1-1.4-2.785,11.918,11.918,0,0,1-.516-3.3Zm8.008,2.742H8.582V24H1.262V12.625H3.605Zm10.063-2.562a11.377,11.377,0,0,1-.508,3.4A9.225,9.225,0,0,1,11.7,25.836,5.264,5.264,0,0,1,9.66,27.555l-.437-1.2a5.494,5.494,0,0,0,1.75-2.578,11.939,11.939,0,0,0,.664-4.008v-.414A12.208,12.208,0,0,0,11,15.242,5.727,5.727,0,0,0,9.223,12.57l.438-1.2a5.265,5.265,0,0,1,2,1.672,9.106,9.106,0,0,1,1.461,2.82,11.3,11.3,0,0,1,.543,3.336ZM-14.156,41.313h1.2a1.7,1.7,0,0,0,1.273-.43,1.574,1.574,0,0,0,.414-1.141,1.392,1.392,0,0,0-.41-1.07,1.59,1.59,0,0,0-1.129-.383,1.666,1.666,0,0,0-1.086.355,1.137,1.137,0,0,0-.437.926h-2.258a2.777,2.777,0,0,1,.48-1.6,3.2,3.2,0,0,1,1.344-1.105,4.485,4.485,0,0,1,1.9-.4,4.253,4.253,0,0,1,2.828.863,2.945,2.945,0,0,1,1.023,2.379,2.394,2.394,0,0,1-.477,1.438,3.1,3.1,0,0,1-1.25,1.008A2.826,2.826,0,0,1-9.3,43.188a2.8,2.8,0,0,1,.473,1.625,2.994,2.994,0,0,1-1.105,2.43,4.445,4.445,0,0,1-2.926.914,4.214,4.214,0,0,1-2.785-.9,2.934,2.934,0,0,1-1.082-2.375h2.258a1.308,1.308,0,0,0,.48,1.047,1.771,1.771,0,0,0,1.184.406,1.779,1.779,0,0,0,1.262-.426,1.47,1.47,0,0,0,.457-1.129q0-1.7-1.875-1.7h-1.2Zm7.078,2.063A11.99,11.99,0,0,1-6.6,39.969,8.989,8.989,0,0,1-5.2,37.105a5.251,5.251,0,0,1,2.016-1.73l.438,1.219A5.438,5.438,0,0,0-4.523,39.2a12.082,12.082,0,0,0-.641,4.125v.242a12.313,12.313,0,0,0,.633,4.141,5.544,5.544,0,0,0,1.789,2.648l-.437,1.2a5.253,5.253,0,0,1-1.98-1.684,8.838,8.838,0,0,1-1.4-2.785,11.918,11.918,0,0,1-.516-3.3Zm8.727-6.75,2.922,8.25,2.906-8.25h3.078V48H8.2V44.891l.234-5.367L5.367,48H3.758L.7,39.531.93,44.891V48H-1.414V36.625Zm14.7,6.93a11.377,11.377,0,0,1-.508,3.4,9.225,9.225,0,0,1-1.461,2.883,5.264,5.264,0,0,1-2.039,1.719l-.437-1.2a5.494,5.494,0,0,0,1.75-2.578,11.939,11.939,0,0,0,.664-4.008v-.414a12.208,12.208,0,0,0-.637-4.117A5.727,5.727,0,0,0,11.9,36.57l.438-1.2a5.265,5.265,0,0,1,2,1.672,9.106,9.106,0,0,1,1.461,2.82,11.3,11.3,0,0,1,.543,3.336ZM-8.414,67.719h1.289v1.82H-8.414V72h-2.258V69.539h-4.664l-.1-1.422,4.742-7.492h2.281Zm-4.773,0h2.516V63.7l-.148.258Zm7.469-.344a11.99,11.99,0,0,1,.477-3.406,8.989,8.989,0,0,1,1.406-2.863,5.251,5.251,0,0,1,2.016-1.73l.438,1.219A5.438,5.438,0,0,0-3.164,63.2,12.082,12.082,0,0,0-3.8,67.328v.242a12.313,12.313,0,0,0,.633,4.141,5.544,5.544,0,0,0,1.789,2.648l-.437,1.2A5.253,5.253,0,0,1-3.8,73.871a8.838,8.838,0,0,1-1.4-2.785,11.918,11.918,0,0,1-.516-3.3ZM9.2,72H6.852L2.289,64.516V72H-.055V60.625H2.289l4.57,7.5v-7.5H9.2Zm5.789-4.445a11.377,11.377,0,0,1-.508,3.4,9.225,9.225,0,0,1-1.461,2.883,5.263,5.263,0,0,1-2.039,1.719l-.437-1.2a5.494,5.494,0,0,0,1.75-2.578,11.939,11.939,0,0,0,.664-4.008v-.414a12.208,12.208,0,0,0-.637-4.117,5.727,5.727,0,0,0-1.777-2.672l.438-1.2a5.265,5.265,0,0,1,2,1.672,9.106,9.106,0,0,1,1.461,2.82,11.3,11.3,0,0,1,.543,3.336ZM-14.633,90.406l.656-5.781H-7.6v1.883h-4.523l-.281,2.445a3.58,3.58,0,0,1,1.711-.43,3.279,3.279,0,0,1,2.547,1.008,4.026,4.026,0,0,1,.922,2.82,4.124,4.124,0,0,1-.465,1.973,3.281,3.281,0,0,1-1.332,1.352,4.158,4.158,0,0,1-2.047.48,4.416,4.416,0,0,1-1.914-.418,3.4,3.4,0,0,1-1.395-1.176,3.2,3.2,0,0,1-.543-1.727h2.234a1.669,1.669,0,0,0,.5,1.105,1.573,1.573,0,0,0,1.113.395,1.388,1.388,0,0,0,1.18-.551,2.551,2.551,0,0,0,.414-1.559,2.11,2.11,0,0,0-.477-1.484,1.749,1.749,0,0,0-1.352-.516,1.954,1.954,0,0,0-1.3.422l-.219.2Zm9.039.969a11.99,11.99,0,0,1,.477-3.406,8.989,8.989,0,0,1,1.406-2.863A5.251,5.251,0,0,1-1.7,83.375l.438,1.219A5.438,5.438,0,0,0-3.039,87.2a12.082,12.082,0,0,0-.641,4.125v.242a12.313,12.313,0,0,0,.633,4.141,5.544,5.544,0,0,0,1.789,2.648l-.437,1.2a5.253,5.253,0,0,1-1.98-1.684,8.838,8.838,0,0,1-1.4-2.785,11.918,11.918,0,0,1-.516-3.3Zm15.008-.8a6.867,6.867,0,0,1-.594,2.945,4.472,4.472,0,0,1-1.7,1.953,4.7,4.7,0,0,1-2.535.688,4.732,4.732,0,0,1-2.523-.68A4.515,4.515,0,0,1,.344,93.535a6.67,6.67,0,0,1-.617-2.9V90.07a6.831,6.831,0,0,1,.605-2.957,4.508,4.508,0,0,1,1.711-1.961,4.706,4.706,0,0,1,2.527-.684,4.706,4.706,0,0,1,2.527.684,4.508,4.508,0,0,1,1.711,1.961,6.811,6.811,0,0,1,.605,2.949Zm-2.375-.516A4.787,4.787,0,0,0,6.4,87.336a2.088,2.088,0,0,0-1.828-.93,2.088,2.088,0,0,0-1.82.918A4.732,4.732,0,0,0,2.1,90.016v.555a4.847,4.847,0,0,0,.641,2.7,2.082,2.082,0,0,0,1.844.961A2.064,2.064,0,0,0,6.4,93.309a4.819,4.819,0,0,0,.641-2.7Zm7.82,1.5a11.377,11.377,0,0,1-.508,3.4,9.225,9.225,0,0,1-1.461,2.883,5.263,5.263,0,0,1-2.039,1.719l-.437-1.2a5.494,5.494,0,0,0,1.75-2.578,11.939,11.939,0,0,0,.664-4.008v-.414a12.208,12.208,0,0,0-.637-4.117,5.727,5.727,0,0,0-1.777-2.672l.438-1.2a5.265,5.265,0,0,1,2,1.672,9.106,9.106,0,0,1,1.461,2.82,11.3,11.3,0,0,1,.543,3.336ZM-8.48,108.508v1.859H-8.7a3.836,3.836,0,0,0-2.465.8,3.238,3.238,0,0,0-1.121,2.148A3.075,3.075,0,0,1-10,112.391a2.9,2.9,0,0,1,2.359,1.063,4.259,4.259,0,0,1,.875,2.8,4.19,4.19,0,0,1-.48,2.008,3.446,3.446,0,0,1-1.359,1.4,3.949,3.949,0,0,1-1.988.5,3.689,3.689,0,0,1-2.9-1.25A4.852,4.852,0,0,1-14.6,115.57v-.812a7.3,7.3,0,0,1,.7-3.27,5.127,5.127,0,0,1,2.008-2.2,5.884,5.884,0,0,1,3.035-.785Zm-2.2,5.7a1.8,1.8,0,0,0-.992.285,1.717,1.717,0,0,0-.656.754v.688a3.05,3.05,0,0,0,.445,1.77,1.438,1.438,0,0,0,1.25.637,1.422,1.422,0,0,0,1.176-.574,2.345,2.345,0,0,0,.449-1.488,2.341,2.341,0,0,0-.453-1.5A1.476,1.476,0,0,0-10.684,114.2Zm5.453,1.172a11.99,11.99,0,0,1,.477-3.406,8.989,8.989,0,0,1,1.406-2.863,5.251,5.251,0,0,1,2.016-1.73l.438,1.219A5.438,5.438,0,0,0-2.676,111.2a12.082,12.082,0,0,0-.641,4.125v.242a12.313,12.313,0,0,0,.633,4.141,5.544,5.544,0,0,0,1.789,2.648l-.437,1.2a5.253,5.253,0,0,1-1.98-1.684,8.838,8.838,0,0,1-1.4-2.785,11.918,11.918,0,0,1-.516-3.3Zm8.008.617V120H.434V108.625H4.871a5.134,5.134,0,0,1,2.254.469,3.454,3.454,0,0,1,1.5,1.332,3.714,3.714,0,0,1,.523,1.965A3.266,3.266,0,0,1,8,115.027a4.767,4.767,0,0,1-3.168.965Zm0-1.9H4.871a2.059,2.059,0,0,0,1.418-.437,1.591,1.591,0,0,0,.488-1.25,1.876,1.876,0,0,0-.492-1.352,1.839,1.839,0,0,0-1.359-.531H2.777ZM14.5,115.555a11.377,11.377,0,0,1-.508,3.4,9.225,9.225,0,0,1-1.461,2.883,5.263,5.263,0,0,1-2.039,1.719l-.437-1.2a5.494,5.494,0,0,0,1.75-2.578,11.939,11.939,0,0,0,.664-4.008v-.414a12.208,12.208,0,0,0-.637-4.117,5.727,5.727,0,0,0-1.777-2.672l.438-1.2a5.265,5.265,0,0,1,2,1.672,9.106,9.106,0,0,1,1.461,2.82A11.3,11.3,0,0,1,14.5,115.2Zm-21.73,18.336L-11.633,144h-2.383l4.406-9.547h-5.656v-1.828h8.031Zm1.641,5.484a11.99,11.99,0,0,1,.477-3.406,8.989,8.989,0,0,1,1.406-2.863,5.251,5.251,0,0,1,2.016-1.73l.438,1.219A5.438,5.438,0,0,0-3.039,135.2a12.082,12.082,0,0,0-.641,4.125v.242a12.313,12.313,0,0,0,.633,4.141,5.544,5.544,0,0,0,1.789,2.648l-.437,1.2a5.253,5.253,0,0,1-1.98-1.684,8.839,8.839,0,0,1-1.4-2.785,11.918,11.918,0,0,1-.516-3.3Zm14.992-.8a6.853,6.853,0,0,1-.516,2.77,4.754,4.754,0,0,1-1.43,1.887l1.891,1.484-1.492,1.32L5.43,144.086a5.126,5.126,0,0,1-.859.07,4.732,4.732,0,0,1-2.523-.68,4.515,4.515,0,0,1-1.719-1.941,6.67,6.67,0,0,1-.617-2.9v-.562a6.831,6.831,0,0,1,.605-2.957,4.508,4.508,0,0,1,1.711-1.961,4.706,4.706,0,0,1,2.527-.684,4.706,4.706,0,0,1,2.527.684,4.508,4.508,0,0,1,1.711,1.961,6.811,6.811,0,0,1,.605,2.949Zm-2.375-.516a4.787,4.787,0,0,0-.641-2.719,2.088,2.088,0,0,0-1.828-.93,2.088,2.088,0,0,0-1.82.918,4.732,4.732,0,0,0-.648,2.691v.555a4.847,4.847,0,0,0,.641,2.7,2.082,2.082,0,0,0,1.844.961,2.064,2.064,0,0,0,1.813-.926,4.819,4.819,0,0,0,.641-2.7Zm7.836,1.5a11.377,11.377,0,0,1-.508,3.4,9.225,9.225,0,0,1-1.461,2.883,5.264,5.264,0,0,1-2.039,1.719l-.437-1.2a5.494,5.494,0,0,0,1.75-2.578,11.939,11.939,0,0,0,.664-4.008v-.414a12.208,12.208,0,0,0-.637-4.117,5.727,5.727,0,0,0-1.777-2.672l.438-1.2a5.265,5.265,0,0,1,2,1.672,9.106,9.106,0,0,1,1.461,2.82,11.3,11.3,0,0,1,.543,3.336Z" transform="translate(1145.051 4786)" fill="#12263f"/>
    <path id="Trazado_899868" data-name="Trazado 899868" d="M30.012,42.42Q14.621,37.611,6.974,26.741T-.673-1.924V-25.106q0-27.126-24.048-27.126v-6.349q24.048,0,24.048-26.934v-23.759q.1-17.8,7.743-28.665t22.942-15.679l1.443,4.329Q4.521-140.536,4.521-108.215v21.932q0,26.164-20.3,30.877,20.3,5.1,20.3,30.877V-2.5q0,31.262,27.415,40.5Z" transform="translate(1102.051 4908)" fill="#12263f"/>
    <path id="Elipse_11650" data-name="Elipse 11650" d="M17.5,5a12.5,12.5,0,1,0,8.839,3.661A12.418,12.418,0,0,0,17.5,5m0-5A17.5,17.5,0,1,1,0,17.5,17.5,17.5,0,0,1,17.5,0Z" transform="translate(709.051 4618)" fill="#00e0ff"/>
    <path id="Elipse_11651" data-name="Elipse 11651" d="M48.5,5A43.513,43.513,0,0,0,31.569,88.584,43.513,43.513,0,0,0,65.431,8.416,43.223,43.223,0,0,0,48.5,5m0-5A48.5,48.5,0,1,1,0,48.5,48.5,48.5,0,0,1,48.5,0Z" transform="translate(678.051 4587)" fill="#8000ff"/>
    <path id="Elipse_11652" data-name="Elipse 11652" d="M76.5,5A71.142,71.142,0,0,0,36.527,17.208a71.724,71.724,0,0,0-25.91,31.462,71.4,71.4,0,0,0,6.591,67.8,71.724,71.724,0,0,0,31.462,25.91,71.4,71.4,0,0,0,67.8-6.591,71.724,71.724,0,0,0,25.91-31.462,71.4,71.4,0,0,0-6.591-67.8,71.724,71.724,0,0,0-31.462-25.91A71.048,71.048,0,0,0,76.5,5m0-5A76.5,76.5,0,1,1,0,76.5,76.5,76.5,0,0,1,76.5,0Z" transform="translate(650.051 4559)" fill="#00e0ff"/>
    <path id="Elipse_11653" data-name="Elipse 11653" d="M128.5,5a124.438,124.438,0,0,0-24.895,2.509,122.8,122.8,0,0,0-44.152,18.58A123.875,123.875,0,0,0,14.7,80.43a122.843,122.843,0,0,0-7.194,23.175,124.753,124.753,0,0,0,0,49.79,122.8,122.8,0,0,0,18.58,44.152A123.875,123.875,0,0,0,80.43,242.3a122.842,122.842,0,0,0,23.175,7.194,124.753,124.753,0,0,0,49.79,0,122.8,122.8,0,0,0,44.152-18.58A123.875,123.875,0,0,0,242.3,176.57a122.841,122.841,0,0,0,7.194-23.175,124.753,124.753,0,0,0,0-49.79,122.8,122.8,0,0,0-18.58-44.152A123.875,123.875,0,0,0,176.57,14.7a122.841,122.841,0,0,0-23.175-7.194A124.438,124.438,0,0,0,128.5,5m0-5A128.5,128.5,0,1,1,0,128.5,128.5,128.5,0,0,1,128.5,0Z" transform="translate(598.051 4507)" fill="#8000ff"/>
    <path id="Trazado_899359" data-name="Trazado 899359" d="M174.5,5A169.677,169.677,0,0,0,10.85,218.847,167.274,167.274,0,0,0,27.3,258.6a170.968,170.968,0,0,0,61.036,61.878A168.532,168.532,0,0,0,174.5,344a170.782,170.782,0,0,0,34.165-3.444,168.547,168.547,0,0,0,60.6-25.5,170.008,170.008,0,0,0,61.416-74.58,168.609,168.609,0,0,0,9.874-31.81,171.2,171.2,0,0,0,0-68.331,168.547,168.547,0,0,0-25.5-60.6,170.008,170.008,0,0,0-74.58-61.416,168.609,168.609,0,0,0-31.81-9.874A170.782,170.782,0,0,0,174.5,5m0-5A174.423,174.423,0,1,1,23.715,86.613,174.5,174.5,0,0,1,174.5,0Z" transform="translate(552.051 4461)" fill="#0ac675"/>
    <path id="Elipse_11655" data-name="Elipse 11655" d="M223.5,5a220.14,220.14,0,0,0-44.041,4.439,217.275,217.275,0,0,0-78.121,32.874,219.153,219.153,0,0,0-79.169,96.138,217.359,217.359,0,0,0-12.73,41.008,220.678,220.678,0,0,0,0,88.081,217.275,217.275,0,0,0,32.874,78.121,219.153,219.153,0,0,0,96.138,79.169,217.359,217.359,0,0,0,41.008,12.73,220.678,220.678,0,0,0,88.081,0,217.275,217.275,0,0,0,78.121-32.874,219.153,219.153,0,0,0,79.169-96.138,217.359,217.359,0,0,0,12.73-41.008,220.678,220.678,0,0,0,0-88.081,217.275,217.275,0,0,0-32.874-78.121,219.153,219.153,0,0,0-96.138-79.169,217.359,217.359,0,0,0-41.008-12.73A220.14,220.14,0,0,0,223.5,5m0-5C346.936,0,447,100.064,447,223.5S346.936,447,223.5,447,0,346.936,0,223.5,100.064,0,223.5,0Z" transform="translate(503.051 4412)" fill="#ffd500"/>
    <path id="Elipse_11656" data-name="Elipse 11656" d="M287.5,5a284.615,284.615,0,0,0-56.939,5.739,280.928,280.928,0,0,0-101.006,42.5A283.339,283.339,0,0,0,27.2,177.54a281.044,281.044,0,0,0-16.459,53.021,285.3,285.3,0,0,0,0,113.878,280.927,280.927,0,0,0,42.5,101.006A283.339,283.339,0,0,0,177.54,547.8a281.044,281.044,0,0,0,53.021,16.459,285.3,285.3,0,0,0,113.878,0,280.927,280.927,0,0,0,101.006-42.5A283.339,283.339,0,0,0,547.8,397.46a281.043,281.043,0,0,0,16.459-53.021,285.3,285.3,0,0,0,0-113.878,280.928,280.928,0,0,0-42.5-101.006A283.339,283.339,0,0,0,397.46,27.2a281.043,281.043,0,0,0-53.021-16.459A284.615,284.615,0,0,0,287.5,5m0-5C446.282,0,575,128.718,575,287.5S446.282,575,287.5,575,0,446.282,0,287.5,128.718,0,287.5,0Z" transform="translate(439.051 4348)" fill="#ff007f"/>
    <path id="Trazado_899869" data-name="Trazado 899869" d="M7.5,0A7.5,7.5,0,1,1,0,7.5,7.5,7.5,0,0,1,7.5,0Z" transform="translate(719.051 4628)" fill="#12263f"/>
    <path id="Trazado_899870" data-name="Trazado 899870" d="M-.5-4.562-1.719-3.25V0H-4.062V-11.375h2.344v5.156L-.687-7.633l2.9-3.742H5.094L1.055-6.32,5.211,0H2.422Z" transform="translate(757.051 4643)" fill="#12263f"/>
    <path id="Trazado_899871" data-name="Trazado 899871" d="M-10.7-8.453l.07.977A2.951,2.951,0,0,1-8.2-8.609a2.453,2.453,0,0,1,2,.789,3.682,3.682,0,0,1,.672,2.359V0H-7.789V-5.406A1.465,1.465,0,0,0-8.1-6.449a1.4,1.4,0,0,0-1.039-.324,1.553,1.553,0,0,0-1.43.813V0h-2.258V-8.453ZM3.359-5.828H-3.625V-7.672H3.359Zm0,3.383H-3.625V-4.289H3.359ZM10.727,0H8.469V-8.7l-2.7.836V-9.7l4.711-1.687h.242Z" transform="translate(727.051 4670)" fill="#12263f"/>
    <path id="Trazado_899872" data-name="Trazado 899872" d="M-10.7-8.453l.07.977A2.951,2.951,0,0,1-8.2-8.609a2.453,2.453,0,0,1,2,.789,3.682,3.682,0,0,1,.672,2.359V0H-7.789V-5.406A1.465,1.465,0,0,0-8.1-6.449a1.4,1.4,0,0,0-1.039-.324,1.553,1.553,0,0,0-1.43.813V0h-2.258V-8.453ZM3.359-5.828H-3.625V-7.672H3.359Zm0,3.383H-3.625V-4.289H3.359Zm4.18-4.242h1.2a1.7,1.7,0,0,0,1.273-.43,1.574,1.574,0,0,0,.414-1.141,1.392,1.392,0,0,0-.41-1.07,1.59,1.59,0,0,0-1.129-.383A1.666,1.666,0,0,0,7.8-9.355a1.137,1.137,0,0,0-.437.926H5.109a2.777,2.777,0,0,1,.48-1.6,3.2,3.2,0,0,1,1.344-1.105,4.485,4.485,0,0,1,1.9-.4,4.253,4.253,0,0,1,2.828.863,2.945,2.945,0,0,1,1.023,2.379,2.394,2.394,0,0,1-.477,1.438,3.1,3.1,0,0,1-1.25,1.008,2.826,2.826,0,0,1,1.434,1.031,2.8,2.8,0,0,1,.473,1.625,2.994,2.994,0,0,1-1.105,2.43A4.445,4.445,0,0,1,8.836.156a4.214,4.214,0,0,1-2.785-.9A2.934,2.934,0,0,1,4.969-3.117H7.227a1.308,1.308,0,0,0,.48,1.047,1.771,1.771,0,0,0,1.184.406,1.779,1.779,0,0,0,1.262-.426,1.47,1.47,0,0,0,.457-1.129q0-1.7-1.875-1.7h-1.2Z" transform="translate(727.051 4737)" fill="#12263f"/>
    <path id="Trazado_899873" data-name="Trazado 899873" d="M-10.7-8.453l.07.977A2.951,2.951,0,0,1-8.2-8.609a2.453,2.453,0,0,1,2,.789,3.682,3.682,0,0,1,.672,2.359V0H-7.789V-5.406A1.465,1.465,0,0,0-8.1-6.449a1.4,1.4,0,0,0-1.039-.324,1.553,1.553,0,0,0-1.43.813V0h-2.258V-8.453ZM3.359-5.828H-3.625V-7.672H3.359Zm0,3.383H-3.625V-4.289H3.359ZM5.578-5.594l.656-5.781h6.375v1.883H8.086L7.8-7.047a3.58,3.58,0,0,1,1.711-.43,3.279,3.279,0,0,1,2.547,1.008,4.026,4.026,0,0,1,.922,2.82,4.124,4.124,0,0,1-.465,1.973A3.281,3.281,0,0,1,11.188-.324a4.158,4.158,0,0,1-2.047.48A4.416,4.416,0,0,1,7.227-.262,3.4,3.4,0,0,1,5.832-1.437a3.2,3.2,0,0,1-.543-1.727H7.523a1.669,1.669,0,0,0,.5,1.105,1.573,1.573,0,0,0,1.113.395,1.388,1.388,0,0,0,1.18-.551,2.551,2.551,0,0,0,.414-1.559,2.11,2.11,0,0,0-.477-1.484A1.749,1.749,0,0,0,8.9-5.773a1.954,1.954,0,0,0-1.3.422l-.219.2Z" transform="translate(727.051 4835)" fill="#12263f"/>
    <path id="Trazado_899874" data-name="Trazado 899874" d="M-10.7-8.453l.07.977A2.951,2.951,0,0,1-8.2-8.609a2.453,2.453,0,0,1,2,.789,3.682,3.682,0,0,1,.672,2.359V0H-7.789V-5.406A1.465,1.465,0,0,0-8.1-6.449a1.4,1.4,0,0,0-1.039-.324,1.553,1.553,0,0,0-1.43.813V0h-2.258V-8.453ZM3.359-5.828H-3.625V-7.672H3.359Zm0,3.383H-3.625V-4.289H3.359Zm9.617-7.664L8.578,0H6.2L10.6-9.547H4.945v-1.828h8.031Z" transform="translate(727.051 4953)" fill="#12263f"/>
    <path id="Trazado_899875" data-name="Trazado 899875" d="M-10.7-8.453l.07.977A2.951,2.951,0,0,1-8.2-8.609a2.453,2.453,0,0,1,2,.789,3.682,3.682,0,0,1,.672,2.359V0H-7.789V-5.406A1.465,1.465,0,0,0-8.1-6.449a1.4,1.4,0,0,0-1.039-.324,1.553,1.553,0,0,0-1.43.813V0h-2.258V-8.453ZM3.359-5.828H-3.625V-7.672H3.359Zm0,3.383H-3.625V-4.289H3.359ZM13.039,0h-7.8V-1.547l3.68-3.922a9.078,9.078,0,0,0,1.121-1.445,2.322,2.322,0,0,0,.363-1.172,1.738,1.738,0,0,0-.383-1.191A1.382,1.382,0,0,0,8.93-9.711a1.49,1.49,0,0,0-1.207.527A2.089,2.089,0,0,0,7.281-7.8H5.016a3.729,3.729,0,0,1,.5-1.9,3.5,3.5,0,0,1,1.4-1.348,4.262,4.262,0,0,1,2.055-.488,4.036,4.036,0,0,1,2.73.844A2.985,2.985,0,0,1,12.672-8.3a3.825,3.825,0,0,1-.437,1.719,9.551,9.551,0,0,1-1.5,2.039L8.148-1.82h4.891Z" transform="translate(727.051 4701)" fill="#12263f"/>
    <path id="Trazado_899876" data-name="Trazado 899876" d="M-10.7-8.453l.07.977A2.951,2.951,0,0,1-8.2-8.609a2.453,2.453,0,0,1,2,.789,3.682,3.682,0,0,1,.672,2.359V0H-7.789V-5.406A1.465,1.465,0,0,0-8.1-6.449a1.4,1.4,0,0,0-1.039-.324,1.553,1.553,0,0,0-1.43.813V0h-2.258V-8.453ZM3.359-5.828H-3.625V-7.672H3.359Zm0,3.383H-3.625V-4.289H3.359Zm8.563-1.836h1.289v1.82H11.922V0H9.664V-2.461H5L4.9-3.883l4.742-7.492h2.281Zm-4.773,0H9.664V-8.3l-.148.258Z" transform="translate(727.051 4789)" fill="#12263f"/>
    <path id="Trazado_899877" data-name="Trazado 899877" d="M-10.7-8.453l.07.977A2.951,2.951,0,0,1-8.2-8.609a2.453,2.453,0,0,1,2,.789,3.682,3.682,0,0,1,.672,2.359V0H-7.789V-5.406A1.465,1.465,0,0,0-8.1-6.449a1.4,1.4,0,0,0-1.039-.324,1.553,1.553,0,0,0-1.43.813V0h-2.258V-8.453ZM3.359-5.828H-3.625V-7.672H3.359Zm0,3.383H-3.625V-4.289H3.359Zm8.008-9.047v1.859h-.219a3.836,3.836,0,0,0-2.465.8A3.238,3.238,0,0,0,7.563-6.687a3.075,3.075,0,0,1,2.289-.922,2.9,2.9,0,0,1,2.359,1.063,4.259,4.259,0,0,1,.875,2.8,4.19,4.19,0,0,1-.48,2.008,3.446,3.446,0,0,1-1.359,1.4,3.949,3.949,0,0,1-1.988.5,3.689,3.689,0,0,1-2.9-1.25A4.852,4.852,0,0,1,5.25-4.43v-.812a7.3,7.3,0,0,1,.7-3.27,5.127,5.127,0,0,1,2.008-2.2,5.884,5.884,0,0,1,3.035-.785Zm-2.2,5.7a1.8,1.8,0,0,0-.992.285,1.717,1.717,0,0,0-.656.754v.688A3.05,3.05,0,0,0,7.961-2.3a1.438,1.438,0,0,0,1.25.637,1.422,1.422,0,0,0,1.176-.574,2.345,2.345,0,0,0,.449-1.488,2.34,2.34,0,0,0-.453-1.5A1.476,1.476,0,0,0,9.164-5.8Z" transform="translate(727.051 4893)" fill="#12263f"/>
    <path id="Trazado_899878" data-name="Trazado 899878" d="M-.973-1.883H4V0h-7.32V-11.375H-.973Z" transform="translate(785.051 4643)" fill="#12263f"/>
    <path id="Trazado_899879" data-name="Trazado 899879" d="M-2.93-11.375l2.922,8.25L2.9-11.375H5.977V0H3.625V-3.109l.234-5.367L.789,0H-.82L-3.883-8.469l.234,5.359V0H-5.992V-11.375Z" transform="translate(822.051 4643)" fill="#12263f"/>
    <path id="Trazado_899880" data-name="Trazado 899880" d="M4.617,0H2.273L-2.289-7.484V0H-4.633V-11.375h2.344l4.57,7.5v-7.5H4.617Z" transform="translate(873.051 4643)" fill="#12263f"/>
    <path id="Trazado_899881" data-name="Trazado 899881" d="M4.836-5.43a6.867,6.867,0,0,1-.594,2.945,4.472,4.472,0,0,1-1.7,1.953A4.7,4.7,0,0,1,.008.156a4.732,4.732,0,0,1-2.523-.68A4.515,4.515,0,0,1-4.234-2.465a6.67,6.67,0,0,1-.617-2.9V-5.93a6.831,6.831,0,0,1,.605-2.957,4.508,4.508,0,0,1,1.711-1.961,4.706,4.706,0,0,1,2.527-.684,4.706,4.706,0,0,1,2.527.684A4.508,4.508,0,0,1,4.23-8.887a6.811,6.811,0,0,1,.605,2.949ZM2.461-5.945A4.787,4.787,0,0,0,1.82-8.664a2.088,2.088,0,0,0-1.828-.93,2.088,2.088,0,0,0-1.82.918,4.732,4.732,0,0,0-.648,2.691v.555a4.847,4.847,0,0,0,.641,2.7,2.082,2.082,0,0,0,1.844.961A2.064,2.064,0,0,0,1.82-2.691a4.819,4.819,0,0,0,.641-2.7Z" transform="translate(922.051 4643)" fill="#12263f"/>
    <path id="Trazado_899882" data-name="Trazado 899882" d="M-1.8-4.008V0H-4.145V-11.375H.293a5.134,5.134,0,0,1,2.254.469,3.454,3.454,0,0,1,1.5,1.332,3.714,3.714,0,0,1,.523,1.965A3.266,3.266,0,0,1,3.422-4.973a4.767,4.767,0,0,1-3.168.965Zm0-1.9H.293a2.059,2.059,0,0,0,1.418-.437A1.591,1.591,0,0,0,2.2-7.594a1.876,1.876,0,0,0-.492-1.352A1.839,1.839,0,0,0,.348-9.477H-1.8Z" transform="translate(977.051 4643)" fill="#12263f"/>
    <path id="Trazado_899883" data-name="Trazado 899883" d="M4.82-5.43A6.853,6.853,0,0,1,4.3-2.66,4.754,4.754,0,0,1,2.875-.773L4.766.711,3.273,2.031.852.086a5.126,5.126,0,0,1-.859.07,4.732,4.732,0,0,1-2.523-.68A4.515,4.515,0,0,1-4.25-2.465a6.67,6.67,0,0,1-.617-2.9V-5.93a6.831,6.831,0,0,1,.605-2.957,4.508,4.508,0,0,1,1.711-1.961,4.706,4.706,0,0,1,2.527-.684,4.706,4.706,0,0,1,2.527.684A4.508,4.508,0,0,1,4.215-8.887,6.811,6.811,0,0,1,4.82-5.937ZM2.445-5.945A4.787,4.787,0,0,0,1.8-8.664a2.088,2.088,0,0,0-1.828-.93,2.088,2.088,0,0,0-1.82.918,4.732,4.732,0,0,0-.648,2.691v.555a4.847,4.847,0,0,0,.641,2.7,2.082,2.082,0,0,0,1.844.961A2.064,2.064,0,0,0,1.8-2.691a4.819,4.819,0,0,0,.641-2.7Z" transform="translate(1037.051 4643)" fill="#12263f"/>
  </g>
</svg>
