<svg xmlns="http://www.w3.org/2000/svg" width="324.102" height="313.677" viewBox="0 0 324.102 313.677">
  <g id="Grupo_1108953" data-name="Grupo 1108953" transform="translate(-742.949 -5771.162)">
    <path id="Trazado_899884" data-name="Trazado 899884" d="M0,0H156.379V19.446H0Z" transform="matrix(0.966, -0.259, 0.259, 0.966, 828.026, 5811.635)" fill="#00e0ff"/>
    <g id="Trazado_899885" data-name="Trazado 899885" transform="translate(886.364 5780.884)" fill="#00e0ff">
      <path d="M 19.85122108459473 38.20244216918945 C 14.94943141937256 38.20244216918945 10.34103107452393 36.29358291625977 6.874950885772705 32.82749176025391 C 3.40886116027832 29.36141014099121 1.500001072883606 24.75301170349121 1.500001072883606 19.85122108459473 C 1.500001072883606 14.94943141937256 3.40886116027832 10.34103107452393 6.874950885772705 6.874950885772705 C 10.34103107452393 3.40886116027832 14.94943141937256 1.500001072883606 19.85122108459473 1.500001072883606 C 24.75301170349121 1.500001072883606 29.36141014099121 3.40886116027832 32.82749176025391 6.874950885772705 C 36.29358291625977 10.34103107452393 38.20244216918945 14.94943141937256 38.20244216918945 19.85122108459473 C 38.20244216918945 24.75301170349121 36.29358291625977 29.36141014099121 32.82749176025391 32.82749176025391 C 29.36141014099121 36.29358291625977 24.75301170349121 38.20244216918945 19.85122108459473 38.20244216918945 Z" stroke="none"/>
      <path d="M 19.85122108459473 3 C 15.3500919342041 3 11.11838150024414 4.752830505371094 7.935611724853516 7.935611724853516 C 4.752830505371094 11.11838150024414 3 15.3500919342041 3 19.85122108459473 C 3 24.35235214233398 4.752830505371094 28.58406066894531 7.935611724853516 31.76683044433594 C 11.11838150024414 34.94961166381836 15.3500919342041 36.70244216918945 19.85122108459473 36.70244216918945 C 24.35235214233398 36.70244216918945 28.58406066894531 34.94961166381836 31.76683044433594 31.76683044433594 C 34.94961166381836 28.58406066894531 36.70244216918945 24.35235214233398 36.70244216918945 19.85122108459473 C 36.70244216918945 15.3500919342041 34.94961166381836 11.11838150024414 31.76683044433594 7.935611724853516 C 28.58406066894531 4.752830505371094 24.35235214233398 3 19.85122108459473 3 M 19.85122108459473 0 C 30.81475067138672 0 39.70244216918945 8.887691497802734 39.70244216918945 19.85122108459473 C 39.70244216918945 30.81475067138672 30.81475067138672 39.70244216918945 19.85122108459473 39.70244216918945 C 8.887691497802734 39.70244216918945 0 30.81475067138672 0 19.85122108459473 C 0 8.887691497802734 8.887691497802734 0 19.85122108459473 0 Z" stroke="none" fill="#4d0099"/>
    </g>
    <path id="Trazado_899886" data-name="Trazado 899886" d="M-1.578,0V-6.625H-2.8V-8.453h1.227v-.672a2.921,2.921,0,0,1,.852-2.242,3.364,3.364,0,0,1,2.391-.8A5.235,5.235,0,0,1,2.9-12l.008,1.938a2.4,2.4,0,0,0-.648-.07q-1.2,0-1.2,1.031v.648H2.711v1.828H1.063V0Z" transform="translate(906.38 5806.417)" fill="#fff"/>
    <path id="Trazado_899887" data-name="Trazado 899887" d="M0,0H156.379V19.446H0Z" transform="matrix(0.966, -0.259, 0.259, 0.966, 828.026, 5919.608)" fill="#8000ff"/>
    <g id="Trazado_899888" data-name="Trazado 899888" transform="translate(886.364 5889.458)" fill="#8000ff">
      <path d="M 19.85122108459473 38.20244216918945 C 14.94943141937256 38.20244216918945 10.34103107452393 36.29358291625977 6.874950885772705 32.82749176025391 C 3.40886116027832 29.36141014099121 1.500001072883606 24.75301170349121 1.500001072883606 19.85122108459473 C 1.500001072883606 14.94943141937256 3.40886116027832 10.34103107452393 6.874950885772705 6.874950885772705 C 10.34103107452393 3.40886116027832 14.94943141937256 1.500001072883606 19.85122108459473 1.500001072883606 C 24.75301170349121 1.500001072883606 29.36141014099121 3.40886116027832 32.82749176025391 6.874950885772705 C 36.29358291625977 10.34103107452393 38.20244216918945 14.94943141937256 38.20244216918945 19.85122108459473 C 38.20244216918945 24.75301170349121 36.29358291625977 29.36141014099121 32.82749176025391 32.82749176025391 C 29.36141014099121 36.29358291625977 24.75301170349121 38.20244216918945 19.85122108459473 38.20244216918945 Z" stroke="none"/>
      <path d="M 19.85122108459473 3 C 15.3500919342041 3 11.11838150024414 4.752830505371094 7.935611724853516 7.935611724853516 C 4.752830505371094 11.11838150024414 3 15.3500919342041 3 19.85122108459473 C 3 24.35235214233398 4.752830505371094 28.58406066894531 7.935611724853516 31.76683044433594 C 11.11838150024414 34.94961166381836 15.3500919342041 36.70244216918945 19.85122108459473 36.70244216918945 C 24.35235214233398 36.70244216918945 28.58406066894531 34.94961166381836 31.76683044433594 31.76683044433594 C 34.94961166381836 28.58406066894531 36.70244216918945 24.35235214233398 36.70244216918945 19.85122108459473 C 36.70244216918945 15.3500919342041 34.94961166381836 11.11838150024414 31.76683044433594 7.935611724853516 C 28.58406066894531 4.752830505371094 24.35235214233398 3 19.85122108459473 3 M 19.85122108459473 0 C 30.81475067138672 0 39.70244216918945 8.887691497802734 39.70244216918945 19.85122108459473 C 39.70244216918945 30.81475067138672 30.81475067138672 39.70244216918945 19.85122108459473 39.70244216918945 C 8.887691497802734 39.70244216918945 0 30.81475067138672 0 19.85122108459473 C 0 8.887691497802734 8.887691497802734 0 19.85122108459473 0 Z" stroke="none" fill="#4d0099"/>
    </g>
    <path id="Trazado_899889" data-name="Trazado 899889" d="M3.827-3.9A4.779,4.779,0,0,1,3-.956,2.665,2.665,0,0,1,.751.146a2.285,2.285,0,0,1-1.794-.8v3.7H-3.512V-7.925H-1.2l.073.732A2.285,2.285,0,0,1,.736-8.071a2.687,2.687,0,0,1,2.278,1.08,4.838,4.838,0,0,1,.813,2.97ZM1.359-4.058q0-2.109-1.23-2.109a1.162,1.162,0,0,0-1.172.63v3.12a1.2,1.2,0,0,0,1.187.659q1.179,0,1.216-2.036Z" transform="translate(905.759 5911.561)" fill="#fff"/>
    <path id="Trazado_899890" data-name="Trazado 899890" d="M0,0H156.379V19.446H0Z" transform="matrix(0.966, -0.259, 0.259, 0.966, 828.026, 5865.922)" fill="#0ac675"/>
    <g id="Trazado_899891" data-name="Trazado 899891" transform="translate(886.364 5835.171)" fill="#0ac675">
      <path d="M 19.85122108459473 38.20244216918945 C 14.94943141937256 38.20244216918945 10.34103107452393 36.29358291625977 6.874950885772705 32.82749176025391 C 3.40886116027832 29.36141014099121 1.500001072883606 24.75301170349121 1.500001072883606 19.85122108459473 C 1.500001072883606 14.94943141937256 3.40886116027832 10.34103107452393 6.874950885772705 6.874950885772705 C 10.34103107452393 3.40886116027832 14.94943141937256 1.500001072883606 19.85122108459473 1.500001072883606 C 24.75301170349121 1.500001072883606 29.36141014099121 3.40886116027832 32.82749176025391 6.874950885772705 C 36.29358291625977 10.34103107452393 38.20244216918945 14.94943141937256 38.20244216918945 19.85122108459473 C 38.20244216918945 24.75301170349121 36.29358291625977 29.36141014099121 32.82749176025391 32.82749176025391 C 29.36141014099121 36.29358291625977 24.75301170349121 38.20244216918945 19.85122108459473 38.20244216918945 Z" stroke="none"/>
      <path d="M 19.85122108459473 3 C 15.3500919342041 3 11.11838150024414 4.752830505371094 7.935611724853516 7.935611724853516 C 4.752830505371094 11.11838150024414 3 15.3500919342041 3 19.85122108459473 C 3 24.35235214233398 4.752830505371094 28.58406066894531 7.935611724853516 31.76683044433594 C 11.11838150024414 34.94961166381836 15.3500919342041 36.70244216918945 19.85122108459473 36.70244216918945 C 24.35235214233398 36.70244216918945 28.58406066894531 34.94961166381836 31.76683044433594 31.76683044433594 C 34.94961166381836 28.58406066894531 36.70244216918945 24.35235214233398 36.70244216918945 19.85122108459473 C 36.70244216918945 15.3500919342041 34.94961166381836 11.11838150024414 31.76683044433594 7.935611724853516 C 28.58406066894531 4.752830505371094 24.35235214233398 3 19.85122108459473 3 M 19.85122108459473 0 C 30.81475067138672 0 39.70244216918945 8.887691497802734 39.70244216918945 19.85122108459473 C 39.70244216918945 30.81475067138672 30.81475067138672 39.70244216918945 19.85122108459473 39.70244216918945 C 8.887691497802734 39.70244216918945 0 30.81475067138672 0 19.85122108459473 C 0 8.887691497802734 8.887691497802734 0 19.85122108459473 0 Z" stroke="none" fill="#4d0099"/>
    </g>
    <path id="Trazado_899892" data-name="Trazado 899892" d="M-4.094-4.289a5.164,5.164,0,0,1,.867-3.164A2.854,2.854,0,0,1-.8-8.609,2.428,2.428,0,0,1,1.1-7.719V-12H3.742V0H1.375L1.242-.906A2.493,2.493,0,0,1-.82.156,2.849,2.849,0,0,1-3.211-1,5.327,5.327,0,0,1-4.094-4.289Zm2.633.164q0,2.25,1.313,2.25A1.3,1.3,0,0,0,1.1-2.609V-5.828a1.261,1.261,0,0,0-1.234-.75q-1.219,0-1.32,1.969Z" transform="translate(905.759 5861.515)" fill="#fff"/>
    <path id="Trazado_899893" data-name="Trazado 899893" d="M0,0H156.379V19.446H0Z" transform="matrix(0.966, -0.259, 0.259, 0.966, 828.026, 5973.686)" fill="#ff007f"/>
    <g id="Trazado_899894" data-name="Trazado 899894" transform="translate(886.364 5942.935)" fill="#ff007f">
      <path d="M 19.85122108459473 38.20244216918945 C 14.94943141937256 38.20244216918945 10.34103107452393 36.29358291625977 6.874950885772705 32.82749176025391 C 3.40886116027832 29.36141014099121 1.500001072883606 24.75301170349121 1.500001072883606 19.85122108459473 C 1.500001072883606 14.94943141937256 3.40886116027832 10.34103107452393 6.874950885772705 6.874950885772705 C 10.34103107452393 3.40886116027832 14.94943141937256 1.500001072883606 19.85122108459473 1.500001072883606 C 24.75301170349121 1.500001072883606 29.36141014099121 3.40886116027832 32.82749176025391 6.874950885772705 C 36.29358291625977 10.34103107452393 38.20244216918945 14.94943141937256 38.20244216918945 19.85122108459473 C 38.20244216918945 24.75301170349121 36.29358291625977 29.36141014099121 32.82749176025391 32.82749176025391 C 29.36141014099121 36.29358291625977 24.75301170349121 38.20244216918945 19.85122108459473 38.20244216918945 Z" stroke="none"/>
      <path d="M 19.85122108459473 3 C 15.3500919342041 3 11.11838150024414 4.752830505371094 7.935611724853516 7.935611724853516 C 4.752830505371094 11.11838150024414 3 15.3500919342041 3 19.85122108459473 C 3 24.35235214233398 4.752830505371094 28.58406066894531 7.935611724853516 31.76683044433594 C 11.11838150024414 34.94961166381836 15.3500919342041 36.70244216918945 19.85122108459473 36.70244216918945 C 24.35235214233398 36.70244216918945 28.58406066894531 34.94961166381836 31.76683044433594 31.76683044433594 C 34.94961166381836 28.58406066894531 36.70244216918945 24.35235214233398 36.70244216918945 19.85122108459473 C 36.70244216918945 15.3500919342041 34.94961166381836 11.11838150024414 31.76683044433594 7.935611724853516 C 28.58406066894531 4.752830505371094 24.35235214233398 3 19.85122108459473 3 M 19.85122108459473 0 C 30.81475067138672 0 39.70244216918945 8.887691497802734 39.70244216918945 19.85122108459473 C 39.70244216918945 30.81475067138672 30.81475067138672 39.70244216918945 19.85122108459473 39.70244216918945 C 8.887691497802734 39.70244216918945 0 30.81475067138672 0 19.85122108459473 C 0 8.887691497802734 8.887691497802734 0 19.85122108459473 0 Z" stroke="none" fill="#4d0099"/>
    </g>
    <path id="Trazado_899895" data-name="Trazado 899895" d="M1.066-2.375a.608.608,0,0,0-.352-.539A5.348,5.348,0,0,0-.621-3.336,6.092,6.092,0,0,1-2.246-3.91a2.722,2.722,0,0,1-.977-.863,2.061,2.061,0,0,1-.336-1.164A2.336,2.336,0,0,1-2.6-7.855,3.958,3.958,0,0,1-.082-8.609a4.386,4.386,0,0,1,2.688.758A2.37,2.37,0,0,1,3.621-5.859H.98q0-1.016-1.07-1.016a1.061,1.061,0,0,0-.7.23.714.714,0,0,0-.281.574.655.655,0,0,0,.344.57,3.248,3.248,0,0,0,1.1.359A9.485,9.485,0,0,1,1.7-4.8,2.406,2.406,0,0,1,3.605-2.453,2.214,2.214,0,0,1,2.578-.57,4.505,4.505,0,0,1-.082.156,4.6,4.6,0,0,1-2.02-.234,3.24,3.24,0,0,1-3.348-1.3a2.406,2.406,0,0,1-.477-1.414h2.461a1.017,1.017,0,0,0,.391.855,1.607,1.607,0,0,0,.961.27A1.264,1.264,0,0,0,.8-1.8.7.7,0,0,0,1.066-2.375Z" transform="translate(905.759 5967.658)" fill="#fff"/>
    <g id="Trazado_899896" data-name="Trazado 899896" transform="translate(742.949 6015.967)" fill="#ff007f">
      <path d="M 34.435791015625 67.37158203125 C 29.98883056640625 67.37158203125 25.67568016052246 66.50096893310547 21.61616134643555 64.78394317626953 C 17.69436073303223 63.12516021728516 14.17192077636719 60.75016021728516 11.14667129516602 57.72491073608398 C 8.121420860290527 54.69966125488281 5.746420860290527 51.17721939086914 4.08764123916626 47.25542068481445 C 2.370610952377319 43.19589996337891 1.500001072883606 38.88275146484375 1.500001072883606 34.435791015625 C 1.500001072883606 29.98883056640625 2.370610952377319 25.67568016052246 4.08764123916626 21.61616134643555 C 5.746420860290527 17.69436073303223 8.121420860290527 14.17192077636719 11.14667129516602 11.14667129516602 C 14.17192077636719 8.121420860290527 17.69436073303223 5.746420860290527 21.61616134643555 4.08764123916626 C 25.67568016052246 2.370610952377319 29.98883056640625 1.500001072883606 34.435791015625 1.500001072883606 C 38.88275146484375 1.500001072883606 43.19589996337891 2.370610952377319 47.25542068481445 4.08764123916626 C 51.17721939086914 5.746420860290527 54.69966125488281 8.121420860290527 57.72491073608398 11.14667129516602 C 60.75016021728516 14.17192077636719 63.12516021728516 17.69436073303223 64.78394317626953 21.61616134643555 C 66.50096893310547 25.67568016052246 67.37158203125 29.98883056640625 67.37158203125 34.435791015625 C 67.37158203125 38.88275146484375 66.50096893310547 43.19589996337891 64.78394317626953 47.25542068481445 C 63.12516021728516 51.17721939086914 60.75016021728516 54.69966125488281 57.72491073608398 57.72491073608398 C 54.69966125488281 60.75016021728516 51.17721939086914 63.12516021728516 47.25542068481445 64.78394317626953 C 43.19589996337891 66.50096893310547 38.88275146484375 67.37158203125 34.435791015625 67.37158203125 Z" stroke="none"/>
      <path d="M 34.435791015625 3 C 30.1906623840332 3 26.0741081237793 3.830741882324219 22.20048522949219 5.469154357910156 C 18.45748519897461 7.05230712890625 15.09531021118164 9.319355010986328 12.20733261108398 12.20733261108398 C 9.319355010986328 15.09531021118164 7.05230712890625 18.45748519897461 5.469154357910156 22.20048522949219 C 3.830741882324219 26.0741081237793 3 30.1906623840332 3 34.435791015625 C 3 38.6809196472168 3.830741882324219 42.7974739074707 5.469154357910156 46.67109680175781 C 7.05230712890625 50.41409683227539 9.319355010986328 53.77627563476562 12.20733261108398 56.66424942016602 C 15.09531021118164 59.55222702026367 18.45748519897461 61.81927490234375 22.20048522949219 63.40242767333984 C 26.0741081237793 65.04084014892578 30.1906623840332 65.87158203125 34.435791015625 65.87158203125 C 38.6809196472168 65.87158203125 42.7974739074707 65.04084014892578 46.67109680175781 63.40242767333984 C 50.41409683227539 61.81927490234375 53.77627563476562 59.55222702026367 56.66424942016602 56.66424942016602 C 59.55222702026367 53.77627563476562 61.81927490234375 50.41409683227539 63.40242767333984 46.67109680175781 C 65.04084014892578 42.7974739074707 65.87158203125 38.6809196472168 65.87158203125 34.435791015625 C 65.87158203125 30.1906623840332 65.04084014892578 26.0741081237793 63.40242767333984 22.20048522949219 C 61.81927490234375 18.45748519897461 59.55222702026367 15.09531021118164 56.66424942016602 12.20733261108398 C 53.77627563476562 9.319355010986328 50.41409683227539 7.05230712890625 46.67109680175781 5.469154357910156 C 42.7974739074707 3.830741882324219 38.6809196472168 3 34.435791015625 3 M 34.435791015625 0 C 53.45415496826172 0 68.87158203125 15.41742706298828 68.87158203125 34.435791015625 C 68.87158203125 53.45415496826172 53.45415496826172 68.87158203125 34.435791015625 68.87158203125 C 15.41742706298828 68.87158203125 0 53.45415496826172 0 34.435791015625 C 0 15.41742706298828 15.41742706298828 0 34.435791015625 0 Z" stroke="none" fill="#4d0099"/>
    </g>
    <g id="Trazado_899897" data-name="Trazado 899897" transform="translate(828.026 6015.967)" fill="#8000ff">
      <path d="M 34.435791015625 67.37158203125 C 29.98883056640625 67.37158203125 25.67568016052246 66.50096893310547 21.61616134643555 64.78394317626953 C 17.69436073303223 63.12516021728516 14.17192077636719 60.75016021728516 11.14667129516602 57.72491073608398 C 8.121420860290527 54.69966125488281 5.746420860290527 51.17721939086914 4.08764123916626 47.25542068481445 C 2.370610952377319 43.19589996337891 1.500001072883606 38.88275146484375 1.500001072883606 34.435791015625 C 1.500001072883606 29.98883056640625 2.370610952377319 25.67568016052246 4.08764123916626 21.61616134643555 C 5.746420860290527 17.69436073303223 8.121420860290527 14.17192077636719 11.14667129516602 11.14667129516602 C 14.17192077636719 8.121420860290527 17.69436073303223 5.746420860290527 21.61616134643555 4.08764123916626 C 25.67568016052246 2.370610952377319 29.98883056640625 1.500001072883606 34.435791015625 1.500001072883606 C 38.88275146484375 1.500001072883606 43.19589996337891 2.370610952377319 47.25542068481445 4.08764123916626 C 51.17721939086914 5.746420860290527 54.69966125488281 8.121420860290527 57.72491073608398 11.14667129516602 C 60.75016021728516 14.17192077636719 63.12516021728516 17.69436073303223 64.78394317626953 21.61616134643555 C 66.50096893310547 25.67568016052246 67.37158203125 29.98883056640625 67.37158203125 34.435791015625 C 67.37158203125 38.88275146484375 66.50096893310547 43.19589996337891 64.78394317626953 47.25542068481445 C 63.12516021728516 51.17721939086914 60.75016021728516 54.69966125488281 57.72491073608398 57.72491073608398 C 54.69966125488281 60.75016021728516 51.17721939086914 63.12516021728516 47.25542068481445 64.78394317626953 C 43.19589996337891 66.50096893310547 38.88275146484375 67.37158203125 34.435791015625 67.37158203125 Z" stroke="none"/>
      <path d="M 34.435791015625 3 C 30.1906623840332 3 26.0741081237793 3.830741882324219 22.20048522949219 5.469154357910156 C 18.45748519897461 7.05230712890625 15.09531021118164 9.319355010986328 12.20733261108398 12.20733261108398 C 9.319355010986328 15.09531021118164 7.05230712890625 18.45748519897461 5.469154357910156 22.20048522949219 C 3.830741882324219 26.0741081237793 3 30.1906623840332 3 34.435791015625 C 3 38.6809196472168 3.830741882324219 42.7974739074707 5.469154357910156 46.67109680175781 C 7.05230712890625 50.41409683227539 9.319355010986328 53.77627563476562 12.20733261108398 56.66424942016602 C 15.09531021118164 59.55222702026367 18.45748519897461 61.81927490234375 22.20048522949219 63.40242767333984 C 26.0741081237793 65.04084014892578 30.1906623840332 65.87158203125 34.435791015625 65.87158203125 C 38.6809196472168 65.87158203125 42.7974739074707 65.04084014892578 46.67109680175781 63.40242767333984 C 50.41409683227539 61.81927490234375 53.77627563476562 59.55222702026367 56.66424942016602 56.66424942016602 C 59.55222702026367 53.77627563476562 61.81927490234375 50.41409683227539 63.40242767333984 46.67109680175781 C 65.04084014892578 42.7974739074707 65.87158203125 38.6809196472168 65.87158203125 34.435791015625 C 65.87158203125 30.1906623840332 65.04084014892578 26.0741081237793 63.40242767333984 22.20048522949219 C 61.81927490234375 18.45748519897461 59.55222702026367 15.09531021118164 56.66424942016602 12.20733261108398 C 53.77627563476562 9.319355010986328 50.41409683227539 7.05230712890625 46.67109680175781 5.469154357910156 C 42.7974739074707 3.830741882324219 38.6809196472168 3 34.435791015625 3 M 34.435791015625 0 C 53.45415496826172 0 68.87158203125 15.41742706298828 68.87158203125 34.435791015625 C 68.87158203125 53.45415496826172 53.45415496826172 68.87158203125 34.435791015625 68.87158203125 C 15.41742706298828 68.87158203125 0 53.45415496826172 0 34.435791015625 C 0 15.41742706298828 15.41742706298828 0 34.435791015625 0 Z" stroke="none" fill="#4d0099"/>
    </g>
    <g id="Trazado_899898" data-name="Trazado 899898" transform="translate(913.103 6015.967)" fill="#0ac675">
      <path d="M 34.435791015625 67.37158203125 C 29.98883056640625 67.37158203125 25.67568016052246 66.50096893310547 21.61616134643555 64.78394317626953 C 17.69436073303223 63.12516021728516 14.17192077636719 60.75016021728516 11.14667129516602 57.72491073608398 C 8.121420860290527 54.69966125488281 5.746420860290527 51.17721939086914 4.08764123916626 47.25542068481445 C 2.370610952377319 43.19589996337891 1.500001072883606 38.88275146484375 1.500001072883606 34.435791015625 C 1.500001072883606 29.98883056640625 2.370610952377319 25.67568016052246 4.08764123916626 21.61616134643555 C 5.746420860290527 17.69436073303223 8.121420860290527 14.17192077636719 11.14667129516602 11.14667129516602 C 14.17192077636719 8.121420860290527 17.69436073303223 5.746420860290527 21.61616134643555 4.08764123916626 C 25.67568016052246 2.370610952377319 29.98883056640625 1.500001072883606 34.435791015625 1.500001072883606 C 38.88275146484375 1.500001072883606 43.19589996337891 2.370610952377319 47.25542068481445 4.08764123916626 C 51.17721939086914 5.746420860290527 54.69966125488281 8.121420860290527 57.72491073608398 11.14667129516602 C 60.75016021728516 14.17192077636719 63.12516021728516 17.69436073303223 64.78394317626953 21.61616134643555 C 66.50096893310547 25.67568016052246 67.37158203125 29.98883056640625 67.37158203125 34.435791015625 C 67.37158203125 38.88275146484375 66.50096893310547 43.19589996337891 64.78394317626953 47.25542068481445 C 63.12516021728516 51.17721939086914 60.75016021728516 54.69966125488281 57.72491073608398 57.72491073608398 C 54.69966125488281 60.75016021728516 51.17721939086914 63.12516021728516 47.25542068481445 64.78394317626953 C 43.19589996337891 66.50096893310547 38.88275146484375 67.37158203125 34.435791015625 67.37158203125 Z" stroke="none"/>
      <path d="M 34.435791015625 3 C 30.1906623840332 3 26.0741081237793 3.830741882324219 22.20048522949219 5.469154357910156 C 18.45748519897461 7.05230712890625 15.09531021118164 9.319355010986328 12.20733261108398 12.20733261108398 C 9.319355010986328 15.09531021118164 7.05230712890625 18.45748519897461 5.469154357910156 22.20048522949219 C 3.830741882324219 26.0741081237793 3 30.1906623840332 3 34.435791015625 C 3 38.6809196472168 3.830741882324219 42.7974739074707 5.469154357910156 46.67109680175781 C 7.05230712890625 50.41409683227539 9.319355010986328 53.77627563476562 12.20733261108398 56.66424942016602 C 15.09531021118164 59.55222702026367 18.45748519897461 61.81927490234375 22.20048522949219 63.40242767333984 C 26.0741081237793 65.04084014892578 30.1906623840332 65.87158203125 34.435791015625 65.87158203125 C 38.6809196472168 65.87158203125 42.7974739074707 65.04084014892578 46.67109680175781 63.40242767333984 C 50.41409683227539 61.81927490234375 53.77627563476562 59.55222702026367 56.66424942016602 56.66424942016602 C 59.55222702026367 53.77627563476562 61.81927490234375 50.41409683227539 63.40242767333984 46.67109680175781 C 65.04084014892578 42.7974739074707 65.87158203125 38.6809196472168 65.87158203125 34.435791015625 C 65.87158203125 30.1906623840332 65.04084014892578 26.0741081237793 63.40242767333984 22.20048522949219 C 61.81927490234375 18.45748519897461 59.55222702026367 15.09531021118164 56.66424942016602 12.20733261108398 C 53.77627563476562 9.319355010986328 50.41409683227539 7.05230712890625 46.67109680175781 5.469154357910156 C 42.7974739074707 3.830741882324219 38.6809196472168 3 34.435791015625 3 M 34.435791015625 0 C 53.45415496826172 0 68.87158203125 15.41742706298828 68.87158203125 34.435791015625 C 68.87158203125 53.45415496826172 53.45415496826172 68.87158203125 34.435791015625 68.87158203125 C 15.41742706298828 68.87158203125 0 53.45415496826172 0 34.435791015625 C 0 15.41742706298828 15.41742706298828 0 34.435791015625 0 Z" stroke="none" fill="#4d0099"/>
    </g>
    <g id="Trazado_899899" data-name="Trazado 899899" transform="translate(998.179 6015.967)" fill="#00e0ff">
      <path d="M 34.435791015625 67.37158203125 C 29.98883056640625 67.37158203125 25.67568016052246 66.50096893310547 21.61616134643555 64.78394317626953 C 17.69436073303223 63.12516021728516 14.17192077636719 60.75016021728516 11.14667129516602 57.72491073608398 C 8.121420860290527 54.69966125488281 5.746420860290527 51.17721939086914 4.08764123916626 47.25542068481445 C 2.370610952377319 43.19589996337891 1.500001072883606 38.88275146484375 1.500001072883606 34.435791015625 C 1.500001072883606 29.98883056640625 2.370610952377319 25.67568016052246 4.08764123916626 21.61616134643555 C 5.746420860290527 17.69436073303223 8.121420860290527 14.17192077636719 11.14667129516602 11.14667129516602 C 14.17192077636719 8.121420860290527 17.69436073303223 5.746420860290527 21.61616134643555 4.08764123916626 C 25.67568016052246 2.370610952377319 29.98883056640625 1.500001072883606 34.435791015625 1.500001072883606 C 38.88275146484375 1.500001072883606 43.19589996337891 2.370610952377319 47.25542068481445 4.08764123916626 C 51.17721939086914 5.746420860290527 54.69966125488281 8.121420860290527 57.72491073608398 11.14667129516602 C 60.75016021728516 14.17192077636719 63.12516021728516 17.69436073303223 64.78394317626953 21.61616134643555 C 66.50096893310547 25.67568016052246 67.37158203125 29.98883056640625 67.37158203125 34.435791015625 C 67.37158203125 38.88275146484375 66.50096893310547 43.19589996337891 64.78394317626953 47.25542068481445 C 63.12516021728516 51.17721939086914 60.75016021728516 54.69966125488281 57.72491073608398 57.72491073608398 C 54.69966125488281 60.75016021728516 51.17721939086914 63.12516021728516 47.25542068481445 64.78394317626953 C 43.19589996337891 66.50096893310547 38.88275146484375 67.37158203125 34.435791015625 67.37158203125 Z" stroke="none"/>
      <path d="M 34.435791015625 3 C 30.1906623840332 3 26.0741081237793 3.830741882324219 22.20048522949219 5.469154357910156 C 18.45748519897461 7.05230712890625 15.09531021118164 9.319355010986328 12.20733261108398 12.20733261108398 C 9.319355010986328 15.09531021118164 7.05230712890625 18.45748519897461 5.469154357910156 22.20048522949219 C 3.830741882324219 26.0741081237793 3 30.1906623840332 3 34.435791015625 C 3 38.6809196472168 3.830741882324219 42.7974739074707 5.469154357910156 46.67109680175781 C 7.05230712890625 50.41409683227539 9.319355010986328 53.77627563476562 12.20733261108398 56.66424942016602 C 15.09531021118164 59.55222702026367 18.45748519897461 61.81927490234375 22.20048522949219 63.40242767333984 C 26.0741081237793 65.04084014892578 30.1906623840332 65.87158203125 34.435791015625 65.87158203125 C 38.6809196472168 65.87158203125 42.7974739074707 65.04084014892578 46.67109680175781 63.40242767333984 C 50.41409683227539 61.81927490234375 53.77627563476562 59.55222702026367 56.66424942016602 56.66424942016602 C 59.55222702026367 53.77627563476562 61.81927490234375 50.41409683227539 63.40242767333984 46.67109680175781 C 65.04084014892578 42.7974739074707 65.87158203125 38.6809196472168 65.87158203125 34.435791015625 C 65.87158203125 30.1906623840332 65.04084014892578 26.0741081237793 63.40242767333984 22.20048522949219 C 61.81927490234375 18.45748519897461 59.55222702026367 15.09531021118164 56.66424942016602 12.20733261108398 C 53.77627563476562 9.319355010986328 50.41409683227539 7.05230712890625 46.67109680175781 5.469154357910156 C 42.7974739074707 3.830741882324219 38.6809196472168 3 34.435791015625 3 M 34.435791015625 0 C 53.45415496826172 0 68.87158203125 15.41742706298828 68.87158203125 34.435791015625 C 68.87158203125 53.45415496826172 53.45415496826172 68.87158203125 34.435791015625 68.87158203125 C 15.41742706298828 68.87158203125 0 53.45415496826172 0 34.435791015625 C 0 15.41742706298828 15.41742706298828 0 34.435791015625 0 Z" stroke="none" fill="#4d0099"/>
    </g>
    <path id="Trazado_899900" data-name="Trazado 899900" d="M-16.352-2.078a.532.532,0,0,0-.308-.472,4.679,4.679,0,0,0-1.169-.369,5.33,5.33,0,0,1-1.422-.5,2.382,2.382,0,0,1-.854-.755A1.8,1.8,0,0,1-20.4-5.2a2.044,2.044,0,0,1,.841-1.678,3.464,3.464,0,0,1,2.2-.66,3.837,3.837,0,0,1,2.352.663,2.074,2.074,0,0,1,.889,1.743h-2.311q0-.889-.937-.889a.928.928,0,0,0-.608.2.624.624,0,0,0-.246.5.573.573,0,0,0,.3.5,2.842,2.842,0,0,0,.96.314A8.3,8.3,0,0,1-15.8-4.2a2.105,2.105,0,0,1,1.668,2.058A1.937,1.937,0,0,1-15.03-.5a3.942,3.942,0,0,1-2.328.636,4.023,4.023,0,0,1-1.7-.342,2.835,2.835,0,0,1-1.162-.93,2.105,2.105,0,0,1-.417-1.237h2.153a.89.89,0,0,0,.342.749,1.406,1.406,0,0,0,.841.236,1.106,1.106,0,0,0,.708-.191A.612.612,0,0,0-16.352-2.078ZM-3.009-4.936h-6.33V-6.713h6.33Zm0,3h-6.33V-3.712h6.33ZM9.023,0H2.077V-1.5l3.2-3.363a3.818,3.818,0,0,0,1.183-2.14,1.488,1.488,0,0,0-.28-.978,1,1,0,0,0-.813-.335,1.013,1.013,0,0,0-.854.448,1.84,1.84,0,0,0-.328,1.118H1.872A3.269,3.269,0,0,1,2.33-8.446,3.212,3.212,0,0,1,3.6-9.659,3.777,3.777,0,0,1,5.42-10.1a3.715,3.715,0,0,1,2.485.745,2.66,2.66,0,0,1,.872,2.14,3.107,3.107,0,0,1-.219,1.145A5.021,5.021,0,0,1,7.878-4.9,17.134,17.134,0,0,1,6.391-3.261L5.106-1.777H9.023ZM13.8.137A3.8,3.8,0,0,1,11.046-.878,3.506,3.506,0,0,1,9.993-3.521v-.191a4.542,4.542,0,0,1,.42-2,3.076,3.076,0,0,1,1.227-1.343,3.7,3.7,0,0,1,1.914-.475,3.2,3.2,0,0,1,2.461.967,3.8,3.8,0,0,1,.9,2.7v.9h-4.58a1.66,1.66,0,0,0,.54.978,1.607,1.607,0,0,0,1.08.355,2.07,2.07,0,0,0,1.709-.766L16.72-1.162a2.943,2.943,0,0,1-1.22.947A4.123,4.123,0,0,1,13.8.137Zm-.26-5.893q-1.012,0-1.2,1.34h2.324v-.178a1.141,1.141,0,0,0-.28-.858A1.115,1.115,0,0,0,13.541-5.756ZM20.2-6.982H17.8V-8.022h2.4Z" transform="translate(776.939 6054.49)" fill="#fff"/>
    <path id="Trazado_899901" data-name="Trazado 899901" d="M-13.714-3.644A4.46,4.46,0,0,1-14.49-.892a2.488,2.488,0,0,1-2.1,1.029A2.132,2.132,0,0,1-18.26-.608V2.844h-2.3V-7.4h2.153l.068.684a2.132,2.132,0,0,1,1.743-.82,2.508,2.508,0,0,1,2.126,1.008,4.515,4.515,0,0,1,.759,2.772Zm-2.3-.144q0-1.969-1.148-1.969a1.084,1.084,0,0,0-1.094.588v2.912a1.119,1.119,0,0,0,1.107.615q1.1,0,1.135-1.9ZM-2.653-4.936h-6.33V-6.713h6.33Zm0,3h-6.33V-3.712h6.33ZM8-10.1v1.812h-.1a3.459,3.459,0,0,0-2.123.619A2.612,2.612,0,0,0,4.75-5.947a2.694,2.694,0,0,1,1.969-.766,2.513,2.513,0,0,1,2.058.943,3.8,3.8,0,0,1,.766,2.475,3.484,3.484,0,0,1-.448,1.743A3.2,3.2,0,0,1,7.843-.311,3.6,3.6,0,0,1,6.063.137,3.715,3.715,0,0,1,4.169-.345a3.313,3.313,0,0,1-1.3-1.377,4.536,4.536,0,0,1-.479-2.064V-4.71a5.746,5.746,0,0,1,.66-2.765A4.782,4.782,0,0,1,4.935-9.4a5.384,5.384,0,0,1,2.714-.7ZM5.919-4.949a1.318,1.318,0,0,0-.766.212,1.345,1.345,0,0,0-.458.52v.69Q4.7-1.641,6-1.641a1.059,1.059,0,0,0,.878-.472,1.922,1.922,0,0,0,.352-1.183,1.887,1.887,0,0,0-.359-1.193A1.148,1.148,0,0,0,5.919-4.949ZM14.156.137A3.8,3.8,0,0,1,11.4-.878a3.506,3.506,0,0,1-1.053-2.642v-.191a4.542,4.542,0,0,1,.42-2A3.076,3.076,0,0,1,12-7.058a3.7,3.7,0,0,1,1.914-.475,3.2,3.2,0,0,1,2.461.967,3.8,3.8,0,0,1,.9,2.7v.9h-4.58a1.66,1.66,0,0,0,.54.978,1.607,1.607,0,0,0,1.08.355,2.07,2.07,0,0,0,1.709-.766l1.053,1.244a2.943,2.943,0,0,1-1.22.947A4.123,4.123,0,0,1,14.156.137ZM13.9-5.756q-1.012,0-1.2,1.34h2.324v-.178a1.141,1.141,0,0,0-.28-.858A1.115,1.115,0,0,0,13.9-5.756Zm6.66-1.226h-2.4V-8.022h2.4Z" transform="translate(862.257 6054.49)" fill="#fff"/>
    <path id="Trazado_899902" data-name="Trazado 899902" d="M-24.921-3.753a4.518,4.518,0,0,1,.759-2.769,2.5,2.5,0,0,1,2.119-1.012,2.124,2.124,0,0,1,1.668.779V-10.5h2.311V0h-2.071l-.116-.793a2.181,2.181,0,0,1-1.8.93A2.493,2.493,0,0,1-24.149-.875,4.661,4.661,0,0,1-24.921-3.753Zm2.3.144q0,1.969,1.148,1.969a1.134,1.134,0,0,0,1.094-.643V-5.1a1.1,1.1,0,0,0-1.08-.656q-1.066,0-1.155,1.723ZM-6.71-4.936h-6.33V-6.713h6.33Zm0,3h-6.33V-3.712h6.33ZM3.482,0H1.172V-7.355l-2.27.663v-1.75L3.27-9.953h.212Zm9.912-4.067a4.752,4.752,0,0,1-.906,3.11A3.13,3.13,0,0,1,9.935.137a3.147,3.147,0,0,1-2.57-1.1,4.745,4.745,0,0,1-.909-3.1V-5.886A4.752,4.752,0,0,1,7.362-9a3.138,3.138,0,0,1,2.56-1.094,3.139,3.139,0,0,1,2.563,1.1,4.757,4.757,0,0,1,.909,3.11Zm-2.3-2.112a3.55,3.55,0,0,0-.28-1.6.937.937,0,0,0-.889-.53.915.915,0,0,0-.865.492,3.344,3.344,0,0,0-.291,1.49v2.543a3.577,3.577,0,0,0,.28,1.63.94.94,0,0,0,.889.516.928.928,0,0,0,.868-.5,3.414,3.414,0,0,0,.287-1.576ZM18.207.137A3.8,3.8,0,0,1,15.452-.878,3.506,3.506,0,0,1,14.4-3.521v-.191a4.542,4.542,0,0,1,.42-2,3.076,3.076,0,0,1,1.227-1.343,3.7,3.7,0,0,1,1.914-.475,3.2,3.2,0,0,1,2.461.967,3.8,3.8,0,0,1,.9,2.7v.9h-4.58a1.66,1.66,0,0,0,.54.978,1.607,1.607,0,0,0,1.08.355,2.07,2.07,0,0,0,1.709-.766l1.053,1.244a2.943,2.943,0,0,1-1.22.947A4.123,4.123,0,0,1,18.207.137Zm-.26-5.893q-1.012,0-1.2,1.34h2.324v-.178a1.141,1.141,0,0,0-.28-.858A1.115,1.115,0,0,0,17.947-5.756Zm6.66-1.226h-2.4V-8.022h2.4Z" transform="translate(946.472 6054.49)" fill="#fff"/>
    <path id="Trazado_899903" data-name="Trazado 899903" d="M-22.72,0V-5.8h-1.073V-7.4h1.073v-.588a2.556,2.556,0,0,1,.745-1.962,2.944,2.944,0,0,1,2.092-.7,4.581,4.581,0,0,1,1.08.144l.007,1.7a2.1,2.1,0,0,0-.567-.062q-1.046,0-1.046.9V-7.4h1.442v1.6h-1.442V0ZM-8.112-4.936h-6.33V-6.713h6.33Zm0,3h-6.33V-3.712h6.33ZM2.081,0H-.23V-7.355l-2.27.663v-1.75L1.869-9.953h.212Zm9.085-3.89h1.012v1.777H11.166V0h-2.3V-2.112H5.013L4.877-3.521,8.862-9.933v-.021h2.3Zm-4.095,0H8.862V-6.952l-.144.232ZM16.805.137A3.8,3.8,0,0,1,14.051-.878,3.506,3.506,0,0,1,13-3.521v-.191a4.542,4.542,0,0,1,.42-2,3.076,3.076,0,0,1,1.227-1.343,3.7,3.7,0,0,1,1.914-.475,3.2,3.2,0,0,1,2.461.967,3.8,3.8,0,0,1,.9,2.7v.9h-4.58a1.66,1.66,0,0,0,.54.978,1.607,1.607,0,0,0,1.08.355,2.07,2.07,0,0,0,1.709-.766l1.053,1.244a2.943,2.943,0,0,1-1.22.947A4.123,4.123,0,0,1,16.805.137Zm-.26-5.893q-1.012,0-1.2,1.34h2.324v-.178a1.141,1.141,0,0,0-.28-.858A1.115,1.115,0,0,0,16.546-5.756Zm6.66-1.226h-2.4V-8.022h2.4Z" transform="translate(1032.169 6054.49)" fill="#fff"/>
  </g>
</svg>
