<svg xmlns="http://www.w3.org/2000/svg" xmlns:xlink="http://www.w3.org/1999/xlink" width="57" height="57" viewBox="0 0 57 57">
  <defs>
    <clipPath id="clip-path">
      <rect id="Rectángulo_405908" data-name="Rectángulo 405908" width="57" height="57" transform="translate(358.051 6636)" fill="#8000ff" stroke="#707070" stroke-width="1"/>
    </clipPath>
  </defs>
  <g id="Enmascarar_grupo_1098737" data-name="Enmascarar grupo 1098737" transform="translate(-358.051 -6636)" clip-path="url(#clip-path)">
    <g id="flujo-de-trabajo" transform="translate(358.051 6636)">
      <path id="Trazado_899365" data-name="Trazado 899365" d="M36.069,0H20.819a1.95,1.95,0,0,0-1.948,1.948v8.783a1.95,1.95,0,0,0,1.948,1.948h9.444a.838.838,0,1,0,0-1.675H20.819a.273.273,0,0,1-.273-.273V1.948a.273.273,0,0,1,.273-.273h15.25a.273.273,0,0,1,.273.273v8.783a.273.273,0,0,1-.273.273H33.924a.838.838,0,1,0,0,1.675h2.145a1.95,1.95,0,0,0,1.948-1.948V1.948A1.95,1.95,0,0,0,36.069,0Z" fill="#8000ff"/>
      <path id="Trazado_899366" data-name="Trazado 899366" d="M36.069,14.774H20.819a1.95,1.95,0,0,0-1.948,1.948V25.5a1.95,1.95,0,0,0,1.948,1.948h15.25A1.95,1.95,0,0,0,38.017,25.5V16.722a1.95,1.95,0,0,0-1.948-1.948ZM36.342,25.5a.273.273,0,0,1-.273.273H20.819a.273.273,0,0,1-.273-.273V16.722a.273.273,0,0,1,.273-.273h15.25a.273.273,0,0,1,.273.273Z" fill="#8000ff"/>
      <path id="Trazado_899367" data-name="Trazado 899367" d="M36.069,29.548H27.938a.838.838,0,0,0,0,1.675h8.132a.273.273,0,0,1,.273.273v8.783a.273.273,0,0,1-.273.273H20.819a.273.273,0,0,1-.273-.273V31.5a.273.273,0,0,1,.273-.273h3.457a.838.838,0,0,0,0-1.675H20.819A1.95,1.95,0,0,0,18.871,31.5v8.783a1.95,1.95,0,0,0,1.948,1.948h15.25a1.95,1.95,0,0,0,1.948-1.948V31.5A1.95,1.95,0,0,0,36.069,29.548Z" fill="#8000ff"/>
      <path id="Trazado_899368" data-name="Trazado 899368" d="M36.069,44.321H33.6A.838.838,0,0,0,33.6,46h2.464a.273.273,0,0,1,.273.273v8.783a.273.273,0,0,1-.273.273H20.819a.273.273,0,0,1-.273-.273V46.269A.273.273,0,0,1,20.819,46h9.124a.838.838,0,0,0,0-1.675H20.819a1.95,1.95,0,0,0-1.948,1.948v8.783A1.95,1.95,0,0,0,20.819,57h15.25a1.95,1.95,0,0,0,1.948-1.948V46.269A1.95,1.95,0,0,0,36.069,44.321Z" fill="#8000ff"/>
      <path id="Trazado_899369" data-name="Trazado 899369" d="M41.2,7.177h4.264a6.549,6.549,0,1,1,0,13.1h-1.7l.108-.1a.838.838,0,1,0-1.142-1.226L41.063,20.5a.838.838,0,0,0,0,1.225l1.664,1.551a.838.838,0,1,0,1.142-1.226l-.108-.1h1.7a8.224,8.224,0,1,0,0-16.449H41.2a.838.838,0,1,0,0,1.675Z" fill="#8000ff"/>
      <path id="Trazado_899370" data-name="Trazado 899370" d="M45.461,35.049H41.2a.838.838,0,0,0,0,1.675h4.264a6.549,6.549,0,0,1,0,13.1h-1.7l.108-.1A.838.838,0,1,0,42.727,48.5l-1.664,1.551a.838.838,0,0,0,0,1.225l1.664,1.551A.838.838,0,0,0,43.869,51.6l-.108-.1h1.7a8.224,8.224,0,0,0,0-16.449Z" fill="#8000ff"/>
      <path id="Trazado_899371" data-name="Trazado 899371" d="M15.8,20.276H11.539a8.224,8.224,0,0,0,0,16.449h1.7l-.108.1a.838.838,0,1,0,1.142,1.226L15.937,36.5a.838.838,0,0,0,0-1.225l-1.664-1.551a.838.838,0,1,0-1.142,1.226l.108.1h-1.7a6.549,6.549,0,0,1,0-13.1H15.8a.838.838,0,0,0,0-1.675Z" fill="#8000ff"/>
    </g>
  </g>
</svg>
