<svg xmlns="http://www.w3.org/2000/svg" width="485" height="204" viewBox="0 0 485 204">
  <g id="Grupo_1108959" data-name="Grupo 1108959" transform="translate(-5357 5918)">
    <rect id="Rectángulo_406092" data-name="Rectángulo 406092" width="485" height="204" rx="5" transform="translate(5357 -5918)" fill="#fff"/>
    <path id="Trazado_899986" data-name="Trazado 899986" d="M-9.331-11.484A8.947,8.947,0,0,0-7.793-6.768Q-5.469-3.794.273-3.794A11.9,11.9,0,0,0,6.289-5.281a4.937,4.937,0,0,0,2.6-4.6A3.931,3.931,0,0,0,6.8-13.467,24.789,24.789,0,0,0,1.538-15.21L-3.35-16.44a23.843,23.843,0,0,1-6.9-2.6,7.764,7.764,0,0,1-3.965-6.9,10.549,10.549,0,0,1,3.743-8.408Q-6.733-37.563-.41-37.563q8.271,0,11.929,4.854a10.533,10.533,0,0,1,2.222,6.631H7.93a7.118,7.118,0,0,0-1.47-3.794Q4.341-32.3-.889-32.3a8.784,8.784,0,0,0-5.281,1.333,4.178,4.178,0,0,0-1.794,3.521,4.333,4.333,0,0,0,2.358,3.828,14.172,14.172,0,0,0,4.033,1.5l4.067.991q6.631,1.606,8.887,3.11,3.589,2.358,3.589,7.417a11.3,11.3,0,0,1-3.708,8.442Q7.554,1.4-.034,1.4-8.2,1.4-11.6-2.307a14.025,14.025,0,0,1-3.64-9.177Z" transform="translate(5600 -5799)" fill="#12263f"/>
    <path id="Trazado_899987" data-name="Trazado 899987" d="M-.427-3.965q6.118,0,8.391-4.631A23.073,23.073,0,0,0,10.237-18.9,18.348,18.348,0,0,0,8.6-27.241Q6-32.3-.359-32.3q-5.64,0-8.2,4.307A19.962,19.962,0,0,0-11.125-17.6,17.364,17.364,0,0,0-8.562-7.861Q-6-3.965-.427-3.965Zm.239-33.7a16.576,16.576,0,0,1,11.963,4.717q4.888,4.717,4.888,13.877,0,8.853-4.307,14.629T-1.008,1.333q-7.554,0-12-5.11T-17.449-17.5q0-9.229,4.683-14.7T-.188-37.666Z" transform="translate(5600 -5860)" fill="#12263f"/>
    <path id="Trazado_899988" data-name="Trazado 899988" d="M-.427-3.965q6.118,0,8.391-4.631A23.073,23.073,0,0,0,10.237-18.9,18.348,18.348,0,0,0,8.6-27.241Q6-32.3-.359-32.3q-5.64,0-8.2,4.307A19.962,19.962,0,0,0-11.125-17.6,17.364,17.364,0,0,0-8.562-7.861Q-6-3.965-.427-3.965Zm.239-33.7a16.576,16.576,0,0,1,11.963,4.717q4.888,4.717,4.888,13.877,0,8.853-4.307,14.629T-1.008,1.333q-7.554,0-12-5.11T-17.449-17.5q0-9.229,4.683-14.7T-.188-37.666Z" transform="translate(5646 -5797)" fill="#12263f"/>
    <path id="Trazado_899989" data-name="Trazado 899989" d="M-19.773-50.21h6.87v20.747H13.21V-50.21h6.87V0H13.21V-23.481H-12.9V0h-6.87Z" transform="translate(5702 -5792)" fill="#12263f"/>
    <path id="Trazado_899990" data-name="Trazado 899990" d="M-19.773-50.21h6.87v20.747H13.21V-50.21h6.87V0H13.21V-23.481H-12.9V0h-6.87Z" transform="translate(5499 -5792)" fill="#12263f"/>
    <path id="Trazado_899991" data-name="Trazado 899991" d="M-.427-3.965q6.118,0,8.391-4.631A23.073,23.073,0,0,0,10.237-18.9,18.348,18.348,0,0,0,8.6-27.241Q6-32.3-.359-32.3q-5.64,0-8.2,4.307A19.962,19.962,0,0,0-11.125-17.6,17.364,17.364,0,0,0-8.562-7.861Q-6-3.965-.427-3.965Zm.239-33.7a16.576,16.576,0,0,1,11.963,4.717q4.888,4.717,4.888,13.877,0,8.853-4.307,14.629T-1.008,1.333q-7.554,0-12-5.11T-17.449-17.5q0-9.229,4.683-14.7T-.188-37.666Z" transform="translate(5555 -5797)" fill="#12263f"/>
    <path id="Trazado_899992" data-name="Trazado 899992" d="M-.427-3.965q6.118,0,8.391-4.631A23.073,23.073,0,0,0,10.237-18.9,18.348,18.348,0,0,0,8.6-27.241Q6-32.3-.359-32.3q-5.64,0-8.2,4.307A19.962,19.962,0,0,0-11.125-17.6,17.364,17.364,0,0,0-8.562-7.861Q-6-3.965-.427-3.965Zm.239-33.7a16.576,16.576,0,0,1,11.963,4.717q4.888,4.717,4.888,13.877,0,8.853-4.307,14.629T-1.008,1.333q-7.554,0-12-5.11T-17.449-17.5q0-9.229,4.683-14.7T-.188-37.666Z" transform="translate(5600 -5736)" fill="#12263f"/>
    <g id="Grupo_1108665" data-name="Grupo 1108665" transform="translate(-2153 2952)">
      <circle id="Elipse_11680" data-name="Elipse 11680" cx="3.5" cy="3.5" r="3.5" transform="translate(7744 -8794)" fill="#0800ff"/>
      <circle id="Elipse_11763" data-name="Elipse 11763" cx="3.5" cy="3.5" r="3.5" transform="translate(7699 -8790)" fill="#c00"/>
      <circle id="Elipse_11769" data-name="Elipse 11769" cx="3.5" cy="3.5" r="3.5" transform="translate(7790 -8790)" fill="#c00"/>
      <circle id="Elipse_11765" data-name="Elipse 11765" cx="3.5" cy="3.5" r="3.5" transform="translate(7699 -8745)" fill="#c00"/>
      <circle id="Elipse_11767" data-name="Elipse 11767" cx="3.5" cy="3.5" r="3.5" transform="translate(7790 -8745)" fill="#c00"/>
      <circle id="Elipse_11755" data-name="Elipse 11755" cx="3.5" cy="3.5" r="3.5" transform="translate(7744 -8732)" fill="#c00"/>
      <circle id="Elipse_11751" data-name="Elipse 11751" cx="3.5" cy="3.5" r="3.5" transform="translate(7744 -8806)" fill="#c00"/>
      <circle id="Elipse_11783" data-name="Elipse 11783" cx="3.5" cy="3.5" r="3.5" transform="translate(7744 -8854)" fill="#c00"/>
      <circle id="Elipse_11785" data-name="Elipse 11785" cx="3.5" cy="3.5" r="3.5" transform="translate(7744 -8682)" fill="#c00"/>
      <circle id="Elipse_11754" data-name="Elipse 11754" cx="3.5" cy="3.5" r="3.5" transform="translate(7744 -8744)" fill="#0800ff"/>
      <circle id="Elipse_11749" data-name="Elipse 11749" cx="3.5" cy="3.5" r="3.5" transform="translate(7756 -8794)" fill="#0800ff"/>
      <circle id="Elipse_11762" data-name="Elipse 11762" cx="3.5" cy="3.5" r="3.5" transform="translate(7711 -8790)" fill="#c00"/>
      <circle id="Elipse_11768" data-name="Elipse 11768" cx="3.5" cy="3.5" r="3.5" transform="translate(7802 -8790)" fill="#c00"/>
      <circle id="Elipse_11764" data-name="Elipse 11764" cx="3.5" cy="3.5" r="3.5" transform="translate(7711 -8745)" fill="#c00"/>
      <circle id="Elipse_11766" data-name="Elipse 11766" cx="3.5" cy="3.5" r="3.5" transform="translate(7802 -8745)" fill="#c00"/>
      <circle id="Elipse_11757" data-name="Elipse 11757" cx="3.5" cy="3.5" r="3.5" transform="translate(7730 -8760)" fill="#c00"/>
      <circle id="Elipse_11786" data-name="Elipse 11786" cx="3.5" cy="3.5" r="3.5" transform="translate(7729 -8700)" fill="#c00"/>
      <circle id="Elipse_11793" data-name="Elipse 11793" cx="3.5" cy="3.5" r="3.5" transform="translate(7729 -8824)" fill="#c00"/>
      <circle id="Elipse_11788" data-name="Elipse 11788" cx="3.5" cy="3.5" r="3.5" transform="translate(7769 -8700)" fill="#c00"/>
      <circle id="Elipse_11790" data-name="Elipse 11790" cx="3.5" cy="3.5" r="3.5" transform="translate(7769 -8824)" fill="#c00"/>
      <circle id="Elipse_11779" data-name="Elipse 11779" cx="3.5" cy="3.5" r="3.5" transform="translate(7682 -8760)" fill="#c00"/>
      <circle id="Elipse_11781" data-name="Elipse 11781" cx="3.5" cy="3.5" r="3.5" transform="translate(7817 -8760)" fill="#c00"/>
      <circle id="Elipse_11759" data-name="Elipse 11759" cx="3.5" cy="3.5" r="3.5" transform="translate(7769 -8760)" fill="#c00"/>
      <circle id="Elipse_11752" data-name="Elipse 11752" cx="3.5" cy="3.5" r="3.5" transform="translate(7756 -8732)" fill="#c00"/>
      <circle id="Elipse_11750" data-name="Elipse 11750" cx="3.5" cy="3.5" r="3.5" transform="translate(7756 -8806)" fill="#c00"/>
      <circle id="Elipse_11782" data-name="Elipse 11782" cx="3.5" cy="3.5" r="3.5" transform="translate(7756 -8854)" fill="#c00"/>
      <circle id="Elipse_11784" data-name="Elipse 11784" cx="3.5" cy="3.5" r="3.5" transform="translate(7756 -8682)" fill="#c00"/>
      <circle id="Elipse_11756" data-name="Elipse 11756" cx="3.5" cy="3.5" r="3.5" transform="translate(7730 -8772)" fill="#0800ff"/>
      <circle id="Elipse_11787" data-name="Elipse 11787" cx="3.5" cy="3.5" r="3.5" transform="translate(7729 -8712)" fill="#c00"/>
      <circle id="Elipse_11792" data-name="Elipse 11792" cx="3.5" cy="3.5" r="3.5" transform="translate(7729 -8836)" fill="#c00"/>
      <circle id="Elipse_11789" data-name="Elipse 11789" cx="3.5" cy="3.5" r="3.5" transform="translate(7769 -8712)" fill="#c00"/>
      <circle id="Elipse_11791" data-name="Elipse 11791" cx="3.5" cy="3.5" r="3.5" transform="translate(7769 -8836)" fill="#c00"/>
      <circle id="Elipse_11778" data-name="Elipse 11778" cx="3.5" cy="3.5" r="3.5" transform="translate(7682 -8772)" fill="#0ac675"/>
      <circle id="Elipse_11780" data-name="Elipse 11780" cx="3.5" cy="3.5" r="3.5" transform="translate(7817 -8772)" fill="#0ac675"/>
      <circle id="Elipse_11758" data-name="Elipse 11758" cx="3.5" cy="3.5" r="3.5" transform="translate(7769 -8772)" fill="#0800ff"/>
      <circle id="Elipse_11753" data-name="Elipse 11753" cx="3.5" cy="3.5" r="3.5" transform="translate(7756 -8744)" fill="#0800ff"/>
    </g>
  </g>
</svg>
