<svg xmlns="http://www.w3.org/2000/svg" width="184" height="149.728" viewBox="0 0 184 149.728">
  <g id="Grupo_1107962" data-name="Grupo 1107962" transform="translate(-1230.051 -4008.272)">
    <rect id="Rectángulo_405642" data-name="Rectángulo 405642" width="184" height="123" transform="translate(1230.051 4035)" fill="#0ac675"/>
    <g id="estado-de-agregacion-de-la-materia" transform="translate(1248.051 4008.273)">
      <path id="Trazado_893261" data-name="Trazado 893261" d="M200.793,25.211h-2.529a.606.606,0,0,1-.6-.613v-.007a16.92,16.92,0,0,0-33.841,0V24.6a.605.605,0,0,1-.6.613h-2.344a12.1,12.1,0,0,0-12.14,12.14,11.908,11.908,0,0,0,11.905,11.676h40.39a11.909,11.909,0,0,0,11.906-11.676,12.1,12.1,0,0,0-12.141-12.14Zm0,0" transform="translate(-105.724 -5.454)" fill="#f2f2f2"/>
      <path id="Trazado_893262" data-name="Trazado 893262" d="M262.5,25.211h-2.519a.613.613,0,0,1-.613-.613v-.006A16.918,16.918,0,0,0,235.543,9.147a16.92,16.92,0,0,1,10.012,15.445.622.622,0,0,0,.62.62h2.512a12.1,12.1,0,0,1,12.141,12.14,11.908,11.908,0,0,1-11.906,11.675h13.815a11.908,11.908,0,0,0,11.906-11.675A12.1,12.1,0,0,0,262.5,25.211Zm0,0" transform="translate(-167.433 -5.454)" fill="#e2e5e8"/>
      <path id="Trazado_893263" data-name="Trazado 893263" d="M418.975,357.58a17.36,17.36,0,0,1-34.721,0c0-8.129,12.48-21.85,16.278-25.837a1.494,1.494,0,0,1,2.166,0C406.494,335.73,418.975,349.451,418.975,357.58Zm0,0" transform="translate(-273.142 -235.486)" fill="#00a5ff"/>
      <path id="Trazado_893264" data-name="Trazado 893264" d="M434.14,331.744a1.494,1.494,0,0,0-2.166,0c-.825.866-2.059,2.191-3.486,3.819,5.144,5.865,12.791,15.654,12.791,22.018a17.366,17.366,0,0,1-12.791,16.749,17.36,17.36,0,0,0,21.93-16.749c0-8.129-12.48-21.85-16.278-25.837Zm0,0" transform="translate(-304.586 -235.486)" fill="#0c90ea"/>
      <path id="Trazado_893265" data-name="Trazado 893265" d="M384.48,334.125a10.115,10.115,0,0,1-20.23,0c0-4.736,7.271-12.731,9.484-15.054a.873.873,0,0,1,1.263,0C377.208,321.394,384.48,329.388,384.48,334.125Zm0,0" transform="translate(-258.923 -226.616)" fill="#00a5ff"/>
      <path id="Trazado_893266" data-name="Trazado 893266" d="M392.119,319.07a.871.871,0,0,0-1.262,0c-.573.6-1.483,1.582-2.518,2.787,2.968,3.454,6.965,8.756,6.965,12.268a10.116,10.116,0,0,1-6.965,9.612,10.115,10.115,0,0,0,13.264-9.612C401.6,329.388,394.332,321.393,392.119,319.07Zm0,0" transform="translate(-276.047 -226.615)" fill="#0c90ea"/>
      <path id="Trazado_893267" data-name="Trazado 893267" d="M43.979,343.961c-.159,3.532-1.014,3.934-1.014,8.2,0,4.707.378,4.707.378,9.416s-.715,4.709-.715,9.416c0,1.361-.276,1.982-1.637,1.982-5.049,0-5.049-.036-10.1-.036a42.889,42.889,0,0,0-5.5.317,40.226,40.226,0,0,1-4.6.221c-5.049,0-5.049.415-10.1.415a3.122,3.122,0,0,1-2.743-2.9c0-4.707.417-4.707.417-9.416s-.024-4.706-.024-9.416.287-4.706.287-9.416-.965-4.709-.965-9.415a3.4,3.4,0,0,1,3.027-2.891c5.049,0,5.049.5,10.1.5s5.047-.786,10.1-.786,5.049,1.106,10.1,1.106a1.9,1.9,0,0,1,2.145,2.068c0,4.706.87,4.706.87,9.415q0,.666-.027,1.217Zm0,0" transform="translate(-5.453 -234.688)" fill="#c9e8fa"/>
      <path id="Trazado_893268" data-name="Trazado 893268" d="M111.43,418.739c-5.333,0-5.333-.02-10.666-.02s-5.334.308-10.666.308a1.8,1.8,0,0,1-1.8-1.566c0-5.334.088-5.334.088-10.667s.241-5.334.241-10.666a1.434,1.434,0,0,1,1.475-1.489c5.334,0,5.334.164,10.666.164s5.334-.553,10.666-.553a2.086,2.086,0,0,1,1.8,1.878c0,5.334-.289,5.334-.289,10.666s.453,5.334.453,10.667C113.393,418.32,112.288,418.739,111.43,418.739Zm0,0" transform="translate(-62.762 -280.248)" fill="#c9e8fa"/>
      <path id="Trazado_893269" data-name="Trazado 893269" d="M86.533,385.564c0,4.707.378,4.707.378,9.416,0,4.747-.727,4.709-.715,9.53a1.86,1.86,0,0,1-1.857,1.868c-4.83,0-4.9-.036-9.876-.036a42.889,42.889,0,0,0-5.5.317c.033-4.485.119-5.615.119-11.952,0-6.522.25-7.527.326-12.349a5.294,5.294,0,0,1,5.349-5.211c4.718.053,5.762.219,12.229.219.192,0,.378,0,.563,0-.16,3.532-1.015,3.934-1.015,8.2Zm0,0" transform="translate(-49.021 -268.091)" fill="#a4e0f7"/>
      <path id="Trazado_893270" data-name="Trazado 893270" d="M111.43,418.739c-5.333,0-5.333-.02-10.666-.02s-5.334.308-10.666.308a1.8,1.8,0,0,1-1.8-1.566c0-5.334.088-5.334.088-10.667s.241-5.334.241-10.666a1.434,1.434,0,0,1,1.475-1.489c5.334,0,5.334.164,10.666.164s5.334-.553,10.666-.553a2.086,2.086,0,0,1,1.8,1.878c0,5.334-.289,5.334-.289,10.666s.453,5.334.453,10.667C113.393,418.32,112.288,418.739,111.43,418.739Zm0,0" transform="translate(-62.762 -280.248)" fill="#c9e8fa"/>
      <g id="Grupo_1107961" data-name="Grupo 1107961" transform="translate(5.003 99.54)">
        <path id="Trazado_893271" data-name="Trazado 893271" d="M93.177,345.52a1.282,1.282,0,1,1-1.282-1.282A1.282,1.282,0,0,1,93.177,345.52Zm0,0" transform="translate(-69.414 -344.238)" fill="#a4e0f7"/>
        <path id="Trazado_893272" data-name="Trazado 893272" d="M27.764,396.853a1.481,1.481,0,1,1-1.481-1.482A1.481,1.481,0,0,1,27.764,396.853Zm0,0" transform="translate(-22.632 -380.585)" fill="#a4e0f7"/>
        <path id="Trazado_893273" data-name="Trazado 893273" d="M110.261,407.781a.957.957,0,1,1-.957-.957A.957.957,0,0,1,110.261,407.781Zm0,0" transform="translate(-82.021 -388.727)" fill="#a4e0f7"/>
        <path id="Trazado_893274" data-name="Trazado 893274" d="M109.192,458.3a1.7,1.7,0,1,1-1.7-1.7A1.7,1.7,0,0,1,109.192,458.3Zm0,0" transform="translate(-80.202 -424.107)" fill="#a4e0f7"/>
        <path id="Trazado_893275" data-name="Trazado 893275" d="M158.292,411.576a1.443,1.443,0,1,1-1.444-1.444A1.443,1.443,0,0,1,158.292,411.576Zm0,0" transform="translate(-115.472 -391.079)" fill="#a4e0f7"/>
        <path id="Trazado_893276" data-name="Trazado 893276" d="M42.612,359.027a.636.636,0,1,1-.636-.636A.636.636,0,0,1,42.612,359.027Zm0,0" transform="translate(-34.389 -354.298)" fill="#a4e0f7"/>
        <path id="Trazado_893277" data-name="Trazado 893277" d="M19.47,461.262a1.084,1.084,0,1,1-1.084-1.086A1.085,1.085,0,0,1,19.47,461.262Zm0,0" transform="translate(-17.301 -426.651)" fill="#a4e0f7"/>
      </g>
      <path id="Trazado_893278" data-name="Trazado 893278" d="M161.325,43.574a2.218,2.218,0,0,0-2.218-2.218h-3.925a9.737,9.737,0,0,1-9.688-9.5,9.49,9.49,0,0,1,2.771-6.863,10.087,10.087,0,0,1,7.152-3.016h2.344a2.826,2.826,0,0,0,2.822-2.839,14.7,14.7,0,1,1,29.4,0,2.825,2.825,0,0,0,2.823,2.834h2.529a10.087,10.087,0,0,1,7.152,3.016,9.484,9.484,0,0,1,2.77,6.863,9.735,9.735,0,0,1-9.687,9.5H169.016a2.218,2.218,0,0,0,0,4.437h26.555a14.2,14.2,0,0,0,14.124-13.851,13.889,13.889,0,0,0-4.039-10.055,14.552,14.552,0,0,0-10.319-4.346h-.98a19.139,19.139,0,0,0-38.144,0h-.8A14.554,14.554,0,0,0,145.1,21.885a13.9,13.9,0,0,0-4.039,10.055,14.2,14.2,0,0,0,14.125,13.851h3.925a2.218,2.218,0,0,0,2.218-2.218Zm0,0" transform="translate(-100.266)"/>
      <path id="Trazado_893279" data-name="Trazado 893279" d="M384.63,315.887a3.728,3.728,0,0,0-2.684-1.152h0a3.737,3.737,0,0,0-2.688,1.15c-.536.563-1.437,1.521-2.545,2.756a69.654,69.654,0,0,0-5.56-6.556,3.089,3.089,0,0,0-4.475,0c-3.77,3.96-10.1,11.379-10.1,16.585a12.333,12.333,0,0,0,24.667,0,13.448,13.448,0,0,0-2.023-6.176c1.1-1.249,2.05-2.281,2.719-2.992,11.152,11.829,15.143,20.011,15.143,23.753a15.145,15.145,0,0,1-29.6,4.5,2.218,2.218,0,1,0-4.237,1.317,19.582,19.582,0,0,0,38.278-5.822c0-8.7-11.812-22.035-16.89-27.366Zm-15.719,20.678a7.905,7.905,0,0,1-7.9-7.9c0-2.36,3.133-7.282,7.9-12.48,4.763,5.2,7.9,10.121,7.9,12.48A7.9,7.9,0,0,1,368.912,336.566Zm0,0" transform="translate(-253.47 -221.16)"/>
      <path id="Trazado_893280" data-name="Trazado 893280" d="M52.4,355.781c0-2.606.069-3.872.141-5.213s.148-2.727.148-5.453a4.275,4.275,0,0,0-4.018-4.1,46.29,46.29,0,0,0-5.562.289c-.818.085-1.608.166-2.7.216a21.062,21.062,0,0,0,.37-4.231,24.533,24.533,0,0,0-.472-5.112,20.262,20.262,0,0,1-.4-4.3,4.1,4.1,0,0,0-4.363-4.287,18.037,18.037,0,0,1-4.575-.5,22.519,22.519,0,0,0-5.525-.6,30.282,30.282,0,0,0-5.391.419,26.016,26.016,0,0,1-4.7.367,41.376,41.376,0,0,1-4.83-.241,45.873,45.873,0,0,0-5.269-.262A5.607,5.607,0,0,0,0,327.877a22.37,22.37,0,0,0,.527,5.151,17.948,17.948,0,0,1,.437,4.264c0,2.287-.068,3.4-.14,4.576s-.147,2.421-.147,4.84c0,2.361.006,3.541.011,4.721S.7,353.776.7,356.123a43.55,43.55,0,0,1-.2,4.514,47.636,47.636,0,0,0-.218,4.9,5.311,5.311,0,0,0,4.962,5.118c2.615,0,3.944-.11,5.23-.215,1.253-.1,2.435-.2,4.868-.2a43.107,43.107,0,0,0,5.285-.281,38.221,38.221,0,0,1,4.727-.256,4.058,4.058,0,0,0,1.978.527c2.731,0,4.119-.08,5.461-.157s2.6-.15,5.206-.15c2.662,0,3.994,0,5.325.009s2.671.01,5.342.01c2.384,0,4.182-1.5,4.182-3.5,0-2.761-.119-4.163-.234-5.521-.113-1.323-.219-2.573-.219-5.146ZM43.342,365.5c-1.335,0-2.67-.01-5.342-.01-2.73,0-4.119.08-5.461.158-1.265.073-2.465.142-4.79.149,0-.943,0-1.264,0-1.392v-.047c0-.062.006-.216.016-.882a2.22,2.22,0,0,0-2.187-2.25h-.033a2.219,2.219,0,0,0-2.217,2.188c-.009.617-.012.759-.015.816s0,.066,0,.2c0,.1,0,.323,0,.877-1.344.051-2.259.149-3.153.244a38.653,38.653,0,0,1-4.814.256c-2.616,0-3.945.11-5.232.215-1.244.1-2.419.2-4.823.2a1.188,1.188,0,0,1-.568-.68,43.533,43.533,0,0,1,.2-4.511,47.737,47.737,0,0,0,.217-4.9c0-2.358-.006-3.538-.011-4.718s-.012-2.348-.012-4.7c0-2.285.068-3.4.14-4.571s.147-2.422.147-4.845a22.409,22.409,0,0,0-.527-5.155,17.845,17.845,0,0,1-.436-4.2,1.581,1.581,0,0,1,.832-.731,41.01,41.01,0,0,1,4.8.241,45.882,45.882,0,0,0,5.269.262,30.1,30.1,0,0,0,5.388-.42,26.05,26.05,0,0,1,4.708-.367,17.977,17.977,0,0,1,4.576.5,22.542,22.542,0,0,0,5.45.6,24.4,24.4,0,0,0,.471,4.958,20.136,20.136,0,0,1,.4,4.307,16.462,16.462,0,0,1-.469,4.227c0,.014-.007.028-.009.042-1.308-.015-2.2-.042-3.121-.07-1.328-.041-2.7-.082-5.4-.082a3.66,3.66,0,0,0-3.692,3.707c0,2.616-.058,3.887-.119,5.232-.035.778-.071,1.584-.095,2.652a2.218,2.218,0,0,0,2.169,2.267h.051a2.218,2.218,0,0,0,2.216-2.17c.023-1.019.056-1.762.093-2.551.054-1.21.111-2.457.121-4.7,2.144.007,3.3.042,4.523.079,1.327.042,2.7.084,5.4.084a46.311,46.311,0,0,0,5.563-.289,41.565,41.565,0,0,1,4.684-.263c-.007,2.378-.072,3.591-.141,4.872-.072,1.341-.148,2.727-.148,5.453,0,2.761.12,4.163.234,5.521.1,1.151.191,2.247.213,4.205-2.489,0-3.777-.006-5.064-.011Zm0,0" transform="translate(0 -229.235)"/>
      <path id="Trazado_893281" data-name="Trazado 893281" d="M349.673,200.408l-1.693-.368a2.219,2.219,0,0,0-.943,4.336l6.61,1.437a2.246,2.246,0,0,0,.813.154,2.2,2.2,0,0,0,1.074-.286c.02-.01.041-.02.06-.032s.043-.021.063-.035c.059-.037.114-.078.168-.12a2.117,2.117,0,0,0,.178-.156.038.038,0,0,0,.007-.007,2.2,2.2,0,0,0,.65-1.134l1.5-6.892a2.219,2.219,0,0,0-4.336-.943l-.373,1.715L342.021,180.3l1.137.246a2.218,2.218,0,0,0,.942-4.335l-5.737-1.247a2.743,2.743,0,0,0-3.887,1.424l-1.5,6.892a2.219,2.219,0,0,0,1.7,2.64,2.263,2.263,0,0,0,.473.051,2.218,2.218,0,0,0,2.165-1.747l.495-2.271Zm0,0" transform="translate(-236.658 -124.112)"/>
      <path id="Trazado_893282" data-name="Trazado 893282" d="M79.5,216.167a2.219,2.219,0,0,0,2.165,1.747c.023,0,.045,0,.068,0a2.15,2.15,0,0,0,1.648-.317l5.743-1.248a2.219,2.219,0,0,0-.943-4.336l-1.137.247,11.429-17.778.373,1.715a2.219,2.219,0,0,0,4.336-.942l-1.5-6.892a2.223,2.223,0,0,0-.968-1.395l-.019-.011-.016-.011a2.214,2.214,0,0,0-2-.2l-6.618,1.439A2.218,2.218,0,1,0,93,192.515l1.693-.368L82.833,210.6l-.494-2.273a2.219,2.219,0,0,0-4.336.943Zm0,0" transform="translate(-55.412 -132.636)"/>
      <path id="Trazado_893283" data-name="Trazado 893283" d="M236.145,382.4a2.218,2.218,0,0,0-3.128,3.147l1.15,1.144-22.256.062,1.222-1.229a2.219,2.219,0,1,0-3.147-3.129l-4.775,4.8a2.209,2.209,0,0,0-.91,1.794c0,.008,0,.015,0,.023a2.211,2.211,0,0,0,.654,1.587l5,4.973a2.219,2.219,0,0,0,3.129-3.147l-1.245-1.238,22.444-.062-1.315,1.323a2.218,2.218,0,1,0,3.146,3.129l5.04-5.068a2.218,2.218,0,0,0-.009-3.137Zm0,0" transform="translate(-145.225 -271.357)"/>
    </g>
  </g>
</svg>
