<svg xmlns="http://www.w3.org/2000/svg" width="485" height="204" viewBox="0 0 485 204">
  <g id="Grupo_1108960" data-name="Grupo 1108960" transform="translate(-5357 5569)">
    <rect id="Rectángulo_406094" data-name="Rectángulo 406094" width="485" height="204" rx="5" transform="translate(5357 -5569)" fill="#fff"/>
    <path id="Trazado_899993" data-name="Trazado 899993" d="M-9.331-11.484A8.947,8.947,0,0,0-7.793-6.768Q-5.469-3.794.273-3.794A11.9,11.9,0,0,0,6.289-5.281a4.937,4.937,0,0,0,2.6-4.6A3.931,3.931,0,0,0,6.8-13.467,24.789,24.789,0,0,0,1.538-15.21L-3.35-16.44a23.843,23.843,0,0,1-6.9-2.6,7.764,7.764,0,0,1-3.965-6.9,10.549,10.549,0,0,1,3.743-8.408Q-6.733-37.563-.41-37.563q8.271,0,11.929,4.854a10.533,10.533,0,0,1,2.222,6.631H7.93a7.118,7.118,0,0,0-1.47-3.794Q4.341-32.3-.889-32.3a8.784,8.784,0,0,0-5.281,1.333,4.178,4.178,0,0,0-1.794,3.521,4.333,4.333,0,0,0,2.358,3.828,14.172,14.172,0,0,0,4.033,1.5l4.067.991q6.631,1.606,8.887,3.11,3.589,2.358,3.589,7.417a11.3,11.3,0,0,1-3.708,8.442Q7.554,1.4-.034,1.4-8.2,1.4-11.6-2.307a14.025,14.025,0,0,1-3.64-9.177Z" transform="translate(5601 -5450)" fill="#12263f"/>
    <path id="Trazado_899994" data-name="Trazado 899994" d="M-.427-3.965q6.118,0,8.391-4.631A23.073,23.073,0,0,0,10.237-18.9,18.348,18.348,0,0,0,8.6-27.241Q6-32.3-.359-32.3q-5.64,0-8.2,4.307A19.962,19.962,0,0,0-11.125-17.6,17.364,17.364,0,0,0-8.562-7.861Q-6-3.965-.427-3.965Zm.239-33.7a16.576,16.576,0,0,1,11.963,4.717q4.888,4.717,4.888,13.877,0,8.853-4.307,14.629T-1.008,1.333q-7.554,0-12-5.11T-17.449-17.5q0-9.229,4.683-14.7T-.188-37.666Z" transform="translate(5601 -5511)" fill="#12263f"/>
    <path id="Trazado_899995" data-name="Trazado 899995" d="M-.427-3.965q6.118,0,8.391-4.631A23.073,23.073,0,0,0,10.237-18.9,18.348,18.348,0,0,0,8.6-27.241Q6-32.3-.359-32.3q-5.64,0-8.2,4.307A19.962,19.962,0,0,0-11.125-17.6,17.364,17.364,0,0,0-8.562-7.861Q-6-3.965-.427-3.965Zm.239-33.7a16.576,16.576,0,0,1,11.963,4.717q4.888,4.717,4.888,13.877,0,8.853-4.307,14.629T-1.008,1.333q-7.554,0-12-5.11T-17.449-17.5q0-9.229,4.683-14.7T-.188-37.666Z" transform="translate(5657 -5452)" fill="#12263f"/>
    <path id="Trazado_899996" data-name="Trazado 899996" d="M-19.773-50.21h6.87v20.747H13.21V-50.21h6.87V0H13.21V-23.481H-12.9V0h-6.87Z" transform="translate(5726 -5448)" fill="#12263f"/>
    <path id="Trazado_899997" data-name="Trazado 899997" d="M-19.773-50.21h6.87v20.747H13.21V-50.21h6.87V0H13.21V-23.481H-12.9V0h-6.87Z" transform="translate(5474 -5446)" fill="#12263f"/>
    <path id="Trazado_899998" data-name="Trazado 899998" d="M-.427-3.965q6.118,0,8.391-4.631A23.073,23.073,0,0,0,10.237-18.9,18.348,18.348,0,0,0,8.6-27.241Q6-32.3-.359-32.3q-5.64,0-8.2,4.307A19.962,19.962,0,0,0-11.125-17.6,17.364,17.364,0,0,0-8.562-7.861Q-6-3.965-.427-3.965Zm.239-33.7a16.576,16.576,0,0,1,11.963,4.717q4.888,4.717,4.888,13.877,0,8.853-4.307,14.629T-1.008,1.333q-7.554,0-12-5.11T-17.449-17.5q0-9.229,4.683-14.7T-.188-37.666Z" transform="translate(5543 -5451)" fill="#12263f"/>
    <path id="Trazado_899999" data-name="Trazado 899999" d="M-.427-3.965q6.118,0,8.391-4.631A23.073,23.073,0,0,0,10.237-18.9,18.348,18.348,0,0,0,8.6-27.241Q6-32.3-.359-32.3q-5.64,0-8.2,4.307A19.962,19.962,0,0,0-11.125-17.6,17.364,17.364,0,0,0-8.562-7.861Q-6-3.965-.427-3.965Zm.239-33.7a16.576,16.576,0,0,1,11.963,4.717q4.888,4.717,4.888,13.877,0,8.853-4.307,14.629T-1.008,1.333q-7.554,0-12-5.11T-17.449-17.5q0-9.229,4.683-14.7T-.188-37.666Z" transform="translate(5601 -5387)" fill="#12263f"/>
    <path id="Trazado_900000" data-name="Trazado 900000" d="M3.5,0A3.5,3.5,0,1,1,0,3.5,3.5,3.5,0,0,1,3.5,0Z" transform="translate(5534 -5492)" fill="#c00"/>
    <path id="Trazado_900001" data-name="Trazado 900001" d="M3.5,0A3.5,3.5,0,1,1,0,3.5,3.5,3.5,0,0,1,3.5,0Z" transform="translate(5648 -5493)" fill="#c00"/>
    <path id="Trazado_900002" data-name="Trazado 900002" d="M3.5,0A3.5,3.5,0,1,1,0,3.5,3.5,3.5,0,0,1,3.5,0Z" transform="translate(5534 -5447)" fill="#c00"/>
    <path id="Trazado_900003" data-name="Trazado 900003" d="M3.5,0A3.5,3.5,0,1,1,0,3.5,3.5,3.5,0,0,1,3.5,0Z" transform="translate(5648 -5448)" fill="#c00"/>
    <path id="Trazado_900004" data-name="Trazado 900004" d="M3.5,0A3.5,3.5,0,1,1,0,3.5,3.5,3.5,0,0,1,3.5,0Z" transform="translate(5546 -5492)" fill="#c00"/>
    <path id="Trazado_900005" data-name="Trazado 900005" d="M3.5,0A3.5,3.5,0,1,1,0,3.5,3.5,3.5,0,0,1,3.5,0Z" transform="translate(5660 -5493)" fill="#c00"/>
    <path id="Trazado_900006" data-name="Trazado 900006" d="M3.5,0A3.5,3.5,0,1,1,0,3.5,3.5,3.5,0,0,1,3.5,0Z" transform="translate(5546 -5447)" fill="#c00"/>
    <path id="Trazado_900007" data-name="Trazado 900007" d="M3.5,0A3.5,3.5,0,1,1,0,3.5,3.5,3.5,0,0,1,3.5,0Z" transform="translate(5660 -5448)" fill="#c00"/>
    <path id="Trazado_900008" data-name="Trazado 900008" d="M3.5,0A3.5,3.5,0,1,1,0,3.5,3.5,3.5,0,0,1,3.5,0Z" transform="translate(5577 -5399)" fill="#c00"/>
    <path id="Trazado_900009" data-name="Trazado 900009" d="M3.5,0A3.5,3.5,0,1,1,0,3.5,3.5,3.5,0,0,1,3.5,0Z" transform="translate(5577 -5523)" fill="#c00"/>
    <path id="Trazado_900010" data-name="Trazado 900010" d="M3.5,0A3.5,3.5,0,1,1,0,3.5,3.5,3.5,0,0,1,3.5,0Z" transform="translate(5617 -5399)" fill="#c00"/>
    <path id="Trazado_900011" data-name="Trazado 900011" d="M3.5,0A3.5,3.5,0,1,1,0,3.5,3.5,3.5,0,0,1,3.5,0Z" transform="translate(5617 -5523)" fill="#c00"/>
    <path id="Trazado_900012" data-name="Trazado 900012" d="M3.5,0A3.5,3.5,0,1,1,0,3.5,3.5,3.5,0,0,1,3.5,0Z" transform="translate(5577 -5411)" fill="#c00"/>
    <path id="Trazado_900013" data-name="Trazado 900013" d="M3.5,0A3.5,3.5,0,1,1,0,3.5,3.5,3.5,0,0,1,3.5,0Z" transform="translate(5577 -5535)" fill="#c00"/>
    <path id="Trazado_900014" data-name="Trazado 900014" d="M3.5,0A3.5,3.5,0,1,1,0,3.5,3.5,3.5,0,0,1,3.5,0Z" transform="translate(5617 -5411)" fill="#c00"/>
    <path id="Trazado_900015" data-name="Trazado 900015" d="M3.5,0A3.5,3.5,0,1,1,0,3.5,3.5,3.5,0,0,1,3.5,0Z" transform="translate(5617 -5535)" fill="#c00"/>
    <path id="Trazado_900016" data-name="Trazado 900016" d="M0,0V20" transform="translate(5595.5 -5505.5)" fill="none" stroke="#12263f" stroke-linecap="round" stroke-width="3"/>
    <path id="Trazado_900017" data-name="Trazado 900017" d="M0,0V20" transform="translate(5595.5 -5444)" fill="none" stroke="#12263f" stroke-linecap="round" stroke-width="3"/>
    <path id="Trazado_900018" data-name="Trazado 900018" d="M0,0V20" transform="translate(5607.5 -5505.5)" fill="none" stroke="#12263f" stroke-linecap="round" stroke-width="3"/>
    <path id="Trazado_900019" data-name="Trazado 900019" d="M19,0H0" transform="translate(5617 -5468.5)" fill="none" stroke="#12263f" stroke-linecap="round" stroke-width="3"/>
    <path id="Trazado_900020" data-name="Trazado 900020" d="M19,0H0" transform="translate(5564 -5468.5)" fill="none" stroke="#12263f" stroke-linecap="round" stroke-width="3"/>
    <path id="Trazado_900021" data-name="Trazado 900021" d="M19,0H0" transform="translate(5501 -5468.5)" fill="none" stroke="#12263f" stroke-linecap="round" stroke-width="3"/>
    <path id="Trazado_900022" data-name="Trazado 900022" d="M19,0H0" transform="translate(5680 -5468.5)" fill="none" stroke="#12263f" stroke-linecap="round" stroke-width="3"/>
    <path id="Trazado_900023" data-name="Trazado 900023" d="M0,0V20" transform="translate(5607.5 -5444)" fill="none" stroke="#12263f" stroke-linecap="round" stroke-width="3"/>
  </g>
</svg>
