<svg xmlns="http://www.w3.org/2000/svg" xmlns:xlink="http://www.w3.org/1999/xlink" width="505" height="375" viewBox="0 0 505 375">
  <defs>
    <clipPath id="clip-path">
      <rect id="Rectángulo_405118" data-name="Rectángulo 405118" width="453" height="284.332" fill="#9ae59a"/>
    </clipPath>
    <clipPath id="clip-path-2">
      <rect id="Rectángulo_405117" data-name="Rectángulo 405117" width="389.37" height="344" fill="none"/>
    </clipPath>
    <clipPath id="clip-path-4">
      <rect id="Rectángulo_405104" data-name="Rectángulo 405104" width="21.098" height="211.803" fill="none"/>
    </clipPath>
    <clipPath id="clip-path-6">
      <rect id="Rectángulo_405107" data-name="Rectángulo 405107" width="57.568" height="29.345" fill="none"/>
    </clipPath>
    <clipPath id="clip-path-7">
      <rect id="Rectángulo_405108" data-name="Rectángulo 405108" width="72.978" height="37.792" fill="none"/>
    </clipPath>
    <clipPath id="clip-path-8">
      <rect id="Rectángulo_405109" data-name="Rectángulo 405109" width="60.236" height="21.638" fill="none"/>
    </clipPath>
    <clipPath id="clip-path-10">
      <rect id="Rectángulo_405111" data-name="Rectángulo 405111" width="2.369" height="2.362" fill="none"/>
    </clipPath>
    <clipPath id="clip-path-12">
      <rect id="Rectángulo_405113" data-name="Rectángulo 405113" width="35.608" height="3.16" fill="none"/>
    </clipPath>
    <clipPath id="clip-path-13">
      <rect id="Rectángulo_405114" data-name="Rectángulo 405114" width="34.618" height="11.412" fill="none"/>
    </clipPath>
    <clipPath id="clip-path-14">
      <rect id="Rectángulo_405115" data-name="Rectángulo 405115" width="15.743" height="33.812" fill="none"/>
    </clipPath>
  </defs>
  <g id="Grupo_1106886" data-name="Grupo 1106886" transform="translate(-180.051 -2845)">
    <rect id="man-studio-creates-leather-ware-2" width="505" height="375" rx="20" transform="translate(180.051 2845)" fill="#0ac675"/>
    <g id="Grupo_1106885" data-name="Grupo 1106885" transform="translate(214.568 2923.977)">
      <g id="Grupo_1106884" data-name="Grupo 1106884" clip-path="url(#clip-path)">
        <path id="Trazado_890964" data-name="Trazado 890964" d="M446.433,176.339a181.1,181.1,0,0,0-48-78.406C367.242,68.14,310.116,19.262,257.493,4.5,180.079-17.215,112.412,44.831,84.887,80.2S6.9,154.654,1.739,188.78s.573,83.143,25.231,95.551h388.22s56.685-24.095,31.244-107.992" transform="translate(0 0)" fill="#9ae59a"/>
      </g>
    </g>
    <g id="Grupo_1106883" data-name="Grupo 1106883" transform="translate(253.129 2864.309)">
      <g id="Grupo_1106882" data-name="Grupo 1106882" clip-path="url(#clip-path-2)">
        <g id="Grupo_1106854" data-name="Grupo 1106854">
          <g id="Grupo_1106853" data-name="Grupo 1106853" clip-path="url(#clip-path-2)">
            <path id="Trazado_890766" data-name="Trazado 890766" d="M90.914,24.386H50.239A3.446,3.446,0,0,1,46.8,20.775l.825-17.233A3.448,3.448,0,0,1,51.065.26H91.739a3.448,3.448,0,0,1,3.443,3.612L94.358,21.1a3.447,3.447,0,0,1-3.443,3.282" transform="translate(-9.27 -0.052)" fill="#fafafa"/>
            <path id="Trazado_890767" data-name="Trazado 890767" d="M90.866,24.335a4.257,4.257,0,0,0,1.342-.319,3.431,3.431,0,0,0,2.027-3.122c.152-3.5.37-8.521.638-14.721-.013-1.524.5-3.3-.637-4.59A3.244,3.244,0,0,0,92.128.409C91.294.346,90.361.395,89.457.382L77.779.4,51.02.418a3.257,3.257,0,0,0-2.771,1.56A3.3,3.3,0,0,0,47.78,3.54q-.042.872-.083,1.738-.168,3.464-.33,6.82t-.321,6.582q-.04.806-.079,1.6a4.014,4.014,0,0,0,.1,1.511,3.264,3.264,0,0,0,1.908,2.111,3.561,3.561,0,0,0,1.429.239l1.512,0,2.965,0,5.669.01,10.175.026,14.734.067,4.005.039,1.042.02a2.237,2.237,0,0,1,.355.022,2.237,2.237,0,0,1-.355.022l-1.042.02-4.005.039-14.734.067-10.175.026-5.669.01-2.965,0-1.512,0a3.944,3.944,0,0,1-1.572-.262A3.647,3.647,0,0,1,46.7,21.9a4.394,4.394,0,0,1-.123-1.64q.037-.8.075-1.6.152-3.226.31-6.583t.323-6.82q.042-.865.083-1.738A3.659,3.659,0,0,1,51.02,0L77.779.016,89.457.035C90.38.054,91.249,0,92.172.077a3.572,3.572,0,0,1,2.315,1.3,3.624,3.624,0,0,1,.8,2.422q-.061,1.22-.119,2.386c-.325,6.2-.588,11.219-.771,14.715a3.543,3.543,0,0,1-.792,2.173,3.461,3.461,0,0,1-1.364,1.018,3.5,3.5,0,0,1-1.018.245c-.237.007-.357,0-.357,0" transform="translate(-9.222 0)" fill="#263238"/>
            <path id="Trazado_890768" data-name="Trazado 890768" d="M259.618,26.766l1.741-10.89,7.42-4.31,6.09,6.531-1.836,11.169Z" transform="translate(-51.434 -2.291)" fill="#ffd500"/>
            <path id="Trazado_890769" data-name="Trazado 890769" d="M262.163,41.357l-9,197.6L107.98,234.831l-8.638-15.088L114.956,36.1l135.112-8.943Z" transform="translate(-19.681 -5.379)" fill="#e0e0e0"/>
            <g id="Grupo_1106852" data-name="Grupo 1106852" transform="translate(221.384 21.774)" opacity="0.3">
              <g id="Grupo_1106851" data-name="Grupo 1106851">
                <g id="Grupo_1106850" data-name="Grupo 1106850" clip-path="url(#clip-path-4)">
                  <path id="Trazado_890770" data-name="Trazado 890770" d="M288.175,238.957l-12.1-14.2,9-197.6,12.1,14.2Z" transform="translate(-276.08 -27.154)"/>
                </g>
              </g>
            </g>
            <path id="Trazado_890771" data-name="Trazado 890771" d="M250.068,26.66l-9,197.6L99.341,219.249l10.72-194.587Z" transform="translate(-19.681 -4.886)" fill="#fafafa"/>
            <path id="Trazado_890772" data-name="Trazado 890772" d="M250.013,26.618,110,24.789l.172-.16c-2.985,54.377-6.682,121.733-10.681,194.589l-.2-.221,2.34.083,139.383,4.947-.2.181c5.43-116.694,9.114-195.9,9.193-197.591-.075,1.686-3.608,80.9-8.813,197.608l-.008.188-.188-.006L101.618,219.5l-2.339-.083-.213-.008.012-.213c4.029-72.854,7.753-140.209,10.76-194.585l.009-.163.162,0,140,2.167" transform="translate(-19.626 -4.844)" fill="#263238"/>
            <path id="Trazado_890773" data-name="Trazado 890773" d="M132.6,82.692l49.493,1.451a1.882,1.882,0,0,0,1.936-1.827l.055-1.855a1.882,1.882,0,0,0-1.826-1.937l-49.493-1.451a1.881,1.881,0,0,0-1.936,1.826l-.055,1.855a1.882,1.882,0,0,0,1.826,1.937" transform="translate(-25.908 -15.27)" fill="#e0e0e0"/>
            <path id="Trazado_890774" data-name="Trazado 890774" d="M132.006,96.238,181.5,97.689a1.883,1.883,0,0,0,1.937-1.827l.055-1.855a1.882,1.882,0,0,0-1.826-1.937L132.17,90.621a1.881,1.881,0,0,0-1.936,1.826L130.18,94.3a1.882,1.882,0,0,0,1.826,1.937" transform="translate(-25.79 -17.953)" fill="#e0e0e0"/>
            <path id="Trazado_890775" data-name="Trazado 890775" d="M131.411,109.784l49.493,1.451a1.882,1.882,0,0,0,1.936-1.827l.055-1.855a1.882,1.882,0,0,0-1.826-1.937l-49.492-1.451a1.882,1.882,0,0,0-1.937,1.826l-.055,1.855a1.882,1.882,0,0,0,1.826,1.937" transform="translate(-25.673 -20.637)" fill="#e0e0e0"/>
            <path id="Trazado_890776" data-name="Trazado 890776" d="M130.816,123.329l49.493,1.452a1.882,1.882,0,0,0,1.936-1.827l.055-1.855a1.882,1.882,0,0,0-1.826-1.937l-49.493-1.451a1.881,1.881,0,0,0-1.936,1.826l-.055,1.855a1.88,1.88,0,0,0,1.826,1.936" transform="translate(-25.555 -23.321)" fill="#e0e0e0"/>
            <path id="Trazado_890777" data-name="Trazado 890777" d="M130.221,136.875l49.493,1.451a1.882,1.882,0,0,0,1.936-1.827l.055-1.855a1.882,1.882,0,0,0-1.826-1.937l-49.493-1.451a1.881,1.881,0,0,0-1.936,1.826l-.055,1.855a1.882,1.882,0,0,0,1.826,1.937" transform="translate(-25.437 -26.004)" fill="#e0e0e0"/>
            <path id="Trazado_890778" data-name="Trazado 890778" d="M129.626,150.421l49.492,1.451a1.882,1.882,0,0,0,1.937-1.827l.055-1.855a1.882,1.882,0,0,0-1.826-1.937L129.79,144.8a1.881,1.881,0,0,0-1.936,1.826l-.055,1.855a1.882,1.882,0,0,0,1.826,1.937" transform="translate(-25.319 -28.688)" fill="#e0e0e0"/>
            <path id="Trazado_890779" data-name="Trazado 890779" d="M129.031,163.967l49.493,1.451a1.883,1.883,0,0,0,1.936-1.827l.055-1.855a1.882,1.882,0,0,0-1.826-1.937L129.2,158.35a1.882,1.882,0,0,0-1.937,1.826l-.055,1.855a1.882,1.882,0,0,0,1.826,1.937" transform="translate(-25.201 -31.371)" fill="#e0e0e0"/>
            <path id="Trazado_890780" data-name="Trazado 890780" d="M202.829,152.447l49.493,1.451a1.882,1.882,0,0,0,1.936-1.827l.055-1.855a1.882,1.882,0,0,0-1.826-1.937l-49.493-1.451a1.881,1.881,0,0,0-1.936,1.826L201,150.51a1.882,1.882,0,0,0,1.826,1.937" transform="translate(-39.822 -29.089)" fill="#e0e0e0"/>
            <path id="Trazado_890781" data-name="Trazado 890781" d="M202.234,165.993l49.492,1.451a1.882,1.882,0,0,0,1.937-1.827l.055-1.855a1.882,1.882,0,0,0-1.826-1.937L202.4,160.376a1.882,1.882,0,0,0-1.936,1.826l-.055,1.855a1.882,1.882,0,0,0,1.826,1.937" transform="translate(-39.704 -31.773)" fill="#e0e0e0"/>
            <path id="Trazado_890782" data-name="Trazado 890782" d="M201.516,180.277l49.493,1.451a1.881,1.881,0,0,0,1.936-1.826l.055-1.855a1.882,1.882,0,0,0-1.826-1.937L201.68,174.66a1.882,1.882,0,0,0-1.936,1.826l-.055,1.855a1.882,1.882,0,0,0,1.826,1.937" transform="translate(-39.561 -34.603)" fill="#e0e0e0"/>
            <path id="Trazado_890783" data-name="Trazado 890783" d="M200.8,194.562l49.493,1.451a1.881,1.881,0,0,0,1.936-1.826l.055-1.855a1.882,1.882,0,0,0-1.826-1.937l-49.493-1.451a1.882,1.882,0,0,0-1.936,1.826l-.055,1.855a1.882,1.882,0,0,0,1.826,1.937" transform="translate(-39.419 -37.433)" fill="#e0e0e0"/>
            <path id="Trazado_890784" data-name="Trazado 890784" d="M200.079,208.846l49.493,1.451a1.882,1.882,0,0,0,1.936-1.827l.055-1.855a1.882,1.882,0,0,0-1.826-1.937l-49.493-1.451a1.882,1.882,0,0,0-1.936,1.826l-.055,1.855a1.882,1.882,0,0,0,1.826,1.937" transform="translate(-39.277 -40.263)" fill="#e0e0e0"/>
            <path id="Trazado_890785" data-name="Trazado 890785" d="M199.361,223.13l49.493,1.451a1.881,1.881,0,0,0,1.936-1.826l.055-1.855a1.882,1.882,0,0,0-1.826-1.937l-49.493-1.451a1.882,1.882,0,0,0-1.936,1.826l-.055,1.855a1.882,1.882,0,0,0,1.826,1.937" transform="translate(-39.134 -43.092)" fill="#e0e0e0"/>
            <path id="Trazado_890786" data-name="Trazado 890786" d="M198.643,237.414l49.493,1.451a1.881,1.881,0,0,0,1.936-1.826l.055-1.855a1.882,1.882,0,0,0-1.826-1.937L198.807,231.8a1.882,1.882,0,0,0-1.936,1.826l-.055,1.855a1.882,1.882,0,0,0,1.826,1.937" transform="translate(-38.992 -45.922)" fill="#e0e0e0"/>
            <path id="Trazado_890787" data-name="Trazado 890787" d="M122.972,248.063l109.231,3.2a1.883,1.883,0,0,0,1.937-1.827l.055-1.855a1.883,1.883,0,0,0-1.827-1.937l-109.231-3.2a1.881,1.881,0,0,0-1.936,1.826l-.055,1.855a1.882,1.882,0,0,0,1.826,1.937" transform="translate(-24.001 -48.032)" fill="#e0e0e0"/>
            <path id="Trazado_890788" data-name="Trazado 890788" d="M133.668,65.054l33.377.978a1.881,1.881,0,0,0,1.936-1.826l.055-1.855a1.882,1.882,0,0,0-1.826-1.937l-33.377-.978a1.882,1.882,0,0,0-1.936,1.826l-.055,1.855a1.882,1.882,0,0,0,1.826,1.937" transform="translate(-26.12 -11.775)" fill="#e0e0e0"/>
            <path id="Trazado_890789" data-name="Trazado 890789" d="M109.107,227.9s.233.021.69.043l2.031.087,7.841.3,29.105,1.026,98.317,3.321.21.007.01-.21c.371-7.814.76-16.008,1.156-24.348,2.1-44.815,4-85.381,5.373-114.754.666-14.678,1.206-26.556,1.579-34.777.176-4.1.314-7.284.407-9.457q.063-1.611.1-2.459c.018-.554.018-.839.018-.839s-.029.283-.062.836-.078,1.385-.138,2.458c-.112,2.172-.277,5.355-.488,9.453-.406,8.219-.992,20.1-1.716,34.771-1.408,29.371-3.352,69.935-5.5,114.747-.395,8.34-.782,16.533-1.151,24.348l.221-.2-98.322-3.177-29.109-.9-7.844-.222L109.8,227.9c-.457-.008-.691,0-.691,0" transform="translate(-21.616 -9.081)" fill="#263238"/>
            <path id="Trazado_890790" data-name="Trazado 890790" d="M123.467,234.631s.22.021.651.043l1.917.087,7.407.3,27.539,1.052,93.424,3.427.208.008.011-.209c.5-9.428,1.015-19.234,1.544-29.255,2.3-44.219,4.391-84.246,5.9-113.229.734-14.482,1.328-26.2,1.739-34.315.195-4.045.347-7.187.451-9.331q.07-1.59.107-2.427c.022-.547.021-.828.021-.828s-.029.279-.065.825-.084,1.366-.149,2.425c-.123,2.143-.3,5.284-.532,9.327-.443,8.11-1.084,19.828-1.876,34.308-1.543,28.982-3.673,69.006-6.028,113.223-.527,10.021-1.042,19.827-1.537,29.255l.22-.2-93.429-3.281-27.544-.925-7.409-.229-1.918-.05c-.432-.01-.653,0-.653,0" transform="translate(-24.461 -9.897)" fill="#263238"/>
            <path id="Trazado_890791" data-name="Trazado 890791" d="M181.99,23.489l2.139-2.095,25.522.125,1.237,2.333Z" transform="translate(-36.055 -4.238)" fill="#263238"/>
            <rect id="Rectángulo_405105" data-name="Rectángulo 405105" width="12.161" height="28.901" transform="translate(145.783 31.41) rotate(-89.278)" fill="#263238"/>
            <path id="Trazado_890792" data-name="Trazado 890792" d="M211.417,39.685l.006-.419a1,1,0,0,0-.992-1.017l-28.9-.364a1,1,0,0,0-1.017.992l-.006.419a1,1,0,0,0,.991,1.017l28.9.363a1,1,0,0,0,1.017-.991" transform="translate(-35.762 -7.506)" fill="#263238"/>
            <path id="Trazado_890793" data-name="Trazado 890793" d="M204.39,29.947h-.014l-12.711-.16a1.12,1.12,0,0,1-1.037-1.512l3.743-10.068a6.639,6.639,0,1,1,7.741.128l3.341,10.14a1.12,1.12,0,0,1-1.064,1.471m-6.058-22.9c-.051,0-.1,0-.155,0a5.927,5.927,0,0,0-5.681,5.92,5.842,5.842,0,0,0,2.583,4.757l.262.176-3.961,10.652a.318.318,0,0,0,.035.292.314.314,0,0,0,.26.138l12.711.16a.308.308,0,0,0,.261-.13.318.318,0,0,0,.047-.289L201.156,18l.266-.167a5.834,5.834,0,0,0-3.09-10.783" transform="translate(-37.752 -1.237)" fill="#455a64"/>
            <path id="Trazado_890794" data-name="Trazado 890794" d="M210.54,38.24a1.4,1.4,0,0,0-.291-.017l-.829-.021-3.055-.063-10.081-.164L186.2,37.862l-3.056-.01-.832.01a1.375,1.375,0,0,0-.29.019,1.351,1.351,0,0,0,.289.028l.831.035,3.055.084c2.58.061,6.144.128,10.083.183s7.5.089,10.082.1c1.291,0,2.335,0,3.057-.012.362-.008.641-.011.833-.023a1.31,1.31,0,0,0,.288-.031" transform="translate(-36.061 -7.499)" fill="#455a64"/>
            <path id="Trazado_890795" data-name="Trazado 890795" d="M211.056,24.053a1.433,1.433,0,0,0-.292-.017l-.829-.021-3.054-.063L196.8,23.788l-10.084-.113-3.056-.01-.832.01a1.375,1.375,0,0,0-.29.019,1.351,1.351,0,0,0,.289.028l.831.035,3.055.085c2.58.06,6.144.127,10.083.182s7.5.089,10.082.1c1.291,0,2.335,0,3.057-.012.362-.008.641-.011.833-.023a1.324,1.324,0,0,0,.289-.031" transform="translate(-36.163 -4.688)" fill="#455a64"/>
            <path id="Trazado_890796" data-name="Trazado 890796" d="M167.9,221.491l-34.913-1.023a7.158,7.158,0,0,1-6.944-7.364l.894-30.487a7.155,7.155,0,0,1,7.363-6.944l34.914,1.023a7.157,7.157,0,0,1,6.944,7.364l-.893,30.486a7.157,7.157,0,0,1-7.364,6.944" transform="translate(-24.97 -34.803)" fill="#ebebeb"/>
            <path id="Trazado_890797" data-name="Trazado 890797" d="M126.126,213.393a1.2,1.2,0,0,1,.531-.954l16.115-10.813a3.336,3.336,0,0,1,4.26.078,1.054,1.054,0,0,0,.212.147l7.3,3.75a1.2,1.2,0,0,0,1.39-.209L167,194.571a3.434,3.434,0,0,1,4.972.423l3.551,4.457a1.2,1.2,0,0,1,.261.761l-.168,18a6.8,6.8,0,0,1-7.014,6.732l-36.025-1.139A6.8,6.8,0,0,1,126,216.763Z" transform="translate(-24.962 -38.375)" fill="#e0e0e0"/>
            <path id="Trazado_890798" data-name="Trazado 890798" d="M153.4,189.542a4.922,4.922,0,1,1-5.142-4.692,4.922,4.922,0,0,1,5.142,4.692" transform="translate(-28.442 -36.62)" fill="#e0e0e0"/>
            <path id="Trazado_890799" data-name="Trazado 890799" d="M247.221,126.909l-34.913-1.023a7.158,7.158,0,0,1-6.944-7.364l.894-30.487a7.155,7.155,0,0,1,7.363-6.944l34.914,1.023a7.157,7.157,0,0,1,6.944,7.364l-.893,30.486a7.157,7.157,0,0,1-7.364,6.944" transform="translate(-40.685 -16.065)" fill="#ebebeb"/>
            <path id="Trazado_890800" data-name="Trazado 890800" d="M205.48,118.2,222.1,107.044a3.334,3.334,0,0,1,4.357.165l8.19,4.205,11.685-11.425a3.434,3.434,0,0,1,4.972.423l3.816,4.791-.161,17.234a7.968,7.968,0,0,1-8.219,7.89l-33.655-1.064a7.967,7.967,0,0,1-7.711-8.256Z" transform="translate(-40.687 -19.637)" fill="#e0e0e0"/>
            <path id="Trazado_890801" data-name="Trazado 890801" d="M232.725,94.961a4.922,4.922,0,1,1-5.142-4.692,4.922,4.922,0,0,1,5.142,4.692" transform="translate(-44.157 -17.883)" fill="#e0e0e0"/>
            <path id="Trazado_890802" data-name="Trazado 890802" d="M134.77,111.022a2.109,2.109,0,0,1-.646-.18,3.56,3.56,0,0,1-1.468-1.241,4.169,4.169,0,0,1-.716-2.942,5.856,5.856,0,0,1,1.946-3.513,10.219,10.219,0,0,1,4.384-2.155,24.1,24.1,0,0,1,5.559-.718,24.493,24.493,0,0,1,12.343,3.131,9,9,0,0,1,2.615,2.195,5.445,5.445,0,0,1,1.175,3.12,4.165,4.165,0,0,1-1.172,3,6.888,6.888,0,0,1-2.607,1.636,17.662,17.662,0,0,1-5.538.895,31.546,31.546,0,0,1-4.873-.21,30.515,30.515,0,0,1-6.847-1.652c-.781-.289-1.376-.541-1.772-.729a3.8,3.8,0,0,1-.6-.3,4.116,4.116,0,0,1,.629.225c.4.162,1.008.389,1.793.653a32.6,32.6,0,0,0,6.828,1.512,32,32,0,0,0,4.825.158,17.514,17.514,0,0,0,5.415-.909,6.519,6.519,0,0,0,2.452-1.548,3.767,3.767,0,0,0,1.054-2.712,5.046,5.046,0,0,0-1.095-2.877,8.633,8.633,0,0,0-2.5-2.089,24.334,24.334,0,0,0-12.128-3.106,24.062,24.062,0,0,0-5.478.669,9.989,9.989,0,0,0-4.272,2.04,5.638,5.638,0,0,0-1.913,3.325,4.034,4.034,0,0,0,.62,2.819,3.637,3.637,0,0,0,1.369,1.255c.388.191.617.234.611.257" transform="translate(-26.131 -19.865)" fill="#263238"/>
            <path id="Trazado_890803" data-name="Trazado 890803" d="M160.616,250.718a2.109,2.109,0,0,1-.646-.18A3.564,3.564,0,0,1,158.5,249.3a4.173,4.173,0,0,1-.716-2.942,5.856,5.856,0,0,1,1.946-3.513,10.219,10.219,0,0,1,4.384-2.155,24.105,24.105,0,0,1,5.559-.718,24.492,24.492,0,0,1,12.343,3.131,9.031,9.031,0,0,1,2.616,2.195,5.45,5.45,0,0,1,1.174,3.12,4.165,4.165,0,0,1-1.172,3,6.882,6.882,0,0,1-2.607,1.636,17.662,17.662,0,0,1-5.538.895,31.443,31.443,0,0,1-4.873-.21,30.516,30.516,0,0,1-6.847-1.652c-.781-.289-1.376-.541-1.772-.729a3.806,3.806,0,0,1-.6-.3,4.113,4.113,0,0,1,.629.225c.4.162,1.009.389,1.793.653a32.6,32.6,0,0,0,6.828,1.512,32,32,0,0,0,4.825.158,17.537,17.537,0,0,0,5.415-.909,6.521,6.521,0,0,0,2.452-1.549,3.767,3.767,0,0,0,1.054-2.712,5.046,5.046,0,0,0-1.095-2.877,8.633,8.633,0,0,0-2.5-2.089,24.334,24.334,0,0,0-12.127-3.106,24.051,24.051,0,0,0-5.478.669,9.988,9.988,0,0,0-4.272,2.04,5.642,5.642,0,0,0-1.913,3.325,4.034,4.034,0,0,0,.62,2.819A3.643,3.643,0,0,0,160,250.461c.388.191.617.234.611.257" transform="translate(-31.252 -47.541)" fill="#263238"/>
            <path id="Trazado_890804" data-name="Trazado 890804" d="M130.614,65.273a2.109,2.109,0,0,1-.646-.18,3.559,3.559,0,0,1-1.468-1.241,4.173,4.173,0,0,1-.716-2.942A5.856,5.856,0,0,1,129.73,57.4a10.218,10.218,0,0,1,4.385-2.155,24.092,24.092,0,0,1,5.559-.718,24.492,24.492,0,0,1,12.343,3.131,9.031,9.031,0,0,1,2.616,2.195,5.45,5.45,0,0,1,1.174,3.12,4.165,4.165,0,0,1-1.172,3,6.882,6.882,0,0,1-2.607,1.636,17.663,17.663,0,0,1-5.538.895,31.545,31.545,0,0,1-4.873-.21,30.514,30.514,0,0,1-6.847-1.652c-.781-.289-1.376-.541-1.772-.729a3.9,3.9,0,0,1-.6-.3,4.114,4.114,0,0,1,.629.225c.406.162,1.009.389,1.793.653a32.6,32.6,0,0,0,6.828,1.512,32,32,0,0,0,4.825.158,17.515,17.515,0,0,0,5.415-.909,6.519,6.519,0,0,0,2.452-1.548,3.767,3.767,0,0,0,1.054-2.712A5.046,5.046,0,0,0,154.3,60.1a8.62,8.62,0,0,0-2.5-2.089,24.334,24.334,0,0,0-12.127-3.106,24.05,24.05,0,0,0-5.478.669,9.988,9.988,0,0,0-4.272,2.04,5.642,5.642,0,0,0-1.913,3.325,4.034,4.034,0,0,0,.62,2.819A3.643,3.643,0,0,0,130,65.016c.388.191.617.234.611.257" transform="translate(-25.308 -10.801)" fill="#263238"/>
            <path id="Trazado_890805" data-name="Trazado 890805" d="M284.6,208.239l11.025.275,5.26,6.779-5.661,6.907-11.314-.332Z" transform="translate(-56.246 -41.255)" fill="#ffd500"/>
            <path id="Trazado_890806" data-name="Trazado 890806" d="M285.9,184.121l11.025.275,5.26,6.779-5.661,6.907-11.314-.332Z" transform="translate(-56.504 -36.477)" fill="#8000ff"/>
            <path id="Trazado_890807" data-name="Trazado 890807" d="M90,10.716H55.12a.414.414,0,0,0-.414.415V11.3a.414.414,0,0,0,.414.415H90a.414.414,0,0,0,.414-.415v-.172A.414.414,0,0,0,90,10.716" transform="translate(-10.838 -2.123)" fill="#e0e0e0"/>
            <path id="Trazado_890808" data-name="Trazado 890808" d="M90,14.68H55.12a.414.414,0,0,0-.414.415v.172a.414.414,0,0,0,.414.415H90a.414.414,0,0,0,.414-.415v-.172A.414.414,0,0,0,90,14.68" transform="translate(-10.838 -2.908)" fill="#e0e0e0"/>
            <path id="Trazado_890809" data-name="Trazado 890809" d="M90,18.643H55.12a.414.414,0,0,0-.414.414v.173a.414.414,0,0,0,.414.415H90a.414.414,0,0,0,.414-.415v-.173A.414.414,0,0,0,90,18.643" transform="translate(-10.838 -3.693)" fill="#e0e0e0"/>
            <path id="Trazado_890810" data-name="Trazado 890810" d="M107.257,14.414c.092-.07,5.641,7.116,12.393,16.047s12.153,16.232,12.061,16.3-5.64-7.114-12.395-16.049-12.152-16.23-12.06-16.3" transform="translate(-21.249 -2.856)" fill="#263238"/>
            <path id="Trazado_890811" data-name="Trazado 890811" d="M108.024,13.274a1.358,1.358,0,1,1-1.358-1.358,1.358,1.358,0,0,1,1.358,1.358" transform="translate(-20.863 -2.361)" fill="#263238"/>
            <path id="Trazado_890812" data-name="Trazado 890812" d="M143.211,350.874H102.536a3.446,3.446,0,0,1-3.442-3.612l.825-17.233a3.448,3.448,0,0,1,3.443-3.282h40.674a3.447,3.447,0,0,1,3.443,3.612l-.825,17.232a3.447,3.447,0,0,1-3.443,3.282" transform="translate(-19.631 -64.734)" fill="#fafafa"/>
            <path id="Trazado_890813" data-name="Trazado 890813" d="M143.163,350.823a4.257,4.257,0,0,0,1.342-.319,3.431,3.431,0,0,0,2.027-3.122c.152-3.5.37-8.521.638-14.721-.013-1.524.5-3.3-.637-4.59a3.248,3.248,0,0,0-2.109-1.175c-.835-.063-1.767-.014-2.671-.026l-11.679.019-26.758.017a3.257,3.257,0,0,0-2.771,1.56,3.3,3.3,0,0,0-.469,1.562q-.042.872-.083,1.738-.167,3.464-.33,6.82t-.32,6.581q-.04.807-.079,1.6a4.014,4.014,0,0,0,.1,1.511,3.264,3.264,0,0,0,1.908,2.111,3.575,3.575,0,0,0,1.429.239l1.512,0,2.965,0,5.669.01,10.175.026,14.734.067,4.005.038,1.042.021a2.236,2.236,0,0,1,.355.022,2.235,2.235,0,0,1-.355.022l-1.042.02-4.005.039-14.734.067L112.852,351l-5.669.01-2.965,0-1.512,0a3.944,3.944,0,0,1-1.572-.262,3.647,3.647,0,0,1-2.141-2.358,4.391,4.391,0,0,1-.123-1.639q.037-.8.075-1.6.152-3.226.31-6.583t.323-6.82q.042-.866.083-1.738a3.659,3.659,0,0,1,3.656-3.52l26.758.016,11.679.019c.923.018,1.792-.031,2.715.042a3.572,3.572,0,0,1,2.315,1.3,3.624,3.624,0,0,1,.8,2.422q-.061,1.22-.119,2.386c-.325,6.2-.588,11.219-.771,14.715a3.543,3.543,0,0,1-.792,2.173,3.419,3.419,0,0,1-2.382,1.262c-.237.007-.357,0-.357,0" transform="translate(-19.583 -64.682)" fill="#263238"/>
            <path id="Trazado_890814" data-name="Trazado 890814" d="M142.291,337.2H107.416a.414.414,0,0,0-.414.415v.172a.414.414,0,0,0,.414.415h34.876a.414.414,0,0,0,.414-.415v-.172a.414.414,0,0,0-.414-.415" transform="translate(-21.199 -66.805)" fill="#e0e0e0"/>
            <path id="Trazado_890815" data-name="Trazado 890815" d="M142.291,341.167H107.416a.414.414,0,0,0-.414.415v.172a.414.414,0,0,0,.414.415h34.876a.414.414,0,0,0,.414-.415v-.172a.414.414,0,0,0-.414-.415" transform="translate(-21.199 -67.59)" fill="#e0e0e0"/>
            <path id="Trazado_890816" data-name="Trazado 890816" d="M142.291,345.131H107.416a.414.414,0,0,0-.414.415v.172a.414.414,0,0,0,.414.415h34.876a.414.414,0,0,0,.414-.415v-.172a.414.414,0,0,0-.414-.415" transform="translate(-21.199 -68.376)" fill="#e0e0e0"/>
            <path id="Trazado_890817" data-name="Trazado 890817" d="M166.042,256.327c.1.053-6.4,12.739-14.525,28.33s-14.794,28.193-14.9,28.14,6.4-12.736,14.525-28.332,14.792-28.19,14.9-28.137" transform="translate(-27.067 -50.782)" fill="#263238"/>
            <path id="Trazado_890818" data-name="Trazado 890818" d="M137.644,326.412a1.358,1.358,0,1,1-1.358-1.358,1.358,1.358,0,0,1,1.358,1.358" transform="translate(-26.731 -64.398)" fill="#263238"/>
          </g>
        </g>
        <g id="Grupo_1106865" data-name="Grupo 1106865">
          <g id="Grupo_1106864" data-name="Grupo 1106864" clip-path="url(#clip-path-2)">
            <path id="Trazado_890819" data-name="Trazado 890819" d="M422.719,342.568H304.865V337.7H422.719a2.015,2.015,0,0,1,2.015,2.015v.841a2.015,2.015,0,0,1-2.015,2.015" transform="translate(-60.398 -66.903)" fill="#8000ff"/>
            <path id="Trazado_890820" data-name="Trazado 890820" d="M291.968,341.165c0,.1-9.888.176-22.083.176s-22.085-.079-22.085-.176,9.886-.176,22.085-.176,22.083.079,22.083.176" transform="translate(-49.093 -67.555)" fill="#263238"/>
            <path id="Trazado_890821" data-name="Trazado 890821" d="M306.421,336.522H251.063a12.138,12.138,0,0,1-12.138-12.137v-5.07a12.137,12.137,0,0,1,12.138-12.137h55.358Z" transform="translate(-47.335 -60.856)" fill="#8000ff"/>
            <path id="Trazado_890822" data-name="Trazado 890822" d="M422.719,312.048H305.782a.917.917,0,0,1-.917-.918v-3.036a.917.917,0,0,1,.917-.917H422.719a2.015,2.015,0,0,1,2.015,2.015v.841a2.015,2.015,0,0,1-2.015,2.015" transform="translate(-60.398 -60.856)" fill="#8000ff"/>
            <path id="Trazado_890823" data-name="Trazado 890823" d="M422.042,332.854H319.125a9.8,9.8,0,0,1,0-19.6H422.042a24.237,24.237,0,0,0,0,19.6" transform="translate(-61.282 -62.06)" fill="#f5f5f5"/>
            <g id="Grupo_1106857" data-name="Grupo 1106857" transform="translate(191.59 246.321)" opacity="0.3">
              <g id="Grupo_1106856" data-name="Grupo 1106856">
                <g id="Grupo_1106855" data-name="Grupo 1106855" clip-path="url(#clip-path-6)">
                  <path id="Trazado_890824" data-name="Trazado 890824" d="M295.377,336.522H250.046a11.12,11.12,0,0,1-11.121-11.12v-7.2a11.03,11.03,0,0,1,11.031-11.03h46.538c-10.625,6.436-9.831,21.85-1.117,29.345" transform="translate(-238.925 -307.177)"/>
                </g>
              </g>
            </g>
            <path id="Trazado_890825" data-name="Trazado 890825" d="M410.985,326.566c0,.1-21.124.176-47.176.176s-47.18-.079-47.18-.176,21.119-.176,47.18-.176,47.176.079,47.176.176" transform="translate(-62.729 -64.663)" fill="#263238"/>
            <path id="Trazado_890826" data-name="Trazado 890826" d="M423.093,332c0,.1-21.124.176-47.176.176s-47.18-.079-47.18-.176,21.119-.176,47.18-.176,47.176.079,47.176.176" transform="translate(-65.128 -65.739)" fill="#263238"/>
            <path id="Trazado_890827" data-name="Trazado 890827" d="M419.523,318.861c0,.1-21.124.176-47.176.176s-47.18-.079-47.18-.176,21.119-.176,47.18-.176,47.176.079,47.176.176" transform="translate(-64.42 -63.136)" fill="#263238"/>
            <path id="Trazado_890828" data-name="Trazado 890828" d="M291.968,310.171c0,.1-9.888.176-22.083.176s-22.085-.079-22.085-.176,9.886-.176,22.085-.176,22.083.079,22.083.176" transform="translate(-49.093 -61.415)" fill="#263238"/>
            <path id="Trazado_890829" data-name="Trazado 890829" d="M289,407.253H223.768a15.631,15.631,0,0,1-15.631-15.631v-6.53a15.631,15.631,0,0,1,15.631-15.631H289a6.06,6.06,0,0,1,6.06,6.06v25.672a6.059,6.059,0,0,1-6.06,6.06" transform="translate(-41.235 -73.196)" fill="#ffd500"/>
            <path id="Trazado_890830" data-name="Trazado 890830" d="M444.835,375.735H294.555a1.5,1.5,0,0,1-1.5-1.5v-3.278a1.5,1.5,0,0,1,1.5-1.5h150.28a2.6,2.6,0,0,1,2.595,2.595v1.084a2.6,2.6,0,0,1-2.595,2.595" transform="translate(-58.059 -73.196)" fill="#ffd500"/>
            <path id="Trazado_890831" data-name="Trazado 890831" d="M444.835,415.04H294.555a1.5,1.5,0,0,1-1.5-1.5v-3.278a1.5,1.5,0,0,1,1.5-1.5h150.28a2.6,2.6,0,0,1,2.595,2.595v1.084a2.6,2.6,0,0,1-2.595,2.595" transform="translate(-58.059 -80.983)" fill="#ffd500"/>
            <path id="Trazado_890832" data-name="Trazado 890832" d="M443.963,402.529H311.421a12.622,12.622,0,0,1,0-25.245H443.963a31.214,31.214,0,0,0,0,25.245" transform="translate(-59.197 -74.746)" fill="#f5f5f5"/>
            <g id="Grupo_1106860" data-name="Grupo 1106860" transform="translate(166.902 296.265)" opacity="0.3">
              <g id="Grupo_1106859" data-name="Grupo 1106859" transform="translate(1.162)">
                <g id="Grupo_1106858" data-name="Grupo 1106858" clip-path="url(#clip-path-7)">
                  <path id="Trazado_890833" data-name="Trazado 890833" d="M279.7,407.253H226.538a18.548,18.548,0,0,1-18.4-18.694,18.95,18.95,0,0,1,18.8-19.1h54.179c-13.469,8.289-12.463,28.14-1.416,37.792" transform="translate(-208.137 -369.461)"/>
                </g>
              </g>
            </g>
            <path id="Trazado_890834" data-name="Trazado 890834" d="M429.724,394.444c0,.1-27.2.176-60.756.176s-60.762-.079-60.762-.176,27.2-.176,60.762-.176,60.756.079,60.756.176" transform="translate(-61.06 -78.11)" fill="#263238"/>
            <path id="Trazado_890835" data-name="Trazado 890835" d="M445.317,401.441c0,.1-27.2.176-60.756.176s-60.762-.079-60.762-.176,27.2-.176,60.762-.176,60.756.079,60.756.176" transform="translate(-64.15 -79.497)" fill="#263238"/>
            <path id="Trazado_890836" data-name="Trazado 890836" d="M440.719,387.951c0,.1-27.2.176-60.756.176s-60.762-.079-60.762-.176,27.2-.176,60.762-.176,60.756.079,60.756.176" transform="translate(-63.239 -76.824)" fill="#263238"/>
            <path id="Trazado_890837" data-name="Trazado 890837" d="M276.448,413.244c0,.1-12.734.176-28.439.176s-28.442-.079-28.442-.176,12.732-.176,28.442-.176,28.439.079,28.439.176" transform="translate(-43.5 -81.835)" fill="#263238"/>
            <path id="Trazado_890838" data-name="Trazado 890838" d="M276.448,373.33c0,.1-12.734.176-28.439.176s-28.442-.079-28.442-.176,12.732-.176,28.442-.176,28.439.079,28.439.176" transform="translate(-43.5 -73.927)" fill="#263238"/>
            <path id="Trazado_890839" data-name="Trazado 890839" d="M326.823,364.287H265.566a8.95,8.95,0,0,1-8.95-8.95V351.6a8.95,8.95,0,0,1,8.95-8.95h61.258a.416.416,0,0,1,.416.416v20.806a.416.416,0,0,1-.416.416" transform="translate(-50.84 -67.884)" fill="#455a64"/>
            <path id="Trazado_890840" data-name="Trazado 890840" d="M448.926,347.746H326.571a.96.96,0,0,1-.96-.96v-3.177a.961.961,0,0,1,.96-.961H448.926a2.108,2.108,0,0,1,2.108,2.109v.88a2.108,2.108,0,0,1-2.108,2.108" transform="translate(-64.509 -67.884)" fill="#455a64"/>
            <path id="Trazado_890841" data-name="Trazado 890841" d="M448.926,368.374H326.571a.96.96,0,0,1-.96-.96v-3.177a.961.961,0,0,1,.96-.961H448.926a2.108,2.108,0,0,1,2.108,2.109v.88a2.108,2.108,0,0,1-2.108,2.108" transform="translate(-64.509 -71.971)" fill="#455a64"/>
            <path id="Trazado_890842" data-name="Trazado 890842" d="M448.217,360.449H336a5.722,5.722,0,1,1,0-11.444H448.217q-4.331,5.722,0,11.444" transform="translate(-65.433 -69.143)" fill="#f5f5f5"/>
            <g id="Grupo_1106863" data-name="Grupo 1106863" transform="translate(205.776 274.765)" opacity="0.3">
              <g id="Grupo_1106862" data-name="Grupo 1106862">
                <g id="Grupo_1106861" data-name="Grupo 1106861" clip-path="url(#clip-path-8)">
                  <path id="Trazado_890843" data-name="Trazado 890843" d="M315.683,364.287H267.348a10.732,10.732,0,0,1-10.732-10.732,10.906,10.906,0,0,1,10.906-10.906h49.33c-11.118,4.746-10.287,16.111-1.169,21.638" transform="translate(-256.616 -342.649)"/>
                </g>
              </g>
            </g>
            <path id="Trazado_890844" data-name="Trazado 890844" d="M436.648,354.974c0,.1-22.1.176-49.362.176s-49.367-.079-49.367-.176,22.1-.176,49.367-.176,49.362.079,49.362.176" transform="translate(-66.947 -70.291)" fill="#263238"/>
            <path id="Trazado_890845" data-name="Trazado 890845" d="M449.318,358.815c0,.1-22.1.176-49.362.176s-49.367-.079-49.367-.176,22.1-.176,49.367-.176,49.362.079,49.362.176" transform="translate(-69.457 -71.052)" fill="#263238"/>
            <path id="Trazado_890846" data-name="Trazado 890846" d="M312.116,366.906c0,.1-10.346.176-23.106.176S265.9,367,265.9,366.906s10.344-.176,23.108-.176,23.106.079,23.106.176" transform="translate(-52.679 -72.655)" fill="#263238"/>
            <path id="Trazado_890847" data-name="Trazado 890847" d="M312.116,345.784c0,.1-10.346.176-23.106.176s-23.108-.079-23.108-.176,10.344-.176,23.108-.176,23.106.079,23.106.176" transform="translate(-52.679 -68.47)" fill="#263238"/>
            <path id="Trazado_890848" data-name="Trazado 890848" d="M438.3,342.6c0,.1-37.953.176-84.761.176-46.823,0-84.768-.079-84.768-.176s37.945-.176,84.768-.176c46.808,0,84.761.079,84.761.176" transform="translate(-53.248 -67.84)" fill="#263238"/>
            <path id="Trazado_890849" data-name="Trazado 890849" d="M395.3,318.5v11.752l4.074-2.612,4.544,2.612V318.5Z" transform="translate(-78.316 -63.1)" fill="#ff725e"/>
          </g>
        </g>
        <g id="Grupo_1106870" data-name="Grupo 1106870">
          <g id="Grupo_1106869" data-name="Grupo 1106869" clip-path="url(#clip-path-2)">
            <path id="Trazado_890850" data-name="Trazado 890850" d="M340.23,80.872s-3.643,13.62-3.956,23.256l-.1,3.211s8.037,6.674,14.78,7.085l5.651-13.9Z" transform="translate(-66.6 -16.022)" fill="#263238"/>
            <path id="Trazado_890851" data-name="Trazado 890851" d="M376.541,85.7c-1.536-6.643-2.127-14.375-7.651-18.706-4.1-3.214-8.769-4.11-13.974-3.892a18.444,18.444,0,0,0-7.688,2.553c-3.06,1.733-4.357,5.246-5.834,8.437-2.958,6.4-2.583,15.054-.58,17.46l26.721,14.111c5.336-2.777,8.678-3.883,9.531-11a26.061,26.061,0,0,0-.525-8.967" transform="translate(-67.209 -12.495)" fill="#263238"/>
            <path id="Trazado_890852" data-name="Trazado 890852" d="M369.067,73.3l-16.816-4.962c-5.418-.789-9.3,5.766-9.857,11.212-.621,6.05-1.14,13.461-.6,18.015,1.087,9.157,8.016,10.589,8.016,10.589,0-.03.016.137-.038,2.842l-.021,5.572a4.622,4.622,0,0,0,1.324,3.772c2.48,3.213,7,3.642,12.331,1.67,3.09-1.143,5.237-3.442,5.474-6.574L371.8,76.662a3.2,3.2,0,0,0-2.736-3.359" transform="translate(-67.67 -13.527)" fill="#ae7461"/>
            <path id="Trazado_890853" data-name="Trazado 890853" d="M344.591,92.423a1.168,1.168,0,0,0,1.079,1.221,1.116,1.116,0,0,0,1.244-1,1.168,1.168,0,0,0-1.078-1.222,1.118,1.118,0,0,0-1.245,1.006" transform="translate(-68.268 -18.11)" fill="#263238"/>
            <path id="Trazado_890854" data-name="Trazado 890854" d="M343.982,88.9c.139.158,1.049-.462,2.3-.409,1.255.034,2.151.717,2.293.569.07-.065-.067-.346-.457-.654a3.209,3.209,0,0,0-1.828-.644,3.078,3.078,0,0,0-1.842.516c-.4.281-.54.552-.471.622" transform="translate(-68.145 -17.387)" fill="#263238"/>
            <path id="Trazado_890855" data-name="Trazado 890855" d="M358.36,92.648a1.168,1.168,0,0,0,1.079,1.221,1.116,1.116,0,0,0,1.245-1,1.168,1.168,0,0,0-1.078-1.222,1.118,1.118,0,0,0-1.245,1.006" transform="translate(-70.996 -18.155)" fill="#263238"/>
            <path id="Trazado_890856" data-name="Trazado 890856" d="M359.387,89.085c.139.158,1.05-.461,2.3-.408,1.255.034,2.151.716,2.294.568.069-.065-.066-.346-.458-.654a3.207,3.207,0,0,0-1.828-.644,3.077,3.077,0,0,0-1.841.516c-.4.281-.54.552-.471.622" transform="translate(-71.197 -17.423)" fill="#263238"/>
            <path id="Trazado_890857" data-name="Trazado 890857" d="M352.509,96.941a8.282,8.282,0,0,0-2.026-.448c-.319-.046-.62-.122-.666-.342a1.628,1.628,0,0,1,.252-.942l1.044-2.4a42.073,42.073,0,0,0,2.382-6.3,41.989,41.989,0,0,0-2.884,6.1q-.526,1.268-1,2.421a1.851,1.851,0,0,0-.216,1.252.8.8,0,0,0,.508.49,2.2,2.2,0,0,0,.542.1,8.161,8.161,0,0,0,2.067.084" transform="translate(-69.21 -17.137)" fill="#263238"/>
            <path id="Trazado_890858" data-name="Trazado 890858" d="M351.8,117.326a23.164,23.164,0,0,0,12.315-2.771s-3.263,6.249-12.338,5.039Z" transform="translate(-69.692 -22.695)" fill="#6f4439"/>
            <path id="Trazado_890859" data-name="Trazado 890859" d="M357.417,102.779a1.825,1.825,0,0,0-1.483-.884,2.37,2.37,0,0,0-2.2.984,1.472,1.472,0,0,0-.138,1.059c.072.184.014.092.149.222a4.156,4.156,0,0,0,1.653,1.117,1.779,1.779,0,0,0,1.9-.617,1.816,1.816,0,0,0,.114-1.88" transform="translate(-70.045 -20.185)" fill="#6f4439"/>
            <path id="Trazado_890860" data-name="Trazado 890860" d="M357.112,100.853c-.2-.021-.268,1.342-1.478,2.257s-2.653.7-2.673.889c-.023.085.311.279.924.323a3.391,3.391,0,0,0,2.228-.665,2.957,2.957,0,0,0,1.152-1.9c.078-.567-.059-.911-.152-.908" transform="translate(-69.927 -19.98)" fill="#263238"/>
            <path id="Trazado_890861" data-name="Trazado 890861" d="M358.8,83.454c.09.352,1.355.312,2.8.632,1.457.29,2.6.835,2.823.549.1-.138-.075-.478-.521-.854a5.006,5.006,0,0,0-4.288-.9c-.56.165-.857.406-.82.573" transform="translate(-71.083 -16.389)" fill="#263238"/>
            <path id="Trazado_890862" data-name="Trazado 890862" d="M344.1,84.551c.285.247,1.2-.184,2.349-.365,1.143-.216,2.154-.118,2.335-.445.078-.158-.117-.419-.581-.625a3.58,3.58,0,0,0-1.98-.186,3.533,3.533,0,0,0-1.794.839c-.365.35-.456.659-.329.782" transform="translate(-68.161 -16.418)" fill="#263238"/>
            <path id="Trazado_890863" data-name="Trazado 890863" d="M354.806,67.134c-.015.066-.028.132-.042.2l.031.014c0-.071.007-.14.011-.211" transform="translate(-70.284 -13.3)" fill="#263238"/>
            <path id="Trazado_890864" data-name="Trazado 890864" d="M363.554,111.343c.257-2.386-.7-4.783-.424-7.167.3-2.527,1.932-4.693,2.6-7.146,1.076-3.931-.4-8.11-.941-12.172a9.642,9.642,0,0,1-5.919-3.417,26.712,26.712,0,0,1-4-7.354,12.31,12.31,0,0,0,2.476,7.073,3.321,3.321,0,0,1-2.837-.921,7.43,7.43,0,0,1-1.665-2.585,20.208,20.208,0,0,1-1.612-7.281A26.164,26.164,0,0,0,352.422,81a4.537,4.537,0,0,0-1.979.075,2.171,2.171,0,0,1-1.883-.4,2.375,2.375,0,0,1-.516-1.214,27.292,27.292,0,0,1-.3-9.263,28.227,28.227,0,0,0-2.087,5.133,9.947,9.947,0,0,0-.039,5.478.8.8,0,0,1-1.131-.007,1.917,1.917,0,0,1-.495-1.143,14.093,14.093,0,0,1,.3-4.611,23.343,23.343,0,0,0-1.715,5.268,7.857,7.857,0,0,1-2.854,4.625,24.246,24.246,0,0,1,.228-6.984A21.071,21.071,0,0,1,342,72.416a16.467,16.467,0,0,1,3.69-5.136c2.682-2.349,3.8-1.338,5.515-.443l.2.085c.006-.042.008-.084.014-.126l.077-.365a25.69,25.69,0,0,1,13.529.633c3.228,1.052,3.524,8,4.312,4.7.477-2,3.067-.174,3.1-.116,3.807,6.867,7.842,17.761,8.028,34.975Z" transform="translate(-67.274 -13.038)" fill="#263238"/>
            <path id="Trazado_890865" data-name="Trazado 890865" d="M380.168,56.463a8.576,8.576,0,0,0-5.92-2.881,6.462,6.462,0,0,0-5.715,2.977,5.207,5.207,0,0,0,.7,6.228l2.813,2.251a7.7,7.7,0,0,0,6.389.62,5.553,5.553,0,0,0,3.606-5.068,6.532,6.532,0,0,0-1.876-4.126" transform="translate(-72.87 -10.615)" fill="#263238"/>
            <path id="Trazado_890866" data-name="Trazado 890866" d="M377.981,70.9c-.544.254-2.084-2.1-4.834-3.957-2.708-1.917-5.458-2.521-5.413-3.121.023-.273.8-.492,2.053-.363a10.511,10.511,0,0,1,7.806,5.393c.565,1.128.634,1.93.387,2.049" transform="translate(-72.854 -12.565)" fill="#455a64"/>
            <path id="Trazado_890867" data-name="Trazado 890867" d="M328.152,163.6l10.537-9.869,7.138,11.339c-.142,1.017-9.241,20.624-13.181,24.686-4.495,4.636-10.622,4.277-13.325-2.123-2.131-5.046-5.668-20.584-5.668-20.584Z" transform="translate(-62.139 -30.457)" fill="#ff007f"/>
            <path id="Trazado_890868" data-name="Trazado 890868" d="M342.122,128.629c-2.517.907-8.307,4.071-9.993,6.148A15.881,15.881,0,0,0,330,138.066c-1.318,2.9-3.823,24.4-3.823,24.4L337.4,170.6l9.77-37.612-.624-5.964Z" transform="translate(-64.621 -25.165)" fill="#ff007f"/>
            <path id="Trazado_890869" data-name="Trazado 890869" d="M340.8,190.058l.706-5.555a180.571,180.571,0,0,1-2.957-18.516c-1.263-13.68,2.3-22.182,2.792-23.624.277-.817,7.6-16,7.6-16s1.54,4.676,7.724,3.57c8.623-1.542,11.765-6.217,11.765-6.217l11.142,2.409s4.341,17.435,4.98,23.212c.342,3.1-3.738,20.6-3.738,20.6l6.571,9.83c.2.484-2.855,13.918-3.451,14.472s-11.287,3.038-11.419,3.495-20.378,8.933-20.365,8.587-9.74-11.931-9.74-11.931Z" transform="translate(-67.018 -24.511)" fill="#ff007f"/>
            <path id="Trazado_890870" data-name="Trazado 890870" d="M337.963,149.571a1.59,1.59,0,0,1-.026.407c-.038.311-.083.692-.138,1.153-.119,1-.289,2.45-.437,4.245a60.936,60.936,0,0,0,.262,14.021c.72,5.45,1.771,10.325,2.45,13.869.345,1.771.608,3.208.775,4.2.071.46.13.839.178,1.149a1.472,1.472,0,0,1,.034.406,1.548,1.548,0,0,1-.116-.391c-.069-.306-.153-.68-.255-1.134-.228-1.048-.533-2.459-.905-4.175-.751-3.526-1.851-8.4-2.575-13.873a56.5,56.5,0,0,1-.141-14.1c.186-1.8.4-3.244.569-4.24.086-.5.16-.884.216-1.143a1.449,1.449,0,0,1,.109-.393" transform="translate(-66.704 -29.632)" fill="#263238"/>
            <path id="Trazado_890871" data-name="Trazado 890871" d="M388.706,202.567c2,3.39,6.559,16.367,8.332,22.995,8.092,30.243,14.938,70.915,17.212,79.2,3.03,11.044,9.814,36.032,13.267,52.673l-16.583,7.232s-21.72-58.526-27.645-72.907c-6.141-14.9-16.384-43.01-16.384-43.01l-5.917,111.489-15.886.491s-5.433-31.415-7.592-50.192-2.4-57.428-2.419-67.237c-.022-11.945,5.155-38.819,5.155-38.819s6.2,4.65,17.815,2.87c9.253-1.418,28.436-8.535,28.436-8.535Z" transform="translate(-66.386 -39.389)" fill="#263238"/>
            <path id="Trazado_890872" data-name="Trazado 890872" d="M361.676,214.288a7.676,7.676,0,0,0,.093,1.281c.085.82.229,2.006.424,3.469.388,2.925,1,6.958,1.788,11.391s1.621,8.429,2.271,11.307c.325,1.439.6,2.6.805,3.4a7.623,7.623,0,0,0,.357,1.232,7.628,7.628,0,0,0-.2-1.268c-.174-.88-.4-2.034-.676-3.426-.576-2.892-1.357-6.89-2.15-11.319s-1.444-8.448-1.907-11.36c-.225-1.4-.411-2.563-.554-3.449a7.691,7.691,0,0,0-.252-1.258" transform="translate(-71.652 -42.454)" fill="#455a64"/>
            <path id="Trazado_890873" data-name="Trazado 890873" d="M368.034,213.889c.022,0-.025-.2-.31-.324a2.028,2.028,0,0,0-1.21-.039,2.427,2.427,0,0,0-.792.324,1.331,1.331,0,0,0-.542.88,2.033,2.033,0,0,0,.91,2.018,2.093,2.093,0,0,0,2.213.1,1.442,1.442,0,0,0,.611-.824,2.055,2.055,0,0,0,.059-.86,1.731,1.731,0,0,0-.535-1.091c-.229-.19-.4-.2-.4-.184s.127.1.29.3a1.749,1.749,0,0,1,.358,1.006,1.4,1.4,0,0,1-.578,1.331,1.749,1.749,0,0,1-1.788-.121,1.684,1.684,0,0,1-.76-1.609.994.994,0,0,1,.366-.665,2.292,2.292,0,0,1,.668-.321,2.183,2.183,0,0,1,1.082-.091c.249.058.331.192.362.172" transform="translate(-72.342 -42.289)" fill="#455a64"/>
            <path id="Trazado_890874" data-name="Trazado 890874" d="M356.076,249.347A15.367,15.367,0,0,0,358,250.665c1.2.786,2.846,1.892,4.608,3.19s3.3,2.544,4.41,3.46a15.558,15.558,0,0,0,1.827,1.447,11.217,11.217,0,0,0-1.635-1.667,54.77,54.77,0,0,0-9.055-6.678,11.236,11.236,0,0,0-2.074-1.069" transform="translate(-70.544 -49.399)" fill="#455a64"/>
            <path id="Trazado_890875" data-name="Trazado 890875" d="M406.236,323.283a2.2,2.2,0,0,0,.687.023c.441-.009,1.078-.057,1.862-.146a33.269,33.269,0,0,0,11.711-3.67c.694-.374,1.245-.7,1.612-.943s.565-.386.551-.411a24.511,24.511,0,0,0-2.295,1.093,41.8,41.8,0,0,1-11.619,3.641,24.8,24.8,0,0,0-2.508.412" transform="translate(-80.482 -63.027)" fill="#455a64"/>
            <path id="Trazado_890876" data-name="Trazado 890876" d="M409.595,321.281a6.236,6.236,0,0,0,1.627-.433c.984-.329,2.326-.84,3.771-1.49s2.718-1.317,3.617-1.836a6.244,6.244,0,0,0,1.4-.93c-.06-.105-2.316,1.1-5.19,2.389s-5.267,2.185-5.228,2.3" transform="translate(-81.147 -62.72)" fill="#455a64"/>
            <path id="Trazado_890877" data-name="Trazado 890877" d="M343.19,386.317l-.083,16.552s-16.852,5.474-17.164,8.531l32.086,1.314,1.188-25.784Z" transform="translate(-64.574 -76.535)" fill="#263238"/>
            <path id="Trazado_890878" data-name="Trazado 890878" d="M359.393,405.714a1.31,1.31,0,0,1,.844,1.532,1.26,1.26,0,0,1-1.512.851,1.383,1.383,0,0,1-.885-1.628,1.307,1.307,0,0,1,1.67-.71" transform="translate(-70.882 -80.365)" fill="#e0e0e0"/>
            <path id="Trazado_890879" data-name="Trazado 890879" d="M358.026,418.521l.018-2.6-30.77-.286s-1.455.563-1.334,1.576Z" transform="translate(-64.572 -82.343)" fill="#455a64"/>
            <path id="Trazado_890880" data-name="Trazado 890880" d="M346.707,406.7c0,.157.779.26,1.528.8.766.516,1.134,1.211,1.281,1.155.145-.025-.049-.971-.969-1.6s-1.869-.492-1.841-.347" transform="translate(-68.688 -80.548)" fill="#fff"/>
            <path id="Trazado_890881" data-name="Trazado 890881" d="M342.439,408.277c-.042.15.625.444,1.131,1.129.525.67.63,1.391.787,1.391.146.03.292-.883-.352-1.722s-1.556-.948-1.565-.8" transform="translate(-67.842 -80.875)" fill="#fff"/>
            <path id="Trazado_890882" data-name="Trazado 890882" d="M339.566,412.537c.141.039.391-.735.024-1.609s-1.086-1.246-1.157-1.118c-.095.125.362.6.653,1.327.308.716.326,1.378.48,1.4" transform="translate(-67.046 -81.185)" fill="#fff"/>
            <path id="Trazado_890883" data-name="Trazado 890883" d="M347.251,401.9c.06.146.787-.041,1.67.055.885.079,1.563.4,1.649.273.1-.11-.553-.717-1.6-.816s-1.8.362-1.724.488" transform="translate(-68.795 -79.523)" fill="#fff"/>
            <path id="Trazado_890884" data-name="Trazado 890884" d="M438.649,384.151l6.146,19.058L454,416.882a2.052,2.052,0,0,1-2.55,3.014c-3.85-1.764-17.977-8.323-18.35-9.742-.43-1.645-7.818-19.673-7.818-19.673Z" transform="translate(-84.256 -76.106)" fill="#263238"/>
            <path id="Trazado_890885" data-name="Trazado 890885" d="M455.15,425.913l-20.669-10.927.279.8a3.086,3.086,0,0,0,1.35,1.65c1.692.994,6.424,3.634,17.107,8.587a2.05,2.05,0,0,0,1.933-.113" transform="translate(-86.077 -82.215)" fill="#455a64"/>
            <g id="Grupo_1106868" data-name="Grupo 1106868" transform="translate(348.675 325.267)" opacity="0.6">
              <g id="Grupo_1106867" data-name="Grupo 1106867">
                <g id="Grupo_1106866" data-name="Grupo 1106866" clip-path="url(#clip-path-10)">
                  <path id="Trazado_890886" data-name="Trazado 890886" d="M436.307,405.681a1.242,1.242,0,0,1,.854,1.419,1.194,1.194,0,0,1-1.4.859,1.309,1.309,0,0,1-.9-1.508,1.238,1.238,0,0,1,1.555-.731" transform="translate(-434.819 -405.629)" fill="#fff"/>
                </g>
              </g>
            </g>
            <path id="Trazado_890887" data-name="Trazado 890887" d="M451.262,419.369a4.428,4.428,0,0,1,3.179-3.222c0-.052-.29-.116-.755-.025a3.273,3.273,0,0,0-2.459,2.492c-.086.466-.018.755.034.755" transform="translate(-89.387 -82.431)" fill="#fff"/>
            <path id="Trazado_890888" data-name="Trazado 890888" d="M454.053,422.175c.119.051.512-.775,1.392-1.4a16.817,16.817,0,0,1,1.764-.88,2.275,2.275,0,0,0-2.022.524c-1,.714-1.251,1.736-1.135,1.753" transform="translate(-89.95 -83.173)" fill="#fff"/>
            <path id="Trazado_890889" data-name="Trazado 890889" d="M446.741,416.246a10.541,10.541,0,0,1,4.581-3.93,5.61,5.61,0,0,0-4.581,3.93" transform="translate(-88.503 -81.681)" fill="#fff"/>
            <path id="Trazado_890890" data-name="Trazado 890890" d="M443.81,409.688c.09.1.983-.7,2.325-1.226,1.335-.541,2.534-.571,2.533-.7a5.093,5.093,0,0,0-4.859,1.929" transform="translate(-87.924 -80.761)" fill="#fff"/>
            <path id="Trazado_890891" data-name="Trazado 890891" d="M441.383,402.788A6.512,6.512,0,0,1,446.5,401.2c.017-.051-.272-.216-.8-.316a4.471,4.471,0,0,0-3.84,1.189c-.375.379-.52.678-.478.71" transform="translate(-87.443 -79.409)" fill="#fff"/>
            <path id="Trazado_890892" data-name="Trazado 890892" d="M442.956,399.335a1.731,1.731,0,0,0-.223-.724,5.275,5.275,0,0,0-1.22-1.676,2.331,2.331,0,0,0-1.312-.723.824.824,0,0,0-.817.479,1.34,1.34,0,0,0,0,.957,2.9,2.9,0,0,0,3.282,1.7,3.362,3.362,0,0,0,2.542-2.747,1.166,1.166,0,0,0-.267-.935.808.808,0,0,0-.94-.127,2.875,2.875,0,0,0-1.021,1.081,5.89,5.89,0,0,0-.779,1.919,1.808,1.808,0,0,0-.063.755,9.359,9.359,0,0,1,1.1-2.5,2.674,2.674,0,0,1,.913-.921.43.43,0,0,1,.512.066.8.8,0,0,1,.14.625,3,3,0,0,1-2.232,2.357,2.518,2.518,0,0,1-2.807-1.4.975.975,0,0,1-.027-.669.447.447,0,0,1,.447-.271,2.112,2.112,0,0,1,1.122.592,7.767,7.767,0,0,1,1.65,2.168" transform="translate(-87.031 -78.343)" fill="#fff"/>
            <path id="Trazado_890893" data-name="Trazado 890893" d="M314.585,149.571l7.652,7.9.31,6.883-8.882,2.042h-.452l-.574-4.442-5.119-6.806Z" transform="translate(-60.924 -29.632)" fill="#ae7461"/>
            <path id="Trazado_890894" data-name="Trazado 890894" d="M286.211,123.059a46.638,46.638,0,1,1,11.671-40.964,46.291,46.291,0,0,1-11.671,40.964m-63.725-.123a43.512,43.512,0,1,0-12.9-23.227,43.181,43.181,0,0,0,12.9,23.227" transform="translate(-40.739 -8.838)" fill="#455a64"/>
            <path id="Trazado_890895" data-name="Trazado 890895" d="M286.211,123.059a46.638,46.638,0,1,1,11.671-40.964,46.291,46.291,0,0,1-11.671,40.964m-63.725-.123a43.512,43.512,0,1,0-12.9-23.227,43.181,43.181,0,0,0,12.9,23.227" transform="translate(-40.739 -8.838)" fill="#263238"/>
            <path id="Trazado_890896" data-name="Trazado 890896" d="M287.639,120.263A46.638,46.638,0,1,1,299.31,79.3a46.287,46.287,0,0,1-11.671,40.964m-63.725-.123a43.512,43.512,0,1,0-12.9-23.227,43.184,43.184,0,0,0,12.9,23.227" transform="translate(-41.022 -8.284)" fill="#455a64"/>
            <path id="Trazado_890897" data-name="Trazado 890897" d="M357.64,197.957l1.483-1.435c1.322-1.28.581-4.205-.807-5.625l-52.054-53.8-6.96,6.734,51.976,53.722c1.755,1.722,4.659,2.054,6.361.407" transform="translate(-59.296 -27.16)" fill="#455a64"/>
            <path id="Trazado_890898" data-name="Trazado 890898" d="M311.1,145.1a1.227,1.227,0,0,0-1.054-.281,2.059,2.059,0,0,0-.826.576,9.443,9.443,0,0,0-2.681,6.527,2.892,2.892,0,0,0,1.193,2.691l1.045-.6c.325-.419,1.293-1.118,1.421-1.632.54-2.162-.235-2.071,1.12-5.82a1.293,1.293,0,0,0-.218-1.457" transform="translate(-60.73 -28.686)" fill="#ae7461"/>
            <path id="Trazado_890899" data-name="Trazado 890899" d="M311.444,148.553a5.155,5.155,0,0,1,1.035-1.364,1.5,1.5,0,0,1,1.377-.411c.722.227,1.073,1.265.99,2.232a8.4,8.4,0,0,1-.9,2.748q-1.285,2.787-2.572,5.575l-.5-.366a.7.7,0,0,1-1.111-.245,2.957,2.957,0,0,1-.245-1.518,14.55,14.55,0,0,1,1.92-6.65" transform="translate(-61.321 -29.07)" fill="#ae7461"/>
            <path id="Trazado_890900" data-name="Trazado 890900" d="M313.184,154.843a13.051,13.051,0,0,1,2.574-3.45,3.168,3.168,0,0,1,1.2-.908,1.124,1.124,0,0,1,1.343.395,1.552,1.552,0,0,1-.182,1.367,63.89,63.89,0,0,1-4.426,7.773l-1.537-1.548c-.7-1.257.441-2.321,1.033-3.629" transform="translate(-61.798 -29.799)" fill="#ae7461"/>
            <path id="Trazado_890901" data-name="Trazado 890901" d="M358.556,174.6l-1.411-.3-7.385-6.295-4.042-3.4a2.464,2.464,0,0,0-1.184-.545l-4-.667a2.274,2.274,0,0,0,1.2,2.743l2.192,1.135,2.006,2.371-.257.513s-13.147,2.04-13.968,3.042a1.367,1.367,0,0,0,.365,2.1,2.128,2.128,0,0,0,1,.091s-.638,1.551,1.277,2.827c0,0-1.459,1.915,1.094,2.827a4.119,4.119,0,0,0,2.188,1.915,94.682,94.682,0,0,0,10.121,1.368c.82,0,9.425.014,9.425.014l1.892.31Z" transform="translate(-65.646 -32.372)" fill="#ae7461"/>
            <path id="Trazado_890902" data-name="Trazado 890902" d="M333.121,178.288a10.484,10.484,0,0,0,3.636.2,14.568,14.568,0,0,0,3.6-.534,17.964,17.964,0,0,0-3.625.122,34.646,34.646,0,0,0-3.608.216" transform="translate(-65.996 -35.243)" fill="#6f4439"/>
            <path id="Trazado_890903" data-name="Trazado 890903" d="M335.089,181.856c0,.059.342.105.889.178s1.306.176,2.162.229a18.733,18.733,0,0,0,2.181-.047,3.507,3.507,0,0,0,.9-.08c.016-.059-.333-.175-.894-.212-.564-.053-1.33-.019-2.16-.074s-1.606-.113-2.168-.107-.909.059-.908.114" transform="translate(-66.386 -36.006)" fill="#6f4439"/>
            <path id="Trazado_890904" data-name="Trazado 890904" d="M336.127,185.32a15.574,15.574,0,0,0,3.545.476,8.445,8.445,0,0,1,2.426.376c.58.218.844.529.9.483.039-.019-.161-.429-.775-.748a6.411,6.411,0,0,0-2.516-.523,15.579,15.579,0,0,0-3.576-.063" transform="translate(-66.592 -36.701)" fill="#6f4439"/>
            <path id="Trazado_890905" data-name="Trazado 890905" d="M384.91,126.725s5.557.959,9.77,9.239c2.329,4.577,13.212,32.1,13.857,34.514,2.762,10.326-2.582,16.982-7.727,17.434-5.663.5-34.951-8.952-34.951-8.952l-.647-12.513,26.716,4.056-12.836-24.915s-.492-16.593,5.817-18.862" transform="translate(-72.354 -25.106)" fill="#ff007f"/>
            <path id="Trazado_890906" data-name="Trazado 890906" d="M407.376,188.156a4.552,4.552,0,0,0-.718-1.668,11.268,11.268,0,0,0-7-5,4.556,4.556,0,0,0-1.811-.137c0,.072.684.122,1.739.42a12.707,12.707,0,0,1,6.83,4.874c.625.9.9,1.536.963,1.508" transform="translate(-78.819 -35.922)" fill="#263238"/>
            <path id="Trazado_890907" data-name="Trazado 890907" d="M393.418,191.725a.44.44,0,0,1-.138-.018l-.4-.086c-.355-.073-.867-.226-1.538-.409-1.335-.387-3.279-.982-5.725-1.761-4.893-1.561-11.806-3.844-19.933-6.594l-.123-.042-.007-.131c-.188-3.6-.395-7.526-.609-11.619l-.014-.256.253.041,6.572,1.063L391.9,175.2l-.2.273L382.832,158.1l-2.487-4.939-.646-1.315a3.069,3.069,0,0,1-.2-.461,3.182,3.182,0,0,1,.257.434l.7,1.289L383.032,158c2.207,4.238,5.32,10.218,9.007,17.3l.173.332-.37-.06-20.154-3.248-6.572-1.067.24-.215c.2,4.094.4,8.02.581,11.622l-.13-.172,19.881,6.736,5.689,1.864c.663.2,1.17.374,1.517.466l.392.116a.484.484,0,0,1,.131.05" transform="translate(-72.298 -29.992)" fill="#263238"/>
            <path id="Trazado_890908" data-name="Trazado 890908" d="M389.4,127.354c.039.067-.756.524-1.864,1.479a15.843,15.843,0,0,0-5.32,9.793c-.2,1.449-.149,2.365-.226,2.368a1.978,1.978,0,0,1-.094-.64,10.225,10.225,0,0,1,.026-1.761,13.82,13.82,0,0,1,.481-2.575,14.745,14.745,0,0,1,3.047-5.608,13.773,13.773,0,0,1,1.9-1.8,10.187,10.187,0,0,1,1.463-.981,1.971,1.971,0,0,1,.588-.27" transform="translate(-75.655 -25.23)" fill="#263238"/>
          </g>
        </g>
        <g id="Grupo_1106881" data-name="Grupo 1106881">
          <g id="Grupo_1106880" data-name="Grupo 1106880" clip-path="url(#clip-path-2)">
            <path id="Trazado_890909" data-name="Trazado 890909" d="M5.629,148.375s-5.9,32.843-5.619,35.913,1.855,7.956,5.417,8.794a16,16,0,0,0,6.84,0l-4.276-40.34Z" transform="translate(0 -29.395)" fill="#ffc09d"/>
            <path id="Trazado_890910" data-name="Trazado 890910" d="M28.411,101.091,28,67.152c-.378-8.439,4.219-15.693,12.665-15.836l.781.032A15.1,15.1,0,0,1,55.913,65.842c.287,7.316.51,15.4.3,19.314-.435,8.094-8.587,9.02-8.587,9.02-.018,0-.051,4.927-.046,7.306l-6.519,9.044v.484Z" transform="translate(-5.542 -10.166)" fill="#ffc09d"/>
            <path id="Trazado_890911" data-name="Trazado 890911" d="M49.908,103.887a19.576,19.576,0,0,1-10.416-3.553s2.285,6.194,10.4,5.8Z" transform="translate(-7.824 -19.878)" fill="#ff9b6c"/>
            <path id="Trazado_890912" data-name="Trazado 890912" d="M59.028,77.875A1.157,1.157,0,0,1,57.864,79,1.107,1.107,0,0,1,56.716,77.9a1.157,1.157,0,0,1,1.162-1.122,1.108,1.108,0,0,1,1.15,1.093" transform="translate(-11.236 -15.212)" fill="#263238"/>
            <path id="Trazado_890913" data-name="Trazado 890913" d="M59.355,73.479c-.149.145-1-.54-2.244-.588-1.244-.067-2.183.536-2.311.378-.064-.071.093-.337.5-.609a3.175,3.175,0,0,1,1.859-.49,3.052,3.052,0,0,1,1.777.656c.37.31.49.588.416.653" transform="translate(-10.854 -14.297)" fill="#263238"/>
            <path id="Trazado_890914" data-name="Trazado 890914" d="M45.166,77.875A1.157,1.157,0,0,1,44,79,1.106,1.106,0,0,1,42.853,77.9a1.158,1.158,0,0,1,1.163-1.122,1.108,1.108,0,0,1,1.15,1.093" transform="translate(-8.49 -15.212)" fill="#263238"/>
            <path id="Trazado_890915" data-name="Trazado 890915" d="M44.126,73.21c-.15.145-1-.54-2.244-.588-1.242-.066-2.182.536-2.311.378-.063-.07.093-.336.5-.609a3.18,3.18,0,0,1,1.857-.49,3.059,3.059,0,0,1,1.779.657c.37.31.488.588.415.652" transform="translate(-7.837 -14.244)" fill="#263238"/>
            <path id="Trazado_890916" data-name="Trazado 890916" d="M50.291,83.122a8.29,8.29,0,0,1,2.037-.281c.319-.019.622-.07.685-.285a1.622,1.622,0,0,0-.173-.951L52,79.146a41.568,41.568,0,0,1-1.85-6.417,41.7,41.7,0,0,1,2.362,6.253c.279.864.546,1.686.8,2.472a1.842,1.842,0,0,1,.114,1.254.8.8,0,0,1-.542.443,2.134,2.134,0,0,1-.543.053,8.06,8.06,0,0,1-2.049-.082" transform="translate(-9.932 -14.409)" fill="#263238"/>
            <path id="Trazado_890917" data-name="Trazado 890917" d="M44.552,68.344c-.182.31-1.376-.073-2.845-.165-1.467-.122-2.7.084-2.839-.249-.059-.159.2-.435.73-.67a4.956,4.956,0,0,1,4.331.316c.488.31.706.621.624.769" transform="translate(-7.699 -13.255)" fill="#263238"/>
            <path id="Trazado_890918" data-name="Trazado 890918" d="M59.506,68.907c-.266.276-1.273-.044-2.491-.091-1.216-.082-2.257.131-2.486-.172-.1-.146.07-.425.528-.681a3.927,3.927,0,0,1,2.038-.41,3.859,3.859,0,0,1,1.973.621c.423.3.557.6.439.732" transform="translate(-10.798 -13.382)" fill="#263238"/>
            <path id="Trazado_890919" data-name="Trazado 890919" d="M27.148,78.5c-.136-.066-5.5-1.876-5.548,3.669s5.525,4.452,5.536,4.293.012-7.962.012-7.962" transform="translate(-4.279 -15.485)" fill="#ffc09d"/>
            <path id="Trazado_890920" data-name="Trazado 890920" d="M25.809,84.782c-.024-.018-.1.067-.261.14a.97.97,0,0,1-.722.008,2.391,2.391,0,0,1-1.086-2.155,3.193,3.193,0,0,1,.283-1.38,1.117,1.117,0,0,1,.734-.735.492.492,0,0,1,.568.27c.072.156.036.265.066.276s.119-.092.077-.322a.614.614,0,0,0-.215-.35.727.727,0,0,0-.532-.146,1.358,1.358,0,0,0-1.017.85,3.274,3.274,0,0,0-.35,1.542,2.506,2.506,0,0,0,1.386,2.407,1.033,1.033,0,0,0,.884-.138c.173-.136.2-.259.184-.269" transform="translate(-4.627 -15.926)" fill="#ff9b6c"/>
            <path id="Trazado_890921" data-name="Trazado 890921" d="M45.409,86.651c.191-.012.2,1.261,1.293,2.16s2.448.752,2.459.93c.018.08-.3.249-.874.267a3.175,3.175,0,0,1-2.053-.7,2.76,2.76,0,0,1-1-1.811c-.051-.532.089-.848.176-.841" transform="translate(-8.959 -17.167)" fill="#263238"/>
            <path id="Trazado_890922" data-name="Trazado 890922" d="M65.053,57.137a1.312,1.312,0,0,0-.609-.774A4.043,4.043,0,0,0,62.375,56a11.674,11.674,0,0,1-5.058-1.331,5.784,5.784,0,0,0,1.5-1.03,3.482,3.482,0,0,0,1.041-3.449.773.773,0,0,0-.429-.535c-.359-.115-.678.236-.933.513a3,3,0,0,1-2.834,1.162,4.91,4.91,0,0,1-2.1-.647c-.024-.025-.045-.053-.069-.078-.285-.3-.563-.589-.837-.867l0,0v0a18.345,18.345,0,0,0-5.678-4.31,18.836,18.836,0,0,0-10.046-.905c-2.831.708-5.392,2.969-5.817,5.856a5.855,5.855,0,0,0-5.88-.619l-.048-.022c-2.155.741-3.4,3-4.059,5.177-.036.119-.067.241-.1.361a8.511,8.511,0,0,1-2.92,2.788c-.209.119-.449.264-.477.5s.17.435.362.576a4.287,4.287,0,0,0,1.729.742,9.591,9.591,0,0,1-.729,1.5c-.247.407-.54.9-.334,1.325a.907.907,0,0,0,.943.424,2.662,2.662,0,0,0,1-.441l-.738,1.711a5.066,5.066,0,0,0,2.337-.129c.433,2.053.732,5.848,1.244,7.242a8.419,8.419,0,0,1,2.57.141c.957.33.571,2.025,1.826,1.556.638-.239,1.642-2.638,1.863-3.284a31.654,31.654,0,0,0,1.523-13.384A10.186,10.186,0,0,1,34.4,54.316l-.1.086c2.276-.762,4.849-1.507,6.988-.419,1.658.845,2.62,2.587,3.851,3.983a11.607,11.607,0,0,0,8.517,4.264c.289,2.451.338,6.455.432,8.74l2-4.549v.018c.161-.266.294-.535.423-.8l.044-.082v-.01a14.3,14.3,0,0,1,.658-1.292l.022.02a1.427,1.427,0,0,0,2.107-1.884,3.232,3.232,0,0,0-.682-.7,2.257,2.257,0,0,0,2.143.582A1.77,1.77,0,0,0,62.08,60.53a1.506,1.506,0,0,0-.884-1.218,5.09,5.09,0,0,0,2.9-.6c.575-.319,1.141-.849.956-1.57" transform="translate(-3.492 -8.756)" fill="#263238"/>
            <path id="Trazado_890923" data-name="Trazado 890923" d="M34.642,53.107a7,7,0,0,0-.823.735,5.833,5.833,0,0,0-1.276,2.68,10.275,10.275,0,0,0-.231,2.059c-.011.747.039,1.548.087,2.392a21.478,21.478,0,0,1,.03,2.661,9.482,9.482,0,0,1-.2,1.4,2.927,2.927,0,0,1-.589,1.355,1.224,1.224,0,0,1-1.149.371,1.822,1.822,0,0,1-1.024-.593,4.209,4.209,0,0,1-.758-2.072l.17.022a6.794,6.794,0,0,1-1.007,1.689,2.414,2.414,0,0,1-1.588.841,1.555,1.555,0,0,1-.835-.156,1.351,1.351,0,0,1-.562-.566,1.4,1.4,0,0,1-.164-.722,1.01,1.01,0,0,1,.268-.628l.085.078a5.225,5.225,0,0,1-1.758,1.288,4.682,4.682,0,0,1-.542.2.9.9,0,0,1-.194.046.947.947,0,0,1,.184-.076c.121-.048.3-.119.526-.229a5.384,5.384,0,0,0,1.7-1.308l.085.078a1.042,1.042,0,0,0-.067,1.205,1.216,1.216,0,0,0,.508.5,1.412,1.412,0,0,0,.757.132,2.266,2.266,0,0,0,1.474-.8,6.68,6.68,0,0,0,.969-1.653l.12-.259.051.282a4.063,4.063,0,0,0,.722,1.979,1.641,1.641,0,0,0,.916.531,1.032,1.032,0,0,0,.977-.315,2.767,2.767,0,0,0,.543-1.268,9.336,9.336,0,0,0,.2-1.372,21.839,21.839,0,0,0-.02-2.639c-.042-.844-.088-1.648-.07-2.4a10.19,10.19,0,0,1,.257-2.087,5.738,5.738,0,0,1,1.353-2.7,3.282,3.282,0,0,1,.876-.685" transform="translate(-4.474 -10.521)" fill="#455a64"/>
            <path id="Trazado_890924" data-name="Trazado 890924" d="M62.7,60.176a.3.3,0,0,1-.066.055l-.2.146a2.707,2.707,0,0,1-.346.216,4.428,4.428,0,0,1-.5.255,7.2,7.2,0,0,1-3.48.585,9.192,9.192,0,0,1-4.876-1.864,15.928,15.928,0,0,1-4.151-4.9c-.579-.989-1.049-2-1.568-2.938a10.77,10.77,0,0,0-1.785-2.491A5.54,5.54,0,0,0,43.407,47.8a3.967,3.967,0,0,0-1.232-.156,4.367,4.367,0,0,0-1.131.2,4.688,4.688,0,0,0-2.633,2.177,5.657,5.657,0,0,0-.433,1.212.284.284,0,0,1,.007-.085l.042-.249a4.075,4.075,0,0,1,.318-.913,4.631,4.631,0,0,1,.922-1.221A4.757,4.757,0,0,1,41,47.717a4.474,4.474,0,0,1,1.168-.222,4.076,4.076,0,0,1,1.281.151,5.673,5.673,0,0,1,2.4,1.472,10.826,10.826,0,0,1,1.824,2.525c.526.943,1,1.953,1.569,2.933a15.936,15.936,0,0,0,4.092,4.851A9.148,9.148,0,0,0,58.12,61.3a7.307,7.307,0,0,0,3.44-.52,11.309,11.309,0,0,0,1.143-.6" transform="translate(-7.524 -9.409)" fill="#455a64"/>
            <path id="Trazado_890925" data-name="Trazado 890925" d="M67.658,58.872a1.322,1.322,0,0,1-.294.2,6.258,6.258,0,0,1-.867.427,8.292,8.292,0,0,1-1.369.432,8.841,8.841,0,0,1-3.5.073,8.36,8.36,0,0,1-1.385-.376,6.288,6.288,0,0,1-.884-.391,1.313,1.313,0,0,1-.3-.187c.017-.032.462.2,1.228.451a9.615,9.615,0,0,0,1.373.33,9.443,9.443,0,0,0,3.435-.071,9.571,9.571,0,0,0,1.358-.387c.755-.279,1.191-.533,1.209-.5" transform="translate(-11.7 -11.663)" fill="#455a64"/>
            <path id="Trazado_890926" data-name="Trazado 890926" d="M38.907,380.082l-.8,18.328s18.36,6.97,18.542,10.372L21.055,408.5l.076-28.609Z" transform="translate(-4.171 -75.263)" fill="#455a64"/>
            <path id="Trazado_890927" data-name="Trazado 890927" d="M28.349,400.94a1.454,1.454,0,0,0-1.018,1.651,1.4,1.4,0,0,0,1.628,1.023,1.532,1.532,0,0,0,1.069-1.754,1.448,1.448,0,0,0-1.811-.876" transform="translate(-5.409 -79.421)" fill="#e0e0e0"/>
            <g id="Grupo_1106873" data-name="Grupo 1106873" transform="translate(16.884 330.357)" opacity="0.6">
              <g id="Grupo_1106872" data-name="Grupo 1106872">
                <g id="Grupo_1106871" data-name="Grupo 1106871" clip-path="url(#clip-path-12)">
                  <path id="Trazado_890928" data-name="Trazado 890928" d="M21.055,414.86l.12-2.884,34.081,1.344s1.579.7,1.391,1.817Z" transform="translate(-21.055 -411.976)" fill="#fff"/>
                </g>
              </g>
            </g>
            <path id="Trazado_890929" data-name="Trazado 890929" d="M42.234,402.723c-.007.174-.876.246-1.736.8-.874.53-1.321,1.279-1.48,1.209-.16-.035.107-1.072,1.16-1.722s2.1-.444,2.057-.285" transform="translate(-7.722 -79.753)" fill="#263238"/>
            <path id="Trazado_890930" data-name="Trazado 890930" d="M47.093,404.708c.038.168-.716.459-1.313,1.189-.617.713-.772,1.507-.945,1.5-.164.026-.276-.993.483-1.887s1.773-.965,1.775-.8" transform="translate(-8.859 -80.165)" fill="#263238"/>
            <path id="Trazado_890931" data-name="Trazado 890931" d="M50.23,409.58c-.158.036-.393-.835.061-1.783s1.269-1.321,1.342-1.176c.1.144-.435.65-.8,1.435-.378.775-.435,1.508-.607,1.524" transform="translate(-9.911 -80.552)" fill="#263238"/>
            <path id="Trazado_890932" data-name="Trazado 890932" d="M41.774,397.372c-.074.158-.87-.088-1.852-.029-.985.039-1.751.362-1.841.212-.1-.126.652-.763,1.811-.817s1.969.5,1.883.633" transform="translate(-7.543 -78.599)" fill="#263238"/>
            <path id="Trazado_890933" data-name="Trazado 890933" d="M43.157,397.271a29.8,29.8,0,0,1,.049,4.414l-.142-.217c2.078.789,4.843,1.854,7.78,3.239a41.748,41.748,0,0,1,7.887,4.543,8.433,8.433,0,0,1,1.951,1.987c.37.571.321,1.009.263.987a2.482,2.482,0,0,0-.454-.855,9.913,9.913,0,0,0-2.014-1.783,51.676,51.676,0,0,0-7.886-4.339c-2.917-1.376-5.652-2.488-7.692-3.362l-.151-.065.009-.152a29.77,29.77,0,0,1,.4-4.4" transform="translate(-8.469 -78.705)" fill="#263238"/>
            <path id="Trazado_890934" data-name="Trazado 890934" d="M14.614,220.75v16.61L21.166,290.4s-2.077,24.875-3.352,38.916c-1.107,12.2.7,33.431.7,33.431H37.943l6.951-70.825,4.314-44.17,7.825-26.164Z" transform="translate(-2.895 -43.734)" fill="#263238"/>
            <path id="Trazado_890935" data-name="Trazado 890935" d="M51.624,375.085,46.536,392.71S62.743,403.8,62.12,407.15l-34.53-8.638,6.8-27.789Z" transform="translate(-5.466 -73.446)" fill="#455a64"/>
            <path id="Trazado_890936" data-name="Trazado 890936" d="M38.029,392.942a1.452,1.452,0,0,0-1.378,1.365,1.4,1.4,0,0,0,1.342,1.378,1.534,1.534,0,0,0,1.451-1.454,1.45,1.45,0,0,0-1.554-1.277" transform="translate(-7.261 -77.845)" fill="#e0e0e0"/>
            <g id="Grupo_1106876" data-name="Grupo 1106876" transform="translate(22.124 322.292)" opacity="0.6">
              <g id="Grupo_1106875" data-name="Grupo 1106875">
                <g id="Grupo_1106874" data-name="Grupo 1106874" clip-path="url(#clip-path-13)">
                  <path id="Trazado_890937" data-name="Trazado 890937" d="M27.59,404.693l.795-2.774,32.81,9.319s1.37,1.054.925,2.093Z" transform="translate(-27.59 -401.919)" fill="#fff"/>
                </g>
              </g>
            </g>
            <path id="Trazado_890938" data-name="Trazado 890938" d="M51.075,398.008c-.047.168-.91.033-1.875.367-.974.31-1.585.933-1.723.828-.147-.072.357-1.017,1.532-1.4s2.141.061,2.066.207" transform="translate(-9.401 -78.779)" fill="#263238"/>
            <path id="Trazado_890939" data-name="Trazado 890939" d="M55.306,401.06c0,.173-.8.277-1.555.847-.768.548-1.106,1.283-1.272,1.233-.165-.013-.034-1.03.913-1.72s1.951-.522,1.914-.36" transform="translate(-10.385 -79.427)" fill="#263238"/>
            <path id="Trazado_890940" data-name="Trazado 890940" d="M57.208,406.5c-.162,0-.186-.9.478-1.718s1.544-.986,1.581-.827c.061.162-.575.529-1.11,1.207-.551.665-.777,1.364-.949,1.338" transform="translate(-11.315 -80.019)" fill="#263238"/>
            <path id="Trazado_890941" data-name="Trazado 890941" d="M51.962,392.652c-.109.136-.824-.29-1.794-.463-.965-.194-1.787-.059-1.839-.226-.067-.146.813-.589,1.952-.368s1.8.946,1.681,1.058" transform="translate(-9.574 -77.569)" fill="#263238"/>
            <path id="Trazado_890942" data-name="Trazado 890942" d="M67.2,222.163l.892,9.034-1.077,65.6-15.375,52.7-3.725,12.78-19.844-3.737,15.3-136.354Z" transform="translate(-5.562 -44.014)" fill="#263238"/>
            <path id="Trazado_890943" data-name="Trazado 890943" d="M66.55,302.726s-.021.107-.075.312l-.25.91-1,3.529c-.888,3.09-2.181,7.583-3.81,13.248L48.032,366.877l-.044.152L47.832,367l-19.845-3.728-.182-.034.034-.182c1.013-5.347,2.07-10.934,3.15-16.632l8.87-46.7v.057c-3.286-20.629-5.907-37.081-7.412-46.526l.009.025-3.314-6.029-.845-1.559c-.188-.351-.275-.536-.275-.536s.111.171.31.516l.88,1.54,3.378,5.993.006.012,0,.014,7.588,46.5,0,.029-.006.029-8.83,46.7c-1.08,5.7-2.139,11.285-3.154,16.632l-.147-.216L47.9,366.657l-.2.123c5.5-18.762,10.19-34.777,13.512-46.114,1.67-5.652,2.994-10.136,3.905-13.22l1.054-3.513.278-.9c.064-.2.1-.3.1-.3" transform="translate(-5.509 -48.57)" fill="#455a64"/>
            <path id="Trazado_890944" data-name="Trazado 890944" d="M69.756,228.871a6.237,6.237,0,0,1-1.08,1.585,14.613,14.613,0,0,1-7.814,4.762,6.2,6.2,0,0,1-1.9.233,21.394,21.394,0,0,0,6-2.305,21.435,21.435,0,0,0,4.8-4.274" transform="translate(-11.68 -45.342)" fill="#455a64"/>
            <path id="Trazado_890945" data-name="Trazado 890945" d="M122.724,105.124a.839.839,0,0,0-.187-1.157.414.414,0,0,0-.3-.087c-.4.066-1.443.829-2.248.843s-2.174-.233-2.979.514-2.767,4.847-3.017,5.736-1.122,8.707-1.122,8.707Z" transform="translate(-22.362 -20.579)" fill="#ffc09d"/>
            <path id="Trazado_890946" data-name="Trazado 890946" d="M125.768,104.154c-.043.049-9.631,4.28-13.841,6.138a1.431,1.431,0,0,0-.41,2.349,1.5,1.5,0,0,0,1.714.266l13.759-6.7,1.134-1.723Z" transform="translate(-22.005 -20.634)" fill="#263238"/>
            <path id="Trazado_890947" data-name="Trazado 890947" d="M115.529,112.77l3.056-2.252,4.037-5.857s1.653-.982,2.509-.363,1.135,1.334.738,2.134c0,0,2.28.544,2.443,1.308a8.723,8.723,0,0,1-.33,2.621,4.6,4.6,0,0,1,.017,2.182,3.508,3.508,0,0,0-.288,1.408,4.278,4.278,0,0,1,.842,3.656c-.634,1.848-3.3,5.972-4.723,7.039a30.97,30.97,0,0,1-4.122,2.344l-1.762,3.69-7.311-6.619Z" transform="translate(-21.919 -20.623)" fill="#ffc09d"/>
            <path id="Trazado_890948" data-name="Trazado 890948" d="M123.934,105.116a1.7,1.7,0,0,1-.183.316l-.545.829c-.465.7-1.116,1.653-1.844,2.7l-1.031,1.479a3.681,3.681,0,0,1-.524.6,2.545,2.545,0,0,1-.586.38,4.845,4.845,0,0,1-.947.318,1.651,1.651,0,0,1-.359.066,1.851,1.851,0,0,1,.344-.122,5.976,5.976,0,0,0,.916-.356c.788-.331,1.312-1.432,2.066-2.452.727-1.051,1.392-2,1.88-2.68l.584-.8a1.751,1.751,0,0,1,.231-.283" transform="translate(-23.361 -20.825)" fill="#ff9b6c"/>
            <path id="Trazado_890949" data-name="Trazado 890949" d="M126.592,111.592a22.519,22.519,0,0,1,1.178-2.3,22.338,22.338,0,0,1,1.309-2.23,22.61,22.61,0,0,1-1.178,2.3,22.447,22.447,0,0,1-1.309,2.23" transform="translate(-25.079 -21.21)" fill="#ff9b6c"/>
            <path id="Trazado_890950" data-name="Trazado 890950" d="M127.38,116.961c-.023,0-.034-.132-.109-.322a1.349,1.349,0,0,0-.476-.611,1.378,1.378,0,0,0-.74-.236c-.2-.006-.332.027-.339,0s.114-.087.336-.11a1.268,1.268,0,0,1,.828.219,1.243,1.243,0,0,1,.491.7c.055.217.026.354.009.354" transform="translate(-24.906 -22.918)" fill="#ff9b6c"/>
            <path id="Trazado_890951" data-name="Trazado 890951" d="M131.5,118.41c-.014.016-.127-.068-.3-.207a3.59,3.59,0,0,0-.714-.467,1.369,1.369,0,0,0-.807-.132.818.818,0,0,0-.3.154c-.022,0,.034-.176.273-.256a1.276,1.276,0,0,1,.9.1,2.513,2.513,0,0,1,.723.524c.16.161.245.271.232.285" transform="translate(-25.63 -23.271)" fill="#ff9b6c"/>
            <path id="Trazado_890952" data-name="Trazado 890952" d="M130.389,114.229a12.666,12.666,0,0,1,1.467-2.317,12.663,12.663,0,0,1-1.467,2.317" transform="translate(-25.832 -22.171)" fill="#ff9b6c"/>
            <path id="Trazado_890953" data-name="Trazado 890953" d="M122.712,114.835c-.023,0-.02-.127-.076-.309a1.149,1.149,0,0,0-.413-.59,1.183,1.183,0,0,0-.69-.213c-.192,0-.31.04-.318.018s.1-.094.31-.123a1.1,1.1,0,0,1,.785.2,1.083,1.083,0,0,1,.428.687c.034.208-.01.336-.026.333" transform="translate(-24.014 -22.508)" fill="#ff9b6c"/>
            <path id="Trazado_890954" data-name="Trazado 890954" d="M112.894,114.529c-.017-.02.132-.134.264-.388a1.322,1.322,0,0,0,.071-1.062,1.4,1.4,0,0,0-.76-.753c-.265-.11-.452-.106-.451-.132a.734.734,0,0,1,.488.032,1.39,1.39,0,0,1,.864.8,1.326,1.326,0,0,1-.119,1.168c-.168.262-.349.35-.355.336" transform="translate(-22.192 -22.223)" fill="#455a64"/>
            <path id="Trazado_890955" data-name="Trazado 890955" d="M77.008,135.384l11.6,9.924,14.234-21.264,9.255,5.459s-13.872,31.932-17.631,34.753-6.931,2.09-11.768-.144-22.065-19.58-22.065-19.58Z" transform="translate(-12.012 -24.575)" fill="#ffc09d"/>
            <path id="Trazado_890956" data-name="Trazado 890956" d="M95.907,159.352c-.114-.018.2-2.022.062-4.5-.124-2.479-.652-4.438-.541-4.467a15.262,15.262,0,0,1,.48,8.967" transform="translate(-18.903 -29.793)" fill="#ff9b6c"/>
            <path id="Trazado_890957" data-name="Trazado 890957" d="M17.67,117.854s9.858.143,10,12.429-2.51,28.723-2.51,28.723L0,154.571S3.121,131.7,5.786,125.11c2.682-6.63,7.8-8.373,11.884-7.256" transform="translate(0 -23.286)" fill="#8000ff"/>
            <path id="Trazado_890958" data-name="Trazado 890958" d="M24.208,106.9l-.314,2s-13.448,8.885-14.208,11.179c-1.18,3.556,1.392,33.593,2.527,42.105s1.365,27.275,1.365,27.275a26.058,26.058,0,0,0-2.074,7.287c-.308,3.058,2.074,5.848,2.074,5.848,14.429,4.709,32.055,1.094,51.124-3.254l-.18-5.406-6.234-58.723s1.816-15.263-5.629-19.681c-.818-.485-7.313-4.175-7.313-4.175Z" transform="translate(-1.859 -21.179)" fill="#8000ff"/>
            <g id="Grupo_1106879" data-name="Grupo 1106879" transform="translate(43.973 111.179)" opacity="0.3">
              <g id="Grupo_1106878" data-name="Grupo 1106878">
                <g id="Grupo_1106877" data-name="Grupo 1106877" clip-path="url(#clip-path-14)">
                  <path id="Trazado_890959" data-name="Trazado 890959" d="M54.837,138.647a45.535,45.535,0,0,0,4.43,18.114,53.669,53.669,0,0,0,11.312,15.7l-2.018-17.571Z" transform="translate(-54.837 -138.647)"/>
                </g>
              </g>
            </g>
            <path id="Trazado_890960" data-name="Trazado 890960" d="M65.609,119.64c-2.358-1.908-6.742-2.945-9.244-1.229a7.533,7.533,0,0,0-3.035,3.737c-2.135,6.244-.859,12.958.85,17.941s9.966,14.58,9.966,14.58l20.4-12.383s-13.655-16.552-15.079-18.261a36.034,36.034,0,0,0-3.859-4.384" transform="translate(-10.343 -23.287)" fill="#8000ff"/>
            <path id="Trazado_890961" data-name="Trazado 890961" d="M65.573,119.619a3.582,3.582,0,0,1,.431.344,15.038,15.038,0,0,1,1.125,1.143c.945,1.041,2.192,2.665,3.875,4.642l13.638,16.408.124.149-.167.1L65.323,154.13l-1.116.678-.136.083-.1-.121c-2.281-2.7-4.4-5.407-6.3-8.134a43.5,43.5,0,0,1-2.6-4.147,17.291,17.291,0,0,1-1-2.167c-.273-.737-.492-1.476-.708-2.209-1.7-5.859-1.747-11.607-.193-15.98a6.532,6.532,0,0,1,6.785-4.685,9.42,9.42,0,0,1,2.112.361,10.02,10.02,0,0,1,2.7,1.192,4.84,4.84,0,0,1,.821.619c-.016.022-.281-.217-.86-.556a10.5,10.5,0,0,0-2.7-1.118,9.377,9.377,0,0,0-2.083-.323,6.777,6.777,0,0,0-2.463.321,7.335,7.335,0,0,0-4.066,4.272c-1.5,4.324-1.433,10,.274,15.8.217.724.437,1.463.708,2.185a16.811,16.811,0,0,0,.989,2.116,43.477,43.477,0,0,0,2.589,4.109c1.9,2.709,4.018,5.415,6.288,8.1l-.238-.038,1.116-.678,19.295-11.69-.043.251L70.85,125.878c-1.662-2-2.888-3.645-3.8-4.7-.455-.53-.824-.92-1.083-1.173s-.4-.374-.394-.384" transform="translate(-10.308 -23.266)" fill="#263238"/>
            <path id="Trazado_890962" data-name="Trazado 890962" d="M9.427,131.822a1.309,1.309,0,0,1,.059.356c.026.277.056.615.094,1.024.069.949.161,2.223.273,3.773.205,3.239.483,7.614.79,12.449.318,4.862.652,9.259.941,12.437.144,1.546.262,2.818.35,3.763.036.409.066.747.09,1.025a1.324,1.324,0,0,1,.006.361,1.311,1.311,0,0,1-.08-.351c-.043-.275-.1-.611-.16-1.017-.129-.884-.3-2.167-.468-3.755-.356-3.175-.732-7.574-1.05-12.438s-.536-9.27-.681-12.46c-.063-1.552-.115-2.829-.155-3.778-.01-.411-.018-.751-.024-1.029a1.313,1.313,0,0,1,.017-.36" transform="translate(-1.864 -26.116)" fill="#263238"/>
            <path id="Trazado_890963" data-name="Trazado 890963" d="M56.166,220.749a1.553,1.553,0,0,1-.378.118l-1.1.268c-.478.118-1.067.241-1.755.369s-1.467.286-2.337.416c-1.734.3-3.817.541-6.134.767-2.318.194-4.875.337-7.56.37s-5.246-.073-7.568-.227c-2.32-.188-4.407-.4-6.145-.68-.872-.12-1.655-.265-2.342-.4s-1.278-.243-1.756-.361l-1.1-.265a1.628,1.628,0,0,1-.378-.117,1.562,1.562,0,0,1,.395.043l1.114.2c.481.1,1.074.194,1.763.3s1.471.237,2.343.341c1.736.248,3.819.43,6.131.6,2.315.134,4.864.216,7.541.2s5.223-.165,7.535-.34c2.309-.206,4.389-.421,6.123-.685.87-.113,1.653-.245,2.34-.361s1.281-.21,1.762-.306l1.114-.2a1.625,1.625,0,0,1,.395-.045" transform="translate(-3.489 -43.733)" fill="#263238"/>
          </g>
        </g>
      </g>
    </g>
  </g>
</svg>
