<svg xmlns="http://www.w3.org/2000/svg" width="54.353" height="78.114" viewBox="0 0 54.353 78.114">
  <g id="Grupo_1108948" data-name="Grupo 1108948" transform="translate(-180 -2715.886)">
    <circle id="Elipse_11490" data-name="Elipse 11490" cx="26" cy="26" r="26" transform="translate(180 2742)" fill="#0ac675"/>
    <path id="matraz" d="M81.822,28.415V37.9a5.6,5.6,0,0,1-1.184,3.436l-.391.5A1.115,1.115,0,0,0,82,43.206l.391-.5a7.843,7.843,0,0,0,1.658-4.81V28.439h9.061a3.764,3.764,0,1,0,0-7.528H82.24a3.764,3.764,0,0,0-.418,7.5Zm.418-5.273H93.114a1.533,1.533,0,1,1,0,3.067H82.24a1.533,1.533,0,1,1,0-3.067ZM104.7,54.095c3.893,4.977.589,12.819-6.149,12.819H76.8c-6.812,0-10-7.892-6.149-12.819,6.786-8.676,6.368-8.155,6.481-8.257a1.117,1.117,0,0,1,1.377-.094c4.8,3.281,7.649-.043,11.431-1.425a1.115,1.115,0,0,1,.766,2.095c-2.885,1.054-5.05,3.211-8.692,2.933a9.346,9.346,0,0,1-3.871-1.208l-5.734,7.331C69.647,59,71.943,64.684,76.8,64.684H98.55c4.9,0,7.133-5.711,4.392-9.215L92.959,42.705A7.843,7.843,0,0,1,91.3,37.9V32.014a1.115,1.115,0,1,1,2.23,0V37.9a5.6,5.6,0,0,0,1.184,3.436Zm-9.076,1.179a3,3,0,1,0-5.994,0,1.115,1.115,0,1,1-2.23,0A5.228,5.228,0,1,1,92.626,60.5a1.115,1.115,0,0,1,0-2.23A3,3,0,0,0,95.623,55.274Zm-15.613,3a1.812,1.812,0,1,0,1.812-1.812A1.814,1.814,0,0,0,80.01,58.271Zm5.5-40.624c-2.073-2.965-1.673-6.925,1.621-8.116a5.751,5.751,0,0,1,8.043-4.308,1.115,1.115,0,1,1-.912,2.035,3.5,3.5,0,0,0-4.966,3.14,1.115,1.115,0,0,1-.911,1.1c-2.354.44-2.363,2.992-1.048,4.873a1.115,1.115,0,1,1-1.828,1.278Zm31.158-8.8a8.549,8.549,0,0,1-8.128,8.169,8.449,8.449,0,0,1-7.5-3.851,1.941,1.941,0,0,0-3.162.163,5.212,5.212,0,0,1-5.585,2.785.873.873,0,0,0-.753.168c-.035.038-.142.154-.067.472a1.116,1.116,0,0,1-1.086,1.373c-2.066,0-1.486-4.815,2.259-4.215a3,3,0,0,0,3.257-1.62,4.164,4.164,0,0,1,7-.346,6.281,6.281,0,1,0,.1-7,1.115,1.115,0,0,1-1.757.1,3.134,3.134,0,0,0-2.361-1.076,1.115,1.115,0,0,1,0-2.23,5.359,5.359,0,0,1,3.07.967,8.523,8.523,0,0,1,14.718,6.146Z" transform="translate(117.68 2715.886)" fill="#12263f"/>
  </g>
</svg>
