<svg xmlns="http://www.w3.org/2000/svg" width="83.303" height="92" viewBox="0 0 83.303 92">
  <g id="Artboard_10" data-name="Artboard 10" transform="translate(-3.861 -1)">
    <rect id="Rectángulo_406044" data-name="Rectángulo 406044" width="14.839" height="2.968" transform="translate(20.39 32.161)" fill="#0ac675"/>
    <path id="Trazado_899476" data-name="Trazado 899476" d="M86.926,80.328l-13.117-20.4V36.613h2.968a1.484,1.484,0,0,0,1.484-1.484V29.194a1.484,1.484,0,0,0-1.484-1.484H70.233L63.7,15.957l2.834-3.828A5.906,5.906,0,1,0,64.357,10.1L61.2,14.355H49.859a5.935,5.935,0,1,0-9.808,5.772L35.837,27.71H19.514l-4.452-4.452A6.01,6.01,0,1,0,12.97,25.38l4.066,4.066L10.2,41.821a1.484,1.484,0,0,0,0,1.484l6.87,12.375-4.1,4.036a6.01,6.01,0,1,0,2.122,2.122l4.452-4.452h11.47a5.935,5.935,0,0,0,5.7,4.452,6.069,6.069,0,0,0,1.484-.208l4.1,7.419-4.1,4.021a6.01,6.01,0,1,0,2.122,2.122l4.452-4.452h7.271l-6.158,9.586a1.484,1.484,0,0,0-.267.8v7.419a1.484,1.484,0,0,0,.43,1.054l2.968,2.968a1.484,1.484,0,0,0,1.054.43H82.712a1.484,1.484,0,0,0,1.054-.43L86.734,89.6a1.484,1.484,0,0,0,.43-1.054V81.129a1.484,1.484,0,0,0-.237-.8ZM69.357,3.968A2.968,2.968,0,1,1,66.39,6.936,2.968,2.968,0,0,1,69.357,3.968Zm-25.226,8.9a2.968,2.968,0,1,1-2.968,2.968A2.968,2.968,0,0,1,44.132,12.871Zm0,8.9H60.454V18.806H49.236a5.713,5.713,0,0,0,.623-1.484h11.2L66.835,27.71H56a1.484,1.484,0,0,0-1.484,1.484v5.935A1.484,1.484,0,0,0,56,36.613H58.97v4.452H45.007L38.4,29.194l4.244-7.627a6.069,6.069,0,0,0,1.484.208ZM7.035,20.29A2.968,2.968,0,1,1,10,23.258,2.968,2.968,0,0,1,7.035,20.29ZM10,67.774a2.968,2.968,0,1,1,2.968-2.968A2.968,2.968,0,0,1,10,67.774ZM30.985,54.419h-11.2l-6.6-11.871,6.6-11.871H35.837l6.6,11.871L38.2,50.175a6.069,6.069,0,0,0-1.484-.208A5.935,5.935,0,0,0,30.985,54.419Zm2.76,1.484a2.968,2.968,0,1,1,2.968,2.968A2.968,2.968,0,0,1,33.745,55.9Zm1.484,25.226A2.968,2.968,0,1,1,38.2,78.161,2.968,2.968,0,0,1,35.228,81.129Zm9.779-13.355-4.214-7.583a5.935,5.935,0,0,0,0-8.577l4.214-7.583H58.97v1.484H45.616v2.968H58.97V59.925l-5.045,7.85ZM84.2,87.94,82.1,90.032H50.676L48.583,87.94V81.559L61.7,61.156a1.484,1.484,0,0,0,.237-.8V36.613h5.935V33.645H57.487V30.677H75.293v2.968H72.325a1.484,1.484,0,0,0-1.484,1.484V38.1H66.39v2.968h4.452v1.484H63.422v2.968h7.419V47H66.39v2.968h4.452v1.484H63.422v2.968h7.419V55.9H66.39v2.968h4.452v1.484a1.484,1.484,0,0,0,.237.8L84.2,81.559Z" transform="translate(0 0)" fill="#0ac675"/>
    <path id="Trazado_899477" data-name="Trazado 899477" d="M43.642,46.7,36.223,58.568a1.484,1.484,0,0,0-.223.786V65.29a1.484,1.484,0,0,0,1.484,1.484h26.71a1.484,1.484,0,0,0,1.484-1.484V59.355a1.484,1.484,0,0,0-.223-.786L58.035,46.7a1.484,1.484,0,0,0-1.261-.7H44.9A1.484,1.484,0,0,0,43.642,46.7Zm12.316,2.27L62.71,59.785v4.021H38.968V59.785l6.752-10.817Z" transform="translate(15.551 21.774)" fill="#0ac675"/>
  </g>
</svg>
