<svg xmlns="http://www.w3.org/2000/svg" xmlns:xlink="http://www.w3.org/1999/xlink" width="134" height="134" viewBox="0 0 134 134">
  <defs>
    <clipPath id="clip-path">
      <rect id="Rectángulo_405119" data-name="Rectángulo 405119" width="85" height="85" transform="translate(996.051 3427)" fill="#8000ff"/>
    </clipPath>
  </defs>
  <g id="Grupo_1106888" data-name="Grupo 1106888" transform="translate(-971.051 -3402)">
    <circle id="Elipse_11595" data-name="Elipse 11595" cx="67" cy="67" r="67" transform="translate(971.051 3402)" fill="#0ac675"/>
    <g id="Enmascarar_grupo_1098703" data-name="Enmascarar grupo 1098703" clip-path="url(#clip-path)">
      <g id="observacion" transform="translate(996.051 3427)">
        <g id="Grupo_1106887" data-name="Grupo 1106887">
          <path id="Trazado_890965" data-name="Trazado 890965" d="M81.233,45.793A17.193,17.193,0,0,0,72.3,39.966l-2.2-5.5,3.131-4.384A19.021,19.021,0,0,0,57.753,0,39.988,39.988,0,0,0,43.665,2.555l-2.221.833a4.806,4.806,0,0,0-2.41-.646H34.607a7.187,7.187,0,0,0-7.094,8.344l-.091.061A6.164,6.164,0,0,0,30.16,22.4l5.85.65c.057.181.119.36.19.537l.483,1.207a3.063,3.063,0,0,0-.819,3.436l2.243,5.609a2.859,2.859,0,0,0,2.667,1.806c.082,0,.163,0,.244-.012l.6,1.491a10.682,10.682,0,0,0,9.965,6.746h.752a10.652,10.652,0,0,0,6.275-2.023l2.531,4.218a17.187,17.187,0,0,0-3.558,10.444V68.548H46.613c-.047,0-.093,0-.139.007a6.855,6.855,0,0,0,.139-1.378A26.262,26.262,0,0,0,24.677,41.312v-.183c0-.279-.014-.554-.034-.828l9.038-3.013A2.872,2.872,0,0,0,35.44,33.5l-2.257-5.643a2.858,2.858,0,0,0-2.667-1.805h-.036a2.852,2.852,0,0,0-1.166.248L18.321,31.181a10.9,10.9,0,0,0-4.611-1.02A11.012,11.012,0,0,0,3.075,38.45,2.871,2.871,0,0,0,1.1,39.984L.3,41.566a2.891,2.891,0,0,0,.747,3.523L.206,47.206A2.856,2.856,0,0,0,0,48.273v.154A2.857,2.857,0,0,0,1.588,51l1.595.8a2.876,2.876,0,0,0,2.39.083,2.854,2.854,0,0,0,1.5,1.862l1.595.8a2.877,2.877,0,0,0,2.39.083,2.854,2.854,0,0,0,1.5,1.862l1.595.8a2.872,2.872,0,0,0,3.952-1.5l1.634-4.084a2.867,2.867,0,0,0,.879-.816l.9.09a14.741,14.741,0,0,1,12.258,9.357H2.742A2.746,2.746,0,0,0,0,63.065v2.742a2.745,2.745,0,0,0,2.742,2.742h30.3a6.867,6.867,0,0,0,2.609,4.113,6.867,6.867,0,0,0-2.609,4.113H21.935V74.032a2.745,2.745,0,0,0-2.742-2.742H10.968a2.745,2.745,0,0,0-2.742,2.742v2.742H2.742A2.745,2.745,0,0,0,0,79.516v2.742A2.745,2.745,0,0,0,2.742,85H85V56.511A17.189,17.189,0,0,0,81.233,45.793ZM27.419,16.275a3.413,3.413,0,0,1,1.1-2.516,7.241,7.241,0,0,0,1,1.253l1.038,1.038L32.5,14.111l-1.038-1.038a4.446,4.446,0,0,1,3.144-7.589h4.427a2.1,2.1,0,0,1,2.095,2.095,2.018,2.018,0,0,1-3.823.9l-.434-.868L34.419,8.839l.434.868a4.76,4.76,0,0,0,9.018-2.129,4.8,4.8,0,0,0-.438-2.008l1.195-.448a37.255,37.255,0,0,1,13.126-2.38A16.279,16.279,0,0,1,71,28.483l-3.052,4.273a11.08,11.08,0,0,1-7.163-4.884,6.148,6.148,0,0,0,2.28-4.8,6.22,6.22,0,0,0-.653-2.767l-.058-.116a2.981,2.981,0,0,0,.711-1.928V18.2a2.989,2.989,0,0,0-.314-1.331l-.758-1.516a2.96,2.96,0,0,0-2.662-1.645A2.991,2.991,0,0,0,58,14.023l-1.862.931A7.411,7.411,0,0,0,50.5,12.338h-.058a7.361,7.361,0,0,0-2.593.47L38.488,16.32a2.059,2.059,0,0,1-2.565-1.007l-.423-.846-2.453,1.226.423.846a4.778,4.778,0,0,0,2.412,2.272,7.815,7.815,0,0,0-.224,1.441l-5.2-.577A3.418,3.418,0,0,1,27.419,16.275Zm11.687,7.2-.36-.9a5,5,0,0,1-.1-3.459,4.8,4.8,0,0,0,.8-.223l9.364-3.511a4.625,4.625,0,0,1,1.631-.3H50.5a4.658,4.658,0,0,1,3.066,1.158Zm-.7,3.742a.32.32,0,0,1,.154-.4L59.226,16.476a.234.234,0,0,1,.314.1L60.3,18.1a.234.234,0,0,1,.025.1v.061a.235.235,0,0,1-.118.2l-9.479,5.416v.8A5.256,5.256,0,0,1,47.805,29.4L40.833,32.89a.134.134,0,0,1-.179-.068ZM57.982,38.789a7.938,7.938,0,0,1-5.65,2.34H51.58a7.952,7.952,0,0,1-7.419-5.023l-.605-1.513,5.476-2.738a7.976,7.976,0,0,0,4.4-6.359l6.617-3.781a3.463,3.463,0,0,1,.279,1.357,3.426,3.426,0,0,1-1.9,3.081l-1.306.653.613,1.226a13.817,13.817,0,0,0,9.711,7.417l.115.023,1.9,4.741a17.221,17.221,0,0,0-6.38,3.74l-3.844-6.407Zm-8.627,32.5V82.258H46.613V71.29ZM30.428,28.8a.131.131,0,0,1,.052-.011h.036a.13.13,0,0,1,.121.082l2.257,5.643a.132.132,0,0,1,.009.048.13.13,0,0,1-.089.123l-2.4.8-2.4-5.61ZM25.5,30.991l2.3,5.367-3.71,1.237a11,11,0,0,0-3.054-4.619ZM13.71,32.9a8.235,8.235,0,0,1,8.226,8.226H10.968L5.773,38.965A8.259,8.259,0,0,1,13.71,32.9ZM2.758,42.793l.791-1.582a.147.147,0,0,1,.132-.082h.129a.15.15,0,0,1,.057.011L19.1,47.489a.148.148,0,0,1,.075.2l-.791,1.582a.147.147,0,0,1-.132.082h-.129a.148.148,0,0,1-.057-.011L2.833,42.995a.148.148,0,0,1-.075-.2Zm1.652,6.549-1.595-.8a.13.13,0,0,1-.072-.117v-.154a.132.132,0,0,1,.009-.048l.786-1.966,1.934.806-.883,2.208A.133.133,0,0,1,4.409,49.341Zm5.484,2.742-1.595-.8a.13.13,0,0,1-.072-.117v-.154a.132.132,0,0,1,.009-.048l.943-2.357,1.934.806-1.04,2.6A.133.133,0,0,1,9.893,52.083Zm5.484,2.742-1.595-.8a.13.13,0,0,1-.072-.117v-.154a.132.132,0,0,1,.009-.048l1.1-2.749,1.934.806-1.2,2.991A.133.133,0,0,1,15.377,54.825Zm6.49-6.579a2.882,2.882,0,0,0-1.709-3.288l-2.609-1.087h5.672l.085.011a23.528,23.528,0,0,1,19.788,17.31,6.81,6.81,0,0,0-3.336-.87H36.678A17.483,17.483,0,0,0,21.867,48.246ZM2.742,63.065H34.278a6.828,6.828,0,0,0-1.237,2.742H2.742Zm32.9,4.113a4.113,4.113,0,1,1,4.113,4.113A4.118,4.118,0,0,1,35.645,67.177ZM10.968,74.032h8.226v2.742H10.968ZM2.742,79.516h30.3a6.827,6.827,0,0,0,1.237,2.742H2.742Zm32.9-1.371a4.118,4.118,0,0,1,4.113-4.113h4.113v8.226H39.758A4.118,4.118,0,0,1,35.645,78.145Zm46.613,4.113H74.921a12.319,12.319,0,0,0,4.6-9.6V54.035a6.012,6.012,0,0,0-1.773-4.279L75.8,51.695a3.287,3.287,0,0,1,.97,2.34V72.661a9.607,9.607,0,0,1-9.6,9.6H52.1V71.29H66.61a3.288,3.288,0,0,1,2.34.97l1.939-1.939a6.012,6.012,0,0,0-4.279-1.773h-.8V58.72A12.812,12.812,0,0,1,72,47.788l-1.411-2.351A15.569,15.569,0,0,0,63.065,58.72v9.829H60.323V56.51A14.3,14.3,0,0,1,71.29,42.54,14.3,14.3,0,0,1,82.258,56.51V82.258Z" fill="#8000ff"/>
          <circle id="Elipse_11602" data-name="Elipse 11602" cx="1.371" cy="1.371" r="1.371" transform="translate(38.387 65.806)" fill="#8000ff"/>
        </g>
      </g>
    </g>
  </g>
</svg>
