<svg xmlns="http://www.w3.org/2000/svg" width="449" height="175" viewBox="0 0 449 175">
  <g id="Grupo_1108955" data-name="Grupo 1108955" transform="translate(-1431 4579)">
    <path id="Trazado_899931" data-name="Trazado 899931" d="M0,0H449V175H0Z" transform="translate(1431 -4579)" fill="#e6f9e6"/>
    <path id="Trazado_899932" data-name="Trazado 899932" d="M-64.463-82.488h11.287V-48.4h42.9V-82.488H1.011V0H-10.276V-38.577h-42.9V0H-64.463ZM42-61.487a27.432,27.432,0,0,1,12.41,3,22.884,22.884,0,0,1,9.153,7.777,26.831,26.831,0,0,1,4.043,10.613,69.436,69.436,0,0,1,.9,13.252H24.426q.281,9.153,4.324,14.684T41.272-6.626q7.917,0,12.634-5.222a17.6,17.6,0,0,0,3.818-7.019h9.939a20.933,20.933,0,0,1-2.611,7.384,26.263,26.263,0,0,1-4.969,6.654,23.554,23.554,0,0,1-11.4,6.064,34.628,34.628,0,0,1-8.254.9,25.327,25.327,0,0,1-19.036-8.17q-7.805-8.17-7.805-22.882,0-14.487,7.861-23.528T42-61.487ZM58.118-34.871a26.186,26.186,0,0,0-2.864-10.5q-4.155-7.3-13.87-7.3A15.374,15.374,0,0,0,29.7-47.645a18.985,18.985,0,0,0-5,12.775Z" transform="translate(1573 -4462)" fill="#0ac675"/>
    <path id="Trazado_899933" data-name="Trazado 899933" d="M-5.542,0H-7V-9.633l-2.914,1.07V-9.875l4.141-1.555h.227Zm9.3-2.242a1.064,1.064,0,0,0-.441-.91,4.249,4.249,0,0,0-1.539-.559A7.277,7.277,0,0,1,.04-4.273a2.479,2.479,0,0,1-.953-.781,1.869,1.869,0,0,1-.309-1.078A2.193,2.193,0,0,1-.343-7.891,3.432,3.432,0,0,1,1.9-8.609a3.532,3.532,0,0,1,2.332.742,2.357,2.357,0,0,1,.895,1.9H3.677a1.3,1.3,0,0,0-.5-1.023,1.888,1.888,0,0,0-1.27-.43,1.976,1.976,0,0,0-1.234.344,1.082,1.082,0,0,0-.445.9.877.877,0,0,0,.414.789,5.1,5.1,0,0,0,1.5.508A7.8,7.8,0,0,1,3.888-4.3a2.558,2.558,0,0,1,1,.809,1.988,1.988,0,0,1,.324,1.152A2.163,2.163,0,0,1,4.3-.527,3.8,3.8,0,0,1,1.95.156,4.257,4.257,0,0,1,.153-.2a2.922,2.922,0,0,1-1.223-1A2.42,2.42,0,0,1-1.511-2.6H-.066A1.5,1.5,0,0,0,.516-1.449a2.258,2.258,0,0,0,1.434.426,2.331,2.331,0,0,0,1.316-.332A1.02,1.02,0,0,0,3.763-2.242ZM10.9-5H6.548v-.606l2.3-2.552a5.456,5.456,0,0,0,.7-.941,1.571,1.571,0,0,0,.194-.75,1.19,1.19,0,0,0-.314-.852,1.1,1.1,0,0,0-.838-.333,1.3,1.3,0,0,0-.977.358,1.366,1.366,0,0,0-.349,1H6.421a1.957,1.957,0,0,1,.59-1.481,2.188,2.188,0,0,1,1.579-.565,2.1,2.1,0,0,1,1.463.485,1.655,1.655,0,0,1,.538,1.292A3.8,3.8,0,0,1,9.342-7.616L7.565-5.688H10.9Z" transform="translate(1730 -4447)" fill="#12263f"/>
    <g id="Trazado_899934" data-name="Trazado 899934" transform="translate(1694 -4539)" fill="#fff">
      <path d="M 69 73.5 L 5 73.5 C 2.51869010925293 73.5 0.5 71.48130798339844 0.5 69 L 0.5 5 C 0.5 2.51869010925293 2.51869010925293 0.5 5 0.5 L 69 0.5 C 71.48130798339844 0.5 73.5 2.51869010925293 73.5 5 L 73.5 69 C 73.5 71.48130798339844 71.48130798339844 73.5 69 73.5 Z" stroke="none"/>
      <path d="M 5 1 C 2.794387817382812 1 1 2.794387817382812 1 5 L 1 69 C 1 71.20561218261719 2.794387817382812 73 5 73 L 69 73 C 71.20561218261719 73 73 71.20561218261719 73 69 L 73 5 C 73 2.794387817382812 71.20561218261719 1 69 1 L 5 1 M 5 0 L 69 0 C 71.76142120361328 0 74 2.238578796386719 74 5 L 74 69 C 74 71.76142120361328 71.76142120361328 74 69 74 L 5 74 C 2.238578796386719 74 0 71.76142120361328 0 69 L 0 5 C 0 2.238578796386719 2.238578796386719 0 5 0 Z" stroke="none" fill="#ff007f"/>
    </g>
    <path id="Trazado_899935" data-name="Trazado 899935" d="M8.307,52.948V11.814L0,16.13,9,0l9,16.13-7.615-3.956V52.948a1.039,1.039,0,1,1-2.077,0Z" transform="translate(1734 -4528)" fill="#ff007f"/>
    <path id="Trazado_899936" data-name="Trazado 899936" d="M8.307,52.948V11.814L0,16.13,9,0l9,16.13-7.615-3.956V52.948a1.039,1.039,0,1,1-2.077,0Z" transform="translate(1730 -4473) rotate(180)" fill="#ff007f"/>
  </g>
</svg>
