<svg xmlns="http://www.w3.org/2000/svg" xmlns:xlink="http://www.w3.org/1999/xlink" width="57" height="57" viewBox="0 0 57 57">
  <defs>
    <clipPath id="clip-path">
      <rect id="Rectángulo_405645" data-name="Rectángulo 405645" width="57" height="57" transform="translate(1048.051 4523.949)" fill="#0ac675" stroke="#707070" stroke-width="1"/>
    </clipPath>
  </defs>
  <g id="Enmascarar_grupo_1098711" data-name="Enmascarar grupo 1098711" transform="translate(-1048.051 -4523.949)" clip-path="url(#clip-path)">
    <g id="fiebre" transform="translate(1055.676 4524)">
      <g id="Grupo_1107970" data-name="Grupo 1107970" transform="translate(30.627 18.018)">
        <path id="Línea_582" data-name="Línea 582" d="M-.265,14.643a1.67,1.67,0,0,1-1.67-1.67V-.265a1.67,1.67,0,0,1,1.67-1.67A1.67,1.67,0,0,1,1.4-.265V12.974A1.67,1.67,0,0,1-.265,14.643Z" transform="translate(5.458 1.935)" fill="#0ac675"/>
        <path id="Trazado_893284" data-name="Trazado 893284" d="M46.4,27.282a1.67,1.67,0,0,1-1.1-2.93l3.523-3.061a1.67,1.67,0,0,1,2.19,0l3.523,3.061a1.67,1.67,0,0,1-2.19,2.521l-2.428-2.11-2.428,2.11A1.663,1.663,0,0,1,46.4,27.282Z" transform="translate(-44.729 -20.882)" fill="#0ac675"/>
      </g>
      <g id="Grupo_1107971" data-name="Grupo 1107971" transform="translate(7.887 0)">
        <path id="Línea_583" data-name="Línea 583" d="M-.265,29.893a1.67,1.67,0,0,1-1.67-1.67V-.265a1.67,1.67,0,0,1,1.67-1.67A1.67,1.67,0,0,1,1.4-.265V28.224A1.67,1.67,0,0,1-.265,29.893Z" transform="translate(11.935 13.734)" fill="#0ac675"/>
        <path id="Elipse_11613" data-name="Elipse 11613" d="M3.056-1.935A4.991,4.991,0,1,1-1.935,3.056,5,5,0,0,1,3.056-1.935Zm0,6.643A1.652,1.652,0,1,0,1.4,3.056,1.654,1.654,0,0,0,3.056,4.708Z" transform="translate(8.614 42.223)" fill="#0ac675"/>
        <path id="Trazado_893285" data-name="Trazado 893285" d="M30.045,56.949A11.664,11.664,0,0,1,21.7,37.133V8.348a8.348,8.348,0,0,1,16.7,0V37.133A11.674,11.674,0,0,1,30.5,56.94C30.352,56.946,30.2,56.949,30.045,56.949Zm0-53.61a5.015,5.015,0,0,0-5.009,5.009V37.843a1.67,1.67,0,0,1-.553,1.242A8.326,8.326,0,0,0,30.045,53.61c.109,0,.221,0,.33-.006a8.326,8.326,0,0,0,5.232-14.519,1.67,1.67,0,0,1-.553-1.242V8.348A5.015,5.015,0,0,0,30.045,3.339Z" transform="translate(-18.375 0)" fill="#0ac675"/>
      </g>
      <g id="Grupo_1107972" data-name="Grupo 1107972" transform="translate(0 11.221)">
        <path id="Línea_584" data-name="Línea 584" d="M4.187,1.4H-.265a1.67,1.67,0,0,1-1.67-1.67,1.67,1.67,0,0,1,1.67-1.67H4.187a1.67,1.67,0,0,1,1.67,1.67A1.67,1.67,0,0,1,4.187,1.4Z" transform="translate(1.935 21.971)" fill="#0ac675"/>
        <path id="Línea_585" data-name="Línea 585" d="M4.187,1.4H-.265a1.67,1.67,0,0,1-1.67-1.67,1.67,1.67,0,0,1,1.67-1.67H4.187a1.67,1.67,0,0,1,1.67,1.67A1.67,1.67,0,0,1,4.187,1.4Z" transform="translate(1.935 15.292)" fill="#0ac675"/>
        <path id="Línea_586" data-name="Línea 586" d="M4.187,1.4H-.265a1.67,1.67,0,0,1-1.67-1.67,1.67,1.67,0,0,1,1.67-1.67H4.187a1.67,1.67,0,0,1,1.67,1.67A1.67,1.67,0,0,1,4.187,1.4Z" transform="translate(1.935 8.614)" fill="#0ac675"/>
        <path id="Línea_587" data-name="Línea 587" d="M4.187,1.4H-.265a1.67,1.67,0,0,1-1.67-1.67,1.67,1.67,0,0,1,1.67-1.67H4.187a1.67,1.67,0,0,1,1.67,1.67A1.67,1.67,0,0,1,4.187,1.4Z" transform="translate(1.935 1.935)" fill="#0ac675"/>
      </g>
    </g>
  </g>
</svg>
