<svg xmlns="http://www.w3.org/2000/svg" xmlns:xlink="http://www.w3.org/1999/xlink" width="90" height="90" viewBox="0 0 90 90">
  <defs>
    <clipPath id="clip-path">
      <rect id="Rectángulo_406100" data-name="Rectángulo 406100" width="58" height="58" transform="translate(298.051 6142)" fill="#fff" stroke="#707070" stroke-width="1"/>
    </clipPath>
  </defs>
  <g id="Grupo_1108961" data-name="Grupo 1108961" transform="translate(-282.051 -6126)">
    <circle id="Elipse_11794" data-name="Elipse 11794" cx="45" cy="45" r="45" transform="translate(282.051 6126)" fill="#0ac675"/>
    <g id="Enmascarar_grupo_1098749" data-name="Enmascarar grupo 1098749" clip-path="url(#clip-path)">
      <g id="quimica" transform="translate(298.051 6142)">
        <g id="Grupo_1108672" data-name="Grupo 1108672">
          <g id="Grupo_1108671" data-name="Grupo 1108671">
            <path id="Trazado_899545" data-name="Trazado 899545" d="M51.575,45.867V37.508l3.4-3.376-1.187-1.2-3.213,3.192-6.254-3.116V23.944l-8.071-4.05-7.236,3.625-7.243-3.625L14.5,23.519l-6.425-3.2V12.307l6.4-3.2,6.4,3.2v4.912h1.7V11.256l-7.25-3.625V0h-1.7V7.631l-6.2,3.116-4.99-5-1.223,1.2,5.167,5.189v8.359L3.028,23.868l1.216,1.2,3.171-3.192,6.211,3.116v9.062l8.128,4.05,7.264-3.625,7.257,3.625L43.5,34.481l6.376,3.2v8.012l-6.4,3.2-6.4-3.2V40.781h-1.7v5.963l7.25,3.625V58h1.7V50.369l6.261-3.116,5.033,5,1.173-1.2ZM28.126,33.006l-6.4,3.2-6.4-3.2V24.994l6.4-3.2,6.4,3.2Zm14.5,0-6.4,3.2-6.4-3.2V24.994l6.4-3.2,6.4,3.2Z" fill="#fff"/>
          </g>
        </g>
        <g id="Grupo_1108674" data-name="Grupo 1108674">
          <g id="Grupo_1108673" data-name="Grupo 1108673">
            <rect id="Rectángulo_406105" data-name="Rectángulo 406105" width="1.813" height="1.699" transform="translate(10.907 18.238)" fill="#fff"/>
          </g>
        </g>
        <g id="Grupo_1108676" data-name="Grupo 1108676">
          <g id="Grupo_1108675" data-name="Grupo 1108675">
            <rect id="Rectángulo_406106" data-name="Rectángulo 406106" width="1.813" height="1.699" transform="translate(39.907 43.613)" fill="#fff"/>
          </g>
        </g>
        <g id="Grupo_1108678" data-name="Grupo 1108678">
          <g id="Grupo_1108677" data-name="Grupo 1108677">
            <rect id="Rectángulo_406107" data-name="Rectángulo 406107" width="1.699" height="7.25" transform="translate(46.25 38.063)" fill="#fff"/>
          </g>
        </g>
        <g id="Grupo_1108680" data-name="Grupo 1108680">
          <g id="Grupo_1108679" data-name="Grupo 1108679">
            <rect id="Rectángulo_406108" data-name="Rectángulo 406108" width="1.699" height="7.25" transform="translate(17.25 25.375)" fill="#fff"/>
          </g>
        </g>
      </g>
    </g>
  </g>
</svg>
