<svg xmlns="http://www.w3.org/2000/svg" width="46.329" height="44.333" viewBox="0 0 46.329 44.333">
  <g id="estado-de-agregacion-de-la-materia_1_" data-name="estado-de-agregacion-de-la-materia (1)" transform="translate(0 0)">
    <path id="Trazado_893286" data-name="Trazado 893286" d="M147.4,13.635a.694.694,0,0,0-.694-.694h-1.228a3.047,3.047,0,0,1-3.032-2.973,2.97,2.97,0,0,1,.867-2.148,3.156,3.156,0,0,1,2.238-.944h.733a.884.884,0,0,0,.883-.888,4.6,4.6,0,1,1,9.2,0,.884.884,0,0,0,.883.887h.791a3.156,3.156,0,0,1,2.238.944,2.968,2.968,0,0,1,.867,2.148,3.046,3.046,0,0,1-3.031,2.973H149.8a.694.694,0,0,0,0,1.388h8.31a4.442,4.442,0,0,0,4.42-4.335,4.346,4.346,0,0,0-1.264-3.147,4.554,4.554,0,0,0-3.229-1.36h-.307a5.989,5.989,0,0,0-11.936,0h-.249a4.554,4.554,0,0,0-3.23,1.36,4.35,4.35,0,0,0-1.264,3.147,4.443,4.443,0,0,0,4.42,4.335H146.7a.694.694,0,0,0,.694-.694Zm0,0" transform="translate(-128.29)" fill="#0ac675"/>
    <path id="Trazado_893287" data-name="Trazado 893287" d="M365.356,312.615a1.167,1.167,0,0,0-.84-.361h0a1.169,1.169,0,0,0-.841.36c-.168.176-.45.476-.8.862a21.8,21.8,0,0,0-1.74-2.052.967.967,0,0,0-1.4,0c-1.18,1.239-3.159,3.561-3.159,5.19a3.859,3.859,0,0,0,7.719,0,4.208,4.208,0,0,0-.633-1.933c.344-.391.642-.714.851-.936,3.49,3.7,4.739,6.262,4.739,7.433a4.739,4.739,0,0,1-9.264,1.41.694.694,0,1,0-1.326.412,6.128,6.128,0,0,0,11.978-1.822C370.642,318.458,366.946,314.284,365.356,312.615Zm-4.919,6.471a2.474,2.474,0,0,1-2.471-2.471c0-.738.981-2.279,2.471-3.905,1.491,1.627,2.471,3.167,2.471,3.905A2.473,2.473,0,0,1,360.438,319.086Zm0,0" transform="translate(-324.313 -282.973)" fill="#0ac675"/>
    <path id="Trazado_893288" data-name="Trazado 893288" d="M16.4,332.9c0-.815.022-1.212.044-1.631s.046-.853.046-1.707a1.338,1.338,0,0,0-1.257-1.282,14.489,14.489,0,0,0-1.74.09c-.256.027-.5.052-.846.068a6.591,6.591,0,0,0,.116-1.324,7.678,7.678,0,0,0-.148-1.6,6.34,6.34,0,0,1-.124-1.346,1.281,1.281,0,0,0-1.365-1.341,5.643,5.643,0,0,1-1.432-.157,7.047,7.047,0,0,0-1.729-.189,9.469,9.469,0,0,0-1.687.131,8.145,8.145,0,0,1-1.472.115,12.945,12.945,0,0,1-1.511-.075,14.362,14.362,0,0,0-1.649-.082A1.755,1.755,0,0,0,0,324.172a7,7,0,0,0,.165,1.612A5.616,5.616,0,0,1,.3,327.118c0,.716-.021,1.064-.044,1.432s-.046.757-.046,1.515c0,.739,0,1.108,0,1.477s0,.734,0,1.469a13.628,13.628,0,0,1-.063,1.412,14.907,14.907,0,0,0-.068,1.534,1.662,1.662,0,0,0,1.553,1.6c.818,0,1.234-.034,1.637-.067s.762-.063,1.523-.063a13.491,13.491,0,0,0,1.654-.088,11.963,11.963,0,0,1,1.479-.08,1.27,1.27,0,0,0,.619.165c.855,0,1.289-.025,1.709-.049s.815-.047,1.629-.047c.833,0,1.25,0,1.666,0s.836,0,1.672,0a1.189,1.189,0,0,0,1.309-1.094c0-.864-.037-1.3-.073-1.728s-.069-.805-.069-1.61Zm-2.833,3.04c-.418,0-.836,0-1.672,0-.854,0-1.289.025-1.709.049-.4.023-.771.045-1.5.047,0-.3,0-.4,0-.435v-.015c0-.019,0-.068,0-.276a.7.7,0,0,0-.684-.7h-.01a.694.694,0,0,0-.694.685c0,.193,0,.238,0,.255s0,.021,0,.063,0,.1,0,.274c-.421.016-.707.047-.987.076a12.1,12.1,0,0,1-1.506.08c-.819,0-1.235.034-1.637.067s-.757.062-1.509.063a.372.372,0,0,1-.178-.213,13.623,13.623,0,0,1,.063-1.412,14.938,14.938,0,0,0,.068-1.535c0-.738,0-1.107,0-1.476s0-.735,0-1.47c0-.715.021-1.063.044-1.43s.046-.758.046-1.516a7.013,7.013,0,0,0-.165-1.613,5.584,5.584,0,0,1-.136-1.315.5.5,0,0,1,.261-.229,12.835,12.835,0,0,1,1.5.075,14.353,14.353,0,0,0,1.649.082,9.419,9.419,0,0,0,1.686-.131,8.153,8.153,0,0,1,1.473-.115,5.626,5.626,0,0,1,1.432.157,7.056,7.056,0,0,0,1.705.189,7.635,7.635,0,0,0,.147,1.551,6.3,6.3,0,0,1,.125,1.348,5.151,5.151,0,0,1-.147,1.323l0,.013c-.409,0-.687-.013-.977-.022-.416-.013-.845-.026-1.691-.026a1.145,1.145,0,0,0-1.155,1.16c0,.819-.018,1.216-.037,1.637-.011.244-.022.5-.03.83a.694.694,0,0,0,.679.709h.016a.694.694,0,0,0,.693-.679c.007-.319.018-.551.029-.8.017-.379.035-.769.038-1.471.671,0,1.034.013,1.415.025.415.013.845.026,1.69.026a14.489,14.489,0,0,0,1.741-.09,13.009,13.009,0,0,1,1.466-.082c0,.744-.023,1.124-.044,1.525-.023.42-.046.853-.046,1.707s.037,1.3.073,1.728c.031.36.06.7.067,1.316-.779,0-1.182,0-1.585,0Zm0,0" transform="translate(0 -293.304)" fill="#0ac675"/>
    <path id="Trazado_893289" data-name="Trazado 893289" d="M338.168,182.675l-.53-.115a.694.694,0,1,0-.3,1.357l2.068.45a.7.7,0,0,0,.255.048.688.688,0,0,0,.336-.089l.019-.01.02-.011c.018-.012.036-.024.053-.037a.669.669,0,0,0,.056-.049l0,0a.689.689,0,0,0,.2-.355l.469-2.157a.694.694,0,1,0-1.357-.3l-.117.537-3.576-5.563.356.077a.694.694,0,0,0,.295-1.357l-1.8-.39a.858.858,0,0,0-1.216.446l-.469,2.157a.694.694,0,0,0,.531.826.708.708,0,0,0,.148.016.694.694,0,0,0,.678-.547l.155-.711Zm0,0" transform="translate(-302.803 -158.801)" fill="#0ac675"/>
    <path id="Trazado_893290" data-name="Trazado 893290" d="M78.438,195.845a.694.694,0,0,0,.678.547h.021a.673.673,0,0,0,.516-.1l1.8-.391a.694.694,0,0,0-.3-1.357l-.356.077,3.576-5.563.117.537a.694.694,0,0,0,1.357-.295l-.469-2.157a.7.7,0,0,0-.3-.437l-.006,0,0,0a.693.693,0,0,0-.627-.063l-2.071.45a.694.694,0,1,0,.3,1.357l.53-.115L79.48,194.1l-.154-.711a.694.694,0,1,0-1.357.3Zm0,0" transform="translate(-70.899 -169.706)" fill="#0ac675"/>
    <path id="Trazado_893291" data-name="Trazado 893291" d="M214.266,381.948a.694.694,0,1,0-.979.985l.36.358-6.965.019.382-.385a.694.694,0,1,0-.985-.979l-1.494,1.5a.691.691,0,0,0-.285.561s0,0,0,.007a.692.692,0,0,0,.2.5l1.565,1.556a.694.694,0,0,0,.979-.985l-.39-.387,7.023-.019-.411.414a.694.694,0,1,0,.984.979l1.577-1.586a.694.694,0,0,0,0-.982Zm0,0" transform="translate(-185.815 -347.2)" fill="#0ac675"/>
  </g>
</svg>
