<svg xmlns="http://www.w3.org/2000/svg" xmlns:xlink="http://www.w3.org/1999/xlink" width="134" height="134" viewBox="0 0 134 134">
  <defs>
    <clipPath id="clip-path">
      <rect id="Rectángulo_405121" data-name="Rectángulo 405121" width="85" height="85" transform="translate(996.051 3952)" fill="#8000ff"/>
    </clipPath>
  </defs>
  <g id="Grupo_1106890" data-name="Grupo 1106890" transform="translate(-971.051 -3927)">
    <circle id="Elipse_11597" data-name="Elipse 11597" cx="67" cy="67" r="67" transform="translate(971.051 3927)" fill="#0ac675"/>
    <g id="Enmascarar_grupo_1098705" data-name="Enmascarar grupo 1098705" clip-path="url(#clip-path)">
      <g id="Out_line" data-name="Out line" transform="translate(994.68 3952)">
        <path id="Trazado_890986" data-name="Trazado 890986" d="M26.048,41.129H23.306a1.371,1.371,0,0,0,0,2.742h2.742a1.371,1.371,0,1,0,0-2.742Z" fill="#8000ff"/>
        <path id="Trazado_890987" data-name="Trazado 890987" d="M37.016,43.871h2.742a1.371,1.371,0,0,0,0-2.742H37.016a1.371,1.371,0,1,0,0,2.742Z" fill="#8000ff"/>
        <path id="Trazado_890988" data-name="Trazado 890988" d="M31.6,48.417a1.371,1.371,0,1,0,2.6-.867l-1.371-4.113a1.371,1.371,0,0,0-2.6.867Z" fill="#8000ff"/>
        <circle id="Elipse_11603" data-name="Elipse 11603" cx="1.371" cy="1.371" r="1.371" transform="translate(23.306 43.871)" fill="#8000ff"/>
        <circle id="Elipse_11604" data-name="Elipse 11604" cx="1.371" cy="1.371" r="1.371" transform="translate(37.016 43.871)" fill="#8000ff"/>
        <path id="Trazado_890989" data-name="Trazado 890989" d="M30.161,54.839H32.9a1.371,1.371,0,0,0,0-2.742H30.161a1.371,1.371,0,1,0,0,2.742Z" fill="#8000ff"/>
        <path id="Trazado_890990" data-name="Trazado 890990" d="M50.525,64.749a20.1,20.1,0,0,0-9.443-3.016,4.1,4.1,0,0,0-1.076-1.389l-1.983-1.652a13.752,13.752,0,0,0,6.941-9.336h.279a5.482,5.482,0,0,0,2.742-10.23V34.842a6.052,6.052,0,0,0-6.052-6.052h-.143a3.075,3.075,0,0,0-.9-2.181l-.879-.879a12.955,12.955,0,0,0-18.321,0l-3.628,3.628a.333.333,0,0,1-.471,0,3.075,3.075,0,0,0-5.249,2.174v1.2A8.337,8.337,0,0,0,14.8,38.671c.133.133.27.258.41.381a5.483,5.483,0,0,0,2.616,10.3H18.1a13.752,13.752,0,0,0,6.731,9.22,3.887,3.887,0,0,0-1.32,3.107c-.069.005-.137.012-.206.012H23.2a20.1,20.1,0,0,0-19.5,15.228,31.817,31.817,0,0,0-.949,7.71V85H5.484v-.369A29.065,29.065,0,0,1,6.35,77.59,17.272,17.272,0,0,1,13.71,67.261v6.771a1.371,1.371,0,0,0,1.88,1.273l1.824-.73-4.827,6.9,2.246,1.572,8.879-12.685,8.482,4.847a1.371,1.371,0,0,1,.439,1.982l-3.994,5.65,2.239,1.583,3.994-5.65a4.106,4.106,0,0,0-.125-4.913l5.915-7.887a4.1,4.1,0,0,0,.7-1.47c.251.022.5.05.752.082L39.347,76.571A37.542,37.542,0,0,0,38.387,85h2.742a34.783,34.783,0,0,1,.888-7.807l.86-3.727,4.6,1.839a1.371,1.371,0,0,0,1.88-1.273V67.261a17.272,17.272,0,0,1,7.359,10.326,29.071,29.071,0,0,1,.867,7.044V85h2.742v-.369a31.809,31.809,0,0,0-.948-7.706A20.008,20.008,0,0,0,50.525,64.749ZM45.242,46.613V41.129a2.742,2.742,0,1,1,0,5.484ZM15.081,31.532a.333.333,0,0,1,.568-.235A3.078,3.078,0,0,0,20,31.3l3.628-3.628a10.213,10.213,0,0,1,14.444,0l.879.879a.343.343,0,0,1,0,.485l-1.53,1.53A1.371,1.371,0,1,0,39.357,32.5l.969-.969h1.606a3.31,3.31,0,0,1,3.31,3.31v3.545H43.4a4.085,4.085,0,0,1-2.908-1.2L36.615,33.3a1.371,1.371,0,0,0-1.939,0,17.238,17.238,0,0,1-12.27,5.082H20.731a5.65,5.65,0,0,1-5.65-5.65Zm0,12.339a2.745,2.745,0,0,1,2.742-2.742v5.484A2.745,2.745,0,0,1,15.081,43.871Zm5.484,2.742V41.125c.055,0,.111,0,.166,0h1.675a19.946,19.946,0,0,0,13.207-4.948l2.941,2.94A6.8,6.8,0,0,0,42.5,41.069v5.544a10.988,10.988,0,0,1-6.84,10.164,4.11,4.11,0,0,0-5.59,1.212l-.289.433-.232-.155a3.931,3.931,0,0,0-.82-.417,1.37,1.37,0,0,0-.853-.893,10.987,10.987,0,0,1-7.311-10.344Zm2.742,17.823a5.5,5.5,0,0,0,1.149-.122l.012.023-2.291,3.437-.367.524-.857-3.715a17.389,17.389,0,0,1,2.244-.148ZM16.452,65.8a17.321,17.321,0,0,1,1.816-.65l1.3,5.612-3.111,1.245Zm22.018-1.475-5.937,7.916-7.271-4.155L27.189,65.2a1.371,1.371,0,0,0,.086-1.374l-.9-1.81a1.145,1.145,0,0,1,1.659-1.464l1.373.915a1.371,1.371,0,0,0,1.9-.38l1.049-1.574a1.371,1.371,0,0,1,2.018-.293l3.88,3.234a1.37,1.37,0,0,1,.219,1.876ZM43.5,70.763l1.3-5.613a17.365,17.365,0,0,1,1.816.651v6.206Z" fill="#8000ff"/>
        <path id="Trazado_890991" data-name="Trazado 890991" d="M84.486,30.462l-5.517-4.413,5.517-4.413a1.371,1.371,0,0,0-.631-2.423l-5.6-.933,4.971-4.971a1.371,1.371,0,0,0-1.163-2.327l-7.743,1.106,1.063-6.378a1.371,1.371,0,0,0-1.965-1.452L66.607,7.664,64.365.937a1.371,1.371,0,0,0-2.6,0L59.522,7.664,52.71,4.258a1.371,1.371,0,0,0-1.965,1.452l1.063,6.378-7.743-1.106A1.371,1.371,0,0,0,42.9,13.308l4.971,4.971-5.6.933a1.371,1.371,0,0,0-.631,2.423l5.517,4.413-.376.3L48.5,28.49l1.714-1.371a1.371,1.371,0,0,0,0-2.141l-4.457-3.566,5.2-.866a1.371,1.371,0,0,0,.744-2.322l-3.947-3.947,5.525.789a1.371,1.371,0,0,0,1.546-1.583l-.928-5.57,5.818,2.909a1.371,1.371,0,0,0,1.914-.793l1.441-4.324,1.441,4.324a1.371,1.371,0,0,0,1.914.793l5.818-2.909-.928,5.57a1.371,1.371,0,0,0,1.546,1.583l5.525-.789-3.947,3.947a1.371,1.371,0,0,0,.744,2.322l5.2.866-4.457,3.566a1.371,1.371,0,0,0,0,2.141l4.887,3.91L74.97,32.974a1.371,1.371,0,0,0-.536,2.27L78.38,39.19,72.855,38.4a1.371,1.371,0,0,0-1.546,1.583l.851,5.1-5.593-3.728a1.371,1.371,0,0,0-2.061.707L63.065,46.39l-1.441-4.324a1.371,1.371,0,0,0-2.061-.707l-6.855,4.57,1.521,2.281,5.361-3.574,2.174,6.523a1.371,1.371,0,0,0,2.6,0l2.174-6.523,6.732,4.488a1.371,1.371,0,0,0,2.113-1.366L74.322,41.38l7.743,1.106a1.371,1.371,0,0,0,1.163-2.327l-5.286-5.286,6.121-2.04a1.371,1.371,0,0,0,.423-2.371Z" fill="#8000ff"/>
        <path id="Trazado_890992" data-name="Trazado 890992" d="M58.952,35.645a4.113,4.113,0,1,0,4.113-4.113,4.113,4.113,0,0,0-4.113,4.113Zm5.484,0a1.371,1.371,0,1,1-1.371-1.371A1.371,1.371,0,0,1,64.435,35.645Z" fill="#8000ff"/>
        <path id="Trazado_890993" data-name="Trazado 890993" d="M68.23,12.831a1.371,1.371,0,0,0-1.053-.493H58.952A1.371,1.371,0,0,0,57.6,13.955l2.742,15.081a1.371,1.371,0,0,0,1.349,1.126h2.742a1.371,1.371,0,0,0,1.349-1.126l2.742-15.081a1.371,1.371,0,0,0-.3-1.124ZM63.291,27.419h-.454L60.594,15.081h4.94Z" fill="#8000ff"/>
      </g>
    </g>
  </g>
</svg>
