<svg xmlns="http://www.w3.org/2000/svg" width="732" height="175" viewBox="0 0 732 175">
  <g id="Grupo_1108956" data-name="Grupo 1108956" transform="translate(-1580 3993)">
    <path id="Trazado_899937" data-name="Trazado 899937" d="M0,0H732V175H0Z" transform="translate(1580 -3993)" fill="#e6f9e6"/>
    <path id="Trazado_899938" data-name="Trazado 899938" d="M-2.895,0h-7.453V-1.039L-6.41-5.414A9.354,9.354,0,0,0-5.2-7.027a2.693,2.693,0,0,0,.332-1.285A2.041,2.041,0,0,0-5.41-9.773a1.885,1.885,0,0,0-1.437-.57,2.232,2.232,0,0,0-1.676.613,2.343,2.343,0,0,0-.6,1.707h-1.445a3.355,3.355,0,0,1,1.012-2.539,3.751,3.751,0,0,1,2.707-.969A3.6,3.6,0,0,1-4.34-10.7a2.838,2.838,0,0,1,.922,2.215q0,1.68-2.141,4l-3.047,3.3h5.711Zm8.82-4.133a5.062,5.062,0,0,1-.883,3.109A2.829,2.829,0,0,1,2.652.156,3.1,3.1,0,0,1,.23-.82V3.25H-1.215v-11.7H.105l.07.938A2.977,2.977,0,0,1,2.629-8.609a2.882,2.882,0,0,1,2.41,1.148,5.117,5.117,0,0,1,.887,3.2ZM4.48-4.3a3.735,3.735,0,0,0-.609-2.258A1.963,1.963,0,0,0,2.2-7.383,2.125,2.125,0,0,0,.23-6.219V-2.18A2.129,2.129,0,0,0,2.215-1.023a1.954,1.954,0,0,0,1.652-.824A4.077,4.077,0,0,0,4.48-4.3ZM8.96,1.869l1.094-1.8h.984L9.425,2.507,11.088,5h-.975L8.974,3.154,7.834,5h-.98L8.518,2.507,6.9.069H7.88Z" transform="translate(1675.949 -3845.817)" fill="#12263f"/>
    <path id="Trazado_899939" data-name="Trazado 899939" d="M-2.895,0h-7.453V-1.039L-6.41-5.414A9.354,9.354,0,0,0-5.2-7.027a2.693,2.693,0,0,0,.332-1.285A2.041,2.041,0,0,0-5.41-9.773a1.885,1.885,0,0,0-1.437-.57,2.232,2.232,0,0,0-1.676.613,2.343,2.343,0,0,0-.6,1.707h-1.445a3.355,3.355,0,0,1,1.012-2.539,3.751,3.751,0,0,1,2.707-.969A3.6,3.6,0,0,1-4.34-10.7a2.838,2.838,0,0,1,.922,2.215q0,1.68-2.141,4l-3.047,3.3h5.711Zm8.82-4.133a5.062,5.062,0,0,1-.883,3.109A2.829,2.829,0,0,1,2.652.156,3.1,3.1,0,0,1,.23-.82V3.25H-1.215v-11.7H.105l.07.938A2.977,2.977,0,0,1,2.629-8.609a2.882,2.882,0,0,1,2.41,1.148,5.117,5.117,0,0,1,.887,3.2ZM4.48-4.3a3.735,3.735,0,0,0-.609-2.258A1.963,1.963,0,0,0,2.2-7.383,2.125,2.125,0,0,0,.23-6.219V-2.18A2.129,2.129,0,0,0,2.215-1.023a1.954,1.954,0,0,0,1.652-.824A4.077,4.077,0,0,0,4.48-4.3ZM8.96,1.869l1.094-1.8h.984L9.425,2.507,11.088,5h-.975L8.974,3.154,7.834,5h-.98L8.518,2.507,6.9.069H7.88Z" transform="translate(1886.949 -3845.817)" fill="#12263f"/>
    <path id="Trazado_899940" data-name="Trazado 899940" d="M-2.895,0h-7.453V-1.039L-6.41-5.414A9.354,9.354,0,0,0-5.2-7.027a2.693,2.693,0,0,0,.332-1.285A2.041,2.041,0,0,0-5.41-9.773a1.885,1.885,0,0,0-1.437-.57,2.232,2.232,0,0,0-1.676.613,2.343,2.343,0,0,0-.6,1.707h-1.445a3.355,3.355,0,0,1,1.012-2.539,3.751,3.751,0,0,1,2.707-.969A3.6,3.6,0,0,1-4.34-10.7a2.838,2.838,0,0,1,.922,2.215q0,1.68-2.141,4l-3.047,3.3h5.711Zm8.82-4.133a5.062,5.062,0,0,1-.883,3.109A2.829,2.829,0,0,1,2.652.156,3.1,3.1,0,0,1,.23-.82V3.25H-1.215v-11.7H.105l.07.938A2.977,2.977,0,0,1,2.629-8.609a2.882,2.882,0,0,1,2.41,1.148,5.117,5.117,0,0,1,.887,3.2ZM4.48-4.3a3.735,3.735,0,0,0-.609-2.258A1.963,1.963,0,0,0,2.2-7.383,2.125,2.125,0,0,0,.23-6.219V-2.18A2.129,2.129,0,0,0,2.215-1.023a1.954,1.954,0,0,0,1.652-.824A4.077,4.077,0,0,0,4.48-4.3ZM8.96,1.869l1.094-1.8h.984L9.425,2.507,11.088,5h-.975L8.974,3.154,7.834,5h-.98L8.518,2.507,6.9.069H7.88Z" transform="translate(2097.949 -3845.817)" fill="#12263f"/>
    <path id="Trazado_899941" data-name="Trazado 899941" d="M-2.79,0h-7.453V-1.039l3.937-4.375A9.354,9.354,0,0,0-5.1-7.027a2.693,2.693,0,0,0,.332-1.285,2.041,2.041,0,0,0-.539-1.461,1.885,1.885,0,0,0-1.437-.57,2.232,2.232,0,0,0-1.676.613,2.343,2.343,0,0,0-.6,1.707h-1.445A3.355,3.355,0,0,1-9.45-10.562a3.751,3.751,0,0,1,2.707-.969,3.6,3.6,0,0,1,2.508.832,2.838,2.838,0,0,1,.922,2.215q0,1.68-2.141,4L-8.5-1.18H-2.79ZM6.03-4.133a5.062,5.062,0,0,1-.883,3.109A2.829,2.829,0,0,1,2.757.156,3.1,3.1,0,0,1,.335-.82V3.25H-1.11v-11.7H.21l.07.938A2.977,2.977,0,0,1,2.734-8.609a2.882,2.882,0,0,1,2.41,1.148,5.117,5.117,0,0,1,.887,3.2ZM4.585-4.3a3.735,3.735,0,0,0-.609-2.258A1.963,1.963,0,0,0,2.3-7.383,2.125,2.125,0,0,0,.335-6.219V-2.18A2.129,2.129,0,0,0,2.319-1.023a1.954,1.954,0,0,0,1.652-.824A4.077,4.077,0,0,0,4.585-4.3ZM9.024,3.765l1.148-3.7h.9L9.092,5.761q-.46,1.23-1.463,1.23L7.47,6.978l-.314-.059V6.235l.228.018a1.122,1.122,0,0,0,.668-.173,1.253,1.253,0,0,0,.394-.633l.187-.5L6.873.069h.921Z" transform="translate(1735.5 -3845.817)" fill="#12263f"/>
    <path id="Trazado_899942" data-name="Trazado 899942" d="M-2.79,0h-7.453V-1.039l3.937-4.375A9.354,9.354,0,0,0-5.1-7.027a2.693,2.693,0,0,0,.332-1.285,2.041,2.041,0,0,0-.539-1.461,1.885,1.885,0,0,0-1.437-.57,2.232,2.232,0,0,0-1.676.613,2.343,2.343,0,0,0-.6,1.707h-1.445A3.355,3.355,0,0,1-9.45-10.562a3.751,3.751,0,0,1,2.707-.969,3.6,3.6,0,0,1,2.508.832,2.838,2.838,0,0,1,.922,2.215q0,1.68-2.141,4L-8.5-1.18H-2.79ZM6.03-4.133a5.062,5.062,0,0,1-.883,3.109A2.829,2.829,0,0,1,2.757.156,3.1,3.1,0,0,1,.335-.82V3.25H-1.11v-11.7H.21l.07.938A2.977,2.977,0,0,1,2.734-8.609a2.882,2.882,0,0,1,2.41,1.148,5.117,5.117,0,0,1,.887,3.2ZM4.585-4.3a3.735,3.735,0,0,0-.609-2.258A1.963,1.963,0,0,0,2.3-7.383,2.125,2.125,0,0,0,.335-6.219V-2.18A2.129,2.129,0,0,0,2.319-1.023a1.954,1.954,0,0,0,1.652-.824A4.077,4.077,0,0,0,4.585-4.3ZM9.024,3.765l1.148-3.7h.9L9.092,5.761q-.46,1.23-1.463,1.23L7.47,6.978l-.314-.059V6.235l.228.018a1.122,1.122,0,0,0,.668-.173,1.253,1.253,0,0,0,.394-.633l.187-.5L6.873.069h.921Z" transform="translate(1946.5 -3845.817)" fill="#12263f"/>
    <path id="Trazado_899943" data-name="Trazado 899943" d="M-2.79,0h-7.453V-1.039l3.937-4.375A9.354,9.354,0,0,0-5.1-7.027a2.693,2.693,0,0,0,.332-1.285,2.041,2.041,0,0,0-.539-1.461,1.885,1.885,0,0,0-1.437-.57,2.232,2.232,0,0,0-1.676.613,2.343,2.343,0,0,0-.6,1.707h-1.445A3.355,3.355,0,0,1-9.45-10.562a3.751,3.751,0,0,1,2.707-.969,3.6,3.6,0,0,1,2.508.832,2.838,2.838,0,0,1,.922,2.215q0,1.68-2.141,4L-8.5-1.18H-2.79ZM6.03-4.133a5.062,5.062,0,0,1-.883,3.109A2.829,2.829,0,0,1,2.757.156,3.1,3.1,0,0,1,.335-.82V3.25H-1.11v-11.7H.21l.07.938A2.977,2.977,0,0,1,2.734-8.609a2.882,2.882,0,0,1,2.41,1.148,5.117,5.117,0,0,1,.887,3.2ZM4.585-4.3a3.735,3.735,0,0,0-.609-2.258A1.963,1.963,0,0,0,2.3-7.383,2.125,2.125,0,0,0,.335-6.219V-2.18A2.129,2.129,0,0,0,2.319-1.023a1.954,1.954,0,0,0,1.652-.824A4.077,4.077,0,0,0,4.585-4.3ZM9.024,3.765l1.148-3.7h.9L9.092,5.761q-.46,1.23-1.463,1.23L7.47,6.978l-.314-.059V6.235l.228.018a1.122,1.122,0,0,0,.668-.173,1.253,1.253,0,0,0,.394-.633l.187-.5L6.873.069h.921Z" transform="translate(2157.5 -3845.817)" fill="#12263f"/>
    <path id="Trazado_899944" data-name="Trazado 899944" d="M-.82,0a3.036,3.036,0,0,1-.2-.891A3.225,3.225,0,0,1-3.43.156,2.984,2.984,0,0,1-5.48-.551a2.287,2.287,0,0,1-.8-1.793,2.39,2.39,0,0,1,1-2.051,4.733,4.733,0,0,1,2.824-.73h1.406v-.664A1.623,1.623,0,0,0-1.5-7a1.821,1.821,0,0,0-1.336-.449,2.107,2.107,0,0,0-1.3.391,1.151,1.151,0,0,0-.523.945H-6.109A2,2,0,0,1-5.66-7.332a3.066,3.066,0,0,1,1.219-.934A4.1,4.1,0,0,1-2.75-8.609a3.342,3.342,0,0,1,2.289.73A2.635,2.635,0,0,1,.4-5.867v3.891A4.757,4.757,0,0,0,.7-.125V0Zm-2.4-1.1A2.54,2.54,0,0,0-1.93-1.453a2.127,2.127,0,0,0,.883-.914V-4.1H-2.18q-2.656,0-2.656,1.555a1.316,1.316,0,0,0,.453,1.063A1.742,1.742,0,0,0-3.219-1.1ZM6-4.539A12.084,12.084,0,0,1,5.543-1.2a9.876,9.876,0,0,1-1.4,2.949A6.127,6.127,0,0,1,2.172,3.672l-.3-.883A6.281,6.281,0,0,0,3.8-.074a12.387,12.387,0,0,0,.746-4.309v-.25A12.861,12.861,0,0,0,4.2-7.684a10.3,10.3,0,0,0-.957-2.527,5.838,5.838,0,0,0-1.379-1.742l.3-.883A6.1,6.1,0,0,1,4.137-10.93a9.9,9.9,0,0,1,1.4,2.945A12.363,12.363,0,0,1,6-4.539Z" transform="translate(1735.5 -3956)" fill="#12263f"/>
    <path id="Trazado_899945" data-name="Trazado 899945" d="M.98-4.133A5.026,5.026,0,0,1,.09-1.02,2.846,2.846,0,0,1-2.3.156,2.947,2.947,0,0,1-4.777-.977L-4.848,0H-6.176V-12H-4.73v4.477A2.93,2.93,0,0,1-2.316-8.609,2.863,2.863,0,0,1,.1-7.445,5.177,5.177,0,0,1,.98-4.258ZM-.465-4.3a3.906,3.906,0,0,0-.57-2.281,1.888,1.888,0,0,0-1.641-.8A2.122,2.122,0,0,0-4.73-6.055V-2.4A2.181,2.181,0,0,0-2.66-1.07a1.878,1.878,0,0,0,1.617-.8A4.153,4.153,0,0,0-.465-4.3Zm6.6-.242A12.084,12.084,0,0,1,5.68-1.2a9.876,9.876,0,0,1-1.4,2.949A6.127,6.127,0,0,1,2.309,3.672L2,2.789A6.281,6.281,0,0,0,3.938-.074a12.387,12.387,0,0,0,.746-4.309v-.25A12.861,12.861,0,0,0,4.34-7.684a10.3,10.3,0,0,0-.957-2.527A5.838,5.838,0,0,0,2-11.953l.3-.883A6.1,6.1,0,0,1,4.273-10.93a9.9,9.9,0,0,1,1.4,2.945A12.363,12.363,0,0,1,6.137-4.539Z" transform="translate(1946.5 -3956)" fill="#12263f"/>
    <path id="Trazado_899946" data-name="Trazado 899946" d="M-2.484-1.023a2.082,2.082,0,0,0,1.352-.469A1.649,1.649,0,0,0-.492-2.664H.875a2.621,2.621,0,0,1-.5,1.383A3.293,3.293,0,0,1-.855-.234,3.55,3.55,0,0,1-2.484.156,3.482,3.482,0,0,1-5.23-1,4.59,4.59,0,0,1-6.25-4.148v-.242a5.089,5.089,0,0,1,.453-2.2A3.451,3.451,0,0,1-4.5-8.078a3.7,3.7,0,0,1,2-.531,3.39,3.39,0,0,1,2.363.852,3.043,3.043,0,0,1,1,2.211H-.492a1.992,1.992,0,0,0-.621-1.348,1.932,1.932,0,0,0-1.379-.527A2.023,2.023,0,0,0-4.2-6.629,3.724,3.724,0,0,0-4.8-4.336v.273a3.65,3.65,0,0,0,.6,2.25A2.033,2.033,0,0,0-2.484-1.023Zm8.32-3.516A12.084,12.084,0,0,1,5.379-1.2,9.876,9.876,0,0,1,3.98,1.75,6.127,6.127,0,0,1,2.008,3.672l-.3-.883A6.281,6.281,0,0,0,3.637-.074a12.387,12.387,0,0,0,.746-4.309v-.25a12.861,12.861,0,0,0-.344-3.051,10.3,10.3,0,0,0-.957-2.527A5.838,5.838,0,0,0,1.7-11.953l.3-.883A6.1,6.1,0,0,1,3.973-10.93a9.9,9.9,0,0,1,1.4,2.945A12.363,12.363,0,0,1,5.836-4.539Z" transform="translate(2157.5 -3956)" fill="#12263f"/>
    <path id="Trazado_899947" data-name="Trazado 899947" d="M-2.895,0h-7.453V-1.039L-6.41-5.414A9.354,9.354,0,0,0-5.2-7.027a2.693,2.693,0,0,0,.332-1.285A2.041,2.041,0,0,0-5.41-9.773a1.885,1.885,0,0,0-1.437-.57,2.232,2.232,0,0,0-1.676.613,2.343,2.343,0,0,0-.6,1.707h-1.445a3.355,3.355,0,0,1,1.012-2.539,3.751,3.751,0,0,1,2.707-.969A3.6,3.6,0,0,1-4.34-10.7a2.838,2.838,0,0,1,.922,2.215q0,1.68-2.141,4l-3.047,3.3h5.711Zm8.82-4.133a5.062,5.062,0,0,1-.883,3.109A2.829,2.829,0,0,1,2.652.156,3.1,3.1,0,0,1,.23-.82V3.25H-1.215v-11.7H.105l.07.938A2.977,2.977,0,0,1,2.629-8.609a2.882,2.882,0,0,1,2.41,1.148,5.117,5.117,0,0,1,.887,3.2ZM4.48-4.3a3.735,3.735,0,0,0-.609-2.258A1.963,1.963,0,0,0,2.2-7.383,2.125,2.125,0,0,0,.23-6.219V-2.18A2.129,2.129,0,0,0,2.215-1.023a1.954,1.954,0,0,0,1.652-.824A4.077,4.077,0,0,0,4.48-4.3ZM8.1,4.312h2.885V5H7.069V4.38L9.789.767H7.11v-.7h3.737v.6Z" transform="translate(1795.051 -3845.817)" fill="#12263f"/>
    <path id="Trazado_899948" data-name="Trazado 899948" d="M-2.895,0h-7.453V-1.039L-6.41-5.414A9.354,9.354,0,0,0-5.2-7.027a2.693,2.693,0,0,0,.332-1.285A2.041,2.041,0,0,0-5.41-9.773a1.885,1.885,0,0,0-1.437-.57,2.232,2.232,0,0,0-1.676.613,2.343,2.343,0,0,0-.6,1.707h-1.445a3.355,3.355,0,0,1,1.012-2.539,3.751,3.751,0,0,1,2.707-.969A3.6,3.6,0,0,1-4.34-10.7a2.838,2.838,0,0,1,.922,2.215q0,1.68-2.141,4l-3.047,3.3h5.711Zm8.82-4.133a5.062,5.062,0,0,1-.883,3.109A2.829,2.829,0,0,1,2.652.156,3.1,3.1,0,0,1,.23-.82V3.25H-1.215v-11.7H.105l.07.938A2.977,2.977,0,0,1,2.629-8.609a2.882,2.882,0,0,1,2.41,1.148,5.117,5.117,0,0,1,.887,3.2ZM4.48-4.3a3.735,3.735,0,0,0-.609-2.258A1.963,1.963,0,0,0,2.2-7.383,2.125,2.125,0,0,0,.23-6.219V-2.18A2.129,2.129,0,0,0,2.215-1.023a1.954,1.954,0,0,0,1.652-.824A4.077,4.077,0,0,0,4.48-4.3ZM8.1,4.312h2.885V5H7.069V4.38L9.789.767H7.11v-.7h3.737v.6Z" transform="translate(2006.051 -3845.817)" fill="#12263f"/>
    <path id="Trazado_899949" data-name="Trazado 899949" d="M-2.895,0h-7.453V-1.039L-6.41-5.414A9.354,9.354,0,0,0-5.2-7.027a2.693,2.693,0,0,0,.332-1.285A2.041,2.041,0,0,0-5.41-9.773a1.885,1.885,0,0,0-1.437-.57,2.232,2.232,0,0,0-1.676.613,2.343,2.343,0,0,0-.6,1.707h-1.445a3.355,3.355,0,0,1,1.012-2.539,3.751,3.751,0,0,1,2.707-.969A3.6,3.6,0,0,1-4.34-10.7a2.838,2.838,0,0,1,.922,2.215q0,1.68-2.141,4l-3.047,3.3h5.711Zm8.82-4.133a5.062,5.062,0,0,1-.883,3.109A2.829,2.829,0,0,1,2.652.156,3.1,3.1,0,0,1,.23-.82V3.25H-1.215v-11.7H.105l.07.938A2.977,2.977,0,0,1,2.629-8.609a2.882,2.882,0,0,1,2.41,1.148,5.117,5.117,0,0,1,.887,3.2ZM4.48-4.3a3.735,3.735,0,0,0-.609-2.258A1.963,1.963,0,0,0,2.2-7.383,2.125,2.125,0,0,0,.23-6.219V-2.18A2.129,2.129,0,0,0,2.215-1.023a1.954,1.954,0,0,0,1.652-.824A4.077,4.077,0,0,0,4.48-4.3ZM8.1,4.312h2.885V5H7.069V4.38L9.789.767H7.11v-.7h3.737v.6Z" transform="translate(2217.051 -3845.817)" fill="#12263f"/>
    <g id="Grupo_1108461" data-name="Grupo 1108461" transform="translate(181 10.68)">
      <g id="Rectángulo_405914" data-name="Rectángulo 405914" transform="translate(1459 -3952.503)" fill="#fff" stroke="#ff007f" stroke-width="1">
        <rect width="191" height="74" rx="5" stroke="none"/>
        <rect x="0.5" y="0.5" width="190" height="73" rx="4.5" fill="none"/>
      </g>
      <g id="Grupo_1108460" data-name="Grupo 1108460" transform="translate(2987 -7828.006) rotate(180)">
        <path id="Unión_7" data-name="Unión 7" d="M8.307,52.948V11.814L0,16.13,9,0l9,16.13-7.615-3.956V52.948a1.039,1.039,0,1,1-2.077,0Z" transform="translate(1517 -3887.503) rotate(180)" fill="#ff007f"/>
        <path id="Unión_8" data-name="Unión 8" d="M8.307,52.948V11.814L0,16.13,9,0l9,16.13-7.615-3.956V52.948a1.039,1.039,0,1,1-2.077,0Z" transform="translate(1477 -3940.503)" fill="#ff007f"/>
      </g>
      <line id="Línea_643" data-name="Línea 643" y2="74.003" transform="translate(1522.5 -3952.503)" fill="none" stroke="#ff007f" stroke-width="1"/>
      <line id="Línea_645" data-name="Línea 645" y2="74.003" transform="translate(1586.5 -3952.503)" fill="none" stroke="#ff007f" stroke-width="1"/>
    </g>
    <g id="Grupo_1108462" data-name="Grupo 1108462" transform="translate(392 10.68)">
      <g id="Rectángulo_405914-2" data-name="Rectángulo 405914" transform="translate(1459 -3952.503)" fill="#fff" stroke="#ff007f" stroke-width="1">
        <rect width="191" height="74" rx="5" stroke="none"/>
        <rect x="0.5" y="0.5" width="190" height="73" rx="4.5" fill="none"/>
      </g>
      <g id="Grupo_1108460-2" data-name="Grupo 1108460" transform="translate(-7)">
        <path id="Unión_7-2" data-name="Unión 7" d="M8.307,52.948V11.814L0,16.13,9,0l9,16.13-7.615-3.956V52.948a1.039,1.039,0,1,1-2.077,0Z" transform="translate(1487 -3941.503)" fill="#ff007f"/>
        <path id="Unión_8-2" data-name="Unión 8" d="M8.307,52.948V11.814L0,16.13,9,0l9,16.13-7.615-3.956V52.948a1.039,1.039,0,1,1-2.077,0Z" transform="translate(1571 -3886.503) rotate(180)" fill="#ff007f"/>
      </g>
      <line id="Línea_643-2" data-name="Línea 643" y2="74.003" transform="translate(1522.5 -3952.503)" fill="none" stroke="#ff007f" stroke-width="1"/>
      <line id="Línea_645-2" data-name="Línea 645" y2="74.003" transform="translate(1586.5 -3952.503)" fill="none" stroke="#ff007f" stroke-width="1"/>
    </g>
    <g id="Grupo_1108463" data-name="Grupo 1108463" transform="translate(603 10.68)">
      <g id="Rectángulo_405914-3" data-name="Rectángulo 405914" transform="translate(1459 -3952.503)" fill="#fff" stroke="#ff007f" stroke-width="1">
        <rect width="191" height="74" rx="5" stroke="none"/>
        <rect x="0.5" y="0.5" width="190" height="73" rx="4.5" fill="none"/>
      </g>
      <g id="Grupo_1108460-3" data-name="Grupo 1108460" transform="translate(-7)">
        <path id="Unión_7-3" data-name="Unión 7" d="M8.307,52.948V11.814L0,16.13,9,0l9,16.13-7.615-3.956V52.948a1.039,1.039,0,1,1-2.077,0Z" transform="translate(1487 -3941.503)" fill="#ff007f"/>
        <path id="Unión_8-3" data-name="Unión 8" d="M8.307,52.948V11.814L0,16.13,9,0l9,16.13-7.615-3.956V52.948a1.039,1.039,0,1,1-2.077,0Z" transform="translate(1553 -3940.503)" fill="#ff007f"/>
      </g>
      <line id="Línea_643-3" data-name="Línea 643" y2="74.003" transform="translate(1522.5 -3952.503)" fill="none" stroke="#ff007f" stroke-width="1"/>
      <line id="Línea_645-3" data-name="Línea 645" y2="74.003" transform="translate(1586.5 -3952.503)" fill="none" stroke="#ff007f" stroke-width="1"/>
    </g>
  </g>
</svg>
