<svg xmlns="http://www.w3.org/2000/svg" xmlns:xlink="http://www.w3.org/1999/xlink" width="57" height="57" viewBox="0 0 57 57">
  <defs>
    <clipPath id="clip-path">
      <rect id="Rectángulo_405910" data-name="Rectángulo 405910" width="57" height="57" transform="translate(1184.051 6523.956)" fill="#0ac675" stroke="#707070" stroke-width="1"/>
    </clipPath>
  </defs>
  <g id="Enmascarar_grupo_1098739" data-name="Enmascarar grupo 1098739" transform="translate(-1184.051 -6523.956)" clip-path="url(#clip-path)">
    <g id="descentralizado" transform="translate(1184.051 6523.957)">
      <path id="Trazado_899378" data-name="Trazado 899378" d="M28.5,34.453A5.955,5.955,0,1,0,22.545,28.5,5.955,5.955,0,0,0,28.5,34.453Zm0-10.351a4.4,4.4,0,1,1-4.4,4.4,4.4,4.4,0,0,1,4.4-4.4Z" fill="#0ac675"/>
      <path id="Trazado_899379" data-name="Trazado 899379" d="M28.5,9.3a4.649,4.649,0,1,0-4.649-4.649A4.649,4.649,0,0,0,28.5,9.3Zm0-7.737a3.09,3.09,0,1,1-3.09,3.09,3.09,3.09,0,0,1,3.09-3.09Z" fill="#0ac675"/>
      <path id="Trazado_899380" data-name="Trazado 899380" d="M28.5,47.7a4.649,4.649,0,1,0,4.649,4.649A4.649,4.649,0,0,0,28.5,47.7Zm0,7.74a3.09,3.09,0,1,1,3.09-3.09,3.09,3.09,0,0,1-3.09,3.09Z" fill="#0ac675"/>
      <path id="Trazado_899381" data-name="Trazado 899381" d="M45.366,16.28a4.645,4.645,0,1,0-3.287-1.36,4.645,4.645,0,0,0,3.287,1.36ZM43.181,9.448a3.09,3.09,0,1,1-.9,2.185,3.09,3.09,0,0,1,.9-2.185Z" fill="#0ac675"/>
      <path id="Trazado_899382" data-name="Trazado 899382" d="M11.634,40.716a4.648,4.648,0,1,0,3.287,1.361,4.648,4.648,0,0,0-3.287-1.361Zm2.185,6.833a3.09,3.09,0,1,1,.9-2.185,3.09,3.09,0,0,1-.9,2.185Z" fill="#0ac675"/>
      <path id="Trazado_899383" data-name="Trazado 899383" d="M52.351,23.85A4.649,4.649,0,1,0,57,28.5a4.649,4.649,0,0,0-4.649-4.649Zm0,7.739a3.09,3.09,0,1,1,3.09-3.089,3.09,3.09,0,0,1-3.09,3.089Z" fill="#0ac675"/>
      <path id="Trazado_899384" data-name="Trazado 899384" d="M9.3,28.5a4.649,4.649,0,1,0-4.648,4.647A4.649,4.649,0,0,0,9.3,28.5ZM4.649,31.589A3.09,3.09,0,1,1,7.739,28.5a3.09,3.09,0,0,1-3.09,3.089Z" fill="#0ac675"/>
      <path id="Trazado_899385" data-name="Trazado 899385" d="M42.078,42.077A4.617,4.617,0,1,0,45.366,40.7a4.649,4.649,0,0,0-3.287,1.375Zm5.472,5.472a3.09,3.09,0,1,1,.9-2.185,3.09,3.09,0,0,1-.9,2.185Z" fill="#0ac675"/>
      <path id="Trazado_899386" data-name="Trazado 899386" d="M11.634,16.282A4.649,4.649,0,1,0,8.347,14.92,4.649,4.649,0,0,0,11.634,16.282ZM9.45,9.448a3.08,3.08,0,1,1-.909,2.185A3.09,3.09,0,0,1,9.45,9.448Z" fill="#0ac675"/>
      <path id="Trazado_899387" data-name="Trazado 899387" d="M40.938,31.909a.778.778,0,0,0,1.1,0l2.86-2.86a.778.778,0,0,0,0-1.1l-2.86-2.86a.779.779,0,1,0-1.1,1.1l1.536,1.536h-4.5a9.472,9.472,0,0,0-2.227-5.376l3.173-3.173V21.33a.779.779,0,0,0,1.559,0V17.287a.779.779,0,0,0-.779-.779H35.661a.779.779,0,0,0,0,1.559h2.173l-3.183,3.183a9.461,9.461,0,0,0-5.371-2.227V14.531L30.8,16.054a.779.779,0,0,0,1.1-1.1l-2.86-2.86a.78.78,0,0,0-1.1,0l-2.86,2.86a.779.779,0,1,0,1.1,1.1l1.536-1.536v4.5a9.466,9.466,0,0,0-5.379,2.234l-3.189-3.189h2.173a.779.779,0,1,0,0-1.559H17.281a.78.78,0,0,0-.779.779V21.33a.779.779,0,0,0,1.559,0V19.178l3.181,3.18a9.469,9.469,0,0,0-2.219,5.368H14.511l1.536-1.536a.779.779,0,0,0-1.1-1.1l-2.859,2.86a.778.778,0,0,0,0,1.1l2.859,2.86a.779.779,0,1,0,1.1-1.1l-1.523-1.522h4.5a9.467,9.467,0,0,0,2.227,5.364l-3.189,3.19V35.666a.779.779,0,0,0-1.559,0v4.044a.78.78,0,0,0,.779.779h4.044a.779.779,0,0,0,0-1.559H19.172l3.18-3.18a9.468,9.468,0,0,0,5.369,2.227v4.5l-1.536-1.536a.779.779,0,0,0-1.1,1.1l2.86,2.86a.779.779,0,0,0,1.1,0l2.86-2.86a.779.779,0,1,0-1.1-1.1l-1.523,1.523v-4.49a9.462,9.462,0,0,0,5.361-2.218l3.174,3.174H35.661a.779.779,0,0,0,0,1.559H39.7a.779.779,0,0,0,.779-.779V35.666a.779.779,0,0,0-1.559,0v2.173l-3.182-3.183a9.468,9.468,0,0,0,2.234-5.371h4.483l-1.523,1.523a.778.778,0,0,0,0,1.1ZM28.5,20.54a7.935,7.935,0,0,1,5.62,2.329l.005.007.005,0a7.931,7.931,0,0,1,2.325,5.575c0,.016,0,.032,0,.049s0,.029,0,.045a7.934,7.934,0,0,1-2.333,5.577l-.007,0v0A7.957,7.957,0,1,1,28.5,20.54Z" fill="#0ac675"/>
    </g>
  </g>
</svg>
