<svg xmlns="http://www.w3.org/2000/svg" xmlns:xlink="http://www.w3.org/1999/xlink" width="134" height="134" viewBox="0 0 134 134">
  <defs>
    <clipPath id="clip-path">
      <rect id="Rectángulo_405123" data-name="Rectángulo 405123" width="85" height="85" transform="translate(996.051 4567)" fill="#8000ff"/>
    </clipPath>
  </defs>
  <g id="Grupo_1106892" data-name="Grupo 1106892" transform="translate(-971.051 -4543)">
    <circle id="Elipse_11599" data-name="Elipse 11599" cx="67" cy="67" r="67" transform="translate(971.051 4543)" fill="#0ac675"/>
    <g id="Enmascarar_grupo_1098707" data-name="Enmascarar grupo 1098707" clip-path="url(#clip-path)">
      <path id="estadisticas" d="M83.672,36.167H76.048A1.328,1.328,0,0,0,74.72,37.5v43.7a1.328,1.328,0,0,0,1.328,1.328h7.624A1.328,1.328,0,0,0,85,81.192V37.5a1.328,1.328,0,0,0-1.328-1.328Zm-1.328,43.7H77.376V38.824h4.968ZM69.018,42.8H61.394a1.328,1.328,0,0,0-1.328,1.328V81.192a1.328,1.328,0,0,0,1.328,1.328h7.624a1.328,1.328,0,0,0,1.328-1.328V44.123A1.328,1.328,0,0,0,69.018,42.8ZM67.69,79.864H62.722V45.451H67.69ZM54.364,49.423H46.74a1.328,1.328,0,0,0-1.328,1.328V81.192A1.328,1.328,0,0,0,46.74,82.52h7.624a1.328,1.328,0,0,0,1.328-1.328V50.751A1.328,1.328,0,0,0,54.364,49.423ZM53.036,79.864H48.068V52.079h4.968ZM39.71,56.051H32.087a1.328,1.328,0,0,0-1.328,1.328V81.192a1.328,1.328,0,0,0,1.328,1.328H39.71a1.328,1.328,0,0,0,1.328-1.328V57.379A1.328,1.328,0,0,0,39.71,56.051ZM38.382,79.864H33.415V58.707h4.968ZM15.126,65.5A1.328,1.328,0,0,1,13.8,66.826H2.013a1.328,1.328,0,1,1,0-2.656H13.8A1.328,1.328,0,0,1,15.126,65.5ZM26.91,58.768A1.328,1.328,0,0,1,25.582,60.1H2.013a1.328,1.328,0,1,1,0-2.656H25.582A1.328,1.328,0,0,1,26.91,58.768ZM1.049,45.879a1.328,1.328,0,0,0-.364.913v5.866a1.328,1.328,0,1,0,2.656,0V47.321l4.03-4.257a22.932,22.932,0,0,0,37-8.617h3.2a1.328,1.328,0,0,0,1.15-.664l5.25-9.094a1.328,1.328,0,0,0-2.3-1.328l-4.867,8.43h-1.6a22.926,22.926,0,0,0-5.728-21.455l5.492-5.2h5.338a1.328,1.328,0,1,0,0-2.656H44.45a1.329,1.329,0,0,0-.913.364l-6,5.681A22.937,22.937,0,0,0,5.527,41.149ZM35.105,34.447h6.4a20.42,20.42,0,0,1-7.149,8.559L25.271,27.558l17.926.008a20.18,20.18,0,0,1-.73,4.225H35.105a1.328,1.328,0,1,0,0,2.656ZM29.857,17.622a1.328,1.328,0,0,0,1.877.051l5.824-5.513A20.226,20.226,0,0,1,43.2,24.91L24.277,24.9V5.981A20.192,20.192,0,0,1,35.59,10.367l-5.681,5.378a1.328,1.328,0,0,0-.051,1.877Zm-27.2,8.607A20.318,20.318,0,0,1,21.621,5.981V26.229a1.327,1.327,0,0,0,.183.673l10.26,17.454A20.256,20.256,0,0,1,9.2,41.136l6.682-7.059a1.328,1.328,0,0,0-1.929-1.826L7.363,39.209a20.2,20.2,0,0,1-4.707-12.98ZM57.132,3.808A1.328,1.328,0,0,1,58.46,2.48H82.028a1.328,1.328,0,1,1,0,2.656H58.46A1.328,1.328,0,0,1,57.132,3.808Zm0,6.73A1.328,1.328,0,0,1,58.46,9.21H70.244a1.328,1.328,0,1,1,0,2.656H58.46A1.328,1.328,0,0,1,57.132,10.538Zm0,12.927a1.328,1.328,0,0,1,1.328-1.328H82.028a1.328,1.328,0,0,1,0,2.656H58.46A1.328,1.328,0,0,1,57.132,23.465Zm14.441,6.73a1.328,1.328,0,0,1-1.328,1.328H58.46a1.328,1.328,0,0,1,0-2.656H70.244A1.328,1.328,0,0,1,71.572,30.194Z" transform="translate(996.051 4567)" fill="#8000ff"/>
    </g>
  </g>
</svg>
