<svg xmlns="http://www.w3.org/2000/svg" xmlns:xlink="http://www.w3.org/1999/xlink" width="84" height="84" viewBox="0 0 84 84">
  <defs>
    <clipPath id="clip-path">
      <rect id="Rectángulo_405692" data-name="Rectángulo 405692" width="49" height="49" transform="translate(773.051 6113.023)" fill="#4d0099" stroke="#707070" stroke-width="1"/>
    </clipPath>
  </defs>
  <g id="Grupo_1108950" data-name="Grupo 1108950" transform="translate(-755.051 -6095.023)">
    <path id="Trazado_876531" data-name="Trazado 876531" d="M42,0A42,42,0,1,1,0,42,42,42,0,0,1,42,0Z" transform="translate(755.051 6095.023)" fill="#fff"/>
    <g id="Enmascarar_grupo_1098717" data-name="Enmascarar grupo 1098717" clip-path="url(#clip-path)">
      <path id="cubo-3d" d="M48.95,44.805c-.019-.043-.739-1.643-1.2-2.667a.7.7,0,0,0-1.272.572l.332.738-9.822-5.67c0-.367,0-13.119,0-13.225a.7.7,0,0,0-.348-.6l-11.451-6.61V5.779c.335.382.468.906,1.011.906a.7.7,0,0,0,.565-1.1C24.98,3.1,25.007,3.043,24.686,2.949a.7.7,0,0,0-.761.261L22.218,5.58A.7.7,0,0,0,23.35,6.4l.444-.616V17.346c-12.3,7.1-11.529,6.621-11.66,6.8-.2.269-.14-.767-.14,13.637L2.21,43.427l.322-.716a.7.7,0,0,0-1.272-.572C1,42.709.077,44.766.06,44.805a.7.7,0,0,0,.569.976c3.071.309,2.909.3,2.975.3a.7.7,0,0,0,.069-1.391l-.73-.074,9.748-5.627c12.059,6.921,11.445,6.7,11.8,6.7.274,0-.668.493,11.8-6.7l9.752,5.629-.706.071a.7.7,0,1,0,.14,1.388c3.14-.323,3.09-.248,3.337-.5a.781.781,0,0,0,.136-.766ZM24.491,18.554,34.9,24.56l-10.4,6.006-10.4-6.006Zm-11.1,7.214,10.4,6.006V43.785l-10.4-6.006Zm11.8,18.017V31.773l10.4-6.006V37.779Z" transform="translate(773.051 6113.023)" fill="#4d0099"/>
    </g>
  </g>
</svg>
