<svg xmlns="http://www.w3.org/2000/svg" xmlns:xlink="http://www.w3.org/1999/xlink" width="84" height="84" viewBox="0 0 84 84">
  <defs>
    <clipPath id="clip-path">
      <rect id="Rectángulo_405702" data-name="Rectángulo 405702" width="49" height="49" transform="translate(-3132 -5619)" fill="#4d0099" stroke="#707070" stroke-width="1"/>
    </clipPath>
  </defs>
  <g id="Grupo_1108951" data-name="Grupo 1108951" transform="translate(-1109.051 -6095.023)">
    <path id="Trazado_898882" data-name="Trazado 898882" d="M42,0A42,42,0,1,1,0,42,42,42,0,0,1,42,0Z" transform="translate(1109.051 6095.023)" fill="#fff"/>
    <g id="Enmascarar_grupo_1098716" data-name="Enmascarar grupo 1098716" transform="translate(4258.051 11731.693)" clip-path="url(#clip-path)">
      <g id="bar" transform="translate(-3132 -5619)">
        <path id="Trazado_898883" data-name="Trazado 898883" d="M45.546,49H3.455A3.063,3.063,0,0,1,.439,45.4l5.4-30.625a3.057,3.057,0,0,1,3.016-2.53H40.141a3.057,3.057,0,0,1,3.016,2.53l5.4,30.625A3.063,3.063,0,0,1,45.546,49ZM8.859,14.292a1.023,1.023,0,0,0-1.007.843L2.448,45.76a1.024,1.024,0,0,0,1.007,1.2H45.546a1.024,1.024,0,0,0,1.007-1.2l-5.4-30.625a1.023,1.023,0,0,0-1.007-.843Z" fill="#4d0099"/>
        <path id="Trazado_898884" data-name="Trazado 898884" d="M24.5,14.292a7.146,7.146,0,1,1,7.146-7.146A7.154,7.154,0,0,1,24.5,14.292Zm0-12.25a5.1,5.1,0,1,0,5.1,5.1A5.111,5.111,0,0,0,24.5,2.042Z" fill="#4d0099"/>
        <path id="Trazado_898885" data-name="Trazado 898885" d="M13.271,38.792a1.021,1.021,0,0,1-1.021-1.021V23.479a1.021,1.021,0,1,1,2.042,0V37.771A1.021,1.021,0,0,1,13.271,38.792Z" fill="#4d0099"/>
        <path id="Trazado_898886" data-name="Trazado 898886" d="M31.646,38.792a5.11,5.11,0,0,1-5.1-5.1V27.563a5.1,5.1,0,1,1,10.208,0,1.021,1.021,0,1,1-2.042,0,3.063,3.063,0,1,0-6.125,0v6.125a3.063,3.063,0,0,0,6.125,0V32.667H31.646a1.021,1.021,0,0,1,0-2.042h4.083a1.021,1.021,0,0,1,1.021,1.021v2.042A5.11,5.11,0,0,1,31.646,38.792Z" fill="#4d0099"/>
        <path id="Trazado_898887" data-name="Trazado 898887" d="M21.438,38.918a1.02,1.02,0,0,1-.68-.259l-8.167-7.272a1.027,1.027,0,0,1-.341-.766,1.013,1.013,0,0,1,.349-.764l8.167-7.146a1.021,1.021,0,0,1,1.345,1.537l-7.3,6.382,7.3,6.507a1.018,1.018,0,0,1-.68,1.78Z" fill="#4d0099"/>
      </g>
    </g>
  </g>
</svg>
