<svg xmlns="http://www.w3.org/2000/svg" xmlns:xlink="http://www.w3.org/1999/xlink" width="134" height="134" viewBox="0 0 134 134">
  <defs>
    <clipPath id="clip-path">
      <rect id="Rectángulo_405124" data-name="Rectángulo 405124" width="85" height="85" transform="translate(415.051 4805)" fill="#8000ff"/>
    </clipPath>
  </defs>
  <g id="Grupo_1106893" data-name="Grupo 1106893" transform="translate(-390.051 -4780)">
    <circle id="Elipse_11600" data-name="Elipse 11600" cx="67" cy="67" r="67" transform="translate(390.051 4780)" fill="#0ac675"/>
    <g id="Enmascarar_grupo_1098708" data-name="Enmascarar grupo 1098708" clip-path="url(#clip-path)">
      <g id="layer1" transform="translate(415.051 4805)">
        <path id="rect906" d="M69.075,0A16.053,16.053,0,0,0,57.444,26.985c1.027,1.216,1.993,2.243,2.648,3.217a6.577,6.577,0,0,1,.955,1.676,1.321,1.321,0,0,0,.06,2.641c-.065,1.742-.005,3.548-.005,5.312a4.146,4.146,0,0,0,3.992,3.982v1.336a3.986,3.986,0,0,0,7.971,0V43.813a4.147,4.147,0,0,0,3.982-3.982c0-1.762.015-3.569,0-5.312a1.324,1.324,0,0,0,1.333-1.326,1.28,1.28,0,0,0-1.271-1.32,6.673,6.673,0,0,1,.957-1.671c.655-.973,1.621-2,2.648-3.217A15.934,15.934,0,0,0,85,15.919,15.85,15.85,0,0,0,69.075,0ZM3.432,2.635A3.455,3.455,0,0,0,0,6.07V20.456a3.45,3.45,0,0,0,3.432,3.429H17.816a3.452,3.452,0,0,0,3.434-3.429V16.366a1.323,1.323,0,1,0-2.646,0v4.091a.754.754,0,0,1-.789.773H3.432a.743.743,0,0,1-.776-.773V6.07a.746.746,0,0,1,.776-.776h10.3a1.329,1.329,0,0,0,0-2.659Zm65.643.021A13.2,13.2,0,0,1,82.344,15.919a13.539,13.539,0,0,1-3.66,9.359,40.558,40.558,0,0,0-2.825,3.432,8.664,8.664,0,0,0-1.468,3.149l-10.628,0A8.626,8.626,0,0,0,62.3,28.71a40.528,40.528,0,0,0-2.822-3.432,13.767,13.767,0,0,1-3.681-9.359A13.346,13.346,0,0,1,69.075,2.656Zm1.331,2.628a8.967,8.967,0,0,0-7.813,4.659,1.362,1.362,0,0,0,2.381,1.323A6.227,6.227,0,0,1,70.409,8a1.359,1.359,0,0,0,1.354-1.364,1.335,1.335,0,0,0-1.357-1.354ZM17.268,6.62a1.328,1.328,0,0,0-.942.392l-5.7,5.7L7.582,9.668a1.329,1.329,0,0,0-1.875,1.883L9.689,15.53a1.328,1.328,0,0,0,1.883,0L18.21,8.895a1.333,1.333,0,0,0-.942-2.275Zm7.974,0a1.328,1.328,0,1,0,0,2.656H37.2a1.328,1.328,0,1,0,0-2.656Zm0,5.312a1.328,1.328,0,1,0,0,2.656H42.508a1.328,1.328,0,0,0,0-2.656Zm35.865,1.331a1.328,1.328,0,1,0,1.328,1.328,1.328,1.328,0,0,0-1.328-1.328Zm16.018,1.326a1.328,1.328,0,0,0-.96.335l-6.589,5.865-3.6-3.209a1.331,1.331,0,0,0-1.767,1.992l4.485,3.982a1.328,1.328,0,0,0,1.764,0l7.471-6.641a1.337,1.337,0,0,0-.8-2.324ZM25.242,17.247a1.329,1.329,0,1,0,0,2.659H49.148a1.329,1.329,0,1,0,0-2.659Zm15.932,9.3a9.3,9.3,0,0,0-6.182,16.238,10.8,10.8,0,0,0-8.428,10.443V65.063H14.609A1.328,1.328,0,0,0,13.286,66.4V74.24a1.328,1.328,0,0,0,.628,1.128l7.336,4.573v3.722A1.328,1.328,0,0,0,22.583,85h37.2A1.328,1.328,0,0,0,61.1,83.664V79.991l7.318-4.249a1.328,1.328,0,0,0,.656-1.149V66.4a1.328,1.328,0,0,0-1.323-1.333L51.8,65.078l-.011-4.431a1.06,1.06,0,0,0,1,.446h9.639a3.984,3.984,0,1,0,0-7.969l-4.931.011c-2.866-2.736-5.133-7.1-8.039-9.292a6.406,6.406,0,0,0-2.143-1.012,9.294,9.294,0,0,0-6.135-16.288ZM3.432,29.2A3.455,3.455,0,0,0,0,32.635V47.029a3.452,3.452,0,0,0,3.432,3.432H17.816a3.455,3.455,0,0,0,3.434-3.432v-4.1a1.323,1.323,0,1,0-2.646,0v4.1a.756.756,0,0,1-.789.776H3.432a.746.746,0,0,1-.776-.776V32.635a.746.746,0,0,1,.776-.776h10.3a1.329,1.329,0,0,0,0-2.659Zm37.743,0a6.643,6.643,0,1,1-6.638,6.651A6.637,6.637,0,0,1,41.174,29.2ZM17.268,33.185a1.328,1.328,0,0,0-.942.392l-5.7,5.7L7.582,36.233a1.329,1.329,0,1,0-1.875,1.883L9.689,42.1a1.328,1.328,0,0,0,1.883,0l6.638-6.638a1.332,1.332,0,0,0-.942-2.272Zm46.495,1.333H74.391c-.046,1.751,0,3.546,0,5.312a1.377,1.377,0,0,1-.431.892,1.429,1.429,0,0,1-.892.431H65.091a1.423,1.423,0,0,1-.89-.431,1.4,1.4,0,0,1-.444-.892c0-1.757.042-3.58.005-5.312Zm3.99,9.294h2.656v1.336a1.328,1.328,0,0,1-2.656,0ZM37.538,45.148h6.895a5.248,5.248,0,0,1,3.45.833A14.111,14.111,0,0,1,50.37,48.5l5.416,6.765a1.474,1.474,0,0,0,1.077.524l5.559-.011a1.328,1.328,0,0,1,0,2.656h-9.1l-3.746-3.66a1.332,1.332,0,0,0-1.863,1.9l1.434,1.528-.008,6.869H35.859l-.005-7.964a1.328,1.328,0,1,0-2.656,0l.005,7.964-3.982-.016V53.226a8.153,8.153,0,0,1,8.316-8.078ZM15.945,67.721H66.417V73.83L61.1,76.92V74.367a1.323,1.323,0,0,0-2.646,0v7.974H23.906V74.367a1.328,1.328,0,0,0-2.656,0v2.444l-5.3-3.3Z" fill="#8000ff"/>
      </g>
    </g>
  </g>
</svg>
