<svg xmlns="http://www.w3.org/2000/svg" xmlns:xlink="http://www.w3.org/1999/xlink" width="134" height="134" viewBox="0 0 134 134">
  <defs>
    <clipPath id="clip-path">
      <rect id="Rectángulo_405125" data-name="Rectángulo 405125" width="85" height="85" transform="translate(996.051 5059)" fill="#8000ff"/>
    </clipPath>
  </defs>
  <g id="Grupo_1106894" data-name="Grupo 1106894" transform="translate(-971.051 -5034)">
    <circle id="Elipse_11601" data-name="Elipse 11601" cx="67" cy="67" r="67" transform="translate(971.051 5034)" fill="#0ac675"/>
    <g id="Enmascarar_grupo_1098709" data-name="Enmascarar grupo 1098709" clip-path="url(#clip-path)">
      <path id="reporte-de-desempeno" d="M15.014,62.687a1.333,1.333,0,0,1-1.333,1.333H11.032a1.333,1.333,0,1,1,0-2.667h2.648A1.333,1.333,0,0,1,15.014,62.687ZM13.681,55.71H11.032a1.333,1.333,0,0,0,0,2.667h2.648a1.333,1.333,0,0,0,0-2.667ZM40.155,30.52V48.41a1.333,1.333,0,0,1-1.333,1.333H32.527a1.333,1.333,0,0,1-1.333-1.333V30.52a1.333,1.333,0,0,1,1.333-1.333h6.295A1.333,1.333,0,0,1,40.155,30.52Zm-2.667,1.333H33.86V47.076h3.628Zm-8.326-6.559V48.41a1.333,1.333,0,0,1-1.333,1.333H21.534A1.333,1.333,0,0,1,20.2,48.41V25.294a1.333,1.333,0,0,1,1.333-1.333h6.295A1.333,1.333,0,0,1,29.162,25.294ZM26.5,26.627H22.868V47.076H26.5ZM18.17,48.41a1.333,1.333,0,0,1-1.333,1.333H10.542A1.333,1.333,0,0,1,9.209,48.41V37.445a1.333,1.333,0,0,1,1.333-1.333h6.295a1.333,1.333,0,0,1,1.333,1.333ZM15.5,38.778H11.875v8.3H15.5ZM43.519,19.037h6.295a1.333,1.333,0,0,1,1.333,1.333V48.41a1.333,1.333,0,0,1-1.333,1.333H43.519a1.333,1.333,0,0,1-1.333-1.333V20.371A1.333,1.333,0,0,1,43.519,19.037Zm1.333,28.039H48.48V21.7H44.852ZM9.6,29.891a4.087,4.087,0,0,1,5.388-3.876l6.281-8.166a4.088,4.088,0,1,1,7.366-1.205l4.572,3.064a4.08,4.08,0,0,1,4.4-.343l6.126-5.656-1.293-.061a1.333,1.333,0,1,1,.125-2.664L47.2,11.2a1.333,1.333,0,0,1,1.249,1.57l-.829,4.564A1.333,1.333,0,0,1,45,16.859l.15-.825-5.73,5.29a4.089,4.089,0,1,1-7.7.6l-4.572-3.064a4.076,4.076,0,0,1-3.766.618L17.1,27.642a4.088,4.088,0,1,1-7.5,2.25Zm24.651-6.925a1.422,1.422,0,1,0,1.422-1.422A1.424,1.424,0,0,0,34.252,22.966ZM23.259,15.6a1.422,1.422,0,1,0,1.422-1.422A1.424,1.424,0,0,0,23.259,15.6ZM12.267,29.891a1.422,1.422,0,1,0,1.422-1.422,1.424,1.424,0,0,0-1.422,1.422ZM81.348,73.009A22.971,22.971,0,0,1,78.271,84.5a1.333,1.333,0,0,1-1.821.487L69.8,81.147a1.333,1.333,0,0,1-.488-1.822,12.631,12.631,0,1,0-21.882,0,1.333,1.333,0,0,1-.488,1.822L40.29,84.988a1.333,1.333,0,0,1-1.821-.487A22.97,22.97,0,0,1,35.393,73.01q0-.846.062-1.678H7.763a3.782,3.782,0,0,1-3.778-3.777V15.185a3.7,3.7,0,0,1,1.106-2.671L16.333,1.273A3.7,3.7,0,0,1,19,.167H52.593A3.782,3.782,0,0,1,56.37,3.944V50.12c.659-.057,1.326-.088,2-.088A23,23,0,0,1,81.348,73.009Zm-2.711-1.333a20.157,20.157,0,0,0-2.05-7.644l-4.353,2.513a15.176,15.176,0,0,1,1.376,5.131h5.027Zm-21.6-18.933a20.157,20.157,0,0,0-7.644,2.05l2.513,4.353a15.176,15.176,0,0,1,5.13-1.376ZM59.7,57.771a15.176,15.176,0,0,1,5.13,1.376l2.513-4.353a20.16,20.16,0,0,0-7.644-2.05ZM8.538,12.84h7.247a.874.874,0,0,0,.873-.873V4.719ZM35.807,68.664a22.785,22.785,0,0,1,1.418-4.644h-18a1.333,1.333,0,0,1,0-2.667H38.576a23.069,23.069,0,0,1,2.091-2.977H19.227a1.333,1.333,0,0,1,0-2.667H43.265a22.923,22.923,0,0,1,10.439-5.2V3.944a1.112,1.112,0,0,0-1.111-1.111H19.325v9.133a3.544,3.544,0,0,1-3.54,3.54H6.652V67.553a1.112,1.112,0,0,0,1.111,1.111H35.807Zm7.325,3.011a15.176,15.176,0,0,1,1.376-5.13l-4.353-2.513a20.157,20.157,0,0,0-2.05,7.644Zm1.372,7.8a15.3,15.3,0,0,1-1.372-5.132H38.105a20.308,20.308,0,0,0,2.044,7.647ZM49.6,60.484,47.086,56.13a20.477,20.477,0,0,0-5.594,5.594l4.353,2.513A15.425,15.425,0,0,1,49.6,60.484Zm21.3,3.754,4.353-2.513a20.477,20.477,0,0,0-5.594-5.594l-2.513,4.353A15.425,15.425,0,0,1,70.9,64.238Zm7.74,10.1H73.609a15.306,15.306,0,0,1-1.372,5.133l4.355,2.514A20.315,20.315,0,0,0,78.636,74.343ZM67.549,67.71a1.333,1.333,0,0,1-.488,1.821l-4.05,2.338a4.791,4.791,0,1,1-1.336-2.308l4.053-2.34a1.334,1.334,0,0,1,1.821.488Zm-7.067,5.3a2.112,2.112,0,1,0-2.112,2.112A2.115,2.115,0,0,0,60.482,73.009Z" transform="translate(995.884 5058.833)" fill="#8000ff"/>
    </g>
  </g>
</svg>
