<svg xmlns="http://www.w3.org/2000/svg" width="85" height="85" viewBox="0 0 85 85">
  <g id="Grupo_1108958" data-name="Grupo 1108958" transform="translate(-180.051 -8173)">
    <circle id="Elipse_11668" data-name="Elipse 11668" cx="42.5" cy="42.5" r="42.5" transform="translate(180.051 8173)" fill="#8000ff"/>
    <g id="notas-ancladas" transform="translate(197.499 8188.556)">
      <path id="Trazado_899402" data-name="Trazado 899402" d="M61.525,134.349v3.3a.882.882,0,0,0,.882.882H105.46a.882.882,0,0,0,.882-.882V96.421a.882.882,0,0,0-.882-.882H61.568Z" transform="translate(-56.802 -85.481)" fill="#badafb"/>
      <path id="Trazado_899403" data-name="Trazado 899403" d="M68.052,137.647v-3.3l.043-38.81H61.568l-.043,38.81v3.3a.882.882,0,0,0,.882.882h6.527A.882.882,0,0,1,68.052,137.647Z" transform="translate(-56.802 -85.481)" fill="#97c9f9"/>
      <path id="Trazado_899404" data-name="Trazado 899404" d="M25.04,55.834a.882.882,0,0,0-.882.882V97.942a.882.882,0,0,0,.882.882H68.093a.882.882,0,0,0,.882-.882V56.716a.882.882,0,0,0-.882-.882Z" transform="translate(-23.368 -49.956)" fill="#fcf6ed"/>
      <path id="Trazado_899405" data-name="Trazado 899405" d="M30.607,97.942V56.716a.882.882,0,0,1,.882-.882H25.04a.882.882,0,0,0-.882.882V97.942a.882.882,0,0,0,.882.882h6.449A.882.882,0,0,1,30.607,97.942Z" transform="translate(-23.368 -49.956)" fill="#fcf1de"/>
      <g id="Grupo_1108474" data-name="Grupo 1108474" transform="translate(19.984 0.79)">
        <path id="Trazado_899406" data-name="Trazado 899406" d="M212.908,7.733v.888a3.667,3.667,0,0,1-1,2.522l-.218.23v1.938L212.6,14.6a.276.276,0,0,1-.225.436h-5.36a.276.276,0,0,1-.225-.436l.913-1.286V11.373l-.218-.23a3.667,3.667,0,0,1-1-2.522V7.733a.233.233,0,0,1,.233-.233h5.963A.233.233,0,0,1,212.908,7.733Z" transform="translate(-206.479 -7.5)" fill="#ea9a98"/>
      </g>
      <g id="Grupo_1108475" data-name="Grupo 1108475" transform="translate(0)">
        <path id="Trazado_899407" data-name="Trazado 899407" d="M61.383,92.9H18.33a1.674,1.674,0,0,1-1.672-1.672V50.006a1.674,1.674,0,0,1,1.672-1.672H34.5a.79.79,0,0,1,0,1.579H18.33a.093.093,0,0,0-.093.093V91.232a.093.093,0,0,0,.093.093H61.383a.093.093,0,0,0,.093-.093V65.539a.79.79,0,0,1,1.579,0V91.232A1.674,1.674,0,0,1,61.383,92.9Z" transform="translate(-16.658 -43.246)"/>
        <path id="Trazado_899408" data-name="Trazado 899408" d="M298.2,63.565a.79.79,0,0,1-.79-.79V50.006a.093.093,0,0,0-.093-.093H281.143a.79.79,0,0,1,0-1.579h16.174a1.674,1.674,0,0,1,1.672,1.672v12.77A.79.79,0,0,1,298.2,63.565Z" transform="translate(-252.592 -43.246)"/>
        <path id="Trazado_899409" data-name="Trazado 899409" d="M209.263,132.608H178.331a.79.79,0,0,1,0-1.579h30.932a.093.093,0,0,0,.093-.093V89.711a.093.093,0,0,0-.093-.093h-3.052a.79.79,0,1,1,0-1.579h3.052a1.674,1.674,0,0,1,1.672,1.672v41.226A1.674,1.674,0,0,1,209.263,132.608Z" transform="translate(-160.604 -78.771)"/>
        <path id="Trazado_899410" data-name="Trazado 899410" d="M65.054,462.447H55.7a1.674,1.674,0,0,1-1.672-1.672v-3.3a.79.79,0,1,1,1.579,0v3.3a.093.093,0,0,0,.093.093h9.358a.79.79,0,0,1,0,1.579Z" transform="translate(-50.091 -408.609)"/>
        <path id="Trazado_899411" data-name="Trazado 899411" d="M200,0h5.963a1.024,1.024,0,0,1,1.023,1.023v.888a4.439,4.439,0,0,1-1.221,3.065l0,0V6.349l.768,1.08a1.066,1.066,0,0,1-.869,1.683H200.3a1.065,1.065,0,0,1-.869-1.683l.768-1.08,0-1.373a4.439,4.439,0,0,1-1.221-3.065V1.023A1.024,1.024,0,0,1,200,0Zm5.406,1.579h-4.85v.332a2.866,2.866,0,0,0,.788,1.979l.218.23a.789.789,0,0,1,.216.543V6.6a.79.79,0,0,1-.146.457l-.337.474h3.37l-.337-.474a.79.79,0,0,1-.146-.457V4.663a.789.789,0,0,1,.216-.543l.218-.23a2.866,2.866,0,0,0,.788-1.979Z" transform="translate(-179.785)"/>
        <path id="Línea_646" data-name="Línea 646" d="M-6.71-1.109A.79.79,0,0,1-7.5-1.9V-6.71a.79.79,0,0,1,.79-.79.79.79,0,0,1,.79.79V-1.9A.79.79,0,0,1-6.71-1.109Z" transform="translate(29.909 15.138)"/>
      </g>
    </g>
  </g>
</svg>
