<svg xmlns="http://www.w3.org/2000/svg" xmlns:xlink="http://www.w3.org/1999/xlink" width="84" height="84" viewBox="0 0 84 84">
  <defs>
    <clipPath id="clip-path">
      <rect id="Rectángulo_405695" data-name="Rectángulo 405695" width="49" height="49" transform="translate(-3132 -5619)" fill="#4d0099" stroke="#707070" stroke-width="1"/>
    </clipPath>
  </defs>
  <g id="Grupo_1108952" data-name="Grupo 1108952" transform="translate(3157 5725.67)">
    <path id="Trazado_893295" data-name="Trazado 893295" d="M42,0A42,42,0,1,1,0,42,42,42,0,0,1,42,0Z" transform="translate(-3157 -5725.67)" fill="#fff"/>
    <g id="Enmascarar_grupo_1098718" data-name="Enmascarar grupo 1098718" transform="translate(-7 -89)" clip-path="url(#clip-path)">
      <g id="Page-1" transform="translate(-3132 -5619)">
        <g id="_023---Molecules" data-name="023---Molecules">
          <path id="Shape" d="M44.916,17.966a4.088,4.088,0,0,0-4.083,4.083c0,.028.007.053.008.082l-3.43,2.695a7.33,7.33,0,0,0-8.085.149l-6.771-4.921a7.321,7.321,0,0,0-3.425-8.476l.679-3.866a4.077,4.077,0,1,0-4.828-.841L14.3,10.726a7.333,7.333,0,0,0-5.748,9.592L5.12,23.013a4.033,4.033,0,0,0-1.037-.147A4.083,4.083,0,1,0,8.167,26.95c0-.028-.007-.053-.008-.082l3.43-2.695a7.33,7.33,0,0,0,8.085-.149l6.771,4.921a7.321,7.321,0,0,0,3.425,8.476l-.679,3.866a4.077,4.077,0,1,0,4.828.841l.677-3.855a7.333,7.333,0,0,0,5.748-9.592l3.436-2.695a4.033,4.033,0,0,0,1.037.147,4.083,4.083,0,0,0,0-8.167ZM15.983,10.64l.746-4.252a.817.817,0,1,1,1.609.291l-.746,4.241a7.32,7.32,0,0,0-1.61-.279Zm1.984-9.007a2.443,2.443,0,0,1,1.851,4.044,2.429,2.429,0,0,0-4.134-.735,2.421,2.421,0,0,1,2.283-3.309ZM4.083,29.4a2.45,2.45,0,1,1,2.45-2.45A2.45,2.45,0,0,1,4.083,29.4Zm2.624-5.553,4.22-3.313a.817.817,0,0,1,1.012,1.283L7.721,25.135a4.074,4.074,0,0,0-1.014-1.289Zm6.268-.77a2.45,2.45,0,0,0-1.262-4.336,2.421,2.421,0,0,0-1.769.49,5.747,5.747,0,1,1,3.031,3.846Zm7.953-.155a7.383,7.383,0,0,0,.973-1.329l6.17,4.484a7.383,7.383,0,0,0-.973,1.329ZM33.015,38.356l-.746,4.252a.835.835,0,0,1-.95.659.817.817,0,0,1-.659-.95l.746-4.241a7.32,7.32,0,0,0,1.611.283Zm-1.982,9.01a2.443,2.443,0,0,1-1.851-4.044,2.443,2.443,0,0,0,1.864,1.559,2.624,2.624,0,0,0,.421.035,2.445,2.445,0,0,0,1.854-.848,2.421,2.421,0,0,1-2.287,3.3Zm2.45-10.617a5.717,5.717,0,1,1,2.541-10.827,2.459,2.459,0,0,0-.384,3.416,2.423,2.423,0,0,0,1.926.935,2.473,2.473,0,0,0,1.489-.506,5.706,5.706,0,0,1-5.572,6.982Zm4.593-8.287a.844.844,0,0,1-1.148-.13.822.822,0,0,1,.131-1.15l4.22-3.319a4.074,4.074,0,0,0,1.014,1.289Zm6.84-3.963a2.45,2.45,0,1,1,2.45-2.45A2.45,2.45,0,0,1,44.916,24.5Z" fill="#4d0099"/>
          <path id="Shape-2" data-name="Shape" d="M45.733,0a3.272,3.272,0,0,0-3.2,2.608L39.894,4.584a5.673,5.673,0,0,0-2.328-.5,5.594,5.594,0,0,0-2.806.755l-2.978-2.23a3.267,3.267,0,1,0-3.2,3.925c.082,0,.163-.019.245-.024l3.114,2.337a5.53,5.53,0,0,0-.092.954A5.717,5.717,0,1,0,43.08,8.315l2.408-1.806c.082.006.163.024.245.024a3.267,3.267,0,1,0,0-6.533ZM26.95,3.267A1.633,1.633,0,1,1,28.583,4.9,1.633,1.633,0,0,1,26.95,3.267ZM31.6,4.512,34.3,6.533a.817.817,0,0,1-.98,1.307L30.611,5.807a3.273,3.273,0,0,0,.994-1.3Zm5.962,9.371A4.088,4.088,0,0,1,33.483,9.8c0-.065.01-.125.012-.188a2.431,2.431,0,0,0,2.477-3.56,4.011,4.011,0,0,1,1.594-.336,4.083,4.083,0,0,1,0,8.167Zm4.843-7.1a5.734,5.734,0,0,0-1.054-1.246l1.361-1.019A3.267,3.267,0,0,0,43.7,5.806ZM45.733,4.9a1.633,1.633,0,1,1,1.155-.478,1.633,1.633,0,0,1-1.155.478Z" fill="#4d0099"/>
          <path id="Shape-3" data-name="Shape" d="M3.267,42.466a3.267,3.267,0,1,0,3.2,3.925L9.1,44.415a5.673,5.673,0,0,0,2.328.5,5.594,5.594,0,0,0,2.806-.755l2.978,2.23a3.267,3.267,0,1,0,3.2-3.925c-.082,0-.163.019-.245.025L17.06,40.153a5.53,5.53,0,0,0,.09-.954A5.717,5.717,0,1,0,5.919,40.684L3.512,42.491c-.082-.006-.163-.025-.245-.025Zm0,4.9A1.633,1.633,0,1,1,4.9,45.733,1.633,1.633,0,0,1,3.267,47.366ZM22.05,45.733A1.633,1.633,0,1,1,20.416,44.1,1.633,1.633,0,0,1,22.05,45.733ZM17.4,44.487l-2.7-2.021a.817.817,0,1,1,.98-1.307l2.71,2.033a3.273,3.273,0,0,0-.991,1.3Zm-5.966-9.371A4.088,4.088,0,0,1,15.516,39.2c0,.067-.01.129-.013.194a2.426,2.426,0,0,0-2.476,3.553,4.011,4.011,0,0,1-1.594.336,4.083,4.083,0,0,1,0-8.167Zm-4.843,7.1a5.734,5.734,0,0,0,1.054,1.246L6.288,44.488a3.267,3.267,0,0,0-.993-1.3Z" fill="#4d0099"/>
        </g>
      </g>
    </g>
  </g>
</svg>
