<svg xmlns="http://www.w3.org/2000/svg" xmlns:xlink="http://www.w3.org/1999/xlink" width="85" height="85" viewBox="0 0 85 85">
  <defs>
    <clipPath id="clip-path">
      <rect id="Rectángulo_405696" data-name="Rectángulo 405696" width="49" height="49" transform="translate(-2779 -5619)" fill="#fff" stroke="#707070" stroke-width="1"/>
    </clipPath>
  </defs>
  <g id="Grupo_1108953" data-name="Grupo 1108953" transform="translate(2803.98 5726.17)">
    <path id="Trazado_893294" data-name="Trazado 893294" d="M42.5,0A42.5,42.5,0,1,1,0,42.5,42.5,42.5,0,0,1,42.5,0Z" transform="translate(-2803.98 -5726.17)" fill="#fff"/>
    <g id="Enmascarar_grupo_1098719" data-name="Enmascarar grupo 1098719" transform="translate(-7 -89)" clip-path="url(#clip-path)">
      <g id="piel" transform="translate(-2779 -5619)">
        <path id="Trazado_898897" data-name="Trazado 898897" d="M48.426,29.85H32.356a.574.574,0,1,1,0-1.148h16.07a.574.574,0,0,1,0,1.148Z"/>
        <path id="Trazado_898898" data-name="Trazado 898898" d="M16.652,29.85H.574a.574.574,0,1,1,0-1.148H16.652a.574.574,0,0,1,0,1.148Z"/>
        <path id="Trazado_898899" data-name="Trazado 898899" d="M6.115,38a2.3,2.3,0,1,1,2.3-2.3,2.3,2.3,0,0,1-2.3,2.3Zm0-3.444A1.148,1.148,0,1,0,7.264,35.7,1.148,1.148,0,0,0,6.115,34.554Z"/>
        <path id="Trazado_898900" data-name="Trazado 898900" d="M12.25,43.822a2.3,2.3,0,1,1,2.3-2.3,2.3,2.3,0,0,1-2.3,2.3Zm0-3.444A1.148,1.148,0,1,0,13.4,41.526a1.148,1.148,0,0,0-1.148-1.148Z"/>
        <path id="Trazado_898901" data-name="Trazado 898901" d="M24.5,43.822a2.3,2.3,0,1,1,2.3-2.3,2.3,2.3,0,0,1-2.3,2.3Zm0-3.444a1.148,1.148,0,1,0,1.148,1.148A1.148,1.148,0,0,0,24.5,40.378Z"/>
        <path id="Trazado_898902" data-name="Trazado 898902" d="M36.75,43.822a2.3,2.3,0,1,1,2.3-2.3,2.3,2.3,0,0,1-2.3,2.3Zm0-3.444A1.148,1.148,0,1,0,37.9,41.526a1.148,1.148,0,0,0-1.148-1.148Z"/>
        <path id="Trazado_898903" data-name="Trazado 898903" d="M18.375,38a2.3,2.3,0,1,1,2.3-2.3A2.3,2.3,0,0,1,18.375,38Zm0-3.444A1.148,1.148,0,1,0,19.523,35.7,1.148,1.148,0,0,0,18.375,34.554Z"/>
        <path id="Trazado_898904" data-name="Trazado 898904" d="M30.634,38a2.3,2.3,0,1,1,2.3-2.3A2.3,2.3,0,0,1,30.634,38Zm0-3.444A1.148,1.148,0,1,0,31.782,35.7,1.148,1.148,0,0,0,30.634,34.554Z"/>
        <path id="Trazado_898905" data-name="Trazado 898905" d="M42.893,38a2.3,2.3,0,1,1,2.3-2.3,2.3,2.3,0,0,1-2.3,2.3Zm0-3.444A1.148,1.148,0,1,0,44.041,35.7,1.148,1.148,0,0,0,42.893,34.554Z"/>
        <path id="Trazado_898906" data-name="Trazado 898906" d="M24.5,34.554c-3.47,0-6.293-3.356-6.293-7.48a8.565,8.565,0,0,1,.663-3.35H.574a.574.574,0,1,1,0-1.148H18.918a1.119,1.119,0,0,1,.936.505,1.1,1.1,0,0,1,.094,1.044,7.52,7.52,0,0,0-.593,2.949c0,3.491,2.308,6.332,5.145,6.332s5.143-2.84,5.143-6.332a7.527,7.527,0,0,0-.593-2.95,1.1,1.1,0,0,1,.094-1.044,1.118,1.118,0,0,1,.936-.5H48.426a.574.574,0,1,1,0,1.148h-18.3a8.573,8.573,0,0,1,.664,3.35c0,4.125-2.822,7.48-6.291,7.48Z"/>
        <path id="Trazado_898907" data-name="Trazado 898907" d="M24.5,18.422a4.283,4.283,0,0,1-4.278-4.277c0-2.139,3.4-8.018,3.782-8.681a.574.574,0,0,1,.992,0c.387.663,3.782,6.542,3.782,8.681A4.283,4.283,0,0,1,24.5,18.422Zm0-11.509c-1.183,2.121-3.13,5.9-3.13,7.231a3.13,3.13,0,1,0,6.259,0c0-1.337-1.947-5.11-3.129-7.231Z"/>
        <path id="Trazado_898908" data-name="Trazado 898908" d="M25.339,16.684a.574.574,0,0,1-.316-1.054,2.266,2.266,0,0,0,1.027-1.9.574.574,0,1,1,1.148,0,3.415,3.415,0,0,1-1.545,2.861.572.572,0,0,1-.314.094Z"/>
      </g>
    </g>
  </g>
</svg>
