<svg xmlns="http://www.w3.org/2000/svg" width="66" height="135" viewBox="0 0 66 135">
  <g id="Grupo_1108957" data-name="Grupo 1108957" transform="translate(-199.051 -9192)">
    <rect id="Rectángulo_405977" data-name="Rectángulo 405977" width="66" height="135" rx="10" transform="translate(199.051 9192)" fill="#e6f9e6"/>
    <g id="notas-ancladas" transform="translate(205.176 9237.141)">
      <path id="Trazado_899402" data-name="Trazado 899402" d="M61.525,137.082v3.53a.944.944,0,0,0,.944.944h46.085a.944.944,0,0,0,.944-.944V96.483a.944.944,0,0,0-.944-.944H61.571Z" transform="translate(-56.469 -84.773)" fill="#badafb"/>
      <path id="Trazado_899403" data-name="Trazado 899403" d="M68.511,140.612v-3.53l.046-41.543H61.571l-.046,41.543v3.53a.944.944,0,0,0,.944.944h6.986A.944.944,0,0,1,68.511,140.612Z" transform="translate(-56.469 -84.773)" fill="#97c9f9"/>
      <path id="Trazado_899404" data-name="Trazado 899404" d="M25.1,55.834a.944.944,0,0,0-.944.944v44.129a.944.944,0,0,0,.944.944H71.187a.944.944,0,0,0,.944-.944V56.778a.944.944,0,0,0-.944-.944Z" transform="translate(-23.313 -49.542)" fill="#fcf6ed"/>
      <path id="Trazado_899405" data-name="Trazado 899405" d="M31.061,100.907V56.778a.944.944,0,0,1,.944-.944H25.1a.944.944,0,0,0-.944.944v44.129a.944.944,0,0,0,.944.944h6.9A.944.944,0,0,1,31.061,100.907Z" transform="translate(-23.313 -49.542)" fill="#fcf1de"/>
      <g id="Grupo_1108474" data-name="Grupo 1108474" transform="translate(21.391 0.845)">
        <path id="Trazado_899406" data-name="Trazado 899406" d="M213.361,7.749V8.7a3.925,3.925,0,0,1-1.076,2.7l-.234.247V13.72l.978,1.376a.3.3,0,0,1-.241.466h-5.738a.3.3,0,0,1-.241-.466l.978-1.376V11.646l-.234-.247a3.925,3.925,0,0,1-1.076-2.7V7.749a.249.249,0,0,1,.249-.249h6.383A.25.25,0,0,1,213.361,7.749Z" transform="translate(-206.479 -7.5)" fill="#ea9a98"/>
      </g>
      <g id="Grupo_1108475" data-name="Grupo 1108475" transform="translate(0)">
        <path id="Trazado_899407" data-name="Trazado 899407" d="M64.532,96.042H18.448a1.792,1.792,0,0,1-1.79-1.79V50.124a1.792,1.792,0,0,1,1.79-1.79H35.761a.845.845,0,0,1,0,1.69H18.448a.1.1,0,0,0-.1.1V94.252a.1.1,0,0,0,.1.1H64.532a.1.1,0,0,0,.1-.1v-27.5a.845.845,0,0,1,1.69,0v27.5A1.792,1.792,0,0,1,64.532,96.042Z" transform="translate(-16.658 -42.887)"/>
        <path id="Trazado_899408" data-name="Trazado 899408" d="M299.456,64.638a.845.845,0,0,1-.845-.845V50.124a.1.1,0,0,0-.1-.1H281.2a.845.845,0,1,1,0-1.69h17.313a1.792,1.792,0,0,1,1.79,1.79V63.793A.845.845,0,0,1,299.456,64.638Z" transform="translate(-250.637 -42.887)"/>
        <path id="Trazado_899409" data-name="Trazado 899409" d="M211.5,135.747h-33.11a.845.845,0,0,1,0-1.69H211.5a.1.1,0,0,0,.1-.1V89.829a.1.1,0,0,0-.1-.1H208.23a.845.845,0,1,1,0-1.69H211.5a1.792,1.792,0,0,1,1.79,1.79v44.129A1.792,1.792,0,0,1,211.5,135.747Z" transform="translate(-159.411 -78.118)"/>
        <path id="Trazado_899410" data-name="Trazado 899410" d="M65.831,462.853H55.815a1.792,1.792,0,0,1-1.79-1.79v-3.53a.845.845,0,0,1,1.69,0v3.53a.1.1,0,0,0,.1.1H65.831a.845.845,0,0,1,0,1.69Z" transform="translate(-49.814 -405.224)"/>
        <path id="Trazado_899411" data-name="Trazado 899411" d="M200.074,0h6.383a1.1,1.1,0,0,1,1.095,1.095v.95a4.751,4.751,0,0,1-1.307,3.281l0,0V6.8l.822,1.156a1.141,1.141,0,0,1-.93,1.8H200.4a1.14,1.14,0,0,1-.93-1.8l.822-1.156,0-1.47a4.751,4.751,0,0,1-1.307-3.281V1.095A1.1,1.1,0,0,1,200.074,0Zm5.787,1.69h-5.191v.355a3.068,3.068,0,0,0,.844,2.118l.234.247a.845.845,0,0,1,.232.581V7.066a.845.845,0,0,1-.156.49l-.361.508h3.607l-.361-.508a.845.845,0,0,1-.156-.49V4.991a.845.845,0,0,1,.232-.581l.234-.247a3.067,3.067,0,0,0,.844-2.118Z" transform="translate(-178.433)"/>
        <path id="Línea_646" data-name="Línea 646" d="M-6.655-.659A.845.845,0,0,1-7.5-1.5v-5.15A.845.845,0,0,1-6.655-7.5a.845.845,0,0,1,.845.845V-1.5A.845.845,0,0,1-6.655-.659Z" transform="translate(31.487 15.676)"/>
      </g>
    </g>
  </g>
</svg>
