<svg xmlns="http://www.w3.org/2000/svg" xmlns:xlink="http://www.w3.org/1999/xlink" width="84" height="84" viewBox="0 0 84 84">
  <defs>
    <clipPath id="clip-path">
      <rect id="Rectángulo_405699" data-name="Rectángulo 405699" width="49" height="49" transform="translate(-3132 -5199)" fill="#4d0099" stroke="#707070" stroke-width="1"/>
    </clipPath>
  </defs>
  <g id="Grupo_1108954" data-name="Grupo 1108954" transform="translate(3157 5305.67)">
    <path id="Trazado_893299" data-name="Trazado 893299" d="M42,0A42,42,0,1,1,0,42,42,42,0,0,1,42,0Z" transform="translate(-3157 -5305.67)" fill="#fff"/>
    <g id="Enmascarar_grupo_1098720" data-name="Enmascarar grupo 1098720" transform="translate(-7 -89)" clip-path="url(#clip-path)">
      <g id="circulos" transform="translate(-3132 -5199)">
        <g id="Page-1_9_">
          <g id="finance_and_pointers_filled_9_" transform="translate(-39.813 -29.477)">
            <path id="circles_x2C_-rotation_x2C_-ball_x2C_-sphere_x2C_-roll_x2C_-motion" d="M64.313,56.859A10.088,10.088,0,1,1,74.4,46.771,10.088,10.088,0,0,1,64.313,56.859ZM54.146,64.44l-1.8-2.394a1.441,1.441,0,0,1,2.306-1.729l4.323,5.765a1.441,1.441,0,0,1-.568,2.182l-6.485,2.882a1.441,1.441,0,0,1-1.171-2.634l2.805-1.247c-8.215-1.819-13.75-5.657-13.75-10.407,0-4.3,4.52-7.853,11.532-9.845a12.982,12.982,0,0,0,.379,2.893c-5.624,1.682-9.029,4.366-9.029,6.952,0,2.982,4.481,6.023,11.451,7.582ZM77.281,47.013c7.011,1.993,11.532,5.545,11.532,9.845,0,5.368-7.07,9.572-17.089,11.012a1.441,1.441,0,1,1-.41-2.853c8.749-1.258,14.617-4.747,14.617-8.159,0-2.587-3.405-5.271-9.029-6.952a12.987,12.987,0,0,0,.379-2.893Z" fill="#4d0099"/>
          </g>
        </g>
      </g>
    </g>
  </g>
</svg>
