<svg xmlns="http://www.w3.org/2000/svg" xmlns:xlink="http://www.w3.org/1999/xlink" width="84" height="84" viewBox="0 0 84 84">
  <defs>
    <clipPath id="clip-path">
      <rect id="Rectángulo_405698" data-name="Rectángulo 405698" width="49" height="49" transform="translate(-2784 -5199)" fill="#4d0099" stroke="#707070" stroke-width="1"/>
    </clipPath>
  </defs>
  <g id="Grupo_1108955" data-name="Grupo 1108955" transform="translate(2809 5305.67)">
    <path id="Trazado_893298" data-name="Trazado 893298" d="M42,0A42,42,0,1,1,0,42,42,42,0,0,1,42,0Z" transform="translate(-2809 -5305.67)" fill="#fff"/>
    <g id="Enmascarar_grupo_1098721" data-name="Enmascarar grupo 1098721" transform="translate(-7 -89)" clip-path="url(#clip-path)">
      <g id="cuna-de-newton" transform="translate(-2784 -5199)">
        <path id="Trazado_898909" data-name="Trazado 898909" d="M39.152,10.91H2.871a2.871,2.871,0,1,1,0-5.742H16.7a.957.957,0,0,1,0,1.914H2.871A.957.957,0,0,0,2.871,9h36.28a.957.957,0,1,0,0-1.914H25.318a.957.957,0,1,1,0-1.914H39.152a2.871,2.871,0,0,1,0,5.742Z" fill="#4d0099"/>
        <path id="Elipse_11618" data-name="Elipse 11618" d="M3.063-.957a4.02,4.02,0,1,1-4.02,4.02A4.024,4.024,0,0,1,3.063-.957Zm0,6.125A2.105,2.105,0,1,0,.957,3.063,2.108,2.108,0,0,0,3.063,5.168Z" transform="translate(2.634 36.751)" fill="#4d0099"/>
        <path id="Elipse_11619" data-name="Elipse 11619" d="M3.063-.957a4.02,4.02,0,1,1-4.02,4.02A4.024,4.024,0,0,1,3.063-.957Zm0,6.125A2.105,2.105,0,1,0,.957,3.063,2.108,2.108,0,0,0,3.063,5.168Z" transform="translate(8.759 36.751)" fill="#4d0099"/>
        <path id="Elipse_11620" data-name="Elipse 11620" d="M3.063-.957a4.02,4.02,0,1,1-4.02,4.02A4.024,4.024,0,0,1,3.063-.957Zm0,6.125A2.105,2.105,0,1,0,.957,3.063,2.108,2.108,0,0,0,3.063,5.168Z" transform="translate(14.884 36.751)" fill="#4d0099"/>
        <path id="Elipse_11621" data-name="Elipse 11621" d="M3.063-.957a4.02,4.02,0,1,1-4.02,4.02A4.024,4.024,0,0,1,3.063-.957Zm0,6.125A2.105,2.105,0,1,0,.957,3.063,2.108,2.108,0,0,0,3.063,5.168Z" transform="translate(21.009 36.751)" fill="#4d0099"/>
        <path id="Elipse_11622" data-name="Elipse 11622" d="M3.063-.957a4.02,4.02,0,1,1-4.02,4.02A4.024,4.024,0,0,1,3.063-.957Zm0,6.125A2.105,2.105,0,1,0,.957,3.063,2.108,2.108,0,0,0,3.063,5.168Z" transform="translate(27.134 36.751)" fill="#4d0099"/>
        <path id="Línea_582" data-name="Línea 582" d="M0,27.754A.957.957,0,0,1-.957,26.8V0A.957.957,0,0,1,0-.957.957.957,0,0,1,.957,0V26.8A.957.957,0,0,1,0,27.754Z" transform="translate(30.197 9.953)" fill="#4d0099"/>
        <path id="Línea_583" data-name="Línea 583" d="M0,27.754A.957.957,0,0,1-.957,26.8V0A.957.957,0,0,1,0-.957.957.957,0,0,1,.957,0V26.8A.957.957,0,0,1,0,27.754Z" transform="translate(24.072 9.953)" fill="#4d0099"/>
        <path id="Línea_584" data-name="Línea 584" d="M0,27.754A.957.957,0,0,1-.957,26.8V0A.957.957,0,0,1,0-.957.957.957,0,0,1,.957,0V26.8A.957.957,0,0,1,0,27.754Z" transform="translate(17.947 9.953)" fill="#4d0099"/>
        <path id="Línea_585" data-name="Línea 585" d="M0,27.754A.957.957,0,0,1-.957,26.8V0A.957.957,0,0,1,0-.957.957.957,0,0,1,.957,0V26.8A.957.957,0,0,1,0,27.754Z" transform="translate(11.821 9.953)" fill="#4d0099"/>
        <path id="Línea_586" data-name="Línea 586" d="M0,27.754A.957.957,0,0,1-.957,26.8V0A.957.957,0,0,1,0-.957.957.957,0,0,1,.957,0V26.8A.957.957,0,0,1,0,27.754Z" transform="translate(5.696 9.953)" fill="#4d0099"/>
        <path id="Elipse_11623" data-name="Elipse 11623" d="M3.063-.957a4.02,4.02,0,1,1-4.02,4.02A4.024,4.024,0,0,1,3.063-.957Zm0,6.125A2.105,2.105,0,1,0,.957,3.063,2.108,2.108,0,0,0,3.063,5.168Z" transform="translate(41.918 35.664)" fill="#4d0099"/>
        <path id="Línea_587" data-name="Línea 587" d="M7.754,26.725a.957.957,0,0,1-.916-.682L-.916.276A.957.957,0,0,1-.276-.916.957.957,0,0,1,.916-.276L8.671,25.492a.958.958,0,0,1-.917,1.233Z" transform="translate(36.322 9.953)" fill="#4d0099"/>
        <path id="Línea_588" data-name="Línea 588" transform="translate(21.011 6.125)" fill="#4d0099"/>
      </g>
    </g>
  </g>
</svg>
