<svg xmlns="http://www.w3.org/2000/svg" xmlns:xlink="http://www.w3.org/1999/xlink" width="268.622" height="211.414" viewBox="0 0 268.622 211.414">
  <defs>
    <clipPath id="clip-path">
      <rect id="Rect치ngulo_405126" data-name="Rect치ngulo 405126" width="246.728" height="209.545" fill="none"/>
    </clipPath>
    <clipPath id="clip-path-2">
      <rect id="Rect치ngulo_405127" data-name="Rect치ngulo 405127" width="73.69" height="65.084" transform="translate(0 0)" fill="none"/>
    </clipPath>
  </defs>
  <g id="Grupo_1107983" data-name="Grupo 1107983" transform="translate(-235.157 -915)">
    <g id="Grupo_1106899" data-name="Grupo 1106899" transform="translate(2.864 -0.185)">
      <g id="Grupo_1106896" data-name="Grupo 1106896" transform="translate(254.187 915.185)">
        <g id="Grupo_1106895" data-name="Grupo 1106895" clip-path="url(#clip-path)">
          <path id="Trazado_891061" data-name="Trazado 891061" d="M34.06,114.413a5.248,5.248,0,0,1,3.222,0l3.549,76.866-5.016,1.5L1.833,184.508l13.794-30.346,13.667-30.721,2.007-7.273A10.386,10.386,0,0,1,34.06,114.413Z" transform="translate(-0.454 -28.268)" fill="#fff"/>
          <path id="Trazado_891011" data-name="Trazado 891011" d="M60.445,367.145l2.832,154.807,22.655.472,15.1-161.414,7.551,48.613,6.135,110.894,30.206-3.3s-1.416-9.439-2.36-12.271-5.191-18.86-4.72-21.692,5.192-91.09,5.192-91.09,4.72-27.375,3.3-53.333-.944-78.348-.944-78.348l-85.427-.472Z" transform="translate(-14.852 -64.388)" fill="#263238"/>
          <path id="Trazado_891012" data-name="Trazado 891012" d="M85.808,522.672H85.8L63.145,522.2a.376.376,0,0,1-.369-.369L59.945,367.024v-.005l-.472-107.137a.377.377,0,0,1,.11-.268.274.274,0,0,1,.269-.11l85.427.472a.376.376,0,0,1,.374.379c0,.524-.456,52.675.943,78.324,1.4,25.7-3.261,53.142-3.309,53.417-.187,3.56-4.721,88.268-5.191,91.088-.442,2.654,3.656,18.362,4.705,21.511.943,2.83,2.317,11.947,2.375,12.334a.376.376,0,0,1-.331.43l-30.206,3.3a.369.369,0,0,1-.284-.087.378.378,0,0,1-.132-.267l-6.135-110.894L101,363.928l-14.821,158.4a.377.377,0,0,1-.375.341m-22.286-1.217,21.943.457,15.071-161.067a.376.376,0,0,1,.746-.023l7.551,48.613,6.117,110.535,29.421-3.217a118.73,118.73,0,0,0-2.285-11.821c-.929-2.786-5.233-18.877-4.734-21.873.463-2.779,5.139-90.167,5.187-91.049.052-.317,4.7-27.676,3.3-53.292-1.338-24.519-.986-73.208-.948-77.994l-84.67-.468.47,106.756Z" transform="translate(-14.728 -64.261)" fill="#263238"/>
          <path id="Trazado_891013" data-name="Trazado 891013" d="M162.52,601.872l1.338,1.038,12.714,9.869s12.834,3.422,13.69,3.85.642,3,.214,4.278-17.54,3-23.315,2.567-12.62-3.636-14.759-4.064a19.393,19.393,0,0,0-3.422-.427l-1.068,1.925-16.9-2.566,1.3-13.166Z" transform="translate(-32.444 -149.048)" fill="#263238"/>
          <path id="Trazado_891014" data-name="Trazado 891014" d="M168.75,623.775c-.7,0-1.295-.015-1.741-.048-4.02-.3-8.609-1.948-11.647-3.039a29.313,29.313,0,0,0-3.157-1.032,21.31,21.31,0,0,0-3.131-.414l-.958,1.725a.378.378,0,0,1-.386.189l-16.9-2.566a.375.375,0,0,1-.317-.409l1.3-13.165a.376.376,0,0,1,.333-.338l30.206-3.3a.381.381,0,0,1,.272.076l13.992,10.862c1.624.433,12.837,3.431,13.687,3.857,1.209.6.784,3.589.4,4.733-.537,1.613-15.693,2.872-21.958,2.872m-19.894-5.292a19.646,19.646,0,0,1,3.5.435,29.609,29.609,0,0,1,3.264,1.062c3,1.078,7.53,2.706,11.449,3,6.181.46,22.077-1.351,22.951-2.356.466-1.42.452-3.528-.047-3.778-.6-.3-8.475-2.45-13.618-3.823a.371.371,0,0,1-.133-.067l-13.932-10.814-29.751,3.255L131.3,617.9l16.286,2.473.943-1.7a.377.377,0,0,1,.329-.193" transform="translate(-32.32 -148.924)" fill="#263238"/>
          <path id="Trazado_891015" data-name="Trazado 891015" d="M64.364,608.171s.307,14.723,1.163,16.434,8.341,6.417,14.33,6.631,10.481.428,11.978-1.284,1.925-5.133.214-7.913-5.03-13.4-5.03-13.4Z" transform="translate(-15.939 -150.608)" fill="#263238"/>
          <path id="Trazado_891016" data-name="Trazado 891016" d="M85.17,631.63c-1.473,0-3.131-.059-4.942-.125l-.508-.018c-6.243-.223-13.773-5.078-14.654-6.838-.868-1.737-1.171-15.079-1.2-16.595a.377.377,0,0,1,.384-.384l22.655.472a.377.377,0,0,1,.351.264c.033.105,3.325,10.6,4.992,13.31,1.825,2.967,1.306,6.579-.251,8.359-1.091,1.247-3.484,1.554-6.825,1.554m-20.545-23.2c.132,5.892.528,14.709,1.114,15.881.739,1.478,7.961,6.207,14.008,6.423l.508.018c5.5.2,9.837.356,11.173-1.173a6.624,6.624,0,0,0,.177-7.469c-1.587-2.578-4.457-11.542-4.988-13.222Z" transform="translate(-15.815 -150.484)" fill="#263238"/>
          <path id="Trazado_891017" data-name="Trazado 891017" d="M21.284,194.982a45.871,45.871,0,0,1-9.313-.693c-.395-.1-.825-.2-1.278-.307-3.381-.8-8.014-1.888-9.54-4.626a4.425,4.425,0,0,1-.214-3.684c1.886-5.658,26.567-59.682,27.624-61.991-.005,0,1.071-4.04,1.881-7.007.882-3.233,6.988-3.167,7.25-3.158a.376.376,0,0,1,.369.357l2.627,52.594a.373.373,0,0,1-.035.178l-13.04,27.98a.375.375,0,0,1-.322.217c-.218.011-2.86.139-6.009.139m16.046-80.71c-1.264.033-5.537.317-6.16,2.6-.815,2.988-1.9,7.061-1.9,7.062-.278.621-25.742,56.356-27.615,61.976a3.662,3.662,0,0,0,.156,3.081c1.365,2.446,5.81,3.494,9.055,4.259.456.108.889.209,1.288.309,3.9.974,13.3.613,14.876.542l12.9-27.689Z" transform="translate(-0.159 -28.111)" fill="#263238"/>
          <path id="Trazado_891018" data-name="Trazado 891018" d="M124.024,221.544h24.265s-2.51-87.02-6.973-99.571A188.6,188.6,0,0,0,129.6,96.592L94.738,98.824s14.225,43.789,18.408,59.965,3.068,62.755,3.068,62.755Z" transform="translate(-23.461 -23.92)" fill="#fff"/>
          <path id="Trazado_891019" data-name="Trazado 891019" d="M148.165,221.8H116.09a.376.376,0,0,1-.376-.385c.011-.465,1.067-46.71-3.056-62.652-4.133-15.98-18.26-59.506-18.4-59.943a.376.376,0,0,1,.334-.491l34.864-2.231a.382.382,0,0,1,.351.19,190.514,190.514,0,0,1,11.741,25.44c4.431,12.463,6.892,96.13,6.995,99.685a.377.377,0,0,1-.376.387m-31.69-.752h31.3c-.19-6.333-2.7-87.142-6.94-99.068a188.752,188.752,0,0,0-11.573-25.117L95.121,99.044c1.534,4.735,14.357,44.413,18.265,59.527,3.947,15.262,3.182,57.954,3.088,62.473" transform="translate(-23.337 -23.796)" fill="#263238"/>
          <path id="Trazado_891020" data-name="Trazado 891020" d="M119.946,109.783l5.857,8.089,6.483,83.56,8.02,14.9,6.073-14.9-17.23-84.4,1.674-7.81-8.368-8.924Z" transform="translate(-29.704 -24.838)" fill="#0ac675"/>
          <path id="Trazado_891021" data-name="Trazado 891021" d="M140.183,216.578a.376.376,0,0,1-.331-.2l-8.02-14.894a.4.4,0,0,1-.044-.149l-6.476-83.455-5.794-8a.372.372,0,0,1-.059-.317l2.51-9.483a.377.377,0,0,1,.639-.161l8.367,8.926a.376.376,0,0,1,.093.336l-1.657,7.733,17.213,84.32a.371.371,0,0,1-.02.217l-6.073,14.894a.375.375,0,0,1-.328.234h-.02M132.532,201.2l7.6,14.123,5.728-14.05-17.206-84.286a.368.368,0,0,1,0-.154l1.632-7.617-7.768-8.286-2.291,8.654,5.753,7.943a.385.385,0,0,1,.071.192Z" transform="translate(-29.58 -24.714)" fill="#263238"/>
          <path id="Trazado_891022" data-name="Trazado 891022" d="M139.5,102.834s11.714,72.517,12.272,76.979,7.809,152.843,7.809,152.843l19.6,1.932-5.1-120.19s-6.136-87.578-5.857-89.252,0-13.945-1.395-16.456-27.612-16.177-27.612-16.177Z" transform="translate(-34.477 -22.91)" fill="#fff"/>
          <path id="Trazado_891023" data-name="Trazado 891023" d="M179.061,334.841l-.037,0-19.6-1.932a.376.376,0,0,1-.339-.357c-.072-1.483-7.257-148.416-7.806-152.814s-12.154-76.241-12.271-76.966q0-.025,0-.05L138.723,92.4a.378.378,0,0,1,.177-.33.374.374,0,0,1,.373-.014c2.694,1.4,26.359,13.791,27.767,16.328,1.484,2.67,1.693,15.165,1.437,16.7-.194,1.578,3.749,59.014,5.861,89.163l5.1,120.2a.375.375,0,0,1-.376.392m-19.241-2.651,18.847,1.858-5.079-119.758c-.25-3.567-6.135-87.631-5.852-89.328.3-1.8-.035-13.84-1.353-16.212-.965-1.737-16.393-10.242-26.89-15.73l.261,9.654c.271,1.68,11.722,72.58,12.27,76.969.545,4.365,7.326,142.944,7.8,152.547" transform="translate(-34.353 -22.787)" fill="#263238"/>
          <path id="Trazado_891024" data-name="Trazado 891024" d="M82.514,91.773s-32.633,15.619-32.633,16.735,4.463,101.8,4.463,101.8l-2.51,125.23,66.38-2.51s-1.115-151.448-2.231-160.095-11.993-55.225-17.571-64.987-15.9-16.176-15.9-16.176" transform="translate(-12.353 -22.727)" fill="#fff"/>
          <path id="Trazado_891025" data-name="Trazado 891025" d="M51.71,335.793a.374.374,0,0,1-.263-.108.379.379,0,0,1-.113-.275l2.511-125.231c-.182-4.088-4.463-100.684-4.463-101.795,0-.393,0-.931,16.526-9.123,8.067-4,16.239-7.913,16.321-7.952a.378.378,0,0,1,.361.02c.1.065,10.465,6.577,16.026,16.31s16.473,56.256,17.618,65.124c1.105,8.571,2.189,153.955,2.234,160.14a.376.376,0,0,1-.362.379l-66.381,2.511ZM50.136,108.48c.115,3.646,4.416,100.7,4.46,101.69l-2.5,124.856,65.618-2.482c-.062-8.3-1.152-151.364-2.226-159.685-1.14-8.839-12.005-55.189-17.525-64.847-5.075-8.883-14.23-15.046-15.6-15.933-12.427,5.95-30.954,15.08-32.227,16.4" transform="translate(-12.229 -22.603)" fill="#263238"/>
          <path id="Trazado_891026" data-name="Trazado 891026" d="M115.152,101.963l-5.487,9.377S89.515,91.868,89.287,90.509s7.02-9.283,7.02-9.283l28.3,3.17s3.623,4.075,4.3,5.66-1.358,19.472-1.358,19.472Z" transform="translate(-22.11 -20.115)" fill="#fff"/>
          <path id="Trazado_891027" data-name="Trazado 891027" d="M109.543,111.592a.376.376,0,0,1-.262-.106c-4.748-4.588-20.258-19.664-20.488-21.039-.238-1.427,5.385-7.708,7.113-9.6a.381.381,0,0,1,.32-.12l28.3,3.17a.378.378,0,0,1,.238.124c.15.169,3.672,4.139,4.367,5.762s-1.121,17.821-1.33,19.662a.376.376,0,0,1-.57.278l-12.073-7.366-5.294,9.046a.372.372,0,0,1-.274.183.285.285,0,0,1-.05,0M96.333,81.5c-3.36,3.689-6.883,8.071-6.8,8.827.392,1.125,12,12.622,19.924,20.288l5.245-8.964a.377.377,0,0,1,.233-.175.381.381,0,0,1,.287.044l11.9,7.259c.776-6.915,1.773-17.638,1.32-18.7-.588-1.372-3.569-4.8-4.142-5.45Z" transform="translate(-21.987 -19.991)" fill="#263238"/>
          <path id="Trazado_891028" data-name="Trazado 891028" d="M95.082,36.593s-.943-5.278-3.769-4.335-3.548,6.42-1.663,10.189a10.607,10.607,0,0,0,5.209,5.008s1.544,6.1,4.559,9.116,14.7,12.628,21.11,11.685,11.5-13.193,11.873-15.643,1.885-25.444,1.131-28.836-3.958-7.539-6.6-7.727-3.769.942-7.161.942-5.467-3.015-9.048-2.827S98.1,19.441,98.286,21.515s4.523,2.262,2.639,4.712-3.958,5.088-3.958,5.088a10.344,10.344,0,0,1-.188,3.2,5.186,5.186,0,0,1-1.7,2.074" transform="translate(-21.941 -3.506)" fill="#fff"/>
          <path id="Trazado_891029" data-name="Trazado 891029" d="M119.5,68.572c-6.543,0-17.16-8.548-20.472-11.859-2.793-2.794-4.32-8.037-4.609-9.105a11.051,11.051,0,0,1-5.229-5.117,10.7,10.7,0,0,1-.462-8.26,4.029,4.029,0,0,1,2.343-2.453,2.2,2.2,0,0,1,1.9.182c1.3.771,1.961,2.8,2.223,3.829A4,4,0,0,0,96.3,34.277a10.042,10.042,0,0,0,.17-3.052.377.377,0,0,1,.079-.266s2.072-2.637,3.955-5.085a1.389,1.389,0,0,0,.387-1c-.077-.457-.655-.841-1.268-1.247-.815-.54-1.738-1.152-1.834-2.2a2.171,2.171,0,0,1,.694-1.527c2.183-2.52,9.082-6.074,12.1-6.233a9.293,9.293,0,0,1,4.945,1.467,8.736,8.736,0,0,0,4.122,1.359,14,14,0,0,0,3.772-.53,9.955,9.955,0,0,1,3.416-.411c2.9.208,6.167,4.558,6.937,8.022.761,3.426-.739,26.457-1.126,28.975-.377,2.447-5.573,14.985-12.191,15.958a6.592,6.592,0,0,1-.958.067M91.847,32.4a1.717,1.717,0,0,0-.539.093,3.393,3.393,0,0,0-1.885,2.028,9.893,9.893,0,0,0,.44,7.636,10.333,10.333,0,0,0,5,4.824.376.376,0,0,1,.232.26c.015.059,1.554,6.035,4.46,8.942,3.271,3.271,14.739,12.476,20.788,11.579,6.137-.9,11.208-13.059,11.557-15.329.378-2.456,1.856-25.452,1.135-28.7-.694-3.129-3.78-7.257-6.255-7.434a9.292,9.292,0,0,0-3.181.391,14.85,14.85,0,0,1-3.954.552,9.438,9.438,0,0,1-4.472-1.445,8.473,8.473,0,0,0-4.555-1.381c-2.819.147-9.523,3.61-11.571,5.974-.491.567-.523.864-.513.966.062.692.761,1.155,1.5,1.645.721.478,1.465.971,1.6,1.751a2.041,2.041,0,0,1-.533,1.579c-1.652,2.149-3.45,4.442-3.869,4.976a9.992,9.992,0,0,1-.218,3.207,5.515,5.515,0,0,1-1.834,2.26.376.376,0,0,1-.589-.239c-.005-.031-.567-3.075-2.005-3.929a1.414,1.414,0,0,0-.737-.209" transform="translate(-21.819 -3.382)" fill="#263238"/>
          <path id="Trazado_891030" data-name="Trazado 891030" d="M135.451,11.35a5.023,5.023,0,0,0-.377-5.278c-1.885-2.827-7.727-2.45-7.727-2.45s-16.4-5.089-22.994-2.262S92.479,10.6,93.422,17a57.627,57.627,0,0,1,.212,11.847c1.931.576,2.614,4.362,2.614,4.362a5.186,5.186,0,0,0,1.7-2.074,10.344,10.344,0,0,0,.188-3.2s2.074-2.639,3.958-5.088-2.45-2.639-2.639-4.712,8.858-7.162,12.439-7.351,5.655,2.827,9.047,2.827,4.523-1.131,7.162-.942S133.943,17,134.7,20.4l0,.023c.327-.506.713-1.1,1.127-1.719a17.042,17.042,0,0,0,2.639-7.351c.189-2.639-3.015,0-3.015,0" transform="translate(-23.108 -0.125)" fill="#263238"/>
          <path id="Trazado_891031" data-name="Trazado 891031" d="M96.124,33.464a.381.381,0,0,1-.141-.027.376.376,0,0,1-.229-.282c-.18-.99-.952-3.65-2.353-4.069a.375.375,0,0,1-.267-.388,57.8,57.8,0,0,0-.21-11.764C91.9,9.978,97.762,3.6,104.081.889c6.5-2.786,21.891,1.83,23.188,2.228.714-.036,6.1-.214,7.994,2.62a5.483,5.483,0,0,1,.859,4.473,2.339,2.339,0,0,1,2.028-.421c.43.222.621.713.567,1.461a17.52,17.52,0,0,1-2.7,7.532c-.413.618-.8,1.211-1.124,1.715a.373.373,0,0,1-.383.166.378.378,0,0,1-.3-.289c-.7-3.152-3.784-7.279-6.26-7.457a9.286,9.286,0,0,0-3.18.39,14.847,14.847,0,0,1-3.955.553,9.441,9.441,0,0,1-4.472-1.445,8.472,8.472,0,0,0-4.555-1.382c-2.818.148-9.523,3.611-11.571,5.974-.491.567-.522.864-.513.966.063.692.761,1.155,1.5,1.645.72.477,1.465.971,1.594,1.751a2.044,2.044,0,0,1-.532,1.579c-1.653,2.149-3.451,4.442-3.87,4.976a9.971,9.971,0,0,1-.218,3.207,5.515,5.515,0,0,1-1.834,2.26.373.373,0,0,1-.218.07M93.9,28.474c1.447.666,2.174,2.851,2.451,3.934a3.982,3.982,0,0,0,1.107-1.513,10.072,10.072,0,0,0,.171-3.051.37.37,0,0,1,.079-.266s2.072-2.637,3.955-5.086a1.383,1.383,0,0,0,.387-1c-.076-.457-.655-.842-1.268-1.248-.815-.539-1.738-1.151-1.833-2.2a2.169,2.169,0,0,1,.694-1.527c2.184-2.521,9.082-6.074,12.1-6.233a9.3,9.3,0,0,1,4.945,1.468,8.733,8.733,0,0,0,4.121,1.359,13.992,13.992,0,0,0,3.772-.53A9.939,9.939,0,0,1,128,12.169c2.68.192,5.67,3.916,6.718,7.213.211-.323.436-.664.67-1.016a16.687,16.687,0,0,0,2.576-7.168c.029-.4-.032-.672-.162-.739-.35-.183-1.442.4-2.239,1.056a.376.376,0,0,1-.561-.486,4.617,4.617,0,0,0-.369-4.873c-1.744-2.616-7.332-2.287-7.39-2.283a.408.408,0,0,1-.135-.016c-.163-.051-16.34-5.015-22.735-2.276C98.324,4.176,92.7,10.244,93.669,16.824a57.945,57.945,0,0,1,.235,11.65" transform="translate(-22.983 0)" fill="#263238"/>
          <path id="Trazado_891032" data-name="Trazado 891032" d="M123.2,81.647c-6.408.943-18.093-8.669-21.109-11.686a12.092,12.092,0,0,1-1.4-1.73c-.4,3.468-1.085,9.426-1.265,11.236-.26,2.605,1.563,5.47,6.251,9.638s11.983,9.638,11.983,9.638,9.9-11.982,10.419-14.066a22.433,22.433,0,0,0-.126-5.784,8.859,8.859,0,0,1-4.751,2.754" transform="translate(-24.615 -16.897)" fill="#fff"/>
          <path id="Trazado_891033" data-name="Trazado 891033" d="M117.534,99a.375.375,0,0,1-.225-.075c-.073-.055-7.36-5.527-12.007-9.658-4.746-4.218-6.652-7.2-6.376-9.957.181-1.812.87-7.822,1.265-11.242a.376.376,0,0,1,.684-.17,11.739,11.739,0,0,0,1.359,1.678c3.271,3.271,14.739,12.476,20.788,11.579a8.446,8.446,0,0,0,4.54-2.648.376.376,0,0,1,.64.226,20.95,20.95,0,0,1,.117,5.916c-.527,2.106-9.476,12.981-10.495,14.214a.373.373,0,0,1-.29.137M100.828,69.108c-.4,3.485-.989,8.626-1.154,10.274-.25,2.493,1.583,5.28,6.127,9.319,4.1,3.644,10.276,8.347,11.672,9.4,2.888-3.511,9.716-12.043,10.115-13.64a18.144,18.144,0,0,0-.056-4.893,8.6,8.6,0,0,1-4.4,2.326c-6.4.946-17.951-8.314-21.429-11.792a10.72,10.72,0,0,1-.873-1" transform="translate(-24.492 -16.773)" fill="#263238"/>
          <path id="Trazado_891034" data-name="Trazado 891034" d="M132.88,55.452a13.928,13.928,0,0,1-4.548-1.262.376.376,0,0,1,.3-.691,10.4,10.4,0,0,0,4.6,1.176c.01,0,.034-.005.074-.063.4-.585.136-2.982-.18-4.5a.376.376,0,1,1,.737-.153c.138.661.789,4.016.064,5.075a.854.854,0,0,1-.57.381,2.89,2.89,0,0,1-.469.035" transform="translate(-31.724 -12.298)" fill="#263238"/>
          <path id="Trazado_891035" data-name="Trazado 891035" d="M129.287,64.614a35.722,35.722,0,0,1-10.521-1.974.376.376,0,0,1,.255-.708c.1.036,9.931,3.522,15.134,1.016a.377.377,0,0,1,.327.679,12.115,12.115,0,0,1-5.2.987" transform="translate(-29.35 -15.331)" fill="#263238"/>
          <path id="Trazado_891036" data-name="Trazado 891036" d="M120.315,41.122c0,1.383-.718,2.5-1.6,2.5s-1.6-1.121-1.6-2.5.718-2.5,1.6-2.5,1.6,1.121,1.6,2.5" transform="translate(-29.001 -9.563)" fill="#263238"/>
          <path id="Trazado_891037" data-name="Trazado 891037" d="M140.009,43.373c0,1.383-.718,2.5-1.6,2.5s-1.6-1.121-1.6-2.5.717-2.5,1.6-2.5,1.6,1.121,1.6,2.5" transform="translate(-33.878 -10.121)" fill="#263238"/>
          <path id="Trazado_891038" data-name="Trazado 891038" d="M123.848,34.753a.376.376,0,0,1-.208-.063,8.145,8.145,0,0,0-8.794-.2.376.376,0,1,1-.424-.621,8.93,8.93,0,0,1,9.635.2.376.376,0,0,1-.209.689" transform="translate(-28.295 -8.057)" fill="#263238"/>
          <path id="Trazado_891039" data-name="Trazado 891039" d="M144.343,37.516a.374.374,0,0,1-.3-.147c-2.391-3.128-6.311-1.311-6.351-1.292a.376.376,0,1,1-.324-.679c.044-.021,4.514-2.092,7.271,1.514a.376.376,0,0,1-.3.6" transform="translate(-33.965 -8.615)" fill="#263238"/>
          <path id="Trazado_891040" data-name="Trazado 891040" d="M20.876,164.786l25.807,68.186L84.716,245.2l-31.241-72.8Z" transform="translate(-5.17 -40.808)" fill="#263238"/>
          <path id="Trazado_891041" data-name="Trazado 891041" d="M84.591,245.449a.38.38,0,0,1-.115-.018L46.444,233.206a.374.374,0,0,1-.237-.225L20.4,164.8a.376.376,0,0,1,.437-.5l32.6,7.606a.375.375,0,0,1,.26.218l31.24,72.8a.376.376,0,0,1-.345.524m-37.744-12.9,37.073,11.917L53.08,172.591l-31.727-7.4Z" transform="translate(-5.046 -40.684)" fill="#263238"/>
          <path id="Trazado_891042" data-name="Trazado 891042" d="M60.8,216.61s2.717-8.964,4.346-9.237,7.335.544,8.422.544,4.89-1.359,5.7.543-.543,2.988-1.63,3.8-4.89.272-4.89.272,8.694-.272,9.508.272a2.747,2.747,0,0,1,.815,3.26,3.373,3.373,0,0,0,.272,2.717,36.285,36.285,0,0,1,3.26,10.866c.351,3.514-1.358,5.161-7.063,6.248s-15.213-.272-17.386-1.086-10.595-3.8-10.595-3.8l3.26-16.028Z" transform="translate(-12.77 -51.34)" fill="#fff"/>
          <path id="Trazado_891043" data-name="Trazado 891043" d="M74.32,236.547c-5.085,0-10.7-.864-12.414-1.508-2.144-.805-10.5-3.772-10.588-3.8a.376.376,0,0,1-.242-.43l3.26-16.028a.375.375,0,0,1,.467-.287l5.625,1.534c.766-2.48,2.9-8.875,4.537-9.149a34.8,34.8,0,0,1,6.193.336c1.044.108,1.945.2,2.29.2a7.925,7.925,0,0,0,1.1-.163c1.677-.314,4.212-.789,4.951.935a3.025,3.025,0,0,1-1.148,3.783,13.056,13.056,0,0,1,4,.4,3.1,3.1,0,0,1,.955,3.712,3.014,3.014,0,0,0,.246,2.385,36.241,36.241,0,0,1,3.311,11.021c.38,3.8-1.548,5.546-7.367,6.655a28.542,28.542,0,0,1-5.175.4m-22.442-5.908c1.538.546,8.378,2.978,10.293,3.7,1.974.74,11.415,2.169,17.184,1.07,6.057-1.154,7.049-2.943,6.758-5.841a36.2,36.2,0,0,0-3.222-10.735,3.716,3.716,0,0,1-.284-3.024A2.368,2.368,0,0,0,81.932,213a21.944,21.944,0,0,0-4.747-.278,13.188,13.188,0,0,1-4.6.066.376.376,0,0,1,.041-.749c.889-.028,2.635-.073,4.453-.074a1.122,1.122,0,0,0,.223-.123c1.22-.916,2.176-1.8,1.509-3.355-.5-1.17-2.68-.761-4.121-.492a7.8,7.8,0,0,1-1.238.177c-.384,0-1.259-.09-2.368-.205a35.946,35.946,0,0,0-5.992-.343c-.864.144-2.774,4.771-4.048,8.974a.38.38,0,0,1-.459.254l-5.589-1.524Z" transform="translate(-12.646 -51.217)" fill="#263238"/>
          <path id="Trazado_891044" data-name="Trazado 891044" d="M55.569,217.145,53.4,243.767l-7.607-1.9,3.8-25.807Z" transform="translate(-11.339 -53.505)" fill="#fff"/>
          <path id="Trazado_891045" data-name="Trazado 891045" d="M53.272,244.019a.372.372,0,0,1-.091-.011l-7.607-1.9a.375.375,0,0,1-.281-.42l3.8-25.807a.376.376,0,0,1,.153-.251.36.36,0,0,1,.287-.064l5.976,1.086a.377.377,0,0,1,.308.4l-2.174,26.622a.375.375,0,0,1-.375.345m-7.185-2.56,6.846,1.711,2.109-25.841-5.258-.955Z" transform="translate(-11.216 -53.381)" fill="#263238"/>
          <path id="Trazado_891046" data-name="Trazado 891046" d="M3.97,200.971c-4.346,4.346-4.346,18.473-1.63,22s32.224,17.376,32.224,17.376l3.805-29.075L16.557,196.753" transform="translate(-0.117 -48.724)" fill="#fff"/>
          <path id="Trazado_891047" data-name="Trazado 891047" d="M34.448,240.6a.382.382,0,0,1-.159-.035C33.08,240,4.666,226.644,1.924,223.081c-2.769-3.6-2.829-18.008,1.663-22.5a.376.376,0,0,1,.532.532c-4.187,4.187-4.176,18.158-1.6,21.509,2.447,3.18,27.846,15.261,31.621,17.045l3.708-28.33L16.231,196.943a.376.376,0,1,1,.418-.626l21.813,14.524a.376.376,0,0,1,.164.362l-3.8,29.074a.378.378,0,0,1-.373.327" transform="translate(0 -48.6)" fill="#263238"/>
          <path id="Trazado_891048" data-name="Trazado 891048" d="M274.35,165.016l8.15-8.15c.815-.815,8.965-2.717,9.78-3.532s6.792-4.075,6.792-4.075,2.173.815,1.358,2.717-6.792,7.335-6.792,7.335l14.126.815s6.248-5.977,6.52-3.532-5.705,13.582-7.063,14.67-24.993,4.89-24.993,4.89l-3.8,1.087Z" transform="translate(-67.94 -36.963)" fill="#fff"/>
          <path id="Trazado_891049" data-name="Trazado 891049" d="M278.3,177.493a.376.376,0,0,1-.357-.257l-4.075-12.224a.376.376,0,0,1,.09-.385l8.15-8.15c.451-.451,2.211-1,5.046-1.859a27.074,27.074,0,0,0,4.734-1.672c.829-.829,6.261-3.8,6.877-4.139a.378.378,0,0,1,.312-.022,3.087,3.087,0,0,1,1.625,1.463,2.162,2.162,0,0,1-.053,1.753c-.68,1.589-4.64,5.379-6.23,6.863l13.078.754c1.29-1.223,5-4.571,6.433-4.049a.938.938,0,0,1,.6.861c.3,2.662-5.894,13.958-7.2,15-1.395,1.116-22.739,4.577-25.167,4.968l-3.76,1.077a.378.378,0,0,1-.1.014m-3.644-12.5,3.887,11.662,3.457-.988c9.143-1.474,23.927-4.075,24.86-4.822,1.313-1.05,7.171-12.117,6.924-14.334-.023-.205-.088-.229-.11-.237-.716-.254-3.553,1.873-5.775,4a.387.387,0,0,1-.282.1l-14.126-.815a.376.376,0,0,1-.231-.654c2.046-1.861,6.079-5.761,6.7-7.205a1.419,1.419,0,0,0,.054-1.157,2.2,2.2,0,0,0-1.05-.992,66.206,66.206,0,0,0-6.543,3.921c-.451.451-2.212,1-5.048,1.861a27.1,27.1,0,0,0-4.732,1.671Z" transform="translate(-67.817 -36.839)" fill="#263238"/>
          <path id="Trazado_891050" data-name="Trazado 891050" d="M286.142,171.758a.376.376,0,0,1-.2-.692c.192-.124,4.756-3.049,8.626-3.049,3.5,0,12.279,1.56,13.937,1.861.963-1.612,4.365-7.114,6.175-6.976a1.022,1.022,0,0,1,.883.734.376.376,0,1,1-.7.279c-.1-.252-.2-.26-.242-.263h-.031c-1.071,0-3.893,3.977-5.574,6.834a.375.375,0,0,1-.393.179c-.1-.019-10.332-1.9-14.058-1.9-3.646,0-8.172,2.9-8.217,2.928a.376.376,0,0,1-.2.06" transform="translate(-70.767 -40.341)" fill="#263238"/>
          <path id="Trazado_891051" data-name="Trazado 891051" d="M175.924,114.016s4.779,3.968,8.039,14.019,18.744,45.639,18.744,45.639L243.727,159l6.248,22-48.626,29.883a9.973,9.973,0,0,1-8.965,1.086c-4.89-1.9-11.138-15.756-11.138-15.756l-3.927-65.75s-.2-14.448-1.395-16.456" transform="translate(-43.566 -28.235)" fill="#fff"/>
          <path id="Trazado_891052" data-name="Trazado 891052" d="M195.636,212.87a9.622,9.622,0,0,1-3.512-.666c-4.976-1.935-11.087-15.38-11.344-15.952a.373.373,0,0,1-.033-.132l-3.927-65.75c-.056-4.007-.4-14.709-1.342-16.286a.376.376,0,0,1,.563-.482c.2.165,4.9,4.153,8.157,14.193,3.052,9.411,17.033,41.693,18.591,45.282l40.689-14.55a.376.376,0,0,1,.488.251l6.248,22a.377.377,0,0,1-.165.424l-48.626,29.882a10.546,10.546,0,0,1-5.786,1.782m-14.142-16.865c.462,1.008,6.375,13.737,10.9,15.5a9.677,9.677,0,0,0,8.606-1.04l48.409-29.751-6.061-21.343-40.641,14.534a.376.376,0,0,1-.472-.2c-.155-.357-15.529-35.72-18.757-45.673a35.557,35.557,0,0,0-6.889-12.8c.8,4.087.961,13.845.978,15.117Z" transform="translate(-43.442 -28.111)" fill="#263238"/>
          <path id="Trazado_891053" data-name="Trazado 891053" d="M204.633,198.3s-5.057,5.057-6.069,9.609" transform="translate(-49.173 -49.108)" fill="#fff"/>
          <path id="Trazado_891054" data-name="Trazado 891054" d="M198.441,208.166a.386.386,0,0,1-.082-.009.377.377,0,0,1-.286-.448c1.024-4.606,5.961-9.584,6.17-9.794a.376.376,0,0,1,.532.532c-.049.05-4.992,5.034-5.967,9.425a.377.377,0,0,1-.367.295" transform="translate(-49.049 -48.984)" fill="#263238"/>
          <path id="Trazado_891055" data-name="Trazado 891055" d="M266.045,172.918l6.248-2.717,5.161,17.929-5.976,2.445Z" transform="translate(-65.884 -42.149)" fill="#fff"/>
          <path id="Trazado_891056" data-name="Trazado 891056" d="M271.355,190.828a.379.379,0,0,1-.162-.036.383.383,0,0,1-.2-.229l-5.432-17.657a.376.376,0,0,1,.208-.456l6.249-2.717a.376.376,0,0,1,.512.241l5.161,17.929a.375.375,0,0,1-.219.452L271.5,190.8a.371.371,0,0,1-.142.028m-4.975-17.823,5.212,16.942,5.285-2.162-4.951-17.193Z" transform="translate(-65.76 -42.025)" fill="#263238"/>
          <path id="Trazado_891057" data-name="Trazado 891057" d="M84.693,100.6l4.114,17.69,14.274,1.909-7.615,8.14,24.607,41.376" transform="translate(-20.973 -24.912)" fill="#fff"/>
          <path id="Trazado_891058" data-name="Trazado 891058" d="M119.95,169.963a.375.375,0,0,1-.324-.184L95.019,128.4a.376.376,0,0,1,.048-.449l7.117-7.606-13.551-1.812a.376.376,0,0,1-.316-.288L84.2,100.558a.376.376,0,1,1,.732-.171l4.056,17.437,14.016,1.874a.377.377,0,0,1,.225.63l-7.422,7.933,24.463,41.134a.376.376,0,0,1-.131.515.371.371,0,0,1-.192.053" transform="translate(-20.85 -24.788)" fill="#263238"/>
          <path id="Trazado_891059" data-name="Trazado 891059" d="M152.15,104.659l7.089,13.916-7.877,2.626,7.615,5.777L156.351,168.2" transform="translate(-37.483 -25.918)" fill="#fff"/>
          <path id="Trazado_891060" data-name="Trazado 891060" d="M156.227,168.454H156.2a.377.377,0,0,1-.352-.4l2.613-41.022-7.454-5.654a.376.376,0,0,1,.108-.657l7.463-2.487-6.891-13.527a.376.376,0,0,1,.67-.342l7.089,13.916a.377.377,0,0,1-.216.528l-7.2,2.4,7.047,5.346a.375.375,0,0,1,.147.324L156.6,168.1a.377.377,0,0,1-.375.352" transform="translate(-37.359 -25.794)" fill="#263238"/>
        </g>
      </g>
      <g id="Grupo_1106898" data-name="Grupo 1106898" transform="translate(401.311 926)">
        <g id="Grupo_1106897" data-name="Grupo 1106897" clip-path="url(#clip-path-2)">
          <path id="Trazado_891062" data-name="Trazado 891062" d="M65.531,0H8.16A8.16,8.16,0,0,0,0,8.16V34.871a8.16,8.16,0,0,0,8.16,8.16H20.283L11.565,65.084,28.926,43.031h36.6a8.16,8.16,0,0,0,8.16-8.16V8.16A8.16,8.16,0,0,0,65.531,0" fill="#263238"/>
          <path id="Trazado_891063" data-name="Trazado 891063" d="M25.55,22.053a3.228,3.228,0,1,0-3.227,3.227,3.227,3.227,0,0,0,3.227-3.227" fill="#0ac675"/>
          <path id="Trazado_891064" data-name="Trazado 891064" d="M40.072,22.053a3.227,3.227,0,1,0-3.227,3.227,3.227,3.227,0,0,0,3.227-3.227" fill="#0ac675"/>
          <path id="Trazado_891065" data-name="Trazado 891065" d="M54.6,22.053a3.228,3.228,0,1,0-3.227,3.227A3.227,3.227,0,0,0,54.6,22.053" fill="#0ac675"/>
        </g>
      </g>
    </g>
    <g id="Grupo_1107978" data-name="Grupo 1107978" transform="translate(-1113.846 -1683.6)">
      <circle id="Elipse_11536" data-name="Elipse 11536" cx="4.889" cy="4.889" r="4.889" transform="translate(1349.003 2701.649)" fill="#00e0ff"/>
      <circle id="Elipse_11529" data-name="Elipse 11529" cx="4.889" cy="4.889" r="4.889" transform="translate(1491.068 2661.094)" fill="#00e0ff"/>
      <circle id="Elipse_11530" data-name="Elipse 11530" cx="4.889" cy="4.889" r="4.889" transform="translate(1429.32 2649.521)" fill="#00e0ff"/>
      <circle id="Elipse_11533" data-name="Elipse 11533" cx="1.572" cy="1.572" r="1.572" transform="translate(1413.544 2667.729)" fill="#00e0ff"/>
      <circle id="Elipse_11616" data-name="Elipse 11616" cx="1.572" cy="1.572" r="1.572" transform="translate(1518.544 2794.646)" fill="#00e0ff"/>
      <circle id="Elipse_11615" data-name="Elipse 11615" cx="1.572" cy="1.572" r="1.572" transform="translate(1541.544 2733.729)" fill="#00e0ff"/>
      <circle id="Elipse_11535" data-name="Elipse 11535" cx="3.143" cy="3.143" r="3.143" transform="translate(1370.017 2695.363)" fill="#00e0ff"/>
      <circle id="Elipse_11531" data-name="Elipse 11531" cx="4.889" cy="4.889" r="4.889" transform="translate(1525.56 2800.236)" fill="#00e0ff"/>
      <circle id="Elipse_11534" data-name="Elipse 11534" cx="4.889" cy="4.889" r="4.889" transform="translate(1378.846 2792.9)" fill="#00e0ff"/>
      <circle id="Elipse_11532" data-name="Elipse 11532" cx="3.143" cy="3.143" r="3.143" transform="translate(1403.209 2794.646)" fill="#00e0ff"/>
    </g>
  </g>
</svg>
