<svg xmlns="http://www.w3.org/2000/svg" width="189.949" height="139" viewBox="0 0 189.949 139">
  <g id="Grupo_1108494" data-name="Grupo 1108494" transform="translate(-180.051 -9602)">
    <rect id="Rectángulo_405979" data-name="Rectángulo 405979" width="133" height="139" rx="20" transform="translate(180.051 9602)" fill="#c9f"/>
    <g id="g15" transform="translate(219.051 10241.103)">
      <g id="g25" transform="translate(2.234 -625.767)">
        <path id="path27" d="M-46.9-6.9V57.52H-58.261a1.956,1.956,0,0,1-1.959-1.959V-6.9a1.957,1.957,0,0,1,1.959-1.959h9.4A1.959,1.959,0,0,1-46.9-6.9" transform="translate(60.22 8.859)" fill="#f37141"/>
      </g>
      <g id="g29" transform="translate(15.549 -612.655)">
        <path id="path31" d="M0-187.631V-240.9H11.357a1.959,1.959,0,0,1,1.959,1.959v51.307Z" transform="translate(0 240.898)" fill="#f89a43"/>
      </g>
      <path id="path33" d="M23.417-446.3H10.1v-11.235H23.417Z" transform="translate(-7.868 -140.766)" fill="#f37141"/>
      <path id="path35" d="M130.546-462.242h13.317v39.95H130.546Z" transform="translate(-101.68 -137.096)" fill="#ffe07e"/>
      <path id="path37" d="M190.772-462.242h13.317v39.95H190.772Z" transform="translate(-148.589 -137.096)" fill="#ffe07e"/>
      <path id="path39" d="M251-462.242h13.317v39.95H251Z" transform="translate(-195.496 -137.096)" fill="#ffe07e"/>
      <path id="path41" d="M311.221-462.242h13.317v39.95H311.221Z" transform="translate(-242.404 -137.096)" fill="#ffe07e"/>
      <path id="path43" d="M371.444-462.242h13.317v39.95H371.444Z" transform="translate(-289.312 -137.096)" fill="#fffd90"/>
      <g id="g45" transform="translate(95.45 -612.655)">
        <path id="path47" d="M0-187.631v-51.307A1.959,1.959,0,0,1,1.959-240.9H13.317v53.267Z" transform="translate(0 240.898)" fill="#fffd90"/>
      </g>
      <path id="path49" d="M491.893-522.467H505.21V-469.2H491.893Z" transform="translate(-383.127 -90.188)" fill="#b3e59f"/>
      <path id="path51" d="M552.119-522.467h13.317V-469.2H552.119Z" transform="translate(-430.036 -90.188)" fill="#a9dbf6"/>
      <g id="g53" transform="translate(15.549 -546.069)">
        <path id="path55" d="M-422.172-6.9V15.814a1.959,1.959,0,0,1-1.959,1.959H-540.064a1.959,1.959,0,0,1-1.959-1.959V-6.9a1.959,1.959,0,0,1,1.959-1.959h115.933A1.959,1.959,0,0,1-422.172-6.9" transform="translate(542.023 8.859)" fill="#ff8086"/>
      </g>
      <g id="g57" transform="translate(135.4 -625.767)">
        <path id="path59" d="M-46.9-6.9V55.562a1.958,1.958,0,0,1-1.959,1.959H-60.22V-6.9a1.958,1.958,0,0,1,1.959-1.959h9.4A1.957,1.957,0,0,1-46.9-6.9" transform="translate(60.22 8.859)" fill="#8f93c8"/>
      </g>
      <path id="path61" d="M83.637-404.639H70.321v-2.084H83.637Z" transform="translate(-54.772 -180.339)" fill="#f37141"/>
      <path id="path63" d="M23.417-404.639H10.1v-2.084H23.417Z" transform="translate(-7.868 -180.339)" fill="#dd5e37"/>
      <path id="path65" d="M143.861-404.639H130.542v-2.084h13.319Z" transform="translate(-101.677 -180.339)" fill="#f89a43"/>
      <path id="path67" d="M264.311-404.639H251v-2.084h13.316Z" transform="translate(-195.496 -180.339)" fill="#f89a43"/>
      <path id="path69" d="M204.091-404.639H190.776v-2.084h13.316Z" transform="translate(-148.592 -180.339)" fill="#f89a43"/>
      <path id="path71" d="M324.534-404.639H311.215v-2.084h13.319Z" transform="translate(-242.4 -180.339)" fill="#f89a43"/>
      <path id="path73" d="M384.765-404.639H371.45v-2.084h13.316Z" transform="translate(-289.316 -180.339)" fill="#ffe07e"/>
      <path id="path75" d="M444.985-404.639H431.67v-2.084h13.316Z" transform="translate(-336.22 -180.339)" fill="#ffe07e"/>
      <path id="path77" d="M505.208-404.639H491.889v-2.084h13.319Z" transform="translate(-383.124 -180.339)" fill="#95d6a5"/>
      <path id="path79" d="M565.439-404.639H552.123v-2.084h13.316Z" transform="translate(-430.039 -180.339)" fill="#96c1ea"/>
      <path id="path81" d="M625.659-404.639H612.344v-2.084h13.316Z" transform="translate(-476.944 -180.339)" fill="#7980b5"/>
      <path id="path83" d="M23.417-464.872H10.1v-2.084H23.417Z" transform="translate(-7.868 -133.424)" fill="#dd5e37"/>
      <g id="g85" transform="translate(15.549 -600.38)">
        <path id="path87" d="M-46.905,0V.854a1.23,1.23,0,0,1-1.23,1.23H-60.221V0Z" transform="translate(60.221)" fill="#f37141"/>
      </g>
      <path id="path89" d="M625.659-464.872H612.344v-2.084h13.316Z" transform="translate(-476.944 -133.424)" fill="#7980b5"/>
      <path id="path91" d="M565.439-464.872H552.123v-2.084h13.316Z" transform="translate(-430.039 -133.424)" fill="#96c1ea"/>
      <path id="path93" d="M505.208-464.872H491.889v-2.084h13.319Z" transform="translate(-383.124 -133.424)" fill="#95d6a5"/>
      <g id="g95" transform="translate(95.45 -600.38)">
        <path id="path97" d="M-46.9,0V2.084H-58.986A1.233,1.233,0,0,1-60.22.85V0Z" transform="translate(60.22)" fill="#ffe07e"/>
      </g>
      <path id="path99" d="M23.417-344.418H10.1V-346.5H23.417Z" transform="translate(-7.868 -227.244)" fill="#dd5e37"/>
      <path id="path101" d="M83.637-344.418H70.321V-346.5H83.637Z" transform="translate(-54.772 -227.244)" fill="#f37141"/>
      <path id="path103" d="M204.091-344.418H190.776V-346.5h13.316Z" transform="translate(-148.592 -227.244)" fill="#f89a43"/>
      <path id="path105" d="M143.861-344.418H130.542V-346.5h13.319Z" transform="translate(-101.677 -227.244)" fill="#f89a43"/>
      <path id="path107" d="M264.311-344.418H251V-346.5h13.316Z" transform="translate(-195.496 -227.244)" fill="#f89a43"/>
      <path id="path109" d="M384.765-344.418H371.45V-346.5h13.316Z" transform="translate(-289.316 -227.244)" fill="#ffe07e"/>
      <path id="path111" d="M324.534-344.418H311.215V-346.5h13.319Z" transform="translate(-242.4 -227.244)" fill="#f89a43"/>
      <path id="path113" d="M444.985-344.418H431.67V-346.5h13.316Z" transform="translate(-336.22 -227.244)" fill="#ffe07e"/>
      <path id="path115" d="M565.439-344.418H552.123V-346.5h13.316Z" transform="translate(-430.039 -227.244)" fill="#96c1ea"/>
      <path id="path117" d="M505.208-344.418H491.889V-346.5h13.319Z" transform="translate(-383.124 -227.244)" fill="#95d6a5"/>
      <path id="path119" d="M625.659-344.418H612.344V-346.5h13.316Z" transform="translate(-476.944 -227.244)" fill="#7980b5"/>
      <g id="g121" transform="translate(15.549 -546.07)">
        <path id="path123" d="M-378.937-42.941V-55.132h-2.084v12.191h-11.235V-55.132h-2.084v12.191h-11.232V-55.132h-2.084v12.191h-11.232V-55.132h-2.084v12.191h-11.235V-55.132h-2.084v12.191h-11.232V-55.132h-2.084v12.191h-11.232V-55.132h-2.084v12.191h-11.235V-55.132h-2.084v12.191h-12.274v2.084h12.274V-28.5h2.084V-40.857h11.235V-28.5h2.084V-40.857h11.232V-28.5h2.084V-40.857h11.232V-28.5h2.084V-40.857h11.235V-28.5h2.084V-40.857h11.232V-28.5h2.084V-40.857h11.232V-28.5h2.084V-40.857h11.235V-28.5h2.084V-40.857h12.274v-2.084Z" transform="translate(486.513 55.132)" fill="#e86b6b"/>
      </g>
      <g id="g125" transform="translate(2.234 -613.696)">
        <path id="path127" d="M-46.9,0V.54a1.543,1.543,0,0,1-1.543,1.543H-60.22V0Z" transform="translate(60.22)" fill="#dd5e37"/>
      </g>
      <g id="g129" transform="translate(135.4 -613.696)">
        <path id="path131" d="M-46.9,0V2.084h-12.2A1.112,1.112,0,0,1-60.22.972V0Z" transform="translate(60.22)" fill="#7980b5"/>
      </g>
      <path id="path133" d="M171.223-213.74h8.851v8.933h-8.851Zm-13.317,0h8.851v8.933h-8.851Zm-13.317,0h8.851v8.933H144.59Zm-13.317,0h8.851v8.933h-8.851Zm-13.317-13.235h8.851v8.77h-8.851Zm-4.465,22.168h-8.851v-8.933h8.851ZM91.323-213.74h8.851v8.933H91.323Zm-13.317,0h8.851v8.933H78.006Zm-13.317,0h8.851v8.933H64.689Zm8.851-4.465H64.689v-8.77h8.851Zm13.317,0H78.006v-8.77h8.851Zm13.317,0H91.323v-8.77h8.851Zm13.317,0h-8.851v-8.77h8.851Zm26.633,0h-8.851v-8.77h8.851Zm31.1-8.77h8.851v8.77h-8.851Zm-13.317,0h8.851v8.77h-8.851Zm-4.465,8.77H144.59v-8.77h8.851Zm30.445-12.581a2.225,2.225,0,0,0-1.579-.654H62.457a2.233,2.233,0,0,0-2.233,2.233h0v26.633a2.233,2.233,0,0,0,2.233,2.232h55.405a2.233,2.233,0,0,0,2.233-2.232,2.231,2.231,0,0,0-2.139-2.228v-8.938h8.851v8.933h-.327a2.233,2.233,0,0,0-2.233,2.233,2.233,2.233,0,0,0,2.233,2.232h55.827a2.233,2.233,0,0,0,2.233-2.232v-26.633a2.225,2.225,0,0,0-.654-1.579" transform="translate(-46.907 -316.863)"/>
      <path id="path135" d="M137.633-574.289h8.851v8.851h-8.851Zm-4.465,22.168h-8.851v-8.851h8.851ZM146.484-538.8h-8.851v-8.851h8.851Zm-62.118,4.465h8.851v8.851H84.366Zm-13.317,0H79.9v8.851H71.049Zm-13.317,0h8.851v8.851H57.732Zm-13.317,0h8.851v8.851H44.415Zm-13.317,0H39.95v8.851H31.1Zm-13.317,0h8.851v8.851H17.782Zm-13.317,0h8.851v8.851H4.465Zm8.851-44.416H4.465V-587.4h8.851Zm13.317,13.317H17.782v-8.851h8.851ZM39.95-552.121H31.1v-8.851H39.95Zm13.317,0H44.416v-8.851h8.851Zm13.317,0H57.732v-8.851h8.851Zm13.317,0H71.049v-8.851H79.9Zm13.317,0H84.366v-8.851h8.851Zm13.317-13.317H97.683v-8.851h8.851ZM111-560.973h8.851v8.851H111ZM119.85-538.8H111v-8.851h8.851Zm4.465-8.851h8.851v8.851h-8.851Zm8.851,22.168h-8.851v-8.851h8.851Zm13.317,0h-8.851v-8.851h8.851ZM111-534.339h8.851v8.851H111Zm-4.465-17.782H97.683v-8.851h8.851Zm-8.851,4.465h8.851v8.851H97.682Zm-13.317,0h8.851v8.851H84.366Zm-13.317,0H79.9v8.851H71.049Zm-13.317,0h8.851v8.851H57.732Zm-13.317,0h8.851v8.851H44.415Zm-13.317,0H39.95v8.851H31.1Zm-13.317,0h8.851v8.851H17.782Zm-13.317,0h8.851v8.851H4.465Zm13.317-13.317h8.851v8.851H17.782Zm-4.465,8.851H4.465v-8.851h8.851Zm0-13.317H4.465v-8.851h8.851Zm84.366,31.1h8.851v8.851H97.682Zm22.168-31.1H111v-8.851h8.851Zm13.317,0h-8.851v-8.851h8.851Zm13.317-13.317h-8.851V-587.4h8.851Zm2.233-13.113H135.4a2.232,2.232,0,0,0-2.232,2.232v10.881H95.45a2.233,2.233,0,0,0-2.233,2.232v11.084H31.1v-11.084a2.232,2.232,0,0,0-2.233-2.232H17.782v-10.881a2.232,2.232,0,0,0-2.232-2.232H2.233A2.233,2.233,0,0,0,0-589.635v66.38a2.233,2.233,0,0,0,2.233,2.233H148.717a2.233,2.233,0,0,0,2.233-2.233h0v-28.676a2.233,2.233,0,0,0-2.233-2.233,2.232,2.232,0,0,0-2.223,2.042h-8.861v-8.851h8.851v.439a2.233,2.233,0,0,0,2.233,2.233,2.233,2.233,0,0,0,2.233-2.233v-29.1a2.233,2.233,0,0,0-2.233-2.232" transform="translate(0 -36.133)"/>
    </g>
  </g>
</svg>
