<svg xmlns="http://www.w3.org/2000/svg" xmlns:xlink="http://www.w3.org/1999/xlink" width="84" height="84" viewBox="0 0 84 84">
  <defs>
    <clipPath id="clip-path">
      <rect id="Rectángulo_405713" data-name="Rectángulo 405713" width="49" height="49" transform="translate(424.516 6774.023)" fill="#017301" stroke="#707070" stroke-width="1"/>
    </clipPath>
  </defs>
  <g id="Grupo_1108957" data-name="Grupo 1108957" transform="translate(-406.516 -6756.023)">
    <path id="Trazado_898895" data-name="Trazado 898895" d="M42,0A42,42,0,1,1,0,42,42,42,0,0,1,42,0Z" transform="translate(406.516 6756.023)" fill="#fff"/>
    <g id="Enmascarar_grupo_1098729" data-name="Enmascarar grupo 1098729" clip-path="url(#clip-path)">
      <g id="bebida-fria" transform="translate(421.011 6770.514)">
        <path id="Trazado_898956" data-name="Trazado 898956" d="M22.824,47.617a2.123,2.123,0,0,1-.569-.079,2.166,2.166,0,0,1-1.321-1.015l-3.439-5.96a2.168,2.168,0,0,1,.8-2.967l5.96-3.439a2.176,2.176,0,0,1,2.967.8l3.439,5.96a2.168,2.168,0,0,1-.8,2.967L23.9,47.32a2.167,2.167,0,0,1-1.085.289Zm2.512-11.99a.44.44,0,0,0-.21.053l-5.96,3.439a.39.39,0,0,0-.193.254.418.418,0,0,0,.044.324l3.439,5.96a.39.39,0,0,0,.254.193.416.416,0,0,0,.324-.044l5.96-3.439a.39.39,0,0,0,.193-.254.418.418,0,0,0-.044-.324L25.7,35.829a.43.43,0,0,0-.368-.21Z" fill="#017301"/>
        <path id="Trazado_898957" data-name="Trazado 898957" d="M32.6,37.229a2.185,2.185,0,0,1-2.127-1.715l-.761-3.562a2.176,2.176,0,0,1,1.672-2.582l3.562-.761a2.176,2.176,0,0,1,2.582,1.672l.761,3.562a2.176,2.176,0,0,1-1.672,2.582l-3.562.761a2.018,2.018,0,0,1-.455.053Zm2.792-6.922a.4.4,0,0,0-.088.009l-3.562.761a.419.419,0,0,0-.324.5l.761,3.562a.426.426,0,0,0,.5.324L36.24,34.7a.419.419,0,0,0,.324-.5L35.8,30.639a.42.42,0,0,0-.411-.333Z" fill="#017301"/>
        <path id="Trazado_898958" data-name="Trazado 898958" d="M24.356,28.075A2.205,2.205,0,0,1,23,27.6l-2.844-2.275a2.17,2.17,0,0,1-.333-3.054L22.1,19.428a2.115,2.115,0,0,1,1.453-.8,2.141,2.141,0,0,1,1.593.464l2.844,2.275a2.179,2.179,0,0,1,.333,3.054L26.045,27.27a2.172,2.172,0,0,1-1.7.814Zm-.56-7.71h-.044a.385.385,0,0,0-.28.158L21.2,23.367a.427.427,0,0,0,.061.6L24.1,26.237a.427.427,0,0,0,.6-.061l2.275-2.844a.427.427,0,0,0-.061-.6l-2.844-2.275a.406.406,0,0,0-.263-.1Z" fill="#017301"/>
        <path id="Trazado_898959" data-name="Trazado 898959" d="M40.476,52.509H15.534a.88.88,0,0,1-.875-.823L12.033,4.428a.854.854,0,0,1,.236-.648.873.873,0,0,1,.639-.271H43.1a.887.887,0,0,1,.639.271.854.854,0,0,1,.236.648L41.351,51.687A.874.874,0,0,1,40.476,52.509Zm-24.111-1.75H39.653L42.183,5.251H13.836Z" fill="#017301"/>
        <path id="Trazado_898960" data-name="Trazado 898960" d="M13.512,14.073H42.5v1.75H13.512Z" fill="#017301"/>
      </g>
    </g>
  </g>
</svg>
