<svg xmlns="http://www.w3.org/2000/svg" xmlns:xlink="http://www.w3.org/1999/xlink" width="84" height="84" viewBox="0 0 84 84">
  <defs>
    <clipPath id="clip-path">
      <rect id="Rectángulo_405710" data-name="Rectángulo 405710" width="49" height="49" transform="translate(773.051 6774.023)" fill="#017301" stroke="#707070" stroke-width="1"/>
    </clipPath>
  </defs>
  <g id="Grupo_1108958" data-name="Grupo 1108958" transform="translate(-755.051 -6756.023)">
    <path id="Trazado_898894" data-name="Trazado 898894" d="M42,0A42,42,0,1,1,0,42,42,42,0,0,1,42,0Z" transform="translate(755.051 6756.023)" fill="#fff"/>
    <g id="Enmascarar_grupo_1098723" data-name="Enmascarar grupo 1098723" clip-path="url(#clip-path)">
      <g id="hielo" transform="translate(773.042 6774.019)">
        <path id="Trazado_898913" data-name="Trazado 898913" d="M43.392,19.015A6.685,6.685,0,0,0,39.435,20a7.4,7.4,0,0,1-1.53.666v1.578a7.983,7.983,0,0,0,2.248-.89,5.191,5.191,0,0,1,3.143-.81A5.091,5.091,0,0,1,47.475,24.9c.085,2.008-1.949,2.731-3.669,2.985-4.622.68-5.58,1.792-7.145,4.043A22.377,22.377,0,0,1,31.23,37.6c-5.634,4.323-8.793,2.483-12.45.352a26.019,26.019,0,0,0-3.413-1.768,7.71,7.71,0,0,0-2.891-.521,19.785,19.785,0,0,0-4.4.666c-3.034.7-4.959,1.03-6.243-.914-.39-.59-.3-.918-.266-1.027.262-.926,2.12-1.787,3.613-2.478,1.948-.9,3.629-1.682,3.818-3.066a2.478,2.478,0,0,0-1.1-2.178,2.645,2.645,0,0,1-1.221-2.24c.191-1.391,2.2-2.6,2.954-2.952.02-.009.039-.019.058-.03s.468-.264,1.42-.778V18.924c-1.309.7-2,1.087-2.147,1.168-.475.222-3.468,1.712-3.8,4.118A4.034,4.034,0,0,0,6.9,27.83c.453.386.595.668.577.8-.076.553-1.8,1.353-2.945,1.883C2.572,31.425.545,32.365.09,33.967a2.712,2.712,0,0,0,.462,2.29c1.936,2.929,4.95,2.233,7.865,1.562,2.156-.5,4.387-1.012,6.382-.215a24.88,24.88,0,0,1,3.21,1.669c2.036,1.186,4.224,2.461,6.9,2.461,2.072,0,4.437-.764,7.25-2.922A24.02,24.02,0,0,0,37.918,32.8c1.331-1.914,1.939-2.788,6.11-3.4,4.636-.682,5.025-3.42,4.977-4.565a6.618,6.618,0,0,0-5.613-5.821Z" fill="#017301"/>
        <path id="Trazado_898914" data-name="Trazado 898914" d="M41.371,34.577a4.036,4.036,0,0,0-1.9,2.262,1.909,1.909,0,0,0,.43,1.588.988.988,0,0,1,.225.729,1.448,1.448,0,0,0,.4,1.114c.376.357.962.5,2.2.5.211,0,.441,0,.692-.012,1.489-.047,2.2-.237,2.608-.7a1.626,1.626,0,0,0,.312-1.329,1.266,1.266,0,0,1,.233-1.051,2.091,2.091,0,0,0,.008-2.769c-.961-1.089-3.169-1.51-5.2-.328Zm3.976,2.169a2.773,2.773,0,0,0-.54,2.116c.005.059.012.132.015.19a5.149,5.149,0,0,1-1.457.173,7.95,7.95,0,0,1-1.708-.059v-.043a2.486,2.486,0,0,0-.567-1.662.386.386,0,0,1-.114-.34c.076-.414.738-.971,1.162-1.217l0,0a2.845,2.845,0,0,1,3.285.016c.089.1.3.337-.077.827Z" fill="#017301"/>
        <path id="Trazado_898915" data-name="Trazado 898915" d="M8.164,14.3a4.134,4.134,0,0,0-3.435.07C2.665,15.2,1.3,16.924,1.564,18.38a1.927,1.927,0,0,0,.994,1.361,3.039,3.039,0,0,0,1.472.34,5.314,5.314,0,0,0,1.963-.41c2.064-.832,3.424-2.558,3.165-4.015A1.927,1.927,0,0,0,8.164,14.3ZM5.42,18.25A2.678,2.678,0,0,1,3.3,18.4a.392.392,0,0,1-.228-.289c-.1-.556.7-1.709,2.23-2.326a3.755,3.755,0,0,1,1.385-.3,1.561,1.561,0,0,1,.736.151.392.392,0,0,1,.228.289c.1.556-.7,1.709-2.23,2.326Z" fill="#017301"/>
        <path id="Trazado_898916" data-name="Trazado 898916" d="M33.286,11.359,27.542,8.077a6.149,6.149,0,0,0-6.076,0l-5.743,3.281a6.142,6.142,0,0,0-3.088,5.323v6.461a6.142,6.142,0,0,0,2.3,4.779v1.444a2.106,2.106,0,0,0,4,.931l2.536,1.449a6.15,6.15,0,0,0,6.076,0l1.968-1.124a2.107,2.107,0,0,0,3.8-1.256v-.917a6.142,6.142,0,0,0,3.063-5.307V16.681a6.142,6.142,0,0,0-3.088-5.322ZM23.739,30.946a4.564,4.564,0,0,1-1.512-.53l-2.99-1.708.286-2.538A.766.766,0,0,0,18,26l-.386,3.433a.577.577,0,0,1-1.15-.065V22.381a.766.766,0,1,0-1.532,0v3.275a4.561,4.561,0,0,1-.766-2.514V16.681a4.569,4.569,0,0,1,.249-1.46l9.323,5.307Zm1.145-11.529-9.751-5.551a4.584,4.584,0,0,1,1.351-1.177l5.743-3.281a4.612,4.612,0,0,1,4.557,0l5.744,3.282a4.582,4.582,0,0,1,1.35,1.176l-7.07,4.019a.786.786,0,0,0-.387.666v4.686a.577.577,0,0,1-1.145.1l0-3.254a.793.793,0,0,0-.387-.665Zm9.959-2.735v6.461a4.6,4.6,0,0,1-1.531,3.411V22.381a.766.766,0,1,0-1.532,0v6.985a.577.577,0,0,1-1.15.065L30.243,26a.766.766,0,0,0-1.522.171l.332,2.949-2.27,1.3a4.564,4.564,0,0,1-1.513.53V25.264a2.1,2.1,0,0,0,2.68-2.028V19l6.642-3.776a4.569,4.569,0,0,1,.249,1.46Z" fill="#017301"/>
      </g>
    </g>
  </g>
</svg>
