<svg xmlns="http://www.w3.org/2000/svg" xmlns:xlink="http://www.w3.org/1999/xlink" width="84" height="84" viewBox="0 0 84 84">
  <defs>
    <clipPath id="clip-path">
      <rect id="Rectángulo_405707" data-name="Rectángulo 405707" width="49" height="49" transform="translate(1126.051 6773.693)" fill="#017301" stroke="#707070" stroke-width="1"/>
    </clipPath>
  </defs>
  <g id="Grupo_1108959" data-name="Grupo 1108959" transform="translate(-1109.051 -6756.023)">
    <path id="Trazado_898888" data-name="Trazado 898888" d="M42,0A42,42,0,1,1,0,42,42,42,0,0,1,42,0Z" transform="translate(1109.051 6756.023)" fill="#fff"/>
    <g id="Enmascarar_grupo_1098724" data-name="Enmascarar grupo 1098724" clip-path="url(#clip-path)">
      <g id="Icons" transform="translate(1126.051 6773.693)">
        <path id="Trazado_898917" data-name="Trazado 898917" d="M46.55,17.967H43.283a2.45,2.45,0,0,0-2.45,2.45v.041a7.2,7.2,0,0,0-3.967,1.756,5.64,5.64,0,0,1-7.588,0,7.252,7.252,0,0,0-9.565,0,5.635,5.635,0,0,1-7.583,0,7.194,7.194,0,0,0-3.965-1.756v-.041a2.45,2.45,0,0,0-2.45-2.45H2.45a2.45,2.45,0,0,0,0,4.9h.817V38.383A10.629,10.629,0,0,0,13.883,49H35.117A10.629,10.629,0,0,0,45.733,38.383V22.867h.817a2.45,2.45,0,1,0,0-4.9ZM11.143,23.52a7.248,7.248,0,0,0,9.562,0,5.635,5.635,0,0,1,7.584,0,7.255,7.255,0,0,0,9.566,0A5.735,5.735,0,0,1,40.833,22.1V38.383A5.723,5.723,0,0,1,35.117,44.1H13.883a5.723,5.723,0,0,1-5.717-5.717V22.1a5.739,5.739,0,0,1,2.976,1.415ZM46.55,21.233H44.917a.817.817,0,0,0-.817.817V38.383a8.994,8.994,0,0,1-8.983,8.983H13.883A8.994,8.994,0,0,1,4.9,38.383V22.05a.817.817,0,0,0-.817-.817H2.45a.817.817,0,1,1,0-1.633H5.717a.817.817,0,0,1,.817.817V38.383a7.358,7.358,0,0,0,7.35,7.35H35.117a7.358,7.358,0,0,0,7.35-7.35V20.417a.817.817,0,0,1,.817-.817H46.55a.817.817,0,0,1,0,1.633Z" fill="#017301"/>
        <path id="Trazado_898918" data-name="Trazado 898918" d="M13.883,33.483a3.267,3.267,0,1,0-3.267-3.267A3.267,3.267,0,0,0,13.883,33.483Zm0-4.9a1.633,1.633,0,1,1-1.633,1.633A1.633,1.633,0,0,1,13.883,28.583Z" fill="#017301"/>
        <path id="Trazado_898919" data-name="Trazado 898919" d="M26.95,42.467A3.267,3.267,0,1,0,23.683,39.2,3.267,3.267,0,0,0,26.95,42.467Zm0-4.9A1.633,1.633,0,1,1,25.317,39.2,1.633,1.633,0,0,1,26.95,37.567Z" fill="#017301"/>
        <path id="Trazado_898920" data-name="Trazado 898920" d="M31.033,34.3a3.267,3.267,0,1,0-3.267-3.267A3.267,3.267,0,0,0,31.033,34.3Zm0-4.9A1.633,1.633,0,1,1,29.4,31.033,1.633,1.633,0,0,1,31.033,29.4Z" fill="#017301"/>
        <path id="Trazado_898921" data-name="Trazado 898921" d="M22.05,34.3a2.45,2.45,0,1,0-2.45-2.45A2.45,2.45,0,0,0,22.05,34.3Zm0-3.267a.817.817,0,1,1-.817.817A.817.817,0,0,1,22.05,31.033Z" fill="#017301"/>
        <path id="Trazado_898922" data-name="Trazado 898922" d="M33.483,36.75a2.45,2.45,0,1,0,2.45-2.45A2.45,2.45,0,0,0,33.483,36.75Zm2.45-.817a.817.817,0,1,1-.817.817A.817.817,0,0,1,35.933,35.933Z" fill="#017301"/>
        <path id="Trazado_898923" data-name="Trazado 898923" d="M13.067,40.833a2.45,2.45,0,1,0-2.45-2.45,2.45,2.45,0,0,0,2.45,2.45Zm0-3.267a.817.817,0,1,1-.817.817A.817.817,0,0,1,13.067,37.567Z" fill="#017301"/>
        <path id="Trazado_898924" data-name="Trazado 898924" d="M36.75,19.6a2.45,2.45,0,0,0,2.45-2.45c0-.9.318-1.263,1.014-2.047a7.369,7.369,0,0,0,0-10.606c-.7-.783-1.014-1.142-1.014-2.047a2.45,2.45,0,0,0-4.9,0,7.409,7.409,0,0,0,2.252,5.3c.7.783,1.014,1.142,1.014,2.047s-.318,1.263-1.014,2.047a7.4,7.4,0,0,0-2.252,5.3A2.45,2.45,0,0,0,36.75,19.6Zm1.023-6.668a4.15,4.15,0,0,0,0-6.264,5.832,5.832,0,0,1-1.84-4.218.817.817,0,1,1,1.633,0,4.227,4.227,0,0,0,1.428,3.132,5.756,5.756,0,0,1,0,8.436,4.23,4.23,0,0,0-1.428,3.132.817.817,0,1,1-1.633,0,5.829,5.829,0,0,1,1.84-4.218Z" fill="#017301"/>
        <path id="Trazado_898925" data-name="Trazado 898925" d="M28.583,19.6a2.45,2.45,0,0,0,2.45-2.45c0-.9.318-1.263,1.014-2.047a7.369,7.369,0,0,0,0-10.606c-.7-.783-1.014-1.142-1.014-2.047a2.45,2.45,0,1,0-4.9,0,7.409,7.409,0,0,0,2.252,5.3C29.082,8.537,29.4,8.9,29.4,9.8s-.318,1.263-1.014,2.047a7.4,7.4,0,0,0-2.252,5.3A2.45,2.45,0,0,0,28.583,19.6Zm1.023-6.668a4.15,4.15,0,0,0,0-6.264,5.832,5.832,0,0,1-1.84-4.218.817.817,0,1,1,1.633,0,4.227,4.227,0,0,0,1.428,3.132,5.756,5.756,0,0,1,0,8.436A4.23,4.23,0,0,0,29.4,17.15a.817.817,0,1,1-1.633,0,5.829,5.829,0,0,1,1.84-4.218Z" fill="#017301"/>
        <path id="Trazado_898926" data-name="Trazado 898926" d="M20.417,19.6a2.45,2.45,0,0,0,2.45-2.45c0-.9.318-1.263,1.014-2.047a7.369,7.369,0,0,0,0-10.606c-.7-.783-1.014-1.142-1.014-2.047a2.45,2.45,0,1,0-4.9,0,7.409,7.409,0,0,0,2.252,5.3c.7.783,1.014,1.142,1.014,2.047s-.318,1.263-1.014,2.047a7.4,7.4,0,0,0-2.252,5.3,2.45,2.45,0,0,0,2.45,2.45Zm1.023-6.668a4.15,4.15,0,0,0,0-6.264A5.832,5.832,0,0,1,19.6,2.45a.817.817,0,1,1,1.633,0,4.227,4.227,0,0,0,1.428,3.132,5.756,5.756,0,0,1,0,8.436,4.23,4.23,0,0,0-1.428,3.132.817.817,0,1,1-1.633,0A5.829,5.829,0,0,1,21.44,12.932Z" fill="#017301"/>
        <path id="Trazado_898927" data-name="Trazado 898927" d="M9.8,17.15a2.45,2.45,0,1,0,4.9,0c0-.9.318-1.263,1.014-2.047a7.369,7.369,0,0,0,0-10.606c-.7-.783-1.014-1.142-1.014-2.047a2.45,2.45,0,1,0-4.9,0,7.409,7.409,0,0,0,2.252,5.3c.7.783,1.014,1.142,1.014,2.047s-.318,1.263-1.014,2.047A7.4,7.4,0,0,0,9.8,17.15ZM13.272,6.668A5.832,5.832,0,0,1,11.433,2.45a.817.817,0,1,1,1.633,0,4.227,4.227,0,0,0,1.428,3.132,5.756,5.756,0,0,1,0,8.436,4.23,4.23,0,0,0-1.428,3.132.817.817,0,1,1-1.633,0,5.829,5.829,0,0,1,1.84-4.218,4.15,4.15,0,0,0,0-6.264Z" fill="#017301"/>
      </g>
    </g>
  </g>
</svg>
