<svg xmlns="http://www.w3.org/2000/svg" width="85" height="84.854" viewBox="0 0 85 84.854">
  <g id="Grupo_1108955" data-name="Grupo 1108955" transform="translate(-180 -10294.619)">
    <path id="Trazado_899433" data-name="Trazado 899433" d="M299.947,306.185H274.5a6.694,6.694,0,0,1-6.674-6.674V274.06a6.694,6.694,0,0,1,6.674-6.674h25.451a6.694,6.694,0,0,1,6.674,6.674v25.451A6.694,6.694,0,0,1,299.947,306.185Z" transform="translate(-42.866 10072.042)" fill="#0396fd"/>
    <path id="Trazado_899434" data-name="Trazado 899434" d="M39.545,306.185H14.094a6.694,6.694,0,0,1-6.674-6.674V274.06a6.694,6.694,0,0,1,6.674-6.674H39.545a6.694,6.694,0,0,1,6.674,6.674v25.451A6.694,6.694,0,0,1,39.545,306.185Z" transform="translate(173.826 10072.042)" fill="#5ee2c5"/>
    <path id="Trazado_899435" data-name="Trazado 899435" d="M39.545,46.657H14.094A6.694,6.694,0,0,1,7.42,39.983V14.532a6.694,6.694,0,0,1,6.674-6.674H39.545a6.694,6.694,0,0,1,6.674,6.674V39.983a6.694,6.694,0,0,1-6.674,6.674Z" transform="translate(173.826 10288.006)" fill="#ff4343"/>
    <path id="Trazado_899436" data-name="Trazado 899436" d="M440.742,274.063v25.451a6.7,6.7,0,0,1-6.674,6.674H429a6.7,6.7,0,0,0,6.674-6.674V274.063A6.694,6.694,0,0,0,429,267.39h5.07A6.694,6.694,0,0,1,440.742,274.063Z" transform="translate(-176.987 10072.039)" fill="#0077f0"/>
    <path id="Trazado_899437" data-name="Trazado 899437" d="M180.335,274.063v25.451a6.694,6.694,0,0,1-6.673,6.674H168.59a6.694,6.694,0,0,0,6.674-6.674V274.063a6.693,6.693,0,0,0-6.674-6.673h5.072A6.692,6.692,0,0,1,180.335,274.063Z" transform="translate(39.709 10072.039)" fill="#00d3b4"/>
    <path id="Trazado_899438" data-name="Trazado 899438" d="M180.335,14.529V39.981a6.692,6.692,0,0,1-6.673,6.673H168.59a6.693,6.693,0,0,0,6.674-6.673V14.529a6.694,6.694,0,0,0-6.674-6.674h5.072a6.693,6.693,0,0,1,6.673,6.674Z" transform="translate(39.709 10288.009)" fill="#f72c2c"/>
    <path id="Trazado_899439" data-name="Trazado 899439" d="M33.37,41.728H17.091a1.245,1.245,0,0,1,0-2.491H33.37A5.435,5.435,0,0,0,38.8,33.808V8.358A5.435,5.435,0,0,0,33.37,2.929H7.92A5.435,5.435,0,0,0,2.491,8.358v25.45A5.435,5.435,0,0,0,7.92,39.236h3.469a1.245,1.245,0,1,1,0,2.491H7.92A7.929,7.929,0,0,1,0,33.808V8.358A7.929,7.929,0,0,1,7.92.438H33.37a7.929,7.929,0,0,1,7.92,7.92V33.808a7.929,7.929,0,0,1-7.92,7.919Z" transform="translate(180 10294.182)"/>
    <path id="Trazado_899440" data-name="Trazado 899440" d="M33.37,301.256H7.92A7.929,7.929,0,0,1,0,293.336v-25.45a7.929,7.929,0,0,1,7.92-7.92H33.37a7.929,7.929,0,0,1,7.92,7.92v25.451A7.929,7.929,0,0,1,33.37,301.256ZM7.92,262.457a5.435,5.435,0,0,0-5.428,5.429v25.451a5.435,5.435,0,0,0,5.428,5.428H33.37a5.435,5.435,0,0,0,5.428-5.428V267.886a5.435,5.435,0,0,0-5.428-5.429Z" transform="translate(180 10078.217)"/>
    <path id="Trazado_899441" data-name="Trazado 899441" d="M293.773,301.256H268.322a7.929,7.929,0,0,1-7.919-7.919v-6.191a1.245,1.245,0,0,1,2.491,0v6.191a5.435,5.435,0,0,0,5.428,5.428h25.451a5.435,5.435,0,0,0,5.429-5.428V267.886a5.435,5.435,0,0,0-5.429-5.429H268.322a5.435,5.435,0,0,0-5.428,5.429V281.36a1.245,1.245,0,1,1-2.491,0V267.886a7.929,7.929,0,0,1,7.919-7.92h25.451a7.929,7.929,0,0,1,7.92,7.92v25.451A7.929,7.929,0,0,1,293.773,301.256Z" transform="translate(-36.693 10078.217)"/>
    <g id="Grupo_1108516" data-name="Grupo 1108516" transform="translate(190.356 10304.989)">
      <path id="Trazado_899442" data-name="Trazado 899442" d="M68.075,74.978,64.1,67.543v7.436c0,.5-.61.758-1.2.758-.61,0-1.2-.259-1.2-.758v-12c0-.518.592-.758,1.2-.758.869,0,1.221.185,1.794,1.276l3.57,6.9V62.956c0-.518.592-.74,1.2-.74.592,0,1.2.222,1.2.74V74.979c0,.5-.61.758-1.2.758A1.446,1.446,0,0,1,68.075,74.978Z" transform="translate(-61.694 -62.216)"/>
    </g>
    <g id="Grupo_1108517" data-name="Grupo 1108517" transform="translate(200.843 10309.613)">
      <path id="Trazado_899443" data-name="Trazado 899443" d="M131.626,93.37V97.9c0,.426-.5.758-1.165.758-.611,0-1.073-.333-1.073-.758v-.536a3.679,3.679,0,0,1-2.811,1.461,2.256,2.256,0,0,1-2.4-2.46c0-2.127,1.757-2.719,4.31-2.719h.758v-.241a1.553,1.553,0,0,0-1.628-1.7c-1.424,0-1.665.573-2.109.573-.536,0-.814-.647-.814-1.184,0-.758,1.646-1.332,2.959-1.332C130.535,89.763,131.626,91.5,131.626,93.37Zm-2.386,1.517h-.277c-1.239,0-2.4.13-2.4,1.165a.909.909,0,0,0,.98,1,1.935,1.935,0,0,0,1.7-1.776Z" transform="translate(-124.172 -89.763)"/>
    </g>
    <path id="Trazado_899444" data-name="Trazado 899444" d="M65.757,165.842h-8.3a1.245,1.245,0,1,1,0-2.491h8.3a1.245,1.245,0,1,1,0,2.491Z" transform="translate(133.227 10158.615)"/>
    <path id="Trazado_899445" data-name="Trazado 899445" d="M77.382,194.534H57.453a1.245,1.245,0,1,1,0-2.491H77.382a1.245,1.245,0,1,1,0,2.491Z" transform="translate(133.227 10134.738)"/>
    <g id="Grupo_1108523" data-name="Grupo 1108523" transform="translate(190.355 10348.553)">
      <g id="Grupo_1108522" data-name="Grupo 1108522">
        <path id="Trazado_899446" data-name="Trazado 899446" d="M61.691,322.484c0-.518.592-.74,1.2-.74.592,0,1.2.222,1.2.74v5.049l4-5.438a.765.765,0,0,1,.666-.351,1.5,1.5,0,0,1,1.387,1.239.713.713,0,0,1-.148.462l-3.311,4.143,4.032,6.141a.72.72,0,0,1,.129.426,1.465,1.465,0,0,1-1.443,1.2.939.939,0,0,1-.832-.462l-3.477-5.272-1,1.258v3.625c0,.5-.61.758-1.2.758-.61,0-1.2-.259-1.2-.758Z" transform="translate(-61.691 -321.744)"/>
      </g>
    </g>
    <path id="Trazado_899447" data-name="Trazado 899447" d="M65.757,425.37h-8.3a1.245,1.245,0,1,1,0-2.491h8.3a1.245,1.245,0,1,1,0,2.491Z" transform="translate(133.227 9942.65)"/>
    <path id="Trazado_899448" data-name="Trazado 899448" d="M77.382,454.062H57.453a1.245,1.245,0,1,1,0-2.491H77.382a1.245,1.245,0,1,1,0,2.491Z" transform="translate(133.227 9918.773)"/>
    <g id="Grupo_1108530" data-name="Grupo 1108530" transform="translate(234.654 10348.553)">
      <g id="Grupo_1108528" data-name="Grupo 1108528">
        <path id="Trazado_899449" data-name="Trazado 899449" d="M329.944,323.852c-1.239,0-1.942.684-1.942,2.127v5.16c0,1.443.7,2.127,1.979,2.127,1.683,0,1.831-1.2,1.886-1.979.037-.573.555-.758,1.184-.758.832,0,1.221.241,1.221,1.184,0,2.238-1.831,3.662-4.421,3.662-2.331,0-4.254-1.147-4.254-4.236v-5.16c0-3.089,1.942-4.236,4.273-4.236,2.571,0,4.4,1.369,4.4,3.514,0,.962-.388,1.184-1.2,1.184-.684,0-1.184-.2-1.2-.758A1.714,1.714,0,0,0,329.944,323.852Z" transform="translate(-325.597 -321.743)"/>
      </g>
      <g id="Grupo_1108529" data-name="Grupo 1108529" transform="translate(9.6 4.624)">
        <path id="Trazado_899450" data-name="Trazado 899450" d="M390.241,352.9v4.532c0,.425-.5.758-1.165.758-.61,0-1.073-.333-1.073-.758v-.536a3.679,3.679,0,0,1-2.811,1.461,2.257,2.257,0,0,1-2.4-2.46c0-2.127,1.757-2.719,4.31-2.719h.758v-.241a1.553,1.553,0,0,0-1.628-1.7c-1.424,0-1.665.573-2.109.573-.536,0-.814-.647-.814-1.184,0-.758,1.646-1.332,2.959-1.332,2.885,0,3.977,1.739,3.977,3.607Zm-2.386,1.517h-.277c-1.239,0-2.4.13-2.4,1.165a.909.909,0,0,0,.98,1,1.935,1.935,0,0,0,1.7-1.776Z" transform="translate(-382.787 -349.293)"/>
      </g>
    </g>
    <path id="Trazado_899451" data-name="Trazado 899451" d="M330.433,425.37h-8.3a1.245,1.245,0,1,1,0-2.491h8.3a1.245,1.245,0,1,1,0,2.491Z" transform="translate(-87.022 9942.65)"/>
    <path id="Trazado_899452" data-name="Trazado 899452" d="M342.058,454.062H322.129a1.245,1.245,0,0,1,0-2.491h19.929a1.245,1.245,0,1,1,0,2.491Z" transform="translate(-87.022 9918.773)"/>
  </g>
</svg>
