<svg xmlns="http://www.w3.org/2000/svg" xmlns:xlink="http://www.w3.org/1999/xlink" width="84" height="84" viewBox="0 0 84 84">
  <defs>
    <clipPath id="clip-path">
      <rect id="Rectángulo_405716" data-name="Rectángulo 405716" width="49" height="49" transform="translate(-3138.535 -4833.977)" fill="#017301" stroke="#707070" stroke-width="1"/>
    </clipPath>
  </defs>
  <g id="Grupo_1108960" data-name="Grupo 1108960" transform="translate(3156.535 4851.977)">
    <path id="Trazado_898909" data-name="Trazado 898909" d="M42,0A42,42,0,1,1,0,42,42,42,0,0,1,42,0Z" transform="translate(-3156.535 -4851.977)" fill="#fff"/>
    <g id="Enmascarar_grupo_1098725" data-name="Enmascarar grupo 1098725" clip-path="url(#clip-path)">
      <g id="acero" transform="translate(-3140.169 -4835.61)">
        <path id="Trazado_898928" data-name="Trazado 898928" d="M4.31,50.633H27.77a.8.8,0,0,0,.34-.079.722.722,0,0,0,.08-.054.807.807,0,0,0,.2-.163c.011-.013.029-.018.039-.033l4.452-5.982H47.959a.817.817,0,0,0,.817-.817V2.45a.817.817,0,0,0-.817-.817H32.467c-.021,0-.038.011-.059.012a.821.821,0,0,0-.159.032.849.849,0,0,0-.145.051.76.76,0,0,0-.123.083.741.741,0,0,0-.125.112c-.013.015-.031.023-.043.039L27.361,7.945H4.31a.817.817,0,0,0-.817.817V49.817a.817.817,0,0,0,.817.817Zm27.34-7.4-3.062,4.116V9.032l3.063-4.116V43.234ZM33.282,3.267H47.14V42.689H33.282ZM5.126,9.578H26.953V49H5.126Z" fill="#017301"/>
        <path id="Trazado_898929" data-name="Trazado 898929" d="M7.455,11.407a.817.817,0,0,0-.817.817v1.686a.817.817,0,0,0,1.633,0V12.224a.817.817,0,0,0-.817-.817Z" fill="#017301"/>
        <path id="Trazado_898930" data-name="Trazado 898930" d="M7.455,17.835a.817.817,0,0,0-.817.817V46.661a.817.817,0,0,0,1.633,0V18.652A.817.817,0,0,0,7.455,17.835Z" fill="#017301"/>
      </g>
    </g>
  </g>
</svg>
