<svg xmlns="http://www.w3.org/2000/svg" xmlns:xlink="http://www.w3.org/1999/xlink" width="84" height="84" viewBox="0 0 84 84">
  <defs>
    <clipPath id="clip-path">
      <rect id="Rectángulo_405718" data-name="Rectángulo 405718" width="49" height="49" transform="translate(-2790 -4833.977)" fill="#017301" stroke="#707070" stroke-width="1"/>
    </clipPath>
  </defs>
  <g id="Grupo_1108961" data-name="Grupo 1108961" transform="translate(2808 4851.977)">
    <path id="Trazado_898910" data-name="Trazado 898910" d="M42,0A42,42,0,1,1,0,42,42,42,0,0,1,42,0Z" transform="translate(-2808 -4851.977)" fill="#fff"/>
    <g id="Enmascarar_grupo_1098726" data-name="Enmascarar grupo 1098726" clip-path="url(#clip-path)">
      <g id="alambre-de-espino" transform="translate(-2790 -4833.977)">
        <path id="Trazado_898931" data-name="Trazado 898931" d="M4.4,13.272H0V8.966H24.5V10.4H1.436v1.436H4.4Z" fill="#017301"/>
        <path id="Línea_583" data-name="Línea 583" d="M16.618.718H0V-.718H16.618Z" transform="translate(5.838 12.555)" fill="#017301"/>
        <path id="Trazado_898932" data-name="Trazado 898932" d="M49,13.272H42.321V11.837h5.243V10.4H44.6V8.966H49Z" fill="#017301"/>
        <path id="Trazado_898933" data-name="Trazado 898933" d="M40.257,14.741a2.153,2.153,0,0,1-1.523-3.676l2.938-2.938a2.153,2.153,0,1,1,3.045,3.045L41.78,14.111A2.139,2.139,0,0,1,40.257,14.741ZM43.2,8.932a.713.713,0,0,0-.508.21L39.75,12.081A.718.718,0,1,0,40.765,13.1L43.7,10.157A.718.718,0,0,0,43.2,8.932Z" fill="#017301"/>
        <path id="Trazado_898934" data-name="Trazado 898934" d="M36.164,14.775A2.153,2.153,0,0,1,34.641,11.1l2.938-2.938a2.153,2.153,0,1,1,3.045,3.045l-2.938,2.938A2.139,2.139,0,0,1,36.164,14.775ZM39.1,8.966a.713.713,0,0,0-.508.21l-2.938,2.938a.718.718,0,0,0,1.015,1.015l2.938-2.938A.718.718,0,0,0,39.1,8.966Z" fill="#017301"/>
        <path id="Trazado_898935" data-name="Trazado 898935" d="M32.07,14.809a2.153,2.153,0,0,1-1.523-3.676l2.938-2.938A2.153,2.153,0,0,1,36.53,11.24l-2.938,2.938A2.139,2.139,0,0,1,32.07,14.809ZM35.008,9a.713.713,0,0,0-.508.21l-2.938,2.938a.718.718,0,1,0,1.015,1.015l2.938-2.938A.718.718,0,0,0,35.008,9Z" fill="#017301"/>
        <path id="Trazado_898936" data-name="Trazado 898936" d="M27.976,14.842a2.153,2.153,0,0,1-1.523-3.676l2.938-2.938a2.153,2.153,0,1,1,3.045,3.045L29.5,14.211A2.139,2.139,0,0,1,27.976,14.842Zm2.938-5.809a.713.713,0,0,0-.508.21l-2.938,2.938A.718.718,0,1,0,28.483,13.2l2.938-2.938a.718.718,0,0,0-.508-1.225Z" fill="#017301"/>
        <path id="Trazado_898937" data-name="Trazado 898937" d="M23.882,14.876A2.153,2.153,0,0,1,22.359,11.2L25.3,8.262a2.153,2.153,0,1,1,3.045,3.045L25.4,14.245A2.139,2.139,0,0,1,23.882,14.876ZM26.82,9.066a.713.713,0,0,0-.508.21l-2.938,2.938a.718.718,0,1,0,1.015,1.015l2.938-2.938a.718.718,0,0,0-.508-1.225Z" fill="#017301"/>
        <path id="Línea_584" data-name="Línea 584" d="M2.21,3.366-.52.495.52-.495,3.25,2.376Z" transform="translate(22.16 6.812)" fill="#017301"/>
        <path id="Línea_585" data-name="Línea 585" d="M1.842,2.857-.508.508.508-.508l2.35,2.35Z" transform="translate(42.321 12.555)" fill="#017301"/>
        <path id="Trazado_898938" data-name="Trazado 898938" d="M13.016,40.543H0V36.236H24.5v1.436H1.436v1.436h11.58Z" fill="#017301"/>
        <path id="Línea_586" data-name="Línea 586" d="M8.005.718H0V-.718H8.005Z" transform="translate(14.451 39.825)" fill="#017301"/>
        <path id="Trazado_898939" data-name="Trazado 898939" d="M49,40.543H42.321V39.107h5.243V37.672H44.6V36.236H49Z" fill="#017301"/>
        <path id="Trazado_898940" data-name="Trazado 898940" d="M40.257,42.012a2.153,2.153,0,0,1-1.523-3.676L41.673,35.4a2.153,2.153,0,1,1,3.045,3.045L41.78,41.381A2.139,2.139,0,0,1,40.257,42.012ZM43.2,36.2a.713.713,0,0,0-.508.21L39.75,39.351a.718.718,0,1,0,1.015,1.015L43.7,37.428A.718.718,0,0,0,43.2,36.2Z" fill="#017301"/>
        <path id="Trazado_898941" data-name="Trazado 898941" d="M36.164,42.045a2.153,2.153,0,0,1-1.523-3.676l2.938-2.938a2.153,2.153,0,1,1,3.045,3.045l-2.938,2.938A2.139,2.139,0,0,1,36.164,42.045ZM39.1,36.236a.713.713,0,0,0-.508.21l-2.938,2.938A.718.718,0,0,0,36.671,40.4l2.938-2.938a.718.718,0,0,0-.508-1.225Z" fill="#017301"/>
        <path id="Trazado_898942" data-name="Trazado 898942" d="M32.07,42.079A2.153,2.153,0,0,1,30.547,38.4l2.938-2.938A2.153,2.153,0,0,1,36.53,38.51l-2.938,2.938A2.139,2.139,0,0,1,32.07,42.079Zm2.938-5.809a.713.713,0,0,0-.508.21l-2.938,2.938a.718.718,0,1,0,1.015,1.015l2.938-2.938a.718.718,0,0,0-.508-1.225Z" fill="#017301"/>
        <path id="Trazado_898943" data-name="Trazado 898943" d="M27.976,42.113a2.153,2.153,0,0,1-1.523-3.676L29.391,35.5a2.153,2.153,0,0,1,3.045,3.045L29.5,41.482A2.139,2.139,0,0,1,27.976,42.113ZM30.914,36.3a.713.713,0,0,0-.508.21l-2.938,2.938a.718.718,0,1,0,1.015,1.015l2.938-2.938a.718.718,0,0,0-.508-1.225Z" fill="#017301"/>
        <path id="Trazado_898944" data-name="Trazado 898944" d="M23.882,42.146a2.153,2.153,0,0,1-1.523-3.676L25.3,35.532a2.153,2.153,0,1,1,3.045,3.045L25.4,41.515A2.139,2.139,0,0,1,23.882,42.146Zm2.938-5.809a.713.713,0,0,0-.508.21l-2.938,2.938A.718.718,0,0,0,24.389,40.5l2.938-2.938a.718.718,0,0,0-.508-1.225Z" fill="#017301"/>
        <path id="Línea_587" data-name="Línea 587" d="M2.21,3.366-.52.495.52-.495,3.25,2.376Z" transform="translate(22.16 34.083)" fill="#017301"/>
        <path id="Línea_588" data-name="Línea 588" d="M1.842,2.857-.508.508.508-.508l2.35,2.35Z" transform="translate(42.321 39.825)" fill="#017301"/>
        <path id="Trazado_898945" data-name="Trazado 898945" d="M4.927,26.192H0V21.886H6.971v1.436H1.436v1.436H4.927Z" fill="#017301"/>
        <path id="Trazado_898946" data-name="Trazado 898946" d="M49,26.192H24.792V24.757H47.564V23.321h-20.5V21.886H49Z" fill="#017301"/>
        <path id="Trazado_898947" data-name="Trazado 898947" d="M22.728,27.661a2.153,2.153,0,0,1-1.523-3.676l2.938-2.938a2.153,2.153,0,1,1,3.045,3.045l-2.938,2.938A2.139,2.139,0,0,1,22.728,27.661Zm2.938-5.809a.713.713,0,0,0-.508.21L22.221,25a.718.718,0,1,0,1.015,1.015l2.938-2.938a.718.718,0,0,0-.508-1.225Z" fill="#017301"/>
        <path id="Trazado_898948" data-name="Trazado 898948" d="M18.635,27.695a2.153,2.153,0,0,1-1.523-3.676l2.938-2.938A2.153,2.153,0,0,1,23.1,24.126l-2.938,2.938A2.139,2.139,0,0,1,18.635,27.695Zm2.938-5.809a.713.713,0,0,0-.508.21l-2.938,2.938a.718.718,0,0,0,1.015,1.015l2.938-2.938a.718.718,0,0,0-.508-1.225Z" fill="#017301"/>
        <path id="Trazado_898949" data-name="Trazado 898949" d="M14.541,27.728a2.153,2.153,0,0,1-1.523-3.676l2.938-2.938A2.153,2.153,0,0,1,19,24.16L16.063,27.1A2.139,2.139,0,0,1,14.541,27.728Zm2.938-5.809a.713.713,0,0,0-.508.21l-2.938,2.938a.718.718,0,1,0,1.015,1.015l2.938-2.938a.718.718,0,0,0-.508-1.225Z" fill="#017301"/>
        <path id="Trazado_898950" data-name="Trazado 898950" d="M10.447,27.762a2.153,2.153,0,0,1-1.523-3.676l2.938-2.938a2.153,2.153,0,1,1,3.045,3.045l-2.938,2.938A2.139,2.139,0,0,1,10.447,27.762Zm2.938-5.809a.713.713,0,0,0-.508.21L9.939,25.1a.718.718,0,1,0,1.015,1.015l2.938-2.938a.718.718,0,0,0-.508-1.225Z" fill="#017301"/>
        <path id="Trazado_898951" data-name="Trazado 898951" d="M6.353,27.8A2.153,2.153,0,0,1,4.83,24.12l2.938-2.938a2.153,2.153,0,1,1,3.045,3.045L7.875,27.165A2.139,2.139,0,0,1,6.353,27.8Zm2.938-5.809a.713.713,0,0,0-.508.21L5.845,25.135A.718.718,0,1,0,6.86,26.15L9.8,23.212a.718.718,0,0,0-.508-1.225Z" fill="#017301"/>
        <path id="Línea_589" data-name="Línea 589" d="M2.21,3.366-.52.495.52-.495,3.25,2.376Z" transform="translate(4.631 19.732)" fill="#017301"/>
        <path id="Línea_590" data-name="Línea 590" d="M1.842,2.857-.508.508.508-.508l2.35,2.35Z" transform="translate(24.792 25.474)" fill="#017301"/>
      </g>
    </g>
  </g>
</svg>
