<svg xmlns="http://www.w3.org/2000/svg" xmlns:xlink="http://www.w3.org/1999/xlink" width="84" height="84" viewBox="0 0 84 84">
  <defs>
    <clipPath id="clip-path">
      <rect id="Rectángulo_405723" data-name="Rectángulo 405723" width="49" height="49" transform="translate(-2437 -4834.307)" fill="#017301" stroke="#707070" stroke-width="1"/>
    </clipPath>
  </defs>
  <g id="Grupo_1108962" data-name="Grupo 1108962" transform="translate(2454 4851.977)">
    <path id="Trazado_898911" data-name="Trazado 898911" d="M42,0A42,42,0,1,1,0,42,42,42,0,0,1,42,0Z" transform="translate(-2454 -4851.977)" fill="#fff"/>
    <g id="Enmascarar_grupo_1098727" data-name="Enmascarar grupo 1098727" clip-path="url(#clip-path)">
      <g id="atomos" transform="translate(-2437 -4834.307)">
        <g id="Grupo_1107988" data-name="Grupo 1107988">
          <g id="Grupo_1107987" data-name="Grupo 1107987">
            <path id="Trazado_898931" data-name="Trazado 898931" d="M27.079,17.846h.774v.774a.774.774,0,1,0,1.547,0v-.774h.774a.774.774,0,0,0,0-1.547H29.4v-.774a.774.774,0,1,0-1.547,0V16.3h-.774a.774.774,0,0,0,0,1.547Z" fill="#017301"/>
            <path id="Trazado_898932" data-name="Trazado 898932" d="M47.728,19.577a.774.774,0,0,0-.627.9A22.974,22.974,0,0,1,24.5,47.453a22.809,22.809,0,0,1-12.313-3.579,5.711,5.711,0,1,0-1.342.971A24.5,24.5,0,0,0,49,24.5a24.721,24.721,0,0,0-.376-4.3A.773.773,0,0,0,47.728,19.577ZM8.2,43.945a4.178,4.178,0,1,1,4.178-4.178A4.183,4.183,0,0,1,8.2,43.945Z" fill="#017301"/>
            <path id="Trazado_898933" data-name="Trazado 898933" d="M3.263,35.12a.774.774,0,0,0,.379-1.026A22.956,22.956,0,0,1,41.123,8.672a5.759,5.759,0,0,0-2.749,2.35,19.263,19.263,0,0,0-8.423-5.081.774.774,0,0,0-.435,1.485,17.719,17.719,0,0,1,8.2,5.163,5.725,5.725,0,1,0,5.554-4.336q-.213,0-.423.016A24.5,24.5,0,0,0,2.237,34.741a.773.773,0,0,0,1.026.379ZM43.275,9.8A4.178,4.178,0,1,1,39.1,13.978,4.183,4.183,0,0,1,43.275,9.8Z" fill="#017301"/>
            <path id="Trazado_898934" data-name="Trazado 898934" d="M24.52,42.3h0a17.934,17.934,0,0,1-8.647-2.231.774.774,0,1,0-.75,1.354,19.481,19.481,0,0,0,9.4,2.425h0c.309,0,.623-.008.933-.023a.774.774,0,0,0-.076-1.546C25.093,42.292,24.8,42.3,24.52,42.3Z" fill="#017301"/>
            <path id="Trazado_898935" data-name="Trazado 898935" d="M40.67,31.937a.774.774,0,1,0,1.406.645A19.375,19.375,0,0,0,43.7,22.1a.774.774,0,0,0-1.535.192,17.913,17.913,0,0,1-1.492,9.645Z" fill="#017301"/>
            <path id="Trazado_898936" data-name="Trazado 898936" d="M9.748,38.994H6.654a.774.774,0,0,0,0,1.547H9.748a.774.774,0,0,0,0-1.547Z" fill="#017301"/>
            <path id="Trazado_898937" data-name="Trazado 898937" d="M41.727,14.752h3.095a.774.774,0,1,0,0-1.547H41.727a.774.774,0,0,0,0,1.547Z" fill="#017301"/>
            <path id="Trazado_898938" data-name="Trazado 898938" d="M29.4,33.475V32.7h.774a.774.774,0,1,0,0-1.547H29.4V30.38a.774.774,0,0,0-1.547,0v.774h-.774a.774.774,0,0,0,0,1.547h.774v.774a.774.774,0,0,0,1.547,0Z" fill="#017301"/>
            <path id="Trazado_898939" data-name="Trazado 898939" d="M11.653,11.069a.774.774,0,0,0-1.094.02,19.308,19.308,0,0,0-4.934,9.187q-.02.09-.039.18a.774.774,0,1,0,1.513.323c.012-.055.024-.11.036-.165a17.76,17.76,0,0,1,4.538-8.452A.774.774,0,0,0,11.653,11.069Z" fill="#017301"/>
            <path id="Trazado_898940" data-name="Trazado 898940" d="M34.352,31.927a5.7,5.7,0,0,0-.306-1.848,5.728,5.728,0,0,0,0-11.158A5.724,5.724,0,0,0,24.5,13.106a5.726,5.726,0,0,0-9.547,5.816,5.726,5.726,0,0,0,0,11.156A5.725,5.725,0,0,0,24.5,35.894a5.723,5.723,0,0,0,9.85-3.966ZM36.93,24.5a4.163,4.163,0,0,1-3.619,4.141A5.741,5.741,0,0,0,29.92,26.35a5.686,5.686,0,0,0,.3-1.85,5.749,5.749,0,0,0-.306-1.849,5.741,5.741,0,0,0,3.393-2.292A4.174,4.174,0,0,1,36.93,24.5Zm-8.3-11.605a4.178,4.178,0,1,1-4.178,4.178A4.183,4.183,0,0,1,28.626,12.895Zm-8.253,0a4.2,4.2,0,0,1,3.2,1.49,5.725,5.725,0,0,0-.365,4.536,5.686,5.686,0,0,0-2.836,1.611,5.711,5.711,0,0,0-3.81-1.749,4.18,4.18,0,0,1,3.813-5.889ZM12.07,24.5a4.178,4.178,0,1,1,4.178,4.178A4.183,4.183,0,0,1,12.07,24.5Zm8.3,11.605a4.18,4.18,0,0,1-3.813-5.889,5.711,5.711,0,0,0,3.81-1.749,5.681,5.681,0,0,0,2.836,1.611,5.725,5.725,0,0,0,.365,4.536A4.2,4.2,0,0,1,20.374,36.105Zm.928-8.917a5.718,5.718,0,0,0,0-5.377,4.153,4.153,0,0,1,2.639-1.453,5.726,5.726,0,0,0,4.372,2.43,4.191,4.191,0,0,1,.365,1.711,4.135,4.135,0,0,1-.365,1.711,5.725,5.725,0,0,0-4.372,2.43A4.149,4.149,0,0,1,21.3,27.188Zm3.147,4.739a4.178,4.178,0,1,1,4.178,4.178A4.183,4.183,0,0,1,24.448,31.927Z" fill="#017301"/>
            <path id="Trazado_898941" data-name="Trazado 898941" d="M17.021,26.047v-.774h.774a.774.774,0,1,0,0-1.547h-.774v-.774a.774.774,0,1,0-1.547,0v.774H14.7a.774.774,0,0,0,0,1.547h.774v.774a.774.774,0,0,0,1.547,0Z" fill="#017301"/>
            <path id="Trazado_898942" data-name="Trazado 898942" d="M30.285,42.921a.778.778,0,0,0,.242-.039,19.39,19.39,0,0,0,8.787-5.939.774.774,0,0,0-1.184-1,17.843,17.843,0,0,1-8.086,5.466.774.774,0,0,0,.242,1.509Z" fill="#017301"/>
            <path id="Trazado_898943" data-name="Trazado 898943" d="M5.913,24.785a.774.774,0,0,0-.729.816,19.237,19.237,0,0,0,1.273,5.873A.774.774,0,0,0,7.9,30.915a17.687,17.687,0,0,1-1.17-5.4A.774.774,0,0,0,5.913,24.785Z" fill="#017301"/>
            <path id="Trazado_898944" data-name="Trazado 898944" d="M15,9.321a.77.77,0,0,0,.4-.109A17.768,17.768,0,0,1,24.483,6.7q.169,0,.339,0a.774.774,0,0,0,.03-1.547q-.184,0-.368,0A19.315,19.315,0,0,0,14.6,7.883.774.774,0,0,0,15,9.321Z" fill="#017301"/>
          </g>
        </g>
      </g>
    </g>
  </g>
</svg>
