<svg xmlns="http://www.w3.org/2000/svg" xmlns:xlink="http://www.w3.org/1999/xlink" width="84" height="84" viewBox="0 0 84 84">
  <defs>
    <clipPath id="clip-path">
      <rect id="Rectángulo_405726" data-name="Rectángulo 405726" width="49" height="49" transform="translate(-2089.465 -4834.307)" fill="#017301" stroke="#707070" stroke-width="1"/>
    </clipPath>
  </defs>
  <g id="Grupo_1108963" data-name="Grupo 1108963" transform="translate(2106.465 4851.977)">
    <path id="Trazado_898912" data-name="Trazado 898912" d="M42,0A42,42,0,1,1,0,42,42,42,0,0,1,42,0Z" transform="translate(-2106.465 -4851.977)" fill="#fff"/>
    <g id="Enmascarar_grupo_1098728" data-name="Enmascarar grupo 1098728" clip-path="url(#clip-path)">
      <g id="reaccion-quimica" transform="translate(-2090.255 -4835.102)">
        <path id="Trazado_898945" data-name="Trazado 898945" d="M48.734,2.034l-1.009-.673a3.456,3.456,0,0,0-3.772,0L37.7,5.532H32.4a1.582,1.582,0,0,0-1.581-1.581H29.242a1.582,1.582,0,0,0-1.581,1.581V10.42a2.368,2.368,0,0,0-1.581,2.226v5.532h1.581V12.645a.779.779,0,0,1,.077-.329,1.578,1.578,0,0,0,1.5,1.119h1.581A1.582,1.582,0,0,0,32.4,11.855H37.7l6.256,4.171a3.4,3.4,0,0,0,3.773,0l1.009-.673A2.365,2.365,0,0,0,49.79,13.38V4.007a2.368,2.368,0,0,0-1.056-1.973ZM30.823,11.855H29.242V5.532h1.581ZM32.4,10.274V7.113h1.581V8.694h1.581V7.113h1.581V8.694h1.581V6.745l6.1-4.069a1.849,1.849,0,0,1,2.019,0l1.009.673a.788.788,0,0,1,.352.657V8.782a3.57,3.57,0,0,0-1.567.892,1.774,1.774,0,0,1-2.659,0,3.327,3.327,0,0,0-4.717,0,1.787,1.787,0,0,1-1.33.6Zm15.455,3.764-1.009.673a1.849,1.849,0,0,1-2.019,0l-5.094-3.4a6.536,6.536,0,0,0,.56-.439,1.773,1.773,0,0,1,2.659,0,3.325,3.325,0,0,0,4.716,0,3.509,3.509,0,0,1,.538-.4v2.91A.788.788,0,0,1,47.858,14.038Z" fill="#017301"/>
        <path id="Trazado_898946" data-name="Trazado 898946" d="M4.742,11.855H18.177a1.582,1.582,0,0,0,1.581,1.581h1.581a1.578,1.578,0,0,0,1.5-1.119.779.779,0,0,1,.077.329v5.532H24.5V12.645a2.368,2.368,0,0,0-1.581-2.226V3.952a1.582,1.582,0,0,0-1.581-1.581H19.758a1.582,1.582,0,0,0-1.581,1.581H4.742a3.952,3.952,0,0,0,0,7.9Zm15.016-7.9h1.581v7.9H19.758ZM4.742,5.532h.79V8.694H7.113V5.532H8.694V7.113h1.581V5.532h1.581V8.694h1.581V5.532h1.581V7.113H16.6V5.532h1.581v4.742H4.742a2.371,2.371,0,1,1,0-4.742Z" fill="#017301"/>
        <path id="Trazado_898947" data-name="Trazado 898947" d="M26.871,41.887a2.371,2.371,0,1,0,2.371,2.371A2.374,2.374,0,0,0,26.871,41.887Zm0,3.161a.79.79,0,1,1,.79-.79A.792.792,0,0,1,26.871,45.048Z" fill="#017301"/>
        <path id="Trazado_898948" data-name="Trazado 898948" d="M28.452,33.984a2.371,2.371,0,1,0,2.371,2.371A2.374,2.374,0,0,0,28.452,33.984Zm0,3.161a.79.79,0,1,1,.79-.79A.792.792,0,0,1,28.452,37.145Z" fill="#017301"/>
        <path id="Trazado_898949" data-name="Trazado 898949" d="M2.371,18.968A5.532,5.532,0,1,0,7.9,13.435,5.538,5.538,0,0,0,2.371,18.968Zm9.484,0A3.952,3.952,0,1,1,7.9,15.016,3.956,3.956,0,0,1,11.855,18.968Z" fill="#017301"/>
        <path id="Trazado_898950" data-name="Trazado 898950" d="M7.9,18.177a.792.792,0,0,1,.79.79h1.581A2.374,2.374,0,0,0,7.9,16.6Z" fill="#017301"/>
        <path id="Trazado_898951" data-name="Trazado 898951" d="M12.645,41.887a2.371,2.371,0,1,0,2.371,2.371A2.374,2.374,0,0,0,12.645,41.887Zm0,3.161a.79.79,0,1,1,.79-.79A.792.792,0,0,1,12.645,45.048Z" fill="#017301"/>
        <path id="Trazado_898952" data-name="Trazado 898952" d="M47.016,40.754a3.94,3.94,0,0,0-3.6-6.676,5.538,5.538,0,0,0-4.979-4.811,4.728,4.728,0,0,0-4.456-6.348,4.784,4.784,0,0,0-.859.077,3.942,3.942,0,0,0-2.3-6.32v-1.66H29.242v4.742h1.581V18.323a2.36,2.36,0,0,1,1,3.782,4.727,4.727,0,0,0-6.528,1.359,4.727,4.727,0,0,0-6.528-1.359,2.36,2.36,0,0,1,1-3.782v1.435h1.581V15.016H19.758v1.66a3.942,3.942,0,0,0-2.3,6.32,4.747,4.747,0,0,0-5.6,4.664,4.709,4.709,0,0,0,.286,1.606,5.537,5.537,0,0,0-4.979,4.811,3.942,3.942,0,0,0-3.6,6.676A4.73,4.73,0,0,0,5.532,49.79H45.048a4.73,4.73,0,0,0,1.968-9.037Zm-.387-2.818a2.364,2.364,0,0,1-.846,1.815,5.536,5.536,0,0,0-3.776-2.524,2.364,2.364,0,0,1,4.622.709ZM29.242,22.919A3.164,3.164,0,0,1,32.4,26.081h1.581a4.7,4.7,0,0,0-.268-1.556c.089-.008.177-.024.268-.024a3.151,3.151,0,0,1,1.581,5.883V29.242a1.582,1.582,0,0,0-1.581-1.581h-7.9V26.081A3.164,3.164,0,0,1,29.242,22.919ZM16.6,32.549V37a2.357,2.357,0,0,1,0-4.45Zm0-1.726V29.242H33.984v1.581H16.6Zm17.387,1.726a2.357,2.357,0,0,1,0,4.451ZM16.6,24.5c.091,0,.179.017.268.024a4.7,4.7,0,0,0-.268,1.556h1.581a3.161,3.161,0,1,1,6.323,0v1.581H16.6a1.582,1.582,0,0,0-1.581,1.581v1.141A3.151,3.151,0,0,1,16.6,24.5ZM6.323,35.565a2.355,2.355,0,0,1,2.242,1.664A5.535,5.535,0,0,0,4.8,39.752a2.372,2.372,0,0,1,1.525-4.187ZM2.371,45.048a3.168,3.168,0,0,1,1.6-2.742c-.009.123-.019.246-.019.371a5.591,5.591,0,0,0,.077.922l1.559-.262a3.891,3.891,0,0,1-.055-.659,3.953,3.953,0,0,1,5.927-3.424l.792-1.367a5.518,5.518,0,0,0-2.052-.694,3.942,3.942,0,0,0-1.5-2.4c0-.007,0-.014,0-.021a3.847,3.847,0,0,1,4.416-3.911,4.769,4.769,0,0,0,1.506,1.1A3.947,3.947,0,0,0,16.6,38.646v7.193a3.911,3.911,0,0,0,.811,2.371H5.532a3.164,3.164,0,0,1-3.161-3.161ZM20.548,48.21a2.374,2.374,0,0,1-2.371-2.371v-.79h3.161V43.468H18.177V41.887h4.742V40.306H18.177V38.726h3.161V37.145H18.177V35.565h4.742V33.984H18.177V32.4H32.4V45.839a2.374,2.374,0,0,1-2.371,2.371Zm24.5,0H33.173a3.911,3.911,0,0,0,.811-2.371V38.646a3.947,3.947,0,0,0,1.981-6.682,4.745,4.745,0,0,0,1.506-1.1,3.847,3.847,0,0,1,4.416,3.911c0,.007,0,.014,0,.021a3.945,3.945,0,0,0-1.5,2.4,5.518,5.518,0,0,0-2.052.694l.792,1.367a3.955,3.955,0,0,1,5.872,4.083l1.559.262a5.678,5.678,0,0,0,.076-.922c0-.126-.01-.248-.019-.371a3.157,3.157,0,0,1-1.562,5.9Z" fill="#017301"/>
        <path id="Trazado_898953" data-name="Trazado 898953" d="M37.935,41.887a2.371,2.371,0,1,0,2.371,2.371A2.374,2.374,0,0,0,37.935,41.887Zm0,3.161a.79.79,0,1,1,.79-.79A.792.792,0,0,1,37.935,45.048Z" fill="#017301"/>
        <path id="Trazado_898954" data-name="Trazado 898954" d="M45.839,22.129a3.952,3.952,0,1,0,3.952,3.952A3.956,3.956,0,0,0,45.839,22.129Zm0,6.323a2.371,2.371,0,1,1,2.371-2.371A2.374,2.374,0,0,1,45.839,28.452Z" fill="#017301"/>
        <path id="Trazado_898955" data-name="Trazado 898955" d="M40.306,18.968a2.371,2.371,0,1,0-2.371,2.371A2.374,2.374,0,0,0,40.306,18.968Zm-3.161,0a.79.79,0,1,1,.79.79A.792.792,0,0,1,37.145,18.968Z" fill="#017301"/>
      </g>
    </g>
  </g>
</svg>
