<svg xmlns="http://www.w3.org/2000/svg" xmlns:xlink="http://www.w3.org/1999/xlink" width="184.932" height="216.967" viewBox="0 0 184.932 216.967">
  <defs>
    <clipPath id="clip-path">
      <rect id="Rectángulo_405081" data-name="Rectángulo 405081" width="179.881" height="204.396" fill="none"/>
    </clipPath>
  </defs>
  <g id="Grupo_1107982" data-name="Grupo 1107982" transform="translate(-705 -920)">
    <g id="Grupo_1106795" data-name="Grupo 1106795" transform="translate(710.051 920)">
      <g id="Grupo_1106794" data-name="Grupo 1106794" clip-path="url(#clip-path)">
        <path id="Trazado_890718" data-name="Trazado 890718" d="M160.674,382.6c.088-6.459.354-30.056-.264-41.811a126.682,126.682,0,0,0-4.806-26.914l-110.3-5.767-3.124,7.93c-2.862,7.265-1.287,58.1-1,66.561Z" transform="translate(-9.176 -69.817)" fill="#92e3a9"/>
        <path id="Trazado_890719" data-name="Trazado 890719" d="M160.56,382.87H41.068a.387.387,0,0,1-.387-.374c-.332-9.862-1.841-59.431,1.029-66.717l3.124-7.93a.38.38,0,0,1,.38-.244l110.3,5.767a.384.384,0,0,1,.349.271,128.163,128.163,0,0,1,4.824,27.007c.614,11.669.358,34.972.265,41.836a.387.387,0,0,1-.387.381M41.441,382.1H160.178c.1-7.3.333-29.965-.268-41.4a127.22,127.22,0,0,0-4.713-26.562L45.451,308.393l-3.022,7.671c-2.821,7.162-1.237,58.468-.988,66.033" transform="translate(-9.061 -69.703)" fill="#263238"/>
        <path id="Trazado_890720" data-name="Trazado 890720" d="M80.828,107.449s-5.422,1.084-6.291,3.687-.216,3.9-.216,3.9-19.087-.65-25.811.434S37.449,124.8,37.449,124.8l-14.1,33.836S8.385,185.748,7.735,190.086s9.977,8.025,19.954,8.676a106.376,106.376,0,0,1,19.738,3.47s3.253,12.146-6.074,34.269-11.929,34.486-11.929,34.486,23.858,13.664,33.4,16.918,11.5,2.82,11.5,2.82l5.422-12.364,1.518,12.8s29.281,1.951,45.547-1.736a55.271,55.271,0,0,0,26.028-14.1s-10.194-50.32-9.543-59.863,13.446-79.384,10.845-85.24-31.45-11.062-31.45-11.062,1.517-3.9-.652-5.422-18.653-2.82-18.653-2.82Z" transform="translate(-1.746 -24.348)" fill="#fff"/>
        <path id="Trazado_890721" data-name="Trazado 890721" d="M98.577,291.94c-9.629,0-17.306-.5-17.455-.507a.387.387,0,0,1-.358-.341l-1.351-11.384-4.852,11.061a.387.387,0,0,1-.271.222c-.212.043-2.328.365-11.7-2.831-9.469-3.229-33.23-16.812-33.469-16.949a.385.385,0,0,1-.186-.415c.026-.125,2.718-12.653,11.951-34.558,8.5-20.161,6.465-32.1,6.1-33.808a106.679,106.679,0,0,0-19.437-3.4c-7.488-.488-16.573-2.85-19.449-6.419a3.426,3.426,0,0,1-.862-2.7c.654-4.357,15.048-30.47,15.661-31.58l14.079-33.8c.2-.375,4.522-8.457,11.358-9.56,6.132-.988,22.142-.555,25.347-.456a7.031,7.031,0,0,1,.374-3.623c.928-2.783,6.351-3.9,6.582-3.944a.408.408,0,0,1,.134,0l22.557,3.47c.649.05,16.586,1.325,18.816,2.886,1.956,1.368,1.285,4.318.939,5.439,3.789.706,28.787,5.564,31.293,11.2,1.79,4.026-3.188,35.467-7.186,60.731-1.831,11.567-3.412,21.556-3.626,24.693-.64,9.382,9.435,59.257,9.537,59.759a.389.389,0,0,1-.1.342,56.184,56.184,0,0,1-26.224,14.21c-7.9,1.792-18.955,2.251-28.2,2.251m-17.084-1.259c3.232.194,30,1.681,45.117-1.746A55.613,55.613,0,0,0,152.3,275.09c-.8-3.954-10.143-50.488-9.51-59.767.217-3.17,1.724-12.7,3.633-24.76,3.561-22.49,8.941-56.479,7.244-60.3-2.49-5.6-30.879-10.786-31.165-10.838a.388.388,0,0,1-.292-.52c.014-.036,1.381-3.64-.513-4.966-1.708-1.2-13.9-2.391-18.461-2.751L80.725,107.73c-.6.131-5.2,1.2-5.934,3.416-.8,2.387-.242,3.6-.237,3.613a.387.387,0,0,1-.025.38.406.406,0,0,1-.336.176c-.19-.005-19.126-.637-25.736.43-6.452,1.04-10.739,9.043-10.781,9.125l-14.083,33.8C23.426,158.98,8.636,185.811,8,190.03a2.688,2.688,0,0,0,.7,2.1c2.377,2.949,10.5,5.585,18.9,6.132a107.817,107.817,0,0,1,19.82,3.485.388.388,0,0,1,.267.271c.032.123,3.18,12.529-6.091,34.519-8.452,20.05-11.4,32.2-11.845,34.143,2.562,1.458,24.207,13.719,33.086,16.746,7.782,2.654,10.419,2.851,11.11,2.819l5.33-12.152a.387.387,0,0,1,.738.11Z" transform="translate(-1.633 -24.235)" fill="#263238"/>
        <path id="Trazado_890722" data-name="Trazado 890722" d="M59.718,166.156a.387.387,0,0,1-.384-.342l-2.388-20.536a.387.387,0,0,1,.769-.089L60.1,165.724a.388.388,0,0,1-.34.429l-.046,0" transform="translate(-12.903 -32.822)" fill="#263238"/>
        <path id="Trazado_890723" data-name="Trazado 890723" d="M85.1,138.87a.386.386,0,0,1-.384-.344c-.48-4.314,2.277-16.335,2.4-16.845a.387.387,0,1,1,.753.174c-.029.123-2.845,12.4-2.38,16.586a.387.387,0,0,1-.341.427l-.044,0" transform="translate(-19.184 -27.505)" fill="#263238"/>
        <path id="Trazado_890724" data-name="Trazado 890724" d="M32.442,210.747a.387.387,0,0,1-.341-.2,26.853,26.853,0,0,0-8.928-9.4.387.387,0,0,1,.391-.667,27.094,27.094,0,0,1,9.218,9.7.385.385,0,0,1-.156.524.4.4,0,0,1-.183.046" transform="translate(-5.208 -45.415)" fill="#263238"/>
        <path id="Trazado_890725" data-name="Trazado 890725" d="M52.038,170.469a.386.386,0,0,1-.312-.158c-5.121-6.984-13.576-9.863-13.66-9.892a.386.386,0,1,1,.244-.733c.087.029,8.774,2.988,14.039,10.167a.387.387,0,0,1-.083.541.383.383,0,0,1-.229.075" transform="translate(-8.566 -36.18)" fill="#263238"/>
        <path id="Trazado_890726" data-name="Trazado 890726" d="M60.633,172.8a.387.387,0,0,1-.37-.5l4.349-14.133a.386.386,0,1,1,.739.227L61,172.526a.387.387,0,0,1-.37.273" transform="translate(-13.652 -35.778)" fill="#263238"/>
        <path id="Trazado_890727" data-name="Trazado 890727" d="M78.893,268.731A.387.387,0,0,1,78.71,268l26.811-14.418a.386.386,0,0,1,.365.681L79.075,268.685a.388.388,0,0,1-.183.046" transform="translate(-17.789 -57.452)" fill="#263238"/>
        <path id="Trazado_890728" data-name="Trazado 890728" d="M70.526,277.011a.387.387,0,0,1-.183-.727l2.817-1.515a.386.386,0,1,1,.366.681l-2.818,1.515a.388.388,0,0,1-.183.046" transform="translate(-15.893 -62.252)" fill="#263238"/>
        <path id="Trazado_890729" data-name="Trazado 890729" d="M84.735,260.837a.387.387,0,0,1-.169-.734l22.607-10.989a.386.386,0,1,1,.338.695L84.9,260.8a.382.382,0,0,1-.169.039" transform="translate(-19.113 -56.44)" fill="#263238"/>
        <path id="Trazado_890730" data-name="Trazado 890730" d="M102.139,171.407a.393.393,0,0,1-.174-.041.388.388,0,0,1-.172-.519c.508-1.014,4.479-4.538,10.918-10.2l1.5-1.317a.387.387,0,1,1,.512.58l-1.5,1.318c-5.282,4.647-10.272,9.037-10.736,9.968a.388.388,0,0,1-.346.213" transform="translate(-23.057 -36.082)" fill="#263238"/>
        <path id="Trazado_890731" data-name="Trazado 890731" d="M123.206,148.4a.387.387,0,0,1-.257-.676c2.725-2.427,4.783-4.3,6.471-5.9a231.237,231.237,0,0,0,16.668-18.183.387.387,0,1,1,.6.49,232.4,232.4,0,0,1-16.735,18.255c-1.7,1.6-3.757,3.483-6.49,5.917a.388.388,0,0,1-.257.1" transform="translate(-27.831 -27.984)" fill="#263238"/>
        <path id="Trazado_890732" data-name="Trazado 890732" d="M92.286,152.671a.386.386,0,0,1-.384-.347c-.648-6.255,1.429-29.455,1.517-30.44a.387.387,0,0,1,.77.07c-.022.24-2.159,24.11-1.519,30.291a.387.387,0,0,1-.344.425l-.041,0" transform="translate(-20.797 -27.539)" fill="#263238"/>
        <path id="Trazado_890733" data-name="Trazado 890733" d="M131.957,12.146A53.374,53.374,0,0,0,122.839,4c-5.21-3.582-6.676-2.279-5.862-1.466a5.416,5.416,0,0,1,1.14,2.28S110.138-.229,106.882.585,105.416,4,105.416,4,92.39,4.655,92.39,7.1a15.544,15.544,0,0,0,.489,4.071s-8.956-.977-8.956.651,2.28,4.234,2.28,4.234-6.839-.489-6.839,1.3,2.117,3.582,2.117,3.582S70.571,25.5,68.292,30.057s3.256,3.582,3.256,3.582-6.838,12.7-5.047,14.491,4.722,0,4.722,0-4.559,10.747-1.3,12.7,6.025-1.14,6.025-1.14S76.6,72.067,79.2,72.881a2.63,2.63,0,0,0,3.419-1.629s.977,4.4,3.257,4.4a5.106,5.106,0,0,0,3.745-2.117s7,8.3,7.816,8.793S134.4,73.858,134.4,73.858s3.582,0,5.048-1.791,3.419-7.49,3.419-7.49,2.442,3.582,2.768,1.14a40.061,40.061,0,0,0,0-6.513s9.118,10.1,10.421,2.768-2.768-15.958-2.768-15.958,5.862.978,5.862-3.094-4.4-12.863-4.4-12.863,6.839.326,3.745-4.4-11.235-6.187-11.235-6.187,3.42-2.93.814-3.257a14.536,14.536,0,0,0-4.234,0s1.791-5.373-1.3-6.187-10.584,2.117-10.584,2.117" transform="translate(-15.001 -0.112)" fill="#263238"/>
        <path id="Trazado_890734" data-name="Trazado 890734" d="M97.355,82.575a.486.486,0,0,1-.22-.031c-.771-.462-5.955-6.558-7.61-8.515a5.2,5.2,0,0,1-3.753,1.895c-1.866,0-2.92-2.394-3.37-3.767a2.92,2.92,0,0,1-3.421.981c-2.467-.771-3.268-9.522-3.48-12.732a5.02,5.02,0,0,1-5.885.645c-2.971-1.782-.326-9.446.768-12.252-1.1.428-2.928.828-4.262-.507-1.753-1.753,2.983-11.166,4.637-14.3-.913.052-2.436-.022-3.139-.964-.558-.749-.483-1.843.221-3.253,2.047-4.093,10.57-8.066,12.842-9.067a5.6,5.6,0,0,1-1.81-3.46,1.1,1.1,0,0,1,.376-.817c1.043-.971,4.367-.977,6-.917-.7-.92-1.821-2.574-1.821-3.8a.844.844,0,0,1,.3-.641c1.175-1.055,6.517-.647,8.531-.452A17.349,17.349,0,0,1,91.9,6.986c0-2.459,9.118-3.236,12.791-3.448a2.583,2.583,0,0,1-.126-1.893A2.766,2.766,0,0,1,106.685.1c2.739-.684,8.41,2.423,10.628,3.732A3.688,3.688,0,0,0,116.6,2.7a.863.863,0,0,1-.145-1.195c.614-.739,2.643-.582,6.5,2.068a54.407,54.407,0,0,1,9.012,8c1.367-.514,7.681-2.8,10.569-2.033a2.533,2.533,0,0,1,1.647,1.285c.8,1.482.368,3.749.094,4.813a16.731,16.731,0,0,1,3.746.08c.707.088,1.136.367,1.274.827.248.823-.668,1.927-1.328,2.589,2.112.487,8.121,2.189,10.75,6.2.9,1.37,1.1,2.507.6,3.382-.76,1.331-2.951,1.575-4.048,1.613.974,2.022,4.163,8.914,4.163,12.477a3.145,3.145,0,0,1-1.087,2.525c-1.305,1.107-3.443,1.111-4.534,1.029.911,2.133,3.643,9.255,2.521,15.565-.286,1.612-.968,2.583-2.027,2.887-2.573.741-6.653-3-8.319-4.686a34.23,34.23,0,0,1-.071,5.527c-.09.674-.35,1.066-.773,1.166-.742.181-1.678-.8-2.258-1.538-.575,1.591-2.043,5.453-3.241,6.917-1.484,1.814-4.833,1.926-5.3,1.932-12.99,3.218-34.47,8.443-36.989,8.443m.129-.728h.02c1.819,0,22.818-5.038,36.7-8.476a.373.373,0,0,1,.093-.012c.034,0,3.418-.022,4.748-1.649,1.406-1.718,3.334-7.315,3.353-7.371a.387.387,0,0,1,.685-.092c.684,1,1.589,1.9,1.882,1.821.025-.005.13-.111.184-.515a40.021,40.021,0,0,0,0-6.431.386.386,0,0,1,.672-.29c1.519,1.681,5.968,5.9,8.274,5.238.751-.216,1.249-.982,1.479-2.279,1.266-7.118-2.7-15.639-2.737-15.724a.388.388,0,0,1,.042-.4.381.381,0,0,1,.372-.148c.031.005,3.1.495,4.6-.778a2.378,2.378,0,0,0,.812-1.934c0-3.933-4.312-12.6-4.355-12.69a.386.386,0,0,1,.022-.384.372.372,0,0,1,.343-.176c.885.036,3.335-.1,3.978-1.224.343-.6.149-1.467-.575-2.575-2.965-4.526-10.9-6-10.98-6.019a.386.386,0,0,1-.183-.674c.9-.77,1.773-1.877,1.647-2.3-.04-.135-.269-.237-.629-.282a14.356,14.356,0,0,0-4.111,0,.387.387,0,0,1-.442-.5c.011-.032,1.025-3.132.128-4.787a1.764,1.764,0,0,0-1.162-.9c-2.935-.77-10.27,2.073-10.344,2.1a.389.389,0,0,1-.435-.109,53.42,53.42,0,0,0-9.044-8.074c-2.8-1.926-4.569-2.443-5.288-2.288a.328.328,0,0,0-.18.08.316.316,0,0,0,.1.152,5.761,5.761,0,0,1,1.244,2.469.387.387,0,0,1-.585.411c-.077-.049-7.877-4.947-10.934-4.185a2.07,2.07,0,0,0-1.583,1.069,2.244,2.244,0,0,0,.343,1.757.388.388,0,0,1-.3.6c-6.088.3-12.659,1.426-12.659,2.708a15.283,15.283,0,0,0,.473,3.959.389.389,0,0,1-.074.359.375.375,0,0,1-.34.137c-2.845-.31-7.664-.53-8.48.2-.022.019-.046.045-.046.065,0,1.215,1.576,3.284,2.183,3.979a.386.386,0,0,1-.318.64c-2.006-.141-5.486-.088-6.3.667a.323.323,0,0,0-.129.251c0,1.589,1.961,3.271,1.98,3.288a.386.386,0,0,1-.1.651c-.107.046-10.8,4.557-12.992,8.935-.563,1.127-.661,1.949-.293,2.444.616.825,2.474.7,3.137.584a.383.383,0,0,1,.381.154.387.387,0,0,1,.028.41C69,38.878,65.574,46.65,66.67,47.745c1.551,1.551,4.22-.04,4.248-.057a.387.387,0,0,1,.557.482c-1.231,2.9-3.893,10.757-1.46,12.217,2.94,1.763,5.434-.95,5.539-1.066a.386.386,0,0,1,.674.237C76.473,64.24,77.5,71.865,79.213,72.4a2.211,2.211,0,0,0,2.937-1.383.376.376,0,0,1,.387-.262.387.387,0,0,1,.357.3c.254,1.139,1.266,4.094,2.879,4.094A4.719,4.719,0,0,0,89.2,73.2a.389.389,0,0,1,.3-.166.373.373,0,0,1,.313.138c2.624,3.111,6.944,8.119,7.671,8.676" transform="translate(-14.897 0)" fill="#263238"/>
        <path id="Trazado_890735" data-name="Trazado 890735" d="M103.98,60.854s-5.374-7.49-9.118-2.768-1.14,12.7,0,14.166,5.048,1.954,5.048,1.954l-2.768,29.472s-1.954,27.192-.163,30.449,2.117,4.07,5.374,1.954,21.818-22.307,24.586-26.7,2.117-12.538,2.117-12.538S141.1,88.861,142.733,83s.652-11.724,3.094-14.98,5.047-9.933,2.768-14.818-9.282-14-9.282-14-3.582,4.885-4.234,4.234-2.6-6.188-2.6-6.188-6.839,9.933-10.258,10.422-.814-6.188-.814-6.188-5.536,9.933-8.141,10.584-3.42-1.14-3.42-1.14-3.256,8.63-5.862,9.933" transform="translate(-21.054 -8.439)" fill="#cfcfcf"/>
        <path id="Trazado_890736" data-name="Trazado 890736" d="M99.594,137.524a1.762,1.762,0,0,1-.429-.051c-.971-.244-1.544-1.288-2.493-3.018l-.142-.255c-1.824-3.319.036-29.549.116-30.663l2.736-29.115c-1.036-.166-3.916-.736-4.934-2.046-1.138-1.463-3.9-9.724,0-14.644a4.023,4.023,0,0,1,3.271-1.708c2.812.068,5.482,3.22,6.249,4.2,1.993-1.4,4.549-7.3,5.4-9.558a.386.386,0,0,1,.713-.023c.029.059.729,1.483,2.974.925,2-.5,6.38-7.675,7.9-10.4a.387.387,0,0,1,.7.329c-.622,1.6-1.34,4.469-.616,5.382.075.1.3.384,1.015.282,2.667-.381,8.118-7.534,9.994-10.258a.392.392,0,0,1,.369-.164.388.388,0,0,1,.315.254,44.33,44.33,0,0,0,2.456,5.973c.569-.214,2.335-2.248,3.706-4.119a.39.39,0,0,1,.308-.158.372.372,0,0,1,.311.151c.287.374,7.053,9.209,9.325,14.076,2.4,5.149-.447,12.064-2.809,15.213-1.362,1.815-1.613,4.524-1.906,7.661A40.519,40.519,0,0,1,143,82.989c-1.555,5.6-12.05,12.855-13.648,13.934.087,1.383.386,8.455-2.191,12.547-2.788,4.429-21.489,24.733-24.7,26.822a5.891,5.891,0,0,1-2.858,1.233M97.627,56.8a3.221,3.221,0,0,0-2.572,1.415c-3.583,4.518-1.024,12.369,0,13.688.853,1.1,3.747,1.677,4.791,1.807a.387.387,0,0,1,.337.42L97.417,103.6c-.541,7.524-1.634,27.637-.21,30.227l.141.256c.848,1.545,1.36,2.477,2,2.64.525.131,1.3-.182,2.678-1.08,3.181-2.067,21.7-22.192,24.471-26.586,2.667-4.234,2.065-12.22,2.059-12.3a.385.385,0,0,1,.172-.353c.119-.079,11.947-7.966,13.518-13.621a39.4,39.4,0,0,0,1.1-7.057c.3-3.253.565-6.063,2.056-8.052,2.254-3.006,4.988-9.579,2.728-14.422-1.963-4.207-7.548-11.7-8.927-13.523-1.087,1.449-3.1,3.963-4.028,4.034a.615.615,0,0,1-.483-.171c-.572-.571-1.855-4-2.445-5.629-1.579,2.21-7.016,9.532-10.091,9.972a1.746,1.746,0,0,1-1.732-.568,4.279,4.279,0,0,1-.333-3.2c-1.87,3.062-4.961,7.682-6.852,8.154a3.345,3.345,0,0,1-3.4-.732c-.826,2.064-3.493,8.343-5.8,9.5a.389.389,0,0,1-.487-.121c-.029-.041-2.978-4.1-5.855-4.168h-.074" transform="translate(-20.945 -8.326)" fill="#263238"/>
        <path id="Trazado_890737" data-name="Trazado 890737" d="M124.438,114.3a14.08,14.08,0,0,1-7.664-2.39c-4.092-2.6-7.946-9.454-8.108-9.745a.387.387,0,1,1,.675-.377c.039.07,3.922,6.97,7.848,9.469,6.784,4.317,12.139,1.471,15.017-.058l.226-.121a.387.387,0,1,1,.363.684l-.225.12a17.039,17.039,0,0,1-8.132,2.418" transform="translate(-24.613 -23.02)" fill="#263238"/>
        <path id="Trazado_890738" data-name="Trazado 890738" d="M136.63,85.973a6.86,6.86,0,0,1-2.4-.4c-2.7-1.014-3.426-2.235-3.456-2.287a.386.386,0,1,1,.671-.384,6.174,6.174,0,0,0,3.057,1.947c2.493.935,5.677-.2,6.046-.814.408-.691,1.248-8.882,1.248-10.222,0-1.179,3.432-7.416,4.119-8.654a.387.387,0,0,1,.677.375c-1.951,3.51-4.022,7.6-4.022,8.279,0,.978-.782,9.66-1.357,10.62-.439.731-2.455,1.544-4.581,1.544" transform="translate(-29.622 -14.719)" fill="#263238"/>
        <path id="Trazado_890739" data-name="Trazado 890739" d="M131.282,97.268h-.026c-7.458-.5-11.19-7.463-11.227-7.534a.387.387,0,0,1,.685-.36c.036.067,3.575,6.654,10.593,7.121a.387.387,0,0,1-.025.773" transform="translate(-27.188 -20.205)" fill="#263238"/>
        <path id="Trazado_890740" data-name="Trazado 890740" d="M131.381,70.408c-.415,1.842-1.675,3.128-2.816,2.871s-1.729-1.958-1.314-3.8,1.675-3.128,2.816-2.871,1.729,1.958,1.314,3.8" transform="translate(-28.805 -15.086)" fill="#263238"/>
        <path id="Trazado_890741" data-name="Trazado 890741" d="M154.185,75.281c-.415,1.842-1.675,3.128-2.816,2.871s-1.729-1.958-1.314-3.8,1.675-3.128,2.816-2.871,1.729,1.958,1.314,3.8" transform="translate(-33.972 -16.19)" fill="#263238"/>
        <path id="Trazado_890742" data-name="Trazado 890742" d="M137.713,60.431a.382.382,0,0,1-.165-.037,16.1,16.1,0,0,0-10.948-.96.386.386,0,1,1-.244-.733,16.585,16.585,0,0,1,11.524.994.387.387,0,0,1-.166.736" transform="translate(-28.572 -13.166)" fill="#263238"/>
        <path id="Trazado_890743" data-name="Trazado 890743" d="M160.678,69a.386.386,0,0,1-.343-.21c-2.756-5.354-7.674-4.4-7.882-4.357a.386.386,0,0,1-.159-.756,8.244,8.244,0,0,1,8.728,4.76.386.386,0,0,1-.166.521.394.394,0,0,1-.177.042" transform="translate(-34.44 -14.408)" fill="#263238"/>
        <path id="Trazado_890744" data-name="Trazado 890744" d="M136.794,128.1a.386.386,0,0,1-.31-.617l6.816-9.16a.387.387,0,1,1,.621.462l-6.817,9.159a.386.386,0,0,1-.31.156" transform="translate(-30.91 -26.777)" fill="#263238"/>
        <path id="Trazado_890745" data-name="Trazado 890745" d="M83.318,230.291H49.247V176.718h34.2a2.46,2.46,0,0,1,2.459,2.46v48.529a2.584,2.584,0,0,1-2.585,2.585" transform="translate(-11.159 -40.044)" fill="#0ac675"/>
        <path id="Trazado_890746" data-name="Trazado 890746" d="M83.205,230.565H49.135a.387.387,0,0,1-.387-.387V176.6a.387.387,0,0,1,.387-.387h34.2a2.85,2.85,0,0,1,2.847,2.847v48.528a2.976,2.976,0,0,1-2.972,2.972m-33.684-.773H83.205a2.2,2.2,0,0,0,2.2-2.2V179.065a2.076,2.076,0,0,0-2.073-2.073H49.521Z" transform="translate(-11.046 -39.931)" fill="#263238"/>
        <path id="Trazado_890747" data-name="Trazado 890747" d="M79.091,230.291H45.041V176.718h34.05a2.606,2.606,0,0,1,2.606,2.606v48.362a2.605,2.605,0,0,1-2.606,2.606" transform="translate(-10.206 -40.044)" fill="#fff"/>
        <path id="Trazado_890748" data-name="Trazado 890748" d="M78.977,230.565H44.928a.387.387,0,0,1-.387-.387V176.6a.387.387,0,0,1,.387-.387h34.05a3,3,0,0,1,2.993,2.992v48.362a3,3,0,0,1-2.993,2.992m-33.663-.773H78.977a2.222,2.222,0,0,0,2.22-2.219V179.21a2.223,2.223,0,0,0-2.22-2.219H45.314Z" transform="translate(-10.093 -39.931)" fill="#263238"/>
        <path id="Trazado_890749" data-name="Trazado 890749" d="M74.064,230.291H39.993V176.718h34.2a2.459,2.459,0,0,1,2.459,2.46v48.529a2.584,2.584,0,0,1-2.585,2.585" transform="translate(-9.062 -40.044)" fill="#0ac675"/>
        <path id="Trazado_890750" data-name="Trazado 890750" d="M73.95,230.565H39.88a.387.387,0,0,1-.387-.387V176.6a.387.387,0,0,1,.387-.387h34.2a2.85,2.85,0,0,1,2.847,2.847v48.528a2.976,2.976,0,0,1-2.972,2.972m-33.684-.773H73.95a2.2,2.2,0,0,0,2.2-2.2V179.065a2.076,2.076,0,0,0-2.073-2.073H40.266Z" transform="translate(-8.949 -39.931)" fill="#263238"/>
        <path id="Trazado_890751" data-name="Trazado 890751" d="M15.644,212.388l31.45,8.025.868,15.834s-12.58,6.94-25.811,8.242S1.98,234.728.678,226.7s4.772-13.013,8.242-16.05" transform="translate(-0.113 -47.734)" fill="#fff"/>
        <path id="Trazado_890752" data-name="Trazado 890752" d="M19.9,244.868c-12.247,0-18.483-10.637-19.712-18.217-1.294-7.978,4.539-13.064,8.025-16.1l.344-.3a.386.386,0,1,1,.509.582l-.345.3c-3.582,3.123-8.995,7.842-7.77,15.4C2.2,234.256,8.837,245.292,22,243.989c12.067-1.186,23.741-7.175,25.449-8.081l-.839-15.3-31.175-7.955a.387.387,0,0,1,.192-.749l31.45,8.026a.388.388,0,0,1,.29.353l.868,15.834a.388.388,0,0,1-.2.36c-.126.07-12.8,6.994-25.96,8.288-.746.073-1.473.109-2.179.109" transform="translate(0 -47.62)" fill="#263238"/>
        <path id="Trazado_890753" data-name="Trazado 890753" d="M60.746,217.64s6.507-5.64,6.941-7.158,4.772-6.941,6.94-7.808,8.676-2.819,9.978-3.687,3.9-.868,3.687.868-1.3,3.687-2.386,4.121a53.993,53.993,0,0,0-5.639,2.386,9.919,9.919,0,0,0-2.82,3.254s13.882-.868,15.617-.868,3.036.868,2.6,3.253-6.507,4.338-6.507,4.338,1.3,8.459-.434,11.279-13.447,5.422-14.531,5.422-12.58.434-12.58.434Z" transform="translate(-13.765 -44.961)" fill="#cfcfcf"/>
        <path id="Trazado_890754" data-name="Trazado 890754" d="M61.5,233.747a.387.387,0,0,1-.386-.366l-.868-15.833a.386.386,0,0,1,.133-.314c2.482-2.151,6.529-5.946,6.822-6.971.437-1.528,4.852-7.134,7.169-8.06.792-.317,2.162-.779,3.612-1.268a47.313,47.313,0,0,0,6.295-2.382,3.742,3.742,0,0,1,3.587-.3,1.49,1.49,0,0,1,.7,1.536c-.215,1.719-1.321,3.91-2.626,4.431-.225.09-.533.208-.894.346a40.612,40.612,0,0,0-4.7,2.017,8.056,8.056,0,0,0-2.3,2.486c2.922-.181,13.387-.822,14.9-.822a3.115,3.115,0,0,1,2.49.959,3.238,3.238,0,0,1,.493,2.75c-.418,2.3-5.1,4.065-6.459,4.533.224,1.611,1.08,8.6-.533,11.217-1.817,2.952-13.651,5.606-14.862,5.606-1.065,0-12.451.43-12.565.435Zm-.471-16.053.837,15.265c2.031-.076,11.234-.42,12.214-.42,1.219,0,12.617-2.663,14.2-5.237,1.64-2.667.394-10.934.381-11.017a.387.387,0,0,1,.264-.427c1.629-.524,5.923-2.271,6.244-4.04a2.52,2.52,0,0,0-.325-2.115,2.456,2.456,0,0,0-1.9-.681c-1.7,0-15.453.858-15.592.866a.377.377,0,0,1-.35-.178.385.385,0,0,1-.012-.393,10.154,10.154,0,0,1,2.966-3.4,40.871,40.871,0,0,1,4.8-2.068c.357-.136.661-.252.883-.341.92-.367,1.943-2.183,2.145-3.809a.72.72,0,0,0-.337-.782,3.015,3.015,0,0,0-2.752.283,44.306,44.306,0,0,1-6.476,2.472c-1.439.485-2.8.944-3.572,1.252-2.081.834-6.336,6.241-6.712,7.556-.429,1.5-5.793,6.239-6.916,7.219" transform="translate(-13.652 -44.848)" fill="#263238"/>
        <path id="Trazado_890755" data-name="Trazado 890755" d="M161.067,172.085a.387.387,0,0,1-.387-.373c-.3-8.28,4.12-27.009,4.309-27.8a.387.387,0,1,1,.753.179c-.046.193-4.586,19.421-4.288,27.6a.387.387,0,0,1-.372.4h-.015" transform="translate(-36.407 -32.542)" fill="#263238"/>
        <path id="Trazado_890756" data-name="Trazado 890756" d="M190.625,324.125s-6.309,18.653-5.954,21.347,1.21,9.162,1.21,9.162-1.408,5.943.889,6.736,3.756-1.627,3.75-5.29.721-9.017,1.38-10.06.978,11.022.432,14.122-2.839,8.659-1.87,9.965,3,1.037,4,.109,4.225-6.612,4.884-7.654,6.263-9.271,7.5-16.763.9-19.714.9-19.714Z" transform="translate(-41.843 -73.446)" fill="#cfcfcf"/>
        <path id="Trazado_890757" data-name="Trazado 890757" d="M192.255,371.274c-.1,0-.2,0-.292-.013a2.64,2.64,0,0,1-1.923-1.036c-.705-.95-.149-3.121.851-6.581.4-1.366.767-2.656.949-3.681a73.492,73.492,0,0,0-.043-12.981,42.284,42.284,0,0,0-1,8.985c0,2.56-.678,4.517-1.872,5.368a2.533,2.533,0,0,1-2.391.288c-2.48-.855-1.363-6.217-1.157-7.121l-1.2-9.091c-.363-2.752,5.712-20.757,5.971-21.522a.389.389,0,0,1,.411-.261l17.122,1.96a.387.387,0,0,1,.343.374c0,.122.326,12.346-.906,19.789-.534,3.227-2.247,8.726-7.367,16.608l-.192.3c-.153.243-.447.738-.819,1.367a48.161,48.161,0,0,1-4.127,6.364,3.559,3.559,0,0,1-2.357.889m-.387-25.817a.453.453,0,0,1,.159.029c1.142.442.872,12.924.574,14.61-.188,1.067-.565,2.375-.967,3.761-.668,2.314-1.5,5.195-.974,5.906a1.875,1.875,0,0,0,1.372.726,2.779,2.779,0,0,0,2.051-.67,54.6,54.6,0,0,0,3.99-6.193c.378-.637.675-1.139.831-1.386l.2-.305c5.047-7.769,6.729-13.159,7.251-16.313,1.107-6.681.946-17.292.9-19.306l-16.477-1.886c-1.811,5.379-6.115,18.78-5.837,20.878l1.21,9.16a.388.388,0,0,1-.007.14c-.344,1.454-.964,5.728.64,6.282a1.765,1.765,0,0,0,1.69-.186c.973-.694,1.551-2.465,1.548-4.737-.006-3.479.691-9.082,1.439-10.267a.472.472,0,0,1,.405-.244" transform="translate(-41.731 -73.333)" fill="#263238"/>
        <path id="Trazado_890758" data-name="Trazado 890758" d="M167.8,178.03l20.6,60.36-1.6,41.882a93.534,93.534,0,0,0,12.73,2.979c5.3.671,12.446.824,12.446.824s5.547-55.563,5.537-61.867-18.277-63.656-19.314-67.358-4.851-19.466-8.661-21.658a25.041,25.041,0,0,0-9.072-2.593" transform="translate(-38.023 -29.594)" fill="#fff"/>
        <path id="Trazado_890759" data-name="Trazado 890759" d="M211.868,284.349h-.009c-.072,0-7.228-.161-12.485-.827a94.5,94.5,0,0,1-12.8-2.993.389.389,0,0,1-.272-.384l1.594-41.809-20.58-60.294a.387.387,0,0,1,.733-.249l20.6,60.361a.384.384,0,0,1,.021.138l-1.585,41.584a90.894,90.894,0,0,0,12.381,2.878c4.547.577,10.537.771,12.048.812.475-4.781,5.508-55.521,5.5-61.47-.008-5.031-11.937-43.464-17.03-59.875-1.245-4.011-2.067-6.66-2.269-7.379-.114-.406-.261-.957-.438-1.619-1.31-4.906-4.79-17.936-8.043-19.808a24.773,24.773,0,0,0-8.908-2.543.386.386,0,0,1-.357-.415.41.41,0,0,1,.415-.357,25.12,25.12,0,0,1,9.234,2.643c3.114,1.79,6,11.256,8.405,20.279.176.658.323,1.206.435,1.61.2.708,1.064,3.5,2.263,7.357,5.1,16.446,17.057,54.956,17.065,60.1.011,6.252-5.312,59.636-5.538,61.906a.386.386,0,0,1-.384.348" transform="translate(-37.91 -29.481)" fill="#263238"/>
        <path id="Trazado_890760" data-name="Trazado 890760" d="M175.995,185.895a.387.387,0,0,1-.291-.642c7.448-8.49,21.19-21.023,21.327-21.149a.387.387,0,1,1,.521.572c-.138.126-13.848,12.631-21.267,21.088a.387.387,0,0,1-.291.131" transform="translate(-39.793 -37.163)" fill="#263238"/>
        <path id="Trazado_890761" data-name="Trazado 890761" d="M176.272,195.361a.386.386,0,0,1-.355-.541c1.138-2.626,14.357-11.842,14.919-12.233a.386.386,0,0,1,.441.635c-3.778,2.629-13.777,9.893-14.65,11.906a.386.386,0,0,1-.355.233" transform="translate(-39.855 -41.359)" fill="#263238"/>
      </g>
    </g>
    <g id="Grupo_1107979" data-name="Grupo 1107979" transform="translate(-664.003 -1670.6)">
      <circle id="Elipse_11536" data-name="Elipse 11536" cx="4.889" cy="4.889" r="4.889" transform="translate(1381.989 2719.649)" fill="#00e0ff"/>
      <circle id="Elipse_11529" data-name="Elipse 11529" cx="4.889" cy="4.889" r="4.889" transform="translate(1504.068 2677.094)" fill="#00e0ff"/>
      <circle id="Elipse_11530" data-name="Elipse 11530" cx="4.889" cy="4.889" r="4.889" transform="translate(1430.32 2665.982)" fill="#00e0ff"/>
      <circle id="Elipse_11533" data-name="Elipse 11533" cx="1.572" cy="1.572" r="1.572" transform="translate(1413.544 2667.729)" fill="#00e0ff"/>
      <circle id="Elipse_11616" data-name="Elipse 11616" cx="1.572" cy="1.572" r="1.572" transform="translate(1518.544 2794.646)" fill="#00e0ff"/>
      <circle id="Elipse_11615" data-name="Elipse 11615" cx="1.572" cy="1.572" r="1.572" transform="translate(1541.544 2733.729)" fill="#00e0ff"/>
      <circle id="Elipse_11535" data-name="Elipse 11535" cx="3.143" cy="3.143" r="3.143" transform="translate(1388.624 2700.252)" fill="#00e0ff"/>
      <circle id="Elipse_11531" data-name="Elipse 11531" cx="4.889" cy="4.889" r="4.889" transform="translate(1536.272 2797.789)" fill="#00e0ff"/>
      <circle id="Elipse_11534" data-name="Elipse 11534" cx="4.889" cy="4.889" r="4.889" transform="translate(1369.003 2784.869)" fill="#00e0ff"/>
      <circle id="Elipse_11532" data-name="Elipse 11532" cx="3.143" cy="3.143" r="3.143" transform="translate(1408.83 2786.614)" fill="#00e0ff"/>
    </g>
  </g>
</svg>
