<svg xmlns="http://www.w3.org/2000/svg" width="190" height="139" viewBox="0 0 190 139">
  <g id="Grupo_1108580" data-name="Grupo 1108580" transform="translate(-180.051 -9602)">
    <rect id="Rectángulo_405979" data-name="Rectángulo 405979" width="133" height="139" rx="20" transform="translate(237.051 9602)" fill="#9ae59a"/>
    <g id="_026---Periodic-Table" data-name="026---Periodic-Table" transform="translate(180.051 9612)">
      <g id="Icons" transform="translate(1.983 1.962)">
        <path id="Rectangle-path" d="M8,46H21.883V59.883H8Z" transform="translate(7.867 43.271)" fill="#624421"/>
        <path id="Rectangle-path-2" data-name="Rectangle-path" d="M8,46h7.933V59.883H8Z" transform="translate(7.867 43.271)" fill="#825a2c"/>
        <path id="Rectangle-path-3" data-name="Rectangle-path" d="M43,46H56.883V59.883H43Z" transform="translate(42.283 43.271)" fill="#624421"/>
        <path id="Rectangle-path-4" data-name="Rectangle-path" d="M43,46h7.933V59.883H43Z" transform="translate(42.283 43.271)" fill="#825a2c"/>
        <path id="Shape" d="M115.033,58.95v3.967A1.983,1.983,0,0,1,113.05,64.9H1.983A1.983,1.983,0,0,1,0,62.917V58.95A5.95,5.95,0,0,1,5.95,53H109.083A5.95,5.95,0,0,1,115.033,58.95Z" transform="translate(0 50.154)" fill="#783e22"/>
        <path id="Shape-2" data-name="Shape" d="M109.083,58.95v3.967A1.983,1.983,0,0,1,107.1,64.9H1.983A1.983,1.983,0,0,1,0,62.917V58.95A5.95,5.95,0,0,1,5.95,53h97.183A5.95,5.95,0,0,1,109.083,58.95Z" transform="translate(0 50.154)" fill="sienna"/>
        <rect id="Rectangle-path-5" data-name="Rectangle-path" width="115" height="75" rx="1" transform="translate(0.017 14.038)" fill="#dfc49c"/>
        <rect id="Rectangle-path-6" data-name="Rectangle-path" width="109" height="75" rx="1" transform="translate(0.017 14.038)" fill="#ffe0b2"/>
        <path id="Shape-3" data-name="Shape" d="M52.733,10.808V20.844a1.983,1.983,0,0,1-1.983,1.983H22.983A1.983,1.983,0,0,1,21,20.844V10.808a1.983,1.983,0,0,1,1.785-1.983,8.608,8.608,0,0,0,7.933-6.386A1.983,1.983,0,0,1,32.7.991h8.608a1.983,1.983,0,0,1,1.983,1.448,8.608,8.608,0,0,0,7.656,6.505A1.983,1.983,0,0,1,52.733,10.808Z" transform="translate(20.65 -0.989)" fill="#624421"/>
        <path id="Shape-4" data-name="Shape" d="M46.783,10.808V20.844A1.983,1.983,0,0,1,44.8,22.827H22.983A1.983,1.983,0,0,1,21,20.844V10.808a1.983,1.983,0,0,1,1.785-1.983,8.608,8.608,0,0,0,7.933-6.386A1.983,1.983,0,0,1,32.7.991h2.658a1.983,1.983,0,0,1,1.983,1.448A8.608,8.608,0,0,0,45,8.944,1.983,1.983,0,0,1,46.783,10.808Z" transform="translate(20.65 -0.989)" fill="#825a2c"/>
        <path id="Shape-5" data-name="Shape" d="M24,26V55.75H53.75V26Z" transform="translate(23.6 23.605)" fill="#ffdc00"/>
        <path id="Shape-6" data-name="Shape" d="M44,21V60.667h9.917V21Z" transform="translate(43.267 18.688)" fill="#02a9f4"/>
        <path id="Shape-7" data-name="Shape" d="M56.933,16h-5.95A1.983,1.983,0,0,0,49,17.983v47.6h7.933A1.983,1.983,0,0,0,58.917,63.6V17.983A1.983,1.983,0,0,0,56.933,16Z" transform="translate(48.183 13.771)" fill="#673ab7"/>
        <path id="Shape-8" data-name="Shape" d="M11.933,16H5.983A1.983,1.983,0,0,0,4,17.983V63.6a1.983,1.983,0,0,0,1.983,1.983h7.933v-47.6A1.983,1.983,0,0,0,11.933,16Z" transform="translate(3.933 13.771)" fill="#f44335"/>
        <path id="Shape-9" data-name="Shape" d="M18.917,30.917V22.983A1.983,1.983,0,0,0,16.933,21H9V60.667H38.75V30.917Z" transform="translate(8.85 18.688)" fill="#ff9801"/>
        <path id="Shape-10" data-name="Shape" d="M40.983,21A1.983,1.983,0,0,0,39,22.983V60.667h9.917V21Z" transform="translate(38.35 18.688)" fill="#009688"/>
      </g>
      <g id="Layer_2" transform="translate(0 0)">
        <path id="Shape-11" data-name="Shape" d="M115.033,13.883H77.35v-2.1a3.967,3.967,0,0,0-3.53-3.967,6.624,6.624,0,0,1-6.188-4.958A3.967,3.967,0,0,0,63.8,0H55.2a3.967,3.967,0,0,0-3.828,2.9A6.624,6.624,0,0,1,45.18,7.933,3.967,3.967,0,0,0,41.65,11.9v1.983H3.967A3.967,3.967,0,0,0,0,17.85v71.4a3.967,3.967,0,0,0,3.967,3.967h11.9v9.917H7.933A7.933,7.933,0,0,0,0,111.067v3.967A3.967,3.967,0,0,0,3.967,119H115.033A3.967,3.967,0,0,0,119,115.033v-3.967a7.933,7.933,0,0,0-7.933-7.933h-7.933V93.217h11.9A3.967,3.967,0,0,0,119,89.25V17.85A3.967,3.967,0,0,0,115.033,13.883ZM55.2,3.967H63.8A10.631,10.631,0,0,0,73.383,11.9v9.917H45.617V11.781A10.631,10.631,0,0,0,55.2,3.967ZM19.833,93.217H29.75v9.917H19.833Zm65.45,0v9.917H33.717V93.217Zm29.75,17.85v3.967H3.967v-3.967A3.967,3.967,0,0,1,7.933,107.1H111.067A3.967,3.967,0,0,1,115.033,111.067Zm-15.867-7.933H89.25V93.217h9.917ZM115.033,89.25H3.967V17.85H41.65v3.967a3.967,3.967,0,0,0,3.967,3.967H73.383a3.967,3.967,0,0,0,3.967-3.967V17.85h37.683Z" transform="translate(0 0)"/>
        <ellipse id="Oval" cx="2.5" cy="2" rx="2.5" ry="2" transform="translate(49 14)"/>
        <ellipse id="Oval-2" data-name="Oval" cx="2.5" cy="2" rx="2.5" ry="2" transform="translate(57 14)"/>
        <circle id="Oval-3" data-name="Oval" cx="2" cy="2" r="2" transform="translate(65 14)"/>
        <path id="Shape-12" data-name="Shape" d="M73.417,28.883v5.95H27.8v-5.95a3.967,3.967,0,0,0-3.967-3.967h-5.95v-5.95A3.967,3.967,0,0,0,13.917,15H7.967A3.967,3.967,0,0,0,4,18.967V64.583A3.967,3.967,0,0,0,7.967,68.55h95.2a3.967,3.967,0,0,0,3.967-3.967V18.967A3.967,3.967,0,0,0,103.167,15h-5.95a3.967,3.967,0,0,0-3.967,3.967v5.95H77.383A3.967,3.967,0,0,0,73.417,28.883ZM83.333,38.8v5.95h-5.95V38.8Zm19.833-9.917v5.95h-5.95v-5.95Zm-89.25,5.95H7.967v-5.95h5.95Zm59.5,19.833h-5.95v-5.95h5.95Zm3.967-5.95h5.95v5.95h-5.95Zm-39.667,0h5.95v5.95h-5.95Zm-3.967,5.95H27.8v-5.95h5.95Zm13.883-5.95h5.95v5.95h-5.95Zm9.917,0H63.5v5.95H57.55Zm9.917-3.967V38.8h5.95v5.95Zm-3.967,0H57.55V38.8H63.5Zm-9.917,0h-5.95V38.8h5.95Zm-9.917,0h-5.95V38.8h5.95Zm-9.917,0H27.8V38.8h5.95Zm-9.917,0h-5.95V38.8h5.95Zm-9.917,0H7.967V38.8h5.95Zm-5.95,3.967h5.95v5.95H7.967Zm9.917,0h5.95v5.95h-5.95Zm5.95,9.917v5.95h-5.95v-5.95Zm3.967,0h5.95v5.95H27.8Zm9.917,0h5.95v5.95h-5.95Zm9.917,0h5.95v5.95h-5.95Zm9.917,0H63.5v5.95H57.55Zm9.917,0h5.95v5.95h-5.95Zm9.917,0h5.95v5.95h-5.95Zm9.917,0h5.95v5.95H87.3Zm0-3.967v-5.95h5.95v5.95Zm9.917-5.95h5.95v5.95h-5.95Zm5.95-3.967h-5.95V38.8h5.95ZM93.25,34.833H87.3v-5.95h5.95Zm0,3.967v5.95H87.3V38.8ZM23.833,34.833h-5.95v-5.95h5.95ZM7.967,18.967h5.95v5.95H7.967Zm0,39.667h5.95v5.95H7.967Zm89.25,5.95v-5.95h5.95v5.95Zm0-45.617h5.95v5.95h-5.95ZM77.383,28.883h5.95v5.95h-5.95Z" transform="translate(3.933 14.75)"/>
        <path id="Shape-13" data-name="Shape" d="M5.983,14.967H7.967a1.983,1.983,0,1,0,0-3.967H5.983a1.983,1.983,0,1,0,0,3.967Z" transform="translate(3.933 10.817)"/>
        <path id="Shape-14" data-name="Shape" d="M10.983,14.967H26.85a1.983,1.983,0,1,0,0-3.967H10.983a1.983,1.983,0,1,0,0,3.967Z" transform="translate(8.85 10.817)"/>
      </g>
    </g>
  </g>
</svg>
