<svg xmlns="http://www.w3.org/2000/svg" width="1240" height="520" viewBox="0 0 1240 520">
  <g id="Grupo_1108949" data-name="Grupo 1108949" transform="translate(-180.051 -14714)">
    <path id="Trazado_899858" data-name="Trazado 899858" d="M0,0H1240V520H0Z" transform="translate(180.051 14714)" fill="#e6fcff"/>
    <path id="Trazado_899459" data-name="Trazado 899459" d="M238.916,0V13.521H166.982L166.2,42.589H31.682V13.521H16.62V0H0V111.884l.779.778H61.806V95.533l192.172-.779V0Z" transform="translate(247.051 15070)" fill="#c9f"/>
    <path id="Trazado_899460" data-name="Trazado 899460" d="M238.916,0V13.521H166.982L166.2,42.589H31.682V13.521H16.62V0H0V111.884l.779.778H61.806V95.533l192.172-.779V0Z" transform="translate(531.073 15070)" fill="#fce573"/>
    <path id="Trazado_899461" data-name="Trazado 899461" d="M238.916,0V13.521H166.982L166.2,42.589H31.682V13.521H16.62V0H0V111.884l.779.778H61.806V95.533l192.172-.779V0Z" transform="translate(815.094 15070)" fill="#ffcce5"/>
    <path id="Trazado_899462" data-name="Trazado 899462" d="M238.916,0V13.521H166.982L166.2,42.589H31.682V13.521H16.62V0H0V111.884l.779.778H61.806V95.533l192.172-.779V0Z" transform="translate(1099.051 15070)" fill="#9ae59a"/>
    <path id="Trazado_899859" data-name="Trazado 899859" d="M33,0H366a33,33,0,0,1,0,66H33A33,33,0,0,1,33,0Z" transform="translate(595.102 14765)" fill="#0ac675"/>
    <path id="Trazado_899860" data-name="Trazado 899860" d="M10,0H180a10,10,0,0,1,10,10V42a10,10,0,0,1-10,10H10A10,10,0,0,1,0,42V10A10,10,0,0,1,10,0Z" transform="translate(280.102 14896)" fill="#9ae59a"/>
    <path id="Trazado_899861" data-name="Trazado 899861" d="M10,0H180a10,10,0,0,1,10,10V42a10,10,0,0,1-10,10H10A10,10,0,0,1,0,42V10A10,10,0,0,1,10,0Z" transform="translate(560.102 14896)" fill="#9ae59a"/>
    <path id="Trazado_899862" data-name="Trazado 899862" d="M10,0H180a10,10,0,0,1,10,10V42a10,10,0,0,1-10,10H10A10,10,0,0,1,0,42V10A10,10,0,0,1,10,0Z" transform="translate(840.102 14896)" fill="#9ae59a"/>
    <path id="Trazado_899863" data-name="Trazado 899863" d="M10,0H180a10,10,0,0,1,10,10V42a10,10,0,0,1-10,10H10A10,10,0,0,1,0,42V10A10,10,0,0,1,10,0Z" transform="translate(1120.102 14896)" fill="#9ae59a"/>
    <path id="Trazado_899463" data-name="Trazado 899463" d="M53.938,3219.75V3133H895v86.75" transform="translate(320.102 11665)" fill="none" stroke="#0ac675" stroke-width="2"/>
    <path id="Trazado_899465" data-name="Trazado 899465" d="M53.938,3219.75v-69.083" transform="translate(881.602 11665)" fill="none" stroke="#0ac675" stroke-width="2"/>
    <path id="Trazado_899864" data-name="Trazado 899864" d="M-91.709-4.342V0h-3.085V-12.8h5.106a5.948,5.948,0,0,1,2.6.541,4.074,4.074,0,0,1,1.749,1.538,4.2,4.2,0,0,1,.62,2.263,3.7,3.7,0,0,1-1.34,2.993,5.561,5.561,0,0,1-3.678,1.121Zm0-2.382h2.021a1.906,1.906,0,0,0,1.367-.448,1.665,1.665,0,0,0,.47-1.266,2.059,2.059,0,0,0-.483-1.433,1.712,1.712,0,0,0-1.318-.545h-2.057Zm14.247-.105-.976-.07a1.752,1.752,0,0,0-1.793.879V0h-2.962V-9.51h2.777l.1,1.222a2.294,2.294,0,0,1,2.083-1.4,2.888,2.888,0,0,1,.826.105Zm.378,1.986a5.613,5.613,0,0,1,.554-2.536A3.96,3.96,0,0,1-74.94-9.088a4.791,4.791,0,0,1,2.435-.6,4.373,4.373,0,0,1,3.366,1.323,5.076,5.076,0,0,1,1.23,3.6v.105a4.925,4.925,0,0,1-1.235,3.529A4.384,4.384,0,0,1-72.488.176a4.434,4.434,0,0,1-3.261-1.217,4.761,4.761,0,0,1-1.327-3.3Zm2.962.185a3.538,3.538,0,0,0,.413,1.934,1.376,1.376,0,0,0,1.222.615q1.582,0,1.617-2.435v-.3q0-2.558-1.635-2.558-1.485,0-1.608,2.206Zm16.348-.026a5.735,5.735,0,0,1-1,3.538A3.2,3.2,0,0,1-61.466.176,2.742,2.742,0,0,1-63.62-.782V3.656h-2.962V-9.51h2.769l.088.879a2.742,2.742,0,0,1,2.241-1.055,3.224,3.224,0,0,1,2.733,1.3,5.805,5.805,0,0,1,.976,3.564Zm-2.962-.185q0-2.531-1.477-2.531a1.394,1.394,0,0,0-1.406.756V-2.9a1.439,1.439,0,0,0,1.424.791q1.415,0,1.459-2.443ZM-53.345,0h-2.971V-9.51h2.971Zm-3.146-11.962A1.322,1.322,0,0,1-56.035-13a1.724,1.724,0,0,1,1.187-.4,1.724,1.724,0,0,1,1.187.4,1.322,1.322,0,0,1,.457,1.037,1.322,1.322,0,0,1-.457,1.037,1.724,1.724,0,0,1-1.187.4,1.724,1.724,0,0,1-1.187-.4A1.322,1.322,0,0,1-56.492-11.962ZM-46.92.176a4.889,4.889,0,0,1-3.542-1.305,4.507,4.507,0,0,1-1.354-3.4v-.246a5.84,5.84,0,0,1,.541-2.575A3.955,3.955,0,0,1-49.7-9.075a4.763,4.763,0,0,1,2.461-.611,4.117,4.117,0,0,1,3.164,1.244,4.887,4.887,0,0,1,1.16,3.467v1.151H-48.8a2.135,2.135,0,0,0,.694,1.257,2.066,2.066,0,0,0,1.389.457,2.662,2.662,0,0,0,2.2-.984l1.354,1.6A3.784,3.784,0,0,1-44.736-.277,5.3,5.3,0,0,1-46.92.176ZM-47.254-7.4q-1.3,0-1.547,1.723h2.988v-.229a1.467,1.467,0,0,0-.36-1.1A1.434,1.434,0,0,0-47.254-7.4ZM-42.1-4.825a5.809,5.809,0,0,1,.976-3.56,3.211,3.211,0,0,1,2.725-1.3,2.731,2.731,0,0,1,2.145,1V-13.5h2.971V0h-2.663l-.149-1.02a2.8,2.8,0,0,1-2.32,1.2,3.205,3.205,0,0,1-2.689-1.3A5.993,5.993,0,0,1-42.1-4.825Zm2.962.185q0,2.531,1.477,2.531a1.458,1.458,0,0,0,1.406-.826V-6.557A1.419,1.419,0,0,0-37.639-7.4q-1.371,0-1.485,2.215ZM-26.24,0a3.344,3.344,0,0,1-.281-.853A2.754,2.754,0,0,1-28.806.176a3.374,3.374,0,0,1-2.285-.813,2.588,2.588,0,0,1-.94-2.043,2.66,2.66,0,0,1,1.143-2.338,5.821,5.821,0,0,1,3.322-.791h.914v-.5q0-1.31-1.134-1.31a.925.925,0,0,0-1.055,1.037H-31.8A2.659,2.659,0,0,1-30.63-8.824a4.927,4.927,0,0,1,2.993-.861,4.323,4.323,0,0,1,2.874.888,3.086,3.086,0,0,1,1.081,2.435v4.21a4.311,4.311,0,0,0,.4,2V0Zm-1.854-1.934a1.652,1.652,0,0,0,.918-.237,1.487,1.487,0,0,0,.523-.536V-4.228h-.861q-1.547,0-1.547,1.389a.848.848,0,0,0,.272.655A.986.986,0,0,0-28.094-1.934Zm5.678-2.892a5.809,5.809,0,0,1,.976-3.56,3.211,3.211,0,0,1,2.725-1.3,2.731,2.731,0,0,1,2.145,1V-13.5H-13.6V0h-2.663l-.149-1.02a2.8,2.8,0,0,1-2.32,1.2,3.205,3.205,0,0,1-2.689-1.3A5.993,5.993,0,0,1-22.417-4.825Zm2.962.185q0,2.531,1.477,2.531a1.458,1.458,0,0,0,1.406-.826V-6.557A1.419,1.419,0,0,0-17.96-7.4q-1.371,0-1.485,2.215ZM-7.317.176a4.889,4.889,0,0,1-3.542-1.305,4.507,4.507,0,0,1-1.354-3.4v-.246a5.84,5.84,0,0,1,.541-2.575,3.955,3.955,0,0,1,1.578-1.727,4.763,4.763,0,0,1,2.461-.611A4.117,4.117,0,0,1-4.469-8.442a4.887,4.887,0,0,1,1.16,3.467v1.151H-9.2A2.135,2.135,0,0,0-8.5-2.566a2.066,2.066,0,0,0,1.389.457,2.662,2.662,0,0,0,2.2-.984l1.354,1.6A3.784,3.784,0,0,1-5.133-.277,5.3,5.3,0,0,1-7.317.176ZM-7.651-7.4q-1.3,0-1.547,1.723h2.988v-.229a1.467,1.467,0,0,0-.36-1.1A1.434,1.434,0,0,0-7.651-7.4ZM2.861-2.672a.684.684,0,0,0-.4-.606,6.016,6.016,0,0,0-1.5-.475A6.853,6.853,0,0,1-.866-4.4a3.062,3.062,0,0,1-1.1-.971,2.319,2.319,0,0,1-.378-1.31A2.628,2.628,0,0,1-1.261-8.837a4.453,4.453,0,0,1,2.83-.848,4.934,4.934,0,0,1,3.023.853A2.666,2.666,0,0,1,5.735-6.592H2.764q0-1.143-1.2-1.143a1.194,1.194,0,0,0-.782.259.8.8,0,0,0-.316.646.737.737,0,0,0,.387.642,3.654,3.654,0,0,0,1.235.4,10.671,10.671,0,0,1,1.49.378A2.706,2.706,0,0,1,5.717-2.76,2.491,2.491,0,0,1,4.562-.642,5.068,5.068,0,0,1,1.569.176,5.172,5.172,0,0,1-.611-.264,3.645,3.645,0,0,1-2.1-1.459,2.707,2.707,0,0,1-2.641-3.05H.127a1.145,1.145,0,0,0,.439.962,1.808,1.808,0,0,0,1.081.3,1.422,1.422,0,0,0,.91-.246A.787.787,0,0,0,2.861-2.672ZM20.413-4.685a5.735,5.735,0,0,1-1,3.538A3.2,3.2,0,0,1,16.721.176a2.742,2.742,0,0,1-2.153-.958V3.656H11.606V-9.51h2.769l.088.879A2.742,2.742,0,0,1,16.7-9.686a3.224,3.224,0,0,1,2.733,1.3,5.805,5.805,0,0,1,.976,3.564Zm-2.962-.185q0-2.531-1.477-2.531a1.394,1.394,0,0,0-1.406.756V-2.9a1.439,1.439,0,0,0,1.424.791q1.415,0,1.459-2.443ZM26.319.176a4.889,4.889,0,0,1-3.542-1.305,4.507,4.507,0,0,1-1.354-3.4v-.246a5.84,5.84,0,0,1,.541-2.575,3.955,3.955,0,0,1,1.578-1.727A4.763,4.763,0,0,1,26-9.686a4.117,4.117,0,0,1,3.164,1.244,4.887,4.887,0,0,1,1.16,3.467v1.151H24.438a2.135,2.135,0,0,0,.694,1.257,2.066,2.066,0,0,0,1.389.457,2.662,2.662,0,0,0,2.2-.984l1.354,1.6A3.784,3.784,0,0,1,28.5-.277,5.3,5.3,0,0,1,26.319.176ZM25.985-7.4q-1.3,0-1.547,1.723h2.988v-.229a1.467,1.467,0,0,0-.36-1.1A1.434,1.434,0,0,0,25.985-7.4Zm11.285.571-.976-.07a1.752,1.752,0,0,0-1.793.879V0H31.54V-9.51h2.777l.1,1.222a2.294,2.294,0,0,1,2.083-1.4,2.888,2.888,0,0,1,.826.105ZM41.462,0H38.492V-9.51h2.971ZM38.316-11.962A1.322,1.322,0,0,1,38.773-13a1.724,1.724,0,0,1,1.187-.4,1.724,1.724,0,0,1,1.187.4,1.322,1.322,0,0,1,.457,1.037,1.322,1.322,0,0,1-.457,1.037,1.724,1.724,0,0,1-1.187.4,1.724,1.724,0,0,1-1.187-.4A1.322,1.322,0,0,1,38.316-11.962Zm4.6,7.119a5.613,5.613,0,0,1,.554-2.536,3.96,3.96,0,0,1,1.591-1.709,4.791,4.791,0,0,1,2.435-.6,4.373,4.373,0,0,1,3.366,1.323,5.076,5.076,0,0,1,1.23,3.6v.105a4.925,4.925,0,0,1-1.235,3.529A4.384,4.384,0,0,1,47.509.176a4.434,4.434,0,0,1-3.261-1.217,4.761,4.761,0,0,1-1.327-3.3Zm2.962.185a3.538,3.538,0,0,0,.413,1.934,1.376,1.376,0,0,0,1.222.615q1.582,0,1.617-2.435v-.3q0-2.558-1.635-2.558-1.485,0-1.608,2.206ZM47.9-13.5h3.129l-2.443,2.76H46.165ZM53.02-4.825A5.809,5.809,0,0,1,54-8.385a3.211,3.211,0,0,1,2.725-1.3,2.731,2.731,0,0,1,2.145,1V-13.5h2.971V0H59.172l-.149-1.02A2.8,2.8,0,0,1,56.7.176a3.205,3.205,0,0,1-2.689-1.3A5.993,5.993,0,0,1,53.02-4.825Zm2.962.185q0,2.531,1.477,2.531a1.458,1.458,0,0,0,1.406-.826V-6.557A1.419,1.419,0,0,0,57.476-7.4q-1.371,0-1.485,2.215ZM66.643,0H63.672V-9.51h2.971ZM63.5-11.962A1.322,1.322,0,0,1,63.954-13a1.724,1.724,0,0,1,1.187-.4,1.724,1.724,0,0,1,1.187.4,1.322,1.322,0,0,1,.457,1.037,1.322,1.322,0,0,1-.457,1.037,1.724,1.724,0,0,1-1.187.4,1.724,1.724,0,0,1-1.187-.4A1.322,1.322,0,0,1,63.5-11.962Zm8.991,9.853a1.317,1.317,0,0,0,.967-.338,1.241,1.241,0,0,0,.334-.945h2.777A3.288,3.288,0,0,1,75.445-.826a4.168,4.168,0,0,1-2.887,1,4.22,4.22,0,0,1-3.27-1.3,5.125,5.125,0,0,1-1.2-3.6v-.123A5.792,5.792,0,0,1,68.625-7.4a3.872,3.872,0,0,1,1.534-1.7,4.573,4.573,0,0,1,2.373-.593,4.116,4.116,0,0,1,2.944,1.028,3.647,3.647,0,0,1,1.09,2.786H73.789A1.626,1.626,0,0,0,73.428-7a1.244,1.244,0,0,0-.967-.4q-1.151,0-1.345,1.468a10.357,10.357,0,0,0-.062,1.283A4.068,4.068,0,0,0,71.4-2.663,1.187,1.187,0,0,0,72.488-2.109ZM83.175,0a3.344,3.344,0,0,1-.281-.853A2.754,2.754,0,0,1,80.609.176a3.374,3.374,0,0,1-2.285-.813,2.588,2.588,0,0,1-.94-2.043,2.66,2.66,0,0,1,1.143-2.338,5.821,5.821,0,0,1,3.322-.791h.914v-.5q0-1.31-1.134-1.31a.925.925,0,0,0-1.055,1.037H77.612a2.659,2.659,0,0,1,1.173-2.241,4.927,4.927,0,0,1,2.993-.861,4.323,4.323,0,0,1,2.874.888,3.086,3.086,0,0,1,1.081,2.435v4.21a4.311,4.311,0,0,0,.4,2V0ZM81.321-1.934a1.652,1.652,0,0,0,.918-.237,1.487,1.487,0,0,0,.523-.536V-4.228H81.9q-1.547,0-1.547,1.389a.848.848,0,0,0,.272.655A.986.986,0,0,0,81.321-1.934Zm11.03-.738a.684.684,0,0,0-.4-.606,6.016,6.016,0,0,0-1.5-.475A6.853,6.853,0,0,1,88.625-4.4a3.062,3.062,0,0,1-1.1-.971,2.319,2.319,0,0,1-.378-1.31,2.628,2.628,0,0,1,1.081-2.158,4.453,4.453,0,0,1,2.83-.848,4.934,4.934,0,0,1,3.023.853,2.666,2.666,0,0,1,1.143,2.241H92.254q0-1.143-1.2-1.143a1.194,1.194,0,0,0-.782.259.8.8,0,0,0-.316.646.737.737,0,0,0,.387.642,3.654,3.654,0,0,0,1.235.4,10.671,10.671,0,0,1,1.49.378A2.706,2.706,0,0,1,95.208-2.76,2.491,2.491,0,0,1,94.052-.642a5.068,5.068,0,0,1-2.993.817,5.172,5.172,0,0,1-2.18-.439,3.645,3.645,0,0,1-1.494-1.2,2.707,2.707,0,0,1-.536-1.591h2.769a1.145,1.145,0,0,0,.439.962,1.808,1.808,0,0,0,1.081.3,1.422,1.422,0,0,0,.91-.246A.787.787,0,0,0,92.351-2.672Z" transform="translate(795.102 14804)" fill="#12263f"/>
    <path id="Trazado_899865" data-name="Trazado 899865" d="M-46.57-4.164h-1.867V0h-2.344V-11.375h4.227a4.778,4.778,0,0,1,3.109.9,3.1,3.1,0,0,1,1.094,2.539A3.5,3.5,0,0,1-42.855-6a3.437,3.437,0,0,1-1.527,1.238l2.461,4.648V0h-2.516Zm-1.867-1.9h1.891a1.936,1.936,0,0,0,1.367-.449A1.606,1.606,0,0,0-44.7-7.75a1.719,1.719,0,0,0-.457-1.266,1.9,1.9,0,0,0-1.4-.461h-1.883ZM-35.82,0a2.507,2.507,0,0,1-.227-.758A2.732,2.732,0,0,1-38.18.156a3,3,0,0,1-2.059-.719,2.312,2.312,0,0,1-.816-1.812,2.389,2.389,0,0,1,1-2.062,4.915,4.915,0,0,1,2.879-.727h1.039v-.484a1.393,1.393,0,0,0-.3-.937,1.183,1.183,0,0,0-.949-.352,1.345,1.345,0,0,0-.895.273.929.929,0,0,0-.324.75h-2.258a2.268,2.268,0,0,1,.453-1.359,3,3,0,0,1,1.281-.98,4.669,4.669,0,0,1,1.859-.355,3.689,3.689,0,0,1,2.48.785,2.747,2.747,0,0,1,.918,2.207v3.664a4.041,4.041,0,0,0,.336,1.82V0Zm-1.867-1.57a1.945,1.945,0,0,0,.922-.223,1.462,1.462,0,0,0,.625-.6V-3.844h-.844q-1.7,0-1.8,1.172l-.008.133a.9.9,0,0,0,.3.7A1.153,1.153,0,0,0-37.687-1.57Zm5.2-2.719a5.094,5.094,0,0,1,.887-3.148A2.877,2.877,0,0,1-29.18-8.609a2.589,2.589,0,0,1,2.039.922V-12h2.266V0h-2.039l-.109-.9A2.657,2.657,0,0,1-29.2.156,2.869,2.869,0,0,1-31.59-1.02,5.258,5.258,0,0,1-32.492-4.289Zm2.258.164A3.328,3.328,0,0,0-29.82-2.3a1.349,1.349,0,0,0,1.2.633,1.511,1.511,0,0,0,1.477-.883V-5.891A1.489,1.489,0,0,0-28.6-6.773Q-30.234-6.773-30.234-4.125ZM-20.742,0h-2.266V-8.453h2.266Zm-2.4-10.641a1.112,1.112,0,0,1,.34-.836,1.277,1.277,0,0,1,.926-.328,1.28,1.28,0,0,1,.922.328,1.105,1.105,0,0,1,.344.836,1.108,1.108,0,0,1-.348.844,1.283,1.283,0,0,1-.918.328,1.283,1.283,0,0,1-.918-.328A1.108,1.108,0,0,1-23.141-10.641ZM-19.234-4.3a5.013,5.013,0,0,1,.484-2.242A3.546,3.546,0,0,1-17.355-8.07a4.069,4.069,0,0,1,2.113-.539,3.849,3.849,0,0,1,2.793,1.047,4.2,4.2,0,0,1,1.207,2.844l.016.578A4.418,4.418,0,0,1-12.312-1.02,3.775,3.775,0,0,1-15.227.156a3.793,3.793,0,0,1-2.918-1.172A4.5,4.5,0,0,1-19.234-4.2Zm2.258.164a3.151,3.151,0,0,0,.453,1.84,1.5,1.5,0,0,0,1.3.637,1.5,1.5,0,0,0,1.281-.629A3.448,3.448,0,0,0-13.484-4.3a3.12,3.12,0,0,0-.461-1.828,1.5,1.5,0,0,0-1.3-.648,1.475,1.475,0,0,0-1.281.645A3.506,3.506,0,0,0-16.977-4.141ZM-.953,0A2.507,2.507,0,0,1-1.18-.758,2.732,2.732,0,0,1-3.312.156,3,3,0,0,1-5.371-.562a2.312,2.312,0,0,1-.816-1.812,2.389,2.389,0,0,1,1-2.062,4.915,4.915,0,0,1,2.879-.727h1.039v-.484a1.393,1.393,0,0,0-.3-.937,1.183,1.183,0,0,0-.949-.352,1.345,1.345,0,0,0-.895.273.929.929,0,0,0-.324.75H-6a2.268,2.268,0,0,1,.453-1.359,3,3,0,0,1,1.281-.98,4.669,4.669,0,0,1,1.859-.355,3.689,3.689,0,0,1,2.48.785A2.747,2.747,0,0,1,.992-5.617v3.664a4.041,4.041,0,0,0,.336,1.82V0ZM-2.82-1.57A1.945,1.945,0,0,0-1.9-1.793a1.462,1.462,0,0,0,.625-.6V-3.844h-.844q-1.7,0-1.8,1.172l-.008.133a.9.9,0,0,0,.3.7A1.153,1.153,0,0,0-2.82-1.57Zm8.25-8.961v2.078H6.875V-6.8H5.43v4.219a1.007,1.007,0,0,0,.18.672.9.9,0,0,0,.688.2,3.6,3.6,0,0,0,.664-.055V-.047a4.648,4.648,0,0,1-1.367.2,2.156,2.156,0,0,1-2.422-2.4V-6.8H1.938V-8.453H3.172v-2.078ZM7.781-4.3a5.013,5.013,0,0,1,.484-2.242A3.546,3.546,0,0,1,9.66-8.07a4.069,4.069,0,0,1,2.113-.539,3.849,3.849,0,0,1,2.793,1.047,4.2,4.2,0,0,1,1.207,2.844l.016.578A4.418,4.418,0,0,1,14.7-1.02,3.775,3.775,0,0,1,11.789.156,3.793,3.793,0,0,1,8.871-1.016,4.5,4.5,0,0,1,7.781-4.2Zm2.258.164a3.151,3.151,0,0,0,.453,1.84,1.5,1.5,0,0,0,1.3.637,1.5,1.5,0,0,0,1.281-.629A3.448,3.448,0,0,0,13.531-4.3a3.12,3.12,0,0,0-.461-1.828,1.5,1.5,0,0,0-1.3-.648,1.475,1.475,0,0,0-1.281.645A3.506,3.506,0,0,0,10.039-4.141ZM12.219-12H14.68L12.516-9.578H10.68ZM19.3-8.453l.07.945a2.971,2.971,0,0,1,2.43-1.1A2.255,2.255,0,0,1,24.039-7.32a2.9,2.9,0,0,1,2.539-1.289,2.521,2.521,0,0,1,2.047.8A3.681,3.681,0,0,1,29.3-5.4V0H27.031V-5.391a1.61,1.61,0,0,0-.281-1.051,1.246,1.246,0,0,0-.992-.332,1.409,1.409,0,0,0-1.406.969L24.359,0H22.1V-5.383a1.59,1.59,0,0,0-.289-1.062,1.259,1.259,0,0,0-.984-.328,1.463,1.463,0,0,0-1.391.8V0H17.18V-8.453ZM33.414,0H31.148V-8.453h2.266Zm-2.4-10.641a1.112,1.112,0,0,1,.34-.836,1.277,1.277,0,0,1,.926-.328,1.28,1.28,0,0,1,.922.328,1.105,1.105,0,0,1,.344.836A1.108,1.108,0,0,1,33.2-9.8a1.283,1.283,0,0,1-.918.328,1.283,1.283,0,0,1-.918-.328A1.108,1.108,0,0,1,31.016-10.641Zm7.773,8.977A1.481,1.481,0,0,0,39.8-2.008a1.2,1.2,0,0,0,.406-.914h2.117a2.9,2.9,0,0,1-.469,1.574A3.093,3.093,0,0,1,40.6-.238a3.949,3.949,0,0,1-1.77.395A3.67,3.67,0,0,1,35.969-1,4.56,4.56,0,0,1,34.922-4.18v-.148a4.508,4.508,0,0,1,1.039-3.117,3.627,3.627,0,0,1,2.852-1.164,3.555,3.555,0,0,1,2.543.9,3.2,3.2,0,0,1,.973,2.4H40.211A1.539,1.539,0,0,0,39.8-6.371a1.358,1.358,0,0,0-1.031-.41,1.361,1.361,0,0,0-1.191.574,3.324,3.324,0,0,0-.4,1.863v.234a3.366,3.366,0,0,0,.4,1.875A1.378,1.378,0,0,0,38.789-1.664ZM43.266-4.3a5.013,5.013,0,0,1,.484-2.242A3.546,3.546,0,0,1,45.145-8.07a4.069,4.069,0,0,1,2.113-.539,3.849,3.849,0,0,1,2.793,1.047,4.2,4.2,0,0,1,1.207,2.844l.016.578A4.418,4.418,0,0,1,50.188-1.02,3.775,3.775,0,0,1,47.273.156a3.793,3.793,0,0,1-2.918-1.172A4.5,4.5,0,0,1,43.266-4.2Zm2.258.164a3.151,3.151,0,0,0,.453,1.84,1.5,1.5,0,0,0,1.3.637,1.5,1.5,0,0,0,1.281-.629A3.448,3.448,0,0,0,49.016-4.3a3.12,3.12,0,0,0-.461-1.828,1.5,1.5,0,0,0-1.3-.648,1.475,1.475,0,0,0-1.281.645A3.506,3.506,0,0,0,45.523-4.141Z" transform="translate(374.102 14928)" fill="#12263f"/>
    <path id="Trazado_899866" data-name="Trazado 899866" d="M-46.57-4.164h-1.867V0h-2.344V-11.375h4.227a4.778,4.778,0,0,1,3.109.9,3.1,3.1,0,0,1,1.094,2.539A3.5,3.5,0,0,1-42.855-6a3.437,3.437,0,0,1-1.527,1.238l2.461,4.648V0h-2.516Zm-1.867-1.9h1.891a1.936,1.936,0,0,0,1.367-.449A1.606,1.606,0,0,0-44.7-7.75a1.719,1.719,0,0,0-.457-1.266,1.9,1.9,0,0,0-1.4-.461h-1.883ZM-35.82,0a2.507,2.507,0,0,1-.227-.758A2.732,2.732,0,0,1-38.18.156a3,3,0,0,1-2.059-.719,2.312,2.312,0,0,1-.816-1.812,2.389,2.389,0,0,1,1-2.062,4.915,4.915,0,0,1,2.879-.727h1.039v-.484a1.393,1.393,0,0,0-.3-.937,1.183,1.183,0,0,0-.949-.352,1.345,1.345,0,0,0-.895.273.929.929,0,0,0-.324.75h-2.258a2.268,2.268,0,0,1,.453-1.359,3,3,0,0,1,1.281-.98,4.669,4.669,0,0,1,1.859-.355,3.689,3.689,0,0,1,2.48.785,2.747,2.747,0,0,1,.918,2.207v3.664a4.041,4.041,0,0,0,.336,1.82V0Zm-1.867-1.57a1.945,1.945,0,0,0,.922-.223,1.462,1.462,0,0,0,.625-.6V-3.844h-.844q-1.7,0-1.8,1.172l-.008.133a.9.9,0,0,0,.3.7A1.153,1.153,0,0,0-37.687-1.57Zm5.2-2.719a5.094,5.094,0,0,1,.887-3.148A2.877,2.877,0,0,1-29.18-8.609a2.589,2.589,0,0,1,2.039.922V-12h2.266V0h-2.039l-.109-.9A2.657,2.657,0,0,1-29.2.156,2.869,2.869,0,0,1-31.59-1.02,5.258,5.258,0,0,1-32.492-4.289Zm2.258.164A3.328,3.328,0,0,0-29.82-2.3a1.349,1.349,0,0,0,1.2.633,1.511,1.511,0,0,0,1.477-.883V-5.891A1.489,1.489,0,0,0-28.6-6.773Q-30.234-6.773-30.234-4.125ZM-20.742,0h-2.266V-8.453h2.266Zm-2.4-10.641a1.112,1.112,0,0,1,.34-.836,1.277,1.277,0,0,1,.926-.328,1.28,1.28,0,0,1,.922.328,1.105,1.105,0,0,1,.344.836,1.108,1.108,0,0,1-.348.844,1.283,1.283,0,0,1-.918.328,1.283,1.283,0,0,1-.918-.328A1.108,1.108,0,0,1-23.141-10.641ZM-19.234-4.3a5.013,5.013,0,0,1,.484-2.242A3.546,3.546,0,0,1-17.355-8.07a4.069,4.069,0,0,1,2.113-.539,3.849,3.849,0,0,1,2.793,1.047,4.2,4.2,0,0,1,1.207,2.844l.016.578A4.418,4.418,0,0,1-12.312-1.02,3.775,3.775,0,0,1-15.227.156a3.793,3.793,0,0,1-2.918-1.172A4.5,4.5,0,0,1-19.234-4.2Zm2.258.164a3.151,3.151,0,0,0,.453,1.84,1.5,1.5,0,0,0,1.3.637,1.5,1.5,0,0,0,1.281-.629A3.448,3.448,0,0,0-13.484-4.3a3.12,3.12,0,0,0-.461-1.828,1.5,1.5,0,0,0-1.3-.648,1.475,1.475,0,0,0-1.281.645A3.506,3.506,0,0,0-16.977-4.141ZM-.953,0A2.507,2.507,0,0,1-1.18-.758,2.732,2.732,0,0,1-3.312.156,3,3,0,0,1-5.371-.562a2.312,2.312,0,0,1-.816-1.812,2.389,2.389,0,0,1,1-2.062,4.915,4.915,0,0,1,2.879-.727h1.039v-.484a1.393,1.393,0,0,0-.3-.937,1.183,1.183,0,0,0-.949-.352,1.345,1.345,0,0,0-.895.273.929.929,0,0,0-.324.75H-6a2.268,2.268,0,0,1,.453-1.359,3,3,0,0,1,1.281-.98,4.669,4.669,0,0,1,1.859-.355,3.689,3.689,0,0,1,2.48.785A2.747,2.747,0,0,1,.992-5.617v3.664a4.041,4.041,0,0,0,.336,1.82V0ZM-2.82-1.57A1.945,1.945,0,0,0-1.9-1.793a1.462,1.462,0,0,0,.625-.6V-3.844h-.844q-1.7,0-1.8,1.172l-.008.133a.9.9,0,0,0,.3.7A1.153,1.153,0,0,0-2.82-1.57Zm8.25-8.961v2.078H6.875V-6.8H5.43v4.219a1.007,1.007,0,0,0,.18.672.9.9,0,0,0,.688.2,3.6,3.6,0,0,0,.664-.055V-.047a4.648,4.648,0,0,1-1.367.2,2.156,2.156,0,0,1-2.422-2.4V-6.8H1.938V-8.453H3.172v-2.078ZM7.781-4.3a5.013,5.013,0,0,1,.484-2.242A3.546,3.546,0,0,1,9.66-8.07a4.069,4.069,0,0,1,2.113-.539,3.849,3.849,0,0,1,2.793,1.047,4.2,4.2,0,0,1,1.207,2.844l.016.578A4.418,4.418,0,0,1,14.7-1.02,3.775,3.775,0,0,1,11.789.156,3.793,3.793,0,0,1,8.871-1.016,4.5,4.5,0,0,1,7.781-4.2Zm2.258.164a3.151,3.151,0,0,0,.453,1.84,1.5,1.5,0,0,0,1.3.637,1.5,1.5,0,0,0,1.281-.629A3.448,3.448,0,0,0,13.531-4.3a3.12,3.12,0,0,0-.461-1.828,1.5,1.5,0,0,0-1.3-.648,1.475,1.475,0,0,0-1.281.645A3.506,3.506,0,0,0,10.039-4.141ZM12.219-12H14.68L12.516-9.578H10.68ZM19.3-8.453l.07.945a2.971,2.971,0,0,1,2.43-1.1A2.255,2.255,0,0,1,24.039-7.32a2.9,2.9,0,0,1,2.539-1.289,2.521,2.521,0,0,1,2.047.8A3.681,3.681,0,0,1,29.3-5.4V0H27.031V-5.391a1.61,1.61,0,0,0-.281-1.051,1.246,1.246,0,0,0-.992-.332,1.409,1.409,0,0,0-1.406.969L24.359,0H22.1V-5.383a1.59,1.59,0,0,0-.289-1.062,1.259,1.259,0,0,0-.984-.328,1.463,1.463,0,0,0-1.391.8V0H17.18V-8.453ZM33.414,0H31.148V-8.453h2.266Zm-2.4-10.641a1.112,1.112,0,0,1,.34-.836,1.277,1.277,0,0,1,.926-.328,1.28,1.28,0,0,1,.922.328,1.105,1.105,0,0,1,.344.836A1.108,1.108,0,0,1,33.2-9.8a1.283,1.283,0,0,1-.918.328,1.283,1.283,0,0,1-.918-.328A1.108,1.108,0,0,1,31.016-10.641Zm7.773,8.977A1.481,1.481,0,0,0,39.8-2.008a1.2,1.2,0,0,0,.406-.914h2.117a2.9,2.9,0,0,1-.469,1.574A3.093,3.093,0,0,1,40.6-.238a3.949,3.949,0,0,1-1.77.395A3.67,3.67,0,0,1,35.969-1,4.56,4.56,0,0,1,34.922-4.18v-.148a4.508,4.508,0,0,1,1.039-3.117,3.627,3.627,0,0,1,2.852-1.164,3.555,3.555,0,0,1,2.543.9,3.2,3.2,0,0,1,.973,2.4H40.211A1.539,1.539,0,0,0,39.8-6.371a1.358,1.358,0,0,0-1.031-.41,1.361,1.361,0,0,0-1.191.574,3.324,3.324,0,0,0-.4,1.863v.234a3.366,3.366,0,0,0,.4,1.875A1.378,1.378,0,0,0,38.789-1.664ZM43.266-4.3a5.013,5.013,0,0,1,.484-2.242A3.546,3.546,0,0,1,45.145-8.07a4.069,4.069,0,0,1,2.113-.539,3.849,3.849,0,0,1,2.793,1.047,4.2,4.2,0,0,1,1.207,2.844l.016.578A4.418,4.418,0,0,1,50.188-1.02,3.775,3.775,0,0,1,47.273.156a3.793,3.793,0,0,1-2.918-1.172A4.5,4.5,0,0,1,43.266-4.2Zm2.258.164a3.151,3.151,0,0,0,.453,1.84,1.5,1.5,0,0,0,1.3.637,1.5,1.5,0,0,0,1.281-.629A3.448,3.448,0,0,0,49.016-4.3a3.12,3.12,0,0,0-.461-1.828,1.5,1.5,0,0,0-1.3-.648,1.475,1.475,0,0,0-1.281.645A3.506,3.506,0,0,0,45.523-4.141Z" transform="translate(374.102 15141)" fill="#12263f"/>
    <path id="Trazado_899867" data-name="Trazado 899867" d="M-24.613-2.969h-4.766L-30.449,0H-32l4.344-11.375h1.313L-21.988,0h-1.539ZM-28.926-4.2h3.867L-27-9.523ZM-15.551-.836a3.07,3.07,0,0,1-2.477.992,2.628,2.628,0,0,1-2.059-.785A3.4,3.4,0,0,1-20.8-2.953v-5.5h1.445v5.461q0,1.922,1.563,1.922A2.163,2.163,0,0,0-15.59-2.3V-8.453h1.445V0H-15.52Zm4.961-7.617.039.938A3.122,3.122,0,0,1-8.043-8.609,2.417,2.417,0,0,1-5.629-7.25a3.2,3.2,0,0,1,1.1-.984,3.242,3.242,0,0,1,1.6-.375q2.781,0,2.828,2.945V0H-1.551V-5.578a1.941,1.941,0,0,0-.414-1.355,1.823,1.823,0,0,0-1.391-.449,1.916,1.916,0,0,0-1.336.48,1.949,1.949,0,0,0-.617,1.293V0H-6.762V-5.539a1.613,1.613,0,0,0-1.8-1.844,1.934,1.934,0,0,0-1.945,1.211V0h-1.445V-8.453ZM5.582.156a3.693,3.693,0,0,1-2.8-1.129,4.19,4.19,0,0,1-1.078-3.02v-.266A5.073,5.073,0,0,1,2.188-6.5,3.748,3.748,0,0,1,3.531-8.051,3.378,3.378,0,0,1,5.4-8.609,3.166,3.166,0,0,1,7.965-7.523a4.7,4.7,0,0,1,.914,3.109v.6H3.152a3,3,0,0,0,.73,2.02,2.3,2.3,0,0,0,1.777.77,2.517,2.517,0,0,0,1.3-.312,3.259,3.259,0,0,0,.93-.828l.883.688A3.55,3.55,0,0,1,5.582.156ZM5.4-7.422a1.928,1.928,0,0,0-1.469.637A3.1,3.1,0,0,0,3.2-5H7.434v-.109A2.753,2.753,0,0,0,6.84-6.816,1.815,1.815,0,0,0,5.4-7.422Zm6.516-1.031.047,1.063A3.08,3.08,0,0,1,14.5-8.609q2.68,0,2.7,3.023V0H15.754V-5.594a1.946,1.946,0,0,0-.418-1.352,1.675,1.675,0,0,0-1.277-.437,2.086,2.086,0,0,0-1.234.375A2.546,2.546,0,0,0,12-6.023V0H10.551V-8.453ZM21.34-10.5v2.047h1.578v1.117H21.34v5.242a1.171,1.171,0,0,0,.211.762.888.888,0,0,0,.719.254,3.5,3.5,0,0,0,.688-.094V0a4.19,4.19,0,0,1-1.109.156A1.8,1.8,0,0,1,20.387-.43a2.517,2.517,0,0,1-.492-1.664V-7.336H18.355V-8.453h1.539V-10.5ZM29.824,0a3.036,3.036,0,0,1-.2-.891A3.225,3.225,0,0,1,27.215.156a2.984,2.984,0,0,1-2.051-.707,2.287,2.287,0,0,1-.8-1.793,2.39,2.39,0,0,1,1-2.051,4.733,4.733,0,0,1,2.824-.73H29.6v-.664A1.623,1.623,0,0,0,29.145-7a1.821,1.821,0,0,0-1.336-.449,2.108,2.108,0,0,0-1.3.391,1.151,1.151,0,0,0-.523.945H24.535a2,2,0,0,1,.449-1.223A3.066,3.066,0,0,1,26.2-8.266a4.1,4.1,0,0,1,1.691-.344,3.342,3.342,0,0,1,2.289.73,2.635,2.635,0,0,1,.859,2.012v3.891a4.757,4.757,0,0,0,.3,1.852V0Zm-2.4-1.1a2.54,2.54,0,0,0,1.289-.352,2.127,2.127,0,0,0,.883-.914V-4.1H28.465q-2.656,0-2.656,1.555a1.316,1.316,0,0,0,.453,1.063A1.742,1.742,0,0,0,27.426-1.1Z" transform="translate(374.102 15050)" fill="#12263f"/>
    <path id="Trazado_899868" data-name="Trazado 899868" d="M-24.613-2.969h-4.766L-30.449,0H-32l4.344-11.375h1.313L-21.988,0h-1.539ZM-28.926-4.2h3.867L-27-9.523ZM-15.551-.836a3.07,3.07,0,0,1-2.477.992,2.628,2.628,0,0,1-2.059-.785A3.4,3.4,0,0,1-20.8-2.953v-5.5h1.445v5.461q0,1.922,1.563,1.922A2.163,2.163,0,0,0-15.59-2.3V-8.453h1.445V0H-15.52Zm4.961-7.617.039.938A3.122,3.122,0,0,1-8.043-8.609,2.417,2.417,0,0,1-5.629-7.25a3.2,3.2,0,0,1,1.1-.984,3.242,3.242,0,0,1,1.6-.375q2.781,0,2.828,2.945V0H-1.551V-5.578a1.941,1.941,0,0,0-.414-1.355,1.823,1.823,0,0,0-1.391-.449,1.916,1.916,0,0,0-1.336.48,1.949,1.949,0,0,0-.617,1.293V0H-6.762V-5.539a1.613,1.613,0,0,0-1.8-1.844,1.934,1.934,0,0,0-1.945,1.211V0h-1.445V-8.453ZM5.582.156a3.693,3.693,0,0,1-2.8-1.129,4.19,4.19,0,0,1-1.078-3.02v-.266A5.073,5.073,0,0,1,2.188-6.5,3.748,3.748,0,0,1,3.531-8.051,3.378,3.378,0,0,1,5.4-8.609,3.166,3.166,0,0,1,7.965-7.523a4.7,4.7,0,0,1,.914,3.109v.6H3.152a3,3,0,0,0,.73,2.02,2.3,2.3,0,0,0,1.777.77,2.517,2.517,0,0,0,1.3-.312,3.259,3.259,0,0,0,.93-.828l.883.688A3.55,3.55,0,0,1,5.582.156ZM5.4-7.422a1.928,1.928,0,0,0-1.469.637A3.1,3.1,0,0,0,3.2-5H7.434v-.109A2.753,2.753,0,0,0,6.84-6.816,1.815,1.815,0,0,0,5.4-7.422Zm6.516-1.031.047,1.063A3.08,3.08,0,0,1,14.5-8.609q2.68,0,2.7,3.023V0H15.754V-5.594a1.946,1.946,0,0,0-.418-1.352,1.675,1.675,0,0,0-1.277-.437,2.086,2.086,0,0,0-1.234.375A2.546,2.546,0,0,0,12-6.023V0H10.551V-8.453ZM21.34-10.5v2.047h1.578v1.117H21.34v5.242a1.171,1.171,0,0,0,.211.762.888.888,0,0,0,.719.254,3.5,3.5,0,0,0,.688-.094V0a4.19,4.19,0,0,1-1.109.156A1.8,1.8,0,0,1,20.387-.43a2.517,2.517,0,0,1-.492-1.664V-7.336H18.355V-8.453h1.539V-10.5ZM29.824,0a3.036,3.036,0,0,1-.2-.891A3.225,3.225,0,0,1,27.215.156a2.984,2.984,0,0,1-2.051-.707,2.287,2.287,0,0,1-.8-1.793,2.39,2.39,0,0,1,1-2.051,4.733,4.733,0,0,1,2.824-.73H29.6v-.664A1.623,1.623,0,0,0,29.145-7a1.821,1.821,0,0,0-1.336-.449,2.108,2.108,0,0,0-1.3.391,1.151,1.151,0,0,0-.523.945H24.535a2,2,0,0,1,.449-1.223A3.066,3.066,0,0,1,26.2-8.266a4.1,4.1,0,0,1,1.691-.344,3.342,3.342,0,0,1,2.289.73,2.635,2.635,0,0,1,.859,2.012v3.891a4.757,4.757,0,0,0,.3,1.852V0Zm-2.4-1.1a2.54,2.54,0,0,0,1.289-.352,2.127,2.127,0,0,0,.883-.914V-4.1H28.465q-2.656,0-2.656,1.555a1.316,1.316,0,0,0,.453,1.063A1.742,1.742,0,0,0,27.426-1.1Z" transform="translate(654.102 15050)" fill="#12263f"/>
    <path id="Trazado_899869" data-name="Trazado 899869" d="M-24.613-2.969h-4.766L-30.449,0H-32l4.344-11.375h1.313L-21.988,0h-1.539ZM-28.926-4.2h3.867L-27-9.523ZM-15.551-.836a3.07,3.07,0,0,1-2.477.992,2.628,2.628,0,0,1-2.059-.785A3.4,3.4,0,0,1-20.8-2.953v-5.5h1.445v5.461q0,1.922,1.563,1.922A2.163,2.163,0,0,0-15.59-2.3V-8.453h1.445V0H-15.52Zm4.961-7.617.039.938A3.122,3.122,0,0,1-8.043-8.609,2.417,2.417,0,0,1-5.629-7.25a3.2,3.2,0,0,1,1.1-.984,3.242,3.242,0,0,1,1.6-.375q2.781,0,2.828,2.945V0H-1.551V-5.578a1.941,1.941,0,0,0-.414-1.355,1.823,1.823,0,0,0-1.391-.449,1.916,1.916,0,0,0-1.336.48,1.949,1.949,0,0,0-.617,1.293V0H-6.762V-5.539a1.613,1.613,0,0,0-1.8-1.844,1.934,1.934,0,0,0-1.945,1.211V0h-1.445V-8.453ZM5.582.156a3.693,3.693,0,0,1-2.8-1.129,4.19,4.19,0,0,1-1.078-3.02v-.266A5.073,5.073,0,0,1,2.188-6.5,3.748,3.748,0,0,1,3.531-8.051,3.378,3.378,0,0,1,5.4-8.609,3.166,3.166,0,0,1,7.965-7.523a4.7,4.7,0,0,1,.914,3.109v.6H3.152a3,3,0,0,0,.73,2.02,2.3,2.3,0,0,0,1.777.77,2.517,2.517,0,0,0,1.3-.312,3.259,3.259,0,0,0,.93-.828l.883.688A3.55,3.55,0,0,1,5.582.156ZM5.4-7.422a1.928,1.928,0,0,0-1.469.637A3.1,3.1,0,0,0,3.2-5H7.434v-.109A2.753,2.753,0,0,0,6.84-6.816,1.815,1.815,0,0,0,5.4-7.422Zm6.516-1.031.047,1.063A3.08,3.08,0,0,1,14.5-8.609q2.68,0,2.7,3.023V0H15.754V-5.594a1.946,1.946,0,0,0-.418-1.352,1.675,1.675,0,0,0-1.277-.437,2.086,2.086,0,0,0-1.234.375A2.546,2.546,0,0,0,12-6.023V0H10.551V-8.453ZM21.34-10.5v2.047h1.578v1.117H21.34v5.242a1.171,1.171,0,0,0,.211.762.888.888,0,0,0,.719.254,3.5,3.5,0,0,0,.688-.094V0a4.19,4.19,0,0,1-1.109.156A1.8,1.8,0,0,1,20.387-.43a2.517,2.517,0,0,1-.492-1.664V-7.336H18.355V-8.453h1.539V-10.5ZM29.824,0a3.036,3.036,0,0,1-.2-.891A3.225,3.225,0,0,1,27.215.156a2.984,2.984,0,0,1-2.051-.707,2.287,2.287,0,0,1-.8-1.793,2.39,2.39,0,0,1,1-2.051,4.733,4.733,0,0,1,2.824-.73H29.6v-.664A1.623,1.623,0,0,0,29.145-7a1.821,1.821,0,0,0-1.336-.449,2.108,2.108,0,0,0-1.3.391,1.151,1.151,0,0,0-.523.945H24.535a2,2,0,0,1,.449-1.223A3.066,3.066,0,0,1,26.2-8.266a4.1,4.1,0,0,1,1.691-.344,3.342,3.342,0,0,1,2.289.73,2.635,2.635,0,0,1,.859,2.012v3.891a4.757,4.757,0,0,0,.3,1.852V0Zm-2.4-1.1a2.54,2.54,0,0,0,1.289-.352,2.127,2.127,0,0,0,.883-.914V-4.1H28.465q-2.656,0-2.656,1.555a1.316,1.316,0,0,0,.453,1.063A1.742,1.742,0,0,0,27.426-1.1Z" transform="translate(938.102 15050)" fill="#12263f"/>
    <path id="Trazado_899870" data-name="Trazado 899870" d="M-24.613-2.969h-4.766L-30.449,0H-32l4.344-11.375h1.313L-21.988,0h-1.539ZM-28.926-4.2h3.867L-27-9.523ZM-15.551-.836a3.07,3.07,0,0,1-2.477.992,2.628,2.628,0,0,1-2.059-.785A3.4,3.4,0,0,1-20.8-2.953v-5.5h1.445v5.461q0,1.922,1.563,1.922A2.163,2.163,0,0,0-15.59-2.3V-8.453h1.445V0H-15.52Zm4.961-7.617.039.938A3.122,3.122,0,0,1-8.043-8.609,2.417,2.417,0,0,1-5.629-7.25a3.2,3.2,0,0,1,1.1-.984,3.242,3.242,0,0,1,1.6-.375q2.781,0,2.828,2.945V0H-1.551V-5.578a1.941,1.941,0,0,0-.414-1.355,1.823,1.823,0,0,0-1.391-.449,1.916,1.916,0,0,0-1.336.48,1.949,1.949,0,0,0-.617,1.293V0H-6.762V-5.539a1.613,1.613,0,0,0-1.8-1.844,1.934,1.934,0,0,0-1.945,1.211V0h-1.445V-8.453ZM5.582.156a3.693,3.693,0,0,1-2.8-1.129,4.19,4.19,0,0,1-1.078-3.02v-.266A5.073,5.073,0,0,1,2.188-6.5,3.748,3.748,0,0,1,3.531-8.051,3.378,3.378,0,0,1,5.4-8.609,3.166,3.166,0,0,1,7.965-7.523a4.7,4.7,0,0,1,.914,3.109v.6H3.152a3,3,0,0,0,.73,2.02,2.3,2.3,0,0,0,1.777.77,2.517,2.517,0,0,0,1.3-.312,3.259,3.259,0,0,0,.93-.828l.883.688A3.55,3.55,0,0,1,5.582.156ZM5.4-7.422a1.928,1.928,0,0,0-1.469.637A3.1,3.1,0,0,0,3.2-5H7.434v-.109A2.753,2.753,0,0,0,6.84-6.816,1.815,1.815,0,0,0,5.4-7.422Zm6.516-1.031.047,1.063A3.08,3.08,0,0,1,14.5-8.609q2.68,0,2.7,3.023V0H15.754V-5.594a1.946,1.946,0,0,0-.418-1.352,1.675,1.675,0,0,0-1.277-.437,2.086,2.086,0,0,0-1.234.375A2.546,2.546,0,0,0,12-6.023V0H10.551V-8.453ZM21.34-10.5v2.047h1.578v1.117H21.34v5.242a1.171,1.171,0,0,0,.211.762.888.888,0,0,0,.719.254,3.5,3.5,0,0,0,.688-.094V0a4.19,4.19,0,0,1-1.109.156A1.8,1.8,0,0,1,20.387-.43a2.517,2.517,0,0,1-.492-1.664V-7.336H18.355V-8.453h1.539V-10.5ZM29.824,0a3.036,3.036,0,0,1-.2-.891A3.225,3.225,0,0,1,27.215.156a2.984,2.984,0,0,1-2.051-.707,2.287,2.287,0,0,1-.8-1.793,2.39,2.39,0,0,1,1-2.051,4.733,4.733,0,0,1,2.824-.73H29.6v-.664A1.623,1.623,0,0,0,29.145-7a1.821,1.821,0,0,0-1.336-.449,2.108,2.108,0,0,0-1.3.391,1.151,1.151,0,0,0-.523.945H24.535a2,2,0,0,1,.449-1.223A3.066,3.066,0,0,1,26.2-8.266a4.1,4.1,0,0,1,1.691-.344,3.342,3.342,0,0,1,2.289.73,2.635,2.635,0,0,1,.859,2.012v3.891a4.757,4.757,0,0,0,.3,1.852V0Zm-2.4-1.1a2.54,2.54,0,0,0,1.289-.352,2.127,2.127,0,0,0,.883-.914V-4.1H28.465q-2.656,0-2.656,1.555a1.316,1.316,0,0,0,.453,1.063A1.742,1.742,0,0,0,27.426-1.1Z" transform="translate(1215.102 15050)" fill="#12263f"/>
    <path id="Trazado_899871" data-name="Trazado 899871" d="M-64.859-2.344h-4.109L-69.75,0h-2.492l4.234-11.375h2.172L-61.578,0H-64.07Zm-3.477-1.9h2.844L-66.922-8.5ZM-60.117,0V-6.8h-1.258V-8.453h1.258v-.391a3.17,3.17,0,0,1,.98-2.457,3.945,3.945,0,0,1,2.723-.863,9.031,9.031,0,0,1,2.563.461l-.328,1.867a10,10,0,0,0-1.187-.293,5.835,5.835,0,0,0-.906-.066q-1.578,0-1.578,1.4v.344h1.664V-6.8h-1.664V0Zm7.32,0h-2.266V-8.453H-52.8Zm3.945-8.453.07.977a2.951,2.951,0,0,1,2.43-1.133,2.453,2.453,0,0,1,2,.789,3.682,3.682,0,0,1,.672,2.359V0h-2.258V-5.406a1.465,1.465,0,0,0-.312-1.043,1.4,1.4,0,0,0-1.039-.324,1.553,1.553,0,0,0-1.43.813V0h-2.258V-8.453ZM-39.586,0h-2.266V-8.453h2.266Zm-2.4-10.641a1.112,1.112,0,0,1,.34-.836,1.277,1.277,0,0,1,.926-.328,1.28,1.28,0,0,1,.922.328,1.105,1.105,0,0,1,.344.836A1.108,1.108,0,0,1-39.8-9.8a1.283,1.283,0,0,1-.918.328,1.283,1.283,0,0,1-.918-.328A1.108,1.108,0,0,1-41.984-10.641Zm3.906,6.352a5.094,5.094,0,0,1,.887-3.148,2.877,2.877,0,0,1,2.426-1.172,2.589,2.589,0,0,1,2.039.922V-12h2.266V0H-32.5l-.109-.9A2.657,2.657,0,0,1-34.781.156,2.869,2.869,0,0,1-37.176-1.02,5.258,5.258,0,0,1-38.078-4.289Zm2.258.164a3.328,3.328,0,0,0,.414,1.82,1.349,1.349,0,0,0,1.2.633,1.511,1.511,0,0,0,1.477-.883V-5.891a1.489,1.489,0,0,0-1.461-.883Q-35.82-6.773-35.82-4.125ZM-23.812,0a2.507,2.507,0,0,1-.227-.758,2.732,2.732,0,0,1-2.133.914A3,3,0,0,1-28.23-.562a2.312,2.312,0,0,1-.816-1.812,2.389,2.389,0,0,1,1-2.062,4.915,4.915,0,0,1,2.879-.727h1.039v-.484a1.393,1.393,0,0,0-.3-.937,1.183,1.183,0,0,0-.949-.352,1.345,1.345,0,0,0-.895.273.929.929,0,0,0-.324.75h-2.258a2.268,2.268,0,0,1,.453-1.359,3,3,0,0,1,1.281-.98,4.669,4.669,0,0,1,1.859-.355,3.689,3.689,0,0,1,2.48.785,2.747,2.747,0,0,1,.918,2.207v3.664a4.041,4.041,0,0,0,.336,1.82V0ZM-25.68-1.57a1.945,1.945,0,0,0,.922-.223,1.462,1.462,0,0,0,.625-.6V-3.844h-.844q-1.7,0-1.8,1.172l-.008.133a.9.9,0,0,0,.3.7A1.153,1.153,0,0,0-25.68-1.57Zm5.2-2.719A5.094,5.094,0,0,1-19.6-7.437a2.877,2.877,0,0,1,2.426-1.172,2.589,2.589,0,0,1,2.039.922V-12h2.266V0h-2.039l-.109-.9A2.657,2.657,0,0,1-17.187.156,2.869,2.869,0,0,1-19.582-1.02,5.258,5.258,0,0,1-20.484-4.289Zm2.258.164a3.328,3.328,0,0,0,.414,1.82,1.349,1.349,0,0,0,1.2.633,1.511,1.511,0,0,0,1.477-.883V-5.891a1.489,1.489,0,0,0-1.461-.883Q-18.227-6.773-18.227-4.125ZM-3.242.156A4.15,4.15,0,0,1-6.27-.984,4.054,4.054,0,0,1-7.437-4.023v-.219A5.106,5.106,0,0,1-6.945-6.52,3.612,3.612,0,0,1-5.551-8.066a3.914,3.914,0,0,1,2.059-.543A3.508,3.508,0,0,1-.762-7.516a4.444,4.444,0,0,1,1,3.1v.922H-5.148a2.1,2.1,0,0,0,.66,1.328,2,2,0,0,0,1.395.5,2.437,2.437,0,0,0,2.039-.945L.055-1.367A3.389,3.389,0,0,1-1.32-.246,4.511,4.511,0,0,1-3.242.156ZM-3.5-6.781a1.414,1.414,0,0,0-1.09.453,2.341,2.341,0,0,0-.535,1.3h3.141v-.18a1.669,1.669,0,0,0-.406-1.16A1.459,1.459,0,0,0-3.5-6.781ZM3.9,0H1.633V-12H3.9Zm5.75.156A4.15,4.15,0,0,1,6.621-.984,4.054,4.054,0,0,1,5.453-4.023v-.219A5.106,5.106,0,0,1,5.945-6.52,3.612,3.612,0,0,1,7.34-8.066,3.914,3.914,0,0,1,9.4-8.609a3.508,3.508,0,0,1,2.73,1.094,4.444,4.444,0,0,1,1,3.1v.922H7.742A2.1,2.1,0,0,0,8.4-2.164a2,2,0,0,0,1.395.5,2.437,2.437,0,0,0,2.039-.945l1.109,1.242A3.389,3.389,0,0,1,11.57-.246,4.511,4.511,0,0,1,9.648.156ZM9.391-6.781a1.414,1.414,0,0,0-1.09.453,2.341,2.341,0,0,0-.535,1.3h3.141v-.18a1.669,1.669,0,0,0-.406-1.16A1.459,1.459,0,0,0,9.391-6.781Zm8.531,5.117a1.481,1.481,0,0,0,1.016-.344,1.2,1.2,0,0,0,.406-.914h2.117a2.9,2.9,0,0,1-.469,1.574A3.093,3.093,0,0,1,19.73-.238a3.949,3.949,0,0,1-1.77.395A3.67,3.67,0,0,1,15.1-1,4.56,4.56,0,0,1,14.055-4.18v-.148a4.508,4.508,0,0,1,1.039-3.117,3.627,3.627,0,0,1,2.852-1.164,3.555,3.555,0,0,1,2.543.9,3.2,3.2,0,0,1,.973,2.4H19.344a1.539,1.539,0,0,0-.406-1.066,1.358,1.358,0,0,0-1.031-.41,1.361,1.361,0,0,0-1.191.574,3.324,3.324,0,0,0-.4,1.863v.234a3.366,3.366,0,0,0,.4,1.875A1.378,1.378,0,0,0,17.922-1.664Zm7.531-8.867v2.078H26.9V-6.8H25.453v4.219a1.007,1.007,0,0,0,.18.672.9.9,0,0,0,.688.2,3.6,3.6,0,0,0,.664-.055V-.047a4.648,4.648,0,0,1-1.367.2,2.156,2.156,0,0,1-2.422-2.4V-6.8H21.961V-8.453H23.2v-2.078Zm7.453,4.2a6.134,6.134,0,0,0-.812-.062,1.654,1.654,0,0,0-1.68.867V0H28.156V-8.453h2.133l.063,1.008a2.092,2.092,0,0,1,1.883-1.164,2.366,2.366,0,0,1,.7.1ZM33.641-4.3a5.013,5.013,0,0,1,.484-2.242A3.546,3.546,0,0,1,35.52-8.07a4.069,4.069,0,0,1,2.113-.539,3.849,3.849,0,0,1,2.793,1.047,4.2,4.2,0,0,1,1.207,2.844l.016.578A4.418,4.418,0,0,1,40.563-1.02,3.775,3.775,0,0,1,37.648.156,3.793,3.793,0,0,1,34.73-1.016,4.5,4.5,0,0,1,33.641-4.2Zm2.258.164a3.151,3.151,0,0,0,.453,1.84,1.5,1.5,0,0,0,1.3.637,1.5,1.5,0,0,0,1.281-.629A3.448,3.448,0,0,0,39.391-4.3a3.12,3.12,0,0,0-.461-1.828,1.5,1.5,0,0,0-1.3-.648,1.475,1.475,0,0,0-1.281.645A3.506,3.506,0,0,0,35.9-4.141ZM38.078-12h2.461L38.375-9.578H36.539Zm7.039,3.547.07.977a2.951,2.951,0,0,1,2.43-1.133,2.453,2.453,0,0,1,2,.789,3.682,3.682,0,0,1,.672,2.359V0H48.031V-5.406a1.465,1.465,0,0,0-.312-1.043,1.4,1.4,0,0,0-1.039-.324,1.553,1.553,0,0,0-1.43.813V0H42.992V-8.453ZM54.383,0H52.117V-8.453h2.266Zm-2.4-10.641a1.112,1.112,0,0,1,.34-.836,1.277,1.277,0,0,1,.926-.328,1.28,1.28,0,0,1,.922.328,1.105,1.105,0,0,1,.344.836,1.108,1.108,0,0,1-.348.844,1.283,1.283,0,0,1-.918.328,1.283,1.283,0,0,1-.918-.328A1.108,1.108,0,0,1,51.984-10.641Zm7.773,8.977a1.481,1.481,0,0,0,1.016-.344,1.2,1.2,0,0,0,.406-.914H63.3a2.9,2.9,0,0,1-.469,1.574A3.093,3.093,0,0,1,61.566-.238,3.949,3.949,0,0,1,59.8.156,3.67,3.67,0,0,1,56.938-1,4.56,4.56,0,0,1,55.891-4.18v-.148A4.508,4.508,0,0,1,56.93-7.445a3.627,3.627,0,0,1,2.852-1.164,3.555,3.555,0,0,1,2.543.9A3.2,3.2,0,0,1,63.3-5.3H61.18a1.539,1.539,0,0,0-.406-1.066,1.358,1.358,0,0,0-1.031-.41,1.361,1.361,0,0,0-1.191.574,3.324,3.324,0,0,0-.4,1.863v.234a3.366,3.366,0,0,0,.4,1.875A1.378,1.378,0,0,0,59.758-1.664ZM69.484,0a2.507,2.507,0,0,1-.227-.758,2.732,2.732,0,0,1-2.133.914,3,3,0,0,1-2.059-.719,2.312,2.312,0,0,1-.816-1.812,2.389,2.389,0,0,1,1-2.062,4.915,4.915,0,0,1,2.879-.727h1.039v-.484a1.393,1.393,0,0,0-.3-.937,1.183,1.183,0,0,0-.949-.352,1.345,1.345,0,0,0-.895.273.929.929,0,0,0-.324.75H64.438a2.268,2.268,0,0,1,.453-1.359,3,3,0,0,1,1.281-.98,4.669,4.669,0,0,1,1.859-.355,3.689,3.689,0,0,1,2.48.785,2.747,2.747,0,0,1,.918,2.207v3.664a4.041,4.041,0,0,0,.336,1.82V0ZM67.617-1.57a1.945,1.945,0,0,0,.922-.223,1.462,1.462,0,0,0,.625-.6V-3.844H68.32q-1.7,0-1.8,1.172l-.008.133a.9.9,0,0,0,.3.7A1.153,1.153,0,0,0,67.617-1.57Z" transform="translate(655.102 14928)" fill="#12263f"/>
    <path id="Trazado_899872" data-name="Trazado 899872" d="M-64.859-2.344h-4.109L-69.75,0h-2.492l4.234-11.375h2.172L-61.578,0H-64.07Zm-3.477-1.9h2.844L-66.922-8.5ZM-60.117,0V-6.8h-1.258V-8.453h1.258v-.391a3.17,3.17,0,0,1,.98-2.457,3.945,3.945,0,0,1,2.723-.863,9.031,9.031,0,0,1,2.563.461l-.328,1.867a10,10,0,0,0-1.187-.293,5.835,5.835,0,0,0-.906-.066q-1.578,0-1.578,1.4v.344h1.664V-6.8h-1.664V0Zm7.32,0h-2.266V-8.453H-52.8Zm3.945-8.453.07.977a2.951,2.951,0,0,1,2.43-1.133,2.453,2.453,0,0,1,2,.789,3.682,3.682,0,0,1,.672,2.359V0h-2.258V-5.406a1.465,1.465,0,0,0-.312-1.043,1.4,1.4,0,0,0-1.039-.324,1.553,1.553,0,0,0-1.43.813V0h-2.258V-8.453ZM-39.586,0h-2.266V-8.453h2.266Zm-2.4-10.641a1.112,1.112,0,0,1,.34-.836,1.277,1.277,0,0,1,.926-.328,1.28,1.28,0,0,1,.922.328,1.105,1.105,0,0,1,.344.836A1.108,1.108,0,0,1-39.8-9.8a1.283,1.283,0,0,1-.918.328,1.283,1.283,0,0,1-.918-.328A1.108,1.108,0,0,1-41.984-10.641Zm3.906,6.352a5.094,5.094,0,0,1,.887-3.148,2.877,2.877,0,0,1,2.426-1.172,2.589,2.589,0,0,1,2.039.922V-12h2.266V0H-32.5l-.109-.9A2.657,2.657,0,0,1-34.781.156,2.869,2.869,0,0,1-37.176-1.02,5.258,5.258,0,0,1-38.078-4.289Zm2.258.164a3.328,3.328,0,0,0,.414,1.82,1.349,1.349,0,0,0,1.2.633,1.511,1.511,0,0,0,1.477-.883V-5.891a1.489,1.489,0,0,0-1.461-.883Q-35.82-6.773-35.82-4.125ZM-23.812,0a2.507,2.507,0,0,1-.227-.758,2.732,2.732,0,0,1-2.133.914A3,3,0,0,1-28.23-.562a2.312,2.312,0,0,1-.816-1.812,2.389,2.389,0,0,1,1-2.062,4.915,4.915,0,0,1,2.879-.727h1.039v-.484a1.393,1.393,0,0,0-.3-.937,1.183,1.183,0,0,0-.949-.352,1.345,1.345,0,0,0-.895.273.929.929,0,0,0-.324.75h-2.258a2.268,2.268,0,0,1,.453-1.359,3,3,0,0,1,1.281-.98,4.669,4.669,0,0,1,1.859-.355,3.689,3.689,0,0,1,2.48.785,2.747,2.747,0,0,1,.918,2.207v3.664a4.041,4.041,0,0,0,.336,1.82V0ZM-25.68-1.57a1.945,1.945,0,0,0,.922-.223,1.462,1.462,0,0,0,.625-.6V-3.844h-.844q-1.7,0-1.8,1.172l-.008.133a.9.9,0,0,0,.3.7A1.153,1.153,0,0,0-25.68-1.57Zm5.2-2.719A5.094,5.094,0,0,1-19.6-7.437a2.877,2.877,0,0,1,2.426-1.172,2.589,2.589,0,0,1,2.039.922V-12h2.266V0h-2.039l-.109-.9A2.657,2.657,0,0,1-17.187.156,2.869,2.869,0,0,1-19.582-1.02,5.258,5.258,0,0,1-20.484-4.289Zm2.258.164a3.328,3.328,0,0,0,.414,1.82,1.349,1.349,0,0,0,1.2.633,1.511,1.511,0,0,0,1.477-.883V-5.891a1.489,1.489,0,0,0-1.461-.883Q-18.227-6.773-18.227-4.125ZM-3.242.156A4.15,4.15,0,0,1-6.27-.984,4.054,4.054,0,0,1-7.437-4.023v-.219A5.106,5.106,0,0,1-6.945-6.52,3.612,3.612,0,0,1-5.551-8.066a3.914,3.914,0,0,1,2.059-.543A3.508,3.508,0,0,1-.762-7.516a4.444,4.444,0,0,1,1,3.1v.922H-5.148a2.1,2.1,0,0,0,.66,1.328,2,2,0,0,0,1.395.5,2.437,2.437,0,0,0,2.039-.945L.055-1.367A3.389,3.389,0,0,1-1.32-.246,4.511,4.511,0,0,1-3.242.156ZM-3.5-6.781a1.414,1.414,0,0,0-1.09.453,2.341,2.341,0,0,0-.535,1.3h3.141v-.18a1.669,1.669,0,0,0-.406-1.16A1.459,1.459,0,0,0-3.5-6.781ZM3.9,0H1.633V-12H3.9Zm5.75.156A4.15,4.15,0,0,1,6.621-.984,4.054,4.054,0,0,1,5.453-4.023v-.219A5.106,5.106,0,0,1,5.945-6.52,3.612,3.612,0,0,1,7.34-8.066,3.914,3.914,0,0,1,9.4-8.609a3.508,3.508,0,0,1,2.73,1.094,4.444,4.444,0,0,1,1,3.1v.922H7.742A2.1,2.1,0,0,0,8.4-2.164a2,2,0,0,0,1.395.5,2.437,2.437,0,0,0,2.039-.945l1.109,1.242A3.389,3.389,0,0,1,11.57-.246,4.511,4.511,0,0,1,9.648.156ZM9.391-6.781a1.414,1.414,0,0,0-1.09.453,2.341,2.341,0,0,0-.535,1.3h3.141v-.18a1.669,1.669,0,0,0-.406-1.16A1.459,1.459,0,0,0,9.391-6.781Zm8.531,5.117a1.481,1.481,0,0,0,1.016-.344,1.2,1.2,0,0,0,.406-.914h2.117a2.9,2.9,0,0,1-.469,1.574A3.093,3.093,0,0,1,19.73-.238a3.949,3.949,0,0,1-1.77.395A3.67,3.67,0,0,1,15.1-1,4.56,4.56,0,0,1,14.055-4.18v-.148a4.508,4.508,0,0,1,1.039-3.117,3.627,3.627,0,0,1,2.852-1.164,3.555,3.555,0,0,1,2.543.9,3.2,3.2,0,0,1,.973,2.4H19.344a1.539,1.539,0,0,0-.406-1.066,1.358,1.358,0,0,0-1.031-.41,1.361,1.361,0,0,0-1.191.574,3.324,3.324,0,0,0-.4,1.863v.234a3.366,3.366,0,0,0,.4,1.875A1.378,1.378,0,0,0,17.922-1.664Zm7.531-8.867v2.078H26.9V-6.8H25.453v4.219a1.007,1.007,0,0,0,.18.672.9.9,0,0,0,.688.2,3.6,3.6,0,0,0,.664-.055V-.047a4.648,4.648,0,0,1-1.367.2,2.156,2.156,0,0,1-2.422-2.4V-6.8H21.961V-8.453H23.2v-2.078Zm7.453,4.2a6.134,6.134,0,0,0-.812-.062,1.654,1.654,0,0,0-1.68.867V0H28.156V-8.453h2.133l.063,1.008a2.092,2.092,0,0,1,1.883-1.164,2.366,2.366,0,0,1,.7.1ZM33.641-4.3a5.013,5.013,0,0,1,.484-2.242A3.546,3.546,0,0,1,35.52-8.07a4.069,4.069,0,0,1,2.113-.539,3.849,3.849,0,0,1,2.793,1.047,4.2,4.2,0,0,1,1.207,2.844l.016.578A4.418,4.418,0,0,1,40.563-1.02,3.775,3.775,0,0,1,37.648.156,3.793,3.793,0,0,1,34.73-1.016,4.5,4.5,0,0,1,33.641-4.2Zm2.258.164a3.151,3.151,0,0,0,.453,1.84,1.5,1.5,0,0,0,1.3.637,1.5,1.5,0,0,0,1.281-.629A3.448,3.448,0,0,0,39.391-4.3a3.12,3.12,0,0,0-.461-1.828,1.5,1.5,0,0,0-1.3-.648,1.475,1.475,0,0,0-1.281.645A3.506,3.506,0,0,0,35.9-4.141ZM38.078-12h2.461L38.375-9.578H36.539Zm7.039,3.547.07.977a2.951,2.951,0,0,1,2.43-1.133,2.453,2.453,0,0,1,2,.789,3.682,3.682,0,0,1,.672,2.359V0H48.031V-5.406a1.465,1.465,0,0,0-.312-1.043,1.4,1.4,0,0,0-1.039-.324,1.553,1.553,0,0,0-1.43.813V0H42.992V-8.453ZM54.383,0H52.117V-8.453h2.266Zm-2.4-10.641a1.112,1.112,0,0,1,.34-.836,1.277,1.277,0,0,1,.926-.328,1.28,1.28,0,0,1,.922.328,1.105,1.105,0,0,1,.344.836,1.108,1.108,0,0,1-.348.844,1.283,1.283,0,0,1-.918.328,1.283,1.283,0,0,1-.918-.328A1.108,1.108,0,0,1,51.984-10.641Zm7.773,8.977a1.481,1.481,0,0,0,1.016-.344,1.2,1.2,0,0,0,.406-.914H63.3a2.9,2.9,0,0,1-.469,1.574A3.093,3.093,0,0,1,61.566-.238,3.949,3.949,0,0,1,59.8.156,3.67,3.67,0,0,1,56.938-1,4.56,4.56,0,0,1,55.891-4.18v-.148A4.508,4.508,0,0,1,56.93-7.445a3.627,3.627,0,0,1,2.852-1.164,3.555,3.555,0,0,1,2.543.9A3.2,3.2,0,0,1,63.3-5.3H61.18a1.539,1.539,0,0,0-.406-1.066,1.358,1.358,0,0,0-1.031-.41,1.361,1.361,0,0,0-1.191.574,3.324,3.324,0,0,0-.4,1.863v.234a3.366,3.366,0,0,0,.4,1.875A1.378,1.378,0,0,0,59.758-1.664ZM69.484,0a2.507,2.507,0,0,1-.227-.758,2.732,2.732,0,0,1-2.133.914,3,3,0,0,1-2.059-.719,2.312,2.312,0,0,1-.816-1.812,2.389,2.389,0,0,1,1-2.062,4.915,4.915,0,0,1,2.879-.727h1.039v-.484a1.393,1.393,0,0,0-.3-.937,1.183,1.183,0,0,0-.949-.352,1.345,1.345,0,0,0-.895.273.929.929,0,0,0-.324.75H64.438a2.268,2.268,0,0,1,.453-1.359,3,3,0,0,1,1.281-.98,4.669,4.669,0,0,1,1.859-.355,3.689,3.689,0,0,1,2.48.785,2.747,2.747,0,0,1,.918,2.207v3.664a4.041,4.041,0,0,0,.336,1.82V0ZM67.617-1.57a1.945,1.945,0,0,0,.922-.223,1.462,1.462,0,0,0,.625-.6V-3.844H68.32q-1.7,0-1.8,1.172l-.008.133a.9.9,0,0,0,.3.7A1.153,1.153,0,0,0,67.617-1.57Z" transform="translate(655.102 15141)" fill="#12263f"/>
    <path id="Trazado_899873" data-name="Trazado 899873" d="M-80.2-4.008V0h-2.344V-11.375h4.438a5.134,5.134,0,0,1,2.254.469,3.454,3.454,0,0,1,1.5,1.332,3.714,3.714,0,0,1,.523,1.965A3.266,3.266,0,0,1-74.98-4.973a4.767,4.767,0,0,1-3.168.965Zm0-1.9h2.094a2.059,2.059,0,0,0,1.418-.437,1.591,1.591,0,0,0,.488-1.25A1.876,1.876,0,0,0-76.7-8.945a1.839,1.839,0,0,0-1.359-.531H-80.2Zm7.375,1.6a5.013,5.013,0,0,1,.484-2.242A3.546,3.546,0,0,1-70.949-8.07a4.069,4.069,0,0,1,2.113-.539,3.849,3.849,0,0,1,2.793,1.047,4.2,4.2,0,0,1,1.207,2.844l.016.578A4.418,4.418,0,0,1-65.906-1.02,3.775,3.775,0,0,1-68.82.156a3.793,3.793,0,0,1-2.918-1.172A4.5,4.5,0,0,1-72.828-4.2Zm2.258.164a3.151,3.151,0,0,0,.453,1.84,1.5,1.5,0,0,0,1.3.637,1.5,1.5,0,0,0,1.281-.629A3.448,3.448,0,0,0-67.078-4.3a3.12,3.12,0,0,0-.461-1.828,1.5,1.5,0,0,0-1.3-.648,1.475,1.475,0,0,0-1.281.645A3.506,3.506,0,0,0-70.57-4.141Zm9.844-6.391v2.078h1.445V-6.8h-1.445v4.219a1.007,1.007,0,0,0,.18.672.9.9,0,0,0,.688.2,3.6,3.6,0,0,0,.664-.055V-.047a4.648,4.648,0,0,1-1.367.2,2.156,2.156,0,0,1-2.422-2.4V-6.8h-1.234V-8.453h1.234v-2.078ZM-54.133.156A4.15,4.15,0,0,1-57.16-.984a4.054,4.054,0,0,1-1.168-3.039v-.219a5.106,5.106,0,0,1,.492-2.277,3.612,3.612,0,0,1,1.395-1.547,3.914,3.914,0,0,1,2.059-.543,3.508,3.508,0,0,1,2.73,1.094,4.444,4.444,0,0,1,1,3.1v.922h-5.383a2.1,2.1,0,0,0,.66,1.328,2,2,0,0,0,1.395.5,2.437,2.437,0,0,0,2.039-.945l1.109,1.242A3.389,3.389,0,0,1-52.211-.246,4.511,4.511,0,0,1-54.133.156Zm-.258-6.937a1.414,1.414,0,0,0-1.09.453,2.341,2.341,0,0,0-.535,1.3h3.141v-.18a1.669,1.669,0,0,0-.406-1.16A1.459,1.459,0,0,0-54.391-6.781ZM-47.3-8.453l.07.977A2.951,2.951,0,0,1-44.8-8.609a2.453,2.453,0,0,1,2,.789,3.682,3.682,0,0,1,.672,2.359V0h-2.258V-5.406A1.465,1.465,0,0,0-44.7-6.449a1.4,1.4,0,0,0-1.039-.324,1.553,1.553,0,0,0-1.43.813V0h-2.258V-8.453Zm10.4,6.789a1.481,1.481,0,0,0,1.016-.344,1.2,1.2,0,0,0,.406-.914h2.117a2.9,2.9,0,0,1-.469,1.574A3.093,3.093,0,0,1-35.09-.238a3.949,3.949,0,0,1-1.77.395A3.67,3.67,0,0,1-39.719-1,4.56,4.56,0,0,1-40.766-4.18v-.148a4.508,4.508,0,0,1,1.039-3.117,3.627,3.627,0,0,1,2.852-1.164,3.555,3.555,0,0,1,2.543.9,3.2,3.2,0,0,1,.973,2.4h-2.117a1.539,1.539,0,0,0-.406-1.066,1.358,1.358,0,0,0-1.031-.41,1.361,1.361,0,0,0-1.191.574,3.324,3.324,0,0,0-.4,1.863v.234a3.366,3.366,0,0,0,.4,1.875A1.378,1.378,0,0,0-36.9-1.664ZM-29.687,0h-2.266V-8.453h2.266Zm-2.4-10.641a1.112,1.112,0,0,1,.34-.836,1.277,1.277,0,0,1,.926-.328,1.28,1.28,0,0,1,.922.328,1.105,1.105,0,0,1,.344.836A1.108,1.108,0,0,1-29.9-9.8a1.283,1.283,0,0,1-.918.328,1.283,1.283,0,0,1-.918-.328A1.108,1.108,0,0,1-32.086-10.641ZM-22.93,0a2.507,2.507,0,0,1-.227-.758,2.732,2.732,0,0,1-2.133.914,3,3,0,0,1-2.059-.719,2.312,2.312,0,0,1-.816-1.812,2.389,2.389,0,0,1,1-2.062,4.915,4.915,0,0,1,2.879-.727h1.039v-.484a1.393,1.393,0,0,0-.3-.937,1.183,1.183,0,0,0-.949-.352,1.345,1.345,0,0,0-.895.273.929.929,0,0,0-.324.75h-2.258a2.268,2.268,0,0,1,.453-1.359,3,3,0,0,1,1.281-.98,4.669,4.669,0,0,1,1.859-.355,3.689,3.689,0,0,1,2.48.785,2.747,2.747,0,0,1,.918,2.207v3.664a4.041,4.041,0,0,0,.336,1.82V0ZM-24.8-1.57a1.945,1.945,0,0,0,.922-.223,1.462,1.462,0,0,0,.625-.6V-3.844h-.844q-1.7,0-1.8,1.172l-.008.133a.9.9,0,0,0,.3.7A1.153,1.153,0,0,0-24.8-1.57ZM-16.867,0h-2.266V-12h2.266Zm5.492-4.289a5.094,5.094,0,0,1,.887-3.148A2.877,2.877,0,0,1-8.062-8.609a2.589,2.589,0,0,1,2.039.922V-12h2.266V0H-5.8l-.109-.9A2.657,2.657,0,0,1-8.078.156,2.869,2.869,0,0,1-10.473-1.02,5.258,5.258,0,0,1-11.375-4.289Zm2.258.164A3.328,3.328,0,0,0-8.7-2.3a1.349,1.349,0,0,0,1.2.633,1.511,1.511,0,0,0,1.477-.883V-5.891a1.489,1.489,0,0,0-1.461-.883Q-9.117-6.773-9.117-4.125Zm11,4.281A4.15,4.15,0,0,1-1.145-.984,4.054,4.054,0,0,1-2.312-4.023v-.219A5.106,5.106,0,0,1-1.82-6.52,3.612,3.612,0,0,1-.426-8.066a3.914,3.914,0,0,1,2.059-.543,3.508,3.508,0,0,1,2.73,1.094,4.444,4.444,0,0,1,1,3.1v.922H-.023a2.1,2.1,0,0,0,.66,1.328,2,2,0,0,0,1.395.5A2.437,2.437,0,0,0,4.07-2.609L5.18-1.367A3.389,3.389,0,0,1,3.8-.246,4.511,4.511,0,0,1,1.883.156ZM1.625-6.781a1.414,1.414,0,0,0-1.09.453A2.341,2.341,0,0,0,0-5.031H3.141v-.18a1.669,1.669,0,0,0-.406-1.16A1.459,1.459,0,0,0,1.625-6.781ZM13.008,0H10.742V-8.453h2.266Zm-2.4-10.641a1.112,1.112,0,0,1,.34-.836,1.277,1.277,0,0,1,.926-.328,1.28,1.28,0,0,1,.922.328,1.105,1.105,0,0,1,.344.836,1.108,1.108,0,0,1-.348.844,1.283,1.283,0,0,1-.918.328,1.283,1.283,0,0,1-.918-.328A1.108,1.108,0,0,1,10.609-10.641ZM14.516-4.3A5.013,5.013,0,0,1,15-6.547,3.546,3.546,0,0,1,16.395-8.07a4.069,4.069,0,0,1,2.113-.539A3.849,3.849,0,0,1,21.3-7.562a4.2,4.2,0,0,1,1.207,2.844l.016.578A4.418,4.418,0,0,1,21.438-1.02,3.775,3.775,0,0,1,18.523.156a3.793,3.793,0,0,1-2.918-1.172A4.5,4.5,0,0,1,14.516-4.2Zm2.258.164a3.151,3.151,0,0,0,.453,1.84,1.5,1.5,0,0,0,1.3.637A1.5,1.5,0,0,0,19.8-2.293,3.448,3.448,0,0,0,20.266-4.3,3.12,3.12,0,0,0,19.8-6.133a1.5,1.5,0,0,0-1.3-.648,1.475,1.475,0,0,0-1.281.645A3.506,3.506,0,0,0,16.773-4.141Zm9.219-4.312.07.977a2.951,2.951,0,0,1,2.43-1.133,2.453,2.453,0,0,1,2,.789,3.682,3.682,0,0,1,.672,2.359V0H28.906V-5.406a1.465,1.465,0,0,0-.312-1.043,1.4,1.4,0,0,0-1.039-.324,1.553,1.553,0,0,0-1.43.813V0H23.867V-8.453ZM35.258,0H32.992V-8.453h2.266Zm-2.4-10.641a1.112,1.112,0,0,1,.34-.836,1.277,1.277,0,0,1,.926-.328,1.28,1.28,0,0,1,.922.328,1.105,1.105,0,0,1,.344.836,1.108,1.108,0,0,1-.348.844,1.283,1.283,0,0,1-.918.328,1.283,1.283,0,0,1-.918-.328A1.108,1.108,0,0,1,32.859-10.641Zm6.852,8.82h4.133V0H36.828V-1.375L40.8-6.625H36.945V-8.453h6.773v1.336ZM50.156,0a2.507,2.507,0,0,1-.227-.758A2.732,2.732,0,0,1,47.8.156a3,3,0,0,1-2.059-.719,2.312,2.312,0,0,1-.816-1.812,2.389,2.389,0,0,1,1-2.062A4.915,4.915,0,0,1,48.8-5.164h1.039v-.484a1.393,1.393,0,0,0-.3-.937,1.183,1.183,0,0,0-.949-.352,1.345,1.345,0,0,0-.895.273.929.929,0,0,0-.324.75H45.109a2.268,2.268,0,0,1,.453-1.359,3,3,0,0,1,1.281-.98A4.669,4.669,0,0,1,48.7-8.609a3.689,3.689,0,0,1,2.48.785A2.747,2.747,0,0,1,52.1-5.617v3.664a4.041,4.041,0,0,0,.336,1.82V0ZM48.289-1.57a1.945,1.945,0,0,0,.922-.223,1.462,1.462,0,0,0,.625-.6V-3.844h-.844q-1.7,0-1.8,1.172l-.008.133a.9.9,0,0,0,.3.7A1.153,1.153,0,0,0,48.289-1.57Zm9.063-.094a1.481,1.481,0,0,0,1.016-.344,1.2,1.2,0,0,0,.406-.914h2.117a2.9,2.9,0,0,1-.469,1.574A3.093,3.093,0,0,1,59.16-.238a3.949,3.949,0,0,1-1.77.395A3.67,3.67,0,0,1,54.531-1,4.56,4.56,0,0,1,53.484-4.18v-.148a4.508,4.508,0,0,1,1.039-3.117,3.627,3.627,0,0,1,2.852-1.164,3.555,3.555,0,0,1,2.543.9,3.2,3.2,0,0,1,.973,2.4H58.773a1.539,1.539,0,0,0-.406-1.066,1.358,1.358,0,0,0-1.031-.41,1.361,1.361,0,0,0-1.191.574,3.324,3.324,0,0,0-.4,1.863v.234a3.366,3.366,0,0,0,.4,1.875A1.378,1.378,0,0,0,57.352-1.664ZM64.563,0H62.3V-8.453h2.266Zm-2.4-10.641a1.112,1.112,0,0,1,.34-.836,1.277,1.277,0,0,1,.926-.328,1.28,1.28,0,0,1,.922.328,1.105,1.105,0,0,1,.344.836,1.108,1.108,0,0,1-.348.844,1.283,1.283,0,0,1-.918.328,1.283,1.283,0,0,1-.918-.328A1.108,1.108,0,0,1,62.164-10.641ZM66.07-4.3a5.013,5.013,0,0,1,.484-2.242A3.546,3.546,0,0,1,67.949-8.07a4.069,4.069,0,0,1,2.113-.539,3.849,3.849,0,0,1,2.793,1.047,4.2,4.2,0,0,1,1.207,2.844l.016.578A4.418,4.418,0,0,1,72.992-1.02,3.775,3.775,0,0,1,70.078.156,3.793,3.793,0,0,1,67.16-1.016,4.5,4.5,0,0,1,66.07-4.2Zm2.258.164a3.151,3.151,0,0,0,.453,1.84,1.5,1.5,0,0,0,1.3.637,1.5,1.5,0,0,0,1.281-.629A3.448,3.448,0,0,0,71.82-4.3a3.12,3.12,0,0,0-.461-1.828,1.5,1.5,0,0,0-1.3-.648,1.475,1.475,0,0,0-1.281.645A3.506,3.506,0,0,0,68.328-4.141ZM70.508-12h2.461L70.8-9.578H68.969Zm7.039,3.547.07.977a2.951,2.951,0,0,1,2.43-1.133,2.453,2.453,0,0,1,2,.789,3.682,3.682,0,0,1,.672,2.359V0H80.461V-5.406a1.465,1.465,0,0,0-.312-1.043,1.4,1.4,0,0,0-1.039-.324,1.553,1.553,0,0,0-1.43.813V0H75.422V-8.453Z" transform="translate(935.102 14928)" fill="#12263f"/>
    <path id="Trazado_899874" data-name="Trazado 899874" d="M-80.2-4.008V0h-2.344V-11.375h4.438a5.134,5.134,0,0,1,2.254.469,3.454,3.454,0,0,1,1.5,1.332,3.714,3.714,0,0,1,.523,1.965A3.266,3.266,0,0,1-74.98-4.973a4.767,4.767,0,0,1-3.168.965Zm0-1.9h2.094a2.059,2.059,0,0,0,1.418-.437,1.591,1.591,0,0,0,.488-1.25A1.876,1.876,0,0,0-76.7-8.945a1.839,1.839,0,0,0-1.359-.531H-80.2Zm7.375,1.6a5.013,5.013,0,0,1,.484-2.242A3.546,3.546,0,0,1-70.949-8.07a4.069,4.069,0,0,1,2.113-.539,3.849,3.849,0,0,1,2.793,1.047,4.2,4.2,0,0,1,1.207,2.844l.016.578A4.418,4.418,0,0,1-65.906-1.02,3.775,3.775,0,0,1-68.82.156a3.793,3.793,0,0,1-2.918-1.172A4.5,4.5,0,0,1-72.828-4.2Zm2.258.164a3.151,3.151,0,0,0,.453,1.84,1.5,1.5,0,0,0,1.3.637,1.5,1.5,0,0,0,1.281-.629A3.448,3.448,0,0,0-67.078-4.3a3.12,3.12,0,0,0-.461-1.828,1.5,1.5,0,0,0-1.3-.648,1.475,1.475,0,0,0-1.281.645A3.506,3.506,0,0,0-70.57-4.141Zm9.844-6.391v2.078h1.445V-6.8h-1.445v4.219a1.007,1.007,0,0,0,.18.672.9.9,0,0,0,.688.2,3.6,3.6,0,0,0,.664-.055V-.047a4.648,4.648,0,0,1-1.367.2,2.156,2.156,0,0,1-2.422-2.4V-6.8h-1.234V-8.453h1.234v-2.078ZM-54.133.156A4.15,4.15,0,0,1-57.16-.984a4.054,4.054,0,0,1-1.168-3.039v-.219a5.106,5.106,0,0,1,.492-2.277,3.612,3.612,0,0,1,1.395-1.547,3.914,3.914,0,0,1,2.059-.543,3.508,3.508,0,0,1,2.73,1.094,4.444,4.444,0,0,1,1,3.1v.922h-5.383a2.1,2.1,0,0,0,.66,1.328,2,2,0,0,0,1.395.5,2.437,2.437,0,0,0,2.039-.945l1.109,1.242A3.389,3.389,0,0,1-52.211-.246,4.511,4.511,0,0,1-54.133.156Zm-.258-6.937a1.414,1.414,0,0,0-1.09.453,2.341,2.341,0,0,0-.535,1.3h3.141v-.18a1.669,1.669,0,0,0-.406-1.16A1.459,1.459,0,0,0-54.391-6.781ZM-47.3-8.453l.07.977A2.951,2.951,0,0,1-44.8-8.609a2.453,2.453,0,0,1,2,.789,3.682,3.682,0,0,1,.672,2.359V0h-2.258V-5.406A1.465,1.465,0,0,0-44.7-6.449a1.4,1.4,0,0,0-1.039-.324,1.553,1.553,0,0,0-1.43.813V0h-2.258V-8.453Zm10.4,6.789a1.481,1.481,0,0,0,1.016-.344,1.2,1.2,0,0,0,.406-.914h2.117a2.9,2.9,0,0,1-.469,1.574A3.093,3.093,0,0,1-35.09-.238a3.949,3.949,0,0,1-1.77.395A3.67,3.67,0,0,1-39.719-1,4.56,4.56,0,0,1-40.766-4.18v-.148a4.508,4.508,0,0,1,1.039-3.117,3.627,3.627,0,0,1,2.852-1.164,3.555,3.555,0,0,1,2.543.9,3.2,3.2,0,0,1,.973,2.4h-2.117a1.539,1.539,0,0,0-.406-1.066,1.358,1.358,0,0,0-1.031-.41,1.361,1.361,0,0,0-1.191.574,3.324,3.324,0,0,0-.4,1.863v.234a3.366,3.366,0,0,0,.4,1.875A1.378,1.378,0,0,0-36.9-1.664ZM-29.687,0h-2.266V-8.453h2.266Zm-2.4-10.641a1.112,1.112,0,0,1,.34-.836,1.277,1.277,0,0,1,.926-.328,1.28,1.28,0,0,1,.922.328,1.105,1.105,0,0,1,.344.836A1.108,1.108,0,0,1-29.9-9.8a1.283,1.283,0,0,1-.918.328,1.283,1.283,0,0,1-.918-.328A1.108,1.108,0,0,1-32.086-10.641ZM-22.93,0a2.507,2.507,0,0,1-.227-.758,2.732,2.732,0,0,1-2.133.914,3,3,0,0,1-2.059-.719,2.312,2.312,0,0,1-.816-1.812,2.389,2.389,0,0,1,1-2.062,4.915,4.915,0,0,1,2.879-.727h1.039v-.484a1.393,1.393,0,0,0-.3-.937,1.183,1.183,0,0,0-.949-.352,1.345,1.345,0,0,0-.895.273.929.929,0,0,0-.324.75h-2.258a2.268,2.268,0,0,1,.453-1.359,3,3,0,0,1,1.281-.98,4.669,4.669,0,0,1,1.859-.355,3.689,3.689,0,0,1,2.48.785,2.747,2.747,0,0,1,.918,2.207v3.664a4.041,4.041,0,0,0,.336,1.82V0ZM-24.8-1.57a1.945,1.945,0,0,0,.922-.223,1.462,1.462,0,0,0,.625-.6V-3.844h-.844q-1.7,0-1.8,1.172l-.008.133a.9.9,0,0,0,.3.7A1.153,1.153,0,0,0-24.8-1.57ZM-16.867,0h-2.266V-12h2.266Zm5.492-4.289a5.094,5.094,0,0,1,.887-3.148A2.877,2.877,0,0,1-8.062-8.609a2.589,2.589,0,0,1,2.039.922V-12h2.266V0H-5.8l-.109-.9A2.657,2.657,0,0,1-8.078.156,2.869,2.869,0,0,1-10.473-1.02,5.258,5.258,0,0,1-11.375-4.289Zm2.258.164A3.328,3.328,0,0,0-8.7-2.3a1.349,1.349,0,0,0,1.2.633,1.511,1.511,0,0,0,1.477-.883V-5.891a1.489,1.489,0,0,0-1.461-.883Q-9.117-6.773-9.117-4.125Zm11,4.281A4.15,4.15,0,0,1-1.145-.984,4.054,4.054,0,0,1-2.312-4.023v-.219A5.106,5.106,0,0,1-1.82-6.52,3.612,3.612,0,0,1-.426-8.066a3.914,3.914,0,0,1,2.059-.543,3.508,3.508,0,0,1,2.73,1.094,4.444,4.444,0,0,1,1,3.1v.922H-.023a2.1,2.1,0,0,0,.66,1.328,2,2,0,0,0,1.395.5A2.437,2.437,0,0,0,4.07-2.609L5.18-1.367A3.389,3.389,0,0,1,3.8-.246,4.511,4.511,0,0,1,1.883.156ZM1.625-6.781a1.414,1.414,0,0,0-1.09.453A2.341,2.341,0,0,0,0-5.031H3.141v-.18a1.669,1.669,0,0,0-.406-1.16A1.459,1.459,0,0,0,1.625-6.781ZM13.008,0H10.742V-8.453h2.266Zm-2.4-10.641a1.112,1.112,0,0,1,.34-.836,1.277,1.277,0,0,1,.926-.328,1.28,1.28,0,0,1,.922.328,1.105,1.105,0,0,1,.344.836,1.108,1.108,0,0,1-.348.844,1.283,1.283,0,0,1-.918.328,1.283,1.283,0,0,1-.918-.328A1.108,1.108,0,0,1,10.609-10.641ZM14.516-4.3A5.013,5.013,0,0,1,15-6.547,3.546,3.546,0,0,1,16.395-8.07a4.069,4.069,0,0,1,2.113-.539A3.849,3.849,0,0,1,21.3-7.562a4.2,4.2,0,0,1,1.207,2.844l.016.578A4.418,4.418,0,0,1,21.438-1.02,3.775,3.775,0,0,1,18.523.156a3.793,3.793,0,0,1-2.918-1.172A4.5,4.5,0,0,1,14.516-4.2Zm2.258.164a3.151,3.151,0,0,0,.453,1.84,1.5,1.5,0,0,0,1.3.637A1.5,1.5,0,0,0,19.8-2.293,3.448,3.448,0,0,0,20.266-4.3,3.12,3.12,0,0,0,19.8-6.133a1.5,1.5,0,0,0-1.3-.648,1.475,1.475,0,0,0-1.281.645A3.506,3.506,0,0,0,16.773-4.141Zm9.219-4.312.07.977a2.951,2.951,0,0,1,2.43-1.133,2.453,2.453,0,0,1,2,.789,3.682,3.682,0,0,1,.672,2.359V0H28.906V-5.406a1.465,1.465,0,0,0-.312-1.043,1.4,1.4,0,0,0-1.039-.324,1.553,1.553,0,0,0-1.43.813V0H23.867V-8.453ZM35.258,0H32.992V-8.453h2.266Zm-2.4-10.641a1.112,1.112,0,0,1,.34-.836,1.277,1.277,0,0,1,.926-.328,1.28,1.28,0,0,1,.922.328,1.105,1.105,0,0,1,.344.836,1.108,1.108,0,0,1-.348.844,1.283,1.283,0,0,1-.918.328,1.283,1.283,0,0,1-.918-.328A1.108,1.108,0,0,1,32.859-10.641Zm6.852,8.82h4.133V0H36.828V-1.375L40.8-6.625H36.945V-8.453h6.773v1.336ZM50.156,0a2.507,2.507,0,0,1-.227-.758A2.732,2.732,0,0,1,47.8.156a3,3,0,0,1-2.059-.719,2.312,2.312,0,0,1-.816-1.812,2.389,2.389,0,0,1,1-2.062A4.915,4.915,0,0,1,48.8-5.164h1.039v-.484a1.393,1.393,0,0,0-.3-.937,1.183,1.183,0,0,0-.949-.352,1.345,1.345,0,0,0-.895.273.929.929,0,0,0-.324.75H45.109a2.268,2.268,0,0,1,.453-1.359,3,3,0,0,1,1.281-.98A4.669,4.669,0,0,1,48.7-8.609a3.689,3.689,0,0,1,2.48.785A2.747,2.747,0,0,1,52.1-5.617v3.664a4.041,4.041,0,0,0,.336,1.82V0ZM48.289-1.57a1.945,1.945,0,0,0,.922-.223,1.462,1.462,0,0,0,.625-.6V-3.844h-.844q-1.7,0-1.8,1.172l-.008.133a.9.9,0,0,0,.3.7A1.153,1.153,0,0,0,48.289-1.57Zm9.063-.094a1.481,1.481,0,0,0,1.016-.344,1.2,1.2,0,0,0,.406-.914h2.117a2.9,2.9,0,0,1-.469,1.574A3.093,3.093,0,0,1,59.16-.238a3.949,3.949,0,0,1-1.77.395A3.67,3.67,0,0,1,54.531-1,4.56,4.56,0,0,1,53.484-4.18v-.148a4.508,4.508,0,0,1,1.039-3.117,3.627,3.627,0,0,1,2.852-1.164,3.555,3.555,0,0,1,2.543.9,3.2,3.2,0,0,1,.973,2.4H58.773a1.539,1.539,0,0,0-.406-1.066,1.358,1.358,0,0,0-1.031-.41,1.361,1.361,0,0,0-1.191.574,3.324,3.324,0,0,0-.4,1.863v.234a3.366,3.366,0,0,0,.4,1.875A1.378,1.378,0,0,0,57.352-1.664ZM64.563,0H62.3V-8.453h2.266Zm-2.4-10.641a1.112,1.112,0,0,1,.34-.836,1.277,1.277,0,0,1,.926-.328,1.28,1.28,0,0,1,.922.328,1.105,1.105,0,0,1,.344.836,1.108,1.108,0,0,1-.348.844,1.283,1.283,0,0,1-.918.328,1.283,1.283,0,0,1-.918-.328A1.108,1.108,0,0,1,62.164-10.641ZM66.07-4.3a5.013,5.013,0,0,1,.484-2.242A3.546,3.546,0,0,1,67.949-8.07a4.069,4.069,0,0,1,2.113-.539,3.849,3.849,0,0,1,2.793,1.047,4.2,4.2,0,0,1,1.207,2.844l.016.578A4.418,4.418,0,0,1,72.992-1.02,3.775,3.775,0,0,1,70.078.156,3.793,3.793,0,0,1,67.16-1.016,4.5,4.5,0,0,1,66.07-4.2Zm2.258.164a3.151,3.151,0,0,0,.453,1.84,1.5,1.5,0,0,0,1.3.637,1.5,1.5,0,0,0,1.281-.629A3.448,3.448,0,0,0,71.82-4.3a3.12,3.12,0,0,0-.461-1.828,1.5,1.5,0,0,0-1.3-.648,1.475,1.475,0,0,0-1.281.645A3.506,3.506,0,0,0,68.328-4.141ZM70.508-12h2.461L70.8-9.578H68.969Zm7.039,3.547.07.977a2.951,2.951,0,0,1,2.43-1.133,2.453,2.453,0,0,1,2,.789,3.682,3.682,0,0,1,.672,2.359V0H80.461V-5.406a1.465,1.465,0,0,0-.312-1.043,1.4,1.4,0,0,0-1.039-.324,1.553,1.553,0,0,0-1.43.813V0H75.422V-8.453Z" transform="translate(935.102 15141)" fill="#12263f"/>
    <path id="Trazado_899875" data-name="Trazado 899875" d="M-59.215-4.93h-4.5v3.047h5.281V0h-7.625V-11.375h7.609v1.9h-5.266v2.711h4.5ZM-54.824,0H-57.09V-12h2.266Zm5.75.156A4.15,4.15,0,0,1-52.1-.984,4.054,4.054,0,0,1-53.27-4.023v-.219a5.106,5.106,0,0,1,.492-2.277,3.612,3.612,0,0,1,1.395-1.547,3.914,3.914,0,0,1,2.059-.543,3.508,3.508,0,0,1,2.73,1.094,4.444,4.444,0,0,1,1,3.1v.922H-50.98a2.1,2.1,0,0,0,.66,1.328,2,2,0,0,0,1.395.5,2.437,2.437,0,0,0,2.039-.945l1.109,1.242A3.389,3.389,0,0,1-47.152-.246,4.511,4.511,0,0,1-49.074.156Zm-.258-6.937a1.414,1.414,0,0,0-1.09.453,2.341,2.341,0,0,0-.535,1.3h3.141v-.18a1.669,1.669,0,0,0-.406-1.16A1.459,1.459,0,0,0-49.332-6.781ZM-40.8-1.664a1.481,1.481,0,0,0,1.016-.344,1.2,1.2,0,0,0,.406-.914h2.117a2.9,2.9,0,0,1-.469,1.574A3.093,3.093,0,0,1-38.992-.238a3.949,3.949,0,0,1-1.77.395A3.67,3.67,0,0,1-43.621-1,4.56,4.56,0,0,1-44.668-4.18v-.148a4.508,4.508,0,0,1,1.039-3.117,3.627,3.627,0,0,1,2.852-1.164,3.555,3.555,0,0,1,2.543.9,3.2,3.2,0,0,1,.973,2.4h-2.117a1.539,1.539,0,0,0-.406-1.066,1.358,1.358,0,0,0-1.031-.41,1.361,1.361,0,0,0-1.191.574,3.324,3.324,0,0,0-.4,1.863v.234a3.366,3.366,0,0,0,.4,1.875A1.378,1.378,0,0,0-40.8-1.664Zm7.531-8.867v2.078h1.445V-6.8H-33.27v4.219a1.007,1.007,0,0,0,.18.672.9.9,0,0,0,.688.2,3.6,3.6,0,0,0,.664-.055V-.047a4.648,4.648,0,0,1-1.367.2,2.156,2.156,0,0,1-2.422-2.4V-6.8h-1.234V-8.453h1.234v-2.078Zm7.453,4.2a6.134,6.134,0,0,0-.812-.062,1.654,1.654,0,0,0-1.68.867V0h-2.258V-8.453h2.133l.063,1.008a2.092,2.092,0,0,1,1.883-1.164,2.366,2.366,0,0,1,.7.1Zm.453,2.031a5.013,5.013,0,0,1,.484-2.242A3.546,3.546,0,0,1-23.484-8.07a4.069,4.069,0,0,1,2.113-.539,3.849,3.849,0,0,1,2.793,1.047,4.2,4.2,0,0,1,1.207,2.844l.016.578A4.418,4.418,0,0,1-18.441-1.02,3.775,3.775,0,0,1-21.355.156a3.793,3.793,0,0,1-2.918-1.172A4.5,4.5,0,0,1-25.363-4.2Zm2.258.164a3.151,3.151,0,0,0,.453,1.84,1.5,1.5,0,0,0,1.3.637,1.5,1.5,0,0,0,1.281-.629A3.448,3.448,0,0,0-19.613-4.3a3.12,3.12,0,0,0-.461-1.828,1.5,1.5,0,0,0-1.3-.648,1.475,1.475,0,0,0-1.281.645A3.506,3.506,0,0,0-23.105-4.141Zm9.219-4.312.07.977a2.951,2.951,0,0,1,2.43-1.133,2.453,2.453,0,0,1,2,.789,3.682,3.682,0,0,1,.672,2.359V0h-2.258V-5.406a1.465,1.465,0,0,0-.312-1.043,1.4,1.4,0,0,0-1.039-.324,1.553,1.553,0,0,0-1.43.813V0h-2.258V-8.453ZM-3.113.156A4.15,4.15,0,0,1-6.141-.984,4.054,4.054,0,0,1-7.309-4.023v-.219A5.106,5.106,0,0,1-6.816-6.52,3.612,3.612,0,0,1-5.422-8.066a3.914,3.914,0,0,1,2.059-.543A3.508,3.508,0,0,1-.633-7.516a4.444,4.444,0,0,1,1,3.1v.922H-5.02a2.1,2.1,0,0,0,.66,1.328,2,2,0,0,0,1.395.5A2.437,2.437,0,0,0-.926-2.609L.184-1.367A3.389,3.389,0,0,1-1.191-.246,4.511,4.511,0,0,1-3.113.156Zm-.258-6.937a1.414,1.414,0,0,0-1.09.453A2.341,2.341,0,0,0-5-5.031h3.141v-.18a1.669,1.669,0,0,0-.406-1.16A1.459,1.459,0,0,0-3.371-6.781ZM1.316-4.289a4.954,4.954,0,0,1,.926-3.133,3,3,0,0,1,2.5-1.187A2.631,2.631,0,0,1,6.9-7.656L7-8.453H9.043V-.281a3.613,3.613,0,0,1-.5,1.93A3.236,3.236,0,0,1,7.121,2.9a4.985,4.985,0,0,1-2.141.43,4.635,4.635,0,0,1-1.812-.371A3.217,3.217,0,0,1,1.832,2l1-1.375a2.645,2.645,0,0,0,2.047.945,1.936,1.936,0,0,0,1.4-.48,1.8,1.8,0,0,0,.5-1.363V-.727A2.612,2.612,0,0,1,4.723.156,2.992,2.992,0,0,1,2.258-1.035,4.953,4.953,0,0,1,1.316-4.2Zm2.258.164a3.076,3.076,0,0,0,.461,1.8A1.467,1.467,0,0,0,5.3-1.672a1.568,1.568,0,0,0,1.477-.773V-6a1.565,1.565,0,0,0-1.461-.773,1.476,1.476,0,0,0-1.277.664A3.467,3.467,0,0,0,3.574-4.125ZM15.676,0a2.507,2.507,0,0,1-.227-.758,2.732,2.732,0,0,1-2.133.914,3,3,0,0,1-2.059-.719,2.312,2.312,0,0,1-.816-1.812,2.389,2.389,0,0,1,1-2.062,4.915,4.915,0,0,1,2.879-.727h1.039v-.484a1.393,1.393,0,0,0-.3-.937,1.183,1.183,0,0,0-.949-.352,1.345,1.345,0,0,0-.895.273.929.929,0,0,0-.324.75H10.629a2.268,2.268,0,0,1,.453-1.359,3,3,0,0,1,1.281-.98,4.669,4.669,0,0,1,1.859-.355,3.689,3.689,0,0,1,2.48.785,2.747,2.747,0,0,1,.918,2.207v3.664a4.041,4.041,0,0,0,.336,1.82V0ZM13.809-1.57a1.945,1.945,0,0,0,.922-.223,1.462,1.462,0,0,0,.625-.6V-3.844h-.844q-1.7,0-1.8,1.172l-.008.133a.9.9,0,0,0,.3.7A1.153,1.153,0,0,0,13.809-1.57Zm8.25-8.961v2.078H23.5V-6.8H22.059v4.219a1.007,1.007,0,0,0,.18.672.9.9,0,0,0,.688.2,3.6,3.6,0,0,0,.664-.055V-.047a4.648,4.648,0,0,1-1.367.2,2.156,2.156,0,0,1-2.422-2.4V-6.8H18.566V-8.453H19.8v-2.078ZM27.145,0H24.879V-8.453h2.266Zm-2.4-10.641a1.112,1.112,0,0,1,.34-.836,1.277,1.277,0,0,1,.926-.328,1.28,1.28,0,0,1,.922.328,1.105,1.105,0,0,1,.344.836,1.108,1.108,0,0,1-.348.844,1.283,1.283,0,0,1-.918.328,1.283,1.283,0,0,1-.918-.328A1.108,1.108,0,0,1,24.746-10.641Zm7.422,7.883,1.57-5.7H36.1L33.246,0H31.09L28.238-8.453H30.6ZM39.473,0H37.207V-8.453h2.266Zm-2.4-10.641a1.112,1.112,0,0,1,.34-.836,1.277,1.277,0,0,1,.926-.328,1.28,1.28,0,0,1,.922.328,1.105,1.105,0,0,1,.344.836,1.108,1.108,0,0,1-.348.844,1.283,1.283,0,0,1-.918.328,1.283,1.283,0,0,1-.918-.328A1.108,1.108,0,0,1,37.074-10.641ZM40.98-4.289a5.094,5.094,0,0,1,.887-3.148,2.877,2.877,0,0,1,2.426-1.172,2.589,2.589,0,0,1,2.039.922V-12H48.6V0H46.559l-.109-.9A2.657,2.657,0,0,1,44.277.156,2.869,2.869,0,0,1,41.883-1.02,5.258,5.258,0,0,1,40.98-4.289Zm2.258.164a3.328,3.328,0,0,0,.414,1.82,1.349,1.349,0,0,0,1.2.633,1.511,1.511,0,0,0,1.477-.883V-5.891a1.489,1.489,0,0,0-1.461-.883Q43.238-6.773,43.238-4.125ZM55.246,0a2.507,2.507,0,0,1-.227-.758,2.732,2.732,0,0,1-2.133.914,3,3,0,0,1-2.059-.719,2.312,2.312,0,0,1-.816-1.812,2.389,2.389,0,0,1,1-2.062,4.915,4.915,0,0,1,2.879-.727h1.039v-.484a1.393,1.393,0,0,0-.3-.937,1.183,1.183,0,0,0-.949-.352,1.345,1.345,0,0,0-.895.273.929.929,0,0,0-.324.75H50.2a2.268,2.268,0,0,1,.453-1.359,3,3,0,0,1,1.281-.98,4.669,4.669,0,0,1,1.859-.355,3.689,3.689,0,0,1,2.48.785,2.747,2.747,0,0,1,.918,2.207v3.664a4.041,4.041,0,0,0,.336,1.82V0ZM53.379-1.57a1.945,1.945,0,0,0,.922-.223,1.462,1.462,0,0,0,.625-.6V-3.844h-.844q-1.7,0-1.8,1.172l-.008.133a.9.9,0,0,0,.3.7A1.153,1.153,0,0,0,53.379-1.57Zm5.2-2.719a5.094,5.094,0,0,1,.887-3.148,2.877,2.877,0,0,1,2.426-1.172,2.589,2.589,0,0,1,2.039.922V-12h2.266V0H64.152l-.109-.9A2.657,2.657,0,0,1,61.871.156,2.869,2.869,0,0,1,59.477-1.02,5.258,5.258,0,0,1,58.574-4.289Zm2.258.164a3.328,3.328,0,0,0,.414,1.82,1.349,1.349,0,0,0,1.2.633,1.511,1.511,0,0,0,1.477-.883V-5.891a1.489,1.489,0,0,0-1.461-.883Q60.832-6.773,60.832-4.125Z" transform="translate(1216.102 14928)" fill="#12263f"/>
    <path id="Trazado_899876" data-name="Trazado 899876" d="M-59.215-4.93h-4.5v3.047h5.281V0h-7.625V-11.375h7.609v1.9h-5.266v2.711h4.5ZM-54.824,0H-57.09V-12h2.266Zm5.75.156A4.15,4.15,0,0,1-52.1-.984,4.054,4.054,0,0,1-53.27-4.023v-.219a5.106,5.106,0,0,1,.492-2.277,3.612,3.612,0,0,1,1.395-1.547,3.914,3.914,0,0,1,2.059-.543,3.508,3.508,0,0,1,2.73,1.094,4.444,4.444,0,0,1,1,3.1v.922H-50.98a2.1,2.1,0,0,0,.66,1.328,2,2,0,0,0,1.395.5,2.437,2.437,0,0,0,2.039-.945l1.109,1.242A3.389,3.389,0,0,1-47.152-.246,4.511,4.511,0,0,1-49.074.156Zm-.258-6.937a1.414,1.414,0,0,0-1.09.453,2.341,2.341,0,0,0-.535,1.3h3.141v-.18a1.669,1.669,0,0,0-.406-1.16A1.459,1.459,0,0,0-49.332-6.781ZM-40.8-1.664a1.481,1.481,0,0,0,1.016-.344,1.2,1.2,0,0,0,.406-.914h2.117a2.9,2.9,0,0,1-.469,1.574A3.093,3.093,0,0,1-38.992-.238a3.949,3.949,0,0,1-1.77.395A3.67,3.67,0,0,1-43.621-1,4.56,4.56,0,0,1-44.668-4.18v-.148a4.508,4.508,0,0,1,1.039-3.117,3.627,3.627,0,0,1,2.852-1.164,3.555,3.555,0,0,1,2.543.9,3.2,3.2,0,0,1,.973,2.4h-2.117a1.539,1.539,0,0,0-.406-1.066,1.358,1.358,0,0,0-1.031-.41,1.361,1.361,0,0,0-1.191.574,3.324,3.324,0,0,0-.4,1.863v.234a3.366,3.366,0,0,0,.4,1.875A1.378,1.378,0,0,0-40.8-1.664Zm7.531-8.867v2.078h1.445V-6.8H-33.27v4.219a1.007,1.007,0,0,0,.18.672.9.9,0,0,0,.688.2,3.6,3.6,0,0,0,.664-.055V-.047a4.648,4.648,0,0,1-1.367.2,2.156,2.156,0,0,1-2.422-2.4V-6.8h-1.234V-8.453h1.234v-2.078Zm7.453,4.2a6.134,6.134,0,0,0-.812-.062,1.654,1.654,0,0,0-1.68.867V0h-2.258V-8.453h2.133l.063,1.008a2.092,2.092,0,0,1,1.883-1.164,2.366,2.366,0,0,1,.7.1Zm.453,2.031a5.013,5.013,0,0,1,.484-2.242A3.546,3.546,0,0,1-23.484-8.07a4.069,4.069,0,0,1,2.113-.539,3.849,3.849,0,0,1,2.793,1.047,4.2,4.2,0,0,1,1.207,2.844l.016.578A4.418,4.418,0,0,1-18.441-1.02,3.775,3.775,0,0,1-21.355.156a3.793,3.793,0,0,1-2.918-1.172A4.5,4.5,0,0,1-25.363-4.2Zm2.258.164a3.151,3.151,0,0,0,.453,1.84,1.5,1.5,0,0,0,1.3.637,1.5,1.5,0,0,0,1.281-.629A3.448,3.448,0,0,0-19.613-4.3a3.12,3.12,0,0,0-.461-1.828,1.5,1.5,0,0,0-1.3-.648,1.475,1.475,0,0,0-1.281.645A3.506,3.506,0,0,0-23.105-4.141Zm9.219-4.312.07.977a2.951,2.951,0,0,1,2.43-1.133,2.453,2.453,0,0,1,2,.789,3.682,3.682,0,0,1,.672,2.359V0h-2.258V-5.406a1.465,1.465,0,0,0-.312-1.043,1.4,1.4,0,0,0-1.039-.324,1.553,1.553,0,0,0-1.43.813V0h-2.258V-8.453ZM-3.113.156A4.15,4.15,0,0,1-6.141-.984,4.054,4.054,0,0,1-7.309-4.023v-.219A5.106,5.106,0,0,1-6.816-6.52,3.612,3.612,0,0,1-5.422-8.066a3.914,3.914,0,0,1,2.059-.543A3.508,3.508,0,0,1-.633-7.516a4.444,4.444,0,0,1,1,3.1v.922H-5.02a2.1,2.1,0,0,0,.66,1.328,2,2,0,0,0,1.395.5A2.437,2.437,0,0,0-.926-2.609L.184-1.367A3.389,3.389,0,0,1-1.191-.246,4.511,4.511,0,0,1-3.113.156Zm-.258-6.937a1.414,1.414,0,0,0-1.09.453A2.341,2.341,0,0,0-5-5.031h3.141v-.18a1.669,1.669,0,0,0-.406-1.16A1.459,1.459,0,0,0-3.371-6.781ZM1.316-4.289a4.954,4.954,0,0,1,.926-3.133,3,3,0,0,1,2.5-1.187A2.631,2.631,0,0,1,6.9-7.656L7-8.453H9.043V-.281a3.613,3.613,0,0,1-.5,1.93A3.236,3.236,0,0,1,7.121,2.9a4.985,4.985,0,0,1-2.141.43,4.635,4.635,0,0,1-1.812-.371A3.217,3.217,0,0,1,1.832,2l1-1.375a2.645,2.645,0,0,0,2.047.945,1.936,1.936,0,0,0,1.4-.48,1.8,1.8,0,0,0,.5-1.363V-.727A2.612,2.612,0,0,1,4.723.156,2.992,2.992,0,0,1,2.258-1.035,4.953,4.953,0,0,1,1.316-4.2Zm2.258.164a3.076,3.076,0,0,0,.461,1.8A1.467,1.467,0,0,0,5.3-1.672a1.568,1.568,0,0,0,1.477-.773V-6a1.565,1.565,0,0,0-1.461-.773,1.476,1.476,0,0,0-1.277.664A3.467,3.467,0,0,0,3.574-4.125ZM15.676,0a2.507,2.507,0,0,1-.227-.758,2.732,2.732,0,0,1-2.133.914,3,3,0,0,1-2.059-.719,2.312,2.312,0,0,1-.816-1.812,2.389,2.389,0,0,1,1-2.062,4.915,4.915,0,0,1,2.879-.727h1.039v-.484a1.393,1.393,0,0,0-.3-.937,1.183,1.183,0,0,0-.949-.352,1.345,1.345,0,0,0-.895.273.929.929,0,0,0-.324.75H10.629a2.268,2.268,0,0,1,.453-1.359,3,3,0,0,1,1.281-.98,4.669,4.669,0,0,1,1.859-.355,3.689,3.689,0,0,1,2.48.785,2.747,2.747,0,0,1,.918,2.207v3.664a4.041,4.041,0,0,0,.336,1.82V0ZM13.809-1.57a1.945,1.945,0,0,0,.922-.223,1.462,1.462,0,0,0,.625-.6V-3.844h-.844q-1.7,0-1.8,1.172l-.008.133a.9.9,0,0,0,.3.7A1.153,1.153,0,0,0,13.809-1.57Zm8.25-8.961v2.078H23.5V-6.8H22.059v4.219a1.007,1.007,0,0,0,.18.672.9.9,0,0,0,.688.2,3.6,3.6,0,0,0,.664-.055V-.047a4.648,4.648,0,0,1-1.367.2,2.156,2.156,0,0,1-2.422-2.4V-6.8H18.566V-8.453H19.8v-2.078ZM27.145,0H24.879V-8.453h2.266Zm-2.4-10.641a1.112,1.112,0,0,1,.34-.836,1.277,1.277,0,0,1,.926-.328,1.28,1.28,0,0,1,.922.328,1.105,1.105,0,0,1,.344.836,1.108,1.108,0,0,1-.348.844,1.283,1.283,0,0,1-.918.328,1.283,1.283,0,0,1-.918-.328A1.108,1.108,0,0,1,24.746-10.641Zm7.422,7.883,1.57-5.7H36.1L33.246,0H31.09L28.238-8.453H30.6ZM39.473,0H37.207V-8.453h2.266Zm-2.4-10.641a1.112,1.112,0,0,1,.34-.836,1.277,1.277,0,0,1,.926-.328,1.28,1.28,0,0,1,.922.328,1.105,1.105,0,0,1,.344.836,1.108,1.108,0,0,1-.348.844,1.283,1.283,0,0,1-.918.328,1.283,1.283,0,0,1-.918-.328A1.108,1.108,0,0,1,37.074-10.641ZM40.98-4.289a5.094,5.094,0,0,1,.887-3.148,2.877,2.877,0,0,1,2.426-1.172,2.589,2.589,0,0,1,2.039.922V-12H48.6V0H46.559l-.109-.9A2.657,2.657,0,0,1,44.277.156,2.869,2.869,0,0,1,41.883-1.02,5.258,5.258,0,0,1,40.98-4.289Zm2.258.164a3.328,3.328,0,0,0,.414,1.82,1.349,1.349,0,0,0,1.2.633,1.511,1.511,0,0,0,1.477-.883V-5.891a1.489,1.489,0,0,0-1.461-.883Q43.238-6.773,43.238-4.125ZM55.246,0a2.507,2.507,0,0,1-.227-.758,2.732,2.732,0,0,1-2.133.914,3,3,0,0,1-2.059-.719,2.312,2.312,0,0,1-.816-1.812,2.389,2.389,0,0,1,1-2.062,4.915,4.915,0,0,1,2.879-.727h1.039v-.484a1.393,1.393,0,0,0-.3-.937,1.183,1.183,0,0,0-.949-.352,1.345,1.345,0,0,0-.895.273.929.929,0,0,0-.324.75H50.2a2.268,2.268,0,0,1,.453-1.359,3,3,0,0,1,1.281-.98,4.669,4.669,0,0,1,1.859-.355,3.689,3.689,0,0,1,2.48.785,2.747,2.747,0,0,1,.918,2.207v3.664a4.041,4.041,0,0,0,.336,1.82V0ZM53.379-1.57a1.945,1.945,0,0,0,.922-.223,1.462,1.462,0,0,0,.625-.6V-3.844h-.844q-1.7,0-1.8,1.172l-.008.133a.9.9,0,0,0,.3.7A1.153,1.153,0,0,0,53.379-1.57Zm5.2-2.719a5.094,5.094,0,0,1,.887-3.148,2.877,2.877,0,0,1,2.426-1.172,2.589,2.589,0,0,1,2.039.922V-12h2.266V0H64.152l-.109-.9A2.657,2.657,0,0,1,61.871.156,2.869,2.869,0,0,1,59.477-1.02,5.258,5.258,0,0,1,58.574-4.289Zm2.258.164a3.328,3.328,0,0,0,.414,1.82,1.349,1.349,0,0,0,1.2.633,1.511,1.511,0,0,0,1.477-.883V-5.891a1.489,1.489,0,0,0-1.461-.883Q60.832-6.773,60.832-4.125Z" transform="translate(1216.102 15141)" fill="#12263f"/>
    <path id="Trazado_899877" data-name="Trazado 899877" d="M7.5,0,15,13H0Z" transform="translate(381.102 14896) rotate(180)" fill="#0ac675"/>
    <g id="Grupo_1108584" data-name="Grupo 1108584" transform="translate(-4.949 53)">
      <g id="Grupo_1108583" data-name="Grupo 1108583">
        <path id="Trazado_899464" data-name="Trazado 899464" d="M53.938,3219.75v-69.083" transform="translate(606.051 11612)" fill="none" stroke="#0ac675" stroke-width="2"/>
        <path id="Polgono_9" data-name="Polgono 9" d="M7.5,0,15,13H0Z" transform="translate(667.051 14843) rotate(180)" fill="#0ac675"/>
      </g>
    </g>
    <g id="Grupo_1108585" data-name="Grupo 1108585" transform="translate(-4.949 185.333)">
      <g id="Grupo_1108583-2" data-name="Grupo 1108583">
        <path id="Trazado_899464-2" data-name="Trazado 899464" d="M53.938,3219.75v-69.083" transform="translate(606.051 11612)" fill="none" stroke="#0ac675" stroke-width="2"/>
        <path id="Polgono_9-2" data-name="Polgono 9" d="M7.5,0,15,13H0Z" transform="translate(667.051 14843) rotate(180)" fill="#0ac675"/>
      </g>
    </g>
    <g id="Grupo_1108586" data-name="Grupo 1108586" transform="translate(-286 185.333)">
      <g id="Grupo_1108583-3" data-name="Grupo 1108583">
        <path id="Trazado_899464-3" data-name="Trazado 899464" d="M53.938,3219.75v-69.083" transform="translate(606.051 11612)" fill="none" stroke="#0ac675" stroke-width="2"/>
        <path id="Polgono_9-3" data-name="Polgono 9" d="M7.5,0,15,13H0Z" transform="translate(667.051 14843) rotate(180)" fill="#0ac675"/>
      </g>
    </g>
    <g id="Grupo_1108587" data-name="Grupo 1108587" transform="translate(275.989 185.333)">
      <g id="Grupo_1108583-4" data-name="Grupo 1108583">
        <path id="Trazado_899464-4" data-name="Trazado 899464" d="M53.938,3219.75v-69.083" transform="translate(606.051 11612)" fill="none" stroke="#0ac675" stroke-width="2"/>
        <path id="Polgono_9-4" data-name="Polgono 9" d="M7.5,0,15,13H0Z" transform="translate(667.051 14843) rotate(180)" fill="#0ac675"/>
      </g>
    </g>
    <g id="Grupo_1108588" data-name="Grupo 1108588" transform="translate(556 185.333)">
      <g id="Grupo_1108583-5" data-name="Grupo 1108583">
        <path id="Trazado_899464-5" data-name="Trazado 899464" d="M53.938,3219.75v-69.083" transform="translate(606.051 11612)" fill="none" stroke="#0ac675" stroke-width="2"/>
        <path id="Polgono_9-5" data-name="Polgono 9" d="M7.5,0,15,13H0Z" transform="translate(667.051 14843) rotate(180)" fill="#0ac675"/>
      </g>
    </g>
    <path id="Trazado_899878" data-name="Trazado 899878" d="M7.5,0,15,13H0Z" transform="translate(942.602 14896) rotate(180)" fill="#0ac675"/>
    <path id="Trazado_899879" data-name="Trazado 899879" d="M7.5,0,15,13H0Z" transform="translate(1223.102 14896) rotate(180)" fill="#0ac675"/>
    <path id="Trazado_899880" data-name="Trazado 899880" d="M338.492,11618.684H305.052v-7.368h33.441V11608l9.859,7-9.859,7Z" transform="translate(11882.05 14810.475) rotate(90)" fill="#8000ff"/>
    <path id="Trazado_899881" data-name="Trazado 899881" d="M338.492,11618.684H305.052v-7.368h33.441V11608l9.859,7-9.859,7Z" transform="translate(-11064.938 15463.878) rotate(-90)" fill="#f80"/>
    <path id="Trazado_899882" data-name="Trazado 899882" d="M338.492,11618.684H305.052v-7.368h33.441V11608l9.859,7-9.859,7Z" transform="translate(-10784.897 15463.878) rotate(-90)" fill="#ff007f"/>
    <path id="Trazado_899883" data-name="Trazado 899883" d="M338.492,11618.684H305.052v-7.368h33.441V11608l9.859,7-9.859,7Z" transform="translate(-10499.948 15463.878) rotate(-90)" fill="#017301"/>
    <path id="Trazado_899884" data-name="Trazado 899884" d="M338.492,11618.684H305.052v-7.368h33.441V11608l9.859,7-9.859,7Z" transform="translate(795.102 26767) rotate(180)" fill="#8000ff"/>
    <path id="Trazado_899885" data-name="Trazado 899885" d="M338.492,11618.684H305.052v-7.368h33.441V11608l9.859,7-9.859,7Z" transform="translate(424.71 3537.002)" fill="#f80"/>
    <path id="Trazado_899886" data-name="Trazado 899886" d="M338.492,11618.684H305.052v-7.368h33.441V11608l9.859,7-9.859,7Z" transform="translate(704.75 3537.002)" fill="#ff007f"/>
    <path id="Trazado_899887" data-name="Trazado 899887" d="M338.492,11618.684H305.052v-7.368h33.441V11608l9.859,7-9.859,7Z" transform="translate(989.699 3537.002)" fill="#017301"/>
  </g>
</svg>
