<svg xmlns="http://www.w3.org/2000/svg" xmlns:xlink="http://www.w3.org/1999/xlink" width="128" height="128" viewBox="0 0 128 128">
  <defs>
    <clipPath id="clip-path">
      <rect id="Rectángulo_405789" data-name="Rectángulo 405789" width="128" height="128" transform="translate(433.384 9749.333)" fill="#fff" stroke="#707070" stroke-width="1"/>
    </clipPath>
  </defs>
  <g id="Grupo_1108107" data-name="Grupo 1108107" transform="translate(-421.051 -9737)">
    <circle id="Elipse_11619" data-name="Elipse 11619" cx="59" cy="59" r="59" transform="translate(426.051 9742)" fill="#8000ff"/>
    <g id="Enmascarar_grupo_1098731" data-name="Enmascarar grupo 1098731" transform="translate(-12.333 -12.333)" clip-path="url(#clip-path)">
      <g id="clima" transform="translate(462.274 9749.001)">
        <path id="Trazado_899083" data-name="Trazado 899083" d="M38.182,5.778H90.836a8.816,8.816,0,0,1,8.784,8.784V125.613a8.826,8.826,0,0,1-8.784,8.832H38.182a8.826,8.826,0,0,1-8.784-8.832V14.561a8.816,8.816,0,0,1,8.784-8.784Z" transform="translate(-29.398 -5.778)" fill="#6b777e" fill-rule="evenodd"/>
        <path id="Trazado_899084" data-name="Trazado 899084" d="M90.16,8.626H37.506a5.273,5.273,0,0,0-5.261,5.261V124.937a5.273,5.273,0,0,0,5.261,5.261H90.16a5.3,5.3,0,0,0,5.261-5.261V13.886a5.3,5.3,0,0,0-5.261-5.26Z" transform="translate(-28.723 -5.102)" fill="#40484c" fill-rule="evenodd"/>
        <path id="Trazado_899085" data-name="Trazado 899085" d="M50.034,93.55h19.16v16.506H50.034Z" transform="translate(-24.504 15.04)" fill="#232a2d" fill-rule="evenodd"/>
        <path id="Trazado_899086" data-name="Trazado 899086" d="M59.6,14.165a3.358,3.358,0,0,1,3.378,3.378v85.81a9.628,9.628,0,1,1-6.709,0V17.543a3.348,3.348,0,0,1,3.33-3.378Z" transform="translate(-24.513 -3.788)" fill="#fbc800" fill-rule="evenodd"/>
        <path id="Trazado_899087" data-name="Trazado 899087" d="M62.978,56.686V93.268a9.628,9.628,0,1,1-6.709,0V56.686Z" transform="translate(-24.513 6.297)" fill="#dc291b" fill-rule="evenodd"/>
        <g id="Grupo_1108058" data-name="Grupo 1108058" transform="translate(11.293 16.506)">
          <path id="Trazado_899088" data-name="Trazado 899088" d="M62.246,89.61a2.6,2.6,0,0,1,2.606,2.606,2.637,2.637,0,0,1-2.606,2.654,2.678,2.678,0,0,1-2.654-2.654,2.637,2.637,0,0,1,2.654-2.606Z" transform="translate(-33.53 -2.4)" fill="#fefefe" fill-rule="evenodd"/>
          <path id="Trazado_899089" data-name="Trazado 899089" d="M39.974,31.571H50.351a1.472,1.472,0,0,1,0,2.944H39.974a1.472,1.472,0,0,1,0-2.944Zm0,12.451H50.351a1.472,1.472,0,0,1,0,2.944H39.974a1.472,1.472,0,0,1,0-2.944Zm0,12.452H50.351a1.472,1.472,0,0,1,0,2.944H39.974a1.472,1.472,0,0,1,0-2.944Zm0,12.451H50.351a1.472,1.472,0,0,1,0,2.944H39.974a1.472,1.472,0,0,1,0-2.944Zm0,12.452H50.351A1.452,1.452,0,0,1,51.8,82.825a1.422,1.422,0,0,1-1.448,1.448H39.974a1.452,1.452,0,0,1-1.448-1.448A1.484,1.484,0,0,1,39.974,81.377Zm0,12.452H50.351a1.448,1.448,0,1,1,0,2.9H39.974a1.448,1.448,0,1,1,0-2.9Zm0-74.71H50.351a1.472,1.472,0,0,1,0,2.944H39.974a1.472,1.472,0,0,1,0-2.944ZM74.337,31.571H84.713a1.472,1.472,0,0,1,0,2.944H74.337a1.472,1.472,0,0,1,0-2.944Zm0,12.451H84.713a1.472,1.472,0,0,1,0,2.944H74.337a1.472,1.472,0,0,1,0-2.944Zm0,12.452H84.713a1.472,1.472,0,0,1,0,2.944H74.337a1.472,1.472,0,0,1,0-2.944Zm0,12.451H84.713a1.472,1.472,0,0,1,0,2.944H74.337a1.472,1.472,0,0,1,0-2.944Zm0,12.452H84.713a1.484,1.484,0,0,1,1.448,1.448,1.452,1.452,0,0,1-1.448,1.448H74.337a1.422,1.422,0,0,1-1.448-1.448A1.452,1.452,0,0,1,74.337,81.377Zm0,12.452H84.713a1.448,1.448,0,1,1,0,2.9H74.337a1.448,1.448,0,1,1,0-2.9Zm0-74.71H84.713a1.472,1.472,0,0,1,0,2.944H74.337a1.472,1.472,0,0,1,0-2.944Z" transform="translate(-38.526 -19.119)" fill="#fefefe" fill-rule="evenodd"/>
        </g>
      </g>
    </g>
  </g>
</svg>
