<svg xmlns="http://www.w3.org/2000/svg" xmlns:xlink="http://www.w3.org/1999/xlink" width="525" height="627" viewBox="0 0 525 627">
  <defs>
    <clipPath id="clip-path">
      <rect id="Rectángulo_405752" data-name="Rectángulo 405752" width="209.995" height="574.337" fill="none"/>
    </clipPath>
    <clipPath id="clip-path-2">
      <rect id="Rectángulo_405751" data-name="Rectángulo 405751" width="209.995" height="574.338" fill="none"/>
    </clipPath>
    <clipPath id="clip-path-3">
      <rect id="Rectángulo_405744" data-name="Rectángulo 405744" width="37.724" height="13.825" fill="none"/>
    </clipPath>
    <clipPath id="clip-path-4">
      <rect id="Rectángulo_405747" data-name="Rectángulo 405747" width="51.064" height="65.518" fill="none"/>
    </clipPath>
    <clipPath id="clip-path-5">
      <rect id="Rectángulo_405748" data-name="Rectángulo 405748" width="20.467" height="2.753" fill="none"/>
    </clipPath>
    <clipPath id="clip-path-6">
      <rect id="Rectángulo_405749" data-name="Rectángulo 405749" width="5.697" height="5.695" fill="none"/>
    </clipPath>
    <clipPath id="clip-path-7">
      <rect id="Rectángulo_405750" data-name="Rectángulo 405750" width="10.33" height="10.332" fill="none"/>
    </clipPath>
  </defs>
  <g id="Grupo_1108031" data-name="Grupo 1108031" transform="translate(-790.051 -10741)">
    <g id="Grupo_1108029" data-name="Grupo 1108029">
      <rect id="Rectángulo_405738" data-name="Rectángulo 405738" width="525" height="627" rx="20" transform="translate(790.051 10741)" fill="#f3e6ff"/>
      <g id="Grupo_1108022" data-name="Grupo 1108022" transform="translate(845 10742.663)">
        <g id="Grupo_1108023" data-name="Grupo 1108023">
          <g id="Grupo_1108020" data-name="Grupo 1108020" transform="translate(0 0)">
            <g id="Grupo_1108024" data-name="Grupo 1108024">
              <g id="Grupo_1108018" data-name="Grupo 1108018" transform="translate(0 19.998)" opacity="0.5">
                <g id="Grupo_1108017" data-name="Grupo 1108017">
                  <g id="Grupo_1108025" data-name="Grupo 1108025">
                    <g id="Grupo_1108026" data-name="Grupo 1108026" transform="translate(-245 418)">
                      <rect id="Rectángulo_405753" data-name="Rectángulo 405753" width="28.921" height="2.476" transform="matrix(0.157, -0.988, 0.988, 0.157, 567.625, 55.415)" fill="#fff"/>
                      <path id="Trazado_899046" data-name="Trazado 899046" d="M2587.952,316.917a6.565,6.565,0,1,1-7.516,5.451,6.565,6.565,0,0,1,7.516-5.451" transform="translate(-2018.071 -267.791)" fill="#fff"/>
                      <path id="Trazado_899047" data-name="Trazado 899047" d="M2608.828,185.848a6.565,6.565,0,1,1-7.516,5.451,6.565,6.565,0,0,1,7.516-5.451" transform="translate(-2034.398 -165.283)" fill="#fff"/>
                      <path id="Trazado_899048" data-name="Trazado 899048" d="M2867.65,292.306a7.826,7.826,0,1,1-.507-.794,7.952,7.952,0,0,1,.507.794m-11.482,6.372a5.365,5.365,0,0,0,.346.542,5.308,5.308,0,1,0-.346-.542" transform="translate(-2231.323 -245.465)" fill="#fff"/>
                      <rect id="Rectángulo_405754" data-name="Rectángulo 405754" width="28.921" height="2.476" transform="matrix(0.157, -0.988, 0.988, 0.157, 607.763, 61.809)" fill="#fff"/>
                      <path id="Trazado_899049" data-name="Trazado 899049" d="M2773.491,344.506a7.818,7.818,0,1,1-.507-.794,7.9,7.9,0,0,1,.507.794m-11.482,6.372a5.392,5.392,0,0,0,.346.542,5.307,5.307,0,1,0-.346-.542" transform="translate(-2157.682 -286.29)" fill="#fff"/>
                      <path id="Trazado_899050" data-name="Trazado 899050" d="M2794.368,213.437a7.818,7.818,0,1,1-.507-.794,7.967,7.967,0,0,1,.507.794m-11.482,6.372a5.436,5.436,0,0,0,.346.542,5.312,5.312,0,1,0-.346-.542" transform="translate(-2174.01 -183.782)" fill="#fff"/>
                      <rect id="Rectángulo_405755" data-name="Rectángulo 405755" width="28.921" height="2.476" transform="matrix(0.157, -0.988, 0.988, 0.157, 644.25, 67.62)" fill="#fff"/>
                      <path id="Trazado_899051" data-name="Trazado 899051" d="M2940.929,371.174a7.8,7.8,0,1,1-5.589-3.915,7.762,7.762,0,0,1,5.589,3.915m-11.47,6.379a5.325,5.325,0,1,0-.607-3.426,5.32,5.32,0,0,0,.607,3.426" transform="translate(-2288.641 -307.15)" fill="#fff"/>
                      <path id="Trazado_899052" data-name="Trazado 899052" d="M2961.805,240.1a7.8,7.8,0,1,1-5.589-3.915,7.764,7.764,0,0,1,5.589,3.915m-11.47,6.379a5.323,5.323,0,1,0-.607-3.426,5.32,5.32,0,0,0,.607,3.426" transform="translate(-2304.967 -204.639)" fill="#fff"/>
                      <rect id="Rectángulo_405756" data-name="Rectángulo 405756" width="57.842" height="2.476" transform="translate(585.981 72.981) rotate(-80.95)" fill="#fff"/>
                      <path id="Trazado_899053" data-name="Trazado 899053" d="M2713.941,135.393a6.565,6.565,0,1,1-7.516,5.451,6.565,6.565,0,0,1,7.516-5.451" transform="translate(-2116.606 -125.822)" fill="#fff"/>
                      <path id="Trazado_899054" data-name="Trazado 899054" d="M2672.188,397.531a6.565,6.565,0,1,1-7.516,5.451,6.565,6.565,0,0,1,7.516-5.451" transform="translate(-2083.952 -330.838)" fill="#fff"/>
                      <path id="Trazado_899055" data-name="Trazado 899055" d="M2866.305,294.055a6.565,6.565,0,1,1-7.516,5.451,6.564,6.564,0,0,1,7.516-5.451" transform="translate(-2235.77 -249.91)" fill="#fff"/>
                      <rect id="Rectángulo_405757" data-name="Rectángulo 405757" width="28.921" height="2.476" transform="matrix(0.157, -0.988, 0.988, 0.157, 607.763, 61.809)" fill="#fff"/>
                      <path id="Trazado_899056" data-name="Trazado 899056" d="M2772.146,346.255a6.565,6.565,0,1,1-7.516,5.451,6.565,6.565,0,0,1,7.516-5.451" transform="translate(-2162.128 -290.735)" fill="#fff"/>
                      <path id="Trazado_899057" data-name="Trazado 899057" d="M2793.022,215.186a6.565,6.565,0,1,1-7.516,5.451,6.565,6.565,0,0,1,7.516-5.451" transform="translate(-2178.455 -188.228)" fill="#fff"/>
                      <rect id="Rectángulo_405758" data-name="Rectángulo 405758" width="28.921" height="2.476" transform="matrix(0.157, -0.988, 0.988, 0.157, 644.25, 67.62)" fill="#fff"/>
                      <path id="Trazado_899058" data-name="Trazado 899058" d="M2939.588,372.924a6.565,6.565,0,1,1-7.516,5.451,6.565,6.565,0,0,1,7.516-5.451" transform="translate(-2293.083 -311.593)" fill="#fff"/>
                      <path id="Trazado_899059" data-name="Trazado 899059" d="M2955.282,234.945a8.075,8.075,0,1,1-9.244,6.7,8.075,8.075,0,0,1,9.244-6.7" transform="translate(-2303.991 -203.666)" fill="#fff"/>
                      <rect id="Rectángulo_405759" data-name="Rectángulo 405759" width="28.921" height="2.476" transform="matrix(0.157, -0.988, 0.988, 0.157, 684.387, 74.013)" fill="#fff"/>
                      <path id="Trazado_899060" data-name="Trazado 899060" d="M3123.782,402.262a6.565,6.565,0,1,1-7.516,5.451,6.565,6.565,0,0,1,7.516-5.451" transform="translate(-2437.14 -334.538)" fill="#fff"/>
                      <path id="Trazado_899061" data-name="Trazado 899061" d="M3144.657,271.193a6.565,6.565,0,1,1-7.516,5.451,6.565,6.565,0,0,1,7.516-5.451" transform="translate(-2453.466 -232.03)" fill="#fff"/>
                      <rect id="Rectángulo_405760" data-name="Rectángulo 405760" width="57.842" height="2.476" transform="matrix(0.157, -0.988, 0.988, 0.157, 662.605, 85.187)" fill="#fff"/>
                      <path id="Trazado_899062" data-name="Trazado 899062" d="M3065.576,191.4a6.565,6.565,0,1,1-7.516,5.451,6.565,6.565,0,0,1,7.516-5.451" transform="translate(-2391.617 -169.625)" fill="#fff"/>
                      <path id="Trazado_899063" data-name="Trazado 899063" d="M3023.824,453.538a6.565,6.565,0,1,1-7.516,5.451,6.565,6.565,0,0,1,7.516-5.451" transform="translate(-2358.964 -374.641)" fill="#fff"/>
                    </g>
                    <g id="Grupo_1108027" data-name="Grupo 1108027">
                      <path id="Trazado_899064" data-name="Trazado 899064" d="M221.468,246.277a16.935,16.935,0,0,1-7.885-2.347c-4.274-2.306-9-6.239-14.049-11.691-10.27-11.093-20.816-27.318-29.694-45.688S154.8,149.839,152.488,134.9c-1.136-7.342-1.282-13.49-.433-18.272.928-5.228,3.023-8.663,6.226-10.211s7.2-1.055,11.869,1.466c4.274,2.306,9,6.239,14.049,11.691,10.27,11.093,20.816,27.318,29.694,45.687s15.04,36.713,17.352,51.653c1.136,7.342,1.282,13.49.433,18.271-.928,5.227-3.022,8.663-6.225,10.211a9.043,9.043,0,0,1-3.984.881m-59.2-138.236a6.589,6.589,0,0,0-2.9.625c-4.973,2.4-6.581,11.826-4.411,25.851,2.275,14.7,8.359,32.795,17.133,50.947s19.171,34.161,29.278,45.077c7.961,8.6,15.063,13.229,20.1,13.23a6.586,6.586,0,0,0,2.9-.625c4.973-2.4,6.581-11.826,4.41-25.851-2.275-14.7-8.359-32.795-17.132-50.947s-19.171-34.161-29.278-45.077c-7.961-8.6-15.064-13.23-20.1-13.23" transform="translate(-118.496 -102.535)" fill="#fff"/>
                      <path id="Trazado_899065" data-name="Trazado 899065" d="M31.719,323.992a39.48,39.48,0,0,1-6.862-.544c-5.228-.928-8.663-3.022-10.211-6.226s-1.055-7.2,1.466-11.869c2.306-4.274,6.239-9,11.691-14.048C38.9,281.035,55.121,270.489,73.49,261.611l.544,1.125-.544-1.125c18.369-8.878,36.713-15.041,51.653-17.352,7.342-1.136,13.49-1.282,18.271-.433,5.228.928,8.663,3.023,10.211,6.226s1.055,7.2-1.465,11.869c-2.306,4.274-6.239,9-11.691,14.048-11.093,10.27-27.318,20.816-45.687,29.694S58.068,320.7,43.129,323.016a75.4,75.4,0,0,1-11.41.976m104.85-78.209a73.106,73.106,0,0,0-11.044.945c-14.7,2.275-32.795,8.359-50.947,17.132S40.416,283.032,29.5,293.139c-10.414,9.642-15.008,18.024-12.6,23s11.825,6.581,25.851,4.411c14.7-2.275,32.795-8.359,50.947-17.132s34.161-19.171,45.077-29.278c10.414-9.642,15.008-18.024,12.6-23-1.7-3.521-6.924-5.356-14.807-5.356" transform="translate(-10.765 -210.266)" fill="#fff"/>
                      <path id="Trazado_899066" data-name="Trazado 899066" d="M190.462,238.511a8.794,8.794,0,0,1-2.913-.485c-3.36-1.17-5.835-4.343-7.356-9.429-1.392-4.653-1.953-10.776-1.667-18.2.582-15.106,4.6-34.036,11.309-53.3l1.18.411-1.18-.411c6.711-19.267,15.325-36.6,24.254-48.794,4.388-6,8.632-10.445,12.614-13.226,4.352-3.04,8.262-3.989,11.622-2.818s5.835,4.343,7.357,9.429c1.392,4.653,1.953,10.776,1.667,18.2-.582,15.106-4.6,34.036-11.309,53.3s-15.325,36.6-24.254,48.794c-4.388,6-8.632,10.445-12.614,13.226-3.148,2.2-6.065,3.3-8.71,3.3M235.426,94.275c-5.1,0-11.988,5.482-19.321,15.5-8.787,12-17.279,29.1-23.911,48.14s-10.6,37.712-11.172,52.577c-.546,14.181,2.132,23.357,7.349,25.174a6.281,6.281,0,0,0,2.077.34c5.1,0,11.987-5.482,19.321-15.5,8.787-12,17.279-29.1,23.911-48.14s10.6-37.712,11.172-52.577c.546-14.181-2.133-23.357-7.349-25.174a6.277,6.277,0,0,0-2.077-.34" transform="translate(-139.567 -91.77)" fill="#fff"/>
                      <path id="Trazado_899067" data-name="Trazado 899067" d="M122.278,339.192q-1.77,0-3.652-.072c-15.106-.582-34.036-4.6-53.3-11.309s-36.6-15.325-48.794-24.254c-6-4.389-10.445-8.632-13.226-12.614C.263,286.59-.685,282.679.485,279.32s4.343-5.835,9.429-7.356c4.653-1.392,10.776-1.953,18.2-1.667,15.106.582,34.036,4.6,53.3,11.309s36.6,15.325,48.794,24.254c6,4.389,10.445,8.632,13.226,12.614,3.04,4.353,3.989,8.263,2.818,11.623s-4.343,5.835-9.429,7.356a51.756,51.756,0,0,1-14.548,1.74M24.495,272.723c-12.173,0-19.988,2.648-21.65,7.418-1.817,5.216,3.709,13.015,15.16,21.4,12,8.787,29.1,17.279,48.14,23.911s37.712,10.6,52.577,11.172q1.816.07,3.524.07c12.173,0,19.989-2.648,21.65-7.418,1.817-5.216-3.709-13.015-15.16-21.4-12-8.787-29.1-17.279-48.14-23.911s-37.712-10.6-52.577-11.172q-1.816-.07-3.524-.07" transform="translate(0 -231.337)" fill="#fff"/>
                      <path id="Trazado_899068" data-name="Trazado 899068" d="M297.756,364.482c3.836,7.936.219,17.621-8.078,21.63s-18.132.827-21.968-7.109-.219-17.621,8.078-21.63,18.132-.827,21.968,7.109" transform="translate(-208.176 -298.14)" fill="#fff"/>
                      <path id="Trazado_899069" data-name="Trazado 899069" d="M340.7,134.285a6.453,6.453,0,1,1-8.488-2.747,6.311,6.311,0,0,1,8.488,2.747" transform="translate(-256.914 -122.349)" fill="#fff"/>
                      <path id="Trazado_899070" data-name="Trazado 899070" d="M404.484,706.167A6.453,6.453,0,1,1,396,703.421a6.311,6.311,0,0,1,8.488,2.746" transform="translate(-306.802 -569.612)" fill="#fff"/>
                      <path id="Trazado_899071" data-name="Trazado 899071" d="M35.931,375.873a6.453,6.453,0,1,1-8.488-2.747,6.311,6.311,0,0,1,8.488,2.747" transform="translate(-18.56 -311.292)" fill="#fff"/>
                      <path id="Trazado_899072" data-name="Trazado 899072" d="M633.283,251.706a6.453,6.453,0,1,1-8.488-2.747,6.311,6.311,0,0,1,8.488,2.747" transform="translate(-485.743 -214.183)" fill="#fff"/>
                    </g>
                  </g>
                </g>
              </g>
              <path id="Trazado_899077" data-name="Trazado 899077" d="M22.772,1012.777a17.659,17.659,0,1,1,17.659-17.659,17.679,17.679,0,0,1-17.659,17.659m0-34.058a16.4,16.4,0,1,0,16.4,16.4,16.418,16.418,0,0,0-16.4-16.4" transform="translate(-3.999 -764.462)" fill="#fff"/>
              <g id="Grupo_1108028" data-name="Grupo 1108028" transform="translate(58.404 5)">
                <path id="Trazado_899078" data-name="Trazado 899078" d="M1040.254,224.97a23.331,23.331,0,1,1,23.331-23.331,23.357,23.357,0,0,1-23.331,23.331m0-45.4a22.072,22.072,0,1,0,22.072,22.072,22.1,22.1,0,0,0-22.072-22.072" transform="translate(-795.327 -139.453)" fill="#fff"/>
                <path id="Trazado_899079" data-name="Trazado 899079" d="M1573.744,168.538a8.327,8.327,0,1,1,8.327-8.327,8.337,8.337,0,0,1-8.327,8.327m0-15.394a7.067,7.067,0,1,0,7.067,7.067,7.075,7.075,0,0,0-7.067-7.067" transform="translate(-1224.299 -118.787)" fill="#fff"/>
                <path id="Trazado_899080" data-name="Trazado 899080" d="M1312.658,496.818a15.933,15.933,0,1,1,15.933-15.933,15.951,15.951,0,0,1-15.933,15.933m0-30.607a14.674,14.674,0,1,0,14.674,14.674,14.69,14.69,0,0,0-14.674-14.674" transform="translate(-1014.157 -363.635)" fill="#fff"/>
              </g>
              <g id="Grupo_1108030" data-name="Grupo 1108030" transform="translate(-122.596 407)">
                <path id="Trazado_899078-2" data-name="Trazado 899078" d="M1040.254,224.97a23.331,23.331,0,1,1,23.331-23.331,23.357,23.357,0,0,1-23.331,23.331m0-45.4a22.072,22.072,0,1,0,22.072,22.072,22.1,22.1,0,0,0-22.072-22.072" transform="translate(-795.327 -139.453)" fill="#fff"/>
                <path id="Trazado_899079-2" data-name="Trazado 899079" d="M1573.744,168.538a8.327,8.327,0,1,1,8.327-8.327,8.337,8.337,0,0,1-8.327,8.327m0-15.394a7.067,7.067,0,1,0,7.067,7.067,7.075,7.075,0,0,0-7.067-7.067" transform="translate(-1224.299 -118.787)" fill="#fff"/>
                <path id="Trazado_899080-2" data-name="Trazado 899080" d="M1312.658,496.818a15.933,15.933,0,1,1,15.933-15.933,15.951,15.951,0,0,1-15.933,15.933m0-30.607a14.674,14.674,0,1,0,14.674,14.674,14.69,14.69,0,0,0-14.674-14.674" transform="translate(-1014.157 -363.635)" fill="#fff"/>
              </g>
            </g>
          </g>
        </g>
      </g>
    </g>
    <g id="Grupo_1108015" data-name="Grupo 1108015" transform="translate(1000.005 10761.663)">
      <g id="Grupo_1108014" data-name="Grupo 1108014" clip-path="url(#clip-path)">
        <g id="Grupo_1108013" data-name="Grupo 1108013" transform="translate(0 -0.001)">
          <g id="Grupo_1108012" data-name="Grupo 1108012" clip-path="url(#clip-path-2)">
            <path id="Trazado_898963" data-name="Trazado 898963" d="M25,391.627l-.2-8.428,4.086.215s1.969,8.726,1.563,11.041A52.442,52.442,0,0,1,25,391.627" transform="translate(-19.4 -299.741)" fill="#913d3a"/>
            <g id="Grupo_1107999" data-name="Grupo 1107999" transform="translate(8.708 79.302)" opacity="0.5">
              <g id="Grupo_1107998" data-name="Grupo 1107998">
                <g id="Grupo_1107997" data-name="Grupo 1107997" clip-path="url(#clip-path-3)">
                  <path id="Trazado_898964" data-name="Trazado 898964" d="M77.689,374.671l-.046.306a1.3,1.3,0,0,1-1.525,1.082l-1.685-.3a1.306,1.306,0,0,0-1.525,1.087,1.309,1.309,0,0,1-1.525,1.082L46.14,373.415l-5.036-.9a1.369,1.369,0,0,1-1.1-1.552l.922-5.739a1.3,1.3,0,0,1,1.52-1.082l24.248,4.333,6.036,1.078a1.363,1.363,0,0,1,1.1,1.552l-.023.16a1.358,1.358,0,0,0,1.1,1.552l1.685.3a1.363,1.363,0,0,1,1.1,1.552" transform="translate(-39.982 -364.122)" fill="#fff"/>
                </g>
              </g>
            </g>
            <path id="Trazado_898965" data-name="Trazado 898965" d="M99.8,390.306l-.046.306a1.3,1.3,0,0,1-1.525,1.082l-1.685-.3a1.306,1.306,0,0,0-1.525,1.087,1.309,1.309,0,0,1-1.525,1.082L68.254,389.05c.164-.142.324-.283.489-.425,1-.881,9.058-1.255,10.391-1.132,3.538.32,5.7-.571,6.849-1.484.424-.338,1.8-1.205,2.821-1.9l6.036,1.078a1.362,1.362,0,0,1,1.1,1.552l-.023.16a1.358,1.358,0,0,0,1.1,1.552l1.685.3a1.363,1.363,0,0,1,1.1,1.552" transform="translate(-53.389 -300.454)" fill="#8000ff"/>
            <path id="Trazado_898966" data-name="Trazado 898966" d="M38.922,355.9l-1.614,10.066a.9.9,0,0,1-1.046.744.936.936,0,0,1-.757-1.066l1.614-10.066a.9.9,0,0,1,1.047-.744.936.936,0,0,1,.757,1.066" transform="translate(-27.763 -277.545)" fill="#3d2a32"/>
            <path id="Trazado_898967" data-name="Trazado 898967" d="M.052,363.159h0a4.211,4.211,0,0,0,3.4,4.8l4.482.8,1.305-8.141-4.482-.8a4.034,4.034,0,0,0-4.709,3.346" transform="translate(0 -281.398)" fill="#3d2a32"/>
            <path id="Trazado_898968" data-name="Trazado 898968" d="M211.588,426.131a1.089,1.089,0,1,1-2.107-.056,15.251,15.251,0,0,1,1.072-3.122.067.067,0,0,1,.131,0,15.25,15.25,0,0,1,.9,3.174" transform="translate(-163.858 -330.798)" fill="#8000ff"/>
            <path id="Trazado_898969" data-name="Trazado 898969" d="M3.264,463.639l20.22-1.587s6.678,16.872,3.987,20.46c.4.18-9.105,4.511-15.685,1.146a192.468,192.468,0,0,1-8.522-20.019" transform="translate(-2.553 -361.421)" fill="#fab09d"/>
            <path id="Trazado_898970" data-name="Trazado 898970" d="M3.264,378.138l3.507-24.159a1.441,1.441,0,0,1,2.866.225l-.3,24.359Z" transform="translate(-2.553 -275.921)" fill="#fab09d"/>
            <path id="Trazado_898971" data-name="Trazado 898971" d="M34.568,413.443l.831,11.238-5.923.364.153-11.5a1.544,1.544,0,0,1,1.611-1.512c.568.018,1.14.014,1.711-.011a1.539,1.539,0,0,1,1.617,1.417" transform="translate(-23.056 -322.289)" fill="#fab09d"/>
            <path id="Trazado_898972" data-name="Trazado 898972" d="M54.146,422.756l-.019,9.5a1.64,1.64,0,0,1-1.663,1.636l-2.506-.036a1.64,1.64,0,0,1-1.61-1.785l.856-9.585A1.629,1.629,0,0,1,50.983,421c.515.054,1.034.091,1.554.11a1.65,1.65,0,0,1,1.609,1.643" transform="translate(-37.813 -329.306)" fill="#fab09d"/>
            <path id="Trazado_898973" data-name="Trazado 898973" d="M75.51,432.416l.934,6.073-5.951,2.987.828-9.272a1.668,1.668,0,0,1,1.814-1.513q.4.036.794.055a1.666,1.666,0,0,1,1.582,1.67" transform="translate(-55.14 -336.885)" fill="#fab09d"/>
            <path id="Trazado_898974" data-name="Trazado 898974" d="M44.827,430.207a.63.63,0,0,1-.619-.747l1.356-7.124a.629.629,0,0,1,1.237.235l-1.356,7.124a.63.63,0,0,1-.618.512" transform="translate(-34.571 -329.954)" fill="#3d2a32"/>
            <path id="Trazado_898975" data-name="Trazado 898975" d="M20.824,421.8a.63.63,0,0,1-.616-.762l1.907-8.834a.629.629,0,1,1,1.23.266L21.439,421.3a.63.63,0,0,1-.615.5" transform="translate(-15.796 -322.041)" fill="#3d2a32"/>
            <path id="Trazado_898976" data-name="Trazado 898976" d="M69.944,438.863a.6.6,0,0,1-.071,0,.629.629,0,0,1-.555-.7l.605-5.374a.629.629,0,0,1,1.251.141l-.605,5.374a.63.63,0,0,1-.625.559" transform="translate(-54.218 -338.094)" fill="#3d2a32"/>
            <path id="Trazado_898977" data-name="Trazado 898977" d="M42.392,549.532l7.13,24.074,17.35-8-7.557-19.339Z" transform="translate(-33.159 -427.295)" fill="#fab09d"/>
            <path id="Trazado_898978" data-name="Trazado 898978" d="M118.146,641.916,104.06,675.484a17.561,17.561,0,0,0-.869,14.689c1.773,4.436,5.394,10.078,13.262,10.351,8.334.289,16-1.121,18.974-7.625a189.634,189.634,0,0,0,8.836-25.152Z" transform="translate(-79.767 -502.113)" fill="#fff"/>
            <path id="Trazado_898979" data-name="Trazado 898979" d="M145.219,448.773,122.714,518.6l30.383,24.53,23.449-47.663s-11.833-44.314-31.327-46.691" transform="translate(-95.988 -351.034)" fill="#fff"/>
            <path id="Trazado_898980" data-name="Trazado 898980" d="M47.791,608.671c-7.539-20.184-16.119-63.733-16.119-63.733l19.257-5.761s21.634,40.513,26.384,63.87c1.736,11.011-22.686,23.925-29.522,5.624" transform="translate(-24.774 -421.749)" fill="#fff"/>
            <path id="Trazado_898981" data-name="Trazado 898981" d="M167.961,635.992a.63.63,0,0,1-.59-.411c-3.722-10.077-7.47-17.968-7.507-18.047a.629.629,0,0,1,1.136-.542c.038.079,3.808,8.019,7.551,18.152a.63.63,0,0,1-.59.848" transform="translate(-124.999 -482.336)" fill="#3d2a32"/>
            <path id="Trazado_898982" data-name="Trazado 898982" d="M36.6,573.774a.63.63,0,0,1-.218-1.22l20.108-7.418a.629.629,0,0,1,.436,1.181l-20.108,7.418a.63.63,0,0,1-.218.039" transform="translate(-28.135 -442.024)" fill="#3d2a32"/>
            <path id="Trazado_898983" data-name="Trazado 898983" d="M273.886,56.636c-1.53,2.207-2.164,5.136-.437,7.239a19.339,19.339,0,0,0,3.363,2.641c1.139.871,2.132,2.08,1.9,3.356a5.235,5.235,0,0,1-1.076,1.966c-.968,1.351-3.053,1.541-3.019,5.956h73.8a6.448,6.448,0,0,0-1.061-5.4c-1.823-2.181-5.874-3.286-4.464-6.661a5.558,5.558,0,0,1,2.336-2.526c5.875-3.532,6.156-11,1.932-15.639-1.7-1.868-4.078-3.445-4.794-5.716-1.26-3.994,3.13-7.592,4.3-11.6,1.124-3.841-1.119-8.2-5.23-10.152-1.841-.876-3.979-1.406-5.4-2.72-3.884-3.588-.933-6.938-3.531-10.739-5.538-8.1-19.957-8.937-27.244-1.673a5.671,5.671,0,0,1-5.2,1.944c-3.463-.737-7.02-1.016-10.135.292-3.524,1.479-5.642,5-4.965,8.246.363,1.738,1.437,3.406,1.23,5.162-.3,2.537-3.1,4.289-5.735,5.576s-5.577,2.667-6.552,5.082c-.992,2.456.469,5.179,2.558,7.094,1.766,1.619,4.058,2.978,4.938,5.043,1.024,2.4-.194,5.09-1.946,7.178s-4.041,3.854-5.571,6.06" transform="translate(-213.085 0.004)" fill="#3d2a32"/>
            <path id="Trazado_898984" data-name="Trazado 898984" d="M392.333,260.937c0,.032.014.064.018.1-.032-.037-.037-.068-.018-.1" transform="translate(-306.878 -204.107)" fill="#fab09d"/>
            <path id="Trazado_898985" data-name="Trazado 898985" d="M342.05,298.724c-29.544,52.446-70.891.47-70.891.47s16.1-3.269,23.527-16.03c3.146-5.4,4.739-12.505,2.89-21.787.931,1.114,26.54,4.465,26.54,4.465-.571.776-3.013,9.355.689,18.016,2.411,5.629,7.424,11.3,17.245,14.866" transform="translate(-212.103 -204.451)" fill="#fab09d"/>
            <path id="Trazado_898986" data-name="Trazado 898986" d="M407.682,275.591a106.659,106.659,0,0,1,10.665-1.79c6.392.954,12.558,1.761,12.558,1.761-.349.477-1.4,3.886-1.311,8.448-5.51.923-18.79,1.986-21.911-8.419" transform="translate(-318.893 -214.169)" fill="#c9785e"/>
            <path id="Trazado_898987" data-name="Trazado 898987" d="M382.691,30.256s20.2-2.077,21.146,20.768c0,4.153,3.21,40.97-18.125,40.781-4.153,0-18.88,0-19.635-31.341,0-7.93-1.888-28.32,16.614-30.208" transform="translate(-286.306 -23.628)" fill="#fab09d"/>
            <path id="Trazado_898988" data-name="Trazado 898988" d="M391.038,40.326c-.561.629-10.1,6.042-17.654,2.266-3.744-1.437-8.277-.441-10.007,5.381-2.658,12.209-4.027,10.208-5.577,9.251-.482-1.163-9.479-28.352,9.976-30.491-.181-.5,11.64-4.8,18.253,1.973.437.256,5.009,11.621,5.009,11.621" transform="translate(-277.925 -19.496)" fill="#3d2a32"/>
            <path id="Trazado_898989" data-name="Trazado 898989" d="M335.488,158.237s-3.029-6.94-7.007-3.625c-1.326.994-4.641,6.63.994,12.6.994.994,4.972,3.978,8.619.994-.331-.663-2.606-9.966-2.606-9.966" transform="translate(-255.236 -120.236)" fill="#fab09d"/>
            <path id="Trazado_898990" data-name="Trazado 898990" d="M346.634,181.624a.628.628,0,0,1-.472-.213l-4.972-5.635a.629.629,0,0,1,.944-.833l4.972,5.635a.629.629,0,0,1-.472,1.046" transform="translate(-266.759 -136.675)" fill="#3d2a32"/>
            <path id="Trazado_898991" data-name="Trazado 898991" d="M500.277,54.279c.164.746,1.194,17.477,5.979,16.172.043-.069,6.411-25.307-9.886-28.17Z" transform="translate(-388.266 -33.072)" fill="#3d2a32"/>
            <path id="Trazado_898992" data-name="Trazado 898992" d="M529.749,158.237s3.029-6.94,7.007-3.625c1.326.994,4.641,6.63-.994,12.6-.994.994-4.972,3.978-8.619.994.331-.663,2.606-9.966,2.606-9.966" transform="translate(-412.337 -120.236)" fill="#fab09d"/>
            <path id="Trazado_898993" data-name="Trazado 898993" d="M538.581,181.624a.629.629,0,0,1-.472-1.046l4.972-5.635a.629.629,0,1,1,.944.833l-4.972,5.635a.628.628,0,0,1-.472.213" transform="translate(-420.792 -136.675)" fill="#3d2a32"/>
            <path id="Trazado_898994" data-name="Trazado 898994" d="M492.035,188.733c0,.938.423,1.7.944,1.7s.944-.761.944-1.7-.423-1.7-.944-1.7-.944.761-.944,1.7" transform="translate(-384.875 -146.299)" fill="#261c1c"/>
            <path id="Trazado_898995" data-name="Trazado 898995" d="M412.016,188.733c0,.938.423,1.7.944,1.7s.944-.761.944-1.7-.423-1.7-.944-1.7-.944.761-.944,1.7" transform="translate(-322.283 -146.299)" fill="#261c1c"/>
            <path id="Trazado_898996" data-name="Trazado 898996" d="M450.1,188.745a6.3,6.3,0,0,1-1.963-.413.629.629,0,0,1,.4-1.194c1.57.524,2.227.465,2.769-.293a65.206,65.206,0,0,0-.475-11.394.629.629,0,1,1,1.245-.185,66.551,66.551,0,0,1,.478,11.819.631.631,0,0,1-.1.3,2.648,2.648,0,0,1-2.355,1.355m1.823-1.693h0Z" transform="translate(-350.197 -136.674)" fill="#3d2a32"/>
            <path id="Trazado_898997" data-name="Trazado 898997" d="M401.991,164.355c-.138.05-.3.108-.482.183l-.551.225c-.379.151-.768.294-1.17.417a11.9,11.9,0,0,1-2.483.485,10.557,10.557,0,0,1-2.532-.082,8.939,8.939,0,0,1-2.413-.706c.842-.077,1.647-.087,2.444-.171.794-.069,1.575-.157,2.348-.291s1.537-.287,2.31-.461c.387-.084.778-.177,1.181-.256.2-.037.408-.079.626-.106.1-.016.226-.023.339-.033a1.417,1.417,0,0,1,.186,0c.066,0,.131.006.2.012a.388.388,0,0,1,.1.751Z" transform="translate(-306.909 -127.934)" fill="#3d2a32"/>
            <path id="Trazado_898998" data-name="Trazado 898998" d="M477.341,160.3l1.141-.354c.408-.113.823-.225,1.247-.31a12.211,12.211,0,0,1,2.607-.259,7.333,7.333,0,0,1,2.639.5,4.6,4.6,0,0,1,1.169.7,3.264,3.264,0,0,1,.828,1.035,5.29,5.29,0,0,0-2.244-.891,11.029,11.029,0,0,0-2.368-.08c-.8.049-1.605.147-2.423.251l-1.241.149c-.21.018-.423.042-.64.054a4.166,4.166,0,0,1-.714-.005.392.392,0,0,1-.074-.764Z" transform="translate(-373.108 -124.665)" fill="#3d2a32"/>
            <path id="Trazado_898999" data-name="Trazado 898999" d="M439.073,256.073,426.8,254.161s3.505,7.255,12.272,1.912" transform="translate(-333.848 -198.807)" fill="#fff"/>
            <rect id="Rectángulo_405745" data-name="Rectángulo 405745" width="22.86" height="21.219" transform="translate(50.476 541.306)" fill="#fab09d"/>
            <path id="Trazado_899000" data-name="Trazado 899000" d="M86.169,2547.84l5.649,19.444H16.406a408.76,408.76,0,0,1,46.9-17.868c0,.526,9.328,9.722,22.86-1.576" transform="translate(-12.833 -1992.947)" fill="#3d2a32"/>
            <path id="Trazado_899001" data-name="Trazado 899001" d="M138.126,2547.84l-26.072,10.683s25,6.02,46.171-8.616c-1.8-.586-20.1-2.067-20.1-2.067" transform="translate(-87.65 -1992.947)" fill="#fab09d"/>
            <rect id="Rectángulo_405746" data-name="Rectángulo 405746" width="22.86" height="21.219" transform="translate(140.232 541.306)" fill="#fab09d"/>
            <path id="Trazado_899002" data-name="Trazado 899002" d="M623.6,2547.84l-5.649,19.444h75.412a408.76,408.76,0,0,0-46.9-17.868c0,.526-9.328,9.722-22.86-1.576" transform="translate(-483.367 -1992.947)" fill="#3d2a32"/>
            <path id="Trazado_899003" data-name="Trazado 899003" d="M676.663,2547.84l26.072,10.683s-25,6.02-46.171-8.616c1.8-.586,20.1-2.067,20.1-2.067" transform="translate(-513.571 -1992.947)" fill="#fab09d"/>
            <path id="Trazado_899004" data-name="Trazado 899004" d="M162.953,940.609h79.28s12.287,11.547,16.465,44.2c9.437,73.768,20.844,224.79,25.666,296.576.066,2.386-58.772,2.636-58.772,2.636l-22.184-216.543L194.872,1283.8s-42.692-.862-61.033-3.168c-1.109-2.039-2.292-175.46,16.932-295.818,2.972-18.607,9.932-30.686,12.182-44.2" transform="translate(-104.277 -735.754)" fill="#4b343d"/>
            <path id="Trazado_899005" data-name="Trazado 899005" d="M634.493,1372.359a.629.629,0,0,1-.626-.57l-30.038-317.372a.629.629,0,1,1,1.253-.119L635.12,1371.67a.629.629,0,0,1-.567.686.588.588,0,0,1-.06,0" transform="translate(-472.319 -824.236)" fill="#3d2a32"/>
            <path id="Trazado_899006" data-name="Trazado 899006" d="M247.128,1362.919H247.1a.629.629,0,0,1-.6-.656l13.971-319.068a.629.629,0,1,1,1.258.055l-13.971,319.068a.629.629,0,0,1-.628.6" transform="translate(-192.814 -815.526)" fill="#3d2a32"/>
            <path id="Trazado_899007" data-name="Trazado 899007" d="M342.05,376.976c-29.544,52.446-70.891.47-70.891.47s16.1-3.269,23.527-16.03a32.471,32.471,0,0,0,30.12.694c2.411,5.629,7.424,11.3,17.245,14.866" transform="translate(-212.103 -282.703)" fill="#c06"/>
            <path id="Trazado_899008" data-name="Trazado 899008" d="M243.047,423.419c2.88-.232,25.58,51.453,58.676-.028-.73-1.038,14.909,4.349,14.909,4.349,1.1.137,62.139,66.761,58.6,82.3-.6,2.646-4.16,8.276-6.875,8.241-6.113-.079-13.385,6.472-29.365-15l-21.928-27.9s-2.29,60.553,7.622,76.909c0,0-32.318,30.293-93.841.4,5.189-16.08-4.8-123.873-4.8-123.873s9.329-4.779,17-5.4" transform="translate(-176.817 -331.076)" fill="#fff"/>
            <path id="Trazado_899009" data-name="Trazado 899009" d="M227.756,662.576s37.113,227.347,36.428,285.393c-158.877,6.938-152.27,0-152.27,0L140.03,667.431Z" transform="translate(-87.51 -518.273)" fill="#fff"/>
            <path id="Trazado_899010" data-name="Trazado 899010" d="M346.515,423.306l-29.721,21.635-28.538-21.792-4.946.742L301.325,452.5l32.3,6.772,18.462-34.623Z" transform="translate(-221.609 -330.991)" fill="#fff"/>
            <path id="Trazado_899011" data-name="Trazado 899011" d="M635.388,608.178a.629.629,0,0,1-.627-.579c-.112-1.4-.647-4.585-1.456-9.4-1.558-9.265-4.166-24.774-6.581-44.714a.629.629,0,0,1,1.25-.152c2.412,19.912,5.017,35.4,6.573,44.657.815,4.846,1.353,8.048,1.47,9.507a.63.63,0,0,1-.577.678l-.051,0" transform="translate(-490.226 -432.39)" fill="#3d2a32"/>
            <path id="Trazado_899012" data-name="Trazado 899012" d="M216.9,635.77a.608.608,0,0,1-.066,0,.629.629,0,0,1-.561-.691c.044-.421,4.394-42.6,4.8-81.672a.629.629,0,0,1,.629-.623h.007a.629.629,0,0,1,.623.636c-.411,39.129-4.767,81.367-4.811,81.789a.629.629,0,0,1-.625.564" transform="translate(-169.17 -432.39)" fill="#3d2a32"/>
            <path id="Trazado_899013" data-name="Trazado 899013" d="M444.165,841.738a.63.63,0,0,1-.629-.611l-9.375-317.782a.63.63,0,0,1,.611-.648h.019a.629.629,0,0,1,.629.611l9.375,317.782a.629.629,0,0,1-.611.648h-.019" transform="translate(-339.605 -408.858)" fill="#3d2a32"/>
            <path id="Trazado_899014" data-name="Trazado 899014" d="M437.052,445.5l29.721-21.635s8.23,9.489-4.173,13.978c-8.827,14.382-25.548,7.657-25.548,7.657" transform="translate(-341.867 -331.553)" fill="#fff"/>
            <path id="Trazado_899015" data-name="Trazado 899015" d="M299.346,423.149l28.538,21.792s-16.608,8.856-23.153-8.266c-12.1-7.967-5.385-13.526-5.385-13.526" transform="translate(-232.698 -330.991)" fill="#fff"/>
            <path id="Trazado_899016" data-name="Trazado 899016" d="M449.243,505.462a27.994,27.994,0,0,1-7.623-1.1.629.629,0,0,1,.349-1.209c4.092,1.183,14.369,3.039,21.4-5.234a.629.629,0,1,1,.959.815,19.077,19.077,0,0,1-15.084,6.732" transform="translate(-345.083 -389.3)" fill="#3d2a32"/>
            <path id="Trazado_899017" data-name="Trazado 899017" d="M548.243,440.508a.629.629,0,0,1-.513-.994c.28-.395.554-.811.816-1.237a.629.629,0,0,1,.322-.262c3.405-1.233,5.482-2.95,6.174-5.1.886-2.762-.667-5.624-1.671-7.084a.629.629,0,1,1,1.037-.713c1.135,1.651,2.883,4.909,1.832,8.182-.8,2.5-3.068,4.458-6.737,5.827-.241.385-.492.761-.747,1.121a.629.629,0,0,1-.514.265" transform="translate(-428.35 -332.314)" fill="#3d2a32"/>
            <path id="Trazado_899018" data-name="Trazado 899018" d="M308.262,446.746a.627.627,0,0,1-.367-.118,17.757,17.757,0,0,1-5.942-8.217c-4.238-2.823-6.671-5.694-7.233-8.534a6.177,6.177,0,0,1,.98-4.763.629.629,0,0,1,1.04.708,4.942,4.942,0,0,0-.785,3.81c.5,2.535,2.81,5.172,6.859,7.839a.629.629,0,0,1,.242.3,16.654,16.654,0,0,0,5.573,7.833.629.629,0,0,1-.367,1.141" transform="translate(-230.435 -332.313)" fill="#3d2a32"/>
            <path id="Trazado_899019" data-name="Trazado 899019" d="M368.624,526.223a14.483,14.483,0,0,1-6.741-1.57.629.629,0,1,1,.58-1.117c5.293,2.747,11.444.794,13.842-.173a.629.629,0,1,1,.471,1.167,22.379,22.379,0,0,1-8.152,1.694" transform="translate(-282.803 -409.342)" fill="#3d2a32"/>
            <path id="Trazado_899020" data-name="Trazado 899020" d="M254.478,1083.471c-.177,0-.354,0-.533-.007a10.652,10.652,0,0,1-8.381-4c-8.257-10.008-3.913-35.277-3.724-36.348a.626.626,0,0,1,.669-.518l30.807,2.425a.629.629,0,0,1,.579.586,78.59,78.59,0,0,1-.446,12.749c-1.1,9.344-3.714,16.215-7.765,20.422a14.991,14.991,0,0,1-11.206,4.694m-11.49-39.577c-.6,3.824-3.685,26,3.548,34.765a9.447,9.447,0,0,0,7.438,3.545,13.858,13.858,0,0,0,10.8-4.3c8.425-8.747,8.033-28.178,7.889-31.675Z" transform="translate(-188.145 -815.526)" fill="#3d2a32"/>
            <path id="Trazado_899021" data-name="Trazado 899021" d="M274.5,1082.309l-.052,0-31.71-2.6a.629.629,0,0,1,.1-1.255l31.709,2.6a.629.629,0,0,1-.051,1.257" transform="translate(-189.419 -843.577)" fill="#3d2a32"/>
            <path id="Trazado_899022" data-name="Trazado 899022" d="M537.925,1072.009a14.986,14.986,0,0,1-11.2-4.694c-4.052-4.207-6.664-11.078-7.765-20.423a78.648,78.648,0,0,1-.446-12.749.629.629,0,0,1,.579-.586l30.807-2.425a.627.627,0,0,1,.669.518c.189,1.071,4.533,26.341-3.724,36.348a10.655,10.655,0,0,1-8.389,4c-.178,0-.355.007-.531.007m-18.181-37.241c-.144,3.5-.536,22.928,7.889,31.675a13.846,13.846,0,0,0,10.795,4.3,9.451,9.451,0,0,0,7.446-3.546c7.232-8.765,4.145-30.941,3.547-34.766Z" transform="translate(-405.521 -806.56)" fill="#3d2a32"/>
            <path id="Trazado_899023" data-name="Trazado 899023" d="M519.635,1070.845a.629.629,0,0,1-.051-1.257l31.71-2.6a.629.629,0,0,1,.1,1.254l-31.71,2.6-.052,0" transform="translate(-405.972 -834.61)" fill="#3d2a32"/>
            <path id="Trazado_899024" data-name="Trazado 899024" d="M461.593,581.084a3.064,3.064,0,1,1,3.064-3.064,3.068,3.068,0,0,1-3.064,3.064m0-4.87a1.806,1.806,0,1,0,1.806,1.806,1.808,1.808,0,0,0-1.806-1.806" transform="translate(-358.666 -449.735)" fill="#3d2a32"/>
            <path id="Trazado_899025" data-name="Trazado 899025" d="M461.593,785.13a3.064,3.064,0,1,1,3.064-3.064,3.068,3.068,0,0,1-3.064,3.064m0-4.87a1.806,1.806,0,1,0,1.806,1.806,1.808,1.808,0,0,0-1.806-1.806" transform="translate(-358.666 -609.342)" fill="#3d2a32"/>
            <path id="Trazado_899026" data-name="Trazado 899026" d="M461.593,989.177a3.064,3.064,0,1,1,3.064-3.064,3.068,3.068,0,0,1-3.064,3.064m0-4.87a1.806,1.806,0,1,0,1.806,1.806,1.808,1.808,0,0,0-1.806-1.806" transform="translate(-358.666 -768.95)" fill="#3d2a32"/>
            <path id="Trazado_899027" data-name="Trazado 899027" d="M465.786,1193.224a3.064,3.064,0,1,1,3.064-3.064,3.067,3.067,0,0,1-3.064,3.064m0-4.87a1.806,1.806,0,1,0,1.806,1.806,1.808,1.808,0,0,0-1.806-1.806" transform="translate(-361.946 -928.557)" fill="#3d2a32"/>
            <path id="Trazado_899028" data-name="Trazado 899028" d="M474.172,1397.271a3.064,3.064,0,1,1,3.064-3.064,3.068,3.068,0,0,1-3.064,3.064m0-4.87a1.806,1.806,0,1,0,1.806,1.806,1.808,1.808,0,0,0-1.806-1.806" transform="translate(-368.506 -1088.165)" fill="#3d2a32"/>
            <path id="Trazado_899029" data-name="Trazado 899029" d="M482.557,1601.317a3.064,3.064,0,1,1,3.064-3.064,3.067,3.067,0,0,1-3.064,3.064m0-4.87a1.806,1.806,0,1,0,1.806,1.806,1.808,1.808,0,0,0-1.806-1.806" transform="translate(-375.065 -1247.772)" fill="#3d2a32"/>
            <path id="Trazado_899030" data-name="Trazado 899030" d="M490.942,1805.363a3.064,3.064,0,1,1,3.064-3.064,3.068,3.068,0,0,1-3.064,3.064m0-4.87a1.806,1.806,0,1,0,1.806,1.806,1.808,1.808,0,0,0-1.806-1.806" transform="translate(-381.623 -1407.379)" fill="#3d2a32"/>
            <path id="Trazado_899031" data-name="Trazado 899031" d="M566.231,791.5a10.47,10.47,0,0,1,.658-1.478c-.6-.317-1.237-.634-1.91-.951-2.585-1.4-18.117-8.937-20.93-10.3a.583.583,0,0,0-.777.251c-.638,1.263-.873,5.173,12.949,12.522a2.428,2.428,0,0,1,.558,1.214,14.032,14.032,0,0,1,9.118-.128,11.329,11.329,0,0,1,.333-1.128" transform="translate(-424.776 -609.112)" fill="#fab09d"/>
            <path id="Trazado_899032" data-name="Trazado 899032" d="M607.133,811.908l18.944,3.144.98,12.607s-7.521,2.784-10.1,2.375c-5.091-.808-9.826-18.126-9.826-18.126" transform="translate(-474.906 -635.082)" fill="#fab09d"/>
            <g id="Grupo_1108002" data-name="Grupo 1108002" transform="translate(83.941 146.634)" opacity="0.2">
              <g id="Grupo_1108001" data-name="Grupo 1108001">
                <g id="Grupo_1108000" data-name="Grupo 1108000" clip-path="url(#clip-path-4)">
                  <path id="Trazado_899033" data-name="Trazado 899033" d="M385.651,735.654l18.979-41.643v-20.73h16.119v20.73l15.6,41.844a2.181,2.181,0,0,1-2.043,2.942h-46.7a2.181,2.181,0,0,1-1.957-3.143" transform="translate(-385.424 -673.281)" fill="#8aacd4"/>
                </g>
              </g>
            </g>
            <path id="Trazado_899034" data-name="Trazado 899034" d="M396.185,853.535c1.144.656,2.288,1.315,3.492,1.862a30.381,30.381,0,0,0,6.938,2.357,28.615,28.615,0,0,0,7.238.482,44.145,44.145,0,0,0,7.64-1.236c1.62-.4,3.254-.755,4.905-1.007.7-.081,1.4-.139,2.11-.17l7.84,21.028a2.181,2.181,0,0,1-2.043,2.943h-46.7a2.181,2.181,0,0,1-1.957-3.143Z" transform="translate(-301.483 -667.643)" fill="#0ac675"/>
            <g id="Grupo_1108005" data-name="Grupo 1108005" transform="translate(101.117 145.678)" opacity="0.8">
              <g id="Grupo_1108004" data-name="Grupo 1108004">
                <g id="Grupo_1108003" data-name="Grupo 1108003" clip-path="url(#clip-path-5)">
                  <path id="Trazado_899035" data-name="Trazado 899035" d="M465.632,671.646h17.781a1.343,1.343,0,0,0,1.343-1.343v-.067a1.343,1.343,0,0,0-1.343-1.343H465.632a1.343,1.343,0,0,0-1.343,1.343v.067a1.343,1.343,0,0,0,1.343,1.343" transform="translate(-464.289 -668.892)" fill="#8aacd4"/>
                </g>
              </g>
            </g>
            <path id="Trazado_899036" data-name="Trazado 899036" d="M457.8,527.976c2.14-1.786,4.688-3.241,6.09-5.65a4.788,4.788,0,0,0,.343-4.681c-.818-1.421-3.05-1.976-4.153-.763a13.641,13.641,0,0,0-1.737-11.968,6.969,6.969,0,0,0-4.548-3.187,6.474,6.474,0,0,0-3.687.788,10.839,10.839,0,0,0-5.768,10.194c-2.135-1.037-4.933.392-5.747,2.621a6.216,6.216,0,0,0,1.852,6.456c2.315,2.143,5.724,2.693,8.2,4.643,2.933,2.307,3.563,5.768,4.976,8.948,1.33-2.785,1.549-5.207,4.177-7.4" transform="translate(-342.839 -392.426)" fill="#0ac675"/>
            <g id="Grupo_1108008" data-name="Grupo 1108008" transform="translate(95.456 191.997)" opacity="0.5">
              <g id="Grupo_1108007" data-name="Grupo 1108007">
                <g id="Grupo_1108006" data-name="Grupo 1108006" clip-path="url(#clip-path-6)">
                  <path id="Trazado_899037" data-name="Trazado 899037" d="M443.991,884.414a2.848,2.848,0,1,1-2.848-2.848,2.848,2.848,0,0,1,2.848,2.848" transform="translate(-438.294 -881.567)" fill="#fff"/>
                </g>
              </g>
            </g>
            <g id="Grupo_1108011" data-name="Grupo 1108011" transform="translate(101.2 198.224)" opacity="0.5">
              <g id="Grupo_1108010" data-name="Grupo 1108010">
                <g id="Grupo_1108009" data-name="Grupo 1108009" clip-path="url(#clip-path-7)">
                  <path id="Trazado_899038" data-name="Trazado 899038" d="M475,915.33a5.165,5.165,0,1,1-5.165-5.165A5.165,5.165,0,0,1,475,915.33" transform="translate(-464.668 -910.164)" fill="#fff"/>
                </g>
              </g>
            </g>
            <path id="Trazado_899039" data-name="Trazado 899039" d="M553.429,880.727a1.593,1.593,0,1,1-1.593-1.593,1.593,1.593,0,0,1,1.593,1.593" transform="translate(-430.406 -687.667)" fill="#b5d9b2"/>
            <path id="Trazado_899040" data-name="Trazado 899040" d="M482.893,829.827c-2.361-3.4,12.725-11.174,17.28-14.694l-.1-.126c-18.59,8.7-19.21,6.933-19.891,5.933-.864-1.7,5.091-5.045,10.067-7.483a35.005,35.005,0,0,1,12.6-3.413l3.207-.26a2.724,2.724,0,0,1,1.711.456c15.976,10.555,15.622,18.833,9.826,18.126-2.018-.246-1.892-1.538-8.154,2.049-14.253,7.965-13.79,6.745-14.419,5.791-1.336-2.744,10.277-9.849,10.678-10.68-21.563,12.557-20.42,6.11-18.924,4.346-2.883,1.526-3.7.124-3.879-.045" transform="translate(-375.539 -633.414)" fill="#fab09d"/>
            <path id="Trazado_899041" data-name="Trazado 899041" d="M508.48,869.694a.63.63,0,0,1-.315-1.175l14.843-8.555a.629.629,0,0,1,.629,1.091l-14.843,8.555a.627.627,0,0,1-.314.084" transform="translate(-397.245 -672.606)" fill="#3d2a32"/>
            <path id="Trazado_899042" data-name="Trazado 899042" d="M611.885,819.664,610.656,813s-10.832-3.311-12.216-3.2,3.857,9.4,3.857,9.4Z" transform="translate(-467.924 -633.433)" fill="#fab09d"/>
            <path id="Trazado_899043" data-name="Trazado 899043" d="M588.468,809.633a.631.631,0,0,1-.194-.031c-.05-.016-5.014-1.6-8.893-.926a.629.629,0,0,1-.216-1.24c4.192-.729,9.282.9,9.5.968a.63.63,0,0,1-.194,1.228" transform="translate(-452.621 -631.438)" fill="#3d2a32"/>
            <path id="Trazado_899044" data-name="Trazado 899044" d="M657.545,777.592l43.219-9.966c11.154-2.572,4.808-13.35-2.327-22.3-2.359-2.959-5.433-4.638-9.407-3.433-13.386,4.061-36.156,14.733-36.156,14.733Z" transform="translate(-510.685 -580.008)" fill="#fff"/>
            <path id="Trazado_899045" data-name="Trazado 899045" d="M723.248,757.957a.629.629,0,0,1-.319-1.172,53.669,53.669,0,0,1,13.5-5.394.629.629,0,0,1,.278,1.227,53.365,53.365,0,0,0-13.143,5.252.626.626,0,0,1-.318.087" transform="translate(-565.239 -587.733)" fill="#3d2a32"/>
          </g>
        </g>
      </g>
    </g>
  </g>
</svg>
