<svg xmlns="http://www.w3.org/2000/svg" width="85" height="85" viewBox="0 0 85 85">
  <g id="Grupo_1108108" data-name="Grupo 1108108" transform="translate(-180.051 -11420)">
    <circle id="Elipse_11621" data-name="Elipse 11621" cx="42.5" cy="42.5" r="42.5" transform="translate(180.051 11420)" fill="#0ac675"/>
    <g id="OUTLINE" transform="translate(178.051 11418)">
      <path id="Trazado_899144" data-name="Trazado 899144" d="M72.705,317.456H44.833v-5.767c0-4.311-6.333-7.689-14.417-7.689S16,307.377,16,311.689v7.689c0,4.311,6.333,7.689,14.417,7.689H72.705a.961.961,0,0,0,.961-.961v-7.689a.961.961,0,0,0-.961-.961Zm-51.373-9.664a20.817,20.817,0,0,1,9.085-1.869,20.817,20.817,0,0,1,9.085,1.869c2.167,1.083,3.41,2.5,3.41,3.9s-1.243,2.814-3.41,3.9a20.817,20.817,0,0,1-9.085,1.869,20.818,20.818,0,0,1-9.085-1.869c-2.167-1.083-3.41-2.5-3.41-3.9S19.165,308.875,21.332,307.791Zm21.579,7.789v1.875H40.047A11.361,11.361,0,0,0,42.911,315.58Zm28.833,9.564H30.417a20.817,20.817,0,0,1-9.085-1.869c-2.167-1.083-3.41-2.5-3.41-3.9v-3.8a12.281,12.281,0,0,0,3.844,2.3v3.42h1.922v-2.782a24.988,24.988,0,0,0,5.767.843v2.9h1.922v-2.883h5.767v2.883h1.922v-2.883h5.767v2.883h1.922v-2.883h5.767v2.883h1.922v-2.883h5.767v2.883h1.922v-2.883H67.9v2.883h1.922v-2.883h1.922Z" transform="translate(0 -253.4)" fill="#fff"/>
      <path id="Trazado_899145" data-name="Trazado 899145" d="M86.728,349.767c3.349,0,6.728-.892,6.728-2.883S90.076,344,86.728,344,80,344.892,80,346.883,83.379,349.767,86.728,349.767Zm0-3.844c2.656,0,4.267.606,4.718.961-.451.355-2.062.961-4.718.961s-4.267-.606-4.718-.961C82.461,346.528,84.071,345.922,86.728,345.922Z" transform="translate(-56.311 -288.595)" fill="#fff"/>
      <path id="Trazado_899146" data-name="Trazado 899146" d="M296.028,176H274.883A2.887,2.887,0,0,0,272,178.883v17.3a2.887,2.887,0,0,0,2.883,2.883h7.208l2.6,3.46a.961.961,0,0,0,1.538,0l2.6-3.46h7.208a2.887,2.887,0,0,0,2.883-2.883v-17.3A2.887,2.887,0,0,0,296.028,176Zm.961,20.183a.962.962,0,0,1-.961.961h-7.689a.961.961,0,0,0-.769.384l-2.114,2.819-2.114-2.819a.961.961,0,0,0-.769-.385h-7.689a.962.962,0,0,1-.961-.961v-17.3a.962.962,0,0,1,.961-.961h21.144a.962.962,0,0,1,.961.961Z" transform="translate(-225.245 -140.778)" fill="#fff"/>
      <path id="Trazado_899147" data-name="Trazado 899147" d="M334.417,209.922h-1.922V208h-1.922v1.922h-5.767V208h-1.922v1.922h-1.922a.961.961,0,0,0-.961.961v11.533a.961.961,0,0,0,.961.961h13.456a.961.961,0,0,0,.961-.961V210.883a.961.961,0,0,0-.961-.961Zm-.961,11.533H321.922v-5.767h11.533Zm0-7.689H321.922v-1.922h11.533Z" transform="translate(-267.478 -168.933)" fill="#fff"/>
      <path id="Trazado_899148" data-name="Trazado 899148" d="M25.922,26.572h5.767V37.465l-3.652,4.87,1.538,1.153,2.114-2.819v8.97h1.922V38.105l1.922-2.563V48.678h1.922V32.98l3.171-4.228,2.6,1.3V48.678h1.922V31.011l1.922.961V50.6h1.922V32.933l2.454,1.227a.961.961,0,0,0,1.045-.121l2.268-1.89V33.3h1.922V30.546l1.922-1.6V33.3h1.922V27.343l3.016-2.513,2.751,1.375V33.3h1.922V27.166l1.922.961V33.3h1.922V29.088l2.454,1.227.86-1.719-3.313-1.657V24.65h5.767V33.3h1.922V23.689a.961.961,0,0,0-.961-.961H71.094a.961.961,0,0,0-.961.961v2.289l-1.922-.961V16.961A.961.961,0,0,0,67.25,16H59.561a.961.961,0,0,0-.961.961v9.481l-1.922,1.6V23.689a.961.961,0,0,0-.961-.961H48.028a.961.961,0,0,0-.961.961v6.134l-1.922-.961v-11.9A.961.961,0,0,0,44.183,16H36.494a.961.961,0,0,0-.961.961V32.339L33.611,34.9V25.611a.961.961,0,0,0-.961-.961H24.961a.961.961,0,0,0-.961.961v25.95h1.922Zm34.6-8.65h5.767v6.134l-2.453-1.227a.961.961,0,0,0-1.045.121l-2.268,1.89ZM48.989,24.65h5.767v5L51.74,32.159l-2.751-1.375ZM37.456,17.922h5.767V27.9l-2.454-1.227a.961.961,0,0,0-1.2.283l-2.114,2.819Z" transform="translate(-7.039)" fill="#fff"/>
      <rect id="Rect치ngulo_405791" data-name="Rect치ngulo 405791" width="2" height="2" transform="translate(57 48.667)" fill="#fff"/>
      <rect id="Rect치ngulo_405792" data-name="Rect치ngulo 405792" width="2" height="2" transform="translate(61 48.667)" fill="#fff"/>
    </g>
  </g>
</svg>
