<svg xmlns="http://www.w3.org/2000/svg" xmlns:xlink="http://www.w3.org/1999/xlink" width="225.694" height="202.967" viewBox="0 0 225.694 202.967">
  <defs>
    <clipPath id="clip-path">
      <rect id="Rectángulo_405076" data-name="Rectángulo 405076" width="213.286" height="189.319" fill="none"/>
    </clipPath>
  </defs>
  <g id="Grupo_1107981" data-name="Grupo 1107981" transform="translate(-1101 -935)">
    <g id="Grupo_1106793" data-name="Grupo 1106793" transform="translate(1113.408 935)">
      <g id="Grupo_1106790" data-name="Grupo 1106790">
        <g id="Grupo_1106789" data-name="Grupo 1106789" clip-path="url(#clip-path)">
          <path id="Trazado_890605" data-name="Trazado 890605" d="M213.195,201c-3.067-7.361-17.993-34.759-25.149-49.481s-15.336-28.83-17.38-33.737-5.521-6.134-5.521-6.134l-39.871-4.5s-29.648-2.249-35.782-1.227c0,0-46.414,10.428-50.3,11.041s-7.77,3.885-8.179,7.77c-.188,1.782-1.107,7.651-2.047,13.482-.62,2.505-1.805,7.013-3.2,10.893-5.55,15.416-9.684,22.024-15.854,37.139-.663,1.624-6.757,17.574-6.723,19.328.181,9.149,31.42-8.1,36.555-3.782-.87,4.929-1.891,9.916-1.68,10.084,1.022.818-1.261,15.293-1.261,15.293H210.741s5.521-18.811,2.454-26.172" transform="translate(-1.161 -38.456)" fill="#fff"/>
          <path id="Trazado_890606" data-name="Trazado 890606" d="M210.8,227.31H36.25l.058-.368c1.081-6.854,1.887-14.341,1.364-15.005-.241-.192-.286-.228.814-6.179.233-1.265.487-2.636.73-4.008-2.329-1.6-9.733.735-16.9,3C14.235,207.295,6.6,209.7,3.79,207.684a2.71,2.71,0,0,1-1.1-2.281c-.037-1.886,6.336-18.45,6.746-19.454,2.57-6.3,4.77-11.08,6.9-15.708,2.939-6.391,5.715-12.43,8.952-21.418,1.407-3.908,2.6-8.483,3.192-10.862,1.194-7.416,1.882-11.947,2.039-13.439.45-4.275,4.647-7.451,8.445-8.051,3.83-.6,49.815-10.933,50.279-11.037,6.119-1.019,34.662,1.128,35.875,1.22l39.952,4.516c.148.052,3.633,1.331,5.709,6.311.964,2.313,3.3,6.695,6.269,12.243,3.269,6.117,7.337,13.731,11.1,21.478,3.228,6.638,8.006,15.8,12.627,24.658,5.576,10.69,10.843,20.788,12.531,24.839,3.075,7.381-2.215,25.611-2.442,26.384Zm-173.8-.636H210.32c.611-2.162,5.207-18.99,2.4-25.731-1.677-4.027-6.938-14.112-12.508-24.79-4.622-8.863-9.4-18.027-12.634-24.674-3.761-7.736-7.826-15.343-11.092-21.456-2.972-5.563-5.32-9.957-6.3-12.3-1.86-4.463-4.962-5.808-5.3-5.945l-39.831-4.494c-.285-.021-29.668-2.235-35.693-1.229-.447.1-46.451,10.434-50.3,11.042-3.484.55-7.5,3.569-7.912,7.489-.159,1.5-.848,6.046-2.049,13.5-.6,2.416-1.8,7.015-3.216,10.949-3.246,9.016-6.027,15.065-8.973,21.47-2.125,4.621-4.323,9.4-6.886,15.682-.872,2.139-6.731,17.59-6.7,19.2a2.079,2.079,0,0,0,.834,1.776c2.554,1.835,10.388-.637,17.964-3.028,7.828-2.469,15.223-4.8,17.643-2.767l.141.118-.032.181c-.253,1.437-.52,2.878-.765,4.2-.473,2.558-.961,5.2-.94,5.682.847,1.332-.484,10.676-1.177,15.119" transform="translate(-0.979 -38.274)" fill="#263238"/>
          <line id="Línea_569" data-name="Línea 569" x1="7.684" y2="72.014" transform="translate(158.459 115.966)" fill="#fff"/>
          <path id="Trazado_890607" data-name="Trazado 890607" d="M249.268,254.352l-.632-.067,7.684-72.014.632.067Z" transform="translate(-90.493 -66.339)" fill="#263238"/>
          <line id="Línea_570" data-name="Línea 570" x1="0.587" y2="5.5" transform="translate(166.657 105.647)" fill="#fff"/>
          <rect id="Rectángulo_405073" data-name="Rectángulo 405073" width="5.531" height="0.636" transform="matrix(0.105, -0.994, 0.994, 0.105, 166.343, 111.114)" fill="#263238"/>
          <path id="Trazado_890608" data-name="Trazado 890608" d="M274.614,184.418l-.549-.321a36.5,36.5,0,0,1,2.068-3.2l.513.377a36.05,36.05,0,0,0-2.032,3.14" transform="translate(-99.748 -65.84)" fill="#263238"/>
          <path id="Trazado_890609" data-name="Trazado 890609" d="M256.651,216.589l-.609-.186c.042-.137,4.265-13.886,9.3-24.1l.57.281c-5.015,10.172-9.223,23.871-9.264,24.009" transform="translate(-93.189 -69.989)" fill="#263238"/>
          <path id="Trazado_890610" data-name="Trazado 890610" d="M291.844,216.353l-.2-.6a14.186,14.186,0,0,1,6.722-.755l-.1.628a13.569,13.569,0,0,0-6.421.729" transform="translate(-106.145 -78.201)" fill="#263238"/>
          <path id="Trazado_890611" data-name="Trazado 890611" d="M254.38,237.8l-.505-.386c.094-.123,9.508-12.33,19.594-17.99l.312.554c-9.971,5.6-19.308,17.7-19.4,17.823" transform="translate(-92.4 -79.859)" fill="#263238"/>
          <path id="Trazado_890612" data-name="Trazado 890612" d="M317.842,245.572a30.858,30.858,0,0,0-7.713-6.96l.343-.536a30.925,30.925,0,0,1,7.921,7.18Z" transform="translate(-112.874 -86.65)" fill="#263238"/>
          <path id="Trazado_890613" data-name="Trazado 890613" d="M268.468,239.687l-.293-.564c.1-.053,10.362-5.348,17.9-5.756a12.142,12.142,0,0,1,4.694.766l-.212.6a11.5,11.5,0,0,0-4.447-.731c-7.4.4-17.543,5.632-17.644,5.685" transform="translate(-97.605 -84.931)" fill="#263238"/>
          <path id="Trazado_890614" data-name="Trazado 890614" d="M132.091,110.029a80.844,80.844,0,0,0-1.351,12.164c0,5.247.024,11.22,1.164,16.267,3.138-.338,6.35-.249,9.506-.326l-7.566,7.045a.992.992,0,0,0-.132,1.643c8.625,11.449,16.048,24.088,27.422,33.116-3.984-3.188,18.548-30.805,20.933-34,.241-.322-8.877-8.985-9.445-9.553q6.928-.343,13.857-.682s2.365-7.432-2.026-22.3-20.724-24.328-29.729-21.62-20.607,10.81-22.634,18.242" transform="translate(-47.584 -33.239)" fill="#fff"/>
          <path id="Trazado_890615" data-name="Trazado 890615" d="M160.754,180c-8.691-6.9-15.168-16.014-21.433-24.832-1.96-2.757-3.985-5.609-6.045-8.342a1.293,1.293,0,0,1,.169-2.067l6.957-6.477c-.615.01-1.232.016-1.85.022-2.241.021-4.559.043-6.8.284l-.282.031-.062-.277c-1.172-5.182-1.172-11.367-1.173-16.336a81.655,81.655,0,0,1,1.357-12.223l.006-.024c2.029-7.442,13.67-15.7,22.849-18.462,3.805-1.144,8.947-.2,14.106,2.588a33.321,33.321,0,0,1,16.019,19.247c4.37,14.788,2.123,22.176,2.025,22.482l-.067.211-.221.011q-6.563.321-13.126.646l.354.34c8.968,8.626,8.844,8.791,8.6,9.121-.286.381-.857,1.11-1.636,2.1-2.781,3.547-8.569,10.929-13.109,17.628-7.194,10.614-7,13.22-6.247,13.828h0Zm-18.7-42.392-8.18,7.617a.7.7,0,0,0-.095,1.219c2.065,2.74,4.094,5.6,6.056,8.356,6,8.445,12.2,17.167,20.331,23.908-.216-3.69,6.085-13.521,19.833-31.055.684-.873,1.208-1.54,1.516-1.946-.494-.695-3.323-3.527-8.418-8.429-.472-.453-.793-.762-.886-.855l-.508-.507.717-.036q6.814-.338,13.627-.671c.328-1.306,1.822-8.675-2.086-21.9a32.672,32.672,0,0,0-15.712-18.867c-5.011-2.71-9.977-3.635-13.621-2.539-9.013,2.71-20.431,10.771-22.415,18.009a80.84,80.84,0,0,0-1.343,12.092c0,4.85,0,10.864,1.1,15.921,2.179-.217,4.412-.239,6.575-.259.894-.009,1.786-.018,2.674-.039Z" transform="translate(-47.402 -33.057)" fill="#263238"/>
          <path id="Trazado_890616" data-name="Trazado 890616" d="M121.75,22.21s-12.063,14.926-13.9,26.172,1.227,21.469.614,30.874-1.84,14.518-3.272,23.1a40.482,40.482,0,0,0,1.023,16.562l13.7.2,2.249-11.859,1.431,12.268a33.59,33.59,0,0,0,4.7,0c1.636-.2,7.77-.613,7.77-.613s-1.432-4.7-2.863-10.837c-2.727-11.687-2.862-10.428-2.862-19.015s3.271-40.076,6.134-48.05S142.4,22.415,142.4,22.415s-11.654-7.77-20.651-.2" transform="translate(-38.121 -6.879)" fill="#263238"/>
          <path id="Trazado_890617" data-name="Trazado 890617" d="M126.159,119.777c-1.364,0-2.687-.087-2.769-.092l-.264-.018L121.9,109.2l-1.911,10.079-14.2-.212-.067-.221A41.174,41.174,0,0,1,104.7,102.14c.331-1.985.651-3.785.955-5.494a141.531,141.531,0,0,0,2.313-17.579,77.3,77.3,0,0,0-.534-12.2c-.567-5.96-1.154-12.122-.076-18.7,1.832-11.2,13.849-26.17,13.97-26.319l.042-.044c9.075-7.629,20.914.1,21.033.183l.194.129-.065.224c-.03.106-3.1,10.733-5.936,18.626-2.785,7.757-6.116,39.212-6.116,47.942,0,7.048.093,7.434,1.648,13.876.331,1.374.729,3.023,1.207,5.067,1.412,6.054,2.842,10.769,2.857,10.817l.116.384-.4.027c-.061,0-6.143.41-7.751.612a17.286,17.286,0,0,1-1.994.094m-2.463-.711a31.126,31.126,0,0,0,4.379-.013c1.4-.176,6-.494,7.39-.589-.368-1.245-1.568-5.391-2.753-10.474-.476-2.042-.874-3.69-1.206-5.063-1.571-6.511-1.665-6.9-1.665-14.025,0-9,3.285-40.166,6.153-48.157,2.6-7.229,5.392-16.764,5.857-18.357-1.552-.952-11.975-6.885-20.051-.122-.543.678-12.047,15.173-13.819,26-1.063,6.5-.481,12.618.082,18.538a77.687,77.687,0,0,1,.536,12.305,143.7,143.7,0,0,1-2.322,17.649c-.3,1.707-.623,3.5-.953,5.487a40.54,40.54,0,0,0,.949,16.2l13.2.2L122.055,105Z" transform="translate(-37.942 -6.71)" fill="#263238"/>
          <path id="Trazado_890618" data-name="Trazado 890618" d="M209.937,11.568S222,27.518,223.841,39.536s-1.227,22.943-.614,32.993,1.841,15.514,3.272,24.69a46.108,46.108,0,0,1-1.022,17.7l-13.7.218-2.249-12.672L208.1,115.573a31.449,31.449,0,0,1-4.7,0c-1.636-.218-7.77-.655-7.77-.655s1.432-5.025,2.863-11.58c2.727-12.489,2.862-11.143,2.862-20.321s-3.271-42.826-6.134-51.347-5.929-19.883-5.929-19.883,11.654-8.3,20.651-.219" transform="translate(-68.892 -2.923)" fill="#263238"/>
          <path id="Trazado_890619" data-name="Trazado 890619" d="M205.14,115.822a16.039,16.039,0,0,1-2-.1c-1.607-.214-7.688-.649-7.75-.654l-.391-.028.107-.377c.015-.05,1.445-5.092,2.857-11.561.478-2.189.876-3.952,1.208-5.422,1.554-6.884,1.647-7.3,1.647-14.831,0-9.331-3.332-42.954-6.117-51.246-2.833-8.433-5.9-19.788-5.935-19.9l-.058-.213.181-.128c.118-.085,11.966-8.357,21.047-.2l.041.045c.121.16,12.134,16.153,13.965,28.112,1.076,7.026.49,13.608-.077,19.974a88.223,88.223,0,0,0-.534,13.048,160.8,160.8,0,0,0,2.314,18.789c.3,1.827.623,3.751.955,5.873a46.853,46.853,0,0,1-1.031,17.835l-.066.226-14.205.227-1.908-10.753L208.176,115.7l-.265.019c-.083.006-1.406.1-2.771.1m-9.313-1.361c1.385.1,5.994.442,7.4.63a28.762,28.762,0,0,0,4.374.015l1.643-15.053,2.59,14.593,13.188-.211a46.236,46.236,0,0,0,.953-17.335c-.33-2.119-.65-4.041-.953-5.866A163.483,163.483,0,0,1,222.7,72.381a88.674,88.674,0,0,1,.536-13.143c.563-6.328,1.146-12.872.081-19.822-1.774-11.584-13.293-27.09-13.826-27.8-8.095-7.245-18.546-.848-20.049.139.441,1.623,3.255,11.879,5.864,19.646,2.867,8.536,6.151,41.833,6.151,51.449,0,7.606-.094,8.021-1.663,14.971-.331,1.468-.729,3.23-1.207,5.417-1.2,5.477-2.4,9.935-2.762,11.224" transform="translate(-68.683 -2.754)" fill="#263238"/>
          <path id="Trazado_890620" data-name="Trazado 890620" d="M125.6,52.593s-2.979-12.962-1.957-23.185,7.361-21.06,16.766-25.559,25.763-4.5,38.236,0,15.13,22.492,13.7,31.9-3.271,17.38-3.476,18.2-3.271,6.543-5.316,7.361-3.885-13.086-13.086-16.562S149,49.446,142.253,51.7a27.8,27.8,0,0,0-10.837,6.747s-5.083-1.066-5.813-5.849" transform="translate(-44.924 -0.173)" fill="#263238"/>
          <path id="Trazado_890621" data-name="Trazado 890621" d="M183.183,61.49c-.861,0-1.532-1.52-2.572-3.877-1.857-4.207-4.662-10.565-10.435-12.746-6.784-2.562-15.241,1.315-22.037,4.433-2.2,1.007-4.27,1.958-5.966,2.524a27.718,27.718,0,0,0-10.7,6.66l-.122.134-.179-.038c-.053-.011-5.3-1.167-6.06-6.1-.1-.462-2.963-13.253-1.961-23.276,1.112-11.124,7.922-21.5,16.945-25.814,9.439-4.515,25.983-4.52,38.48-.012,12.166,4.387,15.49,21.835,13.906,32.243C191.1,44.7,189.3,52.657,189,53.848c-.224.9-3.308,6.7-5.507,7.579a.829.829,0,0,1-.31.063M165.311,43.4a14.289,14.289,0,0,1,5.09.876c6.023,2.275,8.892,8.78,10.792,13.083.756,1.716,1.624,3.646,2.063,3.481,1.884-.754,4.931-6.364,5.125-7.143.3-1.186,2.093-9.116,3.471-18.168,1.553-10.2-1.662-27.283-13.493-31.55C166-.48,149.672-.486,140.37,3.963c-8.692,4.157-15.513,14.562-16.587,25.3-1,10.052,1.921,22.952,1.951,23.081l0,.024c.614,4.023,4.532,5.308,5.4,5.544a28.65,28.65,0,0,1,10.839-6.7c1.663-.554,3.722-1.5,5.9-2.5,5.306-2.433,11.61-5.326,17.437-5.326" transform="translate(-44.744 0)" fill="#263238"/>
          <path id="Trazado_890622" data-name="Trazado 890622" d="M157.2,145.3s1.431,12.677,4.7,16.971a90.3,90.3,0,0,1,5.929,9s2.249-3.885,5.112-9,4.7-15.131,4.7-15.131-15.744.409-20.447-1.84" transform="translate(-57.215 -52.882)" fill="#d9d9d9"/>
          <path id="Trazado_890623" data-name="Trazado 890623" d="M167.613,171.6l-.273-.484a90.7,90.7,0,0,0-5.905-8.96c-3.287-4.314-4.707-16.607-4.766-17.128l-.064-.57.517.247c4.579,2.191,20.143,1.814,20.3,1.809l.392-.01-.071.385c-.076.412-1.883,10.129-4.738,15.229-2.83,5.055-5.092,8.962-5.114,9Zm-10.245-26.1c.319,2.465,1.773,12.595,4.572,16.269a90.944,90.944,0,0,1,5.677,8.553c.686-1.191,2.579-4.489,4.835-8.516,2.489-4.445,4.223-12.767,4.593-14.649-2.432.046-14.868.193-19.677-1.657" transform="translate(-56.997 -52.576)" fill="#263238"/>
          <path id="Trazado_890624" data-name="Trazado 890624" d="M216.8,85.519s2.423-5.558,4.988-4.133-.285,10.546-2.28,13.967a8.323,8.323,0,0,1-5.273,3.99Z" transform="translate(-77.971 -29.536)" fill="#d9d9d9"/>
          <path id="Trazado_890625" data-name="Trazado 890625" d="M213.607,99.552l2.671-14.343c.066-.152,1.65-3.739,3.711-4.436a2.052,2.052,0,0,1,1.723.153,2.21,2.21,0,0,1,1,1.432c.875,3.188-1.548,10.211-3.159,12.972a8.569,8.569,0,0,1-5.493,4.143Zm3.267-14.12-2.467,13.295A8.228,8.228,0,0,0,219,95.01c1.744-2.991,3.858-9.7,3.094-12.484a1.606,1.606,0,0,0-.694-1.044,1.428,1.428,0,0,0-1.209-.108c-1.7.576-3.16,3.706-3.319,4.057" transform="translate(-77.744 -29.354)" fill="#263238"/>
          <path id="Trazado_890626" data-name="Trazado 890626" d="M132.05,82.289s-4.136-5.944-5.415-1c-2.138,8.265,5.7,16.1,5.7,16.1Z" transform="translate(-45.955 -28.871)" fill="#d9d9d9"/>
          <path id="Trazado_890627" data-name="Trazado 890627" d="M132.488,98l-.558-.558c-.08-.08-7.942-8.063-5.783-16.409.337-1.3.913-2.036,1.711-2.18,1.85-.33,4.031,2.725,4.274,3.076l.055.079ZM128.15,79.46a1.04,1.04,0,0,0-.179.015c-.532.1-.938.672-1.207,1.713-1.733,6.7,3.326,13.209,5.058,15.19l-.267-14.168c-.616-.859-2.226-2.75-3.405-2.75" transform="translate(-45.776 -28.689)" fill="#263238"/>
          <path id="Trazado_890628" data-name="Trazado 890628" d="M134.388,60.625s16.378.682,25.477-4.322A32.474,32.474,0,0,0,172.83,42.655s6.6,13.876,9.326,16.605l6.6,6.6s-2.853,16.386-4.445,23.892-9.2,18.19-13.525,21.146-9.1,5.915-12.511,5.232-10.289-5.1-15.294-11.7-6.558-8.779-7.7-20.379a227.571,227.571,0,0,1-.9-23.424" transform="translate(-48.904 -15.525)" fill="#d9d9d9"/>
          <path id="Trazado_890629" data-name="Trazado 890629" d="M159.146,116.112a5.636,5.636,0,0,1-1.116-.106c-3.7-.739-10.667-5.468-15.485-11.819-4.935-6.505-6.6-8.7-7.759-20.541a229.718,229.718,0,0,1-.9-23.46l.007-.325.324.013c.164.008,16.4.621,25.31-4.282a32.429,32.429,0,0,0,12.83-13.5l.282-.628.3.621c.066.139,6.6,13.857,9.265,16.517l6.713,6.714-.029.163c-.029.164-2.872,16.477-4.447,23.9-1.644,7.748-9.439,18.457-13.656,21.344-3.856,2.638-8.188,5.387-11.636,5.387M134.52,60.519a228.762,228.762,0,0,0,.9,23.065c1.144,11.664,2.779,13.82,7.633,20.219,4.728,6.232,11.52,10.862,15.1,11.579,3.2.636,7.785-2.113,12.269-5.183,4.134-2.828,11.779-13.339,13.394-20.949,1.488-7.016,4.113-21.99,4.414-23.719l-6.479-6.481c-2.446-2.445-7.8-13.4-9.107-16.1a33.258,33.258,0,0,1-12.807,13.2c-8.361,4.6-22.955,4.433-25.317,4.372" transform="translate(-48.723 -15.091)" fill="#263238"/>
          <path id="Trazado_890630" data-name="Trazado 890630" d="M169.833,125a8.28,8.28,0,0,1-5.952-2.611l.488-.408c.168.2,4.188,4.855,10.7.649l.345.534a10.231,10.231,0,0,1-5.58,1.836" transform="translate(-59.646 -44.395)" fill="#263238"/>
          <path id="Trazado_890631" data-name="Trazado 890631" d="M167.9,133.962a12.441,12.441,0,0,1-8.7-3.237l.46-.44a12.146,12.146,0,0,0,8.6,3.036,14.029,14.029,0,0,0,9.043-3.75l.459.441a14.445,14.445,0,0,1-9.485,3.945c-.126,0-.252,0-.375,0" transform="translate(-57.941 -47.158)" fill="#263238"/>
          <path id="Trazado_890632" data-name="Trazado 890632" d="M142.987,80.581c5.747-2.693,12.678.995,12.678.995s1.556,1.7,1.233-.63-3.4-3.147-8.326-3.023-5.584,2.658-5.584,2.658" transform="translate(-52.041 -28.356)" fill="#263238"/>
          <path id="Trazado_890633" data-name="Trazado 890633" d="M156.322,82.309a1.9,1.9,0,0,1-1.125-.656c-.6-.306-7.052-3.447-12.348-.964l-.613.287.169-.655c.03-.113.777-2.767,5.884-2.9,5.483-.133,8.322.94,8.65,3.3.076.549.121,1.3-.363,1.532a.589.589,0,0,1-.254.055m-8.872-3.22a19.112,19.112,0,0,1,8.091,2.025l.085.066a1.67,1.67,0,0,0,.686.494h0a2.057,2.057,0,0,0-.006-.865c-.275-1.977-2.883-2.879-8-2.748-2.933.074-4.265,1-4.851,1.691a11.765,11.765,0,0,1,3.995-.661" transform="translate(-51.768 -28.175)" fill="#263238"/>
          <path id="Trazado_890634" data-name="Trazado 890634" d="M199.056,85.052c-5.661-2.87-12.7.6-12.7.6s-1.607,1.647-1.213-.668,3.5-3.04,8.417-2.763,5.5,2.83,5.5,2.83" transform="translate(-67.361 -29.905)" fill="#263238"/>
          <path id="Trazado_890635" data-name="Trazado 890635" d="M185.234,86.357a.591.591,0,0,1-.273-.064c-.477-.243-.409-1-.316-1.542.4-2.346,3.264-3.335,8.748-3.027,5.1.287,5.766,2.964,5.791,3.078l.149.66-.6-.306c-5.215-2.646-11.759.293-12.372.579a1.938,1.938,0,0,1-1.124.622M191.5,82.3c-3.889,0-5.93.841-6.222,2.555-.125.728-.01.878-.009.879a2.026,2.026,0,0,0,.68-.487l.087-.063c.279-.137,6.575-3.18,12.123-.988-.565-.7-1.867-1.675-4.8-1.84q-.993-.056-1.862-.056" transform="translate(-67.179 -29.724)" fill="#263238"/>
          <path id="Trazado_890636" data-name="Trazado 890636" d="M155.119,97.954c0,1.547-.822,2.8-1.835,2.8s-1.836-1.254-1.836-2.8.822-2.8,1.836-2.8,1.835,1.254,1.835,2.8" transform="translate(-55.121 -34.632)" fill="#263238"/>
          <path id="Trazado_890637" data-name="Trazado 890637" d="M155.508,96.8c-1.8-1.8-7.029-1.266-7.082-1.261l-.067-.633c.226-.024,5.583-.573,7.6,1.444Z" transform="translate(-53.996 -34.512)" fill="#263238"/>
          <path id="Trazado_890638" data-name="Trazado 890638" d="M194.2,101.6c0,1.547-.822,2.8-1.835,2.8s-1.836-1.254-1.836-2.8.822-2.8,1.836-2.8,1.835,1.254,1.835,2.8" transform="translate(-69.344 -35.959)" fill="#263238"/>
          <path id="Trazado_890639" data-name="Trazado 890639" d="M194.588,100.451c-1.8-1.8-7.029-1.266-7.082-1.261l-.067-.633c.226-.024,5.583-.573,7.6,1.444Z" transform="translate(-68.22 -35.84)" fill="#263238"/>
          <path id="Trazado_890640" data-name="Trazado 890640" d="M170.583,104.353c-2.341,0-4.616-.4-5.958-1.658a24.347,24.347,0,0,1-3.339-5.294c-1.352-2.522-3.047-5.68-3.975-5.595-.947.067-2.556,2.567-3.975,4.772-1.263,1.964-2.569,3.994-3.694,4.854-2.635,2.016-10.792-.366-15.031-2.828-3.311-1.923-4.585-11.367-4.369-16.115.118-2.573.619-2.806.808-2.893a.579.579,0,0,1,.595.066,109.129,109.129,0,0,0,25.386,5.809c11.063.965,24.65-1.884,29.114-2.82.87-.182,1.4-.292,1.606-.315a.583.583,0,0,1,.521.2c.712.828-.251,4.688-1.8,10.481l-.372,1.4c-1.345,5.081-2.566,7.617-7.928,8.921a34.588,34.588,0,0,1-7.589,1.011M157.34,91.169c1.238,0,2.537,2.254,4.507,5.931a24.785,24.785,0,0,0,3.213,5.131c2.277,2.134,8.187,1.653,12.961.493,5.054-1.23,6.155-3.524,7.464-8.466l.373-1.4c.872-3.258,2.493-9.322,1.932-9.9-.147.036-.72.155-1.512.322-4.487.939-18.144,3.8-29.3,2.83a109.82,109.82,0,0,1-25.6-5.862L131.3,80.2a.119.119,0,0,0-.032-.02c-.092.09-.491,1.082-.4,4.256.16,5.553,1.638,12.213,4.062,13.62,4.627,2.687,12.145,4.54,14.326,2.873a21.91,21.91,0,0,0,3.545-4.693c1.716-2.668,3.2-4.973,4.464-5.063l.073,0" transform="translate(-47.395 -28.95)" fill="#fff"/>
          <path id="Trazado_890641" data-name="Trazado 890641" d="M131.677,82.329a108.639,108.639,0,0,0,25.51,5.843c13.111,1.14,29.5-2.993,30.783-3.136a.273.273,0,0,1,.273.135c.227-1.45.2-2.39-.273-2.337-1.283.142-17.672,4.275-30.783,3.136a108.639,108.639,0,0,1-25.51-5.843c-.714-.549-1.045,1.679-.932,4.766.085-1.857.4-2.971.932-2.565" transform="translate(-47.578 -29.133)" fill="#0ac675"/>
          <path id="Trazado_890642" data-name="Trazado 890642" d="M161.839,88.505c-1.649,0-3.279-.06-4.861-.2a109.914,109.914,0,0,1-25.6-5.862L131.3,82.4a.118.118,0,0,0-.025-.018,5.315,5.315,0,0,0-.394,2.344l-.635,0c-.063-1.727-.045-4.688.786-5.116a.59.59,0,0,1,.614.055,109.136,109.136,0,0,0,25.387,5.81c11.063.964,24.65-1.884,29.115-2.82.87-.182,1.395-.292,1.605-.315a.589.589,0,0,1,.5.177c.221.232.41.714.126,2.524l-.127.813-.453-.688c-.153.025-.726.146-1.518.312-3.851.806-14.457,3.028-24.439,3.028m-30.192-6.64a109.2,109.2,0,0,0,25.386,5.809c11.065.962,24.65-1.885,29.115-2.82.87-.182,1.395-.292,1.605-.315l.053,0c.174-1.336.006-1.558-.016-1.58-.148.035-.72.155-1.512.321-4.487.939-18.144,3.8-29.3,2.83a109.877,109.877,0,0,1-25.6-5.862L131.3,80.2c-.1.063-.282.569-.378,1.675a.62.62,0,0,1,.13-.076.58.58,0,0,1,.593.067" transform="translate(-47.396 -28.951)" fill="#263238"/>
          <path id="Trazado_890643" data-name="Trazado 890643" d="M28.915,201.7s-9.391,10.306-16.491,17.407S-1.318,244.075.973,249.571s7.787,9.849,15.575,11.681,13.055-1.6,18.552-6.642,16.261-41.685,16.261-41.685Z" transform="translate(-0.187 -73.412)" fill="#d9d9d9"/>
          <path id="Trazado_890644" data-name="Trazado 890644" d="M20.505,261.854a18.324,18.324,0,0,1-4.218-.517c-7.645-1.8-13.4-6.124-15.8-11.867-2.386-5.726,4.289-23.578,11.521-30.81,7.014-7.014,16.386-17.293,16.481-17.4l.162-.177,22.9,11.449-.075.254c-.44,1.5-10.853,36.789-16.352,41.83-4.808,4.408-9.139,7.234-14.622,7.234m8.3-59.984c-1.279,1.4-9.823,10.724-16.338,17.239C5.516,226.057-1.186,243.788,1.08,249.225c2.313,5.553,7.91,9.743,15.353,11.493,7.355,1.727,12.442-1.229,18.265-6.567,5.131-4.7,15.126-38.019,16.1-41.285Z" transform="translate(0 -73.187)" fill="#263238"/>
          <path id="Trazado_890645" data-name="Trazado 890645" d="M.973,259.532c2.29,5.5,7.787,9.848,15.575,11.681s13.055-1.6,18.551-6.642c1.787-1.638,4.13-6.617,6.48-12.59-3.278,1.051-12.184,3.186-20.222-1.382-10.078-5.726-8.933-21.529-8.933-21.529-7.1,7.1-13.742,24.965-11.452,30.462" transform="translate(-0.187 -83.372)" fill="#fff"/>
          <path id="Trazado_890646" data-name="Trazado 890646" d="M20.505,271.565a18.291,18.291,0,0,1-4.218-.517c-7.645-1.8-13.4-6.124-15.8-11.867-2.386-5.726,4.289-23.578,11.521-30.81l.6-.6-.061.852c-.011.156-1.013,15.671,8.772,21.23,7.878,4.476,16.588,2.439,19.967,1.355l.639-.2-.246.623c-2.732,6.946-4.939,11.222-6.561,12.708-4.808,4.408-9.139,7.234-14.622,7.234m-8.615-42.147C5.154,236.733-1.124,253.648,1.08,258.936c2.313,5.553,7.909,9.743,15.353,11.493,7.355,1.727,12.442-1.229,18.264-6.566,1.5-1.378,3.573-5.365,6.156-11.856-3.825,1.128-12.2,2.738-19.839-1.6-8.782-4.99-9.181-17.6-9.123-20.984" transform="translate(0 -82.898)" fill="#263238"/>
          <path id="Trazado_890647" data-name="Trazado 890647" d="M47.723,140.1s2.454,14.517,2.454,15.54-10.633,17.788-10.633,17.788,1.023,1.022,7.157,7.361,12.677,7.974,15.539,7.974h3.885s2.045-14.313,4.5-19.833,3.067-7.361,4.09-8.792,2.862-2.863,4.293-6.952,2.659-16.562,4.09-19.629,6.747-7.974,6.952-10.837.409-4.294-4.09-3.067-7.974,5.725-9,7.975,0,2.658-1.84.613-4.294-5.521-4.294-5.521L48.95,134.37s-2.249,3.271-1.227,5.725" transform="translate(-14.392 -43.387)" fill="#a8a8a8"/>
          <path id="Trazado_890648" data-name="Trazado 890648" d="M66.169,188.9h-4.16c-2.956,0-9.6-1.7-15.768-8.071-6.057-6.259-7.143-7.347-7.153-7.357l-.18-.18.136-.215c4.024-6.346,10.456-16.744,10.584-17.633,0-.8-1.759-11.38-2.444-15.437-1.042-2.579,1.177-5.855,1.272-5.993l.045-.064.068-.036,22.125-11.786.162.23c.025.034,2.464,3.484,4.271,5.49.36.4.612.709.791.927l.021.026a7.385,7.385,0,0,1,.5-1.485c.955-2.1,4.461-6.857,9.2-8.15,2.13-.579,3.316-.6,3.966-.064.731.6.649,1.721.537,3.271l-.013.19c-.128,1.785-2.056,4.221-3.919,6.577a26.52,26.52,0,0,0-3.062,4.371c-.733,1.571-1.438,5.834-2.119,9.957a75.025,75.025,0,0,1-1.958,9.642,17.159,17.159,0,0,1-3.512,6.01c-.317.373-.59.7-.823,1.022a25.48,25.48,0,0,0-2.262,4.62c-.47,1.091-1.048,2.433-1.795,4.116-2.408,5.417-4.454,19.607-4.475,19.749ZM39.717,173.2c.493.5,2.171,2.213,6.981,7.183,6.018,6.218,12.456,7.877,15.311,7.877h3.61c.3-2.063,2.2-14.5,4.483-19.645.746-1.68,1.323-3.019,1.792-4.109a26.284,26.284,0,0,1,2.329-4.739c.248-.347.543-.695.856-1.063a16.4,16.4,0,0,0,3.4-5.808,75.136,75.136,0,0,0,1.93-9.536c.721-4.357,1.4-8.471,2.171-10.122a26.845,26.845,0,0,1,3.139-4.5c1.8-2.28,3.67-4.637,3.784-6.227l.013-.19c.1-1.36.17-2.342-.307-2.734-.46-.379-1.54-.321-3.395.186-4.525,1.233-7.877,5.787-8.791,7.8a6.988,6.988,0,0,0-.5,1.532c-.062.293-.113.523-.361.584-.267.064-.4-.107-.735-.517-.176-.214-.422-.513-.773-.9-1.559-1.732-3.573-4.511-4.155-5.322L48.94,134.433c-.294.454-2.024,3.274-1.154,5.36l.02.069c.1.594,2.458,14.555,2.458,15.593,0,1.016-7.895,13.561-10.546,17.745" transform="translate(-14.161 -43.206)" fill="#263238"/>
          <path id="Trazado_890649" data-name="Trazado 890649" d="M83.142,170.653l-.628-.1a11.036,11.036,0,0,0-1.57-8.137l.5-.4c.1.13,2.531,3.238,1.7,8.63" transform="translate(-29.46 -58.97)" fill="#263238"/>
          <path id="Trazado_890650" data-name="Trazado 890650" d="M114.039,157.424h0a.488.488,0,0,1-.646-.235L86.7,100.494l1.757-.811,25.821,57.1a.487.487,0,0,1-.24.644" transform="translate(-31.556 -36.28)" fill="#263238"/>
          <path id="Trazado_890651" data-name="Trazado 890651" d="M113.594,157.545a.808.808,0,0,1-.731-.463L86.034,100.1l2.339-1.08.132.292,25.821,57.1a.808.808,0,0,1-.4,1.063.794.794,0,0,1-.335.074M86.882,100.407l26.557,56.4a.171.171,0,0,0,.224.081h0a.17.17,0,0,0,.083-.225l-25.688-56.8Z" transform="translate(-31.313 -36.038)" fill="#263238"/>
          <path id="Trazado_890652" data-name="Trazado 890652" d="M108.612,141.994l-2.97,1.371L78.568,84.7a1.636,1.636,0,1,1,2.97-1.371Z" transform="translate(-28.54 -29.982)" fill="#fff"/>
          <path id="Trazado_890653" data-name="Trazado 890653" d="M105.3,143.606l-.134-.288L78.1,84.652a1.954,1.954,0,1,1,3.548-1.637l27.206,58.954ZM79.868,82.515a1.316,1.316,0,0,0-1.194,1.869l26.94,58.378,2.393-1.1L81.067,83.281a1.32,1.32,0,0,0-1.2-.766" transform="translate(-28.358 -29.801)" fill="#263238"/>
          <rect id="Rectángulo_405074" data-name="Rectángulo 405074" width="0.636" height="21.531" transform="translate(68.669 92.432) rotate(-25.47)" fill="#0ac675"/>
          <path id="Trazado_890654" data-name="Trazado 890654" d="M83.437,119.395s5.521,6.952,7.973,9,5.521,3.067,5.93-.409-4.09-9.406-6.544-13.086-4.294-5.521-7.157-3.272-5.52,9.61-5.52,9.61Z" transform="translate(-28.432 -40.27)" fill="#a8a8a8"/>
          <path id="Trazado_890655" data-name="Trazado 890655" d="M95.036,130.395a7.1,7.1,0,0,1-4.13-1.942c-2.261-1.884-6.984-7.747-7.879-8.866l-5.733,1.984.226-.626c.11-.3,2.723-7.473,5.624-9.752a3.829,3.829,0,0,1,2.986-1.013c1.609.257,2.965,1.859,4.632,4.358.331.5.7,1.033,1.086,1.6,2.618,3.82,5.876,8.574,5.507,11.7a2.654,2.654,0,0,1-1.469,2.407,2.282,2.282,0,0,1-.849.151M83.244,118.839l.141.176c.055.069,5.528,6.949,7.929,8.95,1.71,1.425,3.372,2.07,4.336,1.687.593-.236.954-.872,1.074-1.89.34-2.888-2.977-7.73-5.4-11.266-.389-.568-.758-1.107-1.091-1.605-1.528-2.292-2.828-3.863-4.2-4.083a3.233,3.233,0,0,0-2.493.886c-2.274,1.787-4.465,7.017-5.177,8.836Z" transform="translate(-28.132 -40.088)" fill="#263238"/>
          <path id="Trazado_890656" data-name="Trazado 890656" d="M58.163,144.089s1.635,5.725,4.088,5.93,2.454-.818,5.521-2.25,5.317-2.249,7.565-3.271,4.5-3.885,4.5-6.543-6.748-14.108-6.748-14.108-.614-1.431-3.272-.818-17.175,7.361-18.811,9.61-1.636,3.885-.613,7.361,3.067,10.019,3.067,10.019" transform="translate(-18.085 -44.722)" fill="#a8a8a8"/>
          <path id="Trazado_890657" data-name="Trazado 890657" d="M62.652,150.18c-.188,0-.39-.009-.611-.027-2.641-.22-4.3-5.916-4.368-6.159l.611-.175c.439,1.534,1.978,5.548,3.81,5.7a3.756,3.756,0,0,0,2.938-.847,17.652,17.652,0,0,1,2.422-1.373c1.76-.821,3.282-1.454,4.625-2.012,1.021-.424,1.985-.825,2.943-1.261,2.083-.946,4.312-3.685,4.312-6.254,0-2.033-4.385-10.012-6.7-13.946-.039-.081-.592-1.207-2.926-.669-2.64.609-17.067,7.345-18.625,9.487-1.6,2.2-1.54,3.77-.565,7.084,1.01,3.433,3.045,9.948,3.065,10.014l-.607.19c-.02-.066-2.056-6.585-3.068-10.024-.993-3.378-1.122-5.186.661-7.637,1.728-2.376,16.5-9.156,19-9.733,2.882-.665,3.606.934,3.636,1,.259.435,6.773,11.521,6.773,14.233,0,2.905-2.432,5.808-4.685,6.832-.967.44-1.937.843-2.962,1.269-1.4.583-2.852,1.186-4.6,2a17.239,17.239,0,0,0-2.342,1.329,4.306,4.306,0,0,1-2.729.976" transform="translate(-17.901 -44.539)" fill="#263238"/>
          <path id="Trazado_890658" data-name="Trazado 890658" d="M81.726,147.456l-.45-.45c1.056-1.056.964-4.246.525-6.879-.393-2.358-7.243-12.654-7.312-12.758l.529-.353c.286.428,7,10.514,7.41,13.006.289,1.735.8,5.932-.7,7.433" transform="translate(-27.111 -46.229)" fill="#263238"/>
          <path id="Trazado_890659" data-name="Trazado 890659" d="M71.6,159.737l-.536-.343c3.138-4.9,1.822-8.679,1.809-8.716l-.075-.207.167-.144c1.259-1.079.887-4-.883-6.956C70.258,140.341,64.57,131,64.513,130.9l.543-.33c.058.093,5.747,9.441,7.566,12.474,1.923,3.205,2.273,6.222.909,7.619.254.887,1,4.489-1.935,9.073" transform="translate(-23.48 -47.522)" fill="#263238"/>
          <rect id="Rectángulo_405075" data-name="Rectángulo 405075" width="0.637" height="6.228" transform="translate(37.499 98.638) rotate(-66.805)" fill="#263238"/>
          <path id="Trazado_890660" data-name="Trazado 890660" d="M257.536,278.785s3.473-9.6-3.882-20.225-28.806-11.441-35.344-10.42-17.978,5.516-24.312,8.377-19.2,2.451-20.43,2.247-20.021-2.452-24.516-1.635-4.494,4.7-4.9,5.925-4.494,8.989-4.9,11.645a3.173,3.173,0,0,0,2.452,3.882,13.469,13.469,0,0,1,2.043.613Z" transform="translate(-50.659 -90.193)" fill="#d9d9d9"/>
          <path id="Trazado_890661" data-name="Trazado 890661" d="M143.5,279.32l-.057-.024a13.45,13.45,0,0,0-1.988-.6,3.476,3.476,0,0,1-2.7-4.242c.288-1.874,2.341-6.182,3.7-9.032.613-1.287,1.1-2.3,1.217-2.666a7.134,7.134,0,0,0,.173-.722c.342-1.638.98-4.688,4.975-5.415,4.625-.84,23.722,1.483,24.625,1.633,1.3.216,14.1.556,20.246-2.224,5.375-2.426,17.389-7.306,24.394-8.4,7.532-1.176,28.48.19,35.655,10.553,7.363,10.636,3.954,20.418,3.919,20.515l-.075.209h-.223Zm8.353-22.246a17.943,17.943,0,0,0-2.923.176c-3.574.65-4.132,3.322-4.466,4.919a7.838,7.838,0,0,1-.192.793c-.134.4-.6,1.381-1.247,2.738-1.341,2.816-3.37,7.074-3.643,8.855a2.865,2.865,0,0,0,2.2,3.521,13.593,13.593,0,0,1,2.041.607l113.5-.408c.438-1.452,2.668-10.224-3.912-19.728-7.488-10.816-29.48-11.154-35.033-10.285-6.937,1.084-18.882,5.937-24.229,8.352-6.394,2.887-19.24,2.5-20.613,2.271-1.342-.224-14.725-1.811-21.484-1.811" transform="translate(-50.476 -90.001)" fill="#263238"/>
          <path id="Trazado_890662" data-name="Trazado 890662" d="M173.57,263.745c-1.226-.2-20.021-2.451-24.516-1.635s-4.494,4.7-4.9,5.925-4.495,8.989-4.9,11.645a3.172,3.172,0,0,0,2.451,3.882,13.429,13.429,0,0,1,2.043.613l56.547-.2a26.29,26.29,0,0,0,.249-4.7C200.333,272.326,194,261.5,194,261.5c-6.333,2.86-19.2,2.451-20.43,2.247" transform="translate(-50.659 -95.174)" fill="#a8a8a8"/>
          <path id="Trazado_890663" data-name="Trazado 890663" d="M143.5,284.26l-.057-.024a13.444,13.444,0,0,0-1.988-.6,3.476,3.476,0,0,1-2.7-4.242c.288-1.873,2.341-6.181,3.7-9.031.613-1.287,1.1-2.3,1.217-2.667a7.137,7.137,0,0,0,.173-.722c.342-1.638.98-4.688,4.975-5.415,4.625-.839,23.721,1.483,24.625,1.633,1.3.216,14.1.555,20.246-2.224l.261-.117.144.246c.26.446,6.378,10.979,6.582,17.926a26.939,26.939,0,0,1-.253,4.756l-.04.27h-.273Zm8.353-22.246a17.947,17.947,0,0,0-2.923.176c-3.574.65-4.132,3.322-4.466,4.919a7.837,7.837,0,0,1-.192.793c-.134.4-.6,1.382-1.247,2.738-1.341,2.817-3.37,7.074-3.643,8.854a2.866,2.866,0,0,0,2.2,3.522,13.6,13.6,0,0,1,2.041.607l56.211-.2a26.761,26.761,0,0,0,.206-4.374c-.183-6.214-5.423-15.732-6.354-17.377-6.476,2.76-18.993,2.381-20.348,2.155s-14.725-1.811-21.484-1.811" transform="translate(-50.476 -94.941)" fill="#263238"/>
          <path id="Trazado_890664" data-name="Trazado 890664" d="M154.4,285.363c-2.767-.184-3.013-.377-4.106-1.825-.123-.163-.259-.343-.415-.544-1.126-1.448.084-3.848,1.617-6.888.623-1.236,1.268-2.516,1.813-3.847.878-2.145,1.233-3.283,1.492-4.113a8.015,8.015,0,0,1,.985-2.267,4.985,4.985,0,0,1,3.51-1.988l.058.633a4.419,4.419,0,0,0-3.029,1.691,7.483,7.483,0,0,0-.917,2.12c-.248.794-.623,1.995-1.51,4.165-.554,1.354-1.205,2.645-1.834,3.893-1.374,2.726-2.561,5.08-1.682,6.211.158.2.3.386.421.551.976,1.295,1.056,1.4,3.639,1.574Z" transform="translate(-54.388 -96.045)" fill="#263238"/>
          <path id="Trazado_890665" data-name="Trazado 890665" d="M167.588,286.3c-2.6-.171-2.828-.349-3.856-1.691-.114-.151-.242-.317-.388-.5-1.065-1.348.071-3.569,1.511-6.379.583-1.139,1.186-2.316,1.7-3.542.82-1.976,1.153-3.024,1.4-3.789a7.369,7.369,0,0,1,.925-2.1,4.708,4.708,0,0,1,3.3-1.841l.057.633a4.139,4.139,0,0,0-2.82,1.548,6.79,6.79,0,0,0-.854,1.948c-.233.732-.583,1.839-1.415,3.84-.519,1.249-1.128,2.439-1.717,3.589-1.282,2.5-2.39,4.666-1.577,5.7.148.187.277.356.394.508.909,1.187.983,1.284,3.393,1.443Z" transform="translate(-59.298 -96.981)" fill="#263238"/>
          <path id="Trazado_890666" data-name="Trazado 890666" d="M178.432,288.051c-2.063-.147-2.247-.336-3.008-1.453-.087-.127-.182-.267-.291-.421-.808-1.148.046-3.019,1.126-5.388.437-.957.889-1.947,1.27-2.976.614-1.659.863-2.539,1.044-3.182a6.633,6.633,0,0,1,.7-1.769,3.505,3.505,0,0,1,2.537-1.584l.064.632a2.91,2.91,0,0,0-2.046,1.264,6.014,6.014,0,0,0-.637,1.63c-.174.616-.438,1.547-1.06,3.23-.389,1.051-.846,2.051-1.287,3.019-.957,2.1-1.783,3.908-1.185,4.758.111.158.208.3.3.429.674.989.715,1.049,2.474,1.178a21.086,21.086,0,0,0,3.722-.8c1.618-.539,2.607-1.8,2.25-2.867l-.308-.925.794.566a18.924,18.924,0,0,0,4.213,2l-.214.6a22.569,22.569,0,0,1-3.775-1.71,3.6,3.6,0,0,1-2.76,2.938,20.641,20.641,0,0,1-3.914.832" transform="translate(-63.625 -98.734)" fill="#263238"/>
          <path id="Trazado_890667" data-name="Trazado 890667" d="M186.9,288.842l-.366-.519a52.076,52.076,0,0,0,5.065-4.052l.45.45a51.416,51.416,0,0,1-5.149,4.121" transform="translate(-67.89 -103.463)" fill="#263238"/>
        </g>
      </g>
      <g id="Grupo_1106792" data-name="Grupo 1106792">
        <g id="Grupo_1106791" data-name="Grupo 1106791" clip-path="url(#clip-path)">
          <path id="Trazado_890668" data-name="Trazado 890668" d="M106.95,222.027c-.017-.082-1.711-8.237-2.5-16.617-.807-8.548,3.585-16.091,3.772-16.407l1.1.647c-.045.074-4.368,7.513-3.6,15.641.785,8.309,2.465,16.395,2.481,16.475Z" transform="translate(-37.979 -68.789)" fill="#263238"/>
          <path id="Trazado_890669" data-name="Trazado 890669" d="M101.02,215.783c-.032-.128-3.281-12.913-9.1-19.172l.932-.866c6.04,6.5,9.265,19.191,9.4,19.729Z" transform="translate(-33.456 -71.243)" fill="#263238"/>
          <path id="Trazado_890670" data-name="Trazado 890670" d="M101.172,206.148a12.538,12.538,0,0,0-5.962-1.189l-.071-1.27a13.556,13.556,0,0,1,6.636,1.339Z" transform="translate(-34.627 -74.127)" fill="#263238"/>
          <path id="Trazado_890671" data-name="Trazado 890671" d="M105.1,209.042l-1.032-.745c.118-.162,2.9-3.966,6.544-3.508,3.5.441,4.435,1.765,4.53,1.914l-1.074.682s-.749-.974-3.615-1.335c-2.89-.361-5.329,2.958-5.354,2.991" transform="translate(-37.878 -74.521)" fill="#263238"/>
          <path id="Trazado_890672" data-name="Trazado 890672" d="M85.352,197.011a25.964,25.964,0,0,0-1.6-8.692c-1.71-4.674-5.171-4.875-9.128-4.614s-13.266,1.579-13.266,1.579,5.422,4.073,8.777,7.147,7.247,3.587,10,4.093a30.947,30.947,0,0,0,5.221.487" transform="translate(-22.332 -66.834)" fill="#0ac675"/>
          <path id="Trazado_890673" data-name="Trazado 890673" d="M84.865,197.146a31.721,31.721,0,0,1-5.252-.492l-.589-.107c-2.69-.482-6.374-1.142-9.564-4.065-3.3-3.028-8.7-7.085-8.753-7.127l-.613-.46.76-.108c.093-.013,9.366-1.324,13.289-1.582,3.954-.26,7.652-.088,9.448,4.823a26.056,26.056,0,0,1,1.619,8.809l-.009.307-.307,0ZM61.7,185.311c1.517,1.158,5.524,4.26,8.19,6.7,3.054,2.8,6.633,3.438,9.245,3.907l.593.107a31.394,31.394,0,0,0,4.845.479,26.479,26.479,0,0,0-1.58-8.262c-1.648-4.5-4.965-4.663-8.808-4.406-3.244.212-10.186,1.153-12.485,1.471" transform="translate(-21.872 -66.652)" fill="#263238"/>
          <path id="Trazado_890674" data-name="Trazado 890674" d="M105.239,191.406s-1.485-6.806.081-11.25,5.813-7.608,9.77-7.868,9.334.01,9.334.01a41.7,41.7,0,0,1-7.744,10.969,60.036,60.036,0,0,1-11.44,8.139" transform="translate(-38.071 -62.665)" fill="#0ac675"/>
          <path id="Trazado_890675" data-name="Trazado 890675" d="M104.833,191.7l-.089-.41c-.062-.282-1.485-6.946.091-11.423,1.55-4.4,5.776-7.8,10.049-8.081,3.931-.259,9.317.008,9.371.01l.471.024-.2.428a42.384,42.384,0,0,1-7.812,11.064,60.926,60.926,0,0,1-11.511,8.191Zm14.129-19.391c-1.344,0-2.768.028-4.036.112-4.031.266-8.022,3.486-9.491,7.657-1.3,3.681-.438,9.113-.153,10.655a59.238,59.238,0,0,0,10.993-7.881,41.255,41.255,0,0,0,7.465-10.442c-.851-.035-2.723-.1-4.778-.1" transform="translate(-37.886 -62.483)" fill="#263238"/>
          <path id="Trazado_890676" data-name="Trazado 890676" d="M91.62,203.6s-2.121-2.513-7.132-1.7-5.868,6.093-5.417,8.877a18.489,18.489,0,0,1-.492,6.365,49.174,49.174,0,0,0,6.856-5.873c4.439-4.338,4.078-6.565,6.184-7.668" transform="translate(-28.6 -73.425)" fill="#0ac675"/>
          <path id="Trazado_890677" data-name="Trazado 890677" d="M77.771,217.661l.206-.783a18.26,18.26,0,0,0,.486-6.233,10.02,10.02,0,0,1,.683-5.357,6.389,6.389,0,0,1,5-3.884c5.128-.833,7.334,1.7,7.426,1.81l.256.3-.352.184a5.027,5.027,0,0,0-1.951,2.262,22.806,22.806,0,0,1-4.158,5.352,49.085,49.085,0,0,1-6.909,5.913ZM86.1,201.876a11.593,11.593,0,0,0-1.855.155,5.778,5.778,0,0,0-4.517,3.515,9.353,9.353,0,0,0-.637,5,17.081,17.081,0,0,1-.311,5.679,60.141,60.141,0,0,0,6.14-5.364,22.263,22.263,0,0,0,4.053-5.218A6.261,6.261,0,0,1,90.8,203.36a7.21,7.21,0,0,0-4.7-1.484" transform="translate(-28.305 -73.242)" fill="#263238"/>
          <path id="Trazado_890678" data-name="Trazado 890678" d="M110.492,204.67s2.738-4.253,6.1-3.466,6.024.738,8.265,3.993.626,12.087.626,12.087a20.94,20.94,0,0,0-4.734-5.708c-2.834-2.206-6.831-6.891-10.261-6.906" transform="translate(-40.215 -73.195)" fill="#0ac675"/>
          <path id="Trazado_890679" data-name="Trazado 890679" d="M125.306,218.045l-.431-.792a20.762,20.762,0,0,0-4.651-5.608c-.731-.571-1.535-1.3-2.385-2.069-2.46-2.231-5.248-4.759-7.682-4.77l-.58,0,.314-.488c.117-.181,2.9-4.428,6.444-3.6.571.134,1.121.243,1.652.349,2.613.519,4.87.967,6.8,3.774,2.29,3.324.744,11.958.678,12.323Zm-14.556-13.833c2.507.35,5.158,2.753,7.517,4.892.841.763,1.636,1.483,2.35,2.039a20.252,20.252,0,0,1,4.363,5.037c.331-2.281,1.025-8.46-.713-10.985-1.786-2.593-3.823-3-6.4-3.51-.539-.107-1.1-.218-1.674-.352-2.465-.583-4.644,1.846-5.441,2.88" transform="translate(-39.881 -73.012)" fill="#263238"/>
          <path id="Trazado_890680" data-name="Trazado 890680" d="M170.922,223.678l-1.271-.057c0-.083.368-8.335-.188-16.66-.543-8.159-6-14.8-6.058-14.862l.978-.815c.235.284,5.778,7.026,6.35,15.593.56,8.4.193,16.719.189,16.8" transform="translate(-59.473 -69.619)" fill="#263238"/>
          <path id="Trazado_890681" data-name="Trazado 890681" d="M174.495,216.3l-1.267-.107c.046-.551,1.2-13.595,6.12-20.978l1.058.705c-4.742,7.113-5.9,20.248-5.911,20.379" transform="translate(-63.048 -71.049)" fill="#263238"/>
          <path id="Trazado_890682" data-name="Trazado 890682" d="M173.207,206.736l-.775-1.009a13.532,13.532,0,0,1,6.337-2.384l.133,1.264a12.458,12.458,0,0,0-5.7,2.129" transform="translate(-62.758 -74.008)" fill="#263238"/>
          <path id="Trazado_890683" data-name="Trazado 890683" d="M167.335,210.718c-.03-.029-2.974-2.918-5.763-2.1s-3.358,1.9-3.363,1.915l-1.161-.52c.07-.163.78-1.619,4.165-2.615,3.517-1.035,6.879,2.274,7.021,2.416Z" transform="translate(-57.159 -75.413)" fill="#263238"/>
          <path id="Trazado_890684" data-name="Trazado 890684" d="M178.494,196.108a25.974,25.974,0,0,1,.188-8.836c.939-4.887,4.324-5.639,8.271-6.016s13.348-.564,13.348-.564-4.7,4.887-7.52,8.459-6.58,4.7-9.212,5.64a30.982,30.982,0,0,1-5.076,1.316" transform="translate(-64.186 -65.765)" fill="#0ac675"/>
          <path id="Trazado_890685" data-name="Trazado 890685" d="M178.056,196.277l-.058-.3a26.032,26.032,0,0,1,.188-8.955c.988-5.133,4.61-5.9,8.553-6.273,3.915-.373,13.277-.563,13.372-.565l.768-.016-.532.554c-.046.048-4.721,4.918-7.5,8.436-2.679,3.394-6.209,4.635-8.786,5.542l-.569.2a31.605,31.605,0,0,1-5.134,1.331Zm21.3-15.441c-2.321.054-9.324.238-12.559.546-3.835.366-7.084,1.051-7.99,5.759a26.505,26.505,0,0,0-.237,8.408,31.327,31.327,0,0,0,4.706-1.247l.571-.2c2.5-.881,5.933-2.087,8.5-5.336,2.241-2.839,5.7-6.542,7.011-7.928" transform="translate(-64.677 -65.573)" fill="#263238"/>
          <path id="Trazado_890686" data-name="Trazado 890686" d="M159.273,193.829s.376-6.956-1.88-11.091-6.956-6.58-10.9-6.2-9.212,1.5-9.212,1.5a41.682,41.682,0,0,0,9.4,9.588,60.034,60.034,0,0,0,12.6,6.2" transform="translate(-49.289 -64.237)" fill="#0ac675"/>
          <path id="Trazado_890687" data-name="Trazado 890687" d="M159.265,194.084l-.4-.137a60.849,60.849,0,0,1-12.672-6.243,42.36,42.36,0,0,1-9.483-9.671l-.265-.391.462-.1c.053-.011,5.327-1.136,9.248-1.509,4.265-.4,8.98,2.272,11.213,6.368,2.273,4.167,1.934,10.973,1.918,11.261Zm-21.75-16.017a41.26,41.26,0,0,0,9.041,9.114,59.252,59.252,0,0,0,12.112,6.019c.035-1.567.013-7.068-1.855-10.493-2.118-3.882-6.587-6.421-10.594-6.039-3.2.3-7.323,1.117-8.7,1.4" transform="translate(-49.661 -64.055)" fill="#263238"/>
          <path id="Trazado_890688" data-name="Trazado 890688" d="M178.657,203.315s1.692-2.82,6.767-2.82,6.768,5.076,6.768,7.9a18.481,18.481,0,0,0,1.5,6.2,49.16,49.16,0,0,1-7.708-4.7c-5.076-3.572-5.076-5.828-7.332-6.58" transform="translate(-64.349 -72.972)" fill="#0ac675"/>
          <path id="Trazado_890689" data-name="Trazado 890689" d="M194.042,215.024l-.745-.319a49.122,49.122,0,0,1-7.765-4.732,22.778,22.778,0,0,1-4.96-4.618,5.041,5.041,0,0,0-2.288-1.921l-.376-.125.2-.34c.073-.122,1.845-2.975,7.04-2.975,5.162,0,7.085,5.038,7.085,8.214a18.255,18.255,0,0,0,1.477,6.075ZM178.89,202.991a6.271,6.271,0,0,1,2.172,1.96,22.212,22.212,0,0,0,4.837,4.5,59.948,59.948,0,0,0,6.918,4.313,17.126,17.126,0,0,1-1.216-5.556c0-2.93-1.751-7.578-6.449-7.578-3.837,0-5.663,1.659-6.262,2.36" transform="translate(-64.751 -72.79)" fill="#263238"/>
          <path id="Trazado_890690" data-name="Trazado 890690" d="M159.358,207.213s-3.384-3.76-6.58-2.444-5.827,1.692-7.519,5.264,1.315,12.031,1.315,12.031a20.937,20.937,0,0,1,3.76-6.392c2.444-2.632,5.64-7.9,9.024-8.459" transform="translate(-52.68 -74.426)" fill="#0ac675"/>
          <path id="Trazado_890691" data-name="Trazado 890691" d="M146.394,222.836l-.3-.849c-.125-.351-3.032-8.626-1.3-12.274,1.458-3.079,3.615-3.882,6.111-4.814.508-.189,1.033-.385,1.575-.608,3.363-1.389,6.792,2.364,6.937,2.524l.388.432-.572.095c-2.4.4-4.749,3.344-6.821,5.94-.715.9-1.39,1.743-2.021,2.423a20.771,20.771,0,0,0-3.693,6.28Zm7.624-18.211a3.4,3.4,0,0,0-1.3.253c-.549.226-1.081.425-1.6.617-2.463.919-4.409,1.644-5.757,4.49-1.313,2.77.362,8.758,1.054,10.957a20.223,20.223,0,0,1,3.5-5.67c.614-.663,1.282-1.5,1.99-2.386,1.986-2.49,4.219-5.288,6.638-6.034-.777-.729-2.607-2.226-4.53-2.226" transform="translate(-52.498 -74.241)" fill="#263238"/>
          <path id="Trazado_890692" data-name="Trazado 890692" d="M137.308,218.244h-1.272c0-.182-.006-18.311-.563-26.653-.543-8.159-6-14.8-6.058-14.862l.978-.815c.235.284,5.778,7.026,6.35,15.593.559,8.384.565,26.555.565,26.737" transform="translate(-47.102 -64.025)" fill="#263238"/>
          <path id="Trazado_890693" data-name="Trazado 890693" d="M140.5,200.928l-1.267-.107c.046-.551,1.2-13.6,6.12-20.978l1.058.705c-4.739,7.108-5.9,20.248-5.911,20.379" transform="translate(-50.677 -65.455)" fill="#263238"/>
          <path id="Trazado_890694" data-name="Trazado 890694" d="M139.216,191.367l-.775-1.009a13.536,13.536,0,0,1,6.337-2.384l.133,1.264a12.458,12.458,0,0,0-5.7,2.129" transform="translate(-50.387 -68.415)" fill="#263238"/>
          <path id="Trazado_890695" data-name="Trazado 890695" d="M133.346,195.349c-.031-.029-2.975-2.918-5.763-2.1s-3.357,1.9-3.363,1.914l-1.161-.519c.07-.163.78-1.62,4.165-2.615,3.517-1.036,6.879,2.275,7.021,2.416Z" transform="translate(-44.788 -69.819)" fill="#263238"/>
          <path id="Trazado_890696" data-name="Trazado 890696" d="M144.5,180.738a25.973,25.973,0,0,1,.188-8.836c.939-4.887,4.324-5.64,8.271-6.016s13.348-.564,13.348-.564-4.7,4.887-7.52,8.459-6.58,4.7-9.212,5.64a30.982,30.982,0,0,1-5.076,1.316" transform="translate(-51.815 -60.171)" fill="#0ac675"/>
          <path id="Trazado_890697" data-name="Trazado 890697" d="M144.066,180.908l-.058-.3a26.032,26.032,0,0,1,.188-8.955c.988-5.135,4.61-5.9,8.553-6.273,3.915-.373,13.277-.563,13.372-.565l.768-.016-.532.554c-.046.048-4.721,4.918-7.5,8.436-2.68,3.395-6.211,4.635-8.789,5.542l-.565.2a31.588,31.588,0,0,1-5.135,1.331Zm21.3-15.441c-2.321.054-9.324.238-12.559.546-3.835.366-7.084,1.051-7.99,5.759a26.486,26.486,0,0,0-.237,8.408,31.379,31.379,0,0,0,4.707-1.248l.569-.2c2.5-.88,5.934-2.086,8.5-5.336,2.241-2.839,5.7-6.542,7.011-7.928" transform="translate(-52.306 -59.98)" fill="#263238"/>
          <path id="Trazado_890698" data-name="Trazado 890698" d="M125.283,178.459s.376-6.956-1.88-11.091-6.956-6.58-10.9-6.2-9.211,1.5-9.211,1.5a41.686,41.686,0,0,0,9.4,9.587,60.018,60.018,0,0,0,12.6,6.2" transform="translate(-36.918 -58.643)" fill="#0ac675"/>
          <path id="Trazado_890699" data-name="Trazado 890699" d="M125.276,178.713l-.4-.137a60.862,60.862,0,0,1-12.673-6.242,42.384,42.384,0,0,1-9.483-9.672l-.265-.391.462-.1c.053-.011,5.327-1.136,9.248-1.509,4.275-.406,8.979,2.272,11.213,6.368,2.273,4.167,1.934,10.972,1.918,11.261ZM103.525,162.7a41.274,41.274,0,0,0,9.041,9.114,59.246,59.246,0,0,0,12.112,6.019c.035-1.567.012-7.067-1.856-10.493-2.118-3.883-6.575-6.43-10.594-6.039-3.2.3-7.322,1.117-8.7,1.4" transform="translate(-37.29 -58.46)" fill="#263238"/>
          <path id="Trazado_890700" data-name="Trazado 890700" d="M144.667,187.945s1.692-2.82,6.767-2.82,6.768,5.076,6.768,7.9a18.481,18.481,0,0,0,1.5,6.2,49.157,49.157,0,0,1-7.708-4.7c-5.076-3.572-5.076-5.828-7.332-6.58" transform="translate(-51.978 -67.378)" fill="#0ac675"/>
          <path id="Trazado_890701" data-name="Trazado 890701" d="M160.053,199.655l-.745-.319a49.1,49.1,0,0,1-7.766-4.732,22.779,22.779,0,0,1-4.96-4.618,5.041,5.041,0,0,0-2.288-1.921l-.376-.125.2-.34c.073-.122,1.845-2.975,7.04-2.975,5.162,0,7.085,5.038,7.085,8.214a18.249,18.249,0,0,0,1.478,6.075ZM144.9,187.622a6.271,6.271,0,0,1,2.172,1.96,22.213,22.213,0,0,0,4.837,4.5,60.008,60.008,0,0,0,6.918,4.313,17.126,17.126,0,0,1-1.216-5.556c0-2.93-1.751-7.578-6.449-7.578-3.837,0-5.663,1.659-6.262,2.36" transform="translate(-52.38 -67.196)" fill="#263238"/>
          <path id="Trazado_890702" data-name="Trazado 890702" d="M125.368,191.844s-3.384-3.76-6.58-2.444-5.827,1.692-7.519,5.263,1.316,12.032,1.316,12.032a20.943,20.943,0,0,1,3.76-6.392c2.444-2.632,5.64-7.9,9.024-8.459" transform="translate(-40.309 -68.832)" fill="#0ac675"/>
          <path id="Trazado_890703" data-name="Trazado 890703" d="M112.4,207.466l-.3-.848c-.125-.351-3.033-8.626-1.3-12.274,1.458-3.079,3.615-3.882,6.111-4.814.508-.189,1.033-.385,1.575-.608,3.362-1.388,6.792,2.364,6.937,2.525l.388.431-.572.095c-2.4.4-4.748,3.343-6.82,5.939-.716.9-1.392,1.743-2.023,2.423a20.784,20.784,0,0,0-3.693,6.281Zm7.624-18.211a3.394,3.394,0,0,0-1.3.253c-.549.226-1.081.425-1.6.617-2.463.919-4.409,1.644-5.757,4.49-1.313,2.77.363,8.758,1.055,10.957a20.229,20.229,0,0,1,3.5-5.67c.614-.663,1.283-1.5,1.991-2.387,1.986-2.489,4.218-5.287,6.638-6.033-.777-.73-2.607-2.227-4.529-2.227" transform="translate(-40.127 -68.648)" fill="#263238"/>
          <path id="Trazado_890704" data-name="Trazado 890704" d="M141.382,270.813s-8.581.408-9.806,1.226-5.516,4.495-8.989,5.721-2.656,4.29.817,5.312,5.516-1.021,7.355-1.43a71.569,71.569,0,0,1,7.559-.613Z" transform="translate(-43.804 -98.565)" fill="#a8a8a8"/>
          <path id="Trazado_890705" data-name="Trazado 890705" d="M125.107,283.478a6.952,6.952,0,0,1-1.976-.3c-1.955-.575-3.24-1.828-3.276-3.192-.031-1.173.859-2.166,2.444-2.725,2.651-.936,5.791-3.329,7.667-4.759.541-.413.968-.738,1.25-.926,1.263-.842,9.08-1.236,9.968-1.278l.448-.022-3.26,10.864-.228.008a71.673,71.673,0,0,0-7.5.606,8.431,8.431,0,0,0-1.628.637,8.948,8.948,0,0,1-3.91,1.084m15.659-12.519c-3.419.178-8.388.611-9.2,1.15-.265.176-.686.5-1.217.9-1.906,1.452-5.1,3.883-7.842,4.852-1.306.461-2.042,1.229-2.02,2.108.029,1.067,1.162,2.11,2.821,2.6a7.023,7.023,0,0,0,5.436-.755,8.946,8.946,0,0,1,1.759-.681,65.808,65.808,0,0,1,7.389-.612Z" transform="translate(-43.622 -98.371)" fill="#263238"/>
          <path id="Trazado_890706" data-name="Trazado 890706" d="M106.8,262.572h-3.525a3.36,3.36,0,0,1-3.356-3.356V212.5h10.238v46.72a3.36,3.36,0,0,1-3.357,3.356m-6.245-49.44v46.084a2.723,2.723,0,0,0,2.72,2.72H106.8a2.723,2.723,0,0,0,2.721-2.72V213.132Z" transform="translate(-36.365 -77.34)" fill="#263238"/>
          <path id="Trazado_890707" data-name="Trazado 890707" d="M107.386,266.414h-2.067a1.782,1.782,0,0,1-1.782-1.782V230.662h5.631v33.971a1.781,1.781,0,0,1-1.782,1.782" transform="translate(-37.683 -83.951)" fill="#0ac675"/>
          <path id="Trazado_890708" data-name="Trazado 890708" d="M107.2,266.551h-2.068a2.1,2.1,0,0,1-2.1-2.1V230.163H109.3v34.288a2.1,2.1,0,0,1-2.1,2.1M103.673,230.8v33.652a1.465,1.465,0,0,0,1.464,1.464H107.2a1.465,1.465,0,0,0,1.464-1.464V230.8Z" transform="translate(-37.501 -83.77)" fill="#263238"/>
          <path id="Trazado_890709" data-name="Trazado 890709" d="M139.88,262.572h-3.525A3.36,3.36,0,0,1,133,259.216V212.5h10.238v46.72a3.36,3.36,0,0,1-3.357,3.356m-6.245-49.44v46.084a2.723,2.723,0,0,0,2.72,2.72h3.525a2.723,2.723,0,0,0,2.721-2.72V213.132Z" transform="translate(-48.406 -77.34)" fill="#263238"/>
          <path id="Trazado_890710" data-name="Trazado 890710" d="M140.47,266.414H138.4a1.782,1.782,0,0,1-1.782-1.782V230.662h5.631v33.971a1.781,1.781,0,0,1-1.782,1.782" transform="translate(-49.724 -83.951)" fill="#0ac675"/>
          <path id="Trazado_890711" data-name="Trazado 890711" d="M140.288,266.551h-2.068a2.1,2.1,0,0,1-2.1-2.1V230.163h6.267v34.288a2.1,2.1,0,0,1-2.1,2.1M136.757,230.8v33.652a1.465,1.465,0,0,0,1.464,1.464h2.068a1.465,1.465,0,0,0,1.464-1.464V230.8Z" transform="translate(-49.542 -83.77)" fill="#263238"/>
          <path id="Trazado_890712" data-name="Trazado 890712" d="M172.964,262.572h-3.525a3.36,3.36,0,0,1-3.356-3.356V212.5h10.238v46.72a3.36,3.36,0,0,1-3.357,3.356m-6.245-49.44v46.084a2.723,2.723,0,0,0,2.72,2.72h3.525a2.723,2.723,0,0,0,2.721-2.72V213.132Z" transform="translate(-60.447 -77.34)" fill="#263238"/>
          <path id="Trazado_890713" data-name="Trazado 890713" d="M173.554,266.414h-2.067a1.782,1.782,0,0,1-1.782-1.782V230.662h5.631v33.971a1.782,1.782,0,0,1-1.782,1.782" transform="translate(-61.766 -83.951)" fill="#0ac675"/>
          <path id="Trazado_890714" data-name="Trazado 890714" d="M173.372,266.551H171.3a2.1,2.1,0,0,1-2.1-2.1V230.163h6.267v34.288a2.1,2.1,0,0,1-2.1,2.1M169.841,230.8v33.652a1.465,1.465,0,0,0,1.464,1.464h2.068a1.465,1.465,0,0,0,1.464-1.464V230.8Z" transform="translate(-61.584 -83.77)" fill="#263238"/>
          <rect id="Rectángulo_405077" data-name="Rectángulo 405077" width="60.064" height="2.656" transform="translate(61.621 151.614)" fill="#fff"/>
          <path id="Trazado_890715" data-name="Trazado 890715" d="M157.082,241.163h-60.7v-3.292h60.7Zm-60.064-.636h59.429v-2.02H97.018Z" transform="translate(-35.079 -86.575)" fill="#263238"/>
          <rect id="Rectángulo_405078" data-name="Rectángulo 405078" width="3.064" height="43.107" transform="translate(119.846 145.894)" fill="#fff"/>
          <path id="Trazado_890716" data-name="Trazado 890716" d="M191.625,272.621h-3.7V228.878h3.7Zm-3.064-.636h2.428V229.514h-2.428Z" transform="translate(-68.397 -83.302)" fill="#263238"/>
          <rect id="Rectángulo_405079" data-name="Rectángulo 405079" width="62.516" height="6.129" transform="translate(60.395 182.871)" fill="#fff"/>
          <path id="Trazado_890717" data-name="Trazado 890717" d="M157.606,293.781H94.454v-6.766h63.152Zm-62.516-.636h61.88v-5.493H95.09Z" transform="translate(-34.377 -104.462)" fill="#263238"/>
        </g>
      </g>
    </g>
    <g id="Grupo_1107980" data-name="Grupo 1107980" transform="translate(-264.003 -1669.6)">
      <circle id="Elipse_11536" data-name="Elipse 11536" cx="4.889" cy="4.889" r="4.889" transform="translate(1381.989 2719.649)" fill="#00e0ff"/>
      <circle id="Elipse_11529" data-name="Elipse 11529" cx="4.889" cy="4.889" r="4.889" transform="translate(1538.227 2664.411)" fill="#00e0ff"/>
      <circle id="Elipse_11530" data-name="Elipse 11530" cx="4.889" cy="4.889" r="4.889" transform="translate(1434.32 2654.982)" fill="#00e0ff"/>
      <circle id="Elipse_11533" data-name="Elipse 11533" cx="1.572" cy="1.572" r="1.572" transform="translate(1413.544 2667.729)" fill="#00e0ff"/>
      <circle id="Elipse_11616" data-name="Elipse 11616" cx="1.572" cy="1.572" r="1.572" transform="translate(1518.544 2794.646)" fill="#00e0ff"/>
      <circle id="Elipse_11615" data-name="Elipse 11615" cx="1.572" cy="1.572" r="1.572" transform="translate(1575.86 2714.729)" fill="#00e0ff"/>
      <circle id="Elipse_11535" data-name="Elipse 11535" cx="3.143" cy="3.143" r="3.143" transform="translate(1388.624 2700.252)" fill="#00e0ff"/>
      <circle id="Elipse_11531" data-name="Elipse 11531" cx="4.889" cy="4.889" r="4.889" transform="translate(1536.272 2797.789)" fill="#00e0ff"/>
      <circle id="Elipse_11534" data-name="Elipse 11534" cx="4.889" cy="4.889" r="4.889" transform="translate(1365.003 2773.869)" fill="#00e0ff"/>
      <circle id="Elipse_11532" data-name="Elipse 11532" cx="3.143" cy="3.143" r="3.143" transform="translate(1405.83 2793.075)" fill="#00e0ff"/>
    </g>
  </g>
</svg>
