<svg xmlns="http://www.w3.org/2000/svg" width="70" height="70" viewBox="0 0 70 70">
  <g id="Grupo_53259" data-name="Grupo 53259" transform="translate(0.017)">
    <circle id="Elipse_3951" data-name="Elipse 3951" cx="31" cy="31" r="31" transform="translate(3.746 4)" fill="#0ac675"/>
    <g id="Elipse_3952" data-name="Elipse 3952" transform="translate(-0.017)" fill="none" stroke="#017301" stroke-width="1">
      <circle cx="35" cy="35" r="35" stroke="none"/>
      <circle cx="35" cy="35" r="34.5" fill="none"/>
    </g>
    <path id="medicion" d="M20.262,50.847V15.623a.616.616,0,0,1,1.114-.362L47,50.485a.616.616,0,0,1-.5.978H20.878a.616.616,0,0,1-.616-.616Zm1.232-3.237v2.621H45.3l-23.8-32.715v6.472h1.825a.616.616,0,1,1,0,1.232H21.494v1.349h.932a.616.616,0,0,1,0,1.232h-.932v1.274h.932a.616.616,0,1,1,0,1.232h-.932v1.146h1.825a.616.616,0,0,1,0,1.232H21.494V33.91h.932a.616.616,0,0,1,0,1.232h-.932v1.274h.932a.616.616,0,0,1,0,1.232h-.932v1.268h1.825a.616.616,0,0,1,0,1.232H21.494V41.42h.932a.616.616,0,0,1,0,1.232h-.932v1.274h.932a.616.616,0,0,1,0,1.232h-.932v1.221h1.825a.616.616,0,1,1,0,1.232Zm5.448-15.238,9.128,12.547a.616.616,0,0,1-.5.978H26.444a.616.616,0,0,1-.616-.616V32.734a.616.616,0,0,1,1.114-.362Zm.118,2.256V44.666h7.3ZM27.091,17.2l-1.852-.307a.2.2,0,0,1,0-.385l1.852-.307a1.692,1.692,0,0,1,1.615-1.191H54.585v-.729a2.332,2.332,0,0,1,2.332-2.332h.543V8.616a.616.616,0,0,1,1.232,0v3.33h.543a2.332,2.332,0,0,1,2.332,2.332V19.3A1.537,1.537,0,0,1,60.03,20.84h-.264V46.067a1.691,1.691,0,0,1-1.02,1.552L58.269,50.5a.2.2,0,0,1-.385,0l-.477-2.881a1.691,1.691,0,0,1-1.02-1.552V20.84h-.264A1.537,1.537,0,0,1,54.585,19.3v-.915H28.706A1.692,1.692,0,0,1,27.091,17.2Zm27.494-.958H28.706a.458.458,0,1,0,0,.917H54.585Zm4.651-3.061H56.917a1.1,1.1,0,0,0-1.1,1.1V19.3a.305.305,0,0,0,.305.305H60.03a.305.305,0,0,0,.305-.305V14.278a1.1,1.1,0,0,0-1.1-1.1Zm-.7,7.662h-.917V46.067a.458.458,0,1,0,.917,0Zm-.458-6.161a1.714,1.714,0,1,1-1.714,1.714,1.715,1.715,0,0,1,1.714-1.714Zm0,1.232a.482.482,0,1,0,.482.482.482.482,0,0,0-.482-.482ZM40.786,29.64a11.657,11.657,0,0,1-2.267-4.3,2.729,2.729,0,0,1,.453-2.474,2.729,2.729,0,0,1,2.412-.713,12.534,12.534,0,0,1,5.122,2.185,12.535,12.535,0,0,1,5.122-2.185,2.729,2.729,0,0,1,2.412.713,2.729,2.729,0,0,1,.453,2.474,11.655,11.655,0,0,1-2.267,4.3,11.656,11.656,0,0,1,2.267,4.3,2.4,2.4,0,0,1-2.865,3.187,12.535,12.535,0,0,1-5.122-2.185,12.534,12.534,0,0,1-5.122,2.185,2.4,2.4,0,0,1-2.865-3.187A11.658,11.658,0,0,1,40.786,29.64ZM45.425,25.1a12.659,12.659,0,0,0-3.374-1.57,4,4,0,0,0-1.434-.156.955.955,0,0,0-.966,1.075,4,4,0,0,0,.308,1.41,12,12,0,0,0,1.626,2.806A24.621,24.621,0,0,1,43.7,26.52C44.272,26.008,44.85,25.534,45.425,25.1Zm6,3.564a12,12,0,0,0,1.626-2.806,4,4,0,0,0,.308-1.41.955.955,0,0,0-.966-1.075,4,4,0,0,0-1.435.156,12.66,12.66,0,0,0-3.374,1.57c.576.431,1.154.9,1.724,1.418A24.621,24.621,0,0,1,51.426,28.666Zm-3.841,5.511a12.658,12.658,0,0,0,3.374,1.57,4,4,0,0,0,1.435.156.955.955,0,0,0,.966-1.075,4,4,0,0,0-.308-1.41,12,12,0,0,0-1.626-2.806,24.633,24.633,0,0,1-2.117,2.146C48.739,33.272,48.161,33.746,47.585,34.177Zm-6-3.564a12,12,0,0,0-1.626,2.806,4,4,0,0,0-.308,1.41.955.955,0,0,0,.966,1.075,4,4,0,0,0,1.434-.156,12.657,12.657,0,0,0,3.374-1.57c-.576-.431-1.154-.9-1.724-1.417a24.635,24.635,0,0,1-2.117-2.146Zm9.061-.974a23.663,23.663,0,0,0-2.159-2.2,24.1,24.1,0,0,0-1.981-1.6,24.115,24.115,0,0,0-1.981,1.6,23.664,23.664,0,0,0-2.159,2.2,23.653,23.653,0,0,0,2.159,2.2,24.113,24.113,0,0,0,1.981,1.6,24.1,24.1,0,0,0,1.981-1.6A23.652,23.652,0,0,0,50.645,29.64Zm-4.14-2.263a2.263,2.263,0,1,1-2.263,2.263A2.265,2.265,0,0,1,46.505,27.377Zm0,1.232a1.032,1.032,0,1,0,1.032,1.032A1.032,1.032,0,0,0,46.505,28.608Z" transform="translate(-6.021 5.468)" fill="#fff" fill-rule="evenodd"/>
  </g>
</svg>
