<svg xmlns="http://www.w3.org/2000/svg" xmlns:xlink="http://www.w3.org/1999/xlink" width="85" height="85" viewBox="0 0 85 85">
  <defs>
    <clipPath id="clip-path">
      <rect id="Rectángulo_405072" data-name="Rectángulo 405072" width="55" height="55" transform="translate(195.051 1469)" fill="#e6fcff"/>
    </clipPath>
  </defs>
  <g id="Grupo_1106787" data-name="Grupo 1106787" transform="translate(-180.051 -1454)">
    <circle id="Elipse_11537" data-name="Elipse 11537" cx="42.5" cy="42.5" r="42.5" transform="translate(180.051 1454)" fill="#00e0ff"/>
    <g id="Enmascarar_grupo_1098702" data-name="Enmascarar grupo 1098702" clip-path="url(#clip-path)">
      <g id="libro" transform="translate(195.487 1469)">
        <path id="Trazado_890584" data-name="Trazado 890584" d="M53.254,25.317V49.762H31.429a4.365,4.365,0,0,1-8.73,0H.873V25.317H4.365V44.524H17.111a15.941,15.941,0,0,1,9.952,3.492,15.941,15.941,0,0,1,9.952-3.492H49.762V25.317Zm0,0" fill="#fcd770"/>
        <path id="Trazado_890585" data-name="Trazado 890585" d="M49.762,25.317V44.524H37.016a15.942,15.942,0,0,0-9.952,3.492V27.937A14.9,14.9,0,0,1,37.6,23.571h3.431v6.111H33.175v6.984H42.6l1.048,1.746,2.619-4.365V23.571h3.492Zm0,0" fill="#e6e9ed"/>
        <path id="Trazado_890586" data-name="Trazado 890586" d="M19.206,23.816a15,15,0,0,1,7.857,4.121V48.016a15.941,15.941,0,0,0-9.952-3.492H4.365V23.571h3.51c-.009.14-.017.288-.017.428v6.556H19.206V24a1.326,1.326,0,0,0-.009-.184Zm0,0" fill="#e6e9ed"/>
        <g id="Grupo_1106786" data-name="Grupo 1106786">
          <path id="Trazado_890587" data-name="Trazado 890587" d="M34.772,6.818a1.754,1.754,0,0,1-1.6,1.039,1.758,1.758,0,0,1-1.746-1.746,1.746,1.746,0,1,1,3.492,0,1.543,1.543,0,0,1-.113.6.5.5,0,0,1-.035.1Zm0,0" fill="#ef7385"/>
          <path id="Trazado_890588" data-name="Trazado 890588" d="M28.67,15.88a1.744,1.744,0,1,1-2.479,1.58,1.758,1.758,0,0,1,1.746-1.746,1.733,1.733,0,0,1,.733.166Zm0,0" fill="#ef7385"/>
          <path id="Trazado_890589" data-name="Trazado 890589" d="M22.183,11.707a1.709,1.709,0,0,1-1.231.515A1.746,1.746,0,1,1,22.7,10.476a1.709,1.709,0,0,1-.515,1.231Zm0,0" fill="#ef7385"/>
          <path id="Trazado_890590" data-name="Trazado 890590" d="M19.206,6.111V8.3a4.627,4.627,0,0,1-.175,1.3h-11a4.627,4.627,0,0,1-.175-1.3V5.238H19.206Zm0,0" fill="#ef7385"/>
          <path id="Trazado_890591" data-name="Trazado 890591" d="M19.189,23.571a2.311,2.311,0,0,1,.009.244,1.326,1.326,0,0,1,.009.184v.445H7.857V24c0-.14.009-.288.017-.428a5.212,5.212,0,0,1,1.519-3.282l4.138-4.138,4.138,4.138a5.212,5.212,0,0,1,1.519,3.282Zm0,0" fill="#ef7385"/>
          <path id="Trazado_890592" data-name="Trazado 890592" d="M7.857,27.063H19.206v3.492H7.857Zm0,0" fill="#ef7385"/>
          <path id="Trazado_890593" data-name="Trazado 890593" d="M41.032,34.048,42.6,36.667H33.175V29.683h7.857Zm0,0" fill="#ef7385"/>
        </g>
        <path id="Trazado_890594" data-name="Trazado 890594" d="M41.032,34.048H46.27l-2.619,4.365L42.6,36.667Zm0,0" fill="#969faa"/>
        <path id="Trazado_890595" data-name="Trazado 890595" d="M46.27,23.571V34.048H41.032V19.713a9.539,9.539,0,0,0,5.238,0Zm0,0" fill="#fcd770"/>
        <path id="Trazado_890596" data-name="Trazado 890596" d="M46.27,19.713a9.539,9.539,0,0,1-5.238,0,9.59,9.59,0,0,1-6.984-9.237,9.427,9.427,0,0,1,.725-3.658.5.5,0,0,0,.035-.1,9.606,9.606,0,1,1,11.463,13Zm0,0" fill="#e6e9ed"/>
        <path id="Trazado_890597" data-name="Trazado 890597" d="M49.762,10.476a6.064,6.064,0,0,1-1.222,3.658l-1.231,1.231a6.1,6.1,0,0,1-8.547-8.547l1.231-1.231a6.1,6.1,0,0,1,9.769,4.889Zm0,0" fill="#69d6f4"/>
        <path id="Trazado_890598" data-name="Trazado 890598" d="M50.635,22.7H47.143V20.345A10.474,10.474,0,1,0,35.124,4.379a2.61,2.61,0,1,0-3.772,3.6l-3.174,6.881a2.631,2.631,0,0,0-1.365.241l-3.5-3.5a2.588,2.588,0,0,0,.262-1.123,2.622,2.622,0,0,0-2.619-2.619,2.57,2.57,0,0,0-.873.17V0H18.333V1.746H8.73V0H6.984V8.3a5.4,5.4,0,0,0,.2,1.505A5.972,5.972,0,0,0,8.777,12.63L12.3,16.151,8.777,19.672A6.091,6.091,0,0,0,7.141,22.7H3.492v1.746H0v26.19H21.9a5.239,5.239,0,0,0,10.331,0h21.9V24.444H50.635Zm-1.746,1.746V43.651H37.016a16.764,16.764,0,0,0-9.079,2.67v-18A13.927,13.927,0,0,1,37.6,24.444h2.558v4.365H32.3v8.73h9.807l1.542,2.569,3.492-5.82V24.444ZM18.33,29.683H8.73V27.937h9.6ZM19.991,23.1a6.086,6.086,0,0,0-1.7-3.424l-3.522-3.521,3.521-3.521A6.167,6.167,0,0,0,18.834,12a2.586,2.586,0,0,0,3.242.83l3.5,3.5a2.588,2.588,0,0,0-.262,1.123,2.619,2.619,0,1,0,4.442-1.869L32.936,8.7c.08.007.159.026.239.026.052,0,.1-.009.156-.012a10.408,10.408,0,0,0,6.828,11.627V22.7H37.6a15.652,15.652,0,0,0-10.537,4.036A15.607,15.607,0,0,0,23.841,24.5a15.449,15.449,0,0,0-3.85-1.407Zm21.07,12.7H34.048V30.556h6.111v3.734Zm1.512-.873h2.154l-1.077,1.8ZM45.4,33.175H41.9V20.8a10.234,10.234,0,0,0,3.492,0ZM43.651,1.746a8.729,8.729,0,1,1-8.73,8.73,8.546,8.546,0,0,1,.657-3.321l0,0c.017-.039.031-.076.042-.111a8.727,8.727,0,0,1,8.034-5.3ZM33.175,5.238a.874.874,0,0,1,.873.873.7.7,0,0,1-.042.257v0l-.031.093a.872.872,0,0,1-1.166.435l0,0a.87.87,0,0,1,.371-1.659ZM27.937,16.587a.856.856,0,0,1,.367.086l0,0a.871.871,0,1,1-1.244.786.853.853,0,0,1,.267-.622A.835.835,0,0,1,27.937,16.587ZM20.952,9.6a.874.874,0,0,1,.873.873.853.853,0,0,1-.267.622.835.835,0,0,1-.606.252.874.874,0,0,1-.873-.873.9.9,0,0,1,.1-.413A.884.884,0,0,1,20.952,9.6ZM18.333,3.492V5.238H14.841V6.984h3.492V8.3a4.228,4.228,0,0,1-.028.428H8.757c-.014-.14-.027-.279-.027-.428V6.984H13.1V5.238H8.73V3.492Zm-8.323,7.9a4.276,4.276,0,0,1-.7-.919h8.443a4.36,4.36,0,0,1-.7.919l-3.521,3.521Zm3.521,5.99,3.521,3.521a4.361,4.361,0,0,1,1.07,1.792H14.841v1.746h3.484l0,1.746H8.73V24.444H13.1V22.7H8.939a4.376,4.376,0,0,1,1.072-1.792ZM5.238,24.444H6.984v9.6H8.73V31.429h9.6l0,2.619h1.746V24.9a13.67,13.67,0,0,1,2.95,1.145,13.891,13.891,0,0,1,3.161,2.268v18.01a16.881,16.881,0,0,0-9.079-2.676H5.238ZM52.381,26.19v22.7H30.556v.873a3.492,3.492,0,1,1-6.984,0v-.873H1.746V26.19H3.492V45.4H17.111a15.125,15.125,0,0,1,9.408,3.3l.546.437.546-.437a15.075,15.075,0,0,1,9.406-3.3H50.635V26.19Zm0,0"/>
        <path id="Trazado_890599" data-name="Trazado 890599" d="M6.984,35.794h5.238V37.54H6.984Zm0,0"/>
        <path id="Trazado_890600" data-name="Trazado 890600" d="M13.968,35.794h6.111V37.54H13.968Zm0,0"/>
        <path id="Trazado_890601" data-name="Trazado 890601" d="M6.984,39.286h13.1v1.746H6.984Zm0,0"/>
        <path id="Trazado_890602" data-name="Trazado 890602" d="M32.3,39.286h8.73v1.746H32.3Zm0,0"/>
        <path id="Trazado_890603" data-name="Trazado 890603" d="M43.651,17.46a6.908,6.908,0,0,0,4.183-1.4l-1.049-1.4a5.174,5.174,0,0,1-3.134,1.048,5.243,5.243,0,0,1-5.238-5.238A5.168,5.168,0,0,1,39.46,7.344l-1.4-1.05a6.9,6.9,0,0,0-1.4,4.183,6.992,6.992,0,0,0,6.984,6.984Zm0,0"/>
        <path id="Trazado_890604" data-name="Trazado 890604" d="M43.651,5.238a5.243,5.243,0,0,1,5.238,5.238,5.168,5.168,0,0,1-1.047,3.132l1.4,1.05a6.9,6.9,0,0,0,1.4-4.183,6.992,6.992,0,0,0-6.984-6.984,6.908,6.908,0,0,0-4.183,1.4l1.049,1.4a5.174,5.174,0,0,1,3.134-1.048Zm0,0"/>
      </g>
    </g>
  </g>
</svg>
