<svg id="Grupo_1108246" data-name="Grupo 1108246" xmlns="http://www.w3.org/2000/svg" xmlns:xlink="http://www.w3.org/1999/xlink" width="52" height="52" viewBox="0 0 52 52">
  <defs>
    <clipPath id="clip-path">
      <rect id="Rectángulo_405847" data-name="Rectángulo 405847" width="52" height="52" fill="none"/>
    </clipPath>
    <clipPath id="clip-path-3">
      <rect id="Rectángulo_405843" data-name="Rectángulo 405843" width="51.115" height="51.115" fill="none"/>
    </clipPath>
    <clipPath id="clip-path-4">
      <rect id="Rectángulo_405844" data-name="Rectángulo 405844" width="9.577" height="9.577" fill="none"/>
    </clipPath>
    <clipPath id="clip-path-5">
      <rect id="Rectángulo_405845" data-name="Rectángulo 405845" width="5.236" height="5.236" fill="none"/>
    </clipPath>
  </defs>
  <g id="Grupo_1108245" data-name="Grupo 1108245" clip-path="url(#clip-path)">
    <g id="Grupo_1108244" data-name="Grupo 1108244" transform="translate(0 0)">
      <g id="Grupo_1108243" data-name="Grupo 1108243" clip-path="url(#clip-path)">
        <path id="Trazado_899258" data-name="Trazado 899258" d="M51.218,25.66A25.558,25.558,0,1,1,25.66.1,25.555,25.555,0,0,1,51.218,25.66" transform="translate(0.338 0.337)" fill="#114b9c"/>
        <path id="Trazado_899259" data-name="Trazado 899259" d="M26,52A26,26,0,1,1,52,26,26.028,26.028,0,0,1,26,52M26,.884A25.114,25.114,0,1,0,51.116,26,25.142,25.142,0,0,0,26,.884" transform="translate(0 0)" fill="#253272"/>
        <g id="Grupo_1108236" data-name="Grupo 1108236" transform="translate(0.443 0.442)" opacity="0.62" style="mix-blend-mode: multiply;isolation: isolate">
          <g id="Grupo_1108235" data-name="Grupo 1108235">
            <g id="Grupo_1108234" data-name="Grupo 1108234" clip-path="url(#clip-path-3)">
              <path id="Trazado_899260" data-name="Trazado 899260" d="M25.66.1A25.556,25.556,0,1,0,51.218,25.657,25.557,25.557,0,0,0,25.66.1M20.707,35.248A14.859,14.859,0,1,1,35.566,20.389,14.857,14.857,0,0,1,20.707,35.248" transform="translate(-0.105 -0.102)" fill="#114b9c"/>
            </g>
          </g>
        </g>
        <g id="Grupo_1108239" data-name="Grupo 1108239" transform="translate(14.549 8.356)" style="mix-blend-mode: screen;isolation: isolate">
          <g id="Grupo_1108238" data-name="Grupo 1108238">
            <g id="Grupo_1108237" data-name="Grupo 1108237" clip-path="url(#clip-path-4)">
              <path id="Trazado_899261" data-name="Trazado 899261" d="M12.953,6.727A4.789,4.789,0,1,1,8.164,1.938a4.79,4.79,0,0,1,4.789,4.789" transform="translate(-3.376 -1.94)" fill="#a0dbe8"/>
            </g>
          </g>
        </g>
        <g id="Grupo_1108242" data-name="Grupo 1108242" transform="translate(10.975 18.889)" style="mix-blend-mode: screen;isolation: isolate">
          <g id="Grupo_1108241" data-name="Grupo 1108241">
            <g id="Grupo_1108240" data-name="Grupo 1108240" clip-path="url(#clip-path-5)">
              <path id="Trazado_899262" data-name="Trazado 899262" d="M7.783,7A2.619,2.619,0,1,1,5.167,4.382,2.618,2.618,0,0,1,7.783,7" transform="translate(-2.546 -4.382)" fill="#a0dbe8"/>
            </g>
          </g>
        </g>
      </g>
    </g>
  </g>
</svg>
