<svg xmlns="http://www.w3.org/2000/svg" width="610" height="179" viewBox="0 0 610 179">
  <g id="Grupo_1108951" data-name="Grupo 1108951" transform="translate(-7641 8857)">
    <rect id="IMG21_upscayl_4x_digital-art-4x" width="610" height="179" rx="20" transform="translate(7641 -8857)" fill="#fff"/>
    <path id="Trazado_899862" data-name="Trazado 899862" d="M-21.557-70.294H27.2v8.613H-12.035v21.342h34.5v8.374h-34.5V0h-9.522Z" transform="translate(7723 -8737)" fill="#12263f"/>
    <path id="Trazado_899863" data-name="Trazado 899863" d="M-21.557-70.294H27.2v8.613H-12.035v21.342h34.5v8.374h-34.5V0h-9.522Z" transform="translate(8090 -8737)" fill="#12263f"/>
    <path id="Trazado_899864" data-name="Trazado 899864" d="M-21.557-70.294H27.2v8.613H-12.035v21.342h34.5v8.374h-34.5V0h-9.522Z" transform="translate(7903 -8737)" fill="#12263f"/>
    <path id="Trazado_899865" data-name="Trazado 899865" d="M-21.557-70.294H27.2v8.613H-12.035v21.342h34.5v8.374h-34.5V0h-9.522Z" transform="translate(8169 -8737)" fill="#12263f"/>
    <path id="Trazado_899866" data-name="Trazado 899866" d="M-24.213-20.959V-29H-3.35V-50H4.833V-29H25.7v8.039H4.833V0H-3.35V-20.959Z" transform="translate(7813 -8737)" fill="#12263f"/>
    <path id="Trazado_899867" data-name="Trazado 899867" d="M5.5,0A5.5,5.5,0,1,1,0,5.5,5.5,5.5,0,0,1,5.5,0Z" transform="translate(7710 -8822)" fill="#c00"/>
    <path id="Trazado_899868" data-name="Trazado 899868" d="M5.5,0A5.5,5.5,0,1,1,0,5.5,5.5,5.5,0,0,1,5.5,0Z" transform="translate(7678 -8783)" fill="#c00"/>
    <path id="Trazado_899869" data-name="Trazado 899869" d="M5.5,0A5.5,5.5,0,1,1,0,5.5,5.5,5.5,0,0,1,5.5,0Z" transform="translate(7757 -8772)" fill="#c00"/>
    <path id="Trazado_899870" data-name="Trazado 899870" d="M5.5,0A5.5,5.5,0,1,1,0,5.5,5.5,5.5,0,0,1,5.5,0Z" transform="translate(7710 -8724)" fill="#c00"/>
    <path id="Trazado_899871" data-name="Trazado 899871" d="M5.5,0A5.5,5.5,0,1,1,0,5.5,5.5,5.5,0,0,1,5.5,0Z" transform="translate(7730 -8822)" fill="#c00"/>
    <path id="Trazado_899872" data-name="Trazado 899872" d="M5.5,0A5.5,5.5,0,1,1,0,5.5,5.5,5.5,0,0,1,5.5,0Z" transform="translate(7678 -8763)" fill="#c00"/>
    <path id="Trazado_899873" data-name="Trazado 899873" d="M5.5,0A5.5,5.5,0,1,1,0,5.5,5.5,5.5,0,0,1,5.5,0Z" transform="translate(7730 -8724)" fill="#c00"/>
    <path id="Trazado_899874" data-name="Trazado 899874" d="M5.5,0A5.5,5.5,0,1,1,0,5.5,5.5,5.5,0,0,1,5.5,0Z" transform="translate(8077 -8822)" fill="#c00"/>
    <path id="Trazado_899875" data-name="Trazado 899875" d="M5.5,0A5.5,5.5,0,1,1,0,5.5,5.5,5.5,0,0,1,5.5,0Z" transform="translate(8045 -8783)" fill="#c00"/>
    <path id="Trazado_899876" data-name="Trazado 899876" d="M5.5,0A5.5,5.5,0,1,1,0,5.5,5.5,5.5,0,0,1,5.5,0Z" transform="translate(8124 -8783)" fill="#c00"/>
    <path id="Trazado_899877" data-name="Trazado 899877" d="M5.5,0A5.5,5.5,0,1,1,0,5.5,5.5,5.5,0,0,1,5.5,0Z" transform="translate(8077 -8724)" fill="#c00"/>
    <path id="Trazado_899878" data-name="Trazado 899878" d="M5.5,0A5.5,5.5,0,1,1,0,5.5,5.5,5.5,0,0,1,5.5,0Z" transform="translate(8097 -8822)" fill="#c00"/>
    <path id="Trazado_899879" data-name="Trazado 899879" d="M5.5,0A5.5,5.5,0,1,1,0,5.5,5.5,5.5,0,0,1,5.5,0Z" transform="translate(8045 -8763)" fill="#c00"/>
    <path id="Trazado_899880" data-name="Trazado 899880" d="M5.5,0A5.5,5.5,0,1,1,0,5.5,5.5,5.5,0,0,1,5.5,0Z" transform="translate(8097 -8724)" fill="#c00"/>
    <path id="Trazado_899881" data-name="Trazado 899881" d="M5.5,0A5.5,5.5,0,1,1,0,5.5,5.5,5.5,0,0,1,5.5,0Z" transform="translate(7890 -8822)" fill="#0800ff"/>
    <path id="Trazado_899882" data-name="Trazado 899882" d="M5.5,0A5.5,5.5,0,1,1,0,5.5,5.5,5.5,0,0,1,5.5,0Z" transform="translate(7937 -8783)" fill="#0800ff"/>
    <path id="Trazado_899883" data-name="Trazado 899883" d="M5.5,0A5.5,5.5,0,1,1,0,5.5,5.5,5.5,0,0,1,5.5,0Z" transform="translate(7937 -8763)" fill="#0800ff"/>
    <path id="Trazado_899884" data-name="Trazado 899884" d="M5.5,0A5.5,5.5,0,1,1,0,5.5,5.5,5.5,0,0,1,5.5,0Z" transform="translate(7890 -8724)" fill="#0800ff"/>
    <path id="Trazado_899885" data-name="Trazado 899885" d="M5.5,0A5.5,5.5,0,1,1,0,5.5,5.5,5.5,0,0,1,5.5,0Z" transform="translate(7910 -8822)" fill="#0800ff"/>
    <path id="Trazado_899886" data-name="Trazado 899886" d="M5.5,0A5.5,5.5,0,1,1,0,5.5,5.5,5.5,0,0,1,5.5,0Z" transform="translate(7858 -8772)" fill="#0800ff"/>
    <path id="Trazado_899887" data-name="Trazado 899887" d="M5.5,0A5.5,5.5,0,1,1,0,5.5,5.5,5.5,0,0,1,5.5,0Z" transform="translate(7910 -8724)" fill="#0800ff"/>
    <path id="Trazado_899888" data-name="Trazado 899888" d="M5.5,0A5.5,5.5,0,1,1,0,5.5,5.5,5.5,0,0,1,5.5,0Z" transform="translate(8156 -8822)" fill="#0800ff"/>
    <path id="Trazado_899889" data-name="Trazado 899889" d="M5.5,0A5.5,5.5,0,1,1,0,5.5,5.5,5.5,0,0,1,5.5,0Z" transform="translate(8203 -8783)" fill="#0800ff"/>
    <path id="Trazado_899890" data-name="Trazado 899890" d="M5.5,0A5.5,5.5,0,1,1,0,5.5,5.5,5.5,0,0,1,5.5,0Z" transform="translate(8203 -8763)" fill="#0800ff"/>
    <path id="Trazado_899891" data-name="Trazado 899891" d="M5.5,0A5.5,5.5,0,1,1,0,5.5,5.5,5.5,0,0,1,5.5,0Z" transform="translate(8156 -8724)" fill="#0800ff"/>
    <path id="Trazado_899892" data-name="Trazado 899892" d="M5.5,0A5.5,5.5,0,1,1,0,5.5,5.5,5.5,0,0,1,5.5,0Z" transform="translate(8176 -8822)" fill="#0800ff"/>
    <path id="Trazado_899893" data-name="Trazado 899893" d="M5.5,0A5.5,5.5,0,1,1,0,5.5,5.5,5.5,0,0,1,5.5,0Z" transform="translate(8124 -8763)" fill="#0800ff"/>
    <path id="Trazado_899894" data-name="Trazado 899894" d="M5.5,0A5.5,5.5,0,1,1,0,5.5,5.5,5.5,0,0,1,5.5,0Z" transform="translate(8176 -8724)" fill="#0800ff"/>
    <path id="Trazado_899496" data-name="Trazado 899496" d="M5.879,0l5.879,10.537L5.879,7.483,0,10.537Z" transform="translate(8032.255 -8773.38) rotate(90)" fill="#12263f"/>
    <path id="Línea_643" data-name="Línea 643" d="M-.462,65.487c-.574,0-1.038-.671-1.038-1.5V0c0-.828.465-1.5,1.038-1.5S.577-.829.577,0V63.987C.577,64.815.112,65.487-.462,65.487Z" transform="translate(8025.487 -8766.692) rotate(90)" fill="#12263f"/>
  </g>
</svg>
