<svg xmlns="http://www.w3.org/2000/svg" xmlns:xlink="http://www.w3.org/1999/xlink" width="84" height="84" viewBox="0 0 84 84">
  <defs>
    <clipPath id="clip-path">
      <rect id="Rectángulo_405892" data-name="Rectángulo 405892" width="53" height="53" transform="translate(217.051 2415)" fill="#fff" stroke="#707070" stroke-width="1"/>
    </clipPath>
  </defs>
  <g id="Grupo_1108411" data-name="Grupo 1108411" transform="translate(-201.051 -2399)">
    <g id="Elipse_11647" data-name="Elipse 11647" transform="translate(201.051 2399)" fill="#fff" stroke="#707070" stroke-width="1">
      <circle cx="42" cy="42" r="42" stroke="none"/>
      <circle cx="42" cy="42" r="41.5" fill="none"/>
    </g>
    <g id="Enmascarar_grupo_1098736" data-name="Enmascarar grupo 1098736" clip-path="url(#clip-path)">
      <g id="web-browser" transform="translate(215.425 2413.375)">
        <g id="Grupo_1108396" data-name="Grupo 1108396">
          <g id="Grupo_1108381" data-name="Grupo 1108381">
            <g id="Grupo_1108373" data-name="Grupo 1108373">
              <path id="Trazado_899332" data-name="Trazado 899332" d="M52.278,9.162V42.418A3.08,3.08,0,0,1,49.2,45.5H7.055a3.08,3.08,0,0,1-3.082-3.082V9.162Z" fill="#e9e9ff"/>
            </g>
            <g id="Grupo_1108374" data-name="Grupo 1108374">
              <path id="Trazado_899333" data-name="Trazado 899333" d="M52.278,9.159V4.719A3.08,3.08,0,0,0,49.2,1.637L7.055,1.629A3.085,3.085,0,0,0,3.973,4.71V9.159Z" fill="#ed524e"/>
            </g>
            <g id="Grupo_1108380" data-name="Grupo 1108380">
              <g id="Grupo_1108378" data-name="Grupo 1108378">
                <g id="Grupo_1108375" data-name="Grupo 1108375">
                  <path id="Trazado_899334" data-name="Trazado 899334" d="M14.946,5.394a1.337,1.337,0,1,1-1.337-1.337,1.331,1.331,0,0,1,1.337,1.337Z" fill="#e9e9ff"/>
                </g>
                <g id="Grupo_1108376" data-name="Grupo 1108376">
                  <path id="Trazado_899335" data-name="Trazado 899335" d="M10.23,5.394A1.341,1.341,0,1,1,8.894,4.057,1.337,1.337,0,0,1,10.23,5.394Z" fill="#e9e9ff"/>
                </g>
                <g id="Grupo_1108377" data-name="Grupo 1108377">
                  <path id="Trazado_899336" data-name="Trazado 899336" d="M19.67,5.394a1.341,1.341,0,1,1-1.346-1.337A1.339,1.339,0,0,1,19.67,5.394Z" fill="#e9e9ff"/>
                </g>
              </g>
              <g id="Grupo_1108379" data-name="Grupo 1108379">
                <path id="Trazado_899337" data-name="Trazado 899337" d="M31.022,4.431a.963.963,0,0,0,0,1.927H47.733a.963.963,0,1,0,0-1.927Z" fill="#e9e9ff"/>
              </g>
            </g>
          </g>
          <g id="Grupo_1108395" data-name="Grupo 1108395">
            <g id="Grupo_1108394" data-name="Grupo 1108394">
              <g id="Grupo_1108382" data-name="Grupo 1108382">
                <path id="Trazado_899338" data-name="Trazado 899338" d="M48.667,13.613v6.748a.878.878,0,0,1-.885.885H8.469a.878.878,0,0,1-.885-.885V13.613a.878.878,0,0,1,.885-.885H47.782A.878.878,0,0,1,48.667,13.613Z" fill="#fff"/>
              </g>
              <g id="Grupo_1108387" data-name="Grupo 1108387">
                <g id="Grupo_1108383" data-name="Grupo 1108383">
                  <path id="Trazado_899339" data-name="Trazado 899339" d="M18.636,19.647a.484.484,0,0,1-.175-.238l-1.128-3.3a.429.429,0,0,1-.024-.135.353.353,0,0,1,.357-.357.365.365,0,0,1,.2.059.3.3,0,0,1,.123.155l.929,3.058.921-2.986a.407.407,0,0,1,.778,0l.921,2.986.929-3.058a.292.292,0,0,1,.123-.155.365.365,0,0,1,.2-.059.352.352,0,0,1,.357.357.429.429,0,0,1-.024.135L22,19.409a.486.486,0,0,1-.175.238.477.477,0,0,1-.572,0,.531.531,0,0,1-.183-.246l-.842-2.629L19.391,19.4a.531.531,0,0,1-.183.246.477.477,0,0,1-.572,0Z" fill="#4f5d99"/>
                </g>
                <g id="Grupo_1108384" data-name="Grupo 1108384">
                  <path id="Trazado_899340" data-name="Trazado 899340" d="M24.927,19.647a.484.484,0,0,1-.175-.238l-1.128-3.3a.429.429,0,0,1-.024-.135.353.353,0,0,1,.357-.357.365.365,0,0,1,.2.059.294.294,0,0,1,.123.155l.929,3.058.921-2.986a.408.408,0,0,1,.778,0l.921,2.986.929-3.058a.292.292,0,0,1,.123-.155.365.365,0,0,1,.2-.059.352.352,0,0,1,.357.357.429.429,0,0,1-.024.135l-1.128,3.3a.487.487,0,0,1-.175.238.477.477,0,0,1-.572,0,.531.531,0,0,1-.183-.246l-.842-2.629L25.681,19.4a.531.531,0,0,1-.183.246.477.477,0,0,1-.572,0Z" fill="#4f5d99"/>
                </g>
                <g id="Grupo_1108385" data-name="Grupo 1108385">
                  <path id="Trazado_899341" data-name="Trazado 899341" d="M31.217,19.647a.484.484,0,0,1-.175-.238l-1.128-3.3a.429.429,0,0,1-.024-.135.353.353,0,0,1,.357-.357.365.365,0,0,1,.2.059.3.3,0,0,1,.123.155l.929,3.058.921-2.986a.408.408,0,0,1,.778,0l.921,2.986.929-3.058a.292.292,0,0,1,.123-.155.365.365,0,0,1,.2-.059.352.352,0,0,1,.357.357.429.429,0,0,1-.024.135l-1.128,3.3a.487.487,0,0,1-.175.238.477.477,0,0,1-.572,0,.531.531,0,0,1-.183-.246l-.842-2.629L31.972,19.4a.531.531,0,0,1-.183.246.477.477,0,0,1-.572,0Z" fill="#4f5d99"/>
                </g>
                <g id="Grupo_1108386" data-name="Grupo 1108386">
                  <path id="Trazado_899342" data-name="Trazado 899342" d="M36.32,19.6a.428.428,0,0,1-.131-.314v-.048a.447.447,0,0,1,.445-.445h.08a.447.447,0,0,1,.445.445v.048a.447.447,0,0,1-.445.445h-.08A.428.428,0,0,1,36.32,19.6Z" fill="#4f5d99"/>
                </g>
              </g>
              <g id="Grupo_1108388" data-name="Grupo 1108388">
                <path id="Trazado_899343" data-name="Trazado 899343" d="M15.958,12.728H8.469a.878.878,0,0,0-.885.885v6.748a.878.878,0,0,0,.885.885h7.489Z" fill="#ed524e"/>
              </g>
              <g id="Grupo_1108393" data-name="Grupo 1108393">
                <g id="Grupo_1108390" data-name="Grupo 1108390">
                  <g id="Grupo_1108389" data-name="Grupo 1108389">
                    <path id="Trazado_899344" data-name="Trazado 899344" d="M10.453,18.3a2.261,2.261,0,1,1,3.2,0,2.259,2.259,0,0,1-3.2,0Zm2.487-2.487a1.256,1.256,0,1,0,0,1.776,1.253,1.253,0,0,0,0-1.776Z" fill="#e9e9ff"/>
                  </g>
                </g>
                <g id="Grupo_1108392" data-name="Grupo 1108392">
                  <g id="Grupo_1108391" data-name="Grupo 1108391">
                    <path id="Trazado_899345" data-name="Trazado 899345" d="M9.3,19.451a.5.5,0,0,1,0-.711l1.147-1.147a.5.5,0,0,1,.711.711l-1.147,1.147A.5.5,0,0,1,9.3,19.451Z" fill="#e9e9ff"/>
                  </g>
                </g>
              </g>
            </g>
          </g>
        </g>
        <g id="Grupo_1108407" data-name="Grupo 1108407">
          <g id="Grupo_1108406" data-name="Grupo 1108406">
            <g id="Grupo_1108404" data-name="Grupo 1108404">
              <g id="Grupo_1108400" data-name="Grupo 1108400">
                <g id="Grupo_1108397" data-name="Grupo 1108397">
                  <path id="Trazado_899346" data-name="Trazado 899346" d="M30.715,54.4h.013c-.128.027-.256.047-.377.067C30.473,54.442,30.594,54.415,30.715,54.4Z" fill="#5382ff"/>
                </g>
                <g id="Grupo_1108398" data-name="Grupo 1108398">
                  <path id="Trazado_899347" data-name="Trazado 899347" d="M36.076,37.882a6.7,6.7,0,0,0-2.751.531A9.5,9.5,0,0,0,32.067,39.6a6.865,6.865,0,0,1-2.354,1.238c-1.076.383-2.179.713-3.3.989a7.39,7.39,0,0,0-2.859,1.117c-.726.585-1.2,1.473-1.957,2.011-.888.626-2.2.841-2.529,1.863a1.461,1.461,0,0,0-.047.72c.161.922,1.09,1.789,1.325,2.778a4.212,4.212,0,0,1-.215,2.071,14.968,14.968,0,0,1-3.343-2.758c-.309-.336-.612-.693-.888-1.056a15.325,15.325,0,0,1-1.1-16.923A15.37,15.37,0,0,1,18.688,27.2a6.441,6.441,0,0,0,1.742.646A1.924,1.924,0,0,1,21.809,29c.188.753-.377,1.608.007,2.273.343.6,1.191.6,1.877.518,1.52-.175,3.047-.343,4.581-.518a3.9,3.9,0,0,1,3.087.518c.592.518.827,1.359,1.426,1.877a3.358,3.358,0,0,0,2.011.666,7.2,7.2,0,0,1,2.125.329,1.747,1.747,0,0,1,1.2,1.628c-.067.928-1.123,1.466-2.052,1.587Z" fill="#fdc72e"/>
                </g>
                <g id="Grupo_1108399" data-name="Grupo 1108399">
                  <path id="Trazado_899348" data-name="Trazado 899348" d="M43.414,39.913a15.284,15.284,0,0,1-6.276,11.757,7.642,7.642,0,0,1-.841-.444,4.9,4.9,0,0,1-1.056-.807c-.888-.921-2.159-2.838-1.09-3.558,1.184-.767,2.886-.928,2.8-2.347-.04-.666-.377-1.312-.383-1.991s.579-1.446,1.218-1.231c.283.094.471.35.733.491a1.575,1.575,0,0,0,1.688-.39,12.339,12.339,0,0,1,1.352-1.238A2.424,2.424,0,0,1,43.414,39.913Z" fill="#fdc72e"/>
                </g>
              </g>
              <g id="Grupo_1108401" data-name="Grupo 1108401">
                <path id="Trazado_899349" data-name="Trazado 899349" d="M43.435,39.288c0,.209-.007.417-.013.626a2.441,2.441,0,0,0-1.856.242,12.339,12.339,0,0,0-1.352,1.238,1.575,1.575,0,0,1-1.688.39c-.262-.141-.451-.4-.733-.491-.639-.215-1.224.558-1.218,1.231s.343,1.325.383,1.991c.081,1.419-1.621,1.58-2.8,2.347-1.07.72.2,2.637,1.09,3.558a4.9,4.9,0,0,0,1.056.807,7.642,7.642,0,0,0,.841.444c-.161.115-.323.229-.484.336s-.33.222-.5.323-.336.208-.5.3-.35.2-.525.282-.357.182-.531.262a12.655,12.655,0,0,1-1.17.491c-.134.054-.276.1-.417.148a13.469,13.469,0,0,1-1.52.43q-.363.081-.726.141c-.02.007-.034.013-.047.007-.249.047-.491.087-.74.114-.357.047-.713.074-1.076.087-.262.02-.525.027-.794.027a15.021,15.021,0,0,1-5.852-1.177,14.819,14.819,0,0,1-2.119-1.063,4.212,4.212,0,0,0,.215-2.071c-.235-.989-1.164-1.857-1.325-2.778a1.461,1.461,0,0,1,.047-.72c.329-1.022,1.641-1.238,2.529-1.863.76-.538,1.231-1.426,1.957-2.011a7.39,7.39,0,0,1,2.859-1.117c1.117-.276,2.22-.606,3.3-.989A6.865,6.865,0,0,0,32.067,39.6a9.495,9.495,0,0,1,1.258-1.184,6.7,6.7,0,0,1,2.751-.531c.928-.121,1.984-.659,2.052-1.587a1.747,1.747,0,0,0-1.2-1.628,7.2,7.2,0,0,0-2.125-.329,3.358,3.358,0,0,1-2.011-.666c-.6-.518-.834-1.359-1.426-1.877a3.9,3.9,0,0,0-3.087-.518c-1.534.175-3.061.343-4.581.518-.686.081-1.534.081-1.877-.518-.383-.666.182-1.52-.007-2.273a1.924,1.924,0,0,0-1.379-1.157,6.441,6.441,0,0,1-1.742-.646,13.775,13.775,0,0,1,1.278-.908,15.3,15.3,0,0,1,8.139-2.341c.39,0,.807.013,1.211.054a15.309,15.309,0,0,1,12.4,8.226,15.117,15.117,0,0,1,1.722,7.056Z" fill="#70c1f9"/>
              </g>
              <g id="Grupo_1108402" data-name="Grupo 1108402">
                <path id="Trazado_899350" data-name="Trazado 899350" d="M43.435,39.288c0,.209-.007.417-.013.626h-.007Q43.435,39.6,43.435,39.288Z" fill="#ffe386"/>
              </g>
              <g id="Grupo_1108403" data-name="Grupo 1108403">
                <path id="Trazado_899351" data-name="Trazado 899351" d="M20.41,38.3a8.691,8.691,0,0,1-1.426,1.076,5.129,5.129,0,0,0-1.89,5.038c.074.336.182.666.276,1a6.487,6.487,0,0,1,.175.713,2.223,2.223,0,0,1-.276,1.709,1.989,1.989,0,0,1-1.365.733,15.325,15.325,0,0,1-1.1-16.923,4.811,4.811,0,0,1,.626,1.594,5.41,5.41,0,0,1,.061,2.139c-.134.639-.383,1.392.034,1.9a1.242,1.242,0,0,0,1.352.289,4.45,4.45,0,0,0,1.265-.767,3.072,3.072,0,0,1,1.271-.619,1.27,1.27,0,0,1,1.271.471A1.417,1.417,0,0,1,20.41,38.3Z" fill="#70c1f9"/>
              </g>
            </g>
            <g id="Grupo_1108405" data-name="Grupo 1108405">
              <path id="Trazado_899352" data-name="Trazado 899352" d="M43.435,39.289c0,.207-.008.414-.017.628a2.414,2.414,0,0,0-1.853.24,11.86,11.86,0,0,0-1.348,1.233,1.59,1.59,0,0,1-1.7.4,2.691,2.691,0,0,1-.248-.174,1.533,1.533,0,0,0-.48-.323c-.637-.215-1.224.563-1.216,1.233s.339,1.323.38,1.993c.083,1.415-1.621,1.58-2.8,2.341-1.067.72.2,2.639,1.092,3.565a4.792,4.792,0,0,0,1.051.8,6.755,6.755,0,0,0,.844.447c-.165.116-.323.232-.488.331-.157.116-.323.223-.5.331s-.331.207-.5.3-.347.2-.521.281c-.174.1-.356.182-.53.265-.389.182-.778.347-1.175.488a3.508,3.508,0,0,1-.414.149,14.431,14.431,0,0,1-1.522.43c-.24.058-.488.1-.728.141-.017.008-.033.017-.05.008-.248.05-.488.091-.736.116-.356.05-.711.075-1.075.091q-.4.025-.794.025c-.1,0-.207,0-.306-.008a15.552,15.552,0,0,1-7.668-2.233,4.128,4.128,0,0,0,.215-2.068c-.232-.993-1.158-1.861-1.323-2.78a1.424,1.424,0,0,1,.049-.719c.331-1.026,1.638-1.241,2.531-1.861.753-.546,1.224-1.431,1.952-2.018a2.792,2.792,0,0,1,.256-.182,8.6,8.6,0,0,1,2.606-.935,34.307,34.307,0,0,0,3.292-.984,6.861,6.861,0,0,0,2.358-1.241,9.96,9.96,0,0,1,1.257-1.183,6.751,6.751,0,0,1,2.746-.53,2.947,2.947,0,0,0,.869-.24,1.7,1.7,0,0,0,1.183-1.348,1.743,1.743,0,0,0-1.2-1.629,4.158,4.158,0,0,0-1.067-.24c-.347-.042-.7-.058-1.059-.091a3.309,3.309,0,0,1-2.01-.662c-.6-.521-.835-1.357-1.431-1.878a3.92,3.92,0,0,0-3.086-.521c-1.53.182-3.061.347-4.583.521-.678.083-1.53.083-1.87-.521-.389-.662.182-1.514-.008-2.267a1.936,1.936,0,0,0-1.381-1.158,6.711,6.711,0,0,1-1.746-.645,13.415,13.415,0,0,1,1.282-.91,15.291,15.291,0,0,1,8.14-2.341c.389,0,.8.017,1.208.05a14.612,14.612,0,0,1,3.243.612,15.351,15.351,0,0,1,9.157,7.619,15.133,15.133,0,0,1,1.72,7.056Z" fill="#70c1f9"/>
            </g>
          </g>
        </g>
        <g id="Grupo_1108410" data-name="Grupo 1108410" opacity="0.2">
          <g id="Grupo_1108408" data-name="Grupo 1108408">
            <path id="Trazado_899353" data-name="Trazado 899353" d="M38.273,41.613a1.533,1.533,0,0,0-.48-.323c-.637-.215-1.224.563-1.216,1.233s.339,1.323.38,1.993c.083,1.415-1.621,1.58-2.8,2.341-1.067.72.2,2.639,1.092,3.565a4.793,4.793,0,0,0,1.051.8,6.755,6.755,0,0,0,.844.447c-.165.116-.323.232-.488.331-.157.116-.323.223-.5.331s-.331.207-.5.3-.347.2-.521.281c-.174.1-.356.182-.53.265-.389.182-.778.347-1.175.488a3.508,3.508,0,0,1-.414.149,14.431,14.431,0,0,1-1.522.43c-.24.058-.488.1-.728.141-.017.008-.033.017-.05.008-.248.05-.488.091-.736.116-.356.05-.711.075-1.075.091q-.4.025-.794.025c-.1,0-.207,0-.306-.008L23.813,42.755,9.982,1.625h14.84l7.735,22.988,3.3,9.811,1.084,3.218Z" fill="#fff"/>
          </g>
          <g id="Grupo_1108409" data-name="Grupo 1108409">
            <path id="Trazado_899354" data-name="Trazado 899354" d="M32.865,1.629H28.644L43.4,45.5h4.211Z" fill="#fff"/>
          </g>
        </g>
      </g>
    </g>
  </g>
</svg>
