<svg xmlns="http://www.w3.org/2000/svg" width="610" height="252.837" viewBox="0 0 610 252.837">
  <g id="Grupo_1108952" data-name="Grupo 1108952" transform="translate(-810.051 -3086)">
    <g id="Trazado_899895" data-name="Trazado 899895" transform="translate(810.051 3086)" fill="#ffe6f2">
      <path d="M 609.5 252.3369140625 L 0.5 252.3369140625 L 0.5 0.4999954998493195 L 609.5 0.4999954998493195 L 609.5 252.3369140625 Z" stroke="none"/>
      <path d="M 1 1 L 1 251.8369140625 L 609 251.8369140625 L 609 1 L 1 1 M 0 0 L 610 0 L 610 252.8369140625 L 0 252.8369140625 L 0 0 Z" stroke="none" fill="#e8e8e8"/>
    </g>
    <path id="Trazado_899896" data-name="Trazado 899896" d="M20,0H552a20,20,0,0,1,20,20V202.837a20,20,0,0,1-20,20H20a20,20,0,0,1-20-20V20A20,20,0,0,1,20,0Z" transform="translate(829.051 3101)" fill="#fff"/>
    <g id="Trazado_899897" data-name="Trazado 899897" transform="translate(865.051 3119)" fill="#e6f9e6">
      <path d="M 47 93 C 40.78960037231445 93 34.76549911499023 91.78391265869141 29.09502410888672 89.385498046875 C 23.61750030517578 87.06870269775391 18.69796180725098 83.75180053710938 14.47308731079102 79.52690887451172 C 10.24820041656494 75.30204010009766 6.931300163269043 70.38249969482422 4.614500045776367 64.90497589111328 C 2.216087579727173 59.23450088500977 1 53.21039962768555 1 47 C 1 40.78960037231445 2.216087579727173 34.76549911499023 4.614500045776367 29.09502410888672 C 6.931300163269043 23.61750030517578 10.24820041656494 18.69796180725098 14.47308731079102 14.47308731079102 C 18.69796180725098 10.24820041656494 23.61750030517578 6.931300163269043 29.09502410888672 4.614500045776367 C 34.76549911499023 2.216087579727173 40.78960037231445 1 47 1 C 53.21039962768555 1 59.23450088500977 2.216087579727173 64.90497589111328 4.614500045776367 C 70.38249969482422 6.931300163269043 75.30204010009766 10.24820041656494 79.52690887451172 14.47308731079102 C 83.75180053710938 18.69796180725098 87.06870269775391 23.61750030517578 89.385498046875 29.09502410888672 C 91.78391265869141 34.76549911499023 93 40.78960037231445 93 47 C 93 53.21039962768555 91.78391265869141 59.23450088500977 89.385498046875 64.90497589111328 C 87.06870269775391 70.38249969482422 83.75180053710938 75.30204010009766 79.52690887451172 79.52690887451172 C 75.30204010009766 83.75180053710938 70.38249969482422 87.06870269775391 64.90497589111328 89.385498046875 C 59.23450088500977 91.78391265869141 53.21039962768555 93 47 93 Z" stroke="none"/>
      <path d="M 47 2 C 40.92416000366211 2 35.03112030029297 3.189521789550781 29.48458862304688 5.535507202148438 C 24.12625122070312 7.8018798828125 19.31356048583984 11.04682922363281 15.18019866943359 15.18019866943359 C 11.04682922363281 19.31356048583984 7.8018798828125 24.12625122070312 5.535507202148438 29.48458862304688 C 3.189521789550781 35.03112030029297 2 40.92416000366211 2 47 C 2 53.07583999633789 3.189521789550781 58.96887969970703 5.535507202148438 64.51541137695312 C 7.8018798828125 69.87374877929688 11.04682922363281 74.68643951416016 15.18019866943359 78.81980133056641 C 19.31356048583984 82.95317077636719 24.12625122070312 86.1981201171875 29.48458862304688 88.46449279785156 C 35.03112030029297 90.81047821044922 40.92416000366211 92 47 92 C 53.07583999633789 92 58.96887969970703 90.81047821044922 64.51541137695312 88.46449279785156 C 69.87374877929688 86.1981201171875 74.68643951416016 82.95317077636719 78.81980133056641 78.81980133056641 C 82.95317077636719 74.68643951416016 86.1981201171875 69.87374877929688 88.46449279785156 64.51541137695312 C 90.81047821044922 58.96887969970703 92 53.07583999633789 92 47 C 92 40.92416000366211 90.81047821044922 35.03112030029297 88.46449279785156 29.48458862304688 C 86.1981201171875 24.12625122070312 82.95317077636719 19.31356048583984 78.81980133056641 15.18019866943359 C 74.68643951416016 11.04682922363281 69.87374877929688 7.8018798828125 64.51541137695312 5.535507202148438 C 58.96887969970703 3.189521789550781 53.07583999633789 2 47 2 M 47 0 C 72.95738220214844 0 94 21.04261016845703 94 47 C 94 72.95738220214844 72.95738220214844 94 47 94 C 21.04261016845703 94 0 72.95738220214844 0 47 C 0 21.04261016845703 21.04261016845703 0 47 0 Z" stroke="none" fill="#0ac675"/>
    </g>
    <path id="Trazado_899898" data-name="Trazado 899898" d="M-12.375-2.052a.827.827,0,0,0-.322-.7,4.227,4.227,0,0,0-1.16-.516A8.224,8.224,0,0,1-15.184-3.8a2.168,2.168,0,0,1-1.332-1.939,1.888,1.888,0,0,1,.357-1.131,2.33,2.33,0,0,1,1.026-.776,3.861,3.861,0,0,1,1.5-.279,3.515,3.515,0,0,1,1.493.3,2.378,2.378,0,0,1,1.018.857,2.242,2.242,0,0,1,.363,1.257H-12.37a1.055,1.055,0,0,0-.338-.835,1.391,1.391,0,0,0-.951-.3,1.486,1.486,0,0,0-.918.25.788.788,0,0,0-.328.658.754.754,0,0,0,.384.639,4.339,4.339,0,0,0,1.131.483,4.885,4.885,0,0,1,2,1.026,2.043,2.043,0,0,1,.628,1.525A1.882,1.882,0,0,1-11.526-.47a3.362,3.362,0,0,1-2.068.577,3.993,3.993,0,0,1-1.644-.33,2.6,2.6,0,0,1-1.131-.905,2.318,2.318,0,0,1-.389-1.332h1.617q0,1.294,1.547,1.294a1.5,1.5,0,0,0,.9-.234A.76.76,0,0,0-12.375-2.052ZM-8.132,0H-9.689V-5.812h1.558ZM-9.781-7.315a.764.764,0,0,1,.234-.575.878.878,0,0,1,.636-.226.88.88,0,0,1,.634.226.76.76,0,0,1,.236.575.762.762,0,0,1-.239.58.882.882,0,0,1-.631.226.882.882,0,0,1-.631-.226A.762.762,0,0,1-9.781-7.315Zm4.383,1.5.048.65a2.042,2.042,0,0,1,1.67-.757,1.55,1.55,0,0,1,1.542.886A2,2,0,0,1-.392-5.919a1.733,1.733,0,0,1,1.407.551,2.531,2.531,0,0,1,.462,1.657V0H-.081V-3.706a1.107,1.107,0,0,0-.193-.722.857.857,0,0,0-.682-.228.969.969,0,0,0-.967.666L-1.917,0H-3.47V-3.7a1.093,1.093,0,0,0-.2-.73.865.865,0,0,0-.677-.226,1.006,1.006,0,0,0-.956.548V0H-6.854V-5.812ZM7.9-2.852A3.485,3.485,0,0,1,7.291-.7,1.955,1.955,0,0,1,5.645.107,1.811,1.811,0,0,1,4.222-.5V2.234H2.669V-5.812H4.109l.054.569a1.824,1.824,0,0,1,1.472-.677,1.968,1.968,0,0,1,1.67.795,3.58,3.58,0,0,1,.6,2.191ZM6.349-2.965a2.287,2.287,0,0,0-.287-1.251.936.936,0,0,0-.835-.44,1.016,1.016,0,0,0-1,.559v2.379a1.034,1.034,0,0,0,1.015.575Q6.349-1.144,6.349-2.965ZM10.5,0H8.943V-8.25H10.5Zm3.953.107a2.853,2.853,0,0,1-2.081-.784,2.787,2.787,0,0,1-.8-2.089v-.15a3.511,3.511,0,0,1,.338-1.566,2.483,2.483,0,0,1,.959-1.063,2.691,2.691,0,0,1,1.415-.373,2.412,2.412,0,0,1,1.877.752,3.056,3.056,0,0,1,.685,2.132V-2.4h-3.7a1.442,1.442,0,0,0,.454.913,1.372,1.372,0,0,0,.959.344,1.675,1.675,0,0,0,1.4-.65l.763.854a2.33,2.33,0,0,1-.945.771A3.1,3.1,0,0,1,14.454.107Zm-.177-4.77a.972.972,0,0,0-.749.312,1.609,1.609,0,0,0-.368.892h2.159v-.124a1.147,1.147,0,0,0-.279-.8A1,1,0,0,0,14.276-4.662Z" transform="translate(912.051 3169)" fill="#12263f"/>
    <g id="Trazado_899899" data-name="Trazado 899899" transform="translate(997.051 3119)" fill="#fff8d2">
      <path d="M 47 93 C 40.78960037231445 93 34.76549911499023 91.78391265869141 29.09502410888672 89.385498046875 C 23.61750030517578 87.06870269775391 18.69796180725098 83.75180053710938 14.47308731079102 79.52690887451172 C 10.24820041656494 75.30204010009766 6.931300163269043 70.38249969482422 4.614500045776367 64.90497589111328 C 2.216087579727173 59.23450088500977 1 53.21039962768555 1 47 C 1 40.78960037231445 2.216087579727173 34.76549911499023 4.614500045776367 29.09502410888672 C 6.931300163269043 23.61750030517578 10.24820041656494 18.69796180725098 14.47308731079102 14.47308731079102 C 18.69796180725098 10.24820041656494 23.61750030517578 6.931300163269043 29.09502410888672 4.614500045776367 C 34.76549911499023 2.216087579727173 40.78960037231445 1 47 1 C 53.21039962768555 1 59.23450088500977 2.216087579727173 64.90497589111328 4.614500045776367 C 70.38249969482422 6.931300163269043 75.30204010009766 10.24820041656494 79.52690887451172 14.47308731079102 C 83.75180053710938 18.69796180725098 87.06870269775391 23.61750030517578 89.385498046875 29.09502410888672 C 91.78391265869141 34.76549911499023 93 40.78960037231445 93 47 C 93 53.21039962768555 91.78391265869141 59.23450088500977 89.385498046875 64.90497589111328 C 87.06870269775391 70.38249969482422 83.75180053710938 75.30204010009766 79.52690887451172 79.52690887451172 C 75.30204010009766 83.75180053710938 70.38249969482422 87.06870269775391 64.90497589111328 89.385498046875 C 59.23450088500977 91.78391265869141 53.21039962768555 93 47 93 Z" stroke="none"/>
      <path d="M 47 2 C 40.92416000366211 2 35.03112030029297 3.189521789550781 29.48458862304688 5.535507202148438 C 24.12625122070312 7.8018798828125 19.31356048583984 11.04682922363281 15.18019866943359 15.18019866943359 C 11.04682922363281 19.31356048583984 7.8018798828125 24.12625122070312 5.535507202148438 29.48458862304688 C 3.189521789550781 35.03112030029297 2 40.92416000366211 2 47 C 2 53.07583999633789 3.189521789550781 58.96887969970703 5.535507202148438 64.51541137695312 C 7.8018798828125 69.87374877929688 11.04682922363281 74.68643951416016 15.18019866943359 78.81980133056641 C 19.31356048583984 82.95317077636719 24.12625122070312 86.1981201171875 29.48458862304688 88.46449279785156 C 35.03112030029297 90.81047821044922 40.92416000366211 92 47 92 C 53.07583999633789 92 58.96887969970703 90.81047821044922 64.51541137695312 88.46449279785156 C 69.87374877929688 86.1981201171875 74.68643951416016 82.95317077636719 78.81980133056641 78.81980133056641 C 82.95317077636719 74.68643951416016 86.1981201171875 69.87374877929688 88.46449279785156 64.51541137695312 C 90.81047821044922 58.96887969970703 92 53.07583999633789 92 47 C 92 40.92416000366211 90.81047821044922 35.03112030029297 88.46449279785156 29.48458862304688 C 86.1981201171875 24.12625122070312 82.95317077636719 19.31356048583984 78.81980133056641 15.18019866943359 C 74.68643951416016 11.04682922363281 69.87374877929688 7.8018798828125 64.51541137695312 5.535507202148438 C 58.96887969970703 3.189521789550781 53.07583999633789 2 47 2 M 47 0 C 72.95738220214844 0 94 21.04261016845703 94 47 C 94 72.95738220214844 72.95738220214844 94 47 94 C 21.04261016845703 94 0 72.95738220214844 0 47 C 0 21.04261016845703 21.04261016845703 0 47 0 Z" stroke="none" fill="#ffd500"/>
    </g>
    <path id="Trazado_899900" data-name="Trazado 899900" d="M-13.514,0V-7.82h2.406a3.654,3.654,0,0,1,1.845.465,3.24,3.24,0,0,1,1.27,1.321,4.075,4.075,0,0,1,.457,1.947v.36a4.087,4.087,0,0,1-.448,1.939A3.212,3.212,0,0,1-9.249-.473,3.682,3.682,0,0,1-11.091,0ZM-11.9-6.515v5.221h.779a1.75,1.75,0,0,0,1.445-.618,2.791,2.791,0,0,0,.51-1.767v-.414A2.836,2.836,0,0,0-9.663-5.9a1.744,1.744,0,0,0-1.445-.615Zm5.194,3.556A3.447,3.447,0,0,1-6.375-4.5a2.438,2.438,0,0,1,.959-1.047,2.8,2.8,0,0,1,1.453-.371,2.646,2.646,0,0,1,1.92.72,2.889,2.889,0,0,1,.83,1.955l.011.4A3.038,3.038,0,0,1-1.95-.7a2.6,2.6,0,0,1-2,.808A2.608,2.608,0,0,1-5.959-.7,3.091,3.091,0,0,1-6.708-2.89Zm1.552.113a2.166,2.166,0,0,0,.312,1.265,1.028,1.028,0,0,0,.892.438,1.031,1.031,0,0,0,.881-.432,2.371,2.371,0,0,0,.317-1.383,2.145,2.145,0,0,0-.317-1.257,1.031,1.031,0,0,0-.892-.446,1.014,1.014,0,0,0-.881.443A2.41,2.41,0,0,0-5.156-2.847ZM4.99-2.852a3.519,3.519,0,0,1-.6,2.178A1.975,1.975,0,0,1,2.729.107,1.814,1.814,0,0,1,1.219-.618L1.149,0h-1.4V-8.25H1.305v2.959a1.768,1.768,0,0,1,1.413-.628,1.991,1.991,0,0,1,1.668.781,3.524,3.524,0,0,1,.6,2.2ZM3.438-2.965a2.312,2.312,0,0,0-.279-1.286.944.944,0,0,0-.833-.406,1.024,1.024,0,0,0-1.021.607v2.293a1.038,1.038,0,0,0,1.031.612.958.958,0,0,0,.988-.741A3.824,3.824,0,0,0,3.438-2.965ZM7.584,0H6.026V-8.25H7.584Zm3.953.107A2.853,2.853,0,0,1,9.456-.677a2.787,2.787,0,0,1-.8-2.089v-.15a3.511,3.511,0,0,1,.338-1.566A2.483,2.483,0,0,1,9.95-5.546a2.691,2.691,0,0,1,1.415-.373,2.412,2.412,0,0,1,1.877.752,3.056,3.056,0,0,1,.685,2.132V-2.4h-3.7a1.442,1.442,0,0,0,.454.913,1.372,1.372,0,0,0,.959.344,1.675,1.675,0,0,0,1.4-.65L13.8-.94a2.33,2.33,0,0,1-.945.771A3.1,3.1,0,0,1,11.537.107Zm-.177-4.77a.972.972,0,0,0-.749.312,1.609,1.609,0,0,0-.368.892H12.4v-.124a1.147,1.147,0,0,0-.279-.8A1,1,0,0,0,11.36-4.662Z" transform="translate(1045.051 3169)" fill="#12263f"/>
    <g id="Trazado_899901" data-name="Trazado 899901" transform="translate(1137.051 3119)" fill="#e6fcff">
      <path d="M 47.5 93 C 41.22078704833984 93 35.13003921508789 91.78340911865234 29.39692497253418 89.38404083251953 C 23.85956192016602 87.06658935546875 18.886474609375 83.74890899658203 14.61578750610352 79.52318572998047 C 10.3458251953125 75.29817199707031 6.993625164031982 70.37871551513672 4.652299880981445 64.90145874023438 C 2.228812456130981 59.23201370239258 1 53.20908737182617 1 47 C 1 40.79091262817383 2.228812456130981 34.76798629760742 4.652299880981445 29.09853744506836 C 6.993625164031982 23.62128829956055 10.3458251953125 18.70182418823242 14.61578750610352 14.4768123626709 C 18.886474609375 10.2510871887207 23.85956192016602 6.933412551879883 29.39692497253418 4.615962505340576 C 35.13003921508789 2.216587543487549 41.22078704833984 1 47.5 1 C 53.77921295166016 1 59.86996078491211 2.216587543487549 65.60307312011719 4.615962505340576 C 71.14043426513672 6.933412551879883 76.113525390625 10.2510871887207 80.38421630859375 14.4768123626709 C 84.6541748046875 18.70182418823242 88.00637817382812 23.62128829956055 90.34770202636719 29.09853744506836 C 92.77118682861328 34.76798629760742 94 40.79091262817383 94 47 C 94 53.20908737182617 92.77118682861328 59.23201370239258 90.34770202636719 64.90145874023438 C 88.00637817382812 70.37871551513672 84.6541748046875 75.29817199707031 80.38421630859375 79.52318572998047 C 76.113525390625 83.74890899658203 71.14043426513672 87.06658935546875 65.60307312011719 89.38404083251953 C 59.86996078491211 91.78340911865234 53.77921295166016 93 47.5 93 Z" stroke="none"/>
      <path d="M 47.5 2 C 41.35404205322266 2 35.39318466186523 3.190498352050781 29.78298950195312 5.538429260253906 C 24.36454010009766 7.806114196777344 19.49819946289062 11.05258941650391 15.31914520263672 15.18766021728516 C 11.14154052734375 19.32127380371094 7.862068176269531 24.13381195068359 5.571815490722656 29.49160003662109 C 3.201728820800781 35.03611373901367 2 40.92678451538086 2 47 C 2 53.07321548461914 3.201728820800781 58.96388626098633 5.571815490722656 64.50839996337891 C 7.862068176269531 69.86618804931641 11.14154052734375 74.67872619628906 15.31914520263672 78.81233978271484 C 19.49819946289062 82.94741821289062 24.36454010009766 86.19388580322266 29.78298950195312 88.46157073974609 C 35.39318466186523 90.80950164794922 41.35404205322266 92 47.5 92 C 53.64595794677734 92 59.60681533813477 90.80950164794922 65.21701049804688 88.46157073974609 C 70.63545989990234 86.19388580322266 75.50180053710938 82.94741821289062 79.68085479736328 78.81233978271484 C 83.85845947265625 74.67872619628906 87.13793182373047 69.86618804931641 89.42818450927734 64.50839996337891 C 91.79827117919922 58.96388626098633 93 53.07321548461914 93 47 C 93 40.92678451538086 91.79827117919922 35.03611373901367 89.42818450927734 29.49160003662109 C 87.13793182373047 24.13381195068359 83.85845947265625 19.32127380371094 79.68085479736328 15.18766021728516 C 75.50180053710938 11.05258941650391 70.63545989990234 7.806114196777344 65.21701049804688 5.538429260253906 C 59.60681533813477 3.190498352050781 53.64595794677734 2 47.5 2 M 47.5 0 C 73.73351287841797 0 95 21.04261779785156 95 47 C 95 72.95738220214844 73.73351287841797 94 47.5 94 C 21.26648712158203 94 0 72.95738220214844 0 47 C 0 21.04261779785156 21.26648712158203 0 47.5 0 Z" stroke="none" fill="#00e0ff"/>
    </g>
    <path id="Trazado_899902" data-name="Trazado 899902" d="M-7.635-6.515h-2.4V0h-1.611V-6.515h-2.363V-7.82h6.37ZM-3.9-4.356A4.217,4.217,0,0,0-4.461-4.4a1.137,1.137,0,0,0-1.155.6V0H-7.168V-5.812H-5.7l.043.693a1.438,1.438,0,0,1,1.294-.8,1.626,1.626,0,0,1,.483.07ZM-1.517,0H-3.075V-5.812h1.558ZM-3.166-7.315a.764.764,0,0,1,.234-.575A.878.878,0,0,1-2.3-8.116a.88.88,0,0,1,.634.226.76.76,0,0,1,.236.575.762.762,0,0,1-.239.58A.882.882,0,0,1-2.3-6.51a.882.882,0,0,1-.631-.226A.762.762,0,0,1-3.166-7.315ZM4.992-2.852A3.485,3.485,0,0,1,4.383-.7,1.955,1.955,0,0,1,2.737.107,1.811,1.811,0,0,1,1.313-.5V2.234H-.239V-5.812H1.2l.054.569a1.824,1.824,0,0,1,1.472-.677,1.968,1.968,0,0,1,1.67.795,3.58,3.58,0,0,1,.6,2.191ZM3.44-2.965a2.287,2.287,0,0,0-.287-1.251.936.936,0,0,0-.835-.44,1.016,1.016,0,0,0-1,.559v2.379a1.034,1.034,0,0,0,1.015.575Q3.44-1.144,3.44-2.965ZM7.592,0H6.034V-8.25H7.592Zm3.953.107A2.853,2.853,0,0,1,9.464-.677a2.787,2.787,0,0,1-.8-2.089v-.15A3.511,3.511,0,0,1,9-4.482a2.483,2.483,0,0,1,.959-1.063,2.691,2.691,0,0,1,1.415-.373,2.412,2.412,0,0,1,1.877.752,3.056,3.056,0,0,1,.685,2.132V-2.4h-3.7a1.442,1.442,0,0,0,.454.913,1.372,1.372,0,0,0,.959.344,1.675,1.675,0,0,0,1.4-.65l.763.854a2.33,2.33,0,0,1-.945.771A3.1,3.1,0,0,1,11.545.107Zm-.177-4.77a.972.972,0,0,0-.749.312,1.609,1.609,0,0,0-.368.892H12.41v-.124a1.147,1.147,0,0,0-.279-.8A1,1,0,0,0,11.368-4.662Z" transform="translate(1185.051 3169)" fill="#12263f"/>
    <g id="Trazado_899903" data-name="Trazado 899903" transform="translate(1275.051 3119)" fill="#f3e6ff">
      <path d="M 47 93 C 40.78960037231445 93 34.76549911499023 91.78391265869141 29.09502410888672 89.385498046875 C 23.61750030517578 87.06870269775391 18.69796180725098 83.75180053710938 14.47308731079102 79.52690887451172 C 10.24820041656494 75.30204010009766 6.931300163269043 70.38249969482422 4.614500045776367 64.90497589111328 C 2.216087579727173 59.23450088500977 1 53.21039962768555 1 47 C 1 40.78960037231445 2.216087579727173 34.76549911499023 4.614500045776367 29.09502410888672 C 6.931300163269043 23.61750030517578 10.24820041656494 18.69796180725098 14.47308731079102 14.47308731079102 C 18.69796180725098 10.24820041656494 23.61750030517578 6.931300163269043 29.09502410888672 4.614500045776367 C 34.76549911499023 2.216087579727173 40.78960037231445 1 47 1 C 53.21039962768555 1 59.23450088500977 2.216087579727173 64.90497589111328 4.614500045776367 C 70.38249969482422 6.931300163269043 75.30204010009766 10.24820041656494 79.52690887451172 14.47308731079102 C 83.75180053710938 18.69796180725098 87.06870269775391 23.61750030517578 89.385498046875 29.09502410888672 C 91.78391265869141 34.76549911499023 93 40.78960037231445 93 47 C 93 53.21039962768555 91.78391265869141 59.23450088500977 89.385498046875 64.90497589111328 C 87.06870269775391 70.38249969482422 83.75180053710938 75.30204010009766 79.52690887451172 79.52690887451172 C 75.30204010009766 83.75180053710938 70.38249969482422 87.06870269775391 64.90497589111328 89.385498046875 C 59.23450088500977 91.78391265869141 53.21039962768555 93 47 93 Z" stroke="none"/>
      <path d="M 47 2 C 40.92416000366211 2 35.03112030029297 3.189521789550781 29.48458862304688 5.535507202148438 C 24.12625122070312 7.8018798828125 19.31356048583984 11.04682922363281 15.18019866943359 15.18019866943359 C 11.04682922363281 19.31356048583984 7.8018798828125 24.12625122070312 5.535507202148438 29.48458862304688 C 3.189521789550781 35.03112030029297 2 40.92416000366211 2 47 C 2 53.07583999633789 3.189521789550781 58.96887969970703 5.535507202148438 64.51541137695312 C 7.8018798828125 69.87374877929688 11.04682922363281 74.68643951416016 15.18019866943359 78.81980133056641 C 19.31356048583984 82.95317077636719 24.12625122070312 86.1981201171875 29.48458862304688 88.46449279785156 C 35.03112030029297 90.81047821044922 40.92416000366211 92 47 92 C 53.07583999633789 92 58.96887969970703 90.81047821044922 64.51541137695312 88.46449279785156 C 69.87374877929688 86.1981201171875 74.68643951416016 82.95317077636719 78.81980133056641 78.81980133056641 C 82.95317077636719 74.68643951416016 86.1981201171875 69.87374877929688 88.46449279785156 64.51541137695312 C 90.81047821044922 58.96887969970703 92 53.07583999633789 92 47 C 92 40.92416000366211 90.81047821044922 35.03112030029297 88.46449279785156 29.48458862304688 C 86.1981201171875 24.12625122070312 82.95317077636719 19.31356048583984 78.81980133056641 15.18019866943359 C 74.68643951416016 11.04682922363281 69.87374877929688 7.8018798828125 64.51541137695312 5.535507202148438 C 58.96887969970703 3.189521789550781 53.07583999633789 2 47 2 M 47 0 C 72.95738220214844 0 94 21.04261016845703 94 47 C 94 72.95738220214844 72.95738220214844 94 47 94 C 21.04261016845703 94 0 72.95738220214844 0 47 C 0 21.04261016845703 21.04261016845703 0 47 0 Z" stroke="none" fill="#8000ff"/>
    </g>
    <path id="Trazado_899904" data-name="Trazado 899904" d="M-14.991,0V-7.82h2.406a3.654,3.654,0,0,1,1.845.465,3.24,3.24,0,0,1,1.27,1.321,4.075,4.075,0,0,1,.457,1.947v.36a4.087,4.087,0,0,1-.448,1.939A3.212,3.212,0,0,1-10.726-.473,3.682,3.682,0,0,1-12.568,0Zm1.611-6.515v5.221h.779a1.75,1.75,0,0,0,1.445-.618,2.791,2.791,0,0,0,.51-1.767v-.414A2.836,2.836,0,0,0-11.14-5.9a1.744,1.744,0,0,0-1.445-.615ZM-4.576,0a1.724,1.724,0,0,1-.156-.521A1.878,1.878,0,0,1-6.2.107,2.063,2.063,0,0,1-7.614-.387a1.589,1.589,0,0,1-.561-1.246A1.642,1.642,0,0,1-7.49-3.051a3.379,3.379,0,0,1,1.979-.5H-4.8v-.333A.958.958,0,0,0-5-4.528a.813.813,0,0,0-.653-.242.925.925,0,0,0-.615.188.639.639,0,0,0-.223.516H-8.046A1.559,1.559,0,0,1-7.734-5a2.059,2.059,0,0,1,.881-.674,3.21,3.21,0,0,1,1.278-.244,2.536,2.536,0,0,1,1.705.54,1.888,1.888,0,0,1,.631,1.517v2.519A2.778,2.778,0,0,0-3.008-.091V0ZM-5.86-1.08a1.337,1.337,0,0,0,.634-.153,1,1,0,0,0,.43-.411v-1h-.58q-1.166,0-1.241.806l-.005.091a.621.621,0,0,0,.2.478A.793.793,0,0,0-5.86-1.08ZM-.188-7.24v1.429H.806v1.139H-.188v2.9a.693.693,0,0,0,.124.462.62.62,0,0,0,.473.14,2.475,2.475,0,0,0,.457-.038V-.032a3.2,3.2,0,0,1-.94.14A1.482,1.482,0,0,1-1.74-1.542V-4.673h-.849V-5.812h.849V-7.24ZM3.309,0H1.751V-5.812H3.309ZM1.66-7.315a.764.764,0,0,1,.234-.575.878.878,0,0,1,.636-.226.88.88,0,0,1,.634.226.76.76,0,0,1,.236.575.762.762,0,0,1-.239.58.882.882,0,0,1-.631.226A.882.882,0,0,1,1.9-6.735.762.762,0,0,1,1.66-7.315ZM6.762-1.9l1.08-3.916H9.464L7.5,0H6.021L4.061-5.812H5.683ZM9.824-2.959A3.447,3.447,0,0,1,10.157-4.5a2.438,2.438,0,0,1,.959-1.047,2.8,2.8,0,0,1,1.453-.371,2.646,2.646,0,0,1,1.92.72,2.889,2.889,0,0,1,.83,1.955l.011.4A3.038,3.038,0,0,1,14.583-.7a2.6,2.6,0,0,1-2,.808A2.608,2.608,0,0,1,10.573-.7,3.091,3.091,0,0,1,9.824-2.89Zm1.552.113a2.166,2.166,0,0,0,.312,1.265,1.028,1.028,0,0,0,.892.438,1.031,1.031,0,0,0,.881-.432,2.371,2.371,0,0,0,.317-1.383,2.145,2.145,0,0,0-.317-1.257,1.031,1.031,0,0,0-.892-.446,1.014,1.014,0,0,0-.881.443A2.41,2.41,0,0,0,11.376-2.847Z" transform="translate(1323.051 3169)" fill="#12263f"/>
    <g id="Trazado_899905" data-name="Trazado 899905" transform="translate(850.051 3230)" fill="none">
      <path d="M37,0C57.435,0,74,16.789,74,37.5S57.435,75,37,75,0,58.211,0,37.5,16.565,0,37,0Z" stroke="none"/>
      <path d="M 37 2 C 32.27748870849609 2 27.69706726074219 2.937057495117188 23.38593292236328 4.78515625 C 19.21910095214844 6.571403503417969 15.47603225708008 9.129425048828125 12.26072311401367 12.38818740844727 C 9.0435791015625 15.64881134033203 6.517730712890625 19.44575500488281 4.753364562988281 23.67357635498047 C 2.926368713378906 28.05145645141602 2 32.70334625244141 2 37.5 C 2 42.29665374755859 2.926368713378906 46.94854354858398 4.753364562988281 51.32642364501953 C 6.517730712890625 55.55424499511719 9.0435791015625 59.35118865966797 12.26072311401367 62.61180877685547 C 15.47603225708008 65.87057495117188 19.21910095214844 68.42859649658203 23.38593292236328 70.21484375 C 27.69706726074219 72.06294250488281 32.27748870849609 73 37 73 C 41.72251129150391 73 46.30293273925781 72.06294250488281 50.61406707763672 70.21484375 C 54.78089904785156 68.42859649658203 58.52396774291992 65.87057495117188 61.73927688598633 62.61180877685547 C 64.9564208984375 59.35118865966797 67.48226928710938 55.55424499511719 69.24663543701172 51.32642364501953 C 71.07363128662109 46.94854354858398 72 42.29665374755859 72 37.5 C 72 32.70334625244141 71.07363128662109 28.05145645141602 69.24663543701172 23.67357635498047 C 67.48226928710938 19.44575500488281 64.9564208984375 15.64881134033203 61.73927688598633 12.38818740844727 C 58.52396774291992 9.129425048828125 54.78089904785156 6.571403503417969 50.61406707763672 4.78515625 C 46.30293273925781 2.937057495117188 41.72251129150391 2 37 2 M 37 0 C 57.43453216552734 0 74 16.78932189941406 74 37.5 C 74 58.21067810058594 57.43453216552734 75 37 75 C 16.56546783447266 75 0 58.21067810058594 0 37.5 C 0 16.78932189941406 16.56546783447266 0 37 0 Z" stroke="none" fill="#0ac675"/>
    </g>
    <g id="Trazado_899906" data-name="Trazado 899906" transform="translate(895.051 3230)" fill="none">
      <path d="M37,0C57.435,0,74,16.789,74,37.5S57.435,75,37,75,0,58.211,0,37.5,16.565,0,37,0Z" stroke="none"/>
      <path d="M 37 2 C 32.27748870849609 2 27.69706726074219 2.937057495117188 23.38593292236328 4.78515625 C 19.21910095214844 6.571403503417969 15.47603225708008 9.129425048828125 12.26072311401367 12.38818740844727 C 9.0435791015625 15.64881134033203 6.517730712890625 19.44575500488281 4.753364562988281 23.67357635498047 C 2.926368713378906 28.05145645141602 2 32.70334625244141 2 37.5 C 2 42.29665374755859 2.926368713378906 46.94854354858398 4.753364562988281 51.32642364501953 C 6.517730712890625 55.55424499511719 9.0435791015625 59.35118865966797 12.26072311401367 62.61180877685547 C 15.47603225708008 65.87057495117188 19.21910095214844 68.42859649658203 23.38593292236328 70.21484375 C 27.69706726074219 72.06294250488281 32.27748870849609 73 37 73 C 41.72251129150391 73 46.30293273925781 72.06294250488281 50.61406707763672 70.21484375 C 54.78089904785156 68.42859649658203 58.52396774291992 65.87057495117188 61.73927688598633 62.61180877685547 C 64.9564208984375 59.35118865966797 67.48226928710938 55.55424499511719 69.24663543701172 51.32642364501953 C 71.07363128662109 46.94854354858398 72 42.29665374755859 72 37.5 C 72 32.70334625244141 71.07363128662109 28.05145645141602 69.24663543701172 23.67357635498047 C 67.48226928710938 19.44575500488281 64.9564208984375 15.64881134033203 61.73927688598633 12.38818740844727 C 58.52396774291992 9.129425048828125 54.78089904785156 6.571403503417969 50.61406707763672 4.78515625 C 46.30293273925781 2.937057495117188 41.72251129150391 2 37 2 M 37 0 C 57.43453216552734 0 74 16.78932189941406 74 37.5 C 74 58.21067810058594 57.43453216552734 75 37 75 C 16.56546783447266 75 0 58.21067810058594 0 37.5 C 0 16.78932189941406 16.56546783447266 0 37 0 Z" stroke="none" fill="#0ac675"/>
    </g>
    <path id="Trazado_899907" data-name="Trazado 899907" d="M1.284-1.465H-1.284L-1.772,0H-3.33L-.684-7.109H.674L3.335,0H1.777ZM-.889-2.651H.889L0-5.312Z" transform="translate(876.051 3271)" fill="#12263f"/>
    <path id="Trazado_899908" data-name="Trazado 899908" d="M-2.556,0V-7.109h2.49a3.27,3.27,0,0,1,1.963.5,1.7,1.7,0,0,1,.669,1.453,1.606,1.606,0,0,1-.269.92,1.551,1.551,0,0,1-.747.583,1.5,1.5,0,0,1,.862.552A1.631,1.631,0,0,1,2.727-2.09,1.876,1.876,0,0,1,2.073-.537,2.946,2.946,0,0,1,.208,0Zm1.465-3.1v1.919H.164a1.211,1.211,0,0,0,.808-.247A.846.846,0,0,0,1.262-2.1.893.893,0,0,0,.251-3.1Zm0-1.035H-.007Q1.1-4.15,1.1-5.015a.817.817,0,0,0-.281-.7,1.477,1.477,0,0,0-.886-.212H-1.091Z" transform="translate(940.051 3271)" fill="#12263f"/>
    <path id="Trazado_899909" data-name="Trazado 899909" d="M4,0A3.775,3.775,0,0,1,8,3.5,3.775,3.775,0,0,1,4,7,3.775,3.775,0,0,1,0,3.5,3.775,3.775,0,0,1,4,0Z" transform="translate(912.051 3264)" fill="#c00"/>
    <path id="Trazado_899910" data-name="Trazado 899910" d="M4,0A3.775,3.775,0,0,1,8,3.5,3.775,3.775,0,0,1,4,7,3.775,3.775,0,0,1,0,3.5,3.775,3.775,0,0,1,4,0Z" transform="translate(902.051 3264)" fill="#3630ff"/>
    <g id="Trazado_899911" data-name="Trazado 899911" transform="translate(985.051 3230)" fill="none">
      <path d="M37,0C57.435,0,74,16.789,74,37.5S57.435,75,37,75,0,58.211,0,37.5,16.565,0,37,0Z" stroke="none"/>
      <path d="M 37 2 C 32.27748870849609 2 27.69706726074219 2.937057495117188 23.38593292236328 4.78515625 C 19.21910095214844 6.571403503417969 15.47603225708008 9.129425048828125 12.26072311401367 12.38818740844727 C 9.0435791015625 15.64881134033203 6.517730712890625 19.44575500488281 4.753364562988281 23.67357635498047 C 2.926368713378906 28.05145645141602 2 32.70334625244141 2 37.5 C 2 42.29665374755859 2.926368713378906 46.94854354858398 4.753364562988281 51.32642364501953 C 6.517730712890625 55.55424499511719 9.0435791015625 59.35118865966797 12.26072311401367 62.61180877685547 C 15.47603225708008 65.87057495117188 19.21910095214844 68.42859649658203 23.38593292236328 70.21484375 C 27.69706726074219 72.06294250488281 32.27748870849609 73 37 73 C 41.72251129150391 73 46.30293273925781 72.06294250488281 50.61406707763672 70.21484375 C 54.78089904785156 68.42859649658203 58.52396774291992 65.87057495117188 61.73927688598633 62.61180877685547 C 64.9564208984375 59.35118865966797 67.48226928710938 55.55424499511719 69.24663543701172 51.32642364501953 C 71.07363128662109 46.94854354858398 72 42.29665374755859 72 37.5 C 72 32.70334625244141 71.07363128662109 28.05145645141602 69.24663543701172 23.67357635498047 C 67.48226928710938 19.44575500488281 64.9564208984375 15.64881134033203 61.73927688598633 12.38818740844727 C 58.52396774291992 9.129425048828125 54.78089904785156 6.571403503417969 50.61406707763672 4.78515625 C 46.30293273925781 2.937057495117188 41.72251129150391 2 37 2 M 37 0 C 57.43453216552734 0 74 16.78932189941406 74 37.5 C 74 58.21067810058594 57.43453216552734 75 37 75 C 16.56546783447266 75 0 58.21067810058594 0 37.5 C 0 16.78932189941406 16.56546783447266 0 37 0 Z" stroke="none" fill="#ffd500"/>
    </g>
    <g id="Trazado_899912" data-name="Trazado 899912" transform="translate(1030.051 3230)" fill="none">
      <path d="M37,0C57.435,0,74,16.789,74,37.5S57.435,75,37,75,0,58.211,0,37.5,16.565,0,37,0Z" stroke="none"/>
      <path d="M 37 2 C 32.27748870849609 2 27.69706726074219 2.937057495117188 23.38593292236328 4.78515625 C 19.21910095214844 6.571403503417969 15.47603225708008 9.129425048828125 12.26072311401367 12.38818740844727 C 9.0435791015625 15.64881134033203 6.517730712890625 19.44575500488281 4.753364562988281 23.67357635498047 C 2.926368713378906 28.05145645141602 2 32.70334625244141 2 37.5 C 2 42.29665374755859 2.926368713378906 46.94854354858398 4.753364562988281 51.32642364501953 C 6.517730712890625 55.55424499511719 9.0435791015625 59.35118865966797 12.26072311401367 62.61180877685547 C 15.47603225708008 65.87057495117188 19.21910095214844 68.42859649658203 23.38593292236328 70.21484375 C 27.69706726074219 72.06294250488281 32.27748870849609 73 37 73 C 41.72251129150391 73 46.30293273925781 72.06294250488281 50.61406707763672 70.21484375 C 54.78089904785156 68.42859649658203 58.52396774291992 65.87057495117188 61.73927688598633 62.61180877685547 C 64.9564208984375 59.35118865966797 67.48226928710938 55.55424499511719 69.24663543701172 51.32642364501953 C 71.07363128662109 46.94854354858398 72 42.29665374755859 72 37.5 C 72 32.70334625244141 71.07363128662109 28.05145645141602 69.24663543701172 23.67357635498047 C 67.48226928710938 19.44575500488281 64.9564208984375 15.64881134033203 61.73927688598633 12.38818740844727 C 58.52396774291992 9.129425048828125 54.78089904785156 6.571403503417969 50.61406707763672 4.78515625 C 46.30293273925781 2.937057495117188 41.72251129150391 2 37 2 M 37 0 C 57.43453216552734 0 74 16.78932189941406 74 37.5 C 74 58.21067810058594 57.43453216552734 75 37 75 C 16.56546783447266 75 0 58.21067810058594 0 37.5 C 0 16.78932189941406 16.56546783447266 0 37 0 Z" stroke="none" fill="#ffd500"/>
    </g>
    <path id="Trazado_899913" data-name="Trazado 899913" d="M1.284-1.465H-1.284L-1.772,0H-3.33L-.684-7.109H.674L3.335,0H1.777ZM-.889-2.651H.889L0-5.312Z" transform="translate(1011.051 3271)" fill="#12263f"/>
    <path id="Trazado_899914" data-name="Trazado 899914" d="M-2.556,0V-7.109h2.49a3.27,3.27,0,0,1,1.963.5,1.7,1.7,0,0,1,.669,1.453,1.606,1.606,0,0,1-.269.92,1.551,1.551,0,0,1-.747.583,1.5,1.5,0,0,1,.862.552A1.631,1.631,0,0,1,2.727-2.09,1.876,1.876,0,0,1,2.073-.537,2.946,2.946,0,0,1,.208,0Zm1.465-3.1v1.919H.164a1.211,1.211,0,0,0,.808-.247A.846.846,0,0,0,1.262-2.1.893.893,0,0,0,.251-3.1Zm0-1.035H-.007Q1.1-4.15,1.1-5.015a.817.817,0,0,0-.281-.7,1.477,1.477,0,0,0-.886-.212H-1.091Z" transform="translate(1076.051 3271)" fill="#12263f"/>
    <path id="Trazado_899915" data-name="Trazado 899915" d="M4.5,0C6.985,0,9,1.567,9,3.5S6.985,7,4.5,7,0,5.433,0,3.5,2.015,0,4.5,0Z" transform="translate(1047.051 3258)" fill="#c00"/>
    <path id="Trazado_899916" data-name="Trazado 899916" d="M4.5,0C6.985,0,9,1.567,9,3.5S6.985,7,4.5,7,0,5.433,0,3.5,2.015,0,4.5,0Z" transform="translate(1047.051 3268)" fill="#c00"/>
    <path id="Trazado_899917" data-name="Trazado 899917" d="M3.5,0A3.5,3.5,0,1,1,0,3.5,3.5,3.5,0,0,1,3.5,0Z" transform="translate(1038.051 3258)" fill="#3630ff"/>
    <path id="Trazado_899918" data-name="Trazado 899918" d="M3.5,0A3.5,3.5,0,1,1,0,3.5,3.5,3.5,0,0,1,3.5,0Z" transform="translate(1038.051 3268)" fill="#3630ff"/>
    <g id="Trazado_899919" data-name="Trazado 899919" transform="translate(1122.051 3230)" fill="none">
      <path d="M37,0C57.435,0,74,16.789,74,37.5S57.435,75,37,75,0,58.211,0,37.5,16.565,0,37,0Z" stroke="none"/>
      <path d="M 37 2 C 32.27748870849609 2 27.69706726074219 2.937057495117188 23.38593292236328 4.78515625 C 19.21910095214844 6.571403503417969 15.47603225708008 9.129425048828125 12.26072311401367 12.38818740844727 C 9.0435791015625 15.64881134033203 6.517730712890625 19.44575500488281 4.753364562988281 23.67357635498047 C 2.926368713378906 28.05145645141602 2 32.70334625244141 2 37.5 C 2 42.29665374755859 2.926368713378906 46.94854354858398 4.753364562988281 51.32642364501953 C 6.517730712890625 55.55424499511719 9.0435791015625 59.35118865966797 12.26072311401367 62.61180877685547 C 15.47603225708008 65.87057495117188 19.21910095214844 68.42859649658203 23.38593292236328 70.21484375 C 27.69706726074219 72.06294250488281 32.27748870849609 73 37 73 C 41.72251129150391 73 46.30293273925781 72.06294250488281 50.61406707763672 70.21484375 C 54.78089904785156 68.42859649658203 58.52396774291992 65.87057495117188 61.73927688598633 62.61180877685547 C 64.9564208984375 59.35118865966797 67.48226928710938 55.55424499511719 69.24663543701172 51.32642364501953 C 71.07363128662109 46.94854354858398 72 42.29665374755859 72 37.5 C 72 32.70334625244141 71.07363128662109 28.05145645141602 69.24663543701172 23.67357635498047 C 67.48226928710938 19.44575500488281 64.9564208984375 15.64881134033203 61.73927688598633 12.38818740844727 C 58.52396774291992 9.129425048828125 54.78089904785156 6.571403503417969 50.61406707763672 4.78515625 C 46.30293273925781 2.937057495117188 41.72251129150391 2 37 2 M 37 0 C 57.43453216552734 0 74 16.78932189941406 74 37.5 C 74 58.21067810058594 57.43453216552734 75 37 75 C 16.56546783447266 75 0 58.21067810058594 0 37.5 C 0 16.78932189941406 16.56546783447266 0 37 0 Z" stroke="none" fill="#8000ff"/>
    </g>
    <g id="Trazado_899920" data-name="Trazado 899920" transform="translate(1167.051 3230)" fill="none">
      <path d="M37,0C57.435,0,74,16.789,74,37.5S57.435,75,37,75,0,58.211,0,37.5,16.565,0,37,0Z" stroke="none"/>
      <path d="M 37 2 C 32.27748870849609 2 27.69706726074219 2.937057495117188 23.38593292236328 4.78515625 C 19.21910095214844 6.571403503417969 15.47603225708008 9.129425048828125 12.26072311401367 12.38818740844727 C 9.0435791015625 15.64881134033203 6.517730712890625 19.44575500488281 4.753364562988281 23.67357635498047 C 2.926368713378906 28.05145645141602 2 32.70334625244141 2 37.5 C 2 42.29665374755859 2.926368713378906 46.94854354858398 4.753364562988281 51.32642364501953 C 6.517730712890625 55.55424499511719 9.0435791015625 59.35118865966797 12.26072311401367 62.61180877685547 C 15.47603225708008 65.87057495117188 19.21910095214844 68.42859649658203 23.38593292236328 70.21484375 C 27.69706726074219 72.06294250488281 32.27748870849609 73 37 73 C 41.72251129150391 73 46.30293273925781 72.06294250488281 50.61406707763672 70.21484375 C 54.78089904785156 68.42859649658203 58.52396774291992 65.87057495117188 61.73927688598633 62.61180877685547 C 64.9564208984375 59.35118865966797 67.48226928710938 55.55424499511719 69.24663543701172 51.32642364501953 C 71.07363128662109 46.94854354858398 72 42.29665374755859 72 37.5 C 72 32.70334625244141 71.07363128662109 28.05145645141602 69.24663543701172 23.67357635498047 C 67.48226928710938 19.44575500488281 64.9564208984375 15.64881134033203 61.73927688598633 12.38818740844727 C 58.52396774291992 9.129425048828125 54.78089904785156 6.571403503417969 50.61406707763672 4.78515625 C 46.30293273925781 2.937057495117188 41.72251129150391 2 37 2 M 37 0 C 57.43453216552734 0 74 16.78932189941406 74 37.5 C 74 58.21067810058594 57.43453216552734 75 37 75 C 16.56546783447266 75 0 58.21067810058594 0 37.5 C 0 16.78932189941406 16.56546783447266 0 37 0 Z" stroke="none" fill="#8000ff"/>
    </g>
    <path id="Trazado_899921" data-name="Trazado 899921" d="M1.284-1.465H-1.284L-1.772,0H-3.33L-.684-7.109H.674L3.335,0H1.777ZM-.889-2.651H.889L0-5.312Z" transform="translate(1148.051 3271)" fill="#12263f"/>
    <path id="Trazado_899922" data-name="Trazado 899922" d="M-2.556,0V-7.109h2.49a3.27,3.27,0,0,1,1.963.5,1.7,1.7,0,0,1,.669,1.453,1.606,1.606,0,0,1-.269.92,1.551,1.551,0,0,1-.747.583,1.5,1.5,0,0,1,.862.552A1.631,1.631,0,0,1,2.727-2.09,1.876,1.876,0,0,1,2.073-.537,2.946,2.946,0,0,1,.208,0Zm1.465-3.1v1.919H.164a1.211,1.211,0,0,0,.808-.247A.846.846,0,0,0,1.262-2.1.893.893,0,0,0,.251-3.1Zm0-1.035H-.007Q1.1-4.15,1.1-5.015a.817.817,0,0,0-.281-.7,1.477,1.477,0,0,0-.886-.212H-1.091Z" transform="translate(1211.051 3271)" fill="#12263f"/>
    <path id="Trazado_899923" data-name="Trazado 899923" d="M4,0A4,4,0,1,1,0,4,4,4,0,0,1,4,0Z" transform="translate(1183.051 3252)" fill="#c00"/>
    <path id="Trazado_899924" data-name="Trazado 899924" d="M4,0A3.775,3.775,0,0,1,8,3.5,3.775,3.775,0,0,1,4,7,3.775,3.775,0,0,1,0,3.5,3.775,3.775,0,0,1,4,0Z" transform="translate(1183.051 3264)" fill="#c00"/>
    <path id="Trazado_899925" data-name="Trazado 899925" d="M4,0A4,4,0,1,1,0,4,4,4,0,0,1,4,0Z" transform="translate(1183.051 3275)" fill="#c00"/>
    <path id="Trazado_899926" data-name="Trazado 899926" d="M4,0A4,4,0,1,1,0,4,4,4,0,0,1,4,0Z" transform="translate(1173.051 3252)" fill="#3630ff"/>
    <path id="Trazado_899927" data-name="Trazado 899927" d="M4,0A3.775,3.775,0,0,1,8,3.5,3.775,3.775,0,0,1,4,7,3.775,3.775,0,0,1,0,3.5,3.775,3.775,0,0,1,4,0Z" transform="translate(1173.051 3264)" fill="#3630ff"/>
    <path id="Trazado_899928" data-name="Trazado 899928" d="M4,0A4,4,0,1,1,0,4,4,4,0,0,1,4,0Z" transform="translate(1173.051 3275)" fill="#3630ff"/>
    <path id="Trazado_899929" data-name="Trazado 899929" d="M1.372-2.052a.827.827,0,0,0-.322-.7A4.227,4.227,0,0,0-.11-3.268,8.224,8.224,0,0,1-1.437-3.8,2.168,2.168,0,0,1-2.769-5.742a1.888,1.888,0,0,1,.357-1.131,2.33,2.33,0,0,1,1.026-.776,3.861,3.861,0,0,1,1.5-.279,3.515,3.515,0,0,1,1.493.3,2.378,2.378,0,0,1,1.018.857,2.242,2.242,0,0,1,.363,1.257H1.378a1.055,1.055,0,0,0-.338-.835,1.391,1.391,0,0,0-.951-.3,1.486,1.486,0,0,0-.918.25.788.788,0,0,0-.328.658A.754.754,0,0,0-.773-5.1a4.339,4.339,0,0,0,1.131.483,4.885,4.885,0,0,1,2,1.026,2.043,2.043,0,0,1,.628,1.525A1.882,1.882,0,0,1,2.221-.47,3.362,3.362,0,0,1,.153.107,3.993,3.993,0,0,1-1.49-.223a2.6,2.6,0,0,1-1.131-.905A2.318,2.318,0,0,1-3.01-2.46h1.617q0,1.294,1.547,1.294a1.5,1.5,0,0,0,.9-.234A.76.76,0,0,0,1.372-2.052Z" transform="translate(1329.301 3253.499)" fill="#12263f"/>
    <path id="Trazado_899930" data-name="Trazado 899930" d="M2.6-4.371H-2.637V-5.754H2.6Zm0,2.537H-2.637V-3.217H2.6Z" transform="translate(1350.301 3254.499)" fill="#0ac675"/>
    <g id="Grupo_1108640" data-name="Grupo 1108640" transform="translate(1261.771 3238.009)">
      <path id="Elipse_11715" data-name="Elipse 11715" d="M4.5,2A2.5,2.5,0,1,0,7,4.5,2.5,2.5,0,0,0,4.5,2m0-2A4.5,4.5,0,1,1,0,4.5,4.5,4.5,0,0,1,4.5,0Z" transform="translate(6.53 7.49)" fill="#12263f"/>
      <g id="Grupo_1108639" data-name="Grupo 1108639">
        <circle id="Elipse_11716" data-name="Elipse 11716" cx="2" cy="2" r="2" transform="translate(11.53 0.49)" fill="#12263f"/>
        <circle id="Elipse_11738" data-name="Elipse 11738" cx="2" cy="2" r="2" transform="translate(-0.47 11.49) rotate(-90)" fill="#12263f"/>
        <circle id="Elipse_11736" data-name="Elipse 11736" cx="2" cy="2" r="2" transform="translate(11.53 19.49)" fill="#12263f"/>
        <circle id="Elipse_11717" data-name="Elipse 11717" cx="2" cy="2" r="2" transform="translate(5.53 0.49)" fill="#12263f"/>
        <circle id="Elipse_11739" data-name="Elipse 11739" cx="2" cy="2" r="2" transform="translate(-0.47 17.49) rotate(-90)" fill="#12263f"/>
        <circle id="Elipse_11737" data-name="Elipse 11737" cx="2" cy="2" r="2" transform="translate(5.53 19.49)" fill="#12263f"/>
      </g>
    </g>
    <g id="Grupo_1108641" data-name="Grupo 1108641" transform="translate(1316.624 3304.529) rotate(-90)">
      <path id="Elipse_11715-2" data-name="Elipse 11715" d="M4.5,2A2.5,2.5,0,1,0,7,4.5,2.5,2.5,0,0,0,4.5,2m0-2A4.5,4.5,0,1,1,0,4.5,4.5,4.5,0,0,1,4.5,0Z" transform="translate(6.53 7.49)" fill="#12263f"/>
      <g id="Grupo_1108639-2" data-name="Grupo 1108639">
        <circle id="Elipse_11716-2" data-name="Elipse 11716" cx="2" cy="2" r="2" transform="translate(11.53 0.49)" fill="#12263f"/>
        <circle id="Elipse_11738-2" data-name="Elipse 11738" cx="2" cy="2" r="2" transform="translate(-0.47 11.49) rotate(-90)" fill="#12263f"/>
        <circle id="Elipse_11736-2" data-name="Elipse 11736" cx="2" cy="2" r="2" transform="translate(11.53 19.49)" fill="#12263f"/>
        <circle id="Elipse_11717-2" data-name="Elipse 11717" cx="2" cy="2" r="2" transform="translate(5.53 0.49)" fill="#12263f"/>
        <circle id="Elipse_11739-2" data-name="Elipse 11739" cx="2" cy="2" r="2" transform="translate(-0.47 17.49) rotate(-90)" fill="#12263f"/>
        <circle id="Elipse_11737-2" data-name="Elipse 11737" cx="2" cy="2" r="2" transform="translate(5.53 19.49)" fill="#12263f"/>
      </g>
    </g>
    <g id="Grupo_1108642" data-name="Grupo 1108642" transform="translate(1372.33 3262.539) rotate(180)">
      <path id="Elipse_11715-3" data-name="Elipse 11715" d="M4.5,2A2.5,2.5,0,1,0,7,4.5,2.5,2.5,0,0,0,4.5,2m0-2A4.5,4.5,0,1,1,0,4.5,4.5,4.5,0,0,1,4.5,0Z" transform="translate(6.53 7.49)" fill="#12263f"/>
      <g id="Grupo_1108639-3" data-name="Grupo 1108639">
        <circle id="Elipse_11716-3" data-name="Elipse 11716" cx="2" cy="2" r="2" transform="translate(11.53 0.49)" fill="#12263f"/>
        <circle id="Elipse_11738-3" data-name="Elipse 11738" cx="2" cy="2" r="2" transform="translate(-0.47 11.49) rotate(-90)" fill="#12263f"/>
        <circle id="Elipse_11736-3" data-name="Elipse 11736" cx="2" cy="2" r="2" transform="translate(11.53 19.49)" fill="#12263f"/>
        <circle id="Elipse_11717-3" data-name="Elipse 11717" cx="2" cy="2" r="2" transform="translate(5.53 0.49)" fill="#12263f"/>
        <circle id="Elipse_11739-3" data-name="Elipse 11739" cx="2" cy="2" r="2" transform="translate(-0.47 17.49) rotate(-90)" fill="#12263f"/>
        <circle id="Elipse_11737-3" data-name="Elipse 11737" cx="2" cy="2" r="2" transform="translate(5.53 19.49)" fill="#12263f"/>
      </g>
    </g>
    <path id="Trazado_899931" data-name="Trazado 899931" d="M3.731,30.205V5.641L0,7.578,4.229,0,8.457,7.578,5.224,5.9V30.205a.687.687,0,0,1-.746.6A.687.687,0,0,1,3.731,30.205Z" transform="translate(1284.919 3254.777) rotate(-90)" fill="#12263f"/>
    <path id="Trazado_899932" data-name="Trazado 899932" d="M3.731,30.205V5.641L0,7.578,4.229,0,8.457,7.578,5.224,5.9V30.205a.687.687,0,0,1-.746.6A.687.687,0,0,1,3.731,30.205Z" transform="translate(1332.843 3287.53) rotate(180)" fill="#12263f"/>
  </g>
</svg>
