<svg xmlns="http://www.w3.org/2000/svg" xmlns:xlink="http://www.w3.org/1999/xlink" width="95" height="113.155" viewBox="0 0 95 113.155">
  <defs>
    <clipPath id="clip-path">
      <rect id="Rectángulo_401623" data-name="Rectángulo 401623" width="62.702" height="113.155" fill="none"/>
    </clipPath>
    <clipPath id="clip-path-2">
      <path id="Trazado_877449" data-name="Trazado 877449" d="M91.833,29.993l-5.794,2.05,1.167,3.3v0L93,33.3Z" transform="translate(-86.039 -29.993)" fill="none"/>
    </clipPath>
    <linearGradient id="linear-gradient" x1="-3.815" y1="14.044" x2="-3.77" y2="14.044" gradientUnits="objectBoundingBox">
      <stop offset="0" stop-color="#545454"/>
      <stop offset="0.124" stop-color="#c8c8c8"/>
      <stop offset="0.191" stop-color="#dbdbdb"/>
      <stop offset="0.295" stop-color="#fff"/>
      <stop offset="0.498" stop-color="#d3d2d1"/>
      <stop offset="0.577" stop-color="#9f9fa0"/>
      <stop offset="0.662" stop-color="#abaaab"/>
      <stop offset="0.72" stop-color="#a3a1a1"/>
      <stop offset="0.879" stop-color="#545454"/>
      <stop offset="1" stop-color="#707070"/>
    </linearGradient>
    <clipPath id="clip-path-4">
      <rect id="Rectángulo_401569" data-name="Rectángulo 401569" width="5.994" height="4.049" fill="none"/>
    </clipPath>
    <clipPath id="clip-path-5">
      <rect id="Rectángulo_401571" data-name="Rectángulo 401571" width="8.575" height="3.244" fill="none"/>
    </clipPath>
    <clipPath id="clip-path-6">
      <path id="Trazado_877452" data-name="Trazado 877452" d="M89.538,26.431a.858.858,0,0,0-.8-.569.873.873,0,0,0-.289.05L81.6,28.332a.86.86,0,0,1,.566-.768l6.869-2.426a.882.882,0,0,1,.288-.05.855.855,0,0,1,.281,1.661l-.015,0a.853.853,0,0,0-.046-.323" transform="translate(-81.595 -25.088)" fill="none"/>
    </clipPath>
    <linearGradient id="linear-gradient-2" x1="-7.376" y1="11.771" x2="-7.291" y2="11.771" gradientUnits="objectBoundingBox">
      <stop offset="0" stop-color="#fff"/>
      <stop offset="0.106" stop-color="#fff"/>
      <stop offset="1"/>
    </linearGradient>
    <clipPath id="clip-path-7">
      <rect id="Rectángulo_401573" data-name="Rectángulo 401573" width="8.56" height="3.14" fill="none"/>
    </clipPath>
    <clipPath id="clip-path-8">
      <path id="Trazado_877454" data-name="Trazado 877454" d="M94.25,39.328a.853.853,0,0,0-.8-.573.832.832,0,0,0-.285.05l-.54.193-5.793,2.05-.536.188c-.018.006-.033.016-.05.023a.843.843,0,0,1,.555-.66l.535-.188,5.793-2.05.54-.193a.834.834,0,0,1,.284-.05.853.853,0,0,1,.332,1.638.843.843,0,0,0-.034-.428" transform="translate(-86.244 -38.118)" fill="none"/>
    </clipPath>
    <linearGradient id="linear-gradient-3" x1="-6.286" y1="11.073" x2="-6.216" y2="11.073" xlink:href="#linear-gradient-2"/>
    <clipPath id="clip-path-9">
      <rect id="Rectángulo_401575" data-name="Rectángulo 401575" width="9.381" height="3.732" fill="none"/>
    </clipPath>
    <clipPath id="clip-path-10">
      <path id="Trazado_877456" data-name="Trazado 877456" d="M122.072,119.14a.856.856,0,0,0-.8-.569.874.874,0,0,0-.289.05l-.531.188-6.606,2.338-.459.162a.853.853,0,0,1,.552-.967l.536-.188,6.6-2.338.531-.188a.871.871,0,0,1,.289-.051.856.856,0,0,1,.284,1.661l-.079.028a.722.722,0,0,0-.031-.127" transform="translate(-113.37 -117.577)" fill="none"/>
    </clipPath>
    <linearGradient id="linear-gradient-4" x1="-4.403" y1="17" x2="-4.364" y2="17" xlink:href="#linear-gradient-2"/>
    <clipPath id="clip-path-11">
      <rect id="Rectángulo_401576" data-name="Rectángulo 401576" width="6.823" height="4.746" fill="none"/>
    </clipPath>
    <clipPath id="clip-path-12">
      <rect id="Rectángulo_401577" data-name="Rectángulo 401577" width="5.09" height="10.781" fill="none"/>
    </clipPath>
    <clipPath id="clip-path-13">
      <rect id="Rectángulo_401580" data-name="Rectángulo 401580" width="12.138" height="27.793" fill="none"/>
    </clipPath>
    <clipPath id="clip-path-14">
      <rect id="Rectángulo_401579" data-name="Rectángulo 401579" width="2.799" height="28.489" transform="matrix(0.943, -0.334, 0.334, 0.943, 0, 0.934)" fill="none"/>
    </clipPath>
    <linearGradient id="linear-gradient-5" x1="-1.557" y1="3.219" x2="-1.539" y2="3.219" xlink:href="#linear-gradient-2"/>
    <clipPath id="clip-path-15">
      <path id="Trazado_877463" data-name="Trazado 877463" d="M59.7,98.535c2.719,11.712,3.948,16.1,14.628,16.1s14.9-2.3,13.888-7.948a79.312,79.312,0,0,0-1.971-8.713l-4.739,1.577c2.016,5.463-3.3,4.94-8.509,4.94s-5.35-4.706-6.14-11.892,4.973-9.86,11.056-11.429h0L71.911,64.2C55.429,71.066,56.877,86.375,59.7,98.535" transform="translate(-57.948 -64.201)" fill="none"/>
    </clipPath>
    <clipPath id="clip-path-16">
      <rect id="Rectángulo_401583" data-name="Rectángulo 401583" width="54.332" height="84.031" fill="none"/>
    </clipPath>
    <clipPath id="clip-path-17">
      <path id="Trazado_877461" data-name="Trazado 877461" d="M32.249,116.1C17.457,92.913,3.312,75.713.461,77.393c-2.729,1.864,6.951,22.017,21.562,44.955,14.757,23.138,28.932,40.385,31.883,38.869,2.608-2.076-7.009-22.135-21.656-45.122" transform="translate(0 -77.28)" fill="none"/>
    </clipPath>
    <radialGradient id="radial-gradient" cx="0.5" cy="0.5" r="0.057" gradientTransform="matrix(1.09, 0, -0.002, 8.267, -0.017, -6.547)" gradientUnits="objectBoundingBox">
      <stop offset="0" stop-color="#91578c"/>
      <stop offset="0.106" stop-color="#91578c"/>
      <stop offset="0.26" stop-color="#693f65"/>
      <stop offset="0.396" stop-color="#462a43"/>
      <stop offset="0.584" stop-color="#281826"/>
      <stop offset="0.813" stop-color="#0f090e"/>
      <stop offset="1"/>
    </radialGradient>
    <clipPath id="clip-path-18">
      <rect id="Rectángulo_401585" data-name="Rectángulo 401585" width="22.489" height="91.874" fill="none"/>
    </clipPath>
    <clipPath id="clip-path-19">
      <path id="Trazado_877462" data-name="Trazado 877462" d="M45.992,44.806C43.038,19.4,36.237-.516,30.746.01c-5.458.729-7.513,21.751-4.628,46.884,2.938,25.357,9.744,45.323,15.249,44.975,5.453-.958,7.525-21.876,4.625-47.063" transform="translate(-24.814 0)" fill="none"/>
    </clipPath>
    <radialGradient id="radial-gradient-2" r="0.105" gradientTransform="matrix(2.63, 0, -0.002, 4.612, 0.116, -4.363)" xlink:href="#radial-gradient"/>
    <clipPath id="clip-path-21">
      <rect id="Rectángulo_401586" data-name="Rectángulo 401586" width="5.004" height="4.93" fill="none"/>
    </clipPath>
    <clipPath id="clip-path-22">
      <rect id="Rectángulo_401587" data-name="Rectángulo 401587" width="14.764" height="5.229" fill="none"/>
    </clipPath>
    <clipPath id="clip-path-23">
      <rect id="Rectángulo_401589" data-name="Rectángulo 401589" width="11.166" height="23.243" fill="none"/>
    </clipPath>
    <clipPath id="clip-path-24">
      <path id="Trazado_877466" data-name="Trazado 877466" d="M87.949,109.482c.128.113.252.228.379.342-5.467,1.63-10.22,4.424-9.5,11,.791,7.186.925,11.892,6.141,11.892.524,0,1.05.005,1.568.009-1.016.012-2.091-.009-3.163-.009-5.216,0-5.35-4.706-6.141-11.892-.776-7.056,4.76-9.757,10.714-11.338" transform="translate(-77.162 -109.482)" fill="none"/>
    </clipPath>
    <linearGradient id="linear-gradient-6" x1="-1.788" y1="2.942" x2="-1.762" y2="2.942" xlink:href="#linear-gradient-2"/>
    <clipPath id="clip-path-25">
      <rect id="Rectángulo_401591" data-name="Rectángulo 401591" width="14.605" height="16.661" fill="none"/>
    </clipPath>
    <clipPath id="clip-path-26">
      <path id="Trazado_877467" data-name="Trazado 877467" d="M112.756,162.541c-.781-4.354-1.527-7.166-1.829-8.229l1.454-.484a79.343,79.343,0,0,1,1.97,8.713c1.008,5.647-3.208,7.948-13.887,7.948-.2,0-.383,0-.573-.008,9.925-.146,13.841-2.477,12.865-7.94" transform="translate(-99.891 -153.828)" fill="none"/>
    </clipPath>
    <linearGradient id="linear-gradient-7" x1="-2.114" y1="3.047" x2="-2.093" y2="3.047" xlink:href="#linear-gradient-2"/>
    <clipPath id="clip-path-27">
      <rect id="Rectángulo_401592" data-name="Rectángulo 401592" width="14.642" height="17.555" fill="none"/>
    </clipPath>
    <clipPath id="clip-path-28">
      <rect id="Rectángulo_401593" data-name="Rectángulo 401593" width="5.259" height="3.733" fill="none"/>
    </clipPath>
    <clipPath id="clip-path-29">
      <rect id="Rectángulo_401595" data-name="Rectángulo 401595" width="15.427" height="5.385" fill="none"/>
    </clipPath>
    <clipPath id="clip-path-30">
      <path id="Trazado_877471" data-name="Trazado 877471" d="M127.5,144.077a.935.935,0,0,0-.862-.661.831.831,0,0,0-.243.037l-13.7,4.556a.835.835,0,0,0-.133.06.851.851,0,0,1,.569-.792l13.7-4.556a.821.821,0,0,1,.243-.038.934.934,0,0,1,.861.661.912.912,0,0,1-.381,1.1,1.022,1.022,0,0,0-.053-.371" transform="translate(-112.567 -142.684)" fill="none"/>
    </clipPath>
    <linearGradient id="linear-gradient-8" x1="-2.686" y1="9.82" x2="-2.662" y2="9.82" xlink:href="#linear-gradient-2"/>
    <clipPath id="clip-path-31">
      <rect id="Rectángulo_401596" data-name="Rectángulo 401596" width="5.534" height="3.214" fill="none"/>
    </clipPath>
    <clipPath id="clip-path-32">
      <rect id="Rectángulo_401598" data-name="Rectángulo 401598" width="1.439" height="3.329" fill="none"/>
    </clipPath>
    <clipPath id="clip-path-33">
      <path id="Trazado_877474" data-name="Trazado 877474" d="M130.445,126.555l-.292-2.219,1.152-.407v0l.281,2.129a.9.9,0,0,1-.572.929l-.754.267a1.028,1.028,0,0,0,.186-.7" transform="translate(-130.153 -123.929)" fill="none"/>
    </clipPath>
    <linearGradient id="linear-gradient-9" x1="-13.167" y1="24.344" x2="-13.064" y2="24.344" xlink:href="#linear-gradient-2"/>
    <clipPath id="clip-path-34">
      <rect id="Rectángulo_401600" data-name="Rectángulo 401600" width="9.202" height="9.202" fill="none"/>
    </clipPath>
    <clipPath id="clip-path-35">
      <path id="Trazado_877476" data-name="Trazado 877476" d="M80.09,64.174a4.6,4.6,0,1,0,4.6-4.6,4.6,4.6,0,0,0-4.6,4.6" transform="translate(-80.09 -59.573)" fill="none"/>
    </clipPath>
    <linearGradient id="linear-gradient-10" x1="-3.079" y1="9.358" x2="-3.04" y2="9.358" gradientUnits="objectBoundingBox">
      <stop offset="0" stop-color="#8d358f"/>
      <stop offset="0.106" stop-color="#8d358f"/>
      <stop offset="1"/>
    </linearGradient>
    <clipPath id="clip-path-36">
      <rect id="Rectángulo_401602" data-name="Rectángulo 401602" width="7.653" height="7.191" fill="none"/>
    </clipPath>
    <clipPath id="clip-path-37">
      <path id="Trazado_877477" data-name="Trazado 877477" d="M90.59,65.139a4.179,4.179,0,0,0-7.083-3.009,4.181,4.181,0,1,1,6.372,5.342,4.162,4.162,0,0,0,.711-2.333" transform="translate(-83.507 -60.282)" fill="none"/>
    </clipPath>
    <linearGradient id="linear-gradient-11" x1="-3.013" y1="8.998" x2="-2.976" y2="8.998" xlink:href="#linear-gradient-2"/>
    <clipPath id="clip-path-38">
      <path id="Trazado_877478" data-name="Trazado 877478" d="M84.862,67a2.8,2.8,0,1,0,2.8-2.8,2.8,2.8,0,0,0-2.8,2.8" transform="translate(-84.862 -64.196)" fill="none"/>
    </clipPath>
    <linearGradient id="linear-gradient-12" x1="-4.184" y1="12.102" x2="-4.134" y2="12.102" xlink:href="#linear-gradient"/>
    <clipPath id="clip-path-40">
      <rect id="Rectángulo_401605" data-name="Rectángulo 401605" width="5.169" height="4.931" fill="none"/>
    </clipPath>
    <clipPath id="clip-path-41">
      <path id="Trazado_877480" data-name="Trazado 877480" d="M91.42,101.135A1.882,1.882,0,1,0,93.3,99.253a1.882,1.882,0,0,0-1.882,1.882" transform="translate(-91.42 -99.253)" fill="none"/>
    </clipPath>
    <linearGradient id="linear-gradient-13" x1="-6.501" y1="14.732" x2="-6.428" y2="14.732" xlink:href="#linear-gradient"/>
    <clipPath id="clip-path-43">
      <rect id="Rectángulo_401608" data-name="Rectángulo 401608" width="3.765" height="3.765" fill="none"/>
    </clipPath>
    <clipPath id="clip-path-44">
      <rect id="Rectángulo_401610" data-name="Rectángulo 401610" width="3.72" height="3.121" fill="none"/>
    </clipPath>
    <clipPath id="clip-path-45">
      <path id="Trazado_877482" data-name="Trazado 877482" d="M94.829,101.972a1.875,1.875,0,0,0-3.289-1.239,1.88,1.88,0,1,1,3.244,1.641,1.861,1.861,0,0,0,.045-.4" transform="translate(-91.54 -99.253)" fill="none"/>
    </clipPath>
    <linearGradient id="linear-gradient-14" x1="-7.469" y1="16.019" x2="-7.387" y2="16.019" xlink:href="#linear-gradient-2"/>
    <clipPath id="clip-path-46">
      <rect id="Rectángulo_401612" data-name="Rectángulo 401612" width="44.433" height="2.092" fill="none"/>
    </clipPath>
    <clipPath id="clip-path-47">
      <path id="Trazado_877484" data-name="Trazado 877484" d="M91.966,205.155a.836.836,0,0,0-.837-.836H48.474a.834.834,0,0,1,.826-.732H92.071a.837.837,0,0,1,.836.837v1.255h-.941Z" transform="translate(-48.474 -203.586)" fill="none"/>
    </clipPath>
    <linearGradient id="linear-gradient-15" x1="-7.505" y1="1.296" x2="-7.431" y2="1.296" xlink:href="#linear-gradient-2"/>
    <clipPath id="clip-path-48">
      <rect id="Rectángulo_401613" data-name="Rectángulo 401613" width="3.368" height="3.369" fill="none"/>
    </clipPath>
    <clipPath id="clip-path-49">
      <rect id="Rectángulo_401614" data-name="Rectángulo 401614" width="16.125" height="1.702" fill="none"/>
    </clipPath>
    <clipPath id="clip-path-50">
      <rect id="Rectángulo_401616" data-name="Rectángulo 401616" width="9.555" height="7.654" fill="none"/>
    </clipPath>
    <clipPath id="clip-path-51">
      <path id="Trazado_877488" data-name="Trazado 877488" d="M101.675,183.633c2.856-1.4,5.044,1.365,9.555,7.3H109.6c-3.606-4.736-5.708-7.347-7.926-7.3" transform="translate(-101.675 -183.277)" fill="none"/>
    </clipPath>
    <linearGradient id="linear-gradient-16" x1="-2.848" y1="3.657" x2="-2.819" y2="3.657" xlink:href="#linear-gradient-2"/>
    <clipPath id="clip-path-52">
      <path id="Trazado_877489" data-name="Trazado 877489" d="M102.021,188.244a1.307,1.307,0,1,0,1.307-1.307,1.307,1.307,0,0,0-1.307,1.307" transform="translate(-102.021 -186.937)" fill="none"/>
    </clipPath>
    <linearGradient id="linear-gradient-17" x1="-10.419" y1="11.87" x2="-10.315" y2="11.87" xlink:href="#linear-gradient"/>
    <clipPath id="clip-path-54">
      <rect id="Rectángulo_401619" data-name="Rectángulo 401619" width="2.615" height="2.614" fill="none"/>
    </clipPath>
    <clipPath id="clip-path-55">
      <rect id="Rectángulo_401621" data-name="Rectángulo 401621" width="2.471" height="2.38" fill="none"/>
    </clipPath>
    <clipPath id="clip-path-56">
      <path id="Trazado_877491" data-name="Trazado 877491" d="M104.455,188.732a1.305,1.305,0,0,0-2.052-1.072,1.3,1.3,0,1,1,1.908,1.657,1.291,1.291,0,0,0,.144-.585" transform="translate(-102.403 -186.937)" fill="none"/>
    </clipPath>
    <linearGradient id="linear-gradient-18" x1="-11.675" y1="13.05" x2="-11.56" y2="13.05" xlink:href="#linear-gradient-2"/>
  </defs>
  <g id="Grupo_1100491" data-name="Grupo 1100491" transform="translate(-910.665 -424.305)">
    <g id="Grupo_1099894" data-name="Grupo 1099894" transform="translate(911.15 424.79)">
      <g id="Grupo_1098744" data-name="Grupo 1098744" transform="translate(0 0)">
        <g id="Grupo_1098741" data-name="Grupo 1098741">
          <g id="Rectángulo_400898" data-name="Rectángulo 400898" transform="translate(-0.485 -0.485)" fill="#fff" stroke="#fff" stroke-width="3" opacity="0.859">
            <rect width="95" height="95" rx="47.5" stroke="none"/>
            <rect x="1.5" y="1.5" width="92" height="92" rx="46" fill="none"/>
          </g>
          <g id="Rectángulo_400907" data-name="Rectángulo 400907" transform="translate(-0.485 -0.485)" fill="none" stroke="#fff" stroke-width="3">
            <rect width="95" height="95" rx="47.5" stroke="none"/>
            <rect x="1.5" y="1.5" width="92" height="92" rx="46" fill="none"/>
          </g>
        </g>
      </g>
    </g>
    <g id="Grupo_1100199" data-name="Grupo 1100199" transform="translate(916.333 424.305)">
      <g id="Grupo_1100198" data-name="Grupo 1100198" clip-path="url(#clip-path)">
        <g id="Grupo_1100060" data-name="Grupo 1100060" transform="translate(32.426 11.303)">
          <g id="Grupo_1100059" data-name="Grupo 1100059" clip-path="url(#clip-path-2)">
            <rect id="Rectángulo_401568" data-name="Rectángulo 401568" width="8.32" height="7.322" transform="translate(-1.643 0.563) rotate(-18.924)" fill="url(#linear-gradient)"/>
          </g>
        </g>
        <g id="Grupo_1100091" data-name="Grupo 1100091">
          <g id="Grupo_1100090" data-name="Grupo 1100090" clip-path="url(#clip-path)">
            <g id="Grupo_1100063" data-name="Grupo 1100063" transform="translate(32.426 11.303)" style="mix-blend-mode: multiply;isolation: isolate">
              <g id="Grupo_1100062" data-name="Grupo 1100062">
                <g id="Grupo_1100061" data-name="Grupo 1100061" clip-path="url(#clip-path-4)">
                  <path id="Trazado_877450" data-name="Trazado 877450" d="M91.833,29.993l.2.566a14.941,14.941,0,0,0-5.286,3.483l-.707-2Z" transform="translate(-86.039 -29.993)" fill="#c9c9c9"/>
                </g>
              </g>
            </g>
            <path id="Trazado_877451" data-name="Trazado 877451" d="M82.157,27.564a.854.854,0,0,0,.569,1.611l.539-.188,5.794-2.05.536-.188a.854.854,0,0,0-.28-1.661.874.874,0,0,0-.289.05Z" transform="translate(-50.84 -15.633)" fill="#423c42"/>
            <g id="Grupo_1100068" data-name="Grupo 1100068" transform="translate(30.751 9.455)" style="mix-blend-mode: screen;isolation: isolate">
              <g id="Grupo_1100067" data-name="Grupo 1100067">
                <g id="Grupo_1100066" data-name="Grupo 1100066" clip-path="url(#clip-path-5)">
                  <g id="Grupo_1100065" data-name="Grupo 1100065" transform="translate(0 0)">
                    <g id="Grupo_1100064" data-name="Grupo 1100064" clip-path="url(#clip-path-6)">
                      <rect id="Rectángulo_401570" data-name="Rectángulo 401570" width="4.456" height="9.057" transform="matrix(0.143, -0.99, 0.99, 0.143, -0.46, 3.177)" fill="url(#linear-gradient-2)"/>
                    </g>
                  </g>
                </g>
              </g>
            </g>
            <path id="Trazado_877453" data-name="Trazado 877453" d="M86.771,40.6a.854.854,0,1,0,.568,1.61l.13-.046,6.6-2.338.134-.046a.855.855,0,0,0-.284-1.66.834.834,0,0,0-.284.05l-.54.193-5.793,2.05Z" transform="translate(-53.713 -23.752)" fill="#423c42"/>
            <g id="Grupo_1100073" data-name="Grupo 1100073" transform="translate(32.503 14.366)" style="mix-blend-mode: screen;isolation: isolate">
              <g id="Grupo_1100072" data-name="Grupo 1100072">
                <g id="Grupo_1100071" data-name="Grupo 1100071" clip-path="url(#clip-path-7)">
                  <g id="Grupo_1100070" data-name="Grupo 1100070" transform="translate(0 0)">
                    <g id="Grupo_1100069" data-name="Grupo 1100069" clip-path="url(#clip-path-8)">
                      <rect id="Rectángulo_401572" data-name="Rectángulo 401572" width="5.428" height="9.195" transform="translate(-0.84 2.897) rotate(-73.835)" fill="url(#linear-gradient-3)"/>
                    </g>
                  </g>
                </g>
              </g>
            </g>
            <path id="Trazado_877455" data-name="Trazado 877455" d="M113.932,120.343a.852.852,0,1,0,.569,1.606l1.113-.393,5.45-1.924,1.113-.393a.855.855,0,0,0-.284-1.661.881.881,0,0,0-.289.05l-.531.188-6.6,2.338Z" transform="translate(-70.639 -73.266)" fill="#423c42"/>
            <g id="Grupo_1100078" data-name="Grupo 1100078" transform="translate(42.726 44.311)" style="mix-blend-mode: screen;isolation: isolate">
              <g id="Grupo_1100077" data-name="Grupo 1100077">
                <g id="Grupo_1100076" data-name="Grupo 1100076" clip-path="url(#clip-path-9)">
                  <g id="Grupo_1100075" data-name="Grupo 1100075" transform="translate(0 0)">
                    <g id="Grupo_1100074" data-name="Grupo 1100074" clip-path="url(#clip-path-10)">
                      <rect id="Rectángulo_401574" data-name="Rectángulo 401574" width="9.676" height="4.059" transform="translate(-0.192 0.004) rotate(-1.975)" fill="url(#linear-gradient-4)"/>
                    </g>
                  </g>
                </g>
              </g>
            </g>
            <path id="Trazado_877457" data-name="Trazado 877457" d="M89.569,44.985l2.046,5.785,6.007,16.975,2.021,5.714v0l6.6-2.338L96.173,42.647Z" transform="translate(-55.813 -26.575)" fill="#7c427d"/>
            <g id="Grupo_1100081" data-name="Grupo 1100081" transform="translate(33.756 16.072)" style="mix-blend-mode: multiply;isolation: isolate">
              <g id="Grupo_1100080" data-name="Grupo 1100080">
                <g id="Grupo_1100079" data-name="Grupo 1100079" clip-path="url(#clip-path-11)">
                  <path id="Trazado_877458" data-name="Trazado 877458" d="M90.42,47.394l-.851-2.407,6.6-2.338.219.618a15.983,15.983,0,0,0-5.972,4.127" transform="translate(-89.569 -42.648)" fill="#b663ba"/>
                </g>
              </g>
            </g>
            <g id="Grupo_1100084" data-name="Grupo 1100084" transform="translate(35.185 22.451)" style="mix-blend-mode: multiply;isolation: isolate">
              <g id="Grupo_1100083" data-name="Grupo 1100083">
                <g id="Grupo_1100082" data-name="Grupo 1100082" clip-path="url(#clip-path-12)">
                  <path id="Trazado_877459" data-name="Trazado 877459" d="M97.175,70.355l-3.2-9.037-.617-1.744c5.879.732,5.937,7.791,3.815,10.781" transform="translate(-93.36 -59.574)" fill="#b663ba"/>
                </g>
              </g>
            </g>
            <g id="Grupo_1100089" data-name="Grupo 1100089" transform="translate(37.563 16.91)" style="mix-blend-mode: screen;isolation: isolate">
              <g id="Grupo_1100088" data-name="Grupo 1100088">
                <g id="Grupo_1100087" data-name="Grupo 1100087" clip-path="url(#clip-path-13)">
                  <g id="Grupo_1100086" data-name="Grupo 1100086" transform="translate(-0.004 0.001)">
                    <g id="Grupo_1100085" data-name="Grupo 1100085" transform="translate(0 0)" clip-path="url(#clip-path-14)">
                      <rect id="Rectángulo_401578" data-name="Rectángulo 401578" width="21.212" height="30.292" transform="translate(-9.219 3.5) rotate(-20.788)" fill="url(#linear-gradient-5)"/>
                    </g>
                  </g>
                </g>
              </g>
            </g>
            <path id="Trazado_877460" data-name="Trazado 877460" d="M71.911,64.2C55.43,71.065,56.877,86.375,59.7,98.535c2.719,11.712,3.948,16.1,14.628,16.1s14.9-2.3,13.888-7.948a79.4,79.4,0,0,0-1.97-8.713l-4.739,1.577c2.016,5.463-3.3,4.94-8.508,4.94S67.649,99.79,66.858,92.6s4.973-9.86,11.056-11.428h0Z" transform="translate(-36.109 -40.005)" fill="#5c325e"/>
          </g>
        </g>
        <g id="Grupo_1100103" data-name="Grupo 1100103" transform="translate(21.839 24.196)">
          <g id="Grupo_1100102" data-name="Grupo 1100102" clip-path="url(#clip-path-15)">
            <g id="Grupo_1100096" data-name="Grupo 1100096" transform="translate(-21.839 4.929)" style="mix-blend-mode: screen;isolation: isolate">
              <g id="Grupo_1100095" data-name="Grupo 1100095">
                <g id="Grupo_1100094" data-name="Grupo 1100094" clip-path="url(#clip-path-16)">
                  <g id="Grupo_1100093" data-name="Grupo 1100093" transform="translate(0 0)">
                    <g id="Grupo_1100092" data-name="Grupo 1100092" clip-path="url(#clip-path-17)">
                      <rect id="Rectángulo_401582" data-name="Rectángulo 401582" width="96.348" height="104.977" transform="translate(-41.721 23.604) rotate(-32.537)" fill="url(#radial-gradient)"/>
                    </g>
                  </g>
                </g>
              </g>
            </g>
            <g id="Grupo_1100101" data-name="Grupo 1100101" transform="translate(-12.487 -24.196)" style="mix-blend-mode: screen;isolation: isolate">
              <g id="Grupo_1100100" data-name="Grupo 1100100" transform="translate(0)">
                <g id="Grupo_1100099" data-name="Grupo 1100099" clip-path="url(#clip-path-18)">
                  <g id="Grupo_1100098" data-name="Grupo 1100098" transform="translate(0)">
                    <g id="Grupo_1100097" data-name="Grupo 1100097" clip-path="url(#clip-path-19)">
                      <rect id="Rectángulo_401584" data-name="Rectángulo 401584" width="36.145" height="95.068" transform="matrix(0.993, -0.115, 0.115, 0.993, -12.172, 0.711)" fill="url(#radial-gradient-2)"/>
                    </g>
                  </g>
                </g>
              </g>
            </g>
          </g>
        </g>
        <g id="Grupo_1100150" data-name="Grupo 1100150">
          <g id="Grupo_1100149" data-name="Grupo 1100149" clip-path="url(#clip-path)">
            <g id="Grupo_1100106" data-name="Grupo 1100106" transform="translate(32.942 37.57)" style="mix-blend-mode: multiply;isolation: isolate">
              <g id="Grupo_1100105" data-name="Grupo 1100105">
                <g id="Grupo_1100104" data-name="Grupo 1100104" clip-path="url(#clip-path-21)">
                  <path id="Trazado_877464" data-name="Trazado 877464" d="M92.317,101.218a2.645,2.645,0,0,1-1.5,3.117c-2.377,1.163-4.179-1.49-3.075-3.454a2.618,2.618,0,0,1,4.577.336" transform="translate(-87.408 -99.69)" fill="#b663ba"/>
                </g>
              </g>
            </g>
            <g id="Grupo_1100109" data-name="Grupo 1100109" transform="translate(30.267 69.405)" style="mix-blend-mode: multiply;isolation: isolate">
              <g id="Grupo_1100108" data-name="Grupo 1100108">
                <g id="Grupo_1100107" data-name="Grupo 1100107" clip-path="url(#clip-path-22)">
                  <path id="Trazado_877465" data-name="Trazado 877465" d="M95.076,188.945a43.6,43.6,0,0,1-6.812.447c-3.573,0-6.085-.5-7.952-1.588a17.827,17.827,0,0,1,10.265-3.641c1.61.4,3.605,2.742,4.5,4.782" transform="translate(-80.312 -184.163)" fill="#b663ba"/>
                </g>
              </g>
            </g>
            <g id="Grupo_1100114" data-name="Grupo 1100114" transform="translate(29.08 41.261)" style="mix-blend-mode: screen;isolation: isolate">
              <g id="Grupo_1100113" data-name="Grupo 1100113">
                <g id="Grupo_1100112" data-name="Grupo 1100112" clip-path="url(#clip-path-23)">
                  <g id="Grupo_1100111" data-name="Grupo 1100111" transform="translate(0 0)">
                    <g id="Grupo_1100110" data-name="Grupo 1100110" clip-path="url(#clip-path-24)">
                      <rect id="Rectángulo_401588" data-name="Rectángulo 401588" width="14.999" height="24.681" transform="translate(-3.918 0.453) rotate(-8.027)" fill="url(#linear-gradient-6)"/>
                    </g>
                  </g>
                </g>
              </g>
            </g>
            <g id="Grupo_1100119" data-name="Grupo 1100119" transform="translate(37.646 57.973)" style="mix-blend-mode: screen;isolation: isolate">
              <g id="Grupo_1100118" data-name="Grupo 1100118">
                <g id="Grupo_1100117" data-name="Grupo 1100117" clip-path="url(#clip-path-25)">
                  <g id="Grupo_1100116" data-name="Grupo 1100116" transform="translate(0 0)">
                    <g id="Grupo_1100115" data-name="Grupo 1100115" clip-path="url(#clip-path-26)">
                      <rect id="Rectángulo_401590" data-name="Rectángulo 401590" width="17.358" height="18.398" transform="translate(-1.987 0.24) rotate(-6.9)" fill="url(#linear-gradient-7)"/>
                    </g>
                  </g>
                </g>
              </g>
            </g>
            <g id="Grupo_1100122" data-name="Grupo 1100122" transform="translate(27.166 24.196)" style="mix-blend-mode: multiply;isolation: isolate">
              <g id="Grupo_1100121" data-name="Grupo 1100121">
                <g id="Grupo_1100120" data-name="Grupo 1100120" clip-path="url(#clip-path-27)">
                  <path id="Trazado_877468" data-name="Trazado 877468" d="M80.719,64.2l6.007,16.975h0c-.688.177-1.37.37-2.041.58A63.044,63.044,0,0,0,81.4,72.884c-3.755,1.357-6.965-.15-9.314-2.846A23.829,23.829,0,0,1,80.719,64.2" transform="translate(-72.083 -64.201)" fill="#b663ba"/>
                </g>
              </g>
            </g>
            <g id="Grupo_1100125" data-name="Grupo 1100125" transform="translate(45.398 57.973)" style="mix-blend-mode: multiply;isolation: isolate">
              <g id="Grupo_1100124" data-name="Grupo 1100124">
                <g id="Grupo_1100123" data-name="Grupo 1100123" clip-path="url(#clip-path-28)">
                  <path id="Trazado_877469" data-name="Trazado 877469" d="M120.459,155.405l4.739-1.577s.2.653.52,1.9c-1.621.57-3.225,1.2-4.823,1.834a5.906,5.906,0,0,0-.436-2.156" transform="translate(-120.459 -153.828)" fill="#b663ba"/>
                </g>
              </g>
            </g>
            <path id="Trazado_877470" data-name="Trazado 877470" d="M113.135,147.277a.89.89,0,0,0-.514,1.158.9.9,0,0,0,1.1.627l1.815-.6,4.739-1.577,7.144-2.376a.9.9,0,0,0,.514-1.163.934.934,0,0,0-.861-.661.805.805,0,0,0-.243.038Z" transform="translate(-70.143 -88.91)" fill="#423c42"/>
            <g id="Grupo_1100130" data-name="Grupo 1100130" transform="translate(42.423 53.774)" style="mix-blend-mode: screen;isolation: isolate">
              <g id="Grupo_1100129" data-name="Grupo 1100129">
                <g id="Grupo_1100128" data-name="Grupo 1100128" clip-path="url(#clip-path-29)">
                  <g id="Grupo_1100127" data-name="Grupo 1100127" transform="translate(0 0)">
                    <g id="Grupo_1100126" data-name="Grupo 1100126" clip-path="url(#clip-path-30)">
                      <rect id="Rectángulo_401594" data-name="Rectángulo 401594" width="15.75" height="6.082" transform="translate(-0.244 0.011) rotate(-2.595)" fill="url(#linear-gradient-8)"/>
                    </g>
                  </g>
                </g>
              </g>
            </g>
            <path id="Trazado_877472" data-name="Trazado 877472" d="M119.338,124.952l1.351,2.188a1.077,1.077,0,0,0,1.225.435l2.526-.9a1.078,1.078,0,0,0,.683-1.109l-.335-2.539v0Z" transform="translate(-74.363 -76.662)" fill="#5c325e"/>
            <g id="Grupo_1100133" data-name="Grupo 1100133" transform="translate(44.975 46.366)" style="mix-blend-mode: multiply;isolation: isolate">
              <g id="Grupo_1100132" data-name="Grupo 1100132">
                <g id="Grupo_1100131" data-name="Grupo 1100131" clip-path="url(#clip-path-31)">
                  <path id="Trazado_877473" data-name="Trazado 877473" d="M124.787,123.028v0l.084.631a19.234,19.234,0,0,0-4.738,2.579l-.8-1.29Z" transform="translate(-119.337 -123.028)" fill="#b663ba"/>
                </g>
              </g>
            </g>
            <g id="Grupo_1100138" data-name="Grupo 1100138" transform="translate(49.051 46.705)" style="mix-blend-mode: screen;isolation: isolate">
              <g id="Grupo_1100137" data-name="Grupo 1100137">
                <g id="Grupo_1100136" data-name="Grupo 1100136" clip-path="url(#clip-path-32)">
                  <g id="Grupo_1100135" data-name="Grupo 1100135" transform="translate(0 0)">
                    <g id="Grupo_1100134" data-name="Grupo 1100134" clip-path="url(#clip-path-33)">
                      <rect id="Rectángulo_401597" data-name="Rectángulo 401597" width="3.643" height="2.717" transform="matrix(0.411, -0.912, 0.912, 0.411, -1.246, 2.767)" fill="url(#linear-gradient-9)"/>
                    </g>
                  </g>
                </g>
              </g>
            </g>
            <path id="Trazado_877475" data-name="Trazado 877475" d="M80.09,64.174a4.6,4.6,0,1,0,4.6-4.6,4.6,4.6,0,0,0-4.6,4.6" transform="translate(-49.906 -37.122)" fill="#423c42"/>
            <g id="Grupo_1100143" data-name="Grupo 1100143" transform="translate(30.184 22.451)" style="mix-blend-mode: screen;isolation: isolate">
              <g id="Grupo_1100142" data-name="Grupo 1100142">
                <g id="Grupo_1100141" data-name="Grupo 1100141" clip-path="url(#clip-path-34)">
                  <g id="Grupo_1100140" data-name="Grupo 1100140" transform="translate(0 0)">
                    <g id="Grupo_1100139" data-name="Grupo 1100139" clip-path="url(#clip-path-35)">
                      <rect id="Rectángulo_401599" data-name="Rectángulo 401599" width="9.72" height="9.72" transform="translate(-0.532 9.172) rotate(-86.679)" fill="url(#linear-gradient-10)"/>
                    </g>
                  </g>
                </g>
              </g>
            </g>
            <g id="Grupo_1100148" data-name="Grupo 1100148" transform="translate(31.472 22.719)" style="mix-blend-mode: screen;isolation: isolate">
              <g id="Grupo_1100147" data-name="Grupo 1100147">
                <g id="Grupo_1100146" data-name="Grupo 1100146" clip-path="url(#clip-path-36)">
                  <g id="Grupo_1100145" data-name="Grupo 1100145" transform="translate(0 0)">
                    <g id="Grupo_1100144" data-name="Grupo 1100144" clip-path="url(#clip-path-37)">
                      <rect id="Rectángulo_401601" data-name="Rectángulo 401601" width="10.048" height="10.219" transform="matrix(0.498, -0.867, 0.867, 0.498, -3.106, 5.406)" fill="url(#linear-gradient-11)"/>
                    </g>
                  </g>
                </g>
              </g>
            </g>
          </g>
        </g>
        <g id="Grupo_1100152" data-name="Grupo 1100152" transform="translate(31.982 24.194)">
          <g id="Grupo_1100151" data-name="Grupo 1100151" clip-path="url(#clip-path-38)">
            <rect id="Rectángulo_401604" data-name="Rectángulo 401604" width="7.426" height="7.426" transform="matrix(0.414, -0.91, 0.91, 0.414, -2.114, 4.644)" fill="url(#linear-gradient-12)"/>
          </g>
        </g>
        <g id="Grupo_1100157" data-name="Grupo 1100157">
          <g id="Grupo_1100156" data-name="Grupo 1100156" clip-path="url(#clip-path)">
            <g id="Grupo_1100155" data-name="Grupo 1100155" transform="translate(32.42 24.194)" style="mix-blend-mode: multiply;isolation: isolate">
              <g id="Grupo_1100154" data-name="Grupo 1100154">
                <g id="Grupo_1100153" data-name="Grupo 1100153" clip-path="url(#clip-path-40)">
                  <path id="Trazado_877479" data-name="Trazado 877479" d="M90.649,67.627A2.8,2.8,0,0,0,86.023,65.5a2.8,2.8,0,1,1,4.187,3.628,2.784,2.784,0,0,0,.438-1.5" transform="translate(-86.023 -64.196)" fill="#bababa"/>
                </g>
              </g>
            </g>
          </g>
        </g>
        <g id="Grupo_1100159" data-name="Grupo 1100159" transform="translate(34.454 37.406)">
          <g id="Grupo_1100158" data-name="Grupo 1100158" clip-path="url(#clip-path-41)">
            <rect id="Rectángulo_401607" data-name="Rectángulo 401607" width="5.19" height="5.19" transform="matrix(0.532, -0.847, 0.847, 0.532, -1.695, 2.7)" fill="url(#linear-gradient-13)"/>
          </g>
        </g>
        <g id="Grupo_1100185" data-name="Grupo 1100185">
          <g id="Grupo_1100184" data-name="Grupo 1100184" clip-path="url(#clip-path)">
            <g id="Grupo_1100162" data-name="Grupo 1100162" transform="translate(34.454 37.406)" style="mix-blend-mode: multiply;isolation: isolate">
              <g id="Grupo_1100161" data-name="Grupo 1100161">
                <g id="Grupo_1100160" data-name="Grupo 1100160" clip-path="url(#clip-path-43)">
                  <path id="Trazado_877481" data-name="Trazado 877481" d="M91.421,101.135A1.882,1.882,0,1,0,93.3,99.253a1.882,1.882,0,0,0-1.882,1.882" transform="translate(-91.421 -99.253)" fill="#c9c9c9"/>
                </g>
              </g>
            </g>
            <g id="Grupo_1100167" data-name="Grupo 1100167" transform="translate(34.499 37.406)" style="mix-blend-mode: screen;isolation: isolate">
              <g id="Grupo_1100166" data-name="Grupo 1100166">
                <g id="Grupo_1100165" data-name="Grupo 1100165" clip-path="url(#clip-path-44)">
                  <g id="Grupo_1100164" data-name="Grupo 1100164" transform="translate(0 0)">
                    <g id="Grupo_1100163" data-name="Grupo 1100163" clip-path="url(#clip-path-45)">
                      <rect id="Rectángulo_401609" data-name="Rectángulo 401609" width="4.562" height="4.782" transform="matrix(0.5, -0.866, 0.866, 0.5, -1.351, 2.342)" fill="url(#linear-gradient-14)"/>
                    </g>
                  </g>
                </g>
              </g>
            </g>
            <path id="Trazado_877483" data-name="Trazado 877483" d="M48.446,204.423v1.255H92.89v-1.255a.837.837,0,0,0-.836-.837H49.283a.837.837,0,0,0-.837.837" transform="translate(-30.188 -126.86)" fill="#423c42"/>
            <g id="Grupo_1100172" data-name="Grupo 1100172" transform="translate(18.269 76.726)" style="mix-blend-mode: screen;isolation: isolate">
              <g id="Grupo_1100171" data-name="Grupo 1100171">
                <g id="Grupo_1100170" data-name="Grupo 1100170" clip-path="url(#clip-path-46)">
                  <g id="Grupo_1100169" data-name="Grupo 1100169" transform="translate(0 0)">
                    <g id="Grupo_1100168" data-name="Grupo 1100168" clip-path="url(#clip-path-47)">
                      <rect id="Rectángulo_401611" data-name="Rectángulo 401611" width="5.057" height="44.474" transform="matrix(0.067, -0.998, 0.998, 0.067, -0.14, 2.082)" fill="url(#linear-gradient-15)"/>
                    </g>
                  </g>
                </g>
              </g>
            </g>
            <path id="Trazado_877485" data-name="Trazado 877485" d="M84.242,190.928h16.125c-7.237-9.516-8.492-10.876-16.125,0" transform="translate(-52.494 -114.202)" fill="#7c427d"/>
            <g id="Grupo_1100175" data-name="Grupo 1100175" transform="translate(37.703 70.899)" style="mix-blend-mode: multiply;isolation: isolate">
              <g id="Grupo_1100174" data-name="Grupo 1100174">
                <g id="Grupo_1100173" data-name="Grupo 1100173" clip-path="url(#clip-path-48)">
                  <path id="Trazado_877486" data-name="Trazado 877486" d="M100.041,189.811a1.684,1.684,0,1,0,1.684-1.685,1.684,1.684,0,0,0-1.684,1.685" transform="translate(-100.041 -188.126)" fill="#b663ba"/>
                </g>
              </g>
            </g>
            <g id="Grupo_1100178" data-name="Grupo 1100178" transform="translate(31.748 75.023)" style="mix-blend-mode: multiply;isolation: isolate">
              <g id="Grupo_1100177" data-name="Grupo 1100177">
                <g id="Grupo_1100176" data-name="Grupo 1100176" clip-path="url(#clip-path-49)">
                  <path id="Trazado_877487" data-name="Trazado 877487" d="M99.5,199.634c.28.367.567.742.868,1.138H84.242c.426-.608.83-1.171,1.218-1.7a61.169,61.169,0,0,0,14.039.565" transform="translate(-84.242 -199.069)" fill="#b663ba"/>
                </g>
              </g>
            </g>
            <g id="Grupo_1100183" data-name="Grupo 1100183" transform="translate(38.318 69.072)" style="mix-blend-mode: screen;isolation: isolate">
              <g id="Grupo_1100182" data-name="Grupo 1100182">
                <g id="Grupo_1100181" data-name="Grupo 1100181" clip-path="url(#clip-path-50)">
                  <g id="Grupo_1100180" data-name="Grupo 1100180" transform="translate(0 0)">
                    <g id="Grupo_1100179" data-name="Grupo 1100179" clip-path="url(#clip-path-51)">
                      <rect id="Rectángulo_401615" data-name="Rectángulo 401615" width="12.871" height="12.918" transform="matrix(0.679, -0.734, 0.734, 0.679, -4.334, 3.641)" fill="url(#linear-gradient-16)"/>
                    </g>
                  </g>
                </g>
              </g>
            </g>
          </g>
        </g>
        <g id="Grupo_1100187" data-name="Grupo 1100187" transform="translate(38.449 70.451)">
          <g id="Grupo_1100186" data-name="Grupo 1100186" clip-path="url(#clip-path-52)">
            <rect id="Rectángulo_401618" data-name="Rectángulo 401618" width="3.641" height="3.641" transform="matrix(0.573, -0.819, 0.819, 0.573, -1.228, 1.755)" fill="url(#linear-gradient-17)"/>
          </g>
        </g>
        <g id="Grupo_1100197" data-name="Grupo 1100197">
          <g id="Grupo_1100196" data-name="Grupo 1100196" clip-path="url(#clip-path)">
            <g id="Grupo_1100190" data-name="Grupo 1100190" transform="translate(38.449 70.451)" style="mix-blend-mode: multiply;isolation: isolate">
              <g id="Grupo_1100189" data-name="Grupo 1100189">
                <g id="Grupo_1100188" data-name="Grupo 1100188" clip-path="url(#clip-path-54)">
                  <path id="Trazado_877490" data-name="Trazado 877490" d="M102.021,188.244a1.307,1.307,0,1,0,1.307-1.307,1.308,1.308,0,0,0-1.307,1.307" transform="translate(-102.021 -186.937)" fill="#c9c9c9"/>
                </g>
              </g>
            </g>
            <g id="Grupo_1100195" data-name="Grupo 1100195" transform="translate(38.593 70.451)" style="mix-blend-mode: screen;isolation: isolate">
              <g id="Grupo_1100194" data-name="Grupo 1100194">
                <g id="Grupo_1100193" data-name="Grupo 1100193" clip-path="url(#clip-path-55)">
                  <g id="Grupo_1100192" data-name="Grupo 1100192">
                    <g id="Grupo_1100191" data-name="Grupo 1100191" clip-path="url(#clip-path-56)">
                      <rect id="Rectángulo_401620" data-name="Rectángulo 401620" width="3.271" height="3.308" transform="translate(-0.999 1.836) rotate(-61.436)" fill="url(#linear-gradient-18)"/>
                    </g>
                  </g>
                </g>
              </g>
            </g>
          </g>
        </g>
      </g>
    </g>
  </g>
</svg>
